<svg width="81" height="78" viewBox="0 0 81 78" fill="none" xmlns="http://www.w3.org/2000/svg">
<rect width="81" height="78" fill="#E6E6E6"/>
<g id="Final">
<path d="M-2745 -1459C-2745 -1460.1 -2744.1 -1461 -2743 -1461H11790C11791.1 -1461 11792 -1460.1 11792 -1459V16389C11792 16390.1 11791.1 16391 11790 16391H-2743C-2744.1 16391 -2745 16390.1 -2745 16389V-1459Z" fill="white" fill-opacity="0.2"/>
<g id="iPhone SE - 1" clip-path="url(#clip0_0_1)">
<rect width="320" height="5621" transform="translate(-92 -794)" fill="white"/>
<g id="Frame 632563">
<g id="Frame 632562">
<g id="Group 632548">
<g id="Group 63">
<path id="Vector" opacity="0.1" d="M-37.5835 53.2968C-16.3666 53.2968 0.833023 51.3562 0.833023 48.9624C0.833023 46.5685 -16.3666 44.6279 -37.5835 44.6279C-58.8003 44.6279 -76 46.5685 -76 48.9624C-76 51.3562 -58.8003 53.2968 -37.5835 53.2968Z" fill="#B01873"/>
</g>
<path id="Journey" d="M8.136 7.57448V13.7545C8.136 14.4425 7.924 14.9945 7.5 15.4105C7.076 15.8185 6.516 16.0225 5.82 16.0225C5.116 16.0225 4.552 15.8145 4.128 15.3985C3.704 14.9745 3.492 14.3985 3.492 13.6705H4.584C4.592 14.0785 4.696 14.4105 4.896 14.6665C5.104 14.9225 5.412 15.0505 5.82 15.0505C6.228 15.0505 6.532 14.9305 6.732 14.6905C6.932 14.4425 7.032 14.1305 7.032 13.7545V7.57448H8.136ZM13.1553 16.0465C12.5393 16.0465 11.9793 15.9065 11.4753 15.6265C10.9793 15.3465 10.5873 14.9505 10.2993 14.4385C10.0193 13.9185 9.87928 13.3185 9.87928 12.6385C9.87928 11.9665 10.0233 11.3745 10.3113 10.8625C10.6073 10.3425 11.0073 9.94648 11.5113 9.67448C12.0153 9.39448 12.5793 9.25448 13.2033 9.25448C13.8273 9.25448 14.3913 9.39448 14.8953 9.67448C15.3993 9.94648 15.7953 10.3385 16.0833 10.8505C16.3793 11.3625 16.5273 11.9585 16.5273 12.6385C16.5273 13.3185 16.3753 13.9185 16.0713 14.4385C15.7753 14.9505 15.3713 15.3465 14.8593 15.6265C14.3473 15.9065 13.7793 16.0465 13.1553 16.0465ZM13.1553 15.0865C13.5473 15.0865 13.9153 14.9945 14.2593 14.8105C14.6033 14.6265 14.8793 14.3505 15.0873 13.9825C15.3033 13.6145 15.4113 13.1665 15.4113 12.6385C15.4113 12.1105 15.3073 11.6625 15.0993 11.2945C14.8913 10.9265 14.6193 10.6545 14.2833 10.4785C13.9473 10.2945 13.5833 10.2025 13.1913 10.2025C12.7913 10.2025 12.4233 10.2945 12.0873 10.4785C11.7593 10.6545 11.4953 10.9265 11.2953 11.2945C11.0953 11.6625 10.9953 12.1105 10.9953 12.6385C10.9953 13.1745 11.0913 13.6265 11.2833 13.9945C11.4833 14.3625 11.7473 14.6385 12.0753 14.8225C12.4033 14.9985 12.7633 15.0865 13.1553 15.0865ZM23.7951 9.36248V15.9385H22.7031V14.9665C22.4951 15.3025 22.2031 15.5665 21.8271 15.7585C21.4591 15.9425 21.0511 16.0345 20.6031 16.0345C20.0911 16.0345 19.6311 15.9305 19.2231 15.7225C18.8151 15.5065 18.4911 15.1865 18.2511 14.7625C18.0191 14.3385 17.9031 13.8225 17.9031 13.2145V9.36248H18.9831V13.0705C18.9831 13.7185 19.1471 14.2185 19.4751 14.5705C19.8031 14.9145 20.2511 15.0865 20.8191 15.0865C21.4031 15.0865 21.8631 14.9065 22.1991 14.5465C22.5351 14.1865 22.7031 13.6625 22.7031 12.9745V9.36248H23.7951ZM26.7308 10.4305C26.9228 10.0545 27.1948 9.76248 27.5468 9.55448C27.9068 9.34648 28.3428 9.24248 28.8548 9.24248V10.3705H28.5668C27.3428 10.3705 26.7308 11.0345 26.7308 12.3625V15.9385H25.6388V9.36248H26.7308V10.4305ZM33.3194 9.24248C34.1194 9.24248 34.7674 9.48648 35.2634 9.97448C35.7594 10.4545 36.0074 11.1505 36.0074 12.0625V15.9385H34.9274V12.2185C34.9274 11.5625 34.7634 11.0625 34.4354 10.7185C34.1074 10.3665 33.6594 10.1905 33.0914 10.1905C32.5154 10.1905 32.0554 10.3705 31.7114 10.7305C31.3754 11.0905 31.2074 11.6145 31.2074 12.3025V15.9385H30.1154V9.36248H31.2074V10.2985C31.4234 9.96248 31.7154 9.70248 32.0834 9.51848C32.4594 9.33448 32.8714 9.24248 33.3194 9.24248ZM43.7912 12.3985C43.7912 12.6065 43.7792 12.8265 43.7552 13.0585H38.4992C38.5392 13.7065 38.7592 14.2145 39.1592 14.5825C39.5672 14.9425 40.0592 15.1225 40.6352 15.1225C41.1072 15.1225 41.4992 15.0145 41.8112 14.7985C42.1312 14.5745 42.3552 14.2785 42.4832 13.9105H43.6592C43.4832 14.5425 43.1312 15.0585 42.6032 15.4585C42.0752 15.8505 41.4192 16.0465 40.6352 16.0465C40.0112 16.0465 39.4512 15.9065 38.9552 15.6265C38.4672 15.3465 38.0832 14.9505 37.8032 14.4385C37.5232 13.9185 37.3832 13.3185 37.3832 12.6385C37.3832 11.9585 37.5192 11.3625 37.7912 10.8505C38.0632 10.3385 38.4432 9.94648 38.9312 9.67448C39.4272 9.39448 39.9952 9.25448 40.6352 9.25448C41.2592 9.25448 41.8112 9.39048 42.2912 9.66248C42.7712 9.93448 43.1392 10.3105 43.3952 10.7905C43.6592 11.2625 43.7912 11.7985 43.7912 12.3985ZM42.6632 12.1705C42.6632 11.7545 42.5712 11.3985 42.3872 11.1025C42.2032 10.7985 41.9512 10.5705 41.6312 10.4185C41.3192 10.2585 40.9712 10.1785 40.5872 10.1785C40.0352 10.1785 39.5632 10.3545 39.1712 10.7065C38.7872 11.0585 38.5672 11.5465 38.5112 12.1705H42.6632ZM50.8966 9.36248L46.9366 19.0345H45.8086L47.1046 15.8665L44.4526 9.36248H45.6646L47.7286 14.6905L49.7686 9.36248H50.8966Z" fill="#B01873"/>
<path id="Vector 16" d="M77 0.938477H77.5V0.438477H77V0.938477ZM76.6464 77.292C76.8417 77.4873 77.1583 77.4873 77.3536 77.292L80.5355 74.1101C80.7308 73.9148 80.7308 73.5982 80.5355 73.4029C80.3403 73.2077 80.0237 73.2077 79.8284 73.4029L77 76.2314L74.1716 73.4029C73.9763 73.2077 73.6597 73.2077 73.4645 73.4029C73.2692 73.5982 73.2692 73.9148 73.4645 74.1101L76.6464 77.292ZM0 1.43848H1.01316V0.438477H0V1.43848ZM3.03947 1.43848H5.06579V0.438477H3.03947V1.43848ZM7.09211 1.43848H9.11842V0.438477H7.09211V1.43848ZM11.1447 1.43848H13.1711V0.438477H11.1447V1.43848ZM15.1974 1.43848H17.2237V0.438477H15.1974V1.43848ZM19.25 1.43848H21.2763V0.438477H19.25V1.43848ZM23.3026 1.43848H25.3289V0.438477H23.3026V1.43848ZM27.3553 1.43848H29.3816V0.438477H27.3553V1.43848ZM31.4079 1.43848H33.4342V0.438477H31.4079V1.43848ZM35.4605 1.43848H37.4868V0.438477H35.4605V1.43848ZM39.5132 1.43848H41.5395V0.438477H39.5132V1.43848ZM43.5658 1.43848H45.5921V0.438477H43.5658V1.43848ZM47.6184 1.43848H49.6447V0.438477H47.6184V1.43848ZM51.671 1.43848H53.6974V0.438477H51.671V1.43848ZM55.7237 1.43848H57.75V0.438477H55.7237V1.43848ZM59.7763 1.43848H61.8026V0.438477H59.7763V1.43848ZM63.8289 1.43848H65.8552V0.438477H63.8289V1.43848ZM67.8815 1.43848H69.9079V0.438477H67.8815V1.43848ZM71.9342 1.43848H73.9605V0.438477H71.9342V1.43848ZM75.9868 1.43848H77V0.438477H75.9868V1.43848ZM76.5 0.938477V1.93848H77.5V0.938477H76.5ZM76.5 3.93848V5.93848H77.5V3.93848H76.5ZM76.5 7.93848V9.93848H77.5V7.93848H76.5ZM76.5 11.9385V13.9385H77.5V11.9385H76.5ZM76.5 15.9385V17.9385H77.5V15.9385H76.5ZM76.5 19.9385V21.9385H77.5V19.9385H76.5ZM76.5 23.9385V25.9385H77.5V23.9385H76.5ZM76.5 27.9385V29.9385H77.5V27.9385H76.5ZM76.5 31.9385V33.9385H77.5V31.9385H76.5ZM76.5 35.9385V37.9385H77.5V35.9385H76.5ZM76.5 39.9385V41.9385H77.5V39.9385H76.5ZM76.5 43.9385V45.9385H77.5V43.9385H76.5ZM76.5 47.9385V49.9385H77.5V47.9385H76.5ZM76.5 51.9385V53.9385H77.5V51.9385H76.5ZM76.5 55.9385V57.9385H77.5V55.9385H76.5ZM76.5 59.9385V61.9385H77.5V59.9385H76.5ZM76.5 63.9385V65.9385H77.5V63.9385H76.5ZM76.5 67.9385V69.9385H77.5V67.9385H76.5ZM76.5 71.9385V73.9385H77.5V71.9385H76.5ZM76.5 75.9385V76.9385H77.5V75.9385H76.5Z" fill="black"/>
</g>
</g>
</g>
</g>
<path d="M-2743 -1460H11790V-1462H-2743V-1460ZM11791 -1459V16389H11793V-1459H11791ZM11790 16390H-2743V16392H11790V16390ZM-2744 16389V-1459H-2746V16389H-2744ZM-2743 16390C-2743.55 16390 -2744 16389.6 -2744 16389H-2746C-2746 16390.7 -2744.66 16392 -2743 16392V16390ZM11791 16389C11791 16389.6 11790.6 16390 11790 16390V16392C11791.7 16392 11793 16390.7 11793 16389H11791ZM11790 -1460C11790.6 -1460 11791 -1459.55 11791 -1459H11793C11793 -1460.66 11791.7 -1462 11790 -1462V-1460ZM-2743 -1462C-2744.66 -1462 -2746 -1460.66 -2746 -1459H-2744C-2744 -1459.55 -2743.55 -1460 -2743 -1460V-1462Z" fill="black" fill-opacity="0.1"/>
</g>
<defs>
<clipPath id="clip0_0_1">
<rect width="320" height="5621" fill="white" transform="translate(-92 -794)"/>
</clipPath>
</defs>
</svg>
