<svg width="207" height="52" viewBox="0 0 207 52" fill="none" xmlns="http://www.w3.org/2000/svg">
<path d="M24.9409 30.0683L23.0789 30.1459L26.7781 18.3452L28.8047 18.2607L33.4733 29.7125L31.6113 29.7902L27.9277 20.4127L27.8369 20.4165L24.9409 30.0683ZM25.0634 25.5024L31.1036 25.2506L31.1651 26.7266L25.1249 26.9784L25.0634 25.5024ZM36.2287 17.9512L36.7134 29.5775L35.016 29.6482L34.5313 18.022L36.2287 17.9512ZM40.2096 17.7852L40.6943 29.4115L38.9969 29.4823L38.5122 17.856L40.2096 17.7852ZM49.0989 29.0611L46.1695 20.4484L47.9236 20.3753L49.8993 26.7076L49.9845 26.704L51.4319 20.229L53.1861 20.1559L55.1549 26.46L55.2401 26.4565L56.6717 20.0106L58.4259 19.9374L56.2291 28.7639L54.4976 28.8361L52.464 22.6142L52.3334 22.6197L50.8247 28.9892L49.0989 29.0611ZM63.9002 28.6204C63.0411 28.6562 62.2936 28.5035 61.6576 28.1622C61.0253 27.8171 60.5267 27.3166 60.1619 26.6607C59.8008 26.001 59.6014 25.2188 59.5637 24.3143C59.5265 23.4211 59.6602 22.627 59.9648 21.9319C60.2732 21.2366 60.7204 20.6853 61.3062 20.278C61.8958 19.8705 62.5955 19.6499 63.4054 19.6161C63.8974 19.5956 64.3777 19.6571 64.8462 19.8006C65.3147 19.9441 65.7397 20.1823 66.1214 20.5151C66.503 20.848 66.8114 21.2882 67.0465 21.8357C67.2815 22.3794 67.4154 23.0468 67.4484 23.8377L67.4735 24.4395L60.542 24.7285L60.489 23.4568L65.7572 23.2372C65.7385 22.7906 65.6312 22.3989 65.4352 22.0621C65.239 21.7215 64.9721 21.4578 64.6345 21.2709C64.3007 21.0839 63.9142 20.9995 63.4752 21.0178C62.9984 21.0377 62.587 21.1724 62.241 21.4219C61.8987 21.6674 61.6388 21.9815 61.4614 22.3642C61.2876 22.743 61.2098 23.15 61.228 23.5853L61.2694 24.5787C61.2937 25.1615 61.4165 25.6531 61.6379 26.0533C61.8631 26.4533 62.1657 26.7535 62.5455 26.9538C62.9253 27.1502 63.363 27.2381 63.8588 27.2175C64.1805 27.2041 64.4719 27.1464 64.733 27.0445C64.994 26.9389 65.2171 26.7893 65.4024 26.5958C65.5877 26.4023 65.7258 26.1672 65.8166 25.8904L67.4352 26.113C67.3263 26.5914 67.1127 27.0155 66.7945 27.3851C66.4799 27.7508 66.0769 28.0425 65.5855 28.2601C65.0978 28.4738 64.536 28.5939 63.9002 28.6204ZM75.2295 22.7855L75.4454 27.9628L73.748 28.0335L73.3845 19.3138L75.0137 19.2459L75.0729 20.6651L75.1807 20.6606C75.3621 20.1906 75.6607 19.8066 76.0767 19.5087C76.4965 19.2106 77.0337 19.048 77.6885 19.0207C78.2827 18.9959 78.8082 19.0991 79.2652 19.3303C79.7221 19.5576 80.0837 19.9103 80.35 20.3883C80.6164 20.8662 80.7645 21.4647 80.7945 22.1838L81.0257 27.7301L79.3283 27.8009L79.1056 22.4589C79.0793 21.8269 78.8941 21.3399 78.55 20.9979C78.2057 20.6521 77.746 20.4911 77.1707 20.5151C76.7771 20.5315 76.4306 20.6313 76.1312 20.8144C75.8355 20.9973 75.6056 21.2571 75.4414 21.5938C75.2809 21.9265 75.2103 22.3237 75.2295 22.7855ZM87.0676 27.6545C86.2085 27.6904 85.461 27.5377 84.825 27.1964C84.1926 26.8512 83.6941 26.3507 83.3293 25.6949C82.9682 25.0351 82.7688 24.253 82.7311 23.3485C82.6938 22.4553 82.8275 21.6612 83.1322 20.9661C83.4406 20.2708 83.8877 19.7195 84.4736 19.3122C85.0632 18.9047 85.7629 18.6841 86.5728 18.6503C87.0648 18.6298 87.5451 18.6913 88.0136 18.8348C88.4821 18.9782 88.9071 19.2164 89.2887 19.5493C89.6704 19.8822 89.9787 20.3224 90.2139 20.8699C90.4488 21.4136 90.5828 22.0809 90.6158 22.8719L90.6409 23.4737L83.7094 23.7626L83.6564 22.491L88.9245 22.2714C88.9059 21.8248 88.7986 21.4331 88.6026 21.0963C88.4064 20.7557 88.1395 20.4919 87.8019 20.3051C87.4681 20.1181 87.0816 20.0337 86.6426 20.052C86.1658 20.0719 85.7543 20.2066 85.4084 20.456C85.066 20.7016 84.8062 21.0157 84.6288 21.3984C84.455 21.7772 84.3772 22.1842 84.3953 22.6194L84.4367 23.6129C84.461 24.1957 84.5839 24.6872 84.8053 25.0875C85.0305 25.4875 85.333 25.7877 85.7129 25.9879C86.0926 26.1844 86.5304 26.2723 87.0262 26.2516C87.3479 26.2382 87.6393 26.1806 87.9004 26.0787C88.1614 25.9731 88.3845 25.8235 88.5698 25.63C88.7551 25.4365 88.8931 25.2014 88.984 24.9246L90.6026 25.1472C90.4936 25.6256 90.2801 26.0496 89.9618 26.4193C89.6473 26.785 89.2443 27.0766 88.7529 27.2943C88.2652 27.5079 87.7034 27.628 87.0676 27.6545ZM96.4501 27.2634C95.591 27.2992 94.8434 27.1465 94.2075 26.8053C93.5751 26.4601 93.0766 25.9596 92.7118 25.3038C92.3507 24.644 92.1513 23.8619 92.1135 22.9573C92.0763 22.0642 92.21 21.27 92.5147 20.5749C92.8231 19.8797 93.2702 19.3284 93.856 18.921C94.4456 18.5135 95.1454 18.2929 95.9553 18.2591C96.4473 18.2386 96.9275 18.3001 97.396 18.4436C97.8645 18.5871 98.2896 18.8253 98.6712 19.1582C99.0528 19.491 99.3612 19.9312 99.5963 20.4787C99.8313 21.0224 99.9653 21.6898 99.9983 22.4808L100.023 23.0825L93.0919 23.3715L93.0389 22.0999L98.307 21.8802C98.2884 21.4337 98.1811 21.042 97.9851 20.7051C97.7889 20.3645 97.522 20.1008 97.1844 19.9139C96.8505 19.7269 96.4641 19.6426 96.0251 19.6609C95.5482 19.6807 95.1368 19.8154 94.7908 20.0649C94.4485 20.3104 94.1886 20.6246 94.0112 21.0073C93.8375 21.3861 93.7597 21.7931 93.7778 22.2283L93.8192 23.2217C93.8435 23.8046 93.9664 24.2961 94.1878 24.6963C94.413 25.0964 94.7155 25.3965 95.0954 25.5968C95.4751 25.7933 95.9129 25.8812 96.4087 25.8605C96.7303 25.8471 97.0218 25.7894 97.2829 25.6876C97.5439 25.5819 97.767 25.4323 97.9523 25.2388C98.1376 25.0454 98.2756 24.8102 98.3664 24.5335L99.9851 24.756C99.8761 25.2345 99.6625 25.6585 99.3443 26.0281C99.0297 26.3938 98.6268 26.6855 98.1354 26.9031C97.6477 27.1168 97.0859 27.2369 96.4501 27.2634ZM105.338 26.8872C104.634 26.9165 103.999 26.7629 103.431 26.4264C102.867 26.086 102.414 25.5874 102.072 24.9306C101.734 24.2699 101.545 23.4683 101.506 22.526C101.466 21.5836 101.59 20.7709 101.876 20.088C102.166 19.4049 102.58 18.8739 103.118 18.4951C103.655 18.1163 104.274 17.9123 104.974 17.8831C105.516 17.8606 105.955 17.9333 106.291 18.1012C106.632 18.2652 106.898 18.4626 107.09 18.6935C107.285 18.9242 107.438 19.1282 107.547 19.3056L107.649 19.3014L107.469 14.9813L109.167 14.9105L109.651 26.5368L107.994 26.6059L107.937 25.2491L107.795 25.255C107.701 25.4447 107.562 25.6628 107.379 25.9093C107.2 26.1556 106.947 26.3746 106.622 26.5664C106.296 26.7582 105.868 26.8651 105.338 26.8872ZM105.653 25.4239C106.141 25.4036 106.548 25.2577 106.874 24.9863C107.204 24.711 107.446 24.3388 107.601 23.8698C107.76 23.4007 107.826 22.8596 107.801 22.2465C107.775 21.641 107.666 21.1147 107.473 20.6678C107.28 20.221 107.01 19.8777 106.663 19.6382C106.315 19.3987 105.894 19.2893 105.398 19.3099C104.887 19.3312 104.467 19.4814 104.137 19.7606C103.808 20.0397 103.565 20.4118 103.41 20.877C103.259 21.3421 103.195 21.8622 103.219 22.4375C103.244 23.0203 103.353 23.5408 103.546 23.9991C103.74 24.4573 104.012 24.8156 104.364 25.0739C104.72 25.3282 105.149 25.4449 105.653 25.4239ZM120.091 17.3667L120.148 18.7291L115.22 18.9346L115.164 17.5721L120.091 17.3667ZM116.878 26.2355L116.472 16.5053C116.45 15.9603 116.55 15.5031 116.774 15.1336C116.997 14.7604 117.302 14.4766 117.688 14.2823C118.074 14.0842 118.498 13.9756 118.959 13.9563C119.3 13.9421 119.593 13.9584 119.837 14.005C120.082 14.0479 120.263 14.0896 120.383 14.1301L120.043 15.5205C119.962 15.5011 119.859 15.4789 119.733 15.4538C119.606 15.425 119.454 15.4142 119.276 15.4217C118.864 15.4389 118.573 15.5533 118.404 15.7651C118.238 15.9768 118.163 16.2756 118.179 16.6616L118.576 26.1647L116.878 26.2355ZM122.206 26.0134L121.842 17.2937L123.483 17.2253L123.541 18.6104L123.632 18.6067C123.771 18.1307 124.036 17.7501 124.426 17.4646C124.819 17.1753 125.271 17.0199 125.782 16.9986C125.888 16.9942 126.013 16.9928 126.158 16.9944C126.305 16.9958 126.421 17.0004 126.505 17.0083L126.573 18.6319C126.504 18.6158 126.382 18.6001 126.207 18.5846C126.032 18.5654 125.857 18.5594 125.683 18.5666C125.282 18.5834 124.928 18.6834 124.621 18.8668C124.317 19.0463 124.081 19.2893 123.912 19.5958C123.742 19.8986 123.665 20.2392 123.681 20.6177L123.903 25.9426L122.206 26.0134ZM131.709 25.7935C130.892 25.8276 130.171 25.67 129.546 25.3207C128.921 24.9714 128.426 24.467 128.061 23.8074C127.696 23.1477 127.495 22.3676 127.457 21.4668C127.419 20.5623 127.555 19.7643 127.863 19.0728C128.172 18.3814 128.623 17.8356 129.217 17.4355C129.811 17.0354 130.516 16.8183 131.334 16.7843C132.151 16.7502 132.872 16.9078 133.497 17.2571C134.122 17.6063 134.617 18.1127 134.982 18.7761C135.347 19.4395 135.549 20.2234 135.586 21.1279C135.624 22.0287 135.488 22.8229 135.18 23.5106C134.871 24.1983 134.42 24.7422 133.826 25.1422C133.232 25.5423 132.527 25.7594 131.709 25.7935ZM131.656 24.3683C132.185 24.3463 132.619 24.1879 132.955 23.8933C133.292 23.5988 133.533 23.2153 133.68 22.7428C133.831 22.2702 133.895 21.7539 133.872 21.1937C133.849 20.6374 133.742 20.13 133.552 19.6716C133.366 19.2093 133.093 18.8434 132.733 18.5741C132.373 18.3048 131.928 18.1812 131.398 18.2032C130.865 18.2255 130.428 18.3859 130.088 18.6844C129.751 18.9828 129.508 19.3701 129.357 19.8465C129.21 20.319 129.148 20.8334 129.171 21.3897C129.195 21.9498 129.299 22.4591 129.485 22.9177C129.675 23.3761 129.95 23.7381 130.31 24.0036C130.673 24.269 131.122 24.3906 131.656 24.3683ZM137.661 25.3691L137.298 16.6494L138.927 16.5814L138.986 18.0007L139.094 17.9962C139.256 17.5079 139.537 17.1209 139.938 16.835C140.34 16.5453 140.828 16.3885 141.403 16.3645C141.986 16.3402 142.48 16.4561 142.885 16.7122C143.293 16.9681 143.602 17.3305 143.811 17.7995L143.902 17.7957C144.091 17.3215 144.407 16.9368 144.849 16.6416C145.292 16.3426 145.827 16.18 146.455 16.1538C147.246 16.1209 147.902 16.3419 148.422 16.8168C148.946 17.2916 149.229 18.0286 149.271 19.0277L149.515 24.8749L147.817 24.9457L147.58 19.2574C147.555 18.667 147.377 18.2461 147.044 17.9946C146.711 17.7431 146.322 17.6266 145.875 17.6452C145.322 17.6683 144.9 17.8565 144.608 18.2099C144.315 18.5595 144.18 18.9992 144.202 19.529L144.434 25.0867L142.742 25.1572L142.5 19.3611C142.481 18.8881 142.317 18.5139 142.01 18.2385C141.703 17.9632 141.313 17.8354 140.84 17.8551C140.518 17.8686 140.224 17.9661 139.959 18.1478C139.697 18.3255 139.489 18.5673 139.335 18.8732C139.185 19.179 139.118 19.5287 139.134 19.9223L139.359 25.2983L137.661 25.3691ZM157.23 27.8288C156.976 27.8394 156.744 27.8282 156.534 27.7953C156.325 27.7661 156.168 27.7309 156.064 27.6898L156.414 26.2819C156.728 26.3522 157.006 26.3767 157.248 26.3552C157.489 26.3338 157.699 26.234 157.878 26.056C158.06 25.8778 158.215 25.5927 158.343 25.2007L158.528 24.6129L154.97 15.9126L156.786 15.8369L159.277 22.5117L159.368 22.5079L161.294 15.649L163.116 15.573L159.935 25.6063C159.787 26.0674 159.591 26.4603 159.347 26.7852C159.103 27.1138 158.806 27.365 158.457 27.5388C158.108 27.7126 157.699 27.8093 157.23 27.8288ZM168.459 24.2614C167.641 24.2955 166.92 24.1379 166.295 23.7886C165.67 23.4394 165.175 22.9349 164.81 22.2753C164.445 21.6157 164.244 20.8355 164.206 19.9348C164.169 19.0303 164.304 18.2323 164.613 17.5408C164.921 16.8493 165.373 16.3035 165.966 15.9035C166.56 15.5034 167.265 15.2863 168.083 15.2522C168.9 15.2181 169.622 15.3757 170.247 15.725C170.872 16.0743 171.367 16.5806 171.732 17.244C172.097 17.9074 172.298 18.6914 172.336 19.5959C172.373 20.4966 172.238 21.2908 171.929 21.9785C171.62 22.6662 171.169 23.2101 170.575 23.6102C169.982 24.0103 169.276 24.2274 168.459 24.2614ZM168.405 22.8363C168.935 22.8142 169.368 22.6559 169.704 22.3613C170.041 22.0667 170.283 21.6832 170.43 21.2108C170.581 20.7382 170.644 20.2218 170.621 19.6617C170.598 19.1054 170.491 18.598 170.302 18.1396C170.116 17.6772 169.843 17.3114 169.483 17.0421C169.123 16.7727 168.678 16.6491 168.148 16.6712C167.614 16.6935 167.177 16.8538 166.837 17.1524C166.501 17.4507 166.257 17.8381 166.107 18.3145C165.959 18.7869 165.897 19.3013 165.921 19.8576C165.944 20.4178 166.049 20.9271 166.235 21.3857C166.424 21.8441 166.699 22.206 167.059 22.4716C167.423 22.737 167.871 22.8586 168.405 22.8363ZM179.783 19.9906L179.571 14.887L181.274 14.816L181.637 23.5357L179.968 23.6053L179.905 22.0953L179.814 22.0991C179.633 22.5729 179.328 22.9743 178.898 23.3031C178.472 23.6279 177.931 23.804 177.276 23.8313C176.716 23.8546 176.215 23.7523 175.774 23.5243C175.336 23.2923 174.983 22.9374 174.717 22.4594C174.454 21.9813 174.308 21.3827 174.278 20.6636L174.047 15.1173L175.744 15.0466L175.967 20.3885C175.992 20.9827 176.176 21.4489 176.52 21.7871C176.864 22.1254 177.299 22.2835 177.825 22.2616C178.143 22.2484 178.456 22.1557 178.763 21.9837C179.075 21.8114 179.328 21.5602 179.522 21.2298C179.721 20.8993 179.808 20.4862 179.783 19.9906Z" fill="white"/>
<mask id="path-3-inside-1_94_578" fill="white">
<path fill-rule="evenodd" clip-rule="evenodd" d="M9.22045 7.42156C4.25179 7.55913 0.335409 11.6985 0.472972 16.6672L0.943457 33.6607C1.08102 38.6293 5.22043 42.5457 10.1891 42.4082L32.395 41.7934L39.9411 48.9982C41.1119 50.116 43.0564 49.4524 43.2995 47.852L44.2699 41.4646L197.117 37.2328C202.086 37.0953 206.003 32.9559 205.865 27.9872L205.394 10.9937C205.257 6.02505 201.117 2.10867 196.149 2.24623L9.22045 7.42156Z"/>
</mask>
<path d="M0.472972 16.6672L1.47259 16.6395L0.472972 16.6672ZM9.22045 7.42156L9.19277 6.42195L9.22045 7.42156ZM0.943457 33.6607L1.94307 33.633L0.943457 33.6607ZM10.1891 42.4082L10.2168 43.4078L10.1891 42.4082ZM32.395 41.7934L33.0856 41.0701L32.7841 40.7822L32.3673 40.7937L32.395 41.7934ZM39.9411 48.9982L40.6317 48.2749L39.9411 48.9982ZM43.2995 47.852L42.3109 47.7018L42.3109 47.7018L43.2995 47.852ZM44.2699 41.4646L44.2422 40.465L43.4068 40.4881L43.2813 41.3144L44.2699 41.4646ZM197.117 37.2328L197.145 38.2324L197.117 37.2328ZM205.865 27.9872L206.865 27.9595L206.865 27.9595L205.865 27.9872ZM205.394 10.9937L206.394 10.966L206.394 10.966L205.394 10.9937ZM196.149 2.24623L196.121 1.24662L196.149 2.24623ZM1.47259 16.6395C1.35031 12.2229 4.83153 8.54346 9.24812 8.42118L9.19277 6.42195C3.67204 6.5748 -0.679493 11.1741 -0.526645 16.6949L1.47259 16.6395ZM1.94307 33.633L1.47259 16.6395L-0.526645 16.6949L-0.0561602 33.6884L1.94307 33.633ZM10.1614 41.4085C5.74483 41.5308 2.06535 38.0496 1.94307 33.633L-0.0561602 33.6884C0.0966877 39.2091 4.69604 43.5606 10.2168 43.4078L10.1614 41.4085ZM32.3673 40.7937L10.1614 41.4085L10.2168 43.4078L32.4227 42.793L32.3673 40.7937ZM40.6317 48.2749L33.0856 41.0701L31.7045 42.5166L39.2505 49.7214L40.6317 48.2749ZM42.3109 47.7018C42.1893 48.502 41.2171 48.8338 40.6317 48.2749L39.2505 49.7214C41.0067 51.3982 43.9235 50.4028 44.2882 48.0022L42.3109 47.7018ZM43.2813 41.3144L42.3109 47.7018L44.2882 48.0022L45.2586 41.6148L43.2813 41.3144ZM197.09 36.2332L44.2422 40.465L44.2976 42.4642L197.145 38.2324L197.09 36.2332ZM204.865 28.0149C204.988 32.4315 201.506 36.1109 197.09 36.2332L197.145 38.2324C202.666 38.0796 207.017 33.4803 206.865 27.9595L204.865 28.0149ZM204.395 11.0214L204.865 28.0149L206.865 27.9595L206.394 10.966L204.395 11.0214ZM196.176 3.24585C200.593 3.12357 204.273 6.6048 204.395 11.0214L206.394 10.966C206.241 5.4453 201.642 1.09377 196.121 1.24662L196.176 3.24585ZM9.24812 8.42118L196.176 3.24585L196.121 1.24662L9.19277 6.42195L9.24812 8.42118Z" fill="white" fill-opacity="0.6" mask="url(#path-3-inside-1_94_578)"/>
</svg>
