<svg width="47" height="8" viewBox="0 0 47 8" fill="none" xmlns="http://www.w3.org/2000/svg">
<path d="M46.3536 4.35356C46.5488 4.1583 46.5488 3.84171 46.3536 3.64645L43.1716 0.46447C42.9763 0.269208 42.6597 0.269208 42.4645 0.46447C42.2692 0.659732 42.2692 0.976314 42.4645 1.17158L45.2929 4L42.4645 6.82843C42.2692 7.02369 42.2692 7.34028 42.4645 7.53554C42.6597 7.7308 42.9763 7.7308 43.1716 7.53554L46.3536 4.35356ZM-4.37114e-08 4.5L0.958333 4.5L0.958333 3.5L4.37114e-08 3.5L-4.37114e-08 4.5ZM2.875 4.5L4.79167 4.5L4.79167 3.5L2.875 3.5L2.875 4.5ZM6.70833 4.5L8.625 4.5L8.625 3.5L6.70833 3.5L6.70833 4.5ZM10.5417 4.5L12.4583 4.5L12.4583 3.5L10.5417 3.5L10.5417 4.5ZM14.375 4.5L16.2917 4.5L16.2917 3.5L14.375 3.5L14.375 4.5ZM18.2083 4.5L20.125 4.5L20.125 3.5L18.2083 3.5L18.2083 4.5ZM22.0417 4.5L23.9583 4.5L23.9583 3.5L22.0417 3.5L22.0417 4.5ZM25.875 4.5L27.7917 4.5L27.7917 3.5L25.875 3.5L25.875 4.5ZM29.7083 4.5L31.625 4.5L31.625 3.5L29.7083 3.5L29.7083 4.5ZM33.5417 4.5L35.4583 4.5L35.4583 3.5L33.5417 3.5L33.5417 4.5ZM37.375 4.5L39.2917 4.5L39.2917 3.5L37.375 3.5L37.375 4.5ZM41.2083 4.5L43.125 4.5L43.125 3.5L41.2083 3.5L41.2083 4.5ZM45.0417 4.5L46 4.5L46 3.5L45.0417 3.5L45.0417 4.5Z" fill="#323232"/>
</svg>
