<svg width="1257" height="431" viewBox="0 0 1257 431" fill="none" xmlns="http://www.w3.org/2000/svg">
<path d="M29.8489 427.354C30.0442 427.158 30.0442 426.842 29.8489 426.646L26.667 423.464C26.4717 423.269 26.1551 423.269 25.9599 423.464C25.7646 423.66 25.7646 423.976 25.9599 424.172L28.7883 427L25.9599 429.828C25.7646 430.024 25.7646 430.34 25.9599 430.536C26.1551 430.731 26.4717 430.731 26.667 430.536L29.8489 427.354ZM29.4954 426.5H28.5706V427.5H29.4954V426.5ZM26.7211 426.5H24.8715V427.5H26.7211V426.5ZM23.022 426.5H21.1725V427.5H23.022V426.5ZM19.3229 426.5H17.4734V427.5H19.3229V426.5ZM15.6238 426.5H13.7743V427.5H15.6238V426.5ZM11.9248 426.5H11V427.5H11.9248V426.5ZM11 426.5C10.6853 426.5 10.3744 426.485 10.0679 426.455L9.97102 427.45C10.3097 427.483 10.653 427.5 11 427.5V426.5ZM8.24115 426.093C7.64061 425.911 7.06516 425.672 6.52127 425.38L6.04912 426.262C6.65043 426.584 7.28686 426.849 7.95119 427.05L8.24115 426.093ZM4.97338 424.344C4.49248 423.949 4.05105 423.508 3.65593 423.027L2.88327 423.661C3.31974 424.193 3.80733 424.68 4.33856 425.117L4.97338 424.344ZM2.61977 421.479C2.32845 420.935 2.0886 420.359 1.90665 419.759L0.949612 420.049C1.15089 420.713 1.41618 421.35 1.73825 421.951L2.61977 421.479ZM1.54511 417.932C1.51528 417.626 1.5 417.315 1.5 417H0.5C0.5 417.347 0.516854 417.69 0.549814 418.029L1.54511 417.932ZM1.5 417V416.011H0.5V417H1.5ZM1.5 414.034V412.057H0.5V414.034H1.5ZM1.5 410.08V408.102H0.5V410.08H1.5ZM1.5 406.125V404.148H0.5V406.125H1.5ZM1.5 402.17V400.193H0.5V402.17H1.5ZM1.5 398.216V396.239H0.5V398.216H1.5ZM1.5 394.261V392.284H0.5V394.261H1.5ZM1.5 390.307V388.33H0.5V390.307H1.5ZM1.5 386.352V384.375H0.5V386.352H1.5ZM1.5 382.398V380.42H0.5V382.398H1.5ZM1.5 378.443V376.466H0.5V378.443H1.5ZM1.5 374.489V372.511H0.5V374.489H1.5ZM1.5 370.534V368.557H0.5V370.534H1.5ZM1.5 366.58V364.602H0.5V366.58H1.5ZM1.5 362.625V360.648H0.5V362.625H1.5ZM1.5 358.67V356.693H0.5V358.67H1.5ZM1.5 354.716V352.739H0.5V354.716H1.5ZM1.5 350.761V348.784H0.5V350.761H1.5ZM1.5 346.807V344.83H0.5V346.807H1.5ZM1.5 342.852V340.875H0.5V342.852H1.5ZM1.5 338.898V336.92H0.5V338.898H1.5ZM1.5 334.943V332.966H0.5V334.943H1.5ZM1.5 330.989V329.011H0.5V330.989H1.5ZM1.5 327.034V325.057H0.5V327.034H1.5ZM1.5 323.08V321.102H0.5V323.08H1.5ZM1.5 319.125V317.148H0.5V319.125H1.5ZM1.5 315.17V313.193H0.5V315.17H1.5ZM1.5 311.216V309.239H0.5V311.216H1.5ZM1.5 307.261V305.284H0.5V307.261H1.5ZM1.5 303.307V301.33H0.5V303.307H1.5ZM1.5 299.352V297.375H0.5V299.352H1.5ZM1.5 295.398V293.42H0.5V295.398H1.5ZM1.5 291.443V289.466H0.5V291.443H1.5ZM1.5 287.489V286.5H0.5V287.489H1.5ZM1.5 286.5C1.5 286.185 1.51528 285.874 1.54511 285.568L0.549815 285.471C0.516854 285.81 0.5 286.153 0.5 286.5H1.5ZM1.90665 283.741C2.0886 283.141 2.32845 282.565 2.61977 282.021L1.73826 281.549C1.41618 282.15 1.15089 282.787 0.949615 283.451L1.90665 283.741ZM3.65594 280.473C4.05106 279.992 4.49249 279.551 4.97339 279.156L4.33857 278.383C3.80734 278.82 3.31975 279.307 2.88328 279.839L3.65594 280.473ZM6.52129 278.12C7.06518 277.828 7.64063 277.589 8.24116 277.407L7.95121 276.45C7.28688 276.651 6.65045 276.916 6.04913 277.238L6.52129 278.12ZM10.0679 277.045C10.3744 277.015 10.6854 277 11 277V276C10.653 276 10.3097 276.017 9.97104 276.05L10.0679 277.045ZM11 277H11.9992V276H11V277ZM13.9975 277H15.9958V276H13.9975V277ZM17.9941 277H19.9924V276H17.9941V277ZM21.9907 277H23.989V276H21.9907V277ZM25.9873 277H27.9856V276H25.9873V277ZM29.9839 277H31.9822V276H29.9839V277ZM33.9805 277H35.9788V276H33.9805V277ZM37.9771 277H39.9754V276H37.9771V277ZM41.9737 277H43.972V276H41.9737V277ZM45.9703 277H47.9686V276H45.9703V277ZM49.9669 277H51.9652V276H49.9669V277ZM53.9635 277H55.9618V276H53.9635V277ZM57.9601 277H59.9584V276H57.9601V277ZM61.9567 277H63.955V276H61.9567V277ZM65.9533 277H67.9516V276H65.9533V277ZM69.95 277H71.9483V276H69.95V277ZM73.9466 277H75.9449V276H73.9466V277ZM77.9432 277H79.9415V276H77.9432V277ZM81.9398 277H83.9381V276H81.9398V277ZM85.9364 277H87.9347V276H85.9364V277ZM89.933 277H91.9313V276H89.933V277ZM93.9296 277H95.9279V276H93.9296V277ZM97.9262 277H99.9245V276H97.9262V277ZM101.923 277H103.921V276H101.923V277ZM105.919 277H107.918V276H105.919V277ZM109.916 277H111.914V276H109.916V277ZM113.913 277H115.911V276H113.913V277ZM117.909 277H119.908V276H117.909V277ZM121.906 277H123.904V276H121.906V277ZM125.903 277H127.901V276H125.903V277ZM129.899 277H131.897V276H129.899V277ZM133.896 277H135.894V276H133.896V277ZM137.892 277H139.891V276H137.892V277ZM141.889 277H143.887V276H141.889V277ZM145.886 277H147.884V276H145.886V277ZM149.882 277H151.88V276H149.882V277ZM153.879 277H155.877V276H153.879V277ZM157.875 277H159.874V276H157.875V277ZM161.872 277H163.87V276H161.872V277ZM165.869 277H167.867V276H165.869V277ZM169.865 277H171.864V276H169.865V277ZM173.862 277H175.86V276H173.862V277ZM177.858 277H179.857V276H177.858V277ZM181.855 277H183.853V276H181.855V277ZM185.852 277H187.85V276H185.852V277ZM189.848 277H191.847V276H189.848V277ZM193.845 277H195.843V276H193.845V277ZM197.842 277H199.84V276H197.842V277ZM201.838 277H203.836V276H201.838V277ZM205.835 277H207.833V276H205.835V277ZM209.831 277H211.83V276H209.831V277ZM213.828 277H215.826V276H213.828V277ZM217.825 277H219.823V276H217.825V277ZM221.821 277H223.82V276H221.821V277ZM225.818 277H227.816V276H225.818V277ZM229.814 277H231.813V276H229.814V277ZM233.811 277H235.809V276H233.811V277ZM237.808 277H239.806V276H237.808V277ZM241.804 277H243.803V276H241.804V277ZM245.801 277H247.799V276H245.801V277ZM249.798 277H251.796V276H249.798V277ZM253.794 277H255.792V276H253.794V277ZM257.791 277H259.789V276H257.791V277ZM261.787 277H263.786V276H261.787V277ZM265.784 277H267.782V276H265.784V277ZM269.781 277H271.779V276H269.781V277ZM273.777 277H275.775V276H273.777V277ZM277.774 277H279.772V276H277.774V277ZM281.77 277H283.769V276H281.77V277ZM285.767 277H287.765V276H285.767V277ZM289.763 277H291.762V276H289.763V277ZM293.76 277H295.758V276H293.76V277ZM297.757 277H299.755V276H297.757V277ZM301.753 277H303.751V276H301.753V277ZM305.75 277H307.748V276H305.75V277ZM309.746 277H311.745V276H309.746V277ZM313.743 277H315.741V276H313.743V277ZM317.74 277H319.738V276H317.74V277ZM321.736 277H323.734V276H321.736V277ZM325.733 277H327.731V276H325.733V277ZM329.729 277H331.728V276H329.729V277ZM333.726 277H335.724V276H333.726V277ZM337.722 277H339.721V276H337.722V277ZM341.719 277H343.717V276H341.719V277ZM345.716 277H347.714V276H345.716V277ZM349.712 277H351.71V276H349.712V277ZM353.709 277H355.707V276H353.709V277ZM357.705 277H359.704V276H357.705V277ZM361.702 277H363.7V276H361.702V277ZM365.699 277H367.697V276H365.699V277ZM369.695 277H371.693V276H369.695V277ZM373.692 277H375.69V276H373.692V277ZM377.688 277H379.687V276H377.688V277ZM381.685 277H383.683V276H381.685V277ZM385.681 277H387.68V276H385.681V277ZM389.678 277H391.676V276H389.678V277ZM393.675 277H395.673V276H393.675V277ZM397.671 277H399.669V276H397.671V277ZM401.668 277H403.666V276H401.668V277ZM405.664 277H407.663V276H405.664V277ZM409.661 277H411.659V276H409.661V277ZM413.658 277H415.656V276H413.658V277ZM417.654 277H419.652V276H417.654V277ZM421.651 277H423.649V276H421.651V277ZM425.647 277H427.646V276H425.647V277ZM429.644 277H431.642V276H429.644V277ZM433.64 277H435.639V276H433.64V277ZM437.637 277H439.635V276H437.637V277ZM441.634 277H443.632V276H441.634V277ZM445.63 277H447.628V276H445.63V277ZM449.627 277H451.625V276H449.627V277ZM453.623 277H455.622V276H453.623V277ZM457.62 277H459.618V276H457.62V277ZM461.616 277H463.615V276H461.616V277ZM465.613 277H467.611V276H465.613V277ZM469.61 277H471.608V276H469.61V277ZM473.606 277H475.605V276H473.606V277ZM477.603 277H479.601V276H477.603V277ZM481.599 277H483.598V276H481.599V277ZM485.596 277H487.594V276H485.596V277ZM489.593 277H491.591V276H489.593V277ZM493.589 277H495.587V276H493.589V277ZM497.586 277H499.584V276H497.586V277ZM501.582 277H503.581V276H501.582V277ZM505.579 277H507.577V276H505.579V277ZM509.575 277H511.574V276H509.575V277ZM513.572 277H515.57V276H513.572V277ZM517.569 277H519.567V276H517.569V277ZM521.565 277H523.563V276H521.565V277ZM525.562 277H527.56V276H525.562V277ZM529.558 277H531.557V276H529.558V277ZM533.555 277H535.553V276H533.555V277ZM537.552 277H539.55V276H537.552V277ZM541.548 277H543.546V276H541.548V277ZM545.545 277H547.543V276H545.545V277ZM549.541 277H551.54V276H549.541V277ZM553.538 277H555.536V276H553.538V277ZM557.534 277H559.533V276H557.534V277ZM561.531 277H563.529V276H561.531V277ZM565.528 277H567.526V276H565.528V277ZM569.524 277H571.522V276H569.524V277ZM573.521 277H575.519V276H573.521V277ZM577.517 277H579.516V276H577.517V277ZM581.514 277H583.512V276H581.514V277ZM585.51 277H587.509V276H585.51V277ZM589.507 277H591.505V276H589.507V277ZM593.504 277H595.502V276H593.504V277ZM597.5 277H599.499V276H597.5V277ZM601.497 277H603.495V276H601.497V277ZM605.493 277H607.492V276H605.493V277ZM609.49 277H611.488V276H609.49V277ZM613.487 277H615.485V276H613.487V277ZM617.483 277H619.481V276H617.483V277ZM621.48 277H622.481V276H621.48V277ZM622.481 277H623.48V276H622.481V277ZM625.479 277H627.477V276H625.479V277ZM629.475 277H631.474V276H629.475V277ZM633.472 277H635.471V276H633.472V277ZM637.469 277H639.468V276H637.469V277ZM641.466 277H643.465V276H641.466V277ZM645.463 277H647.462V276H645.463V277ZM649.46 277H651.458V276H649.46V277ZM653.457 277H655.455V276H653.457V277ZM657.454 277H659.452V276H657.454V277ZM661.451 277H663.449V276H661.451V277ZM665.448 277H667.446V276H665.448V277ZM669.445 277H671.443V276H669.445V277ZM673.442 277H675.44V276H673.442V277ZM677.438 277H679.437V276H677.438V277ZM681.435 277H683.434V276H681.435V277ZM685.432 277H687.431V276H685.432V277ZM689.429 277H691.428V276H689.429V277ZM693.426 277H695.425V276H693.426V277ZM697.423 277H699.421V276H697.423V277ZM701.42 277H703.418V276H701.42V277ZM705.417 277H707.415V276H705.417V277ZM709.414 277H711.412V276H709.414V277ZM713.411 277H715.409V276H713.411V277ZM717.408 277H719.406V276H717.408V277ZM721.405 277H723.403V276H721.405V277ZM725.401 277H727.4V276H725.401V277ZM729.398 277H731.397V276H729.398V277ZM733.395 277H735.394V276H733.395V277ZM737.392 277H739.391V276H737.392V277ZM741.389 277H743.388V276H741.389V277ZM745.386 277H747.384V276H745.386V277ZM749.383 277H751.381V276H749.383V277ZM753.38 277H755.378V276H753.38V277ZM757.377 277H759.375V276H757.377V277ZM761.374 277H763.372V276H761.374V277ZM765.371 277H767.369V276H765.371V277ZM769.368 277H771.366V276H769.368V277ZM773.364 277H775.363V276H773.364V277ZM777.361 277H779.36V276H777.361V277ZM781.358 277H783.357V276H781.358V277ZM785.355 277H787.354V276H785.355V277ZM789.352 277H791.351V276H789.352V277ZM793.349 277H795.348V276H793.349V277ZM797.346 277H799.344V276H797.346V277ZM801.343 277H803.341V276H801.343V277ZM805.34 277H807.338V276H805.34V277ZM809.337 277H811.335V276H809.337V277ZM813.334 277H815.332V276H813.334V277ZM817.331 277H819.329V276H817.331V277ZM821.327 277H823.326V276H821.327V277ZM825.324 277H827.323V276H825.324V277ZM829.321 277H831.32V276H829.321V277ZM833.318 277H835.317V276H833.318V277ZM837.315 277H839.314V276H837.315V277ZM841.312 277H843.311V276H841.312V277ZM845.309 277H847.307V276H845.309V277ZM849.306 277H851.304V276H849.306V277ZM853.303 277H855.301V276H853.303V277ZM857.3 277H859.298V276H857.3V277ZM861.297 277H863.295V276H861.297V277ZM865.294 277H867.292V276H865.294V277ZM869.29 277H871.289V276H869.29V277ZM873.287 277H875.286V276H873.287V277ZM877.284 277H879.283V276H877.284V277ZM881.281 277H883.28V276H881.281V277ZM885.278 277H887.277V276H885.278V277ZM889.275 277H891.274V276H889.275V277ZM893.272 277H895.271V276H893.272V277ZM897.269 277H899.268V276H897.269V277ZM901.266 277H903.264V276H901.266V277ZM905.263 277H907.261V276H905.263V277ZM909.26 277H911.258V276H909.26V277ZM913.257 277H915.255V276H913.257V277ZM917.254 277H919.252V276H917.254V277ZM921.251 277H923.249V276H921.251V277ZM925.248 277H927.246V276H925.248V277ZM929.245 277H931.243V276H929.245V277ZM933.242 277H935.24V276H933.242V277ZM937.239 277H939.237V276H937.239V277ZM941.235 277H943.234V276H941.235V277ZM945.232 277H947.231V276H945.232V277ZM949.229 277H951.228V276H949.229V277ZM953.226 277H955.225V276H953.226V277ZM957.223 277H959.222V276H957.223V277ZM961.22 277H963.219V276H961.22V277ZM965.217 277H967.216V276H965.217V277ZM969.214 277H971.213V276H969.214V277ZM973.211 277H975.21V276H973.211V277ZM977.208 277H979.206V276H977.208V277ZM981.205 277H983.203V276H981.205V277ZM985.202 277H987.2V276H985.202V277ZM989.199 277H991.197V276H989.199V277ZM993.196 277H995.194V276H993.196V277ZM997.193 277H999.191V276H997.193V277ZM1001.19 277H1003.19V276H1001.19V277ZM1005.19 277H1007.19V276H1005.19V277ZM1009.18 277H1011.18V276H1009.18V277ZM1013.18 277H1015.18V276H1013.18V277ZM1017.18 277H1019.18V276H1017.18V277ZM1021.17 277H1023.17V276H1021.17V277ZM1025.17 277H1027.17V276H1025.17V277ZM1029.17 277H1031.17V276H1029.17V277ZM1033.17 277H1035.16V276H1033.17V277ZM1037.16 277H1039.16V276H1037.16V277ZM1041.16 277H1043.16V276H1041.16V277ZM1045.16 277H1047.15V276H1045.16V277ZM1049.15 277H1051.15V276H1049.15V277ZM1053.15 277H1055.15V276H1053.15V277ZM1057.15 277H1059.15V276H1057.15V277ZM1061.14 277H1063.14V276H1061.14V277ZM1065.14 277H1067.14V276H1065.14V277ZM1069.14 277H1071.14V276H1069.14V277ZM1073.13 277H1075.13V276H1073.13V277ZM1077.13 277H1079.13V276H1077.13V277ZM1081.13 277H1083.13V276H1081.13V277ZM1085.13 277H1087.12V276H1085.13V277ZM1089.12 277H1091.12V276H1089.12V277ZM1093.12 277H1095.12V276H1093.12V277ZM1097.12 277H1099.11V276H1097.12V277ZM1101.11 277H1103.11V276H1101.11V277ZM1105.11 277H1107.11V276H1105.11V277ZM1109.11 277H1111.11V276H1109.11V277ZM1113.1 277H1115.1V276H1113.1V277ZM1117.1 277H1119.1V276H1117.1V277ZM1121.1 277H1123.1V276H1121.1V277ZM1125.1 277H1127.09V276H1125.1V277ZM1129.09 277H1131.09V276H1129.09V277ZM1133.09 277H1135.09V276H1133.09V277ZM1137.09 277H1139.08V276H1137.09V277ZM1141.08 277H1143.08V276H1141.08V277ZM1145.08 277H1147.08V276H1145.08V277ZM1149.08 277H1151.08V276H1149.08V277ZM1153.07 277H1155.07V276H1153.07V277ZM1157.07 277H1159.07V276H1157.07V277ZM1161.07 277H1163.07V276H1161.07V277ZM1165.06 277H1167.06V276H1165.06V277ZM1169.06 277H1171.06V276H1169.06V277ZM1173.06 277H1175.06V276H1173.06V277ZM1177.06 277H1179.05V276H1177.06V277ZM1181.05 277H1183.05V276H1181.05V277ZM1185.05 277H1187.05V276H1185.05V277ZM1189.05 277H1191.04V276H1189.05V277ZM1193.04 277H1195.04V276H1193.04V277ZM1197.04 277H1199.04V276H1197.04V277ZM1201.04 277H1203.04V276H1201.04V277ZM1205.03 277H1207.03V276H1205.03V277ZM1209.03 277H1211.03V276H1209.03V277ZM1213.03 277H1215.03V276H1213.03V277ZM1217.02 277H1219.02V276H1217.02V277ZM1221.02 277H1223.02V276H1221.02V277ZM1225.02 277H1227.02V276H1225.02V277ZM1229.02 277H1231.01V276H1229.02V277ZM1233.01 277H1235.01V276H1233.01V277ZM1237.01 277H1239.01V276H1237.01V277ZM1241.01 277H1243.01V276H1241.01V277ZM1245 277H1246V276H1245V277ZM1246 277C1246.35 277 1246.69 276.983 1247.03 276.95L1246.93 275.955C1246.63 275.985 1246.31 276 1246 276V277ZM1249.05 276.55C1249.71 276.349 1250.35 276.084 1250.95 275.762L1250.48 274.88C1249.93 275.172 1249.36 275.411 1248.76 275.593L1249.05 276.55ZM1252.66 274.617C1253.19 274.18 1253.68 273.693 1254.12 273.161L1253.34 272.527C1252.95 273.008 1252.51 273.449 1252.03 273.844L1252.66 274.617ZM1255.26 271.451C1255.58 270.85 1255.85 270.213 1256.05 269.549L1255.09 269.259C1254.91 269.859 1254.67 270.435 1254.38 270.979L1255.26 271.451ZM1256.45 267.529C1256.48 267.19 1256.5 266.847 1256.5 266.5H1255.5C1255.5 266.815 1255.48 267.126 1255.45 267.432L1256.45 267.529ZM1256.5 266.5V265.502H1255.5V266.5H1256.5ZM1256.5 263.506V261.51H1255.5V263.506H1256.5ZM1256.5 259.514V257.518H1255.5V259.514H1256.5ZM1256.5 255.521V253.525H1255.5V255.521H1256.5ZM1256.5 251.529V249.533H1255.5V251.529H1256.5ZM1256.5 247.537V245.541H1255.5V247.537H1256.5ZM1256.5 243.545V241.549H1255.5V243.545H1256.5ZM1256.5 239.553V237.557H1255.5V239.553H1256.5ZM1256.5 235.561V233.564H1255.5V235.561H1256.5ZM1256.5 231.568V229.572H1255.5V231.568H1256.5ZM1256.5 227.576V225.58H1255.5V227.576H1256.5ZM1256.5 223.584V221.588H1255.5V223.584H1256.5ZM1256.5 219.592V217.596H1255.5V219.592H1256.5ZM1256.5 215.6V213.604H1255.5V215.6H1256.5ZM1256.5 211.607V209.611H1255.5V211.607H1256.5ZM1256.5 207.615V205.619H1255.5V207.615H1256.5ZM1256.5 203.623V201.627H1255.5V203.623H1256.5ZM1256.5 199.631V197.635H1255.5V199.631H1256.5ZM1256.5 195.639V193.643H1255.5V195.639H1256.5ZM1256.5 191.646V189.65H1255.5V191.646H1256.5ZM1256.5 187.654V185.658H1255.5V187.654H1256.5ZM1256.5 183.662V181.666H1255.5V183.662H1256.5ZM1256.5 179.67V177.674H1255.5V179.67H1256.5ZM1256.5 175.678V173.682H1255.5V175.678H1256.5ZM1256.5 171.686V169.689H1255.5V171.686H1256.5ZM1256.5 167.693V165.697H1255.5V167.693H1256.5ZM1256.5 163.701V161.705H1255.5V163.701H1256.5ZM1256.5 159.709V157.713H1255.5V159.709H1256.5ZM1256.5 155.717V153.721H1255.5V155.717H1256.5ZM1256.5 151.725V149.729H1255.5V151.725H1256.5ZM1256.5 147.732V145.736H1255.5V147.732H1256.5ZM1256.5 143.74V141.744H1255.5V143.74H1256.5ZM1256.5 139.748V137.752H1255.5V139.748H1256.5ZM1256.5 135.756V133.76H1255.5V135.756H1256.5ZM1256.5 131.764V129.768H1255.5V131.764H1256.5ZM1256.5 127.771V125.775H1255.5V127.771H1256.5ZM1256.5 123.779V121.783H1255.5V123.779H1256.5ZM1256.5 119.787V117.791H1255.5V119.787H1256.5ZM1256.5 115.795V113.799H1255.5V115.795H1256.5ZM1256.5 111.803V109.807H1255.5V111.803H1256.5ZM1256.5 107.811V105.814H1255.5V107.811H1256.5ZM1256.5 103.818V101.822H1255.5V103.818H1256.5ZM1256.5 99.8262V97.8301H1255.5V99.8262H1256.5ZM1256.5 95.834V93.8379H1255.5V95.834H1256.5ZM1256.5 91.8418V89.8457H1255.5V91.8418H1256.5ZM1256.5 87.8496V85.8535H1255.5V87.8496H1256.5ZM1256.5 83.8574V81.8613H1255.5V83.8574H1256.5ZM1256.5 79.8652V77.8691H1255.5V79.8652H1256.5ZM1256.5 75.873V73.877H1255.5V75.873H1256.5ZM1256.5 71.8809V69.8848H1255.5V71.8809H1256.5ZM1256.5 67.8887V65.8926H1255.5V67.8887H1256.5ZM1256.5 63.8965V61.9004H1255.5V63.8965H1256.5ZM1256.5 59.9043V57.9082H1255.5V59.9043H1256.5ZM1256.5 55.9121V53.916H1255.5V55.9121H1256.5ZM1256.5 51.9199V49.9238H1255.5V51.9199H1256.5ZM1256.5 47.9277V45.9316H1255.5V47.9277H1256.5ZM1256.5 43.9355V41.9395H1255.5V43.9355H1256.5ZM1256.5 39.9434V37.9473H1255.5V39.9434H1256.5ZM1256.5 35.9512V33.9551H1255.5V35.9512H1256.5ZM1256.5 31.959V29.9629H1255.5V31.959H1256.5ZM1256.5 27.9668V25.9707H1255.5V27.9668H1256.5ZM1256.5 23.9746V21.9785H1255.5V23.9746H1256.5ZM1256.5 19.9824V17.9863H1255.5V19.9824H1256.5ZM1256.5 15.9902V13.9941H1255.5V15.9902H1256.5ZM1256.5 11.998V11H1255.5V11.998H1256.5ZM1256.5 11C1256.5 10.653 1256.48 10.3097 1256.45 9.97102L1255.45 10.0679C1255.48 10.3744 1255.5 10.6853 1255.5 11H1256.5ZM1256.05 7.95119C1255.85 7.28686 1255.58 6.65043 1255.26 6.04912L1254.38 6.52127C1254.67 7.06516 1254.91 7.64061 1255.09 8.24115L1256.05 7.95119ZM1254.12 4.33856C1253.68 3.80733 1253.19 3.31974 1252.66 2.88327L1252.03 3.65593C1252.51 4.05105 1252.95 4.49248 1253.34 4.97338L1254.12 4.33856ZM1250.95 1.73825C1250.35 1.41618 1249.71 1.15089 1249.05 0.949612L1248.76 1.90665C1249.36 2.0886 1249.93 2.32845 1250.48 2.61977L1250.95 1.73825ZM1247.03 0.549814C1246.69 0.516854 1246.35 0.5 1246 0.5V1.5C1246.31 1.5 1246.63 1.51528 1246.93 1.54511L1247.03 0.549814ZM1246 0.5H1245V1.5H1246V0.5ZM1242.99 0.5H1240.99V1.5H1242.99V0.5ZM1238.99 0.5H1236.98V1.5H1238.99V0.5ZM1234.98 0.5H1232.98V1.5H1234.98V0.5ZM1230.97 0.5H1228.97V1.5H1230.97V0.5ZM1226.97 0.5H1224.96V1.5H1226.97V0.5ZM1222.96 0.5H1220.96V1.5H1222.96V0.5ZM1218.95 0.5H1216.95V1.5H1218.95V0.5ZM1214.95 0.5H1213.94V1.5H1214.95V0.5Z" fill="#323232"/>
</svg>
