<svg width="179" height="160" viewBox="0 0 179 160" fill="none" xmlns="http://www.w3.org/2000/svg">
<path opacity="0.5" d="M105.106 116.794C137.358 116.794 163.503 90.6488 163.503 58.397C163.503 26.1452 137.358 0 105.106 0C72.8542 0 46.709 26.1452 46.709 58.397C46.709 90.6488 72.8542 116.794 105.106 116.794Z" fill="#F2F2F2"/>
<path d="M86.5657 81.3078C91.7195 78.4753 98.1336 79.0437 103.686 80.9803C109.239 82.917 114.271 86.0897 119.664 88.4364C136.142 95.6075 156.002 94.4512 171.536 85.4163C173.005 88.8337 171.429 92.7427 169.698 96.0351C167.967 99.3275 165.994 102.896 166.706 106.547C167.618 111.219 172.517 114.02 174.501 118.347C176.385 122.454 175.374 127.277 173.929 131.558C172.483 135.84 170.608 140.153 170.853 144.665C171.099 149.177 174.377 153.948 178.896 153.952C172.199 154.992 165.371 156.033 158.678 154.967C151.986 153.901 145.329 150.361 142.221 144.339C140.668 141.329 140.069 137.867 138.286 134.988C135.247 130.083 129.417 127.777 123.915 126.038C118.414 124.3 112.526 122.625 108.653 118.349C104.962 114.275 103.793 108.6 101.838 103.462C98.5447 94.8611 92.8248 87.4018 85.373 81.99" fill="#B01873"/>
<path d="M92.5367 59.9607C90.7275 59.1191 88.5063 58.8431 86.6654 59.6252C84.8246 60.4073 83.5696 62.4119 84.1648 64.1859C84.4347 64.9903 85.0494 65.7813 84.8099 66.5936C84.6256 67.2189 83.9826 67.6317 83.3511 67.9253C82.7196 68.2188 82.0289 68.4656 81.5722 68.9606C81.1155 69.4557 81.0202 70.308 81.5907 70.6919C81.7787 70.8184 82.0136 70.8784 82.1959 71.0116C82.3512 71.1378 82.4633 71.3094 82.5165 71.5023C82.5697 71.6953 82.5613 71.9 82.4927 72.088C82.3408 72.4662 82.0897 72.7965 81.7659 73.0441C81.1183 73.6026 80.2624 74.2418 80.4635 75.0347C80.5381 75.2466 80.6627 75.4373 80.8268 75.5908C80.9908 75.7442 81.1895 75.8559 81.4059 75.9162C81.8554 76.0458 82.3217 76.1073 82.7893 76.0987L101.9 76.7007C102.53 76.7481 103.165 76.7127 103.786 76.5954C104.089 76.5402 104.376 76.4234 104.631 76.2521C104.886 76.0808 105.103 75.8588 105.268 75.5999C105.634 74.9225 105.394 74.0881 104.942 73.4555C104.49 72.823 103.851 72.3241 103.322 71.7432C102.793 71.1624 102.361 70.4374 102.454 69.6867C102.529 69.0858 102.925 68.5664 103.21 68.0204C103.494 67.4744 103.659 66.7921 103.291 66.2898C102.772 65.5819 101.525 65.6459 100.935 64.9864C100.489 64.4886 100.575 63.7721 100.531 63.1302C100.424 61.5863 99.3554 60.1282 97.8338 59.4511C97.0601 59.119 96.2184 58.9756 95.3783 59.0328C94.5383 59.09 93.7238 59.3462 93.0023 59.7802L92.5367 59.9607Z" fill="#2F2E41"/>
<path d="M80.4598 156.869L77.4668 155.97L79.511 143.997L83.9285 145.324L80.4598 156.869Z" fill="#D0D0D0"/>
<path d="M80.3521 160L70.7012 157.1L70.7378 156.978C70.886 156.485 71.1299 156.026 71.4556 155.627C71.7813 155.228 72.1824 154.897 72.636 154.653C73.0896 154.409 73.5869 154.256 74.0993 154.204C74.6118 154.153 75.1295 154.202 75.6228 154.35L81.5174 156.122L80.3521 160Z" fill="#2F2E41"/>
<path d="M108.704 156.971L105.578 156.971L104.092 144.916L108.704 144.916L108.704 156.971Z" fill="#D0D0D0"/>
<path d="M109.501 159.999L99.4238 159.999V159.871C99.4238 159.356 99.5253 158.846 99.7224 158.37C99.9195 157.895 100.208 157.462 100.573 157.098C100.937 156.734 101.369 156.445 101.845 156.248C102.321 156.051 102.831 155.949 103.346 155.949L109.501 155.949L109.501 159.999Z" fill="#2F2E41"/>
<path d="M104.366 147.852C104.093 147.852 103.829 147.755 103.622 147.578C103.414 147.401 103.277 147.156 103.234 146.887L98.5932 117.94C98.5624 117.748 98.47 117.571 98.3298 117.437C98.1897 117.302 98.0095 117.217 97.8167 117.195C97.6239 117.172 97.4289 117.213 97.2613 117.311C97.0937 117.409 96.9627 117.559 96.8882 117.738L84.8659 146.681C84.7539 146.948 84.5453 147.163 84.2817 147.283C84.0182 147.404 83.7189 147.42 83.4438 147.329L79.1014 145.882C78.831 145.793 78.6037 145.606 78.4638 145.358C78.324 145.11 78.2817 144.818 78.3453 144.541L88.1976 100.944C88.2459 100.734 88.3519 100.542 88.5039 100.389C88.6558 100.236 88.8475 100.129 89.0572 100.079L102.27 97.0123C102.433 96.9754 102.601 96.9738 102.764 97.0077C102.927 97.0415 103.081 97.11 103.215 97.2084C111.916 103.53 111.181 124.184 109.559 146.611C109.539 146.892 109.416 147.155 109.215 147.352C109.013 147.548 108.746 147.663 108.465 147.675L104.416 147.851C104.399 147.852 104.382 147.852 104.366 147.852Z" fill="#2F2E41"/>
<path d="M93.2435 76.5534C96.7014 76.5534 99.5046 73.7502 99.5046 70.2923C99.5046 66.8344 96.7014 64.0312 93.2435 64.0312C89.7856 64.0312 86.9824 66.8344 86.9824 70.2923C86.9824 73.7502 89.7856 76.5534 93.2435 76.5534Z" fill="#D0D0D0"/>
<path d="M93.5135 102.742C92.0106 102.733 90.5286 102.39 89.1739 101.739L89.1273 101.718L89.1088 101.67L83.4931 87.1198L83.3863 84.5918C83.3505 83.7464 83.4922 82.9028 83.8021 82.1155C84.1121 81.3281 84.5835 80.6144 85.186 80.0203C85.7885 79.4262 86.5088 78.9649 87.3004 78.666C88.092 78.3671 88.9375 78.2373 89.7823 78.285L95.7443 78.6208C97.2843 78.7084 98.7331 79.3796 99.7958 80.4977C100.858 81.6159 101.455 83.097 101.464 84.6396C101.619 84.9371 102.718 87.2632 100.563 89.4487C100.483 89.9463 99.7288 95.1199 102.574 97.9648L102.654 98.0447L102.584 98.1336C102.538 98.1914 98.8848 102.742 93.5135 102.742Z" fill="#3F3D56"/>
<path d="M101.886 103.839C102.238 103.711 102.558 103.508 102.823 103.243C103.088 102.978 103.292 102.658 103.42 102.306C103.549 101.954 103.598 101.578 103.565 101.205C103.533 100.832 103.418 100.47 103.231 100.145L109.185 93.2516L104.491 92.6406L99.5562 99.2808C99.0322 99.6322 98.6552 100.164 98.4967 100.774C98.3382 101.385 98.4093 102.033 98.6964 102.594C98.9835 103.156 99.4667 103.593 100.054 103.823C100.642 104.052 101.294 104.058 101.886 103.839Z" fill="#D0D0D0"/>
<path d="M105.608 98.5188C105.385 98.5188 105.166 98.4532 104.979 98.3301L102.034 96.3986C101.786 96.2368 101.611 95.9856 101.544 95.6974C101.478 95.4092 101.526 95.1065 101.677 94.8526L103.809 91.2706C103.925 91.0768 103.998 90.8608 104.024 90.6368C104.05 90.4127 104.028 90.1858 103.96 89.9707C103.892 89.7557 103.779 89.5575 103.629 89.3891C103.479 89.2207 103.295 89.086 103.089 88.9937L96.9643 86.2476C96.211 85.9056 95.5962 85.318 95.2205 84.5809C94.8448 83.8439 94.7305 83.0011 94.8964 82.1906C95.0109 81.644 95.25 81.1312 95.595 80.6921C95.94 80.253 96.3817 79.8994 96.8856 79.6588C97.3896 79.4183 97.9422 79.2972 98.5006 79.305C99.059 79.3129 99.608 79.4495 100.105 79.7041L109.397 84.4657C110.024 84.7869 110.574 85.2398 111.01 85.7934C111.445 86.347 111.756 86.9881 111.921 87.673C112.086 88.3578 112.1 89.0702 111.964 89.7613C111.828 90.4524 111.544 91.1059 111.132 91.6771L106.538 98.0423C106.432 98.1899 106.293 98.3101 106.131 98.393C105.969 98.4758 105.79 98.519 105.608 98.5188Z" fill="#3F3D56"/>
<path d="M86.8388 69.4012C88.8161 69.2424 90.4577 67.2671 90.2521 65.2942C90.2289 66.1074 90.5055 66.9008 91.0291 67.5233C91.5528 68.1459 92.2871 68.5543 93.0922 68.6708C93.9992 68.7707 94.9935 68.4963 95.783 68.9539C96.6573 69.4606 96.9371 70.6913 97.848 71.1291C98.7281 71.552 99.846 70.9752 100.281 70.1009C100.716 69.2266 100.609 68.1762 100.321 67.2432C99.9098 65.9127 99.1615 64.7112 98.1486 63.7556C97.1358 62.7999 95.8928 62.1227 94.5407 61.7897C93.1886 61.4568 91.7733 61.4794 90.4325 61.8554C89.0917 62.2315 87.871 62.9481 86.8892 63.9356C86.0578 64.7719 85.3977 65.8377 85.2906 67.012C85.1835 68.1864 85.7283 69.4606 86.783 69.9882L86.8388 69.4012Z" fill="#2F2E41"/>
<path d="M72.2719 52.0578C72.6018 52.2356 72.8887 52.4836 73.1124 52.7843C73.336 53.085 73.4911 53.4311 73.5665 53.7981C73.642 54.1652 73.636 54.5444 73.5491 54.9089C73.4621 55.2734 73.2963 55.6145 73.0634 55.908L77.9473 63.5976L73.2142 63.5165L69.302 56.2268C68.8348 55.8027 68.5395 55.2219 68.4719 54.5946C68.4043 53.9673 68.5692 53.337 68.9352 52.8231C69.3013 52.3092 69.8432 51.9475 70.4582 51.8064C71.0732 51.6654 71.7185 51.7548 72.2719 52.0578Z" fill="#D0D0D0"/>
<path d="M76.2094 57.534L82.4991 72.3962L89.0936 83.5781C89.3719 84.0501 89.5394 84.5792 89.5833 85.1255C89.6272 85.6717 89.5464 86.2208 89.347 86.7312C89.1477 87.2417 88.8349 87.7001 88.4324 88.072C88.0299 88.4439 87.5482 88.7194 87.0236 88.8779C86.1916 89.1248 85.2987 89.066 84.5062 88.7121C83.7138 88.3583 83.074 87.7327 82.7025 86.9483L69.9929 59.7912C69.9239 59.6437 69.887 59.4831 69.8849 59.3202C69.8827 59.1574 69.9153 58.9959 69.9804 58.8466C70.0455 58.6973 70.1416 58.5635 70.2624 58.4543C70.3833 58.345 70.5259 58.2627 70.681 58.2129L74.802 56.8891C74.8801 56.864 74.9607 56.8471 75.0423 56.8388C75.2856 56.8142 75.5305 56.8685 75.7406 56.9937C75.9508 57.1189 76.1151 57.3083 76.2094 57.534Z" fill="#3F3D56"/>
<path d="M102.281 159.203H0.135113C0.0992791 159.203 0.0649124 159.177 0.0395737 159.13C0.014235 159.083 0 159.019 0 158.953C0 158.886 0.014235 158.823 0.0395737 158.776C0.0649124 158.729 0.0992791 158.702 0.135113 158.702H102.281C102.317 158.702 102.351 158.729 102.376 158.776C102.402 158.823 102.416 158.886 102.416 158.953C102.416 159.019 102.402 159.083 102.376 159.13C102.351 159.177 102.317 159.203 102.281 159.203Z" fill="#CCCCCC"/>
<path d="M118.001 27.1217V47.6735C118.001 47.7399 117.975 47.8037 117.928 47.8507C117.881 47.8977 117.817 47.9241 117.751 47.9241C117.684 47.9241 117.62 47.8977 117.573 47.8507C117.526 47.8037 117.5 47.7399 117.5 47.6735V27.1217C117.5 27.0553 117.526 26.9915 117.573 26.9445C117.62 26.8975 117.684 26.8711 117.751 26.8711C117.817 26.8711 117.881 26.8975 117.928 26.9445C117.975 26.9915 118.001 27.0553 118.001 27.1217Z" fill="#CCCCCC"/>
<path d="M139.762 44.5572L132.674 51.6461C132.627 51.6929 132.563 51.7192 132.496 51.7191C132.43 51.719 132.366 51.6926 132.32 51.6457C132.273 51.5987 132.246 51.5351 132.246 51.4687C132.246 51.4024 132.272 51.3387 132.319 51.2916L139.408 44.2027C139.431 44.1793 139.459 44.1608 139.489 44.1481C139.52 44.1355 139.552 44.1289 139.585 44.1289C139.618 44.1289 139.651 44.1353 139.681 44.1479C139.712 44.1605 139.74 44.179 139.763 44.2023C139.786 44.2256 139.805 44.2533 139.817 44.2838C139.83 44.3142 139.836 44.3469 139.836 44.3798C139.836 44.4128 139.83 44.4454 139.817 44.4758C139.804 44.5063 139.786 44.5339 139.762 44.5572Z" fill="#CCCCCC"/>
<path d="M95.7379 44.5572L102.827 51.6461C102.874 51.6931 102.938 51.7195 103.004 51.7195C103.07 51.7195 103.134 51.6931 103.181 51.6461C103.228 51.5991 103.255 51.5353 103.255 51.4689C103.255 51.4024 103.228 51.3386 103.181 51.2916L96.0923 44.2027C96.0691 44.1793 96.0414 44.1608 96.011 44.1481C95.9806 44.1355 95.9479 44.1289 95.915 44.1289C95.882 44.1289 95.8494 44.1353 95.8189 44.1479C95.7885 44.1605 95.7608 44.179 95.7375 44.2023C95.7142 44.2256 95.6957 44.2533 95.6831 44.2838C95.6705 44.3142 95.664 44.3469 95.6641 44.3798C95.6641 44.4128 95.6706 44.4454 95.6833 44.4758C95.696 44.5063 95.7145 44.5339 95.7379 44.5572Z" fill="#CCCCCC"/>
</svg>
