<svg width="188" height="160" viewBox="0 0 188 160" fill="none" xmlns="http://www.w3.org/2000/svg">
<path d="M76.5444 83.2002H183.458C184.45 83.1991 185.402 82.8046 186.103 82.1032C186.805 81.4018 187.2 80.4508 187.201 79.4589V27.7413C187.2 26.7494 186.805 25.7984 186.103 25.097C185.402 24.3956 184.45 24.0011 183.458 24H76.5444C75.5519 24.0011 74.6003 24.3956 73.8985 25.097C73.1967 25.7984 72.8019 26.7494 72.8008 27.7413V79.4589C72.8019 80.4508 73.1967 81.4018 73.8985 82.1032C74.6003 82.8046 75.5519 83.1991 76.5444 83.2002ZM183.458 24.4402C184.333 24.4411 185.173 24.7893 185.792 25.4081C186.411 26.027 186.76 26.8661 186.761 27.7413V79.4589C186.76 80.3341 186.411 81.1732 185.792 81.7921C185.173 82.4109 184.333 82.7591 183.458 82.7601H76.5444C75.6686 82.7591 74.829 82.4109 74.2098 81.7921C73.5905 81.1732 73.2422 80.3341 73.2412 79.4589V27.7413C73.2422 26.8661 73.5905 26.027 74.2098 25.4081C74.829 24.7893 75.6686 24.4411 76.5444 24.4402H183.458Z" fill="#3F3D56"/>
<path d="M166.801 36.7998C165.696 36.7998 164.801 35.9044 164.801 34.7998C164.801 33.6952 165.696 32.7998 166.801 32.7998C167.905 32.7998 168.801 33.6952 168.801 34.7998C168.801 35.9044 167.905 36.7998 166.801 36.7998Z" fill="#CCCCCC"/>
<path d="M166.801 44C165.696 44 164.801 43.1046 164.801 42C164.801 40.8954 165.696 40 166.801 40C167.905 40 168.801 40.8954 168.801 42C168.801 43.1046 167.905 44 166.801 44Z" fill="#CCCCCC"/>
<path d="M166.801 52C165.696 52 164.801 51.1046 164.801 50C164.801 48.8954 165.696 48 166.801 48C167.905 48 168.801 48.8954 168.801 50C168.801 51.1046 167.905 52 166.801 52Z" fill="#CCCCCC"/>
<path d="M166.801 59.2002C165.696 59.2002 164.801 58.3048 164.801 57.2002C164.801 56.0956 165.696 55.2002 166.801 55.2002C167.905 55.2002 168.801 56.0956 168.801 57.2002C168.801 58.3048 167.905 59.2002 166.801 59.2002Z" fill="#CCCCCC"/>
<path d="M133.201 74.4004C132.097 74.4004 131.201 73.505 131.201 72.4004C131.201 71.2958 132.097 70.4004 133.201 70.4004C134.306 70.4004 135.201 71.2958 135.201 72.4004C135.201 73.505 134.306 74.4004 133.201 74.4004Z" fill="#CCCCCC"/>
<path d="M147.602 74.4004C146.497 74.4004 145.602 73.505 145.602 72.4004C145.602 71.2958 146.497 70.4004 147.602 70.4004C148.706 70.4004 149.602 71.2958 149.602 72.4004C149.602 73.505 148.706 74.4004 147.602 74.4004Z" fill="#CCCCCC"/>
<path d="M103.602 74.4004C102.497 74.4004 101.602 73.505 101.602 72.4004C101.602 71.2958 102.497 70.4004 103.602 70.4004C104.706 70.4004 105.602 71.2958 105.602 72.4004C105.602 73.505 104.706 74.4004 103.602 74.4004Z" fill="#CCCCCC"/>
<path d="M118.801 74.4004C117.696 74.4004 116.801 73.505 116.801 72.4004C116.801 71.2958 117.696 70.4004 118.801 70.4004C119.905 70.4004 120.801 71.2958 120.801 72.4004C120.801 73.505 119.905 74.4004 118.801 74.4004Z" fill="#CCCCCC"/>
<path d="M91.4207 35.2004H156.581C156.639 35.2004 156.695 35.1582 156.736 35.0832C156.778 35.0082 156.801 34.9065 156.801 34.8004C156.801 34.6943 156.778 34.5926 156.736 34.5176C156.695 34.4425 156.639 34.4004 156.581 34.4004H91.4207C91.3623 34.4004 91.3063 34.4425 91.265 34.5176C91.2237 34.5926 91.2006 34.6943 91.2006 34.8004C91.2006 34.9065 91.2237 35.0082 91.265 35.0832C91.3063 35.1582 91.3623 35.2004 91.4207 35.2004Z" fill="#CCCCCC"/>
<path d="M91.4207 50.4006H156.581C156.639 50.4006 156.695 50.3584 156.736 50.2834C156.778 50.2084 156.801 50.1067 156.801 50.0006C156.801 49.8945 156.778 49.7928 156.736 49.7177C156.695 49.6427 156.639 49.6006 156.581 49.6006H91.4207C91.3623 49.6006 91.3063 49.6427 91.265 49.7177C91.2237 49.7928 91.2006 49.8945 91.2006 50.0006C91.2006 50.1067 91.2237 50.2084 91.265 50.2834C91.3063 50.3584 91.3623 50.4006 91.4207 50.4006Z" fill="#CCCCCC"/>
<path d="M91.4207 57.5998H156.581C156.639 57.5998 156.695 57.5577 156.736 57.4826C156.778 57.4076 156.801 57.3059 156.801 57.1998C156.801 57.0937 156.778 56.992 156.736 56.917C156.695 56.842 156.639 56.7998 156.581 56.7998H91.4207C91.3623 56.7998 91.3063 56.842 91.265 56.917C91.2237 56.992 91.2006 57.0937 91.2006 57.1998C91.2006 57.3059 91.2237 57.4076 91.265 57.4826C91.3063 57.5577 91.3623 57.5998 91.4207 57.5998Z" fill="#CCCCCC"/>
<path d="M144.33 64.7998H150.874C151.173 64.7995 151.46 64.6855 151.671 64.4828C151.883 64.2802 152.002 64.0054 152.002 63.7187V57.8809C152.002 57.5943 151.883 57.3195 151.671 57.1168C151.46 56.9141 151.173 56.8001 150.874 56.7998H144.33C144.031 56.8001 143.744 56.9141 143.533 57.1168C143.321 57.3195 143.202 57.5943 143.202 57.8809V63.7187C143.202 64.0054 143.321 64.2802 143.533 64.4828C143.744 64.6855 144.031 64.7995 144.33 64.7998Z" fill="#B01873"/>
<path d="M129.93 64.8006H136.473C136.772 64.8003 137.059 64.6874 137.271 64.4868C137.482 64.2861 137.601 64.014 137.602 63.7302V50.671C137.601 50.3872 137.482 50.1151 137.271 49.9145C137.059 49.7138 136.772 49.6009 136.473 49.6006H129.93C129.631 49.6009 129.344 49.7138 129.132 49.9145C128.921 50.1151 128.802 50.3872 128.802 50.671V63.7302C128.802 64.014 128.921 64.2861 129.132 64.4868C129.344 64.6874 129.631 64.8003 129.93 64.8006Z" fill="#B01873"/>
<path d="M115.529 64.8007H122.073C122.372 64.8003 122.659 64.6838 122.87 64.4767C123.082 64.2696 123.201 63.9888 123.201 63.6959V42.7054C123.201 42.4125 123.082 42.1316 122.87 41.9245C122.659 41.7174 122.372 41.6009 122.073 41.6006H115.529C115.23 41.6009 114.943 41.7174 114.732 41.9245C114.52 42.1316 114.401 42.4125 114.401 42.7054V63.6959C114.401 63.9888 114.52 64.2696 114.732 64.4767C114.943 64.6838 115.23 64.8003 115.529 64.8007Z" fill="#B01873"/>
<path d="M100.328 64.8005H106.872C107.171 64.8002 107.458 64.684 107.669 64.4775C107.881 64.271 108 63.9911 108 63.699V35.5018C108 35.2098 107.881 34.9299 107.669 34.7234C107.458 34.5169 107.171 34.4007 106.872 34.4004H100.328C100.029 34.4007 99.7423 34.5169 99.5308 34.7234C99.3193 34.9299 99.2003 35.2098 99.2 35.5018V63.699C99.2003 63.9911 99.3193 64.271 99.5308 64.4775C99.7423 64.684 100.029 64.8002 100.328 64.8005Z" fill="#B01873"/>
<path d="M38.1344 84.1006C38.4412 84.0997 38.7471 84.0682 39.0479 84.0064C39.1028 83.9952 39.1579 83.9831 39.2128 83.97L105.282 68.1553C105.999 67.9834 106.476 67.5193 106.39 67.0755C106.354 66.9449 106.284 66.827 106.187 66.7349C106.09 66.6427 105.97 66.58 105.84 66.5534C105.521 66.4631 105.186 66.4554 104.863 66.5311L38.3841 80.8044C36.8873 81.1256 35.8481 82.0701 36.0184 82.9543C36.1076 83.4171 36.504 83.7758 37.1346 83.9646C37.46 84.0579 37.7966 84.1036 38.1344 84.1006Z" fill="#3F3D56"/>
<path d="M52.2151 82.1382C51.8668 82.3322 51.4777 82.4515 51.0754 82.4876C50.6731 82.5238 50.2673 82.4759 49.8867 82.3474C49.506 82.2189 49.1597 82.0129 48.8721 81.7439C48.5846 81.4749 48.3628 81.1494 48.2224 80.7904L38.4015 80.9844L41.1222 76.8926L50.0312 77.3356C50.6834 77.1522 51.3841 77.2017 52.0003 77.4749C52.6165 77.7481 53.1056 78.226 53.3748 78.8179C53.644 79.4099 53.6746 80.0749 53.4609 80.6868C53.2471 81.2988 52.8039 81.8152 52.2151 82.1382Z" fill="#D0D0D0"/>
<path d="M48.7503 80.4983L48.8007 77.5285C48.8044 77.222 48.6932 76.9252 48.4889 76.6966C48.2847 76.4679 48.0022 76.324 47.697 76.2931L30.2767 74.6129L15.7627 69.8566C15.3246 69.7131 14.8623 69.658 14.4028 69.6946C13.9432 69.7312 13.4955 69.8587 13.0857 70.0697C12.6759 70.2808 12.3121 70.5712 12.0156 70.924C11.7191 71.2768 11.4957 71.685 11.3584 72.1249C11.2211 72.5648 11.1727 73.0275 11.216 73.4863C11.2593 73.945 11.3934 74.3906 11.6105 74.797C11.8276 75.2035 12.1233 75.5628 12.4806 75.854C12.8379 76.1452 13.2495 76.3626 13.6916 76.4933L29.7567 81.2473L47.4987 81.6977C47.7669 81.7042 48.0298 81.6224 48.2469 81.465C48.464 81.3075 48.6233 81.0831 48.7003 80.8263C48.7318 80.7197 48.7486 80.6094 48.7503 80.4983Z" fill="#3F3D56"/>
<path d="M23.2005 156.188L26.4529 156.188L28 144.174L23.2 144.174L23.2005 156.188Z" fill="#D0D0D0"/>
<path d="M22.401 159.393L32.8008 159.392V159.266C32.8008 158.757 32.6961 158.252 32.4927 157.782C32.2892 157.311 31.9911 156.884 31.6152 156.524C31.2393 156.163 30.793 155.878 30.3019 155.683C29.8108 155.488 29.2844 155.388 28.7529 155.388H28.7526L22.4007 155.388L22.401 159.393Z" fill="#2F2E41"/>
<path d="M12.8021 156.188L16.0544 156.188L17.6016 144.174L12.8015 144.174L12.8021 156.188Z" fill="#D0D0D0"/>
<path d="M12.0014 159.393L23.2012 159.392V159.266C23.2012 158.757 23.0884 158.252 22.8693 157.782C22.6503 157.311 22.3292 156.884 21.9244 156.524C21.5196 156.163 21.039 155.878 20.5101 155.683C19.9812 155.488 19.4143 155.388 18.8419 155.388H18.8416L12.0011 155.388L12.0014 159.393Z" fill="#2F2E41"/>
<path d="M10.4003 105.438L11.1915 151.575C11.194 151.721 11.2272 151.865 11.2889 151.998C11.3506 152.131 11.4395 152.25 11.5502 152.348C11.6608 152.445 11.7908 152.52 11.9319 152.566C12.073 152.612 12.2223 152.629 12.3703 152.615L16.2477 152.269C16.502 152.246 16.74 152.136 16.9193 151.957C17.0987 151.778 17.2079 151.543 17.2277 151.293L19.4976 122.514C19.503 122.446 19.5344 122.383 19.5855 122.337C19.6366 122.292 19.7035 122.267 19.7725 122.269C19.8414 122.27 19.9073 122.297 19.9565 122.345C20.0057 122.392 20.0346 122.456 20.0372 122.524L21.1718 151.962C21.1824 152.237 21.3008 152.497 21.5022 152.687C21.7037 152.878 21.9724 152.985 22.2521 152.985H26.4104C26.6857 152.985 26.9506 152.881 27.1511 152.696C27.3517 152.511 27.4727 152.257 27.4894 151.987L30.4004 105.172L13.103 100.922L10.4003 105.438Z" fill="#2F2E41"/>
<path d="M22.8015 60.873C19.046 60.873 16.0015 58.0042 16.0015 54.4653C16.0015 50.9264 19.046 48.0576 22.8015 48.0576C26.5571 48.0576 29.6016 50.9264 29.6016 54.4653C29.6016 58.0042 26.5571 60.873 22.8015 60.873Z" fill="#D0D0D0"/>
<path d="M31.1877 106.189C31.302 106.079 31.3932 105.947 31.4561 105.802C31.519 105.657 31.5523 105.501 31.5541 105.343L31.999 73.7055C32.0257 72.0961 31.539 70.5197 30.6088 69.2027C29.6785 67.8857 28.3526 66.8959 26.8215 66.3755C26.2036 63.587 22.9152 63.2377 20.9981 63.2794C20.5196 63.2897 20.0507 63.4146 19.631 63.6435C19.2114 63.8724 18.8535 64.1986 18.5875 64.5944L17.2133 66.645L14.1844 68.4112C12.7826 69.2251 11.6769 70.4609 11.0269 71.9404C10.3768 73.4198 10.2159 75.0664 10.5674 76.6427L11.0337 78.7528C12.6758 86.2211 12.5196 93.9698 10.5778 101.367L9.63948 104.926C9.5906 105.111 9.58696 105.305 9.62891 105.492C9.67086 105.679 9.75716 105.854 9.88061 106.001C10.0041 106.148 10.1611 106.264 10.3386 106.338C10.5161 106.413 10.7089 106.444 10.901 106.429L11.9908 106.346C12.2737 106.324 12.54 106.204 12.7429 106.007C12.9459 105.81 13.0724 105.548 13.1004 105.267L13.2807 103.473C13.2841 103.44 13.2996 103.409 13.3243 103.387C13.3489 103.365 13.3811 103.353 13.4144 103.353C13.4476 103.353 13.4798 103.365 13.5044 103.387C13.5291 103.409 13.5446 103.44 13.548 103.473L13.7225 105.21C13.752 105.503 13.8889 105.776 14.1072 105.975C14.3254 106.175 14.6098 106.288 14.9063 106.292L30.3273 106.528C30.3337 106.528 30.3401 106.528 30.3465 106.528C30.6608 106.529 30.9628 106.407 31.1877 106.189Z" fill="#3F3D56"/>
<path d="M22.9263 58.0406C22.8988 58.9332 22.2402 59.4497 21.4317 59.9173C20.6231 60.3848 19.678 60.5876 18.752 60.7831C18.6276 60.8453 18.4883 60.8762 18.3476 60.873C18.2068 60.8697 18.0693 60.8324 17.9483 60.7646C17.8274 60.6968 17.727 60.6007 17.657 60.4858C17.5869 60.3708 17.5495 60.2408 17.5484 60.1083L16.6992 57.0685C16.3987 56.0974 16.1801 55.1056 16.0454 54.1022C15.8408 52.1715 16.327 50.0946 17.759 48.6987C19.191 47.3028 21.6744 46.8069 23.3904 47.8824C25.4269 45.4348 34.7353 50.8425 32.4391 52.5446C32.0306 52.8473 31.4062 52.4642 30.8877 52.4271C30.3692 52.3899 29.7881 52.4758 29.4588 52.8544C29.0284 53.3492 29.2159 54.0861 29.0385 54.7033C28.9652 54.9204 28.8469 55.1218 28.6904 55.2957C28.534 55.4696 28.3425 55.6126 28.127 55.7166C27.9116 55.8205 27.6764 55.8833 27.435 55.9012C27.1936 55.9192 26.9508 55.892 26.7207 55.8213C26.292 55.6225 25.8887 55.3785 25.5186 55.094C25.1208 54.8447 24.6183 54.6605 24.1706 54.8178C23.5805 55.025 23.3708 55.7049 23.3175 56.2955C23.2276 56.8846 23.0969 57.4675 22.9263 58.0406Z" fill="#2F2E41"/>
<path opacity="0.2" d="M1.00394 160H78.7841C78.8383 160 78.8902 159.968 78.9285 159.911C78.9668 159.854 78.9883 159.776 78.9883 159.696C78.9883 159.615 78.9668 159.538 78.9285 159.481C78.8902 159.424 78.8383 159.392 78.7841 159.392H1.00394C0.949792 159.392 0.897869 159.424 0.859584 159.481C0.821299 159.538 0.799788 159.615 0.799788 159.696C0.799788 159.776 0.821299 159.854 0.859584 159.911C0.897869 159.968 0.949792 160 1.00394 160Z" fill="#3F3D56"/>
<path opacity="0.2" d="M24.7495 76.0918L25.7818 89.4359L31.2012 103.325L23.2011 89.7082L24.7495 76.0918Z" fill="black"/>
<path d="M32.4304 108.323C32.1266 108.077 31.88 107.766 31.708 107.412C31.5359 107.059 31.4426 106.672 31.4345 106.278C31.4265 105.884 31.504 105.493 31.6615 105.133C31.819 104.773 32.0528 104.452 32.3463 104.193L28.8008 95.3145L33.6246 96.2993L36.2519 104.579C36.6497 105.107 36.8423 105.763 36.7933 106.424C36.7443 107.086 36.457 107.706 35.986 108.167C35.5149 108.629 34.8928 108.9 34.2375 108.928C33.5822 108.957 32.9392 108.742 32.4304 108.323Z" fill="#D0D0D0"/>
<path d="M32.4892 104.053L35.2146 103.055C35.4953 102.95 35.7275 102.743 35.8653 102.473C36.0031 102.204 36.0366 101.892 35.9592 101.598L31.4633 84.8776L30.7778 69.766C30.7571 69.3099 30.6474 68.8625 30.4551 68.4498C30.2627 68.0371 29.9915 67.6675 29.6572 67.3622C29.3229 67.057 28.9323 66.8223 28.508 66.6719C28.0836 66.5214 27.6341 66.4582 27.1855 66.4858C26.7369 66.5134 26.2981 66.6314 25.8948 66.8328C25.4915 67.0343 25.1316 67.3152 24.8361 67.6592C24.5405 68.0032 24.3153 68.4035 24.1734 68.8367C24.0315 69.27 23.9758 69.7276 24.0095 70.1829L25.2338 86.7298L30.9624 103.316C31.0493 103.566 31.2148 103.781 31.4335 103.927C31.6522 104.072 31.912 104.141 32.1728 104.122C32.2809 104.113 32.3873 104.09 32.4892 104.053Z" fill="#3F3D56"/>
<path d="M76.7629 65.4333H166.764C166.845 65.4333 166.922 65.4013 166.979 65.3443C167.036 65.2872 167.068 65.2099 167.068 65.1293C167.068 65.0486 167.036 64.9713 166.979 64.9143C166.922 64.8572 166.845 64.8252 166.764 64.8252H76.7629C76.6822 64.8252 76.6049 64.8572 76.5479 64.9143C76.4909 64.9713 76.4588 65.0486 76.4588 65.1293C76.4588 65.2099 76.4909 65.2872 76.5479 65.3443C76.6049 65.4013 76.6822 65.4333 76.7629 65.4333Z" fill="#3F3D56"/>
</svg>
