<svg width="186" height="160" viewBox="0 0 186 160" fill="none" xmlns="http://www.w3.org/2000/svg">
<g clip-path="url(#clip0_691_63545)">
<path d="M127.608 49.4565C127.602 53.0716 126.523 56.6037 124.509 59.6061C122.496 62.6084 119.637 64.9461 116.294 66.3237C112.952 67.7012 109.276 68.0567 105.732 67.3451C102.187 66.6335 98.9333 64.8869 96.3816 62.3261C93.8298 59.7652 92.0947 56.5052 91.3957 52.9583C90.6967 49.4113 91.0652 45.7368 92.4546 42.3992C93.844 39.0617 96.1918 36.2112 99.2013 34.208C102.211 32.2049 105.747 31.1391 109.362 31.1455C111.764 31.1436 114.143 31.6163 116.362 32.5366C118.58 33.4569 120.596 34.8067 122.291 36.5082C123.987 38.2098 125.329 40.2297 126.242 42.4518C127.154 44.6739 127.618 47.0544 127.608 49.4565Z" fill="#F2F2F2"/>
<path d="M156.105 75.9998L158.251 71.7568C156.327 69.3505 150.013 66.432 150.013 66.432L141.469 58.378C141.378 58.0187 141.197 57.6905 140.944 57.4266C140.692 57.1626 140.377 56.9721 140.031 56.8744C139.685 56.7766 139.32 56.7749 138.973 56.8696C138.626 56.9643 138.309 57.1519 138.055 57.4136C137.8 57.6753 137.617 58.0018 137.523 58.3603C137.429 58.7188 137.427 59.0966 137.519 59.4557C137.611 59.8148 137.793 60.1426 138.046 60.4059C138.299 60.6693 138.614 60.8589 138.96 60.9558L148.192 72.421L156.105 75.9998Z" fill="#9E616A"/>
<path d="M155.051 75.3766L158.225 76.3203C160.533 77.0066 163.02 76.9549 165.293 76.1734C165.98 75.9343 166.582 75.5204 167.031 74.9785C167.48 74.4365 167.758 73.7881 167.833 73.1065C167.928 72.1819 167.643 71.2582 167.037 70.5219C166.431 69.7857 165.548 69.292 164.566 69.1407C161.59 68.6839 157.755 68.4586 156.387 69.9791L156.373 69.9945L155.051 75.3766Z" fill="#3F3D56"/>
<path d="M122.683 85.1958C132.778 85.1958 140.961 77.0122 140.961 66.9172C140.961 56.8223 132.778 48.6387 122.683 48.6387C112.588 48.6387 104.404 56.8223 104.404 66.9172C104.404 77.0122 112.588 85.1958 122.683 85.1958Z" fill="white"/>
<path d="M115.222 59.7672C114.971 61.1151 114.559 62.428 113.996 63.678C110.772 70.4991 119.954 68.2758 123.236 68.2758C126.823 68.2758 130.256 70.1624 129.732 61.7795C129.508 58.1987 126.823 55.2832 123.236 55.2832C120.171 55.2832 115.862 56.6453 115.222 59.7672Z" fill="#2F2E41"/>
<path d="M122.699 68.2748C125.614 68.2748 127.978 65.9113 127.978 62.9958C127.978 60.0803 125.614 57.7168 122.699 57.7168C119.783 57.7168 117.42 60.0803 117.42 62.9958C117.42 65.9113 119.783 68.2748 122.699 68.2748Z" fill="#FFB6B6"/>
<path d="M119.113 57.6143C120.038 57.0503 121.098 56.7453 122.181 56.731C123.265 56.7167 124.332 56.9937 125.271 57.5331C126.211 58.0724 126.988 58.8543 127.522 59.797C128.056 60.7396 128.327 61.8084 128.307 62.8916C125.617 63.567 122.791 64.0838 119.922 63.0532L119.245 61.3952L118.845 63.0544C117.972 63.4115 117.096 63.7136 116.22 63.051C116.184 61.9708 116.433 60.9002 116.941 59.9462C117.448 58.9921 118.197 58.188 119.113 57.6143Z" fill="#2F2E41"/>
<path d="M136.895 79.071C133.728 82.6742 129.272 84.8876 124.487 85.2334C119.703 85.5792 114.974 84.0296 111.322 80.9191L112.89 76.5444C113.244 75.7674 113.803 75.1015 114.507 74.6181C115.211 74.1347 116.034 73.852 116.886 73.8004L117.883 73.7392L120.262 71.688C120.262 71.688 126.67 71.4592 126.575 71.3496L130.456 73.6844L130.453 73.6683L131.979 73.7617C132.832 73.8131 133.654 74.0957 134.358 74.5792C135.062 75.0626 135.621 75.7286 135.975 76.5058L136.895 79.071Z" fill="#B01873"/>
<path d="M129.079 143.99L128.625 137.673C125.65 136.186 122.357 135.447 119.031 135.522C123.71 139.138 123.335 146.365 126.575 151.312C127.597 152.847 128.952 154.132 130.538 155.072C132.125 156.012 133.903 156.584 135.74 156.743L139.634 158.983C140.079 156.04 139.881 153.034 139.053 150.175C138.225 147.315 136.787 144.668 134.838 142.418C133.732 141.166 132.473 140.059 131.09 139.122C130.239 141.565 129.079 143.99 129.079 143.99Z" fill="#F2F2F2"/>
<path d="M146.25 157.6L143.539 157.6L142.25 148H146.25L146.25 157.6Z" fill="#9E616A"/>
<path d="M147.05 160L138.25 160V159.906C138.25 159.142 138.611 158.41 139.253 157.869C139.896 157.329 140.767 157.026 141.675 157.026H141.675L143.283 156L146.282 157.026L147.05 157.026L147.05 160Z" fill="#2F2E41"/>
<path d="M168.65 157.6L165.94 157.6L164.65 148H168.65L168.65 157.6Z" fill="#9E616A"/>
<path d="M169.451 160L161.451 160V159.906C161.451 159.142 161.779 158.41 162.363 157.869C162.947 157.329 163.739 157.026 164.565 157.026H164.565L166.026 156L168.753 157.026L169.451 157.026L169.451 160Z" fill="#2F2E41"/>
<path d="M164.809 104.545L166.974 125.257C166.974 125.257 169.856 145.996 169.314 148.857C168.773 151.719 169.45 152.128 169.45 152.128L164.511 151.774C164.511 151.774 164.646 150.002 163.835 149.185C163.023 148.367 163.429 145.914 163.429 145.914L153.849 112.176L148.03 129.89C148.03 129.89 147.083 149.376 146.948 149.648C146.813 149.921 146.407 153.6 146.407 153.6H141.4C141.4 153.6 142.077 151.42 141.13 150.738C140.183 150.057 139.371 150.602 140.183 149.376C140.994 148.149 141.265 146.651 140.994 145.969C140.724 145.288 140.724 142.563 140.724 142.563C140.724 142.563 141.13 105.771 143.43 104.545C145.73 103.319 164.809 104.545 164.809 104.545Z" fill="#2F2E41"/>
<path d="M154.651 63.2C157.523 63.2 159.851 60.6928 159.851 57.6C159.851 54.5072 157.523 52 154.651 52C151.779 52 149.451 54.5072 149.451 57.6C149.451 60.6928 151.779 63.2 154.651 63.2Z" fill="#9E616A"/>
<path d="M166.944 106.543C156.668 108.644 143.051 105.032 143.051 105.032L146.683 89.4437L145.392 73.1301C145.234 71.1351 146.382 69.2651 148.168 68.6024L150.633 67.6882L152.671 64.7998L158.493 64.9889L160.82 68.0212L162.656 68.9858L166.638 71.0761L166.655 71.0848V71.0935L165.406 83.091L164.652 90.325C164.652 90.325 166.941 98.4609 166.471 99.54C166.001 100.617 166.41 100.097 166.524 100.673C166.638 101.249 166.986 101.285 167.039 102.42C167.093 103.552 166.944 106.543 166.944 106.543Z" fill="#3F3D56"/>
<path d="M185.139 160H91.1512C91.0955 160 91.0421 159.978 91.0028 159.938C90.9635 159.899 90.9414 159.845 90.9414 159.79C90.9414 159.734 90.9635 159.68 91.0028 159.641C91.0421 159.602 91.0955 159.579 91.1512 159.579H185.139C185.195 159.579 185.248 159.601 185.288 159.641C185.327 159.68 185.349 159.734 185.349 159.79C185.349 159.845 185.327 159.899 185.288 159.938C185.248 159.978 185.195 160 185.139 160Z" fill="#CCCCCC"/>
<path d="M154.489 62.3928C155.399 62.3834 156.307 62.296 157.202 62.1315C158.088 61.9263 160.044 60.4071 160.577 59.5096C160.973 58.8428 161.211 57.8114 161.341 57.0636C161.516 56.074 161.482 55.0584 161.241 54.0827C161.001 53.107 160.559 52.1929 159.945 51.3996C159.708 51.0673 159.386 50.8054 159.013 50.6417C158.98 50.6298 158.946 50.6193 158.912 50.6104C158.372 50.4825 157.882 50.1952 157.505 49.7854C157.432 49.7024 157.353 49.6249 157.269 49.5533C156.846 49.2134 156.35 48.9788 155.819 48.8687C154.963 48.662 153.738 48.921 152.178 49.6389C151.395 49.9996 150.525 49.899 149.855 49.771C149.817 49.7647 149.778 49.7684 149.743 49.7818C149.707 49.7951 149.675 49.8176 149.651 49.847C149.374 50.1219 149.004 50.2813 148.615 50.2933C148.377 50.3099 148.136 50.6479 147.845 51.0879C147.779 51.1878 147.702 51.3043 147.646 51.3755L147.635 51.2419L147.504 51.3946C147.298 51.6347 147.156 51.9232 147.091 52.2333C147.026 52.5434 147.04 52.8649 147.132 53.168C147.224 53.471 147.391 53.7458 147.617 53.9666C147.843 54.1874 148.122 54.3471 148.426 54.4309C148.667 54.4887 148.914 54.5217 149.162 54.5292C149.312 54.5389 149.468 54.5489 149.617 54.5709C150.097 54.6567 150.546 54.866 150.921 55.1784C151.296 55.4907 151.584 55.8955 151.757 56.3531C151.798 56.4589 151.863 56.5538 151.946 56.6305C152.029 56.7073 152.129 56.7638 152.237 56.7957C152.345 56.8276 152.46 56.8341 152.571 56.8147C152.682 56.7953 152.787 56.7504 152.879 56.6836C153.03 56.5584 153.21 56.4719 153.402 56.4316C153.594 56.3913 153.794 56.3982 153.983 56.4519C154.147 56.5382 154.277 56.6786 154.35 56.8496C154.439 57.04 154.582 57.1994 154.762 57.3076C155.374 57.6047 155.451 58.9891 155.264 60.1498C155.083 61.2685 154.691 62.0846 154.309 62.1343C154.015 62.1726 153.982 62.1945 153.962 62.2474L153.944 62.2947L153.979 62.3377C154.143 62.3927 154.317 62.4115 154.489 62.3928Z" fill="#2F2E41"/>
<path d="M122.681 85.4252C119.021 85.4252 115.443 84.3398 112.399 82.3061C109.356 80.2725 106.983 77.382 105.583 74.0002C104.182 70.6184 103.815 66.8972 104.529 63.3071C105.244 59.7169 107.006 56.4192 109.595 53.8309C112.183 51.2426 115.481 49.4799 119.071 48.7658C122.661 48.0517 126.382 48.4182 129.764 49.819C133.146 51.2198 136.036 53.5919 138.07 56.6355C140.103 59.679 141.189 63.2572 141.189 66.9177C141.183 71.8245 139.232 76.5287 135.762 79.9983C132.292 83.468 127.588 85.4196 122.681 85.4252ZM122.681 48.8681C119.111 48.8681 115.622 49.9267 112.654 51.91C109.685 53.8933 107.372 56.7123 106.006 60.0104C104.64 63.3085 104.282 66.9377 104.979 70.439C105.675 73.9403 107.394 77.1564 109.918 79.6807C112.443 82.2049 115.659 83.924 119.16 84.6204C122.661 85.3169 126.291 84.9594 129.589 83.5933C132.887 82.2272 135.706 79.9137 137.689 76.9455C139.672 73.9773 140.731 70.4876 140.731 66.9177C140.726 62.1323 138.822 57.5445 135.438 54.1607C132.055 50.7769 127.467 48.8735 122.681 48.8681Z" fill="#3F3D56"/>
<path d="M66.7981 36.7857C76.8931 36.7857 85.0767 28.6021 85.0767 18.5071C85.0767 8.41211 76.8931 0.228516 66.7981 0.228516C56.7031 0.228516 48.5195 8.41211 48.5195 18.5071C48.5195 28.6021 56.7031 36.7857 66.7981 36.7857Z" fill="white"/>
<path d="M67.6439 20.3718C70.9357 20.3718 73.6042 17.7033 73.6042 14.4115C73.6042 11.1197 70.9357 8.45117 67.6439 8.45117C64.3521 8.45117 61.6836 11.1197 61.6836 14.4115C61.6836 17.7033 64.3521 20.3718 67.6439 20.3718Z" fill="#FFB8B8"/>
<path d="M72.8925 10.4743C72.8925 10.4743 74.4444 7.50762 71.0302 7.23792C71.0302 7.23792 68.1196 4.59765 65.153 6.75524C65.153 6.75524 63.5348 6.75524 62.6499 8.58641C62.6499 8.58641 61.3772 8.10374 61.0975 9.39551C61.0975 9.39551 60.1662 12.0925 61.0975 14.5198C62.0288 16.9471 62.3381 17.2168 62.3381 17.2168C62.3381 17.2168 61.6847 14.2046 65.4095 13.9349C69.1343 13.6652 72.5515 11.3318 72.862 14.2985C73.1724 17.2652 73.5136 15.925 73.5136 15.925C73.5136 15.925 76.4619 11.688 72.8925 10.4743Z" fill="#2F2E41"/>
<path d="M80.5436 30.6618C77.3769 34.265 72.9203 36.4784 68.1357 36.8242C63.3512 37.17 58.6226 35.6204 54.9707 32.5099L56.5385 28.1353C56.8928 27.3583 57.4519 26.6924 58.1559 26.2089C58.8598 25.7255 59.6821 25.4429 60.5345 25.3912L61.5319 25.33L63.9102 23.2788C63.9102 23.2788 70.3183 23.05 70.2233 22.9404L74.1049 25.2752L74.1017 25.2591L75.6275 25.3526C76.48 25.404 77.3024 25.6866 78.0064 26.17C78.7104 26.6534 79.2695 27.3195 79.6236 28.0966L80.5436 30.6618Z" fill="#B01873"/>
<path d="M66.7985 37.0151C63.1381 37.0151 59.5599 35.9296 56.5163 33.896C53.4728 31.8623 51.1006 28.9719 49.6998 25.5901C48.299 22.2082 47.9325 18.487 48.6466 14.8969C49.3608 11.3068 51.1234 8.00906 53.7118 5.42074C56.3001 2.83241 59.5978 1.06974 63.1879 0.355626C66.778 -0.358491 70.4993 0.00801781 73.8811 1.40881C77.2629 2.8096 80.1533 5.18175 82.187 8.2253C84.2206 11.2688 85.3061 14.8471 85.3061 18.5075C85.3005 23.4143 83.3488 28.1185 79.8792 31.5882C76.4096 35.0578 71.7053 37.0095 66.7985 37.0151ZM66.7985 0.457958C63.2287 0.457957 59.739 1.51655 56.7707 3.49986C53.8025 5.48317 51.489 8.30213 50.1229 11.6003C48.7568 14.8984 48.3993 18.5275 49.0958 22.0288C49.7922 25.5301 51.5113 28.7462 54.0356 31.2705C56.5598 33.7948 59.776 35.5138 63.2772 36.2103C66.7785 36.9067 70.4077 36.5493 73.7058 35.1832C77.0039 33.817 79.8229 31.5036 81.8062 28.5353C83.7895 25.5671 84.8481 22.0774 84.8481 18.5075C84.8427 13.7222 82.9393 9.13433 79.5555 5.75055C76.1718 2.36678 71.5839 0.463386 66.7985 0.457958Z" fill="#3F3D56"/>
<path d="M147.05 80.7929L144.746 76.7998C141.762 77.1787 136.017 80.9871 136.017 80.9871L124.905 84.026C124.564 83.9174 124.201 83.9003 123.851 83.9767C123.502 84.053 123.179 84.22 122.914 84.4608C122.65 84.7017 122.454 85.0078 122.346 85.3486C122.237 85.6893 122.221 86.0525 122.297 86.4016C122.374 86.7508 122.542 87.0736 122.783 87.3375C123.024 87.6014 123.331 87.7972 123.672 87.905C124.013 88.0128 124.376 88.029 124.726 87.9518C125.075 87.8747 125.398 87.7069 125.661 87.4654L139.914 85.6073L147.05 80.7929Z" fill="#9E616A"/>
<path d="M146.458 81.5998L151.79 77.1043L152.566 73.4858C152.716 72.7748 152.665 72.0359 152.419 71.3525C152.174 70.6691 151.743 70.0685 151.176 69.6185C150.403 69.0137 149.432 68.7267 148.457 68.8157C147.482 68.9046 146.577 69.3628 145.925 70.0976C143.95 72.3276 141.728 75.4074 142.36 77.4158L142.366 77.4361L146.458 81.5998Z" fill="#3F3D56"/>
<path d="M34.6984 64.0215L34.2442 57.7044C31.269 56.2171 27.9758 55.4786 24.6504 55.553C29.3287 59.1691 28.954 66.3967 32.194 71.343C33.2163 72.878 34.571 74.1632 36.1576 75.1035C37.7442 76.0437 39.522 76.6149 41.3593 76.7747L45.2529 79.0146C45.6982 76.0709 45.5002 73.0656 44.6722 70.2058C43.8443 67.346 42.4063 64.6997 40.4571 62.4492C39.3512 61.1975 38.092 60.0901 36.7093 59.153C35.8583 61.5964 34.6984 64.0215 34.6984 64.0215Z" fill="#F2F2F2"/>
<path d="M48.134 97.6372C58.229 97.6372 66.4126 89.4536 66.4126 79.3587C66.4126 69.2637 58.229 61.0801 48.134 61.0801C38.0391 61.0801 29.8555 69.2637 29.8555 79.3587C29.8555 89.4536 38.0391 97.6372 48.134 97.6372Z" fill="white"/>
<path d="M39.662 73.4132C40.4178 71.0044 42.1365 68.7952 44.5135 67.9809C46.8906 67.1666 50.3713 68.407 52.1584 70.1881C55.4273 73.4459 56.225 84.6377 53.9792 88.1745C53.5324 88.1508 51.991 88.1333 51.5389 88.1164L50.8993 85.9847V88.0954C50.179 88.0731 49.4531 88.0578 48.7215 88.0493C46.2687 88.0189 43.9233 87.0387 42.1782 85.3148C40.4331 83.5909 39.4244 81.2575 39.3641 78.8053C39.3056 76.4593 39.3641 74.3624 39.662 73.4132Z" fill="#2F2E41"/>
<path d="M47.8636 81.3961C50.7406 81.3961 53.0728 79.0638 53.0728 76.1868C53.0728 73.3098 50.7406 70.9775 47.8636 70.9775C44.9866 70.9775 42.6543 73.3098 42.6543 76.1868C42.6543 79.0638 44.9866 81.3961 47.8636 81.3961Z" fill="#9E616A"/>
<path d="M43.3672 71.6117L49.3652 68.6084C50.5914 69.161 51.6475 70.0315 52.4239 71.1298C53.2003 72.2281 53.6687 73.5141 53.7806 74.8544L53.9301 76.6452L51.4185 76.0058L51.1433 73.716L50.7168 75.8272L49.5577 75.5323L49.5687 71.9773L48.4089 75.5298L44.269 74.5786L43.3672 71.6117Z" fill="#2F2E41"/>
<path d="M61.6979 91.4547C58.5312 95.058 54.0746 97.2714 49.29 97.6172C44.5055 97.9629 39.7769 96.4133 36.125 93.3029L37.6928 88.9282C38.0471 88.1512 38.6062 87.4853 39.3102 87.0019C40.0141 86.5185 40.8364 86.2358 41.6888 86.1842L42.6862 86.123L45.0645 84.0718C45.0645 84.0718 51.4726 83.843 51.3776 83.7334L55.2592 86.0682L55.256 86.0521L56.7819 86.1455C57.6343 86.1969 58.4567 86.4795 59.1607 86.9629C59.8647 87.4464 60.4238 88.1124 60.7779 88.8896L61.6979 91.4547Z" fill="#B01873"/>
<path d="M48.1345 97.8656C44.474 97.8656 40.8958 96.7802 37.8523 94.7466C34.8087 92.7129 32.4366 89.8224 31.0358 86.4406C29.635 83.0588 29.2685 79.3376 29.9826 75.7475C30.6967 72.1574 32.4594 68.8596 35.0477 66.2713C37.636 63.683 40.9337 61.9203 44.5238 61.2062C48.114 60.4921 51.8352 60.8586 55.217 62.2594C58.5988 63.6602 61.4893 66.0323 63.5229 69.0759C65.5566 72.1194 66.642 75.6977 66.642 79.3581C66.6364 84.2649 64.6848 88.9691 61.2151 92.4388C57.7455 95.9084 53.0413 97.8601 48.1345 97.8656ZM48.1345 61.3085C44.5646 61.3085 41.0749 62.3671 38.1067 64.3504C35.1384 66.3338 32.825 69.1527 31.4589 72.4508C30.0927 75.749 29.7353 79.3781 30.4317 82.8794C31.1282 86.3807 32.8472 89.5968 35.3715 92.1211C37.8958 94.6454 41.1119 96.3644 44.6132 97.0609C48.1145 97.7573 51.7436 97.3999 55.0418 96.0337C58.3399 94.6676 61.1588 92.3542 63.1422 89.3859C65.1255 86.4177 66.1841 82.928 66.1841 79.3581C66.1786 74.5727 64.2752 69.9849 60.8915 66.6011C57.5077 63.2174 52.9199 61.314 48.1345 61.3085Z" fill="#3F3D56"/>
<path d="M75.6534 116.897H52.3746C51.7507 116.897 51.1526 116.648 50.7115 116.207C50.2703 115.766 50.0222 115.168 50.0215 114.544V100.207C50.0222 99.5828 50.2703 98.9847 50.7115 98.5435C51.1526 98.1024 51.7507 97.8542 52.3746 97.8535H75.6534C76.2772 97.8542 76.8754 98.1024 77.3165 98.5435C77.7576 98.9847 78.0058 99.5828 78.0065 100.207V114.544C78.0058 115.168 77.7577 115.766 77.3165 116.207C76.8754 116.648 76.2772 116.897 75.6534 116.897Z" fill="#E6E6E6"/>
<path d="M66.4039 115.05H54.0105C53.4262 115.05 52.8661 114.817 52.4529 114.404C52.0397 113.991 51.8073 113.431 51.8066 112.847V101.904C51.8073 101.32 52.0397 100.76 52.4529 100.346C52.8661 99.9332 53.4262 99.7008 54.0105 99.7002H74.0167C74.6009 99.7008 75.1611 99.9332 75.5743 100.346C75.9874 100.76 76.2198 101.32 76.2204 101.904V105.234C76.2175 107.837 75.1823 110.332 73.342 112.172C71.5017 114.012 69.0065 115.048 66.4039 115.05Z" fill="white"/>
<path d="M72.0213 105.692H56.0067C55.8681 105.692 55.7353 105.637 55.6374 105.539C55.5394 105.441 55.4844 105.308 55.4844 105.17C55.4844 105.031 55.5394 104.898 55.6374 104.8C55.7353 104.702 55.8681 104.647 56.0067 104.647H72.0213C72.1598 104.647 72.2927 104.702 72.3906 104.8C72.4886 104.898 72.5436 105.031 72.5436 105.17C72.5436 105.308 72.4886 105.441 72.3906 105.539C72.2927 105.637 72.1598 105.692 72.0213 105.692Z" fill="#B01873"/>
<path d="M58.5118 107.756H56.0067C55.8682 107.756 55.7353 107.701 55.6374 107.603C55.5394 107.505 55.4844 107.372 55.4844 107.233C55.4844 107.095 55.5394 106.962 55.6374 106.864C55.7353 106.766 55.8682 106.711 56.0067 106.711H58.5118C58.6503 106.711 58.7832 106.766 58.8811 106.864C58.9791 106.962 59.0341 107.095 59.0341 107.233C59.0341 107.372 58.9791 107.505 58.8811 107.603C58.7832 107.701 58.6503 107.756 58.5118 107.756Z" fill="#B01873"/>
<path d="M62.9495 109.82H56.0076C55.8692 109.82 55.7366 109.765 55.6389 109.667C55.5412 109.569 55.4863 109.436 55.4863 109.298C55.4863 109.159 55.5412 109.027 55.6389 108.929C55.7366 108.831 55.8692 108.776 56.0076 108.775H62.9495C63.0879 108.776 63.2204 108.831 63.3181 108.929C63.4159 109.027 63.4707 109.159 63.4707 109.298C63.4707 109.436 63.4159 109.569 63.3181 109.667C63.2204 109.765 63.0879 109.82 62.9495 109.82Z" fill="#B01873"/>
<path d="M49.2095 102.492C51.9292 102.492 54.1339 100.288 54.1339 97.5679C54.1339 94.8483 51.9292 92.6436 49.2095 92.6436C46.4899 92.6436 44.2852 94.8483 44.2852 97.5679C44.2852 100.288 46.4899 102.492 49.2095 102.492Z" fill="#3F3D56"/>
<path d="M112.103 19.868H88.8238C88.1999 19.8673 87.6018 19.6192 87.1607 19.178C86.7195 18.7369 86.4714 18.1388 86.4707 17.5149V3.17735C86.4714 2.55348 86.7195 1.95536 87.1607 1.51422C87.6018 1.07307 88.1999 0.824926 88.8238 0.824219H112.103C112.726 0.824924 113.325 1.07307 113.766 1.51421C114.207 1.95536 114.455 2.55347 114.456 3.17735V17.5149C114.455 18.1388 114.207 18.7369 113.766 19.178C113.325 19.6192 112.726 19.8673 112.103 19.868Z" fill="#E6E6E6"/>
<path d="M102.855 18.0212H90.4617C89.8774 18.0205 89.3172 17.7881 88.9041 17.375C88.4909 16.9619 88.2585 16.4017 88.2578 15.8174V4.87467C88.2585 4.29038 88.4909 3.73022 88.9041 3.31707C89.3172 2.90393 89.8774 2.67154 90.4617 2.6709H110.468C111.052 2.67155 111.612 2.90394 112.025 3.31709C112.439 3.73023 112.671 4.29039 112.672 4.87467V8.20476C112.669 10.8074 111.633 13.3025 109.793 15.1428C107.953 16.9831 105.458 18.0182 102.855 18.0212Z" fill="white"/>
<path d="M108.471 8.66275H92.4559C92.3174 8.66275 92.1845 8.60772 92.0866 8.50977C91.9886 8.41182 91.9336 8.27897 91.9336 8.14045C91.9336 8.00193 91.9886 7.86909 92.0866 7.77114C92.1845 7.67319 92.3174 7.61816 92.4559 7.61816H108.471C108.609 7.61816 108.742 7.67319 108.84 7.77114C108.938 7.86909 108.993 8.00193 108.993 8.14045C108.993 8.27897 108.938 8.41182 108.84 8.50977C108.742 8.60772 108.609 8.66275 108.471 8.66275Z" fill="#B01873"/>
<path d="M94.961 10.7272H92.4559C92.3174 10.7272 92.1845 10.6722 92.0866 10.5743C91.9886 10.4763 91.9336 10.3435 91.9336 10.2049C91.9336 10.0664 91.9886 9.93355 92.0866 9.8356C92.1845 9.73765 92.3174 9.68262 92.4559 9.68262H94.961C95.0995 9.68262 95.2324 9.73765 95.3303 9.8356C95.4283 9.93355 95.4833 10.0664 95.4833 10.2049C95.4833 10.3435 95.4283 10.4763 95.3303 10.5743C95.2324 10.6722 95.0995 10.7272 94.961 10.7272Z" fill="#B01873"/>
<path d="M99.3987 12.7907H92.4568C92.3184 12.7904 92.1858 12.7353 92.0881 12.6374C91.9904 12.5394 91.9355 12.4067 91.9355 12.2684C91.9355 12.1301 91.9904 11.9974 92.0881 11.8995C92.1858 11.8015 92.3184 11.7464 92.4568 11.7461H99.3987C99.5373 11.7461 99.6701 11.8011 99.7681 11.8991C99.866 11.997 99.921 12.1299 99.921 12.2684C99.921 12.4069 99.866 12.5398 99.7681 12.6377C99.6701 12.7357 99.5373 12.7907 99.3987 12.7907Z" fill="#B01873"/>
<path d="M85.6588 22.6359C88.3784 22.6359 90.5831 20.4311 90.5831 17.7115C90.5831 14.9918 88.3784 12.7871 85.6588 12.7871C82.9391 12.7871 80.7344 14.9918 80.7344 17.7115C80.7344 20.4311 82.9391 22.6359 85.6588 22.6359Z" fill="#3F3D56"/>
</g>
<defs>
<clipPath id="clip0_691_63545">
<rect width="184.699" height="160" fill="white" transform="translate(0.650391)"/>
</clipPath>
</defs>
</svg>
