<svg width="25" height="24" viewBox="0 0 25 24" fill="none" xmlns="http://www.w3.org/2000/svg">
<mask id="mask0_94_571" style="mask-type:alpha" maskUnits="userSpaceOnUse" x="0" y="0" width="25" height="24">
<rect x="0.682007" width="24" height="24" fill="#D9D9D9"/>
</mask>
<g mask="url(#mask0_94_571)">
<path d="M4.68201 14C4.68201 12.25 5.09867 10.6917 5.93201 9.325C6.76534 7.95833 7.68201 6.80833 8.68201 5.875C9.68201 4.94167 10.5987 4.22917 11.432 3.7375L12.682 3V6.3C12.682 6.91667 12.8903 7.40417 13.307 7.7625C13.7237 8.12083 14.1903 8.3 14.707 8.3C14.9903 8.3 15.2612 8.24167 15.5195 8.125C15.7778 8.00833 16.0153 7.81667 16.232 7.55L16.682 7C17.882 7.7 18.8487 8.67083 19.582 9.9125C20.3153 11.1542 20.682 12.5167 20.682 14C20.682 15.4667 20.3237 16.8042 19.607 18.0125C18.8903 19.2208 17.9487 20.175 16.782 20.875C17.0653 20.475 17.2862 20.0375 17.4445 19.5625C17.6028 19.0875 17.682 18.5833 17.682 18.05C17.682 17.3833 17.557 16.7542 17.307 16.1625C17.057 15.5708 16.6987 15.0417 16.232 14.575L12.682 11.1L9.15701 14.575C8.67367 15.0583 8.30701 15.5917 8.05701 16.175C7.80701 16.7583 7.68201 17.3833 7.68201 18.05C7.68201 18.5833 7.76117 19.0875 7.91951 19.5625C8.07784 20.0375 8.29867 20.475 8.58201 20.875C7.41534 20.175 6.47367 19.2208 5.75701 18.0125C5.04034 16.8042 4.68201 15.4667 4.68201 14ZM12.682 13.9L14.807 15.975C15.0903 16.2583 15.307 16.575 15.457 16.925C15.607 17.275 15.682 17.65 15.682 18.05C15.682 18.8667 15.3903 19.5625 14.807 20.1375C14.2237 20.7125 13.5153 21 12.682 21C11.8487 21 11.1403 20.7125 10.557 20.1375C9.97367 19.5625 9.68201 18.8667 9.68201 18.05C9.68201 17.6667 9.75701 17.2958 9.90701 16.9375C10.057 16.5792 10.2737 16.2583 10.557 15.975L12.682 13.9Z" fill="white"/>
</g>
</svg>
