<svg width="29" height="24" viewBox="0 0 29 24" fill="none" xmlns="http://www.w3.org/2000/svg">
<mask id="mask0_94_561" style="mask-type:alpha" maskUnits="userSpaceOnUse" x="0" y="0" width="25" height="24">
<rect x="0.317383" width="24" height="24" fill="#D9D9D9"/>
</mask>
<g mask="url(#mask0_94_561)">
<path d="M12.3174 20.3254C12.084 20.3254 11.8465 20.2837 11.6049 20.2004C11.3632 20.1171 11.1507 19.9837 10.9674 19.8004L9.24238 18.2254C7.47572 16.6087 5.87988 15.0046 4.45488 13.4129C3.02988 11.8212 2.31738 10.0671 2.31738 8.15039C2.31738 6.58372 2.84238 5.27539 3.89238 4.22539C4.94238 3.17539 6.25072 2.65039 7.81738 2.65039C8.70072 2.65039 9.53405 2.83789 10.3174 3.21289C11.1007 3.58789 11.7674 4.10039 12.3174 4.75039C12.8674 4.10039 13.534 3.58789 14.3174 3.21289C15.1007 2.83789 15.934 2.65039 16.8174 2.65039C18.3841 2.65039 19.6924 3.17539 20.7424 4.22539C21.7924 5.27539 22.3174 6.58372 22.3174 8.15039C22.3174 10.0671 21.609 11.8254 20.1924 13.4254C18.7757 15.0254 17.1674 16.6337 15.3674 18.2504L13.6674 19.8004C13.484 19.9837 13.2716 20.1171 13.0299 20.2004C12.7882 20.2837 12.5507 20.3254 12.3174 20.3254Z" fill="white"/>
</g>
<mask id="mask1_94_561" style="mask-type:alpha" maskUnits="userSpaceOnUse" x="14" y="4" width="15" height="16">
<rect x="14.6875" y="4.80566" width="14" height="14" transform="rotate(1.61054 14.6875 4.80566)" fill="#D9D9D9"/>
</mask>
<g mask="url(#mask1_94_561)">
<path d="M21.339 17.2477L20.5148 16.4659C19.5581 15.5539 18.7681 14.7682 18.1447 14.1087C17.5214 13.4493 17.0273 12.8591 16.6627 12.3383C16.298 11.8174 16.0463 11.341 15.9077 10.9092C15.7691 10.4773 15.7061 10.0379 15.7187 9.59086C15.7444 8.67733 16.0719 7.92304 16.7014 7.328C17.3309 6.73295 18.1024 6.44828 19.0159 6.47396C19.5213 6.48817 19.9993 6.6086 20.4501 6.83524C20.9008 7.06189 21.2859 7.37423 21.6054 7.77225C21.9468 7.39281 22.3489 7.10261 22.8116 6.90164C23.2744 6.70068 23.7585 6.60731 24.2638 6.62151C25.1774 6.6472 25.9316 6.97478 26.5267 7.60425C27.1217 8.23372 27.4064 9.00522 27.3807 9.91875C27.3682 10.3658 27.2805 10.801 27.1179 11.2244C26.9552 11.6478 26.6772 12.1092 26.2839 12.6088C25.8905 13.1083 25.3641 13.6698 24.7046 14.2932C24.0452 14.9166 23.2123 15.6566 22.2058 16.5134L21.339 17.2477Z" fill="white" stroke="#5E1B73" stroke-width="2"/>
</g>
</svg>
