<svg width="264" height="212" viewBox="0 0 264 212" fill="none" xmlns="http://www.w3.org/2000/svg">
<rect width="264" height="212" fill="white"/>
<path d="M38.3296 21.0378C38.3683 21.965 38.0808 22.751 37.4671 23.3958C36.8636 24.0295 35.9118 24.3734 34.6116 24.4276L32.4695 24.5169L32.6634 29.1689L31.2087 29.2296L30.7441 18.0872L34.341 17.9373C35.5986 17.8849 36.5651 18.1488 37.2405 18.7292C37.9266 19.3091 38.2896 20.0787 38.3296 21.0378ZM34.5616 23.2287C35.3716 23.1949 35.9611 22.9942 36.3301 22.6265C36.6991 22.2588 36.87 21.7499 36.8429 21.0998C36.7856 19.725 35.9683 19.0705 34.391 19.1362L32.2489 19.2255L32.4195 23.318L34.5616 23.2287Z" fill="#B01873"/>
<path d="M39.7388 24.4541C39.7014 23.5589 39.85 22.768 40.1843 22.0815C40.5182 21.3843 40.9918 20.8361 41.6051 20.4369C42.229 20.0372 42.9299 19.8212 43.7079 19.7887C44.4752 19.7567 45.1482 19.8942 45.7268 20.201C46.3054 20.5078 46.7437 20.9059 47.0417 21.3953L46.9751 19.7967L48.4458 19.7353L48.811 28.4957L47.3403 28.557L47.2723 26.9265C47.0059 27.45 46.592 27.8943 46.0307 28.2593C45.4797 28.6133 44.8258 28.806 44.0691 28.8375C43.2911 28.87 42.5797 28.7075 41.935 28.35C41.2902 27.9926 40.7722 27.475 40.3809 26.7974C39.9897 26.1198 39.7756 25.3387 39.7388 24.4541ZM47.157 24.1609C47.1294 23.5001 46.9722 22.9302 46.6854 22.451C46.3985 21.9719 46.0206 21.614 45.5517 21.3773C45.0929 21.1295 44.5918 21.017 44.0483 21.0396C43.5048 21.0623 43.0145 21.2108 42.5776 21.4853C42.1406 21.7597 41.7992 22.1476 41.5532 22.649C41.3072 23.1503 41.1979 23.7314 41.2255 24.3921C41.2535 25.0635 41.4111 25.6441 41.6984 26.1339C41.9853 26.6131 42.3581 26.9765 42.8168 27.2243C43.2751 27.4614 43.776 27.5686 44.3195 27.546C44.8631 27.5233 45.3533 27.3748 45.7902 27.1003C46.2374 26.8148 46.584 26.4214 46.83 25.92C47.0755 25.408 47.1845 24.8216 47.157 24.1609Z" fill="#B01873"/>
<path d="M54.3767 28.4078C53.7052 28.4358 53.0984 28.349 52.5562 28.1474C52.0136 27.9352 51.5793 27.633 51.2533 27.2409C50.9269 26.8382 50.7367 26.371 50.6825 25.8395L52.1852 25.7768C52.246 26.212 52.4634 26.5606 52.8373 26.8226C53.2219 27.0841 53.7125 27.2024 54.3094 27.1776C54.8635 27.1545 55.2954 27.0137 55.6049 26.7552C55.9144 26.4968 56.0614 26.1811 56.0458 25.808C56.0298 25.4244 55.8475 25.1491 55.4989 24.9821C55.1499 24.8045 54.6146 24.64 53.893 24.4886C53.2358 24.3452 52.6958 24.1969 52.2731 24.0437C51.8605 23.8794 51.4979 23.6329 51.1853 23.3043C50.8829 22.9646 50.7199 22.5124 50.6964 21.9475C50.6777 21.4999 50.7938 21.084 51.0447 20.6999C51.2956 20.3158 51.6617 20.007 52.1431 19.7734C52.624 19.5291 53.1788 19.3939 53.8076 19.3677C54.7774 19.3273 55.571 19.5397 56.1882 20.0051C56.8055 20.4704 57.1532 21.1285 57.2314 21.9793L55.7766 22.04C55.7256 21.5831 55.5237 21.2231 55.1711 20.9603C54.8292 20.697 54.3758 20.5771 53.811 20.6006C53.2888 20.6224 52.8778 20.7516 52.5781 20.9883C52.2783 21.225 52.136 21.5245 52.1511 21.8869C52.1631 22.1746 52.2637 22.4106 52.4529 22.5949C52.6523 22.7681 52.8929 22.9075 53.1749 23.0132C53.4671 23.1078 53.8665 23.2139 54.3732 23.3316C55.0091 23.4759 55.5278 23.6251 55.9292 23.7791C56.3302 23.9226 56.6761 24.1537 56.967 24.4725C57.2685 24.7909 57.4357 25.2163 57.4686 25.7487C57.4886 26.2283 57.3734 26.6655 57.1229 27.0603C56.8725 27.455 56.5068 27.7746 56.0259 28.0188C55.5552 28.2519 55.0054 28.3816 54.3767 28.4078Z" fill="#B01873"/>
<path d="M62.7288 28.0596C62.0574 28.0876 61.4506 28.0008 60.9084 27.7992C60.3657 27.587 59.9314 27.2848 59.6055 26.8927C59.2791 26.49 59.0888 26.0228 59.0346 25.4913L60.5373 25.4286C60.5981 25.8638 60.8155 26.2124 61.1894 26.4744C61.574 26.7359 62.0647 26.8543 62.6615 26.8294C63.2157 26.8063 63.6475 26.6655 63.957 26.407C64.2665 26.1486 64.4135 25.8329 64.3979 25.4599C64.3819 25.0762 64.1997 24.8009 63.8511 24.6339C63.502 24.4563 62.9667 24.2918 62.2451 24.1404C61.5879 23.997 61.0479 23.8487 60.6252 23.6955C60.2126 23.5312 59.8501 23.2847 59.5374 22.9561C59.235 22.6164 59.072 22.1642 59.0485 21.5993C59.0298 21.1517 59.1459 20.7359 59.3968 20.3517C59.6477 19.9676 60.0138 19.6588 60.4952 19.4252C60.9761 19.1809 61.5309 19.0457 62.1597 19.0195C63.1296 18.9791 63.9231 19.1915 64.5404 19.6569C65.1576 20.1222 65.5053 20.7803 65.5835 21.6312L64.1288 21.6918C64.0777 21.2349 63.8758 20.875 63.5233 20.6121C63.1813 20.3488 62.7279 20.2289 62.1631 20.2524C61.6409 20.2742 61.2299 20.4034 60.9302 20.6401C60.6304 20.8768 60.4881 21.1763 60.5032 21.5387C60.5152 21.8264 60.6158 22.0624 60.805 22.2467C61.0044 22.4199 61.2451 22.5593 61.527 22.665C61.8192 22.7596 62.2187 22.8657 62.7253 22.9834C63.3612 23.1277 63.8799 23.2769 64.2813 23.431C64.6823 23.5744 65.0282 23.8055 65.3191 24.1243C65.6206 24.4427 65.7878 24.8681 65.8207 25.4005C65.8407 25.8801 65.7255 26.3173 65.475 26.7121C65.2246 27.1069 64.8589 27.4264 64.378 27.6706C63.9073 27.9037 63.3576 28.0334 62.7288 28.0596Z" fill="#B01873"/>
<path d="M68.3004 17.4824C68.0233 17.4939 67.7849 17.4078 67.585 17.224C67.3852 17.0401 67.2795 16.8097 67.268 16.5326C67.2564 16.2555 67.3425 16.017 67.5264 15.8172C67.7102 15.6173 67.9407 15.5117 68.2178 15.5001C68.4842 15.489 68.712 15.5756 68.9012 15.7599C69.101 15.9437 69.2067 16.1742 69.2183 16.4513C69.2298 16.7284 69.1437 16.9668 68.9598 17.1666C68.7867 17.366 68.5669 17.4713 68.3004 17.4824ZM69.0631 18.8758L69.4283 27.6362L67.9736 27.6969L67.6084 18.9365L69.0631 18.8758Z" fill="#B01873"/>
<path d="M75.7344 27.5174C74.9137 27.5517 74.1599 27.3963 73.473 27.0512C72.7967 26.7058 72.2525 26.2 71.8404 25.5339C71.4385 24.8567 71.2186 24.0652 71.1809 23.1593C71.1436 22.2641 71.3025 21.4675 71.6577 20.7694C72.0232 20.0602 72.5341 19.5105 73.1904 19.1201C73.8462 18.7191 74.5898 18.5013 75.4211 18.4666C76.2524 18.432 77.0115 18.5872 77.6985 18.9322C78.385 19.2665 78.9343 19.7668 79.3464 20.4328C79.7692 21.0985 79.9994 21.8842 80.0372 22.7901C80.0749 23.696 79.9058 24.5037 79.5297 25.2134C79.1638 25.9119 78.6476 26.4619 77.9811 26.8633C77.3145 27.2647 76.5656 27.4828 75.7344 27.5174ZM75.681 26.2386C76.2033 26.2168 76.6884 26.0738 77.1364 25.8096C77.5845 25.5453 77.9368 25.1623 78.1935 24.6605C78.4608 24.1583 78.5798 23.5555 78.5505 22.8521C78.5212 22.1487 78.3577 21.5577 78.0602 21.079C77.7627 20.6003 77.3852 20.253 76.9278 20.0372C76.47 19.8108 75.98 19.7084 75.4578 19.7302C74.9249 19.7524 74.4398 19.8954 74.0024 20.1592C73.5752 20.4119 73.2386 20.7889 72.9926 21.2902C72.7466 21.7916 72.6383 22.394 72.6676 23.0974C72.6974 23.8114 72.8503 24.4082 73.1266 24.8878C73.4134 25.3669 73.7805 25.7199 74.2276 25.9468C74.6744 26.1631 75.1588 26.2603 75.681 26.2386Z" fill="#B01873"/>
<path d="M86.0296 18.0084C87.0953 17.9639 87.9721 18.253 88.66 18.8756C89.3474 19.4875 89.7164 20.4009 89.7671 21.6158L89.9824 26.7793L88.5436 26.8393L88.337 21.8836C88.3006 21.0097 88.0543 20.3527 87.5983 19.9127C87.1418 19.462 86.5352 19.2524 85.7785 19.2839C85.0112 19.3159 84.4084 19.5813 83.9701 20.08C83.5425 20.5782 83.3478 21.2856 83.386 22.2021L83.5879 27.0459L82.1332 27.1066L81.768 18.3462L83.2227 18.2855L83.2747 19.5324C83.5438 19.0728 83.9183 18.7103 84.3983 18.4447C84.889 18.1787 85.4328 18.0333 86.0296 18.0084Z" fill="#B01873"/>
<path d="M91.6312 22.2908C91.5939 21.3955 91.7424 20.6047 92.0768 19.9181C92.4107 19.221 92.8842 18.6728 93.4975 18.2735C94.1214 17.8739 94.8223 17.6578 95.6003 17.6254C96.3676 17.5934 97.0406 17.7308 97.6192 18.0377C98.1979 18.3445 98.6362 18.7426 98.9341 19.2319L98.8675 17.6333L100.338 17.572L100.703 26.3324L99.2327 26.3937L99.1647 24.7631C98.8983 25.2867 98.4844 25.731 97.9232 26.096C97.3721 26.4499 96.7182 26.6427 95.9615 26.6742C95.1835 26.7066 94.4722 26.5441 93.8274 26.1867C93.1826 25.8292 92.6646 25.3117 92.2734 24.6341C91.8821 23.9564 91.6681 23.1753 91.6312 22.2908ZM99.0494 21.9975C99.0219 21.3368 98.8647 20.7668 98.5778 20.2877C98.2909 19.8085 97.913 19.4506 97.4441 19.214C96.9854 18.9662 96.4842 18.8536 95.9407 18.8763C95.3972 18.899 94.9069 19.0475 94.47 19.3219C94.0331 19.5964 93.6916 19.9843 93.4456 20.4856C93.1996 20.987 93.0904 21.568 93.1179 22.2288C93.1459 22.9002 93.3035 23.4808 93.5909 23.9706C93.8777 24.4497 94.2505 24.8132 94.7093 25.061C95.1675 25.2981 95.6684 25.4053 96.212 25.3826C96.7555 25.36 97.2457 25.2114 97.6827 24.937C98.1298 24.6515 98.4764 24.258 98.7224 23.7567C98.968 23.2447 99.077 22.6583 99.0494 21.9975Z" fill="#B01873"/>
<path d="M104.621 18.5945L104.836 23.758C104.854 24.1843 104.957 24.4843 105.146 24.6579C105.334 24.8209 105.652 24.893 106.1 24.8743L107.171 24.8297L107.222 26.0606L105.911 26.1153C105.101 26.149 104.486 25.9879 104.066 25.6317C103.645 25.2756 103.417 24.6713 103.382 23.8187L103.166 18.6551L102.031 18.7025L101.981 17.5035L103.116 17.4562L103.024 15.2501L104.479 15.1895L104.571 17.3955L106.857 17.3002L106.907 18.4992L104.621 18.5945Z" fill="#B01873"/>
<path d="M116.781 20.938C116.793 21.2151 116.789 21.5089 116.77 21.8193L109.768 22.1112C109.857 22.9722 110.179 23.6367 110.732 24.1047C111.295 24.5617 111.961 24.7741 112.728 24.7421C113.357 24.7159 113.873 24.5503 114.277 24.2452C114.691 23.929 114.973 23.5223 115.123 23.0249L116.689 22.9596C116.49 23.8113 116.05 24.5183 115.369 25.0805C114.687 25.632 113.824 25.9295 112.78 25.9731C111.948 26.0077 111.194 25.8523 110.518 25.5069C109.853 25.161 109.319 24.6547 108.918 23.9882C108.516 23.311 108.296 22.5195 108.258 21.6136C108.22 20.7077 108.368 19.9062 108.702 19.209C109.036 18.5119 109.521 17.9685 110.156 17.5791C110.801 17.1785 111.55 16.9605 112.402 16.9249C113.234 16.8903 113.977 17.0408 114.631 17.3765C115.286 17.7122 115.797 18.1926 116.164 18.8179C116.542 19.432 116.748 20.1387 116.781 20.938ZM115.266 20.6969C115.243 20.1427 115.101 19.6736 114.839 19.2895C114.577 18.8947 114.229 18.605 113.794 18.4203C113.369 18.2245 112.901 18.1372 112.39 18.1585C111.654 18.1892 111.035 18.4499 110.533 18.9406C110.041 19.4308 109.775 20.0931 109.735 20.9275L115.266 20.6969Z" fill="#B01873"/>
<path d="M130.34 16.3212L125.602 29.426L124.099 29.4886L125.65 25.1963L121.756 16.6791L123.37 16.6118L126.416 23.595L128.838 16.3839L130.34 16.3212Z" fill="#B01873"/>
<path d="M135.995 25.0053C135.174 25.0395 134.42 24.8841 133.733 24.5391C133.057 24.1936 132.513 23.6878 132.101 23.0217C131.699 22.3446 131.479 21.553 131.441 20.6471C131.404 19.7519 131.563 18.9553 131.918 18.2572C132.283 17.548 132.794 16.9983 133.451 16.6079C134.106 16.2069 134.85 15.9891 135.681 15.9545C136.513 15.9198 137.272 16.075 137.959 16.42C138.645 16.7544 139.194 17.2546 139.607 17.9207C140.029 18.5863 140.26 19.3721 140.297 20.2779C140.335 21.1838 140.166 21.9916 139.79 22.7012C139.424 23.3997 138.908 23.9497 138.241 24.3511C137.575 24.7526 136.826 24.9706 135.995 25.0053ZM135.941 23.7264C136.463 23.7046 136.949 23.5616 137.397 23.2974C137.845 23.0332 138.197 22.6501 138.454 22.1484C138.721 21.6461 138.84 21.0433 138.811 20.3399C138.781 19.6365 138.618 19.0455 138.32 18.5668C138.023 18.0881 137.645 17.7409 137.188 17.5251C136.73 17.2986 136.24 17.1963 135.718 17.218C135.185 17.2402 134.7 17.3832 134.263 17.647C133.835 17.8997 133.499 18.2767 133.253 18.7781C133.007 19.2794 132.898 19.8818 132.928 20.5852C132.958 21.2992 133.111 21.896 133.387 22.3756C133.674 22.8547 134.041 23.2078 134.488 23.4347C134.935 23.6509 135.419 23.7481 135.941 23.7264Z" fill="#B01873"/>
<path d="M149.797 15.5101L150.163 24.2705L148.708 24.3311L148.654 23.0363C148.395 23.4954 148.021 23.8633 147.531 24.14C147.051 24.4056 146.512 24.5508 145.916 24.5757C145.234 24.6041 144.615 24.4911 144.06 24.2367C143.504 23.9716 143.055 23.5633 142.712 23.0117C142.379 22.4598 142.196 21.7788 142.162 20.9689L141.948 15.8373L143.387 15.7773L143.593 20.7171C143.629 21.5803 143.875 22.2373 144.332 22.688C144.788 23.128 145.394 23.3323 146.151 23.3008C146.929 23.2683 147.532 23.003 147.959 22.5047C148.387 22.0065 148.581 21.2991 148.543 20.3826L148.343 15.5707L149.797 15.5101Z" fill="#B01873"/>
<mask id="path-3-inside-1_1374_62834" fill="white">
<path fill-rule="evenodd" clip-rule="evenodd" d="M22.2073 5.47714C17.2386 5.6149 13.3221 9.75447 13.4595 14.7231L13.9296 31.7298C14.067 36.6984 18.2063 40.6147 23.1749 40.4769L74.4192 39.0562L83.0093 47.0387C84.1953 48.1408 86.1311 47.4483 86.3514 45.8432L87.3318 38.6982L160.282 36.6756C165.251 36.5379 169.167 32.3983 169.03 27.4296L168.56 10.423C168.422 5.45431 164.283 1.53809 159.314 1.67584L22.2073 5.47714Z"/>
</mask>
<path d="M13.4595 14.7231L14.4591 14.6955L13.4595 14.7231ZM22.2073 5.47714L22.1796 4.47752L22.1796 4.47752L22.2073 5.47714ZM13.9296 31.7298L14.9293 31.7021L13.9296 31.7298ZM23.1749 40.4769L23.1472 39.4773L23.1472 39.4773L23.1749 40.4769ZM74.4192 39.0562L75.1 38.3236L74.8004 38.0452L74.3915 38.0565L74.4192 39.0562ZM83.0093 47.0387L82.3286 47.7713L82.3286 47.7713L83.0093 47.0387ZM86.3514 45.8432L85.3607 45.7073L85.3607 45.7073L86.3514 45.8432ZM87.3318 38.6982L87.3041 37.6985L86.4564 37.722L86.3411 38.5622L87.3318 38.6982ZM160.282 36.6756L160.31 37.6752L160.31 37.6752L160.282 36.6756ZM169.03 27.4296L168.03 27.4573L168.03 27.4573L169.03 27.4296ZM168.56 10.423L167.56 10.4506L167.56 10.4506L168.56 10.423ZM159.314 1.67584L159.342 2.67546L159.342 2.67546L159.314 1.67584ZM14.4591 14.6955C14.337 10.2789 17.8184 6.59921 22.235 6.47675L22.1796 4.47752C16.6589 4.63058 12.3072 9.23006 12.4598 14.7508L14.4591 14.6955ZM14.9293 31.7021L14.4591 14.6955L12.4598 14.7508L12.93 31.7574L14.9293 31.7021ZM23.1472 39.4773C18.7307 39.5997 15.0514 36.1187 14.9293 31.7021L12.93 31.7574C13.0827 37.2782 17.6819 41.6296 23.2026 41.4765L23.1472 39.4773ZM74.3915 38.0565L23.1472 39.4773L23.2026 41.4765L74.447 40.0558L74.3915 38.0565ZM83.6901 46.3062L75.1 38.3236L73.7385 39.7887L82.3286 47.7713L83.6901 46.3062ZM85.3607 45.7073C85.2502 46.5121 84.2813 46.8557 83.69 46.3062L82.3286 47.7713C84.1092 49.426 87.012 48.3846 87.3421 45.9792L85.3607 45.7073ZM86.3411 38.5622L85.3607 45.7073L87.3421 45.9792L88.3226 38.8341L86.3411 38.5622ZM160.254 35.676L87.3041 37.6985L87.3596 39.6978L160.31 37.6752L160.254 35.676ZM168.03 27.4573C168.152 31.8739 164.671 35.5535 160.254 35.676L160.31 37.6752C165.831 37.5222 170.182 32.9227 170.03 27.402L168.03 27.4573ZM167.56 10.4506L168.03 27.4573L170.03 27.402L169.559 10.3953L167.56 10.4506ZM159.342 2.67546C163.759 2.55301 167.438 6.03405 167.56 10.4506L169.559 10.3953C169.407 4.87457 164.808 0.523164 159.287 0.676227L159.342 2.67546ZM22.235 6.47675L159.342 2.67546L159.287 0.676227L22.1796 4.47752L22.235 6.47675Z" fill="#B01873" mask="url(#path-3-inside-1_1374_62834)"/>
<path d="M252.238 104.007C252.222 103.731 251.985 103.521 251.71 103.537L247.217 103.798C246.942 103.814 246.731 104.051 246.747 104.327C246.763 104.602 247 104.813 247.275 104.797L251.269 104.564L251.501 108.558C251.517 108.833 251.754 109.044 252.029 109.028C252.305 109.012 252.515 108.775 252.499 108.499L252.238 104.007ZM120.863 154.529C121.184 154.535 121.511 154.541 121.842 154.545L121.854 153.545C121.526 153.541 121.202 153.535 120.884 153.529L120.863 154.529ZM123.866 154.554C124.516 154.552 125.181 154.546 125.862 154.534L125.845 153.534C125.169 153.546 124.508 153.552 123.863 153.554L123.866 154.554ZM127.863 154.487C128.525 154.467 129.2 154.443 129.887 154.414L129.845 153.415C129.162 153.444 128.491 153.468 127.833 153.487L127.863 154.487ZM131.872 154.319C132.531 154.284 133.201 154.245 133.88 154.201L133.816 153.204C133.14 153.247 132.475 153.286 131.819 153.321L131.872 154.319ZM135.88 154.063C136.537 154.014 137.202 153.961 137.875 153.904L137.791 152.908C137.121 152.964 136.459 153.017 135.806 153.066L135.88 154.063ZM139.881 153.725C140.536 153.663 141.197 153.597 141.866 153.528L141.762 152.533C141.097 152.602 140.439 152.668 139.787 152.729L139.881 153.725ZM143.871 153.31C144.525 153.236 145.185 153.159 145.85 153.077L145.728 152.085C145.066 152.166 144.409 152.243 143.759 152.317L143.871 153.31ZM147.85 152.823C148.504 152.737 149.162 152.647 149.825 152.554L149.686 151.564C149.026 151.657 148.37 151.746 147.72 151.832L147.85 152.823ZM151.818 152.265C152.471 152.167 153.129 152.066 153.79 151.961L153.634 150.973C152.975 151.078 152.32 151.179 151.67 151.276L151.818 152.265ZM155.774 151.637C156.428 151.528 157.085 151.415 157.745 151.298L157.571 150.314C156.914 150.43 156.26 150.542 155.609 150.651L155.774 151.637ZM159.719 150.941C160.373 150.82 161.029 150.695 161.689 150.567L161.498 149.585C160.841 149.713 160.188 149.837 159.537 149.958L159.719 150.941ZM163.652 150.176C164.306 150.043 164.962 149.906 165.62 149.766L165.412 148.788C164.756 148.928 164.103 149.064 163.453 149.196L163.652 150.176ZM167.572 149.342C168.225 149.197 168.88 149.049 169.537 148.897L169.312 147.922C168.658 148.074 168.005 148.222 167.355 148.366L167.572 149.342ZM171.478 148.439C172.127 148.282 172.777 148.123 173.429 147.959L173.187 146.989C172.537 147.152 171.89 147.311 171.244 147.466L171.478 148.439ZM175.369 147.465C176.013 147.297 176.659 147.126 177.306 146.952L177.046 145.986C176.402 146.16 175.759 146.33 175.117 146.497L175.369 147.465ZM179.242 146.42C179.883 146.241 180.524 146.058 181.166 145.872L180.888 144.911C180.248 145.097 179.61 145.278 178.973 145.457L179.242 146.42ZM183.095 145.303C183.732 145.112 184.369 144.917 185.007 144.719L184.71 143.764C184.075 143.961 183.441 144.155 182.808 144.345L183.095 145.303ZM186.92 144.114C187.555 143.91 188.19 143.703 188.826 143.491L188.51 142.542C187.878 142.753 187.246 142.959 186.614 143.162L186.92 144.114ZM190.723 142.85C191.356 142.633 191.988 142.412 192.621 142.188L192.286 141.245C191.657 141.469 191.028 141.688 190.399 141.905L190.723 142.85ZM194.502 141.509C195.13 141.279 195.757 141.046 196.383 140.809L196.029 139.874C195.406 140.109 194.782 140.342 194.158 140.57L194.502 141.509ZM198.254 140.089C198.876 139.847 199.497 139.6 200.117 139.35L199.743 138.423C199.126 138.672 198.509 138.917 197.891 139.158L198.254 140.089ZM201.976 138.589C202.591 138.333 203.206 138.073 203.82 137.81L203.426 136.891C202.815 137.153 202.204 137.411 201.592 137.666L201.976 138.589ZM205.66 137.008C206.271 136.738 206.88 136.464 207.489 136.186L207.074 135.276C206.469 135.552 205.862 135.825 205.255 136.094L205.66 137.008ZM209.308 135.342C209.913 135.057 210.517 134.769 211.119 134.476L210.683 133.577C210.084 133.867 209.483 134.154 208.882 134.438L209.308 135.342ZM212.917 133.59C213.514 133.29 214.111 132.987 214.705 132.68L214.246 131.792C213.655 132.097 213.063 132.398 212.469 132.696L212.917 133.59ZM216.482 131.748C217.071 131.434 217.66 131.116 218.246 130.794L217.764 129.918C217.182 130.238 216.598 130.554 216.012 130.866L216.482 131.748ZM219.999 129.816C220.581 129.487 221.16 129.153 221.737 128.816L221.233 127.953C220.659 128.288 220.084 128.619 219.507 128.946L219.999 129.816ZM223.463 127.792C224.036 127.446 224.606 127.097 225.174 126.744L224.646 125.894C224.082 126.245 223.515 126.592 222.947 126.935L223.463 127.792ZM226.871 125.672C227.434 125.311 227.994 124.945 228.553 124.575L228 123.742C227.446 124.109 226.889 124.472 226.33 124.83L226.871 125.672ZM230.217 123.455C230.769 123.078 231.319 122.696 231.865 122.31L231.289 121.493C230.746 121.876 230.201 122.255 229.652 122.63L230.217 123.455ZM233.497 121.14C234.037 120.746 234.574 120.347 235.109 119.945L234.507 119.146C233.977 119.546 233.444 119.941 232.908 120.332L233.497 121.14ZM236.704 118.724C237.232 118.313 237.756 117.898 238.278 117.479L237.651 116.7C237.134 117.116 236.613 117.527 236.09 117.935L236.704 118.724ZM239.832 116.208C240.346 115.78 240.858 115.347 241.366 114.91L240.713 114.152C240.21 114.586 239.703 115.014 239.193 115.439L239.832 116.208ZM242.876 113.589C243.376 113.144 243.872 112.694 244.365 112.24L243.688 111.505C243.199 111.955 242.707 112.401 242.211 112.842L242.876 113.589ZM245.83 110.867C246.314 110.405 246.794 109.939 247.27 109.468L246.567 108.757C246.095 109.224 245.619 109.686 245.14 110.144L245.83 110.867ZM248.688 108.042C249.154 107.564 249.617 107.081 250.076 106.594L249.347 105.908C248.893 106.391 248.434 106.87 247.972 107.344L248.688 108.042ZM251.44 105.117C251.665 104.869 251.889 104.619 252.112 104.369L251.365 103.704C251.144 103.952 250.922 104.199 250.699 104.445L251.44 105.117Z" fill="black"/>
<path d="M131.744 124.144L131.92 125.165L129.299 125.619L130.781 134.214L129.526 134.431L128.043 125.836L125.408 126.291L125.232 125.27L131.744 124.144Z" fill="#B01873"/>
<path d="M137.372 125.146C137.942 125.047 138.479 125.082 138.981 125.251C139.482 125.411 139.904 125.712 140.245 126.155C140.596 126.596 140.832 127.167 140.952 127.866L141.721 132.322L140.479 132.537L139.742 128.26C139.612 127.505 139.324 126.963 138.879 126.633C138.432 126.293 137.882 126.18 137.229 126.293C136.567 126.408 136.074 126.706 135.75 127.188C135.435 127.669 135.345 128.305 135.482 129.096L136.203 133.276L134.947 133.493L133.187 123.284L134.442 123.067L135.084 126.792C135.266 126.363 135.555 126.005 135.951 125.719C136.356 125.431 136.829 125.24 137.372 125.146Z" fill="#B01873"/>
<path d="M149.967 126.704C150.008 126.944 150.038 127.199 150.057 127.47L144.014 128.515C144.189 129.252 144.542 129.793 145.075 130.136C145.616 130.469 146.217 130.578 146.879 130.464C147.422 130.37 147.851 130.168 148.167 129.857C148.49 129.536 148.689 129.151 148.763 128.703L150.115 128.469C150.038 129.231 149.736 129.894 149.208 130.459C148.679 131.014 147.964 131.37 147.062 131.526C146.345 131.65 145.673 131.6 145.048 131.377C144.431 131.152 143.911 130.773 143.488 130.24C143.063 129.698 142.783 129.036 142.648 128.254C142.513 127.473 142.551 126.76 142.763 126.118C142.974 125.475 143.333 124.949 143.84 124.539C144.355 124.118 144.98 123.844 145.716 123.717C146.433 123.593 147.095 123.64 147.7 123.857C148.306 124.074 148.804 124.434 149.193 124.934C149.59 125.425 149.848 126.015 149.967 126.704ZM148.625 126.667C148.543 126.188 148.366 125.797 148.096 125.494C147.824 125.181 147.49 124.969 147.092 124.857C146.701 124.736 146.285 124.713 145.844 124.789C145.209 124.899 144.701 125.195 144.321 125.678C143.949 126.159 143.793 126.763 143.852 127.492L148.625 126.667Z" fill="#B01873"/>
<path d="M153.943 121.115L153.746 119.97L156.339 119.522L158.059 129.496L156.79 129.716L155.268 120.886L153.943 121.115Z" fill="#B01873"/>
<path d="M161.142 123.621C160.592 123.508 160.146 123.282 159.804 122.943C159.461 122.605 159.242 122.16 159.147 121.608C159.061 121.111 159.109 120.643 159.289 120.205C159.467 119.757 159.78 119.376 160.228 119.062C160.684 118.737 161.261 118.514 161.96 118.393C162.659 118.272 163.272 118.289 163.801 118.444C164.337 118.588 164.765 118.841 165.083 119.203C165.408 119.554 165.614 119.978 165.7 120.474C165.792 121.008 165.73 121.502 165.515 121.956C165.298 122.4 164.958 122.762 164.494 123.041C165.095 123.118 165.599 123.348 166.006 123.732C166.421 124.105 166.681 124.6 166.787 125.216C166.891 125.814 166.834 126.364 166.617 126.866C166.399 127.358 166.04 127.775 165.54 128.117C165.048 128.449 164.453 128.675 163.754 128.796C163.055 128.917 162.418 128.904 161.843 128.757C161.276 128.599 160.807 128.325 160.437 127.934C160.065 127.535 159.827 127.036 159.724 126.438C159.618 125.822 159.692 125.264 159.947 124.765C160.202 124.267 160.601 123.885 161.142 123.621ZM164.512 120.836C164.415 120.275 164.157 119.875 163.736 119.635C163.316 119.395 162.784 119.331 162.141 119.442C161.506 119.552 161.031 119.79 160.715 120.157C160.4 120.524 160.291 120.993 160.39 121.563C160.478 122.078 160.738 122.46 161.169 122.707C161.609 122.953 162.133 123.024 162.74 122.919C163.356 122.812 163.826 122.57 164.149 122.192C164.48 121.803 164.601 121.351 164.512 120.836ZM162.907 123.884C162.226 124.002 161.697 124.259 161.321 124.656C160.942 125.043 160.808 125.554 160.917 126.189C161.019 126.778 161.307 127.216 161.783 127.503C162.268 127.788 162.865 127.87 163.573 127.747C164.281 127.625 164.811 127.348 165.163 126.918C165.515 126.488 165.64 125.978 165.539 125.39C165.432 124.774 165.14 124.341 164.661 124.092C164.181 123.834 163.596 123.765 162.907 123.884Z" fill="#B01873"/>
<path d="M181.57 117.645L180.515 125.613L179.218 125.837L176.362 120.151L175.576 126.467L174.28 126.691L170.603 119.541L171.886 119.319L174.719 125.365L175.5 118.694L176.783 118.473L179.715 124.515L180.329 117.859L181.57 117.645Z" fill="#B01873"/>
<path d="M190.316 119.727C190.357 119.966 190.387 120.221 190.405 120.493L184.363 121.538C184.537 122.275 184.891 122.815 185.424 123.159C185.964 123.491 186.565 123.601 187.228 123.486C187.77 123.392 188.199 123.19 188.515 122.88C188.839 122.559 189.037 122.174 189.112 121.725L190.464 121.491C190.387 122.253 190.084 122.916 189.557 123.481C189.027 124.037 188.312 124.393 187.411 124.548C186.693 124.672 186.022 124.623 185.396 124.4C184.78 124.175 184.26 123.796 183.836 123.263C183.411 122.721 183.131 122.059 182.997 121.277C182.862 120.495 182.9 119.783 183.111 119.14C183.322 118.497 183.681 117.971 184.188 117.561C184.703 117.141 185.328 116.867 186.064 116.74C186.781 116.616 187.443 116.662 188.049 116.88C188.654 117.097 189.152 117.456 189.542 117.957C189.939 118.447 190.197 119.037 190.316 119.727ZM188.974 119.689C188.891 119.211 188.715 118.82 188.445 118.516C188.173 118.203 187.838 117.991 187.44 117.88C187.049 117.758 186.634 117.735 186.192 117.812C185.558 117.921 185.05 118.217 184.669 118.7C184.297 119.181 184.141 119.786 184.2 120.514L188.974 119.689Z" fill="#B01873"/>
<path d="M198.87 118.248C198.911 118.487 198.941 118.742 198.96 119.013L192.917 120.058C193.092 120.795 193.445 121.336 193.978 121.679C194.519 122.012 195.12 122.121 195.782 122.007C196.325 121.913 196.754 121.711 197.07 121.4C197.393 121.079 197.592 120.694 197.666 120.246L199.018 120.012C198.941 120.774 198.639 121.437 198.111 122.002C197.582 122.557 196.867 122.913 195.965 123.069C195.248 123.193 194.576 123.143 193.951 122.92C193.334 122.695 192.814 122.316 192.391 121.783C191.966 121.241 191.686 120.579 191.551 119.797C191.416 119.016 191.455 118.303 191.666 117.661C191.877 117.018 192.236 116.492 192.743 116.082C193.258 115.661 193.883 115.388 194.619 115.26C195.336 115.136 195.998 115.183 196.603 115.4C197.209 115.617 197.707 115.977 198.096 116.478C198.493 116.968 198.751 117.558 198.87 118.248ZM197.528 118.21C197.446 117.731 197.269 117.34 196.999 117.037C196.727 116.724 196.393 116.512 195.995 116.401C195.604 116.279 195.188 116.256 194.747 116.332C194.112 116.442 193.604 116.738 193.224 117.221C192.852 117.702 192.696 118.307 192.755 119.035L197.528 118.21Z" fill="#B01873"/>
<path d="M205.451 121.301L201.909 118.475L202.485 121.814L201.229 122.031L199.469 111.822L200.724 111.604L201.759 117.606L204.092 113.75L205.844 113.447L202.934 117.829L207.161 121.005L205.451 121.301Z" fill="#B01873"/>
<path d="M132.666 166.351L133.891 173.456C134.028 174.247 133.894 174.924 133.489 175.486C133.082 176.04 132.479 176.386 131.679 176.524C130.869 176.664 130.18 176.537 129.61 176.143C129.038 175.74 128.68 175.12 128.536 174.283L129.791 174.066C129.882 174.533 130.067 174.894 130.348 175.149C130.638 175.402 131.017 175.488 131.486 175.407C131.955 175.325 132.281 175.127 132.463 174.811C132.644 174.486 132.697 174.108 132.622 173.676L131.397 166.57L132.666 166.351Z" fill="#B01873"/>
<path d="M140.116 175.093C139.408 175.216 138.736 175.166 138.102 174.944C137.476 174.721 136.947 174.344 136.514 173.812C136.089 173.27 135.809 172.608 135.674 171.826C135.541 171.054 135.589 170.344 135.819 169.699C136.056 169.042 136.437 168.507 136.963 168.094C137.486 167.672 138.107 167.399 138.824 167.275C139.542 167.151 140.218 167.2 140.853 167.421C141.486 167.634 142.019 168.006 142.452 168.537C142.894 169.067 143.182 169.723 143.317 170.504C143.452 171.286 143.396 172.006 143.15 172.664C142.911 173.312 142.525 173.848 141.992 174.271C141.459 174.695 140.834 174.969 140.116 175.093ZM139.926 173.989C140.376 173.911 140.781 173.732 141.14 173.452C141.499 173.173 141.762 172.8 141.928 172.336C142.103 171.87 142.139 171.333 142.034 170.726C141.929 170.119 141.721 169.625 141.409 169.243C141.097 168.861 140.73 168.603 140.309 168.467C139.886 168.323 139.449 168.289 138.999 168.367C138.539 168.447 138.134 168.626 137.784 168.904C137.442 169.172 137.192 169.537 137.036 170C136.879 170.462 136.852 170.997 136.957 171.604C137.063 172.221 137.263 172.721 137.557 173.106C137.86 173.489 138.218 173.754 138.632 173.901C139.044 174.038 139.475 174.067 139.926 173.989Z" fill="#B01873"/>
<path d="M151.022 165.293L152.326 172.853L151.071 173.07L150.878 171.953C150.706 172.38 150.422 172.742 150.028 173.038C149.642 173.322 149.191 173.509 148.676 173.598C148.087 173.7 147.538 173.672 147.027 173.514C146.516 173.347 146.08 173.043 145.72 172.604C145.369 172.162 145.133 171.592 145.013 170.893L144.249 166.464L145.49 166.25L146.226 170.513C146.354 171.258 146.642 171.8 147.089 172.139C147.534 172.47 148.083 172.578 148.736 172.465C149.407 172.349 149.901 172.051 150.215 171.57C150.53 171.089 150.619 170.454 150.483 169.663L149.767 165.51L151.022 165.293Z" fill="#B01873"/>
<path d="M154.609 165.937C154.755 165.466 155.01 165.077 155.373 164.768C155.746 164.457 156.226 164.251 156.815 164.149L157.039 165.446L156.708 165.503C155.301 165.746 154.729 166.631 154.992 168.158L155.701 172.269L154.446 172.487L153.142 164.926L154.397 164.709L154.609 165.937Z" fill="#B01873"/>
<path d="M161.947 163.261C162.867 163.102 163.66 163.254 164.327 163.716C164.993 164.169 165.416 164.92 165.597 165.969L166.365 170.425L165.124 170.64L164.386 166.363C164.256 165.608 163.968 165.066 163.523 164.736C163.076 164.397 162.526 164.283 161.873 164.396C161.211 164.511 160.718 164.809 160.394 165.291C160.079 165.772 159.99 166.408 160.126 167.199L160.847 171.379L159.592 171.596L158.288 164.036L159.543 163.819L159.729 164.895C159.911 164.466 160.195 164.109 160.581 163.824C160.977 163.538 161.432 163.35 161.947 163.261Z" fill="#B01873"/>
<path d="M174.612 164.807C174.653 165.046 174.683 165.302 174.701 165.573L168.659 166.618C168.833 167.355 169.187 167.896 169.72 168.239C170.26 168.572 170.862 168.681 171.524 168.566C172.066 168.473 172.496 168.27 172.811 167.96C173.135 167.639 173.334 167.254 173.408 166.806L174.76 166.572C174.683 167.333 174.38 167.996 173.853 168.561C173.323 169.117 172.608 169.473 171.707 169.629C170.99 169.753 170.318 169.703 169.692 169.48C169.076 169.255 168.556 168.876 168.132 168.343C167.707 167.801 167.427 167.139 167.293 166.357C167.158 165.575 167.196 164.863 167.407 164.22C167.618 163.578 167.977 163.051 168.484 162.642C168.999 162.221 169.624 161.947 170.36 161.82C171.077 161.696 171.739 161.743 172.345 161.96C172.95 162.177 173.448 162.536 173.838 163.037C174.235 163.527 174.493 164.117 174.612 164.807ZM173.27 164.769C173.187 164.291 173.011 163.9 172.741 163.596C172.469 163.283 172.134 163.071 171.736 162.96C171.345 162.838 170.93 162.816 170.488 162.892C169.854 163.002 169.346 163.298 168.965 163.78C168.593 164.262 168.437 164.866 168.497 165.595L173.27 164.769Z" fill="#B01873"/>
<path d="M182.178 159.904L179.544 171.811L178.247 172.035L179.108 168.135L174.77 161.185L176.163 160.944L179.593 166.659L180.881 160.128L182.178 159.904Z" fill="#B01873"/>
<g opacity="0.2">
<path d="M57.3135 196.618C57.4408 197.117 57.6101 197.606 57.8197 198.079C61.0773 196.855 64.3709 195.682 67.7005 194.559C67.6723 194.427 67.6442 194.288 67.6091 194.151C67.2736 192.74 66.5577 191.439 65.5326 190.375C64.2014 189.03 62.4859 188.38 60.8172 188.776C59.1485 189.173 57.9369 190.532 57.3838 192.319C56.9703 193.722 56.946 195.203 57.3135 196.618Z" fill="#3F3D56"/>
<path d="M61.9938 193.941C64.8538 193.33 66.4795 189.867 65.6249 186.206C64.7703 182.546 61.7591 180.073 58.8991 180.684C56.0392 181.296 54.4135 184.759 55.2681 188.419C56.1226 192.08 59.1339 194.552 61.9938 193.941Z" fill="#3F3D56"/>
<path d="M59.988 185.867C62.8479 185.256 64.4736 181.793 63.619 178.132C62.7644 174.471 59.7532 171.999 56.8932 172.61C54.0333 173.221 52.4076 176.684 53.2622 180.345C54.1168 184.006 57.128 186.478 59.988 185.867Z" fill="#3F3D56"/>
<path d="M57.9763 177.797C60.8362 177.186 62.4619 173.723 61.6073 170.062C60.7527 166.401 57.7415 163.929 54.8815 164.54C52.0216 165.151 50.3959 168.614 51.2505 172.275C52.1051 175.936 55.1163 178.408 57.9763 177.797Z" fill="#3F3D56"/>
<path d="M55.9645 169.723C58.8245 169.111 60.4502 165.648 59.5956 161.988C58.741 158.327 55.7298 155.855 52.8698 156.466C50.0099 157.077 48.3842 160.54 49.2388 164.201C50.0934 167.861 53.1046 170.334 55.9645 169.723Z" fill="#3F3D56"/>
<path d="M59.9361 103.232C60.4237 102.186 60.8356 101.109 61.1689 100.008L47.1071 101.066L61.7641 97.6739C62.4645 94.1475 62.3758 90.5191 61.504 87.0278C60.7396 83.9371 59.3694 81.0131 57.4659 78.4109L40.3105 93.0863L55.1621 75.7158C49.0991 69.5227 39.9285 66.5764 30.8141 68.7649C17.1953 72.0228 8.84957 85.4852 12.1728 98.8332C13.4938 104.225 16.6607 109.039 21.1701 112.511C20.4125 114.14 19.8367 115.842 19.4522 117.587L39.2371 122.327L18.9834 120.648C18.7412 123.353 18.9532 126.078 19.6115 128.72C20.9348 134.111 24.1023 138.925 28.6111 142.397C26.2416 147.488 25.6945 153.184 27.0549 158.602C30.3782 171.95 44.1119 180.127 57.7307 176.872C71.3496 173.616 79.6953 160.154 76.372 146.806C75.0487 141.415 71.8813 136.601 67.3725 133.128C69.742 128.038 70.289 122.342 68.9286 116.923C67.6112 111.528 64.4459 106.709 59.9361 103.232Z" fill="#B01873"/>
<path opacity="0.1" d="M19.6161 128.712C20.9394 134.103 24.1068 138.917 28.6156 142.39C26.2461 147.48 25.6991 153.176 27.0594 158.594C30.3827 171.942 44.1164 180.12 57.7353 176.864C71.3541 173.608 79.6998 160.146 76.3765 146.798C75.0532 141.407 71.8858 136.593 67.377 133.12C69.6597 128.219 18.9411 126.006 19.6161 128.712Z" fill="black"/>
</g>
<path d="M43.0543 208.783C47.4292 208.783 50.9758 208.131 50.9758 207.326C50.9758 206.521 47.4292 205.869 43.0543 205.869C38.6794 205.869 35.1328 206.521 35.1328 207.326C35.1328 208.131 38.6794 208.783 43.0543 208.783Z" fill="#B01873"/>
<path d="M42.9195 207.862C43.4295 207.862 43.8429 207.345 43.8429 206.707C43.8429 206.07 43.4295 205.553 42.9195 205.553C42.4095 205.553 41.9961 206.07 41.9961 206.707C41.9961 207.345 42.4095 207.862 42.9195 207.862Z" fill="#3F3D56"/>
<path d="M42.9195 206.452C43.4295 206.452 43.8429 205.935 43.8429 205.297C43.8429 204.66 43.4295 204.143 42.9195 204.143C42.4095 204.143 41.9961 204.66 41.9961 205.297C41.9961 205.935 42.4095 206.452 42.9195 206.452Z" fill="#3F3D56"/>
<path d="M42.9195 205.039C43.4295 205.039 43.8429 204.522 43.8429 203.884C43.8429 203.246 43.4295 202.729 42.9195 202.729C42.4095 202.729 41.9961 203.246 41.9961 203.884C41.9961 204.522 42.4095 205.039 42.9195 205.039Z" fill="#3F3D56"/>
<path d="M42.9195 203.629C43.4295 203.629 43.8429 203.112 43.8429 202.474C43.8429 201.836 43.4295 201.319 42.9195 201.319C42.4095 201.319 41.9961 201.836 41.9961 202.474C41.9961 203.112 42.4095 203.629 42.9195 203.629Z" fill="#3F3D56"/>
<path d="M42.9195 202.216C43.4295 202.216 43.8429 201.699 43.8429 201.061C43.8429 200.423 43.4295 199.906 42.9195 199.906C42.4095 199.906 41.9961 200.423 41.9961 201.061C41.9961 201.699 42.4095 202.216 42.9195 202.216Z" fill="#3F3D56"/>
<path d="M42.9195 200.803C43.4295 200.803 43.8429 200.286 43.8429 199.648C43.8429 199.01 43.4295 198.493 42.9195 198.493C42.4095 198.493 41.9961 199.01 41.9961 199.648C41.9961 200.286 42.4095 200.803 42.9195 200.803Z" fill="#3F3D56"/>
<path d="M42.9195 199.393C43.4295 199.393 43.8429 198.876 43.8429 198.239C43.8429 197.601 43.4295 197.084 42.9195 197.084C42.4095 197.084 41.9961 197.601 41.9961 198.239C41.9961 198.876 42.4095 199.393 42.9195 199.393Z" fill="#3F3D56"/>
<path d="M46.373 188.576C46.498 188.422 46.6123 188.26 46.7152 188.092L44.2942 187.711L46.9144 187.731C47.1666 187.207 47.3041 186.64 47.3186 186.064C47.3331 185.488 47.2243 184.915 46.9988 184.381L43.4833 186.125L46.7246 183.856C46.4195 183.356 46.0103 182.922 45.5224 182.579C45.0345 182.237 44.4783 181.994 43.8883 181.866C43.2982 181.738 42.6869 181.727 42.0923 181.834C41.4976 181.941 40.9323 182.164 40.4314 182.488C39.9305 182.813 39.5046 183.233 39.1803 183.721C38.8559 184.21 38.6399 184.757 38.5457 185.329C38.4514 185.901 38.481 186.485 38.6325 187.046C38.7841 187.606 39.0543 188.131 39.4265 188.587C39.2307 188.827 39.0618 189.085 38.9226 189.359L42.0701 190.928L38.7141 189.852C38.4779 190.517 38.4186 191.229 38.5413 191.921C38.6641 192.614 38.965 193.267 39.4171 193.821C38.9049 194.444 38.5863 195.193 38.4979 195.982C38.4094 196.77 38.5546 197.567 38.9169 198.28C39.2792 198.993 39.844 199.595 40.5466 200.015C41.2493 200.436 42.0615 200.659 42.8904 200.659C43.7193 200.659 44.5315 200.436 45.2342 200.015C45.9368 199.595 46.5016 198.993 46.8639 198.28C47.2262 197.567 47.3714 196.77 47.2829 195.982C47.1945 195.193 46.8759 194.444 46.3637 193.821C46.9755 193.075 47.3081 192.155 47.3081 191.207C47.3081 190.26 46.9755 189.339 46.3637 188.594L46.373 188.576Z" fill="#B01873"/>
<path opacity="0.1" d="M38.4836 191.188C38.4806 192.135 38.8108 193.056 39.4211 193.802C38.9088 194.426 38.5902 195.175 38.5018 195.963C38.4133 196.752 38.5586 197.548 38.9208 198.262C39.2831 198.975 39.8479 199.576 40.5505 199.997C41.2532 200.418 42.0654 200.641 42.8943 200.641C43.7232 200.641 44.5355 200.418 45.2381 199.997C45.9408 199.576 46.5055 198.975 46.8678 198.262C47.2301 197.548 47.3753 196.752 47.2868 195.963C47.1984 195.175 46.8798 194.426 46.3676 193.802C46.9652 193.083 38.4836 190.715 38.4836 191.188Z" fill="black"/>
<path d="M84.7593 143.144C84.1616 140.153 83.4937 137.155 83.3836 134.113C83.3179 132.319 83.4492 130.494 83.2078 128.704C83.0883 127.825 82.8797 126.962 82.6734 126.099L81.8438 122.644C81.9379 121.981 81.9109 121.308 81.7641 120.655C81.681 120.31 81.5705 119.972 81.4337 119.643C82.2081 118.601 82.8464 117.471 83.3344 116.28C83.5547 115.742 83.7445 115.17 83.6578 114.601C83.489 113.509 82.3828 112.789 81.354 112.251C80.7306 111.926 80.0744 111.612 79.3619 111.56C78.8637 111.541 78.3675 111.632 77.9122 111.827C77.4569 112.021 77.0547 112.314 76.737 112.681C76.5639 111.797 76.6218 110.886 76.9058 110.029C76.2941 109.766 75.6777 109.52 75.0566 109.28C74.9669 108.505 74.9355 107.725 74.9629 106.946C74.9769 106.011 74.9934 105.067 75.0496 104.129C76.7163 103.547 78.157 102.492 79.1783 101.104C80.1997 99.7157 80.7528 98.062 80.7634 96.3646C80.7634 96.2682 80.7634 96.174 80.7634 96.0798C81.2176 95.2986 81.505 94.4388 81.6088 93.5504C81.7126 92.662 81.6308 91.7627 81.368 90.9048C80.6814 88.6625 78.8861 86.8149 76.723 85.6736C74.5598 84.5323 72.0521 84.0503 69.5702 83.9651C68.7372 83.9184 67.9015 83.9689 67.0812 84.1153C66.2034 84.322 65.3527 84.6229 64.5454 85.0122C63.3057 85.5593 62.0565 86.158 61.1284 87.1019C59.5183 88.7455 59.1574 91.1604 59.3332 93.3802C59.5676 96.2951 60.5847 99.1158 61.7612 101.829C62.1526 102.726 62.5698 103.636 63.2143 104.401C63.7134 104.99 64.5806 105.026 65.2696 104.614C65.2149 105.33 65.1977 106.048 65.2181 106.766C63.9455 106.724 62.7057 106.923 61.6839 107.609C61.2151 107.93 60.7698 108.435 60.873 108.977C61.186 108.985 61.486 109.099 61.7201 109.298C61.9543 109.496 62.1074 109.768 62.1526 110.065C62.2041 110.542 61.9534 110.997 61.7096 111.41C61.6042 111.594 61.4987 111.78 61.3909 111.964C60.3831 112.995 59.3496 114.287 59.2582 115.567C59.0938 115.582 58.9303 115.605 58.7684 115.637C57.8544 115.798 56.945 116.096 56.0474 116.32L49.5509 117.957L47.9455 118.383L45.3675 119.034C43.7269 119.446 42.0559 119.87 40.6005 120.699C39.1451 121.529 37.91 122.832 37.6171 124.401C37.4718 125.182 37.5608 125.993 37.3827 126.767C37.3827 126.803 37.3687 126.836 37.3593 126.87C37.2104 127.36 37.0102 127.834 36.7616 128.285C35.3062 131.22 34.2704 134.42 34.4649 137.651C34.5844 139.635 35.168 141.57 35.7351 143.481C36.3304 145.434 36.9179 147.388 37.4976 149.342C37.8798 150.74 38.3645 152.112 38.9483 153.445C39.9482 155.581 41.4315 157.478 43.291 158.999C43.8128 159.447 44.3964 159.824 45.0253 160.12C45.9842 160.517 47.0312 160.679 48.072 160.593C48.3533 160.575 48.6298 160.546 48.904 160.504C50.9172 160.199 52.7945 159.27 54.517 158.225C55.2373 157.789 55.9404 157.329 56.6263 156.846C56.7134 157.6 56.8703 158.344 57.095 159.071C57.2474 159.571 57.4348 160.084 57.3739 160.602C57.2895 161.324 56.7411 161.916 56.4576 162.593C55.8552 164.024 56.474 165.618 56.5747 167.152C56.6708 168.589 56.3052 170.015 56.0123 171.43C55.523 173.79 55.2338 176.183 55.1475 178.587C55.1448 179.497 55.0822 180.407 54.96 181.309C54.742 182.583 54.2311 183.812 54.142 185.099C54.0061 187.103 54.9108 189.065 54.8287 191.072C54.7326 193.428 53.2866 195.718 53.7905 198.023C53.8538 198.312 54.0249 198.646 54.3014 198.72L54.1655 198.839C53.7507 199.207 53.3476 199.886 53.8186 200.184C53.927 200.246 54.0474 200.286 54.1725 200.301C54.9014 200.447 55.6349 200.579 56.3685 200.702C56.3524 201.351 56.4377 201.997 56.6216 202.622C56.7552 202.714 56.8911 202.796 57.0271 202.875C56.9239 203.14 56.931 203.395 57.1747 203.548C57.2831 203.609 57.4035 203.649 57.5286 203.664C63.5657 204.856 69.7312 205.345 75.891 205.122C76.9925 205.081 78.1432 205.005 79.083 204.467C80.0228 203.929 80.6579 202.783 80.2103 201.839C79.8142 201.005 78.7783 200.644 77.8479 200.366L76.7558 200.043C76.8957 199.806 76.9773 199.541 76.9943 199.269C77.0114 198.997 76.9635 198.725 76.8542 198.473C76.4581 197.639 75.4222 197.278 74.4918 197L71.9771 196.254C71.6461 196.179 71.3349 196.039 71.0631 195.843C70.883 195.672 70.7168 195.487 70.5662 195.292C70.2034 194.895 69.7266 194.609 69.1952 194.469C69.1669 193.959 69.1787 193.448 69.2304 192.94L69.9334 184.821C70.0905 182.982 70.2452 181.107 69.7975 179.311C69.6171 178.583 69.3288 177.836 69.5046 177.105C69.7788 175.912 71.0912 175.248 71.9865 174.363C73.3364 173.017 73.7559 171.105 74.0653 169.284C75.3463 161.771 75.7488 154.144 75.2652 146.546C78.0786 145.787 80.9742 145.341 83.8945 145.218C84.3913 145.198 84.6351 144.974 84.7897 144.53C84.9444 144.086 84.8507 143.604 84.7593 143.144ZM70.7326 143.541C70.749 143.463 70.7678 143.384 70.7818 143.306L70.9764 143.543L70.7326 143.541Z" fill="url(#paint0_linear_1374_62834)"/>
<path d="M66.1636 102.384C66.1027 103.164 65.8144 103.913 65.7089 104.691C65.5894 105.548 65.6949 106.42 65.6363 107.283C65.5777 108.147 65.3175 109.055 64.6309 109.617C68.622 109.948 72.5532 110.762 76.3303 112.039C75.1889 110.694 75.1585 108.815 75.1866 107.088C75.2241 104.534 75.271 101.931 76.1428 99.5207C73.5425 98.9646 70.8499 98.931 68.2354 99.422C67.6682 99.5297 65.9503 99.4624 65.6949 99.9691C65.5097 100.341 66.2058 101.819 66.1636 102.384Z" fill="#A1616A"/>
<path opacity="0.1" d="M66.1636 102.384C66.1027 103.164 65.8144 103.913 65.7089 104.691C65.5894 105.548 65.6949 106.42 65.6363 107.283C65.5777 108.147 65.3175 109.055 64.6309 109.617C68.622 109.948 72.5532 110.762 76.3303 112.039C75.1889 110.694 75.1585 108.815 75.1866 107.088C75.2241 104.534 75.271 101.931 76.1428 99.5207C73.5425 98.9646 70.8499 98.931 68.2354 99.422C67.6682 99.5297 65.9503 99.4624 65.6949 99.9691C65.5097 100.341 66.2058 101.819 66.1636 102.384Z" fill="black"/>
<path d="M70.8874 195.302C71.0282 195.501 71.1849 195.689 71.3561 195.865C71.62 196.061 71.9244 196.201 72.249 196.276L74.7051 197.022C75.6168 197.3 76.6293 197.659 77.016 198.493C77.4519 199.435 76.8308 200.581 75.9121 201.117C74.9934 201.652 73.8685 201.731 72.7927 201.771C66.7697 201.993 60.741 201.505 54.8428 200.316C54.7211 200.299 54.6041 200.26 54.4983 200.199C54.0296 199.897 54.4304 199.22 54.8358 198.854C56.4178 197.419 58.138 195.915 60.2918 195.583C61.4238 195.406 62.5604 195.477 63.6854 195.219C64.4939 195.033 65.2579 194.713 66.0642 194.522C67.5664 194.17 69.814 194.045 70.8874 195.302Z" fill="#46455B"/>
<path opacity="0.1" d="M70.8874 195.302C71.0282 195.501 71.1849 195.689 71.3561 195.865C71.62 196.061 71.9244 196.201 72.249 196.276L74.7051 197.022C75.6168 197.3 76.6293 197.659 77.016 198.493C77.4519 199.435 76.8308 200.581 75.9121 201.117C74.9934 201.652 73.8685 201.731 72.7927 201.771C66.7697 201.993 60.741 201.505 54.8428 200.316C54.7211 200.299 54.6041 200.26 54.4983 200.199C54.0296 199.897 54.4304 199.22 54.8358 198.854C56.4178 197.419 58.138 195.915 60.2918 195.583C61.4238 195.406 62.5604 195.477 63.6854 195.219C64.4939 195.033 65.2579 194.713 66.0642 194.522C67.5664 194.17 69.814 194.045 70.8874 195.302Z" fill="black"/>
<path d="M58.5547 144.588C57.3428 147.648 57.2683 151.014 58.3438 154.12C57.5259 154.035 57.172 155.093 57.1931 155.882C57.2222 156.981 57.3962 158.072 57.711 159.129C57.861 159.631 58.0438 160.143 57.9852 160.658C57.9008 161.38 57.3665 161.972 57.0876 162.647C56.5017 164.075 57.104 165.667 57.2048 167.199C57.2985 168.636 56.94 170.06 56.6517 171.473C56.1742 173.83 55.892 176.219 55.808 178.619C55.8063 179.528 55.7444 180.436 55.6228 181.338C55.4119 182.612 54.9197 183.838 54.826 185.123C54.6924 187.123 55.576 189.085 55.4963 191.09C55.4025 193.442 53.987 195.729 54.4815 198.041C54.5518 198.366 54.7416 198.749 55.0908 198.754C58.625 198.796 61.9272 197.857 65.4239 198.348C65.7801 190.608 66.127 182.832 67.7207 175.233C69.1268 168.468 71.5103 161.779 71.2877 154.882C71.1588 150.938 70.1791 147.07 69.5839 143.164C65.8474 142.371 61.9376 142.875 58.5547 144.588Z" fill="#BBBDC8"/>
<path opacity="0.1" d="M58.5547 144.588C57.3428 147.648 57.2683 151.014 58.3438 154.12C57.5259 154.035 57.172 155.093 57.1931 155.882C57.2222 156.981 57.3962 158.072 57.711 159.129C57.861 159.631 58.0438 160.143 57.9852 160.658C57.9008 161.38 57.3665 161.972 57.0876 162.647C56.5017 164.075 57.104 165.667 57.2048 167.199C57.2985 168.636 56.94 170.06 56.6517 171.473C56.1742 173.83 55.892 176.219 55.808 178.619C55.8063 179.528 55.7444 180.436 55.6228 181.338C55.4119 182.612 54.9197 183.838 54.826 185.123C54.6924 187.123 55.576 189.085 55.4963 191.09C55.4025 193.442 53.987 195.729 54.4815 198.041C54.5518 198.366 54.7416 198.749 55.0908 198.754C58.625 198.796 61.9272 197.857 65.4239 198.348C65.7801 190.608 66.127 182.832 67.7207 175.233C69.1268 168.468 71.5103 161.779 71.2877 154.882C71.1588 150.938 70.1791 147.07 69.5839 143.164C65.8474 142.371 61.9376 142.875 58.5547 144.588Z" fill="black"/>
<path d="M74.1686 198.667C74.3094 198.866 74.4662 199.054 74.6373 199.229C74.9012 199.425 75.2056 199.565 75.5303 199.64L77.9864 200.386C78.8981 200.665 79.9105 201.023 80.2972 201.857C80.7331 202.799 80.1121 203.945 79.1933 204.481C78.2746 205.017 77.1497 205.095 76.074 205.136C70.0509 205.358 64.0222 204.869 58.1241 203.68C58.0024 203.663 57.8853 203.624 57.7796 203.564C57.3108 203.261 57.7116 202.584 58.1171 202.218C59.699 200.783 61.4192 199.279 63.573 198.947C64.705 198.77 65.8417 198.842 66.9666 198.584C67.7752 198.398 68.5392 198.077 69.3454 197.886C70.8477 197.534 73.0952 197.409 74.1686 198.667Z" fill="#46455B"/>
<path d="M59.7742 144.811C58.8696 145.932 58.6024 147.412 58.7243 148.815C58.8462 150.219 59.3407 151.566 59.8258 152.896C59.1813 153.463 59.3149 154.441 59.3992 155.275C59.7063 158.374 58.5813 161.466 58.7454 164.574C58.8133 165.881 59.111 167.17 59.1813 168.477C59.2586 169.906 59.0688 171.334 58.8907 172.753C57.7529 181.84 57.127 190.978 57.0158 200.129C57.0158 200.972 57.0017 201.828 57.2501 202.635C58.954 203.835 61.0937 203.997 63.1561 203.548C65.2185 203.1 67.1004 202.1 68.9496 201.113C69.9626 200.611 70.9232 200.018 71.8182 199.342C72.092 199.156 72.2945 198.89 72.3947 198.584C72.5916 197.687 71.2885 197.281 70.5409 196.7C69.4534 195.855 69.4698 194.29 69.5823 192.954L70.262 184.846C70.4167 183.009 70.5667 181.137 70.1307 179.343C69.9526 178.617 69.6784 177.87 69.8425 177.139C70.1097 175.951 71.394 175.287 72.2681 174.401C73.5899 173.056 73.9977 171.148 74.3024 169.332C75.7383 160.715 76.0438 151.961 75.2118 143.272C73.4892 143.844 71.4479 143.533 69.6316 143.667C67.8152 143.802 66.0106 144.382 64.1709 144.429C62.6381 144.463 60.7164 143.654 59.7742 144.811Z" fill="#BBBDC8"/>
<path d="M72.1851 104.817C76.9742 104.817 80.8566 101.103 80.8566 96.5209C80.8566 91.939 76.9742 88.2246 72.1851 88.2246C67.396 88.2246 63.5137 91.939 63.5137 96.5209C63.5137 101.103 67.396 104.817 72.1851 104.817Z" fill="#A1616A"/>
<path d="M77.0857 110.169C74.307 108.948 71.4096 107.991 68.4353 107.312C66.3401 106.835 63.9473 106.548 62.1966 107.747C61.7278 108.068 61.3037 108.572 61.4044 109.115C61.7133 109.125 62.0086 109.239 62.2374 109.438C62.4662 109.637 62.6137 109.907 62.6536 110.2C62.7051 110.675 62.4614 111.131 62.2224 111.545L60.1998 115.133C59.8123 115.779 59.4792 116.454 59.2038 117.151C58.796 118.29 58.7069 119.51 58.6202 120.712L58.3858 123.967C58.2405 126.019 58.0929 128.08 58.2874 130.127C58.4327 131.672 58.7702 133.223 58.5405 134.759C58.3554 135.995 57.8093 137.154 57.5023 138.369C56.9257 140.656 57.1882 143.163 56.0703 145.262C56.5243 145.061 57.0368 145.017 57.521 145.136C60.9146 145.735 63.584 148.298 66.8792 149.278C67.7111 148.116 68.8384 147.26 69.7689 146.179C70.4608 145.369 70.919 144.399 71.0977 143.367C71.8008 144.264 72.3984 144.964 72.8179 146.004C72.8926 146.246 73.0204 146.47 73.1929 146.661C73.6359 147.074 74.3647 146.914 74.9577 146.742C77.8646 145.903 80.8698 145.415 83.9033 145.291C84.3908 145.271 84.6275 145.047 84.7798 144.603C84.9322 144.159 84.8478 143.679 84.7564 143.221C84.1728 140.233 83.5213 137.239 83.4135 134.201C83.3479 132.407 83.4768 130.589 83.2401 128.799C83.1229 127.923 82.919 127.059 82.7174 126.198L81.0441 119.084C80.9503 118.687 80.505 118.427 80.3152 118.061C79.5465 116.573 78.077 115.496 77.3177 114.003C76.7441 112.797 76.6614 111.43 77.0857 110.169Z" fill="#46455B"/>
<path d="M64.9196 99.8417C64.9094 99.7256 64.9381 99.6094 65.0016 99.5099C65.0943 99.4167 65.2105 99.348 65.3391 99.3103C65.6885 99.1516 65.9743 98.8882 66.1532 98.56C66.3321 98.2319 66.3943 97.8569 66.3304 97.4919L67.1507 97.3282L67.1765 94.5949C68.3952 93.9492 70.0568 94.438 71.2028 93.6778C71.8473 93.2473 72.1778 92.5164 72.5715 91.8661C72.9652 91.2159 73.5512 90.5611 74.3339 90.5073C74.0647 91.1624 73.9494 91.8661 73.9959 92.5686C74.0425 93.2711 74.2499 93.9552 74.6034 94.5725C75.4241 94.1751 76.1094 93.5622 76.5791 92.8056L76.9869 95.0478C76.9952 95.1861 77.057 95.3164 77.1603 95.4133C77.3736 95.5636 77.6619 95.3752 77.8494 95.1891L78.9111 94.1913C79.3579 95.2639 79.6641 96.3854 79.8227 97.53C81.5664 95.9111 82.1078 93.3101 81.4375 91.0769C80.7672 88.8436 79.0118 86.9938 76.8979 85.8525C74.7839 84.7112 72.3325 84.2313 69.9068 84.1461C69.0925 84.1005 68.2755 84.151 67.4741 84.2964C66.6143 84.5033 65.7824 84.8042 64.9945 85.1933C63.7829 85.7381 62.5595 86.3368 61.6549 87.2785C60.0799 88.9198 59.7261 91.3325 59.8995 93.5568C60.1338 96.4717 61.1229 99.2857 62.2736 101.994C62.6556 102.891 63.0634 103.799 63.6938 104.564C64.643 105.714 66.9749 104.759 66.6773 102.485C66.471 100.862 64.9196 101.488 64.9196 99.8417Z" fill="#3F3D56"/>
<path d="M68.1986 144.258C65.2739 149.975 60.7825 154.826 55.2032 158.294C53.5181 159.337 51.6877 160.265 49.7167 160.57C49.4472 160.613 49.1777 160.642 48.9035 160.66C47.8871 160.74 46.8658 160.574 45.9341 160.178C45.3172 159.88 44.7463 159.503 44.2373 159.056C42.4135 157.529 40.9643 155.636 39.993 153.511C39.4221 152.178 38.9483 150.809 38.5751 149.413C38.0001 147.46 37.4267 145.507 36.8549 143.554C36.2947 141.643 35.7299 139.711 35.6127 137.724C35.4229 134.497 36.4353 131.302 37.8579 128.372C38.1006 127.92 38.296 127.447 38.4415 126.959C38.4415 126.925 38.4579 126.892 38.4649 126.856C38.6337 126.082 38.547 125.273 38.6993 124.492C38.9852 122.923 40.1945 121.622 41.6148 120.795C43.035 119.968 44.6615 119.544 46.2763 119.131L48.791 118.483L50.3519 118.082L56.7008 116.447C57.5796 116.223 58.4679 115.925 59.3608 115.775C60.3568 115.595 60.3498 115.69 60.4271 116.622C60.5701 118.313 60.5232 119.974 60.8959 121.649C61.2497 123.248 61.8732 124.788 62.3419 126.358C63.5254 130.32 63.7223 134.491 64.6551 138.515C64.8683 139.432 65.1636 140.41 65.9347 140.982C66.8182 141.655 68.3064 141.82 68.5408 142.874C68.6275 143.343 68.4096 143.823 68.1986 144.258Z" fill="#B01873"/>
<path opacity="0.1" d="M49.7167 160.562C49.4472 160.604 49.1777 160.633 48.9035 160.651C47.8879 160.735 46.8667 160.572 45.9341 160.178C45.3172 159.881 44.7463 159.504 44.2373 159.057C42.4135 157.53 40.9643 155.637 39.993 153.512C39.4221 152.179 38.9483 150.809 38.5751 149.413C38.0001 147.461 37.4267 145.508 36.8549 143.554C36.2947 141.644 35.7299 139.711 35.6127 137.725C35.4229 134.498 36.4353 131.303 37.8579 128.372C38.1006 127.921 38.296 127.448 38.4415 126.96C38.4415 126.926 38.4579 126.892 38.4649 126.856C42.2897 127.5 46.8786 134.5 49.2457 143.673C50.9893 150.532 51.0643 156.848 49.7167 160.562Z" fill="black"/>
<path opacity="0.1" d="M56.6305 136.426L55.9907 136.531C55.3321 134.876 54.6759 133.219 53.9048 131.61C53.5041 130.769 53.0705 129.939 52.733 129.071C51.4674 125.739 51.6831 121.786 49.3371 119.042C49.1696 118.838 48.9786 118.653 48.7676 118.49L50.3284 118.089C51.6953 120.156 52.6592 122.444 53.1736 124.84C53.4267 126.011 53.5697 127.208 53.9822 128.334C54.333 129.187 54.7344 130.021 55.1845 130.831C56.075 132.578 56.7453 134.486 56.6305 136.426Z" fill="black"/>
<path d="M62.8616 111.164C64.5467 109.783 66.8458 109.025 69.0277 109.37C70.312 109.57 71.505 110.124 72.6557 110.715C74.8985 111.855 77.1086 113.166 78.7257 115.038C79.6954 116.219 80.5005 117.516 81.1209 118.895C81.4251 119.498 81.6608 120.13 81.824 120.781C82.3958 123.315 80.992 125.833 79.6397 128.079L77.0383 132.398C75.843 134.382 74.6384 136.38 73.0822 138.122C72.3651 138.925 71.5776 139.667 70.7925 140.409L67.345 143.665C67.283 143.735 67.2018 143.787 67.1106 143.815C67.0354 143.819 66.9601 143.807 66.8901 143.781C66.8201 143.754 66.757 143.713 66.7052 143.661L65.5662 142.793C66.6153 142.099 67.5903 141.308 68.477 140.432C69.9675 138.956 71.1932 137.259 72.4119 135.568L76.2039 130.308C77.3125 128.768 78.4702 127.073 78.346 125.207C78.2874 124.31 77.9359 123.467 77.5679 122.644C76.9164 121.181 76.2086 119.74 75.4446 118.323C74.5868 116.734 73.6494 115.164 72.4143 113.821C71.1792 112.478 69.6183 111.354 67.8208 110.868C67.2846 110.7 66.7164 110.648 66.1568 110.715C64.924 110.911 64.0475 111.924 63.2671 112.866L60.8906 115.781C60.3492 116.442 59.8524 117.209 59.8196 115.953C59.7633 114.162 61.657 112.316 62.8616 111.164Z" fill="#B01873"/>
<path d="M63.5987 130.827C64.0674 132.553 64.7588 134.513 66.4954 135.168C67.7259 135.632 69.1672 135.255 70.2312 134.495C71.2952 133.735 72.0499 132.663 72.7436 131.58C73.3307 130.607 73.9779 129.668 74.6818 128.768C76.0715 127.1 77.9629 125.777 78.9003 123.836C79.1769 123.257 79.369 122.638 79.6831 122.082C80.0187 121.569 80.3981 121.084 80.8174 120.631C81.8965 119.352 82.7592 117.919 83.3743 116.385C83.5899 115.849 83.7751 115.275 83.6907 114.707C83.5243 113.615 82.4439 112.898 81.4385 112.362C80.8268 112.037 80.187 111.721 79.4909 111.671C78.4738 111.595 77.473 112.12 76.8473 112.889C76.2449 113.684 75.9083 114.636 75.8817 115.618C75.8114 116.813 76.0551 118.055 75.6473 119.185C75.4317 119.712 75.1338 120.205 74.7638 120.647C73.4473 122.332 71.8179 123.771 69.957 124.892C69.906 124.043 69.7137 123.209 69.3875 122.418C69.2094 121.983 65.7174 122.418 65.2627 122.49C64.3627 122.616 62.6191 122.714 62.0519 123.535C61.4848 124.356 62.1878 125.735 62.4175 126.562L63.5987 130.827Z" fill="#A1616A"/>
<path d="M63.5123 111.985C62.9936 112.395 62.5107 112.845 62.0687 113.33C61.0281 114.53 60.5195 116.09 60.3883 117.644C60.257 119.198 60.4797 120.758 60.7586 122.294C61.0117 123.673 61.3109 125.041 61.6562 126.4C61.7523 125.375 62.6194 124.528 63.6248 124.158C64.6303 123.788 65.7341 123.828 66.8051 123.978C68.1837 124.174 69.5284 124.545 70.8034 125.084L71.2979 118.453C71.402 117.559 71.3965 116.656 71.2815 115.763C71.1257 114.934 70.7873 114.146 70.2886 113.452C69.79 112.758 69.1425 112.174 68.3894 111.738C66.5098 110.644 65.1998 110.574 63.5123 111.985Z" fill="#46455B"/>
<path opacity="0.1" d="M80.3866 62.2145C81.2927 62.2145 82.0272 61.5119 82.0272 60.6453C82.0272 59.7787 81.2927 59.0762 80.3866 59.0762C79.4806 59.0762 78.7461 59.7787 78.7461 60.6453C78.7461 61.5119 79.4806 62.2145 80.3866 62.2145Z" fill="#B01873"/>
<path opacity="0.1" d="M60.2304 63.7838C61.1364 63.7838 61.8709 63.0813 61.8709 62.2147C61.8709 61.348 61.1364 60.6455 60.2304 60.6455C59.3243 60.6455 58.5898 61.348 58.5898 62.2147C58.5898 63.0813 59.3243 63.7838 60.2304 63.7838Z" fill="#B01873"/>
<path opacity="0.1" d="M9.84354 137.777C12.1734 137.777 14.0621 135.97 14.0621 133.741C14.0621 131.512 12.1734 129.705 9.84354 129.705C7.51371 129.705 5.625 131.512 5.625 133.741C5.625 135.97 7.51371 137.777 9.84354 137.777Z" fill="#B01873"/>
<path opacity="0.1" d="M77.1054 74.7701C78.0114 74.7701 78.7459 74.0676 78.7459 73.201C78.7459 72.3344 78.0114 71.6318 77.1054 71.6318C76.1993 71.6318 75.4648 72.3344 75.4648 73.201C75.4648 74.0676 76.1993 74.7701 77.1054 74.7701Z" fill="#B01873"/>
<path opacity="0.1" d="M15.703 154.146C16.6091 154.146 17.3436 153.444 17.3436 152.577C17.3436 151.71 16.6091 151.008 15.703 151.008C14.797 151.008 14.0625 151.71 14.0625 152.577C14.0625 153.444 14.797 154.146 15.703 154.146Z" fill="#B01873"/>
<path opacity="0.1" d="M13.1249 118.268C14.031 118.268 14.7655 117.566 14.7655 116.699C14.7655 115.832 14.031 115.13 13.1249 115.13C12.2189 115.13 11.4844 115.832 11.4844 116.699C11.4844 117.566 12.2189 118.268 13.1249 118.268Z" fill="#B01873"/>
<path opacity="0.1" d="M61.5204 211.997C95.4972 211.997 123.041 208.885 123.041 205.046C123.041 201.207 95.4972 198.095 61.5204 198.095C27.5436 198.095 0 201.207 0 205.046C0 208.885 27.5436 211.997 61.5204 211.997Z" fill="#B01873"/>
<defs>
<linearGradient id="paint0_linear_1374_62834" x1="59.659" y1="205.187" x2="59.659" y2="83.9651" gradientUnits="userSpaceOnUse">
<stop stop-color="#808080" stop-opacity="0.25"/>
<stop offset="0.54" stop-color="#808080" stop-opacity="0.12"/>
<stop offset="1" stop-color="#808080" stop-opacity="0.1"/>
</linearGradient>
</defs>
</svg>
