<svg width="157" height="168" viewBox="0 0 157 168" fill="none" xmlns="http://www.w3.org/2000/svg">
<mask id="path-1-inside-1_873_62689" fill="white">
<path fill-rule="evenodd" clip-rule="evenodd" d="M9.32334 1.32795C4.35278 1.32795 0.323344 5.35738 0.323344 10.3279L0.323344 24.3279C0.323344 29.2985 4.35278 33.3279 9.32335 33.3279L60.5499 33.3279L60.4555 37.1672C60.4157 38.7854 62.2146 39.7781 63.5625 38.8816L71.9127 33.3279L116.323 33.3279C121.294 33.3279 125.323 29.2985 125.323 24.3279L125.323 10.3279C125.323 5.35738 121.294 1.32795 116.323 1.32795L9.32334 1.32795Z"/>
</mask>
<path d="M0.323344 10.3279L1.32334 10.3279L0.323344 10.3279ZM9.32334 1.32795L9.32335 2.32795L9.32334 1.32795ZM0.323344 24.3279L-0.676656 24.3279L0.323344 24.3279ZM9.32335 33.3279L9.32335 32.3279L9.32335 33.3279ZM60.5499 33.3279L61.5496 33.3525L61.5748 32.3279L60.5499 32.3279L60.5499 33.3279ZM60.4555 37.1672L59.4558 37.1426L60.4555 37.1672ZM63.5625 38.8816L63.0087 38.049L63.0087 38.049L63.5625 38.8816ZM71.9127 33.3279L71.9127 32.3279L71.6105 32.3279L71.3589 32.4953L71.9127 33.3279ZM116.323 33.3279L116.323 34.3279L116.323 33.3279ZM125.323 24.3279L124.323 24.3279L125.323 24.3279ZM125.323 10.3279L126.323 10.3279L125.323 10.3279ZM116.323 1.32795L116.323 0.327946L116.323 1.32795ZM1.32334 10.3279C1.32334 5.90967 4.90507 2.32795 9.32335 2.32795L9.32334 0.327946C3.8005 0.327946 -0.676656 4.8051 -0.676656 10.3279L1.32334 10.3279ZM1.32334 24.3279L1.32334 10.3279L-0.676656 10.3279L-0.676656 24.3279L1.32334 24.3279ZM9.32335 32.3279C4.90507 32.3279 1.32334 28.7462 1.32334 24.3279L-0.676656 24.3279C-0.676656 29.8508 3.8005 34.3279 9.32335 34.3279L9.32335 32.3279ZM60.5499 32.3279L9.32335 32.3279L9.32335 34.3279L60.5499 34.3279L60.5499 32.3279ZM61.4552 37.1917L61.5496 33.3525L59.5502 33.3034L59.4558 37.1426L61.4552 37.1917ZM63.0087 38.049C62.3348 38.4972 61.4353 38.0009 61.4552 37.1917L59.4558 37.1426C59.3961 39.57 62.0945 41.059 64.1163 39.7143L63.0087 38.049ZM71.3589 32.4953L63.0087 38.049L64.1163 39.7143L72.4665 34.1606L71.3589 32.4953ZM116.323 32.3279L71.9127 32.3279L71.9127 34.3279L116.323 34.3279L116.323 32.3279ZM124.323 24.3279C124.323 28.7462 120.742 32.3279 116.323 32.3279L116.323 34.3279C121.846 34.3279 126.323 29.8508 126.323 24.3279L124.323 24.3279ZM124.323 10.3279L124.323 24.3279L126.323 24.3279L126.323 10.3279L124.323 10.3279ZM116.323 2.32795C120.742 2.32795 124.323 5.90967 124.323 10.3279L126.323 10.3279C126.323 4.8051 121.846 0.327946 116.323 0.327946L116.323 2.32795ZM9.32335 2.32795L116.323 2.32795L116.323 0.327946L9.32334 0.327946L9.32335 2.32795Z" fill="#B01873" mask="url(#path-1-inside-1_873_62689)"/>
<path d="M23.271 15.1719C23.271 15.8679 23.031 16.4479 22.551 16.9119C22.079 17.3679 21.355 17.5959 20.379 17.5959H18.771V21.0879H17.679V12.7239H20.379C21.323 12.7239 22.039 12.9519 22.527 13.4079C23.023 13.8639 23.271 14.4519 23.271 15.1719ZM20.379 16.6959C20.987 16.6959 21.435 16.5639 21.723 16.2999C22.011 16.0359 22.155 15.6599 22.155 15.1719C22.155 14.1399 21.563 13.6239 20.379 13.6239H18.771V16.6959H20.379ZM24.2202 17.7759C24.2202 17.1039 24.3562 16.5159 24.6282 16.0119C24.9002 15.4999 25.2722 15.1039 25.7442 14.8239C26.2242 14.5439 26.7562 14.4039 27.3402 14.4039C27.9162 14.4039 28.4162 14.5279 28.8402 14.7759C29.2642 15.0239 29.5802 15.3359 29.7882 15.7119V14.5119H30.8922V21.0879H29.7882V19.8639C29.5722 20.2479 29.2482 20.5679 28.8162 20.8239C28.3922 21.0719 27.8962 21.1959 27.3282 21.1959C26.7442 21.1959 26.2162 21.0519 25.7442 20.7639C25.2722 20.4759 24.9002 20.0719 24.6282 19.5519C24.3562 19.0319 24.2202 18.4399 24.2202 17.7759ZM29.7882 17.7879C29.7882 17.2919 29.6882 16.8599 29.4882 16.4919C29.2882 16.1239 29.0162 15.8439 28.6722 15.6519C28.3362 15.4519 27.9642 15.3519 27.5562 15.3519C27.1482 15.3519 26.7762 15.4479 26.4402 15.6399C26.1042 15.8319 25.8362 16.1119 25.6362 16.4799C25.4362 16.8479 25.3362 17.2799 25.3362 17.7759C25.3362 18.2799 25.4362 18.7199 25.6362 19.0959C25.8362 19.4639 26.1042 19.7479 26.4402 19.9479C26.7762 20.1399 27.1482 20.2359 27.5562 20.2359C27.9642 20.2359 28.3362 20.1399 28.6722 19.9479C29.0162 19.7479 29.2882 19.4639 29.4882 19.0959C29.6882 18.7199 29.7882 18.2839 29.7882 17.7879ZM35.0656 21.1959C34.5616 21.1959 34.1096 21.1119 33.7096 20.9439C33.3096 20.7679 32.9936 20.5279 32.7616 20.2239C32.5296 19.9119 32.4016 19.5559 32.3776 19.1559H33.5056C33.5376 19.4839 33.6896 19.7519 33.9616 19.9599C34.2416 20.1679 34.6056 20.2719 35.0536 20.2719C35.4696 20.2719 35.7976 20.1799 36.0376 19.9959C36.2776 19.8119 36.3976 19.5799 36.3976 19.2999C36.3976 19.0119 36.2696 18.7999 36.0136 18.6639C35.7576 18.5199 35.3616 18.3799 34.8256 18.2439C34.3376 18.1159 33.9376 17.9879 33.6256 17.8599C33.3216 17.7239 33.0576 17.5279 32.8336 17.2719C32.6176 17.0079 32.5096 16.6639 32.5096 16.2399C32.5096 15.9039 32.6096 15.5959 32.8096 15.3159C33.0096 15.0359 33.2936 14.8159 33.6616 14.6559C34.0296 14.4879 34.4496 14.4039 34.9216 14.4039C35.6496 14.4039 36.2376 14.5879 36.6856 14.9559C37.1336 15.3239 37.3736 15.8279 37.4056 16.4679H36.3136C36.2896 16.1239 36.1496 15.8479 35.8936 15.6399C35.6456 15.4319 35.3096 15.3279 34.8856 15.3279C34.4936 15.3279 34.1816 15.4119 33.9496 15.5799C33.7176 15.7479 33.6016 15.9679 33.6016 16.2399C33.6016 16.4559 33.6696 16.6359 33.8056 16.7799C33.9496 16.9159 34.1256 17.0279 34.3336 17.1159C34.5496 17.1959 34.8456 17.2879 35.2216 17.3919C35.6936 17.5199 36.0776 17.6479 36.3736 17.7759C36.6696 17.8959 36.9216 18.0799 37.1296 18.3279C37.3456 18.5759 37.4576 18.8999 37.4656 19.2999C37.4656 19.6599 37.3656 19.9839 37.1656 20.2719C36.9656 20.5599 36.6816 20.7879 36.3136 20.9559C35.9536 21.1159 35.5376 21.1959 35.0656 21.1959ZM41.3351 21.1959C40.8311 21.1959 40.3791 21.1119 39.9791 20.9439C39.5791 20.7679 39.2631 20.5279 39.0311 20.2239C38.7991 19.9119 38.6711 19.5559 38.6471 19.1559H39.7751C39.8071 19.4839 39.9591 19.7519 40.2311 19.9599C40.5111 20.1679 40.8751 20.2719 41.3231 20.2719C41.7391 20.2719 42.0671 20.1799 42.3071 19.9959C42.5471 19.8119 42.6671 19.5799 42.6671 19.2999C42.6671 19.0119 42.5391 18.7999 42.2831 18.6639C42.0271 18.5199 41.6311 18.3799 41.0951 18.2439C40.6071 18.1159 40.2071 17.9879 39.8951 17.8599C39.5911 17.7239 39.3271 17.5279 39.1031 17.2719C38.8871 17.0079 38.7791 16.6639 38.7791 16.2399C38.7791 15.9039 38.8791 15.5959 39.0791 15.3159C39.2791 15.0359 39.5631 14.8159 39.9311 14.6559C40.2991 14.4879 40.7191 14.4039 41.1911 14.4039C41.9191 14.4039 42.5071 14.5879 42.9551 14.9559C43.4031 15.3239 43.6431 15.8279 43.6751 16.4679H42.5831C42.5591 16.1239 42.4191 15.8479 42.1631 15.6399C41.9151 15.4319 41.5791 15.3279 41.1551 15.3279C40.7631 15.3279 40.4511 15.4119 40.2191 15.5799C39.9871 15.7479 39.8711 15.9679 39.8711 16.2399C39.8711 16.4559 39.9391 16.6359 40.0751 16.7799C40.2191 16.9159 40.3951 17.0279 40.6031 17.1159C40.8191 17.1959 41.1151 17.2879 41.4911 17.3919C41.9631 17.5199 42.3471 17.6479 42.6431 17.7759C42.9391 17.8959 43.1911 18.0799 43.3991 18.3279C43.6151 18.5759 43.7271 18.8999 43.7351 19.2999C43.7351 19.6599 43.6351 19.9839 43.4351 20.2719C43.2351 20.5599 42.9511 20.7879 42.5831 20.9559C42.2231 21.1159 41.8071 21.1959 41.3351 21.1959ZM45.8407 13.4439C45.6327 13.4439 45.4567 13.3719 45.3127 13.2279C45.1687 13.0839 45.0967 12.9079 45.0967 12.6999C45.0967 12.4919 45.1687 12.3159 45.3127 12.1719C45.4567 12.0279 45.6327 11.9559 45.8407 11.9559C46.0407 11.9559 46.2087 12.0279 46.3447 12.1719C46.4887 12.3159 46.5607 12.4919 46.5607 12.6999C46.5607 12.9079 46.4887 13.0839 46.3447 13.2279C46.2087 13.3719 46.0407 13.4439 45.8407 13.4439ZM46.3687 14.5119V21.0879H45.2767V14.5119H46.3687ZM51.0978 21.1959C50.4818 21.1959 49.9218 21.0559 49.4178 20.7759C48.9218 20.4959 48.5298 20.0999 48.2418 19.5879C47.9618 19.0679 47.8218 18.4679 47.8218 17.7879C47.8218 17.1159 47.9658 16.5239 48.2538 16.0119C48.5498 15.4919 48.9498 15.0959 49.4538 14.8239C49.9578 14.5439 50.5218 14.4039 51.1458 14.4039C51.7698 14.4039 52.3338 14.5439 52.8378 14.8239C53.3418 15.0959 53.7378 15.4879 54.0258 15.9999C54.3218 16.5119 54.4698 17.1079 54.4698 17.7879C54.4698 18.4679 54.3178 19.0679 54.0138 19.5879C53.7178 20.0999 53.3138 20.4959 52.8018 20.7759C52.2898 21.0559 51.7218 21.1959 51.0978 21.1959ZM51.0978 20.2359C51.4898 20.2359 51.8578 20.1439 52.2018 19.9599C52.5458 19.7759 52.8218 19.4999 53.0298 19.1319C53.2458 18.7639 53.3538 18.3159 53.3538 17.7879C53.3538 17.2599 53.2498 16.8119 53.0418 16.4439C52.8338 16.0759 52.5618 15.8039 52.2258 15.6279C51.8898 15.4439 51.5258 15.3519 51.1338 15.3519C50.7338 15.3519 50.3658 15.4439 50.0298 15.6279C49.7018 15.8039 49.4378 16.0759 49.2378 16.4439C49.0378 16.8119 48.9378 17.2599 48.9378 17.7879C48.9378 18.3239 49.0338 18.7759 49.2258 19.1439C49.4258 19.5119 49.6898 19.7879 50.0178 19.9719C50.3458 20.1479 50.7058 20.2359 51.0978 20.2359ZM59.1096 14.3919C59.9096 14.3919 60.5576 14.6359 61.0536 15.1239C61.5496 15.6039 61.7976 16.2999 61.7976 17.2119V21.0879H60.7176V17.3679C60.7176 16.7119 60.5536 16.2119 60.2256 15.8679C59.8976 15.5159 59.4496 15.3399 58.8816 15.3399C58.3056 15.3399 57.8456 15.5199 57.5016 15.8799C57.1656 16.2399 56.9976 16.7639 56.9976 17.4519V21.0879H55.9056V14.5119H56.9976V15.4479C57.2136 15.1119 57.5056 14.8519 57.8736 14.6679C58.2496 14.4839 58.6616 14.3919 59.1096 14.3919ZM63.1733 17.7759C63.1733 17.1039 63.3093 16.5159 63.5813 16.0119C63.8533 15.4999 64.2253 15.1039 64.6973 14.8239C65.1773 14.5439 65.7093 14.4039 66.2933 14.4039C66.8693 14.4039 67.3693 14.5279 67.7933 14.7759C68.2173 15.0239 68.5333 15.3359 68.7413 15.7119V14.5119H69.8453V21.0879H68.7413V19.8639C68.5253 20.2479 68.2013 20.5679 67.7693 20.8239C67.3453 21.0719 66.8493 21.1959 66.2813 21.1959C65.6973 21.1959 65.1693 21.0519 64.6973 20.7639C64.2253 20.4759 63.8533 20.0719 63.5813 19.5519C63.3093 19.0319 63.1733 18.4399 63.1733 17.7759ZM68.7413 17.7879C68.7413 17.2919 68.6413 16.8599 68.4413 16.4919C68.2413 16.1239 67.9693 15.8439 67.6253 15.6519C67.2893 15.4519 66.9173 15.3519 66.5093 15.3519C66.1013 15.3519 65.7293 15.4479 65.3933 15.6399C65.0573 15.8319 64.7893 16.1119 64.5893 16.4799C64.3893 16.8479 64.2893 17.2799 64.2893 17.7759C64.2893 18.2799 64.3893 18.7199 64.5893 19.0959C64.7893 19.4639 65.0573 19.7479 65.3933 19.9479C65.7293 20.1399 66.1013 20.2359 66.5093 20.2359C66.9173 20.2359 67.2893 20.1399 67.6253 19.9479C67.9693 19.7479 68.2413 19.4639 68.4413 19.0959C68.6413 18.7199 68.7413 18.2839 68.7413 17.7879ZM73.0227 15.4119V19.2879C73.0227 19.6079 73.0907 19.8359 73.2267 19.9719C73.3627 20.0999 73.5987 20.1639 73.9347 20.1639H74.7387V21.0879H73.7547C73.1467 21.0879 72.6907 20.9479 72.3867 20.6679C72.0827 20.3879 71.9307 19.9279 71.9307 19.2879V15.4119H71.0787V14.5119H71.9307V12.8559H73.0227V14.5119H74.7387V15.4119H73.0227ZM82.0618 17.5479C82.0618 17.7559 82.0498 17.9759 82.0258 18.2079H76.7698C76.8098 18.8559 77.0298 19.3639 77.4298 19.7319C77.8378 20.0919 78.3298 20.2719 78.9058 20.2719C79.3778 20.2719 79.7698 20.1639 80.0818 19.9479C80.4018 19.7239 80.6258 19.4279 80.7538 19.0599H81.9298C81.7538 19.6919 81.4018 20.2079 80.8738 20.6079C80.3458 20.9999 79.6898 21.1959 78.9058 21.1959C78.2818 21.1959 77.7218 21.0559 77.2258 20.7759C76.7378 20.4959 76.3538 20.0999 76.0738 19.5879C75.7938 19.0679 75.6538 18.4679 75.6538 17.7879C75.6538 17.1079 75.7898 16.5119 76.0618 15.9999C76.3338 15.4879 76.7138 15.0959 77.2018 14.8239C77.6978 14.5439 78.2658 14.4039 78.9058 14.4039C79.5298 14.4039 80.0818 14.5399 80.5618 14.8119C81.0418 15.0839 81.4098 15.4599 81.6658 15.9399C81.9298 16.4119 82.0618 16.9479 82.0618 17.5479ZM80.9338 17.3199C80.9338 16.9039 80.8418 16.5479 80.6578 16.2519C80.4738 15.9479 80.2218 15.7199 79.9018 15.5679C79.5898 15.4079 79.2418 15.3279 78.8578 15.3279C78.3058 15.3279 77.8338 15.5039 77.4418 15.8559C77.0578 16.2079 76.8378 16.6959 76.7818 17.3199H80.9338ZM92.3664 14.5119L88.4064 24.1839H87.2784L88.5744 21.0159L85.9224 14.5119H87.1344L89.1984 19.8399L91.2384 14.5119H92.3664ZM96.3322 21.1959C95.7162 21.1959 95.1562 21.0559 94.6522 20.7759C94.1562 20.4959 93.7642 20.0999 93.4762 19.5879C93.1962 19.0679 93.0562 18.4679 93.0562 17.7879C93.0562 17.1159 93.2002 16.5239 93.4882 16.0119C93.7842 15.4919 94.1842 15.0959 94.6882 14.8239C95.1922 14.5439 95.7562 14.4039 96.3802 14.4039C97.0042 14.4039 97.5682 14.5439 98.0722 14.8239C98.5762 15.0959 98.9722 15.4879 99.2602 15.9999C99.5562 16.5119 99.7042 17.1079 99.7042 17.7879C99.7042 18.4679 99.5522 19.0679 99.2482 19.5879C98.9522 20.0999 98.5482 20.4959 98.0362 20.7759C97.5242 21.0559 96.9562 21.1959 96.3322 21.1959ZM96.3322 20.2359C96.7242 20.2359 97.0922 20.1439 97.4362 19.9599C97.7802 19.7759 98.0562 19.4999 98.2642 19.1319C98.4802 18.7639 98.5882 18.3159 98.5882 17.7879C98.5882 17.2599 98.4842 16.8119 98.2762 16.4439C98.0682 16.0759 97.7962 15.8039 97.4602 15.6279C97.1242 15.4439 96.7602 15.3519 96.3682 15.3519C95.9682 15.3519 95.6002 15.4439 95.2642 15.6279C94.9362 15.8039 94.6722 16.0759 94.4722 16.4439C94.2722 16.8119 94.1722 17.2599 94.1722 17.7879C94.1722 18.3239 94.2682 18.7759 94.4602 19.1439C94.6602 19.5119 94.9242 19.7879 95.2522 19.9719C95.5802 20.1479 95.9402 20.2359 96.3322 20.2359ZM106.972 14.5119V21.0879H105.88V20.1159C105.672 20.4519 105.38 20.7159 105.004 20.9079C104.636 21.0919 104.228 21.1839 103.78 21.1839C103.268 21.1839 102.808 21.0799 102.4 20.8719C101.992 20.6559 101.668 20.3359 101.428 19.9119C101.196 19.4879 101.08 18.9719 101.08 18.3639V14.5119H102.16V18.2199C102.16 18.8679 102.324 19.3679 102.652 19.7199C102.98 20.0639 103.428 20.2359 103.996 20.2359C104.58 20.2359 105.04 20.0559 105.376 19.6959C105.712 19.3359 105.88 18.8119 105.88 18.1239V14.5119H106.972Z" fill="#B01873"/>
<g opacity="0.2">
<path d="M35.7896 133.707C35.8692 134.018 35.9749 134.323 36.1058 134.618C38.14 133.855 40.1967 133.123 42.2758 132.423C42.2583 132.341 42.2407 132.254 42.2187 132.169C42.0093 131.289 41.5622 130.477 40.9221 129.814C40.0908 128.975 39.0196 128.57 37.9776 128.817C36.9356 129.065 36.1789 129.912 35.8336 131.026C35.5753 131.901 35.5602 132.825 35.7896 133.707Z" fill="#3F3D56"/>
<path d="M38.7124 132.038C40.4983 131.657 41.5135 129.497 40.9798 127.214C40.4462 124.931 38.5658 123.39 36.7799 123.771C34.994 124.152 33.9789 126.311 34.5125 128.594C35.0462 130.877 36.9265 132.419 38.7124 132.038Z" fill="#3F3D56"/>
<path d="M37.4594 127.002C39.2453 126.621 40.2604 124.462 39.7268 122.179C39.1931 119.896 37.3128 118.355 35.5269 118.736C33.741 119.117 32.7258 121.276 33.2595 123.559C33.7931 125.842 35.6735 127.384 37.4594 127.002Z" fill="#3F3D56"/>
<path d="M36.2035 121.97C37.9894 121.589 39.0046 119.43 38.4709 117.147C37.9373 114.864 36.0569 113.322 34.271 113.704C32.4851 114.085 31.47 116.244 32.0036 118.527C32.5373 120.81 34.4176 122.351 36.2035 121.97Z" fill="#3F3D56"/>
<path d="M34.9478 116.935C36.7337 116.554 37.7488 114.394 37.2152 112.112C36.6815 109.829 34.8012 108.287 33.0153 108.668C31.2294 109.049 30.2142 111.209 30.7479 113.492C31.2815 115.774 33.1619 117.316 34.9478 116.935Z" fill="#3F3D56"/>
<path d="M37.4272 75.4737C37.7317 74.8212 37.9889 74.1494 38.197 73.4631L29.4161 74.1231L38.5688 72.0076C39.0061 69.8086 38.9507 67.546 38.4063 65.3689C37.929 63.4416 37.0734 61.6183 35.8847 59.9956L25.172 69.1469L34.4461 58.315C30.6601 54.4531 24.9335 52.6159 19.242 53.9806C10.7377 56.0121 5.52618 64.407 7.6014 72.7305C8.42631 76.0925 10.4039 79.0946 13.2197 81.2595C12.7467 82.2757 12.3871 83.3368 12.147 84.425L24.5017 87.3808L11.8543 86.3336C11.703 88.0207 11.8354 89.72 12.2465 91.3671C13.0728 94.7289 15.0507 97.7307 17.8663 99.8961C16.3866 103.07 16.0451 106.622 16.8945 110.001C18.9698 118.324 27.5458 123.424 36.0501 121.394C44.5544 119.363 49.7659 110.969 47.6907 102.645C46.8643 99.2832 44.8864 96.2814 42.0709 94.116C43.5505 90.9418 43.8921 87.3898 43.0426 84.0112C42.22 80.6466 40.2434 77.6415 37.4272 75.4737Z" fill="#B01873"/>
<path opacity="0.1" d="M12.2495 91.3622C13.0759 94.724 15.0538 97.7258 17.8693 99.8912C16.3897 103.065 16.0481 106.617 16.8976 109.996C18.9728 118.32 27.5488 123.419 36.0531 121.389C44.5574 119.358 49.7689 110.964 47.6937 102.64C46.8674 99.2783 44.8895 96.2765 42.0739 94.111C43.4993 91.0546 11.828 89.6745 12.2495 91.3622Z" fill="black"/>
</g>
<path d="M26.8842 141.293C29.6161 141.293 31.8308 140.886 31.8308 140.384C31.8308 139.882 29.6161 139.476 26.8842 139.476C24.1523 139.476 21.9376 139.882 21.9376 140.384C21.9376 140.886 24.1523 141.293 26.8842 141.293Z" fill="#B01873"/>
<path d="M26.8007 140.718C27.1192 140.718 27.3773 140.396 27.3773 139.998C27.3773 139.601 27.1192 139.278 26.8007 139.278C26.4823 139.278 26.2241 139.601 26.2241 139.998C26.2241 140.396 26.4823 140.718 26.8007 140.718Z" fill="#3F3D56"/>
<path d="M26.8007 139.839C27.1192 139.839 27.3773 139.516 27.3773 139.119C27.3773 138.721 27.1192 138.398 26.8007 138.398C26.4823 138.398 26.2241 138.721 26.2241 139.119C26.2241 139.516 26.4823 139.839 26.8007 139.839Z" fill="#3F3D56"/>
<path d="M26.8007 138.958C27.1192 138.958 27.3773 138.635 27.3773 138.238C27.3773 137.84 27.1192 137.518 26.8007 137.518C26.4823 137.518 26.2241 137.84 26.2241 138.238C26.2241 138.635 26.4823 138.958 26.8007 138.958Z" fill="#3F3D56"/>
<path d="M26.8007 138.078C27.1192 138.078 27.3773 137.755 27.3773 137.358C27.3773 136.96 27.1192 136.638 26.8007 136.638C26.4823 136.638 26.2241 136.96 26.2241 137.358C26.2241 137.755 26.4823 138.078 26.8007 138.078Z" fill="#3F3D56"/>
<path d="M26.8007 137.197C27.1192 137.197 27.3773 136.875 27.3773 136.477C27.3773 136.079 27.1192 135.757 26.8007 135.757C26.4823 135.757 26.2241 136.079 26.2241 136.477C26.2241 136.875 26.4823 137.197 26.8007 137.197Z" fill="#3F3D56"/>
<path d="M26.8007 136.316C27.1192 136.316 27.3773 135.994 27.3773 135.596C27.3773 135.198 27.1192 134.876 26.8007 134.876C26.4823 134.876 26.2241 135.198 26.2241 135.596C26.2241 135.994 26.4823 136.316 26.8007 136.316Z" fill="#3F3D56"/>
<path d="M26.8007 135.437C27.1192 135.437 27.3773 135.115 27.3773 134.717C27.3773 134.319 27.1192 133.997 26.8007 133.997C26.4823 133.997 26.2241 134.319 26.2241 134.717C26.2241 135.115 26.4823 135.437 26.8007 135.437Z" fill="#3F3D56"/>
<path d="M28.9581 128.692C29.0361 128.596 29.1075 128.495 29.1717 128.39L27.66 128.153L29.2961 128.165C29.4536 127.839 29.5395 127.485 29.5485 127.126C29.5576 126.767 29.4896 126.409 29.3488 126.076L27.1536 127.164L29.1776 125.749C28.9871 125.437 28.7316 125.166 28.4269 124.953C28.1222 124.739 27.7749 124.588 27.4064 124.508C27.038 124.428 26.6563 124.421 26.2849 124.488C25.9136 124.555 25.5606 124.694 25.2478 124.896C24.935 125.099 24.6691 125.36 24.4665 125.665C24.264 125.97 24.1291 126.311 24.0702 126.668C24.0114 127.024 24.0299 127.389 24.1245 127.738C24.2191 128.087 24.3879 128.415 24.6203 128.699C24.498 128.849 24.3925 129.01 24.3056 129.18L26.2711 130.159L24.1754 129.488C24.028 129.903 23.9909 130.346 24.0675 130.778C24.1442 131.21 24.3321 131.617 24.6144 131.963C24.2946 132.352 24.0956 132.818 24.0404 133.31C23.9852 133.802 24.0759 134.299 24.3021 134.743C24.5283 135.188 24.881 135.563 25.3197 135.826C25.7585 136.088 26.2657 136.227 26.7833 136.227C27.301 136.227 27.8081 136.088 28.2469 135.826C28.6857 135.563 29.0383 135.188 29.2646 134.743C29.4908 134.299 29.5815 133.802 29.5263 133.31C29.471 132.818 29.2721 132.352 28.9522 131.963C29.3343 131.498 29.5419 130.924 29.5419 130.333C29.5419 129.742 29.3343 129.168 28.9522 128.703L28.9581 128.692Z" fill="#B01873"/>
<path opacity="0.1" d="M24.0304 130.32C24.0285 130.911 24.2347 131.485 24.6158 131.95C24.2959 132.339 24.097 132.806 24.0418 133.298C23.9865 133.789 24.0772 134.286 24.3034 134.731C24.5297 135.176 24.8823 135.551 25.3211 135.813C25.7599 136.075 26.267 136.215 26.7847 136.215C27.3023 136.215 27.8095 136.075 28.2483 135.813C28.687 135.551 29.0397 135.176 29.2659 134.731C29.4922 134.286 29.5828 133.789 29.5276 133.298C29.4724 132.806 29.2734 132.339 28.9536 131.95C29.3268 131.501 24.0304 130.025 24.0304 130.32Z" fill="black"/>
<path d="M52.9284 100.361C52.5552 98.4963 52.1381 96.6269 52.0693 94.7295C52.0284 93.611 52.1103 92.4728 51.9596 91.3571C51.8849 90.809 51.7547 90.2707 51.6259 89.7324L51.1078 87.5777C51.1666 87.1647 51.1497 86.745 51.0581 86.3375C51.0062 86.1226 50.9372 85.9118 50.8517 85.7069C51.3353 85.0567 51.7339 84.3523 52.0386 83.6096C52.1762 83.2741 52.2947 82.9175 52.2406 82.5624C52.1352 81.8815 51.4444 81.4326 50.802 81.0971C50.4127 80.8943 50.0029 80.6986 49.558 80.6664C49.2469 80.6544 48.9371 80.7113 48.6527 80.8326C48.3684 80.9538 48.1173 81.1362 47.9189 81.3655C47.8108 80.8143 47.847 80.2461 48.0243 79.7114C47.6423 79.5478 47.2574 79.394 46.8696 79.2444C46.8135 78.7612 46.7939 78.2748 46.811 77.7889C46.8198 77.2059 46.8301 76.6172 46.8652 76.0328C47.9059 75.6699 48.8056 75.0115 49.4434 74.146C50.0812 73.2805 50.4265 72.2493 50.4332 71.1908C50.4332 71.1307 50.4332 71.0719 50.4332 71.0132C50.7168 70.5261 50.8962 69.9899 50.9611 69.4359C51.0259 68.8819 50.9748 68.3211 50.8107 67.7862C50.3819 66.388 49.2609 65.2358 47.9101 64.5242C46.5593 63.8125 44.9934 63.5119 43.4435 63.4587C42.9234 63.4296 42.4015 63.4611 41.8893 63.5524C41.3411 63.6813 40.8099 63.8689 40.3058 64.1117C39.5316 64.4529 38.7516 64.8262 38.1721 65.4148C37.1667 66.4397 36.9413 67.9456 37.051 69.3298C37.1974 71.1474 37.8325 72.9064 38.5672 74.5982C38.8116 75.1575 39.0721 75.7252 39.4746 76.202C39.7863 76.5697 40.3278 76.592 40.758 76.3348C40.7239 76.7814 40.7131 77.2294 40.7259 77.6771C39.9312 77.6505 39.157 77.7749 38.5189 78.2028C38.2262 78.4027 37.9482 78.7173 38.0125 79.0557C38.208 79.0606 38.3954 79.1314 38.5416 79.2555C38.6878 79.3795 38.7834 79.5489 38.8116 79.7338C38.8438 80.0316 38.6872 80.3155 38.535 80.5727C38.4692 80.6874 38.4033 80.8034 38.336 80.9181C37.7067 81.5613 37.0613 82.3666 37.0042 83.165C36.9015 83.1743 36.7994 83.1888 36.6983 83.2083C36.1276 83.309 35.5597 83.495 34.9992 83.6348L30.9424 84.6555L29.94 84.9211L28.3301 85.3266C27.3057 85.5839 26.2622 85.8482 25.3534 86.3655C24.4446 86.8828 23.6733 87.6952 23.4904 88.6739C23.3996 89.1605 23.4553 89.6666 23.344 90.149C23.344 90.1714 23.3352 90.1924 23.3294 90.2133C23.2364 90.5187 23.1114 90.8143 22.9562 91.0956C22.0474 92.9259 21.4005 94.9211 21.522 96.9359C21.5966 98.1733 21.961 99.38 22.3152 100.571C22.6869 101.79 23.0538 103.008 23.4157 104.226C23.6544 105.098 23.9571 105.953 24.3216 106.785C24.9461 108.117 25.8723 109.3 27.0335 110.248C27.3593 110.527 27.7237 110.763 28.1165 110.947C28.7153 111.195 29.369 111.296 30.019 111.242C30.1946 111.231 30.3673 111.213 30.5385 111.186C31.7957 110.996 32.9679 110.417 34.0436 109.766C34.4934 109.494 34.9324 109.207 35.3607 108.906C35.4151 109.376 35.5131 109.84 35.6534 110.293C35.7485 110.605 35.8656 110.925 35.8276 111.248C35.7749 111.698 35.4324 112.067 35.2553 112.49C34.8792 113.382 35.2656 114.376 35.3285 115.332C35.3885 116.228 35.1602 117.118 34.9773 118C34.6718 119.471 34.4912 120.964 34.4373 122.463C34.4356 123.03 34.3965 123.597 34.3202 124.16C34.1841 124.954 33.865 125.721 33.8094 126.523C33.7245 127.773 34.2894 128.997 34.2382 130.248C34.1782 131.718 33.2752 133.145 33.5899 134.583C33.6294 134.763 33.7362 134.971 33.9089 135.017L33.8241 135.091C33.565 135.321 33.3133 135.744 33.6075 135.93C33.6751 135.969 33.7503 135.994 33.8284 136.003C34.2836 136.094 34.7417 136.176 35.1997 136.253C35.1897 136.658 35.2429 137.061 35.3578 137.45C35.4412 137.508 35.5261 137.559 35.611 137.608C35.5466 137.773 35.551 137.933 35.7032 138.028C35.7708 138.066 35.8461 138.091 35.9242 138.1C39.694 138.844 43.5441 139.149 47.3906 139.009C48.0784 138.984 48.797 138.937 49.3838 138.601C49.9707 138.265 50.3673 137.551 50.0878 136.962C49.8404 136.442 49.1936 136.217 48.6126 136.044L47.9306 135.842C48.018 135.694 48.0689 135.529 48.0796 135.36C48.0902 135.19 48.0603 135.02 47.9921 134.864C47.7447 134.343 47.0979 134.118 46.5169 133.945L44.9465 133.479C44.7399 133.433 44.5455 133.345 44.3758 133.223C44.2633 133.117 44.1596 133.002 44.0655 132.88C43.8389 132.632 43.5412 132.454 43.2094 132.366C43.1917 132.048 43.1991 131.73 43.2313 131.413L43.6704 126.35C43.7684 125.203 43.865 124.034 43.5855 122.915C43.4728 122.46 43.2928 121.994 43.4026 121.539C43.5738 120.795 44.3933 120.381 44.9524 119.829C45.7954 118.99 46.0573 117.797 46.2505 116.662C47.0505 111.977 47.3018 107.221 46.9998 102.483C48.7567 102.009 50.5648 101.732 52.3884 101.655C52.6986 101.642 52.8508 101.502 52.9474 101.226C53.044 100.949 52.9855 100.648 52.9284 100.361ZM44.1694 100.609C44.1797 100.56 44.1914 100.511 44.2002 100.462L44.3216 100.61L44.1694 100.609Z" fill="url(#paint0_linear_873_62689)"/>
<path d="M41.3158 74.9449C41.2777 75.4315 41.0977 75.8985 41.0318 76.3837C40.9572 76.9178 41.0231 77.4617 40.9865 78C40.9499 78.5383 40.7874 79.1046 40.3586 79.4555C42.8509 79.6617 45.3058 80.1691 47.6644 80.9656C46.9517 80.1266 46.9326 78.955 46.9502 77.8783C46.9736 76.2858 47.0029 74.6625 47.5473 73.1594C45.9235 72.8126 44.2421 72.7917 42.6095 73.0979C42.2553 73.165 41.1826 73.1231 41.0231 73.439C40.9075 73.6711 41.3421 74.5926 41.3158 74.9449Z" fill="#A1616A"/>
<path opacity="0.1" d="M41.3158 74.9449C41.2777 75.4315 41.0977 75.8985 41.0318 76.3837C40.9572 76.9178 41.0231 77.4617 40.9865 78C40.9499 78.5383 40.7874 79.1046 40.3586 79.4555C42.8509 79.6617 45.3058 80.1691 47.6644 80.9656C46.9517 80.1266 46.9326 78.955 46.9502 77.8783C46.9736 76.2858 47.0029 74.6625 47.5473 73.1594C45.9235 72.8126 44.2421 72.7917 42.6095 73.0979C42.2553 73.165 41.1826 73.1231 41.0231 73.439C40.9075 73.6711 41.3421 74.5926 41.3158 74.9449Z" fill="black"/>
<path d="M44.2661 132.886C44.354 133.01 44.4519 133.128 44.5588 133.237C44.7236 133.359 44.9136 133.446 45.1164 133.493L46.6501 133.959C47.2194 134.132 47.8516 134.356 48.0931 134.876C48.3653 135.463 47.9775 136.178 47.4038 136.512C46.8301 136.846 46.1276 136.895 45.4559 136.92C41.6948 137.058 37.9301 136.754 34.247 136.013C34.171 136.002 34.0979 135.977 34.0319 135.94C33.7392 135.751 33.9895 135.329 34.2427 135.101C35.2305 134.206 36.3047 133.268 37.6497 133.061C38.3565 132.95 39.0663 132.995 39.7688 132.834C40.2737 132.718 40.7508 132.518 41.2542 132.4C42.1923 132.18 43.5958 132.102 44.2661 132.886Z" fill="#46455B"/>
<path opacity="0.1" d="M44.2661 132.886C44.354 133.01 44.4519 133.128 44.5588 133.237C44.7236 133.359 44.9136 133.446 45.1164 133.493L46.6501 133.959C47.2194 134.132 47.8516 134.356 48.0931 134.876C48.3653 135.463 47.9775 136.178 47.4038 136.512C46.8301 136.846 46.1276 136.895 45.4559 136.92C41.6948 137.058 37.9301 136.754 34.247 136.013C34.171 136.002 34.0979 135.977 34.0319 135.94C33.7392 135.751 33.9895 135.329 34.2427 135.101C35.2305 134.206 36.3047 133.268 37.6497 133.061C38.3565 132.95 39.0663 132.995 39.7688 132.834C40.2737 132.718 40.7508 132.518 41.2542 132.4C42.1923 132.18 43.5958 132.102 44.2661 132.886Z" fill="black"/>
<path d="M36.5651 101.262C35.8083 103.17 35.7618 105.269 36.4334 107.206C35.9226 107.153 35.7017 107.813 35.7148 108.305C35.733 108.99 35.8417 109.67 36.0383 110.329C36.1319 110.642 36.2461 110.961 36.2095 111.283C36.1568 111.733 35.8231 112.102 35.649 112.523C35.2831 113.414 35.6592 114.406 35.7221 115.361C35.7807 116.258 35.5568 117.146 35.3768 118.026C35.0786 119.496 34.9024 120.986 34.8499 122.482C34.8488 123.05 34.8102 123.616 34.7343 124.178C34.6026 124.973 34.2952 125.737 34.2367 126.539C34.1533 127.786 34.705 129.009 34.6553 130.259C34.5967 131.726 33.7128 133.152 34.0216 134.594C34.0655 134.796 34.184 135.036 34.4021 135.038C36.609 135.065 38.6711 134.479 40.8546 134.785C41.077 129.959 41.2936 125.11 42.2888 120.371C43.1669 116.153 44.6553 111.982 44.5162 107.681C44.4357 105.222 43.824 102.81 43.4523 100.374C41.119 99.8791 38.6776 100.194 36.5651 101.262Z" fill="#BBBDC8"/>
<path opacity="0.1" d="M36.5651 101.262C35.8083 103.17 35.7618 105.269 36.4334 107.206C35.9226 107.153 35.7017 107.813 35.7148 108.305C35.733 108.99 35.8417 109.67 36.0383 110.329C36.1319 110.642 36.2461 110.961 36.2095 111.283C36.1568 111.733 35.8231 112.102 35.649 112.523C35.2831 113.414 35.6592 114.406 35.7221 115.361C35.7807 116.258 35.5568 117.146 35.3768 118.026C35.0786 119.496 34.9024 120.986 34.8499 122.482C34.8488 123.05 34.8102 123.616 34.7343 124.178C34.6026 124.973 34.2952 125.737 34.2367 126.539C34.1533 127.786 34.705 129.009 34.6553 130.259C34.5967 131.726 33.7128 133.152 34.0216 134.594C34.0655 134.796 34.184 135.036 34.4021 135.038C36.609 135.065 38.6711 134.479 40.8546 134.785C41.077 129.959 41.2936 125.11 42.2888 120.371C43.1669 116.153 44.6553 111.982 44.5162 107.681C44.4357 105.222 43.824 102.81 43.4523 100.374C41.119 99.8791 38.6776 100.194 36.5651 101.262Z" fill="black"/>
<path d="M46.3149 134.984C46.4028 135.108 46.5007 135.225 46.6076 135.335C46.7724 135.457 46.9625 135.544 47.1652 135.591L48.6989 136.056C49.2682 136.23 49.9004 136.453 50.1419 136.973C50.4141 137.561 50.0263 138.275 49.4526 138.609C48.8789 138.944 48.1765 138.992 47.5047 139.018C43.7436 139.156 39.979 138.851 36.2959 138.11C36.2199 138.1 36.1468 138.075 36.0807 138.038C35.788 137.849 36.0383 137.426 36.2915 137.199C37.2793 136.304 38.3535 135.366 39.6985 135.159C40.4053 135.048 41.1151 135.093 41.8176 134.932C42.3225 134.816 42.7996 134.616 43.303 134.497C44.2411 134.278 45.6446 134.199 46.3149 134.984Z" fill="#46455B"/>
<path d="M37.3261 101.401C36.7612 102.1 36.5944 103.022 36.6705 103.898C36.7466 104.773 37.0554 105.613 37.3583 106.442C36.9559 106.796 37.0393 107.406 37.092 107.926C37.2837 109.858 36.5812 111.786 36.6837 113.724C36.7261 114.539 36.912 115.343 36.9559 116.159C37.0042 117.049 36.8856 117.94 36.7744 118.825C36.0639 124.491 35.6731 130.189 35.6036 135.896C35.6036 136.421 35.5948 136.955 35.75 137.459C36.8139 138.207 38.1501 138.308 39.4379 138.028C40.7258 137.748 41.901 137.125 43.0557 136.509C43.6883 136.197 44.2881 135.827 44.847 135.405C45.018 135.289 45.1444 135.123 45.207 134.932C45.3299 134.373 44.5162 134.12 44.0494 133.758C43.3703 133.231 43.3806 132.255 43.4508 131.421L43.8752 126.365C43.9718 125.22 44.0655 124.053 43.7933 122.934C43.682 122.481 43.5108 122.016 43.6133 121.56C43.7801 120.819 44.5821 120.405 45.128 119.853C45.9534 119.014 46.208 117.824 46.3983 116.691C47.2949 111.318 47.4857 105.86 46.9661 100.441C45.8905 100.798 44.6158 100.604 43.4816 100.687C42.3473 100.771 41.2205 101.134 40.0716 101.163C39.1145 101.184 37.9144 100.679 37.3261 101.401Z" fill="#BBBDC8"/>
<path d="M45.0754 76.4619C48.066 76.4619 50.4903 74.1457 50.4903 71.2886C50.4903 68.4314 48.066 66.1152 45.0754 66.1152C42.0849 66.1152 39.6605 68.4314 39.6605 71.2886C39.6605 74.1457 42.0849 76.4619 45.0754 76.4619Z" fill="#A1616A"/>
<path d="M48.1355 79.7984C46.4004 79.037 44.5911 78.4404 42.7338 78.0171C41.4254 77.7193 39.9312 77.5403 38.838 78.2884C38.5453 78.4883 38.2804 78.8029 38.3433 79.1413C38.5363 79.1474 38.7206 79.2188 38.8635 79.3427C39.0064 79.4667 39.0985 79.6351 39.1234 79.818C39.1556 80.1144 39.0034 80.3982 38.8541 80.6569L37.5911 82.894C37.3491 83.297 37.1411 83.7178 36.9691 84.1524C36.7145 84.8627 36.6589 85.6233 36.6047 86.3728L36.4584 88.403C36.3676 89.6823 36.2754 90.9673 36.3969 92.2438C36.4876 93.2072 36.6984 94.1747 36.555 95.1325C36.4394 95.9029 36.0984 96.6258 35.9066 97.3836C35.5466 98.8098 35.7105 100.373 35.0125 101.682C35.296 101.557 35.616 101.529 35.9183 101.603C38.0375 101.977 39.7044 103.575 41.762 104.186C42.2816 103.462 42.9855 102.927 43.5665 102.254C43.9986 101.748 44.2847 101.144 44.3963 100.5C44.8354 101.059 45.2086 101.496 45.4705 102.144C45.5171 102.295 45.597 102.435 45.7047 102.554C45.9813 102.811 46.4364 102.712 46.8067 102.604C48.6219 102.081 50.4985 101.777 52.3928 101.7C52.6972 101.687 52.845 101.547 52.9402 101.271C53.0353 100.994 52.9826 100.695 52.9255 100.409C52.5611 98.5455 52.1543 96.6789 52.0869 94.7844C52.046 93.6658 52.1265 92.5319 51.9786 91.4161C51.9055 90.8694 51.7782 90.3311 51.6523 89.7942L50.6074 85.3577C50.5488 85.1102 50.2708 84.948 50.1522 84.7201C49.6722 83.7917 48.7546 83.1205 48.2804 82.1893C47.9222 81.4374 47.8706 80.5848 48.1355 79.7984Z" fill="#46455B"/>
<path d="M40.5386 73.3591C40.5323 73.2866 40.5502 73.2142 40.5898 73.1521C40.6477 73.0941 40.7203 73.0512 40.8006 73.0277C41.0188 72.9287 41.1973 72.7645 41.309 72.5598C41.4207 72.3552 41.4595 72.1214 41.4196 71.8938L41.9319 71.7917L41.948 70.0873C42.709 69.6846 43.7466 69.9894 44.4622 69.5154C44.8647 69.247 45.071 68.7911 45.3169 68.3857C45.5628 67.9802 45.9286 67.5719 46.4174 67.5384C46.2494 67.9469 46.1773 68.3857 46.2064 68.8237C46.2355 69.2618 46.365 69.6884 46.5857 70.0733C47.0982 69.8255 47.5262 69.4433 47.8195 68.9715L48.0741 70.3697C48.0792 70.4559 48.1179 70.5372 48.1824 70.5976C48.3156 70.6913 48.4956 70.5739 48.6127 70.4578L49.2756 69.8356C49.5546 70.5045 49.7459 71.2038 49.8449 71.9175C50.9338 70.908 51.2718 69.2861 50.8533 67.8935C50.4347 66.5009 49.3386 65.3474 48.0185 64.6357C46.6984 63.924 45.1676 63.6248 43.6529 63.5717C43.1444 63.5432 42.6342 63.5747 42.1338 63.6653C41.5969 63.7944 41.0774 63.982 40.5855 64.2246C39.8288 64.5644 39.0649 64.9377 38.5 65.5249C37.5165 66.5484 37.2955 68.0529 37.4038 69.4399C37.5502 71.2576 38.1678 73.0123 38.8863 74.7013C39.1249 75.2606 39.3795 75.8269 39.7732 76.3037C40.3659 77.021 41.8221 76.4253 41.6362 75.0076C41.5074 73.9953 40.5386 74.3854 40.5386 73.3591Z" fill="#3F3D56"/>
<path d="M42.5875 101.056C40.7611 104.621 37.9564 107.646 34.4724 109.809C33.4202 110.459 32.2772 111.038 31.0464 111.228C30.8781 111.254 30.7098 111.273 30.5386 111.284C29.9039 111.334 29.2662 111.231 28.6843 110.983C28.2991 110.798 27.9426 110.563 27.6248 110.284C26.4859 109.332 25.5809 108.151 24.9744 106.826C24.6179 105.995 24.322 105.141 24.089 104.27C23.73 103.053 23.3719 101.835 23.0148 100.617C22.665 99.4256 22.3123 98.2203 22.2391 96.9815C22.1206 94.9695 22.7528 92.9771 23.6412 91.1496C23.7927 90.8682 23.9147 90.5731 24.0056 90.2687C24.0056 90.2478 24.0158 90.2268 24.0202 90.2044C24.1256 89.7221 24.0714 89.2173 24.1666 88.7307C24.3451 87.752 25.1003 86.941 25.9871 86.4251C26.874 85.9092 27.8897 85.6449 28.898 85.3876L30.4683 84.9835L31.443 84.7333L35.4076 83.714C35.9564 83.5741 36.5111 83.3882 37.0687 83.2945C37.6906 83.1827 37.6862 83.2414 37.7345 83.823C37.8238 84.8773 37.7945 85.9133 38.0272 86.9578C38.2482 87.9547 38.6375 88.9153 38.9302 89.894C39.6693 92.3647 39.7922 94.9653 40.3747 97.4751C40.5078 98.047 40.6922 98.6566 41.1737 99.0131C41.7255 99.4326 42.6548 99.536 42.8011 100.193C42.8553 100.485 42.7192 100.785 42.5875 101.056Z" fill="#B01873"/>
<path opacity="0.1" d="M31.0464 111.223C30.8781 111.249 30.7098 111.268 30.5386 111.279C29.9044 111.331 29.2667 111.229 28.6843 110.984C28.2991 110.798 27.9426 110.563 27.6248 110.285C26.4859 109.332 25.5809 108.152 24.9744 106.827C24.6179 105.995 24.322 105.141 24.089 104.271C23.73 103.054 23.3719 101.836 23.0148 100.617C22.665 99.4262 22.3123 98.221 22.2391 96.9822C22.1206 94.9702 22.7528 92.9777 23.6412 91.1503C23.7927 90.8688 23.9147 90.5738 24.0056 90.2694C24.0056 90.2484 24.0158 90.2274 24.0202 90.2051C26.4086 90.6064 29.2741 94.9715 30.7522 100.692C31.8411 104.969 31.8879 108.907 31.0464 111.223Z" fill="black"/>
<path opacity="0.1" d="M35.3636 96.1718L34.9641 96.2375C34.5528 95.2056 34.1431 94.1724 33.6616 93.1685C33.4113 92.6441 33.1406 92.1268 32.9298 91.5857C32.1396 89.508 32.2742 87.0429 30.8092 85.3315C30.7047 85.2044 30.5854 85.089 30.4536 84.9876L31.4283 84.7373C32.2818 86.0266 32.8838 87.453 33.205 88.9473C33.363 89.6772 33.4523 90.4238 33.7099 91.1257C33.929 91.6581 34.1796 92.1781 34.4606 92.6833C35.0168 93.7725 35.4353 94.9624 35.3636 96.1718Z" fill="black"/>
<path d="M39.2536 80.4193C40.3059 79.5581 41.7416 79.0855 43.1041 79.3008C43.9061 79.4252 44.651 79.7706 45.3696 80.1397C46.7701 80.85 48.1502 81.6679 49.16 82.8354C49.7655 83.5718 50.2683 84.3802 50.6557 85.2403C50.8456 85.6162 50.9928 86.0104 51.0947 86.4162C51.4518 87.9962 50.5752 89.5664 49.7307 90.9674L48.1063 93.6603C47.3599 94.8977 46.6077 96.1435 45.6359 97.2299C45.1881 97.7305 44.6963 98.1933 44.2061 98.6561L42.0533 100.686C42.0146 100.73 41.9639 100.762 41.9069 100.78C41.8599 100.782 41.813 100.775 41.7693 100.758C41.7255 100.742 41.6861 100.716 41.6538 100.683L40.9425 100.142C41.5976 99.71 42.2065 99.2168 42.7602 98.6701C43.6909 97.7501 44.4563 96.6916 45.2173 95.6374L47.5853 92.3572C48.2775 91.3966 49.0005 90.3396 48.9229 89.1763C48.8863 88.617 48.6668 88.0913 48.437 87.5781C48.0302 86.6656 47.5882 85.7675 47.1111 84.8838C46.5755 83.8925 45.9901 82.9137 45.2188 82.0762C44.4476 81.2387 43.4729 80.5382 42.3504 80.2348C42.0156 80.1303 41.6608 80.0978 41.3113 80.1397C40.5415 80.2613 39.9942 80.8933 39.5068 81.4806L38.0229 83.2982C37.6848 83.7107 37.3745 84.1889 37.354 83.4059C37.3189 82.2887 38.5014 81.138 39.2536 80.4193Z" fill="#B01873"/>
<path d="M39.7132 92.6809C40.0059 93.7575 40.4376 94.9795 41.5221 95.3878C42.2904 95.6772 43.1904 95.4423 43.8549 94.9683C44.5193 94.4943 44.9905 93.826 45.4237 93.1507C45.7904 92.5438 46.1945 91.9583 46.634 91.3973C47.5019 90.3571 48.6829 89.5321 49.2683 88.3213C49.441 87.9605 49.561 87.5746 49.7571 87.2279C49.9667 86.9082 50.2036 86.6056 50.4654 86.3232C51.1393 85.5257 51.678 84.6321 52.0621 83.675C52.1967 83.3409 52.3124 82.9829 52.2597 82.6292C52.1558 81.9483 51.4811 81.5008 50.8532 81.1667C50.4713 80.9639 50.0717 80.7668 49.6371 80.736C49.0019 80.6885 48.377 81.0157 47.9863 81.4953C47.6101 81.9913 47.3999 82.5845 47.3833 83.1969C47.3394 83.9421 47.4916 84.7167 47.237 85.4214C47.1023 85.7502 46.9163 86.0575 46.6852 86.333C45.8632 87.3838 44.8457 88.281 43.6836 88.9798C43.6518 88.4509 43.5317 87.9303 43.328 87.4376C43.2168 87.1664 41.0362 87.4376 40.7523 87.4824C40.1903 87.5607 39.1015 87.6222 38.7473 88.1339C38.3931 88.6457 38.8322 89.5056 38.9756 90.0215L39.7132 92.6809Z" fill="#A1616A"/>
<path d="M39.6605 80.9309C39.3366 81.1866 39.0351 81.4672 38.759 81.7698C38.1092 82.5178 37.7916 83.491 37.7097 84.4599C37.6277 85.4289 37.7668 86.4021 37.9409 87.3598C38.099 88.2193 38.2858 89.0726 38.5014 89.9199C38.5614 89.281 39.1029 88.7524 39.7308 88.5217C40.3586 88.291 41.0479 88.3162 41.7167 88.4099C42.5775 88.5317 43.4173 88.7635 44.2134 89.0992L44.5222 84.9647C44.5872 84.4069 44.5838 83.8438 44.512 83.2869C44.4147 82.77 44.2034 82.2789 43.892 81.8461C43.5806 81.4134 43.1763 81.0489 42.706 80.7771C41.5323 80.0948 40.7142 80.0514 39.6605 80.9309Z" fill="#46455B"/>
<path opacity="0.1" d="M50.1975 49.8954C50.7633 49.8954 51.222 49.4574 51.222 48.917C51.222 48.3766 50.7633 47.9385 50.1975 47.9385C49.6318 47.9385 49.1731 48.3766 49.1731 48.917C49.1731 49.4574 49.6318 49.8954 50.1975 49.8954Z" fill="#B01873"/>
<path opacity="0.1" d="M37.6116 50.874C38.1774 50.874 38.636 50.4359 38.636 49.8955C38.636 49.3551 38.1774 48.917 37.6116 48.917C37.0458 48.917 36.5872 49.3551 36.5872 49.8955C36.5872 50.4359 37.0458 50.874 37.6116 50.874Z" fill="#B01873"/>
<path opacity="0.1" d="M6.1466 97.015C7.60147 97.015 8.78088 95.8882 8.78088 94.4982C8.78088 93.1082 7.60147 91.9814 6.1466 91.9814C4.69173 91.9814 3.51233 93.1082 3.51233 94.4982C3.51233 95.8882 4.69173 97.015 6.1466 97.015Z" fill="#B01873"/>
<path opacity="0.1" d="M48.1487 57.7246C48.7145 57.7246 49.1731 57.2865 49.1731 56.7461C49.1731 56.2057 48.7145 55.7676 48.1487 55.7676C47.5829 55.7676 47.1243 56.2057 47.1243 56.7461C47.1243 57.2865 47.5829 57.7246 48.1487 57.7246Z" fill="#B01873"/>
<path opacity="0.1" d="M9.80532 107.222C10.3711 107.222 10.8298 106.784 10.8298 106.243C10.8298 105.703 10.3711 105.265 9.80532 105.265C9.23954 105.265 8.78088 105.703 8.78088 106.243C8.78088 106.784 9.23954 107.222 9.80532 107.222Z" fill="#B01873"/>
<path opacity="0.1" d="M8.19558 84.8496C8.76137 84.8496 9.22002 84.4115 9.22002 83.8711C9.22002 83.3307 8.76137 82.8926 8.19558 82.8926C7.6298 82.8926 7.17114 83.3307 7.17114 83.8711C7.17114 84.4115 7.6298 84.8496 8.19558 84.8496Z" fill="#B01873"/>
<path opacity="0.1" d="M38.4165 143.297C59.6334 143.297 76.833 141.356 76.833 138.962C76.833 136.569 59.6334 134.628 38.4165 134.628C17.1997 134.628 0 136.569 0 138.962C0 141.356 17.1997 143.297 38.4165 143.297Z" fill="#B01873"/>
<path d="M85.072 71.5745V72.4625H82.792V79.9385H81.7V72.4625H79.408V71.5745H85.072ZM89.6802 73.2425C90.1762 73.2425 90.6242 73.3505 91.0242 73.5665C91.4242 73.7745 91.7362 74.0905 91.9602 74.5145C92.1922 74.9385 92.3082 75.4545 92.3082 76.0625V79.9385H91.2282V76.2185C91.2282 75.5625 91.0642 75.0625 90.7362 74.7185C90.4082 74.3665 89.9602 74.1905 89.3922 74.1905C88.8162 74.1905 88.3562 74.3705 88.0122 74.7305C87.6762 75.0905 87.5082 75.6145 87.5082 76.3025V79.9385H86.4162V71.0585H87.5082V74.2985C87.7242 73.9625 88.0202 73.7025 88.3962 73.5185C88.7802 73.3345 89.2082 73.2425 89.6802 73.2425ZM100.092 76.3985C100.092 76.6065 100.08 76.8265 100.056 77.0585H94.8C94.84 77.7065 95.06 78.2145 95.46 78.5825C95.868 78.9425 96.36 79.1225 96.936 79.1225C97.408 79.1225 97.8 79.0145 98.112 78.7985C98.432 78.5745 98.656 78.2785 98.784 77.9105H99.96C99.784 78.5425 99.432 79.0585 98.904 79.4585C98.376 79.8505 97.72 80.0465 96.936 80.0465C96.312 80.0465 95.752 79.9065 95.256 79.6265C94.768 79.3465 94.384 78.9505 94.104 78.4385C93.824 77.9185 93.684 77.3185 93.684 76.6385C93.684 75.9585 93.82 75.3625 94.092 74.8505C94.364 74.3385 94.744 73.9465 95.232 73.6745C95.728 73.3945 96.296 73.2545 96.936 73.2545C97.56 73.2545 98.112 73.3905 98.592 73.6625C99.072 73.9345 99.44 74.3105 99.696 74.7905C99.96 75.2625 100.092 75.7985 100.092 76.3985ZM98.964 76.1705C98.964 75.7545 98.872 75.3985 98.688 75.1025C98.504 74.7985 98.252 74.5705 97.932 74.4185C97.62 74.2585 97.272 74.1785 96.888 74.1785C96.336 74.1785 95.864 74.3545 95.472 74.7065C95.088 75.0585 94.868 75.5465 94.812 76.1705H98.964ZM104.265 72.2585V71.2625H106.521V79.9385H105.417V72.2585H104.265ZM113.232 73.3265C113.056 72.4385 112.508 71.9945 111.588 71.9945C110.876 71.9945 110.344 72.2705 109.992 72.8225C109.64 73.3665 109.468 74.2665 109.476 75.5225C109.66 75.1065 109.964 74.7825 110.388 74.5505C110.82 74.3105 111.3 74.1905 111.828 74.1905C112.652 74.1905 113.308 74.4465 113.796 74.9585C114.292 75.4705 114.54 76.1785 114.54 77.0825C114.54 77.6265 114.432 78.1145 114.216 78.5465C114.008 78.9785 113.688 79.3225 113.256 79.5785C112.832 79.8345 112.316 79.9625 111.708 79.9625C110.884 79.9625 110.24 79.7785 109.776 79.4105C109.312 79.0425 108.988 78.5345 108.804 77.8865C108.62 77.2385 108.528 76.4385 108.528 75.4865C108.528 72.5505 109.552 71.0825 111.6 71.0825C112.384 71.0825 113 71.2945 113.448 71.7185C113.896 72.1425 114.16 72.6785 114.24 73.3265H113.232ZM111.6 75.1145C111.256 75.1145 110.932 75.1865 110.628 75.3305C110.324 75.4665 110.076 75.6785 109.884 75.9665C109.7 76.2465 109.608 76.5905 109.608 76.9985C109.608 77.6065 109.784 78.1025 110.136 78.4865C110.488 78.8625 110.992 79.0505 111.648 79.0505C112.208 79.0505 112.652 78.8785 112.98 78.5345C113.316 78.1825 113.484 77.7105 113.484 77.1185C113.484 76.4945 113.324 76.0065 113.004 75.6545C112.684 75.2945 112.216 75.1145 111.6 75.1145ZM128.153 73.3625L126.101 79.9385H124.973L123.389 74.7185L121.805 79.9385H120.677L118.613 73.3625H119.729L121.241 78.8825L122.873 73.3625H123.989L125.585 78.8945L127.073 73.3625H128.153ZM135.237 76.3985C135.237 76.6065 135.225 76.8265 135.201 77.0585H129.945C129.985 77.7065 130.205 78.2145 130.605 78.5825C131.013 78.9425 131.505 79.1225 132.081 79.1225C132.553 79.1225 132.945 79.0145 133.257 78.7985C133.577 78.5745 133.801 78.2785 133.929 77.9105H135.105C134.929 78.5425 134.577 79.0585 134.049 79.4585C133.521 79.8505 132.865 80.0465 132.081 80.0465C131.457 80.0465 130.897 79.9065 130.401 79.6265C129.913 79.3465 129.529 78.9505 129.249 78.4385C128.969 77.9185 128.829 77.3185 128.829 76.6385C128.829 75.9585 128.965 75.3625 129.237 74.8505C129.509 74.3385 129.889 73.9465 130.377 73.6745C130.873 73.3945 131.441 73.2545 132.081 73.2545C132.705 73.2545 133.257 73.3905 133.737 73.6625C134.217 73.9345 134.585 74.3105 134.841 74.7905C135.105 75.2625 135.237 75.7985 135.237 76.3985ZM134.109 76.1705C134.109 75.7545 134.017 75.3985 133.833 75.1025C133.649 74.7985 133.397 74.5705 133.077 74.4185C132.765 74.2585 132.417 74.1785 132.033 74.1785C131.481 74.1785 131.009 74.3545 130.617 74.7065C130.233 75.0585 130.013 75.5465 129.957 76.1705H134.109ZM142.678 76.3985C142.678 76.6065 142.666 76.8265 142.642 77.0585H137.386C137.426 77.7065 137.646 78.2145 138.046 78.5825C138.454 78.9425 138.946 79.1225 139.522 79.1225C139.994 79.1225 140.386 79.0145 140.698 78.7985C141.018 78.5745 141.242 78.2785 141.37 77.9105H142.546C142.37 78.5425 142.018 79.0585 141.49 79.4585C140.962 79.8505 140.306 80.0465 139.522 80.0465C138.898 80.0465 138.338 79.9065 137.842 79.6265C137.354 79.3465 136.97 78.9505 136.69 78.4385C136.41 77.9185 136.27 77.3185 136.27 76.6385C136.27 75.9585 136.406 75.3625 136.678 74.8505C136.95 74.3385 137.33 73.9465 137.818 73.6745C138.314 73.3945 138.882 73.2545 139.522 73.2545C140.146 73.2545 140.698 73.3905 141.178 73.6625C141.658 73.9345 142.026 74.3105 142.282 74.7905C142.546 75.2625 142.678 75.7985 142.678 76.3985ZM141.55 76.1705C141.55 75.7545 141.458 75.3985 141.274 75.1025C141.09 74.7985 140.838 74.5705 140.518 74.4185C140.206 74.2585 139.858 74.1785 139.474 74.1785C138.922 74.1785 138.45 74.3545 138.058 74.7065C137.674 75.0585 137.454 75.5465 137.398 76.1705H141.55ZM147.791 79.9385L145.211 77.0345V79.9385H144.119V71.0585H145.211V76.2785L147.743 73.3625H149.267L146.171 76.6385L149.279 79.9385H147.791Z" fill="#B01873"/>
<path d="M84.136 97.5745V103.754C84.136 104.442 83.924 104.994 83.5 105.41C83.076 105.818 82.516 106.022 81.82 106.022C81.116 106.022 80.552 105.814 80.128 105.398C79.704 104.974 79.492 104.398 79.492 103.67H80.584C80.592 104.078 80.696 104.41 80.896 104.666C81.104 104.922 81.412 105.05 81.82 105.05C82.228 105.05 82.532 104.93 82.732 104.69C82.932 104.442 83.032 104.13 83.032 103.754V97.5745H84.136ZM89.1553 106.046C88.5393 106.046 87.9793 105.906 87.4753 105.626C86.9793 105.346 86.5873 104.95 86.2993 104.438C86.0193 103.918 85.8793 103.318 85.8793 102.638C85.8793 101.966 86.0233 101.374 86.3113 100.862C86.6073 100.342 87.0073 99.9465 87.5113 99.6745C88.0153 99.3945 88.5793 99.2545 89.2033 99.2545C89.8273 99.2545 90.3913 99.3945 90.8953 99.6745C91.3993 99.9465 91.7953 100.338 92.0833 100.85C92.3793 101.362 92.5273 101.958 92.5273 102.638C92.5273 103.318 92.3753 103.918 92.0713 104.438C91.7753 104.95 91.3713 105.346 90.8593 105.626C90.3473 105.906 89.7793 106.046 89.1553 106.046ZM89.1553 105.086C89.5473 105.086 89.9153 104.994 90.2593 104.81C90.6033 104.626 90.8793 104.35 91.0873 103.982C91.3033 103.614 91.4113 103.166 91.4113 102.638C91.4113 102.11 91.3073 101.662 91.0993 101.294C90.8913 100.926 90.6193 100.654 90.2833 100.478C89.9473 100.294 89.5833 100.202 89.1913 100.202C88.7913 100.202 88.4233 100.294 88.0873 100.478C87.7593 100.654 87.4953 100.926 87.2953 101.294C87.0953 101.662 86.9953 102.11 86.9953 102.638C86.9953 103.174 87.0913 103.626 87.2833 103.994C87.4833 104.362 87.7473 104.638 88.0753 104.822C88.4033 104.998 88.7633 105.086 89.1553 105.086ZM99.7951 99.3625V105.938H98.7031V104.966C98.4951 105.302 98.2031 105.566 97.8271 105.758C97.4591 105.942 97.0511 106.034 96.6031 106.034C96.0911 106.034 95.6311 105.93 95.2231 105.722C94.8151 105.506 94.4911 105.186 94.2511 104.762C94.0191 104.338 93.9031 103.822 93.9031 103.214V99.3625H94.9831V103.07C94.9831 103.718 95.1471 104.218 95.4751 104.57C95.8031 104.914 96.2511 105.086 96.8191 105.086C97.4031 105.086 97.8631 104.906 98.1991 104.546C98.5351 104.186 98.7031 103.662 98.7031 102.974V99.3625H99.7951ZM102.731 100.43C102.923 100.054 103.195 99.7625 103.547 99.5545C103.907 99.3465 104.343 99.2425 104.855 99.2425V100.37H104.567C103.343 100.37 102.731 101.034 102.731 102.362V105.938H101.639V99.3625H102.731V100.43ZM109.319 99.2425C110.119 99.2425 110.767 99.4865 111.263 99.9745C111.759 100.454 112.007 101.15 112.007 102.062V105.938H110.927V102.218C110.927 101.562 110.763 101.062 110.435 100.718C110.107 100.366 109.659 100.19 109.091 100.19C108.515 100.19 108.055 100.37 107.711 100.73C107.375 101.09 107.207 101.614 107.207 102.302V105.938H106.115V99.3625H107.207V100.298C107.423 99.9625 107.715 99.7025 108.083 99.5185C108.459 99.3345 108.871 99.2425 109.319 99.2425ZM119.791 102.398C119.791 102.606 119.779 102.826 119.755 103.058H114.499C114.539 103.706 114.759 104.214 115.159 104.582C115.567 104.942 116.059 105.122 116.635 105.122C117.107 105.122 117.499 105.014 117.811 104.798C118.131 104.574 118.355 104.278 118.483 103.91H119.659C119.483 104.542 119.131 105.058 118.603 105.458C118.075 105.85 117.419 106.046 116.635 106.046C116.011 106.046 115.451 105.906 114.955 105.626C114.467 105.346 114.083 104.95 113.803 104.438C113.523 103.918 113.383 103.318 113.383 102.638C113.383 101.958 113.519 101.362 113.791 100.85C114.063 100.338 114.443 99.9465 114.931 99.6745C115.427 99.3945 115.995 99.2545 116.635 99.2545C117.259 99.2545 117.811 99.3905 118.291 99.6625C118.771 99.9345 119.139 100.31 119.395 100.79C119.659 101.262 119.791 101.798 119.791 102.398ZM118.663 102.17C118.663 101.754 118.571 101.398 118.387 101.102C118.203 100.798 117.951 100.57 117.631 100.418C117.319 100.258 116.971 100.178 116.587 100.178C116.035 100.178 115.563 100.354 115.171 100.706C114.787 101.058 114.567 101.546 114.511 102.17H118.663ZM126.897 99.3625L122.937 109.034H121.809L123.105 105.866L120.453 99.3625H121.665L123.729 104.69L125.769 99.3625H126.897Z" fill="#B01873"/>
<path d="M153 90.9385H153.5V90.4385H153V90.9385ZM152.646 167.292C152.842 167.487 153.158 167.487 153.354 167.292L156.536 164.11C156.731 163.915 156.731 163.598 156.536 163.403C156.34 163.208 156.024 163.208 155.828 163.403L153 166.231L150.172 163.403C149.976 163.208 149.66 163.208 149.464 163.403C149.269 163.598 149.269 163.915 149.464 164.11L152.646 167.292ZM76 91.4385H77.0132V90.4385H76V91.4385ZM79.0395 91.4385H81.0658V90.4385H79.0395V91.4385ZM83.0921 91.4385H85.1184V90.4385H83.0921V91.4385ZM87.1447 91.4385H89.1711V90.4385H87.1447V91.4385ZM91.1974 91.4385H93.2237V90.4385H91.1974V91.4385ZM95.25 91.4385H97.2763V90.4385H95.25V91.4385ZM99.3026 91.4385H101.329V90.4385H99.3026V91.4385ZM103.355 91.4385H105.382V90.4385H103.355V91.4385ZM107.408 91.4385H109.434V90.4385H107.408V91.4385ZM111.461 91.4385H113.487V90.4385H111.461V91.4385ZM115.513 91.4385H117.539V90.4385H115.513V91.4385ZM119.566 91.4385H121.592V90.4385H119.566V91.4385ZM123.618 91.4385H125.645V90.4385H123.618V91.4385ZM127.671 91.4385H129.697V90.4385H127.671V91.4385ZM131.724 91.4385H133.75V90.4385H131.724V91.4385ZM135.776 91.4385H137.803V90.4385H135.776V91.4385ZM139.829 91.4385H141.855V90.4385H139.829V91.4385ZM143.882 91.4385H145.908V90.4385H143.882V91.4385ZM147.934 91.4385H149.96V90.4385H147.934V91.4385ZM151.987 91.4385H153V90.4385H151.987V91.4385ZM152.5 90.9385V91.9385H153.5V90.9385H152.5ZM152.5 93.9385V95.9385H153.5V93.9385H152.5ZM152.5 97.9385V99.9385H153.5V97.9385H152.5ZM152.5 101.938V103.938H153.5V101.938H152.5ZM152.5 105.938V107.938H153.5V105.938H152.5ZM152.5 109.938V111.938H153.5V109.938H152.5ZM152.5 113.938V115.938H153.5V113.938H152.5ZM152.5 117.938V119.938H153.5V117.938H152.5ZM152.5 121.938V123.938H153.5V121.938H152.5ZM152.5 125.938V127.938H153.5V125.938H152.5ZM152.5 129.938V131.938H153.5V129.938H152.5ZM152.5 133.938V135.938H153.5V133.938H152.5ZM152.5 137.938V139.938H153.5V137.938H152.5ZM152.5 141.938V143.938H153.5V141.938H152.5ZM152.5 145.938V147.938H153.5V145.938H152.5ZM152.5 149.938V151.938H153.5V149.938H152.5ZM152.5 153.938V155.938H153.5V153.938H152.5ZM152.5 157.938V159.938H153.5V157.938H152.5ZM152.5 161.938V163.938H153.5V161.938H152.5ZM152.5 165.938V166.938H153.5V165.938H152.5Z" fill="black"/>
<defs>
<linearGradient id="paint0_linear_873_62689" x1="37.2545" y1="139.05" x2="37.2545" y2="63.4587" gradientUnits="userSpaceOnUse">
<stop stop-color="#808080" stop-opacity="0.25"/>
<stop offset="0.54" stop-color="#808080" stop-opacity="0.12"/>
<stop offset="1" stop-color="#808080" stop-opacity="0.1"/>
</linearGradient>
</defs>
</svg>
