<svg width="157" height="212" viewBox="0 0 157 212" fill="none" xmlns="http://www.w3.org/2000/svg">
<g opacity="0.2">
<path d="M65.3723 196.548C65.4998 197.048 65.6692 197.536 65.8791 198.01C69.1401 196.786 72.437 195.613 75.77 194.491C75.7418 194.358 75.7137 194.219 75.6785 194.083C75.3427 192.673 74.626 191.371 73.5999 190.308C72.2673 188.963 70.55 188.313 68.8797 188.71C67.2093 189.107 65.9964 190.465 65.4427 192.251C65.0288 193.653 65.0045 195.134 65.3723 196.548Z" fill="#3F3D56"/>
<path d="M70.057 193.873C72.9199 193.262 74.5472 189.801 73.6918 186.141C72.8363 182.482 69.822 180.011 66.9591 180.621C64.0962 181.232 62.4689 184.694 63.3243 188.353C64.1798 192.013 67.1941 194.484 70.057 193.873Z" fill="#3F3D56"/>
<path d="M68.0492 185.802C70.9121 185.191 72.5394 181.729 71.684 178.07C70.8285 174.411 67.8142 171.939 64.9513 172.55C62.0884 173.161 60.4611 176.623 61.3165 180.282C62.172 183.942 65.1863 186.413 68.0492 185.802Z" fill="#3F3D56"/>
<path d="M66.0355 177.735C68.8984 177.124 70.5257 173.662 69.6703 170.003C68.8148 166.343 65.8005 163.872 62.9376 164.483C60.0747 165.094 58.4474 168.555 59.3029 172.215C60.1583 175.874 63.1726 178.345 66.0355 177.735Z" fill="#3F3D56"/>
<path d="M64.0218 169.664C66.8847 169.053 68.5121 165.592 67.6566 161.932C66.8012 158.273 63.7868 155.802 60.9239 156.412C58.0611 157.023 56.4337 160.485 57.2892 164.144C58.1446 167.804 61.159 170.275 64.0218 169.664Z" fill="#3F3D56"/>
<path d="M67.9976 103.199C68.4857 102.153 68.898 101.076 69.2316 99.9755L55.1553 101.033L69.8275 97.6423C70.5285 94.1172 70.4398 90.4901 69.5671 87.0002C68.8019 83.9106 67.4302 80.9877 65.5248 78.3865L48.3518 93.0564L63.2187 75.6924C57.1495 69.5017 47.9694 66.5565 38.8457 68.7441C25.2129 72.0008 16.8586 85.4581 20.1853 98.8011C21.5077 104.191 24.6778 109.003 29.1917 112.474C28.4334 114.103 27.857 115.803 27.4721 117.548L47.2774 122.286L27.0029 120.607C26.7604 123.312 26.9727 126.036 27.6316 128.676C28.9563 134.066 32.127 138.878 36.6404 142.349C34.2685 147.437 33.7209 153.131 35.0826 158.547C38.4093 171.89 52.1571 180.065 65.7899 176.81C79.4228 173.556 87.777 160.098 84.4503 146.756C83.1257 141.366 79.955 136.554 75.4415 133.083C77.8135 127.995 78.3611 122.301 76.9993 116.885C75.6806 111.491 72.512 106.674 67.9976 103.199Z" fill="#B01873"/>
<path opacity="0.1" d="M27.6356 128.669C28.9603 134.058 32.1309 138.87 36.6444 142.341C34.2724 147.429 33.7248 153.123 35.0866 158.54C38.4133 171.883 52.1611 180.057 65.7939 176.802C79.4267 173.548 87.781 160.091 84.4543 146.748C83.1296 141.358 79.9589 136.546 75.4455 133.075C77.7305 128.176 26.9599 125.963 27.6356 128.669Z" fill="black"/>
</g>
<path d="M51.0976 208.709C55.477 208.709 59.0272 208.057 59.0272 207.252C59.0272 206.448 55.477 205.796 51.0976 205.796C46.7182 205.796 43.168 206.448 43.168 207.252C43.168 208.057 46.7182 208.709 51.0976 208.709Z" fill="#B01873"/>
<path d="M50.9634 207.788C51.4739 207.788 51.8877 207.271 51.8877 206.634C51.8877 205.996 51.4739 205.479 50.9634 205.479C50.4529 205.479 50.0391 205.996 50.0391 206.634C50.0391 207.271 50.4529 207.788 50.9634 207.788Z" fill="#3F3D56"/>
<path d="M50.9634 206.378C51.4739 206.378 51.8877 205.861 51.8877 205.224C51.8877 204.586 51.4739 204.069 50.9634 204.069C50.4529 204.069 50.0391 204.586 50.0391 205.224C50.0391 205.861 50.4529 206.378 50.9634 206.378Z" fill="#3F3D56"/>
<path d="M50.9634 204.966C51.4739 204.966 51.8877 204.449 51.8877 203.812C51.8877 203.174 51.4739 202.657 50.9634 202.657C50.4529 202.657 50.0391 203.174 50.0391 203.812C50.0391 204.449 50.4529 204.966 50.9634 204.966Z" fill="#3F3D56"/>
<path d="M50.9634 203.556C51.4739 203.556 51.8877 203.039 51.8877 202.401C51.8877 201.764 51.4739 201.247 50.9634 201.247C50.4529 201.247 50.0391 201.764 50.0391 202.401C50.0391 203.039 50.4529 203.556 50.9634 203.556Z" fill="#3F3D56"/>
<path d="M50.9634 202.144C51.4739 202.144 51.8877 201.627 51.8877 200.989C51.8877 200.352 51.4739 199.835 50.9634 199.835C50.4529 199.835 50.0391 200.352 50.0391 200.989C50.0391 201.627 50.4529 202.144 50.9634 202.144Z" fill="#3F3D56"/>
<path d="M50.9634 200.731C51.4739 200.731 51.8877 200.214 51.8877 199.576C51.8877 198.939 51.4739 198.422 50.9634 198.422C50.4529 198.422 50.0391 198.939 50.0391 199.576C50.0391 200.214 50.4529 200.731 50.9634 200.731Z" fill="#3F3D56"/>
<path d="M50.9634 199.322C51.4739 199.322 51.8877 198.806 51.8877 198.168C51.8877 197.53 51.4739 197.014 50.9634 197.014C50.4529 197.014 50.0391 197.53 50.0391 198.168C50.0391 198.806 50.4529 199.322 50.9634 199.322Z" fill="#3F3D56"/>
<path d="M54.4202 188.509C54.5453 188.355 54.6597 188.193 54.7627 188.025L52.3393 187.644L54.9621 187.664C55.2145 187.141 55.3522 186.574 55.3668 185.998C55.3813 185.422 55.2723 184.85 55.0466 184.315L51.5275 186.059L54.7721 183.791C54.4667 183.291 54.0571 182.857 53.5687 182.515C53.0803 182.172 52.5235 181.929 51.9329 181.801C51.3422 181.673 50.7303 181.662 50.1351 181.769C49.5398 181.876 48.9739 182.099 48.4725 182.424C47.9711 182.748 47.5448 183.168 47.22 183.656C46.8953 184.145 46.6791 184.692 46.5848 185.263C46.4905 185.835 46.5201 186.419 46.6718 186.979C46.8234 187.54 47.094 188.064 47.4666 188.52C47.2705 188.76 47.1015 189.018 46.9622 189.291L50.1129 190.86L46.7534 189.784C46.517 190.45 46.4576 191.161 46.5805 191.853C46.7033 192.546 47.0046 193.198 47.4572 193.752C46.9444 194.375 46.6255 195.124 46.537 195.912C46.4484 196.7 46.5938 197.496 46.9564 198.209C47.3191 198.922 47.8844 199.523 48.5878 199.944C49.2912 200.365 50.1042 200.588 50.934 200.588C51.7638 200.588 52.5768 200.365 53.2802 199.944C53.9836 199.523 54.5489 198.922 54.9115 198.209C55.2742 197.496 55.4196 196.7 55.331 195.912C55.2425 195.124 54.9236 194.375 54.4108 193.752C55.0233 193.007 55.3562 192.087 55.3562 191.139C55.3562 190.192 55.0233 189.272 54.4108 188.527L54.4202 188.509Z" fill="#B01873"/>
<path opacity="0.1" d="M46.5227 191.12C46.5197 192.067 46.8502 192.987 47.4611 193.733C46.9483 194.356 46.6294 195.105 46.5409 195.893C46.4523 196.681 46.5977 197.477 46.9604 198.19C47.323 198.904 47.8883 199.505 48.5917 199.925C49.2951 200.346 50.1081 200.569 50.9379 200.569C51.7677 200.569 52.5807 200.346 53.2841 199.925C53.9875 199.505 54.5528 198.904 54.9155 198.19C55.2781 197.477 55.4235 196.681 55.3349 195.893C55.2464 195.105 54.9275 194.356 54.4147 193.733C55.013 193.014 46.5227 190.647 46.5227 191.12Z" fill="black"/>
<path d="M92.846 143.094C92.2478 140.104 91.5792 137.107 91.4689 134.065C91.4032 132.272 91.5346 130.448 91.293 128.659C91.1733 127.78 90.9645 126.918 90.7581 126.055L89.9276 122.601C90.0217 121.939 89.9947 121.266 89.8478 120.613C89.7646 120.268 89.654 119.93 89.517 119.602C90.2923 118.559 90.9312 117.43 91.4196 116.24C91.6402 115.702 91.8302 115.13 91.7434 114.561C91.5745 113.469 90.4672 112.75 89.4372 112.212C88.8132 111.887 88.1563 111.573 87.4431 111.521C86.9444 111.502 86.4477 111.593 85.992 111.788C85.5362 111.982 85.1336 112.275 84.8155 112.642C84.6422 111.759 84.7003 110.848 84.9845 109.991C84.3722 109.728 83.7551 109.482 83.1334 109.242C83.0436 108.467 83.0122 107.688 83.0396 106.909C83.0537 105.974 83.0701 105.03 83.1264 104.094C84.7948 103.512 86.237 102.456 87.2594 101.069C88.2818 99.6814 88.8354 98.0284 88.846 96.3316C88.846 96.2352 88.846 96.1411 88.846 96.0469C89.3007 95.266 89.5884 94.4065 89.6923 93.5184C89.7962 92.6304 89.7143 91.7314 89.4513 90.8738C88.7639 88.6324 86.9669 86.7855 84.8015 85.6447C82.6361 84.5038 80.1258 84.0219 77.6414 83.9367C76.8076 83.8901 75.9709 83.9405 75.1499 84.0869C74.2711 84.2935 73.4196 84.5943 72.6115 84.9835C71.3704 85.5304 70.12 86.1288 69.1909 87.0724C67.5792 88.7154 67.2179 91.1293 67.3939 93.3483C67.6285 96.2621 68.6467 99.0818 69.8244 101.794C70.2162 102.69 70.6338 103.6 71.2789 104.365C71.7786 104.954 72.6467 104.99 73.3364 104.578C73.2816 105.294 73.2644 106.012 73.2848 106.729C72.0109 106.687 70.7698 106.886 69.747 107.572C69.2777 107.893 68.832 108.397 68.9352 108.939C69.2486 108.947 69.5489 109.061 69.7833 109.26C70.0176 109.459 70.1709 109.73 70.2162 110.026C70.2678 110.504 70.0167 110.959 69.7728 111.371C69.6672 111.555 69.5616 111.741 69.4537 111.925C68.4449 112.956 67.4103 114.247 67.3188 115.527C67.1542 115.542 66.9905 115.565 66.8285 115.596C65.9135 115.758 65.0033 116.056 64.1047 116.28L57.6015 117.916L55.9945 118.342L53.4138 118.992C51.7716 119.404 50.0989 119.828 48.642 120.657C47.1851 121.487 45.9487 122.789 45.6555 124.358C45.51 125.138 45.5992 125.949 45.4209 126.723C45.4209 126.758 45.4068 126.792 45.3974 126.826C45.2484 127.315 45.048 127.789 44.7992 128.24C43.3423 131.174 42.3053 134.372 42.5001 137.602C42.6197 139.586 43.2039 141.52 43.7716 143.43C44.3675 145.383 44.9556 147.336 45.5358 149.289C45.9185 150.687 46.4037 152.058 46.988 153.391C47.989 155.526 49.4738 157.422 51.3352 158.942C51.8576 159.39 52.4417 159.767 53.0713 160.063C54.0312 160.46 55.0792 160.622 56.1212 160.536C56.4027 160.518 56.6795 160.489 56.954 160.446C58.9693 160.142 60.8484 159.214 62.5728 158.169C63.2938 157.733 63.9976 157.273 64.6842 156.791C64.7714 157.544 64.9284 158.288 65.1534 159.014C65.3059 159.514 65.4936 160.027 65.4326 160.545C65.3481 161.267 64.7992 161.858 64.5153 162.535C63.9124 163.965 64.5317 165.559 64.6326 167.092C64.7288 168.529 64.3628 169.954 64.0695 171.369C63.5798 173.727 63.2903 176.12 63.2039 178.523C63.2012 179.433 63.1385 180.342 63.0162 181.244C62.798 182.517 62.2865 183.746 62.1974 185.032C62.0613 187.036 62.9669 188.997 62.8848 191.003C62.7886 193.359 61.3411 195.647 61.8455 197.952C61.9088 198.241 62.0801 198.575 62.3569 198.649L62.2209 198.767C61.8056 199.135 61.4021 199.814 61.8737 200.112C61.9821 200.174 62.1027 200.213 62.2279 200.229C62.9575 200.374 63.6918 200.507 64.4261 200.63C64.41 201.278 64.4954 201.925 64.6795 202.549C64.8132 202.641 64.9493 202.723 65.0854 202.802C64.9821 203.066 64.9892 203.322 65.2332 203.474C65.3417 203.536 65.4622 203.576 65.5874 203.591C71.6307 204.782 77.8025 205.271 83.9686 205.048C85.0713 205.007 86.2232 204.931 87.1639 204.393C88.1047 203.855 88.7405 202.71 88.2924 201.766C87.8959 200.933 86.8589 200.572 85.9276 200.294L84.8343 199.971C84.9744 199.734 85.056 199.469 85.0731 199.197C85.0902 198.926 85.0422 198.654 84.9328 198.402C84.5364 197.568 83.4994 197.207 82.568 196.929L80.0507 196.183C79.7194 196.108 79.4079 195.968 79.1358 195.773C78.9555 195.602 78.7892 195.417 78.6384 195.222C78.2752 194.825 77.798 194.539 77.266 194.399C77.2377 193.889 77.2495 193.378 77.3012 192.87L78.005 184.754C78.1622 182.916 78.317 181.043 77.8689 179.247C77.6883 178.519 77.3997 177.772 77.5757 177.042C77.8502 175.849 79.1639 175.186 80.0601 174.3C81.4114 172.956 81.8314 171.044 82.1411 169.224C83.4234 161.713 83.8263 154.09 83.3422 146.494C86.1585 145.735 89.0571 145.29 91.9803 145.167C92.4777 145.147 92.7217 144.923 92.8765 144.479C93.0314 144.035 92.9375 143.553 92.846 143.094ZM78.805 143.49C78.8214 143.412 78.8402 143.333 78.8543 143.255L79.049 143.493L78.805 143.49Z" fill="url(#paint0_linear_716_64451)"/>
<path d="M74.2316 102.35C74.1706 103.13 73.882 103.878 73.7764 104.656C73.6568 105.512 73.7624 106.384 73.7037 107.247C73.6451 108.11 73.3847 109.018 72.6973 109.58C76.6925 109.911 80.6277 110.724 84.4087 112.001C83.2662 110.656 83.2357 108.778 83.2638 107.052C83.3014 104.499 83.3483 101.897 84.221 99.4873C81.6181 98.9315 78.9227 98.8979 76.3055 99.3887C75.7377 99.4963 74.0181 99.4291 73.7624 99.9356C73.577 100.308 74.2738 101.785 74.2316 102.35Z" fill="#A1616A"/>
<path opacity="0.1" d="M74.2316 102.35C74.1706 103.13 73.882 103.878 73.7764 104.656C73.6568 105.512 73.7624 106.384 73.7037 107.247C73.6451 108.11 73.3847 109.018 72.6973 109.58C76.6925 109.911 80.6277 110.724 84.4087 112.001C83.2662 110.656 83.2357 108.778 83.2638 107.052C83.3014 104.499 83.3483 101.897 84.221 99.4873C81.6181 98.9315 78.9227 98.8979 76.3055 99.3887C75.7377 99.4963 74.0181 99.4291 73.7624 99.9356C73.577 100.308 74.2738 101.785 74.2316 102.35Z" fill="black"/>
<path d="M78.961 195.233C79.102 195.432 79.2589 195.62 79.4302 195.795C79.6944 195.991 79.9991 196.131 80.3241 196.205L82.7827 196.952C83.6953 197.23 84.7088 197.588 85.0959 198.422C85.5323 199.364 84.9106 200.509 83.9909 201.045C83.0713 201.58 81.9452 201.659 80.8683 201.699C74.8391 201.921 68.8042 201.432 62.9 200.244C62.7782 200.228 62.661 200.188 62.5552 200.128C62.086 199.825 62.4871 199.148 62.893 198.783C64.4766 197.349 66.1986 195.845 68.3546 195.513C69.4877 195.336 70.6255 195.408 71.7516 195.15C72.561 194.964 73.3258 194.643 74.1329 194.453C75.6367 194.101 77.8865 193.975 78.961 195.233Z" fill="#46455B"/>
<path opacity="0.1" d="M78.961 195.233C79.102 195.432 79.2589 195.62 79.4302 195.795C79.6944 195.991 79.9991 196.131 80.3241 196.205L82.7827 196.952C83.6953 197.23 84.7088 197.588 85.0959 198.422C85.5323 199.364 84.9106 200.509 83.9909 201.045C83.0713 201.58 81.9452 201.659 80.8683 201.699C74.8391 201.921 68.8042 201.432 62.9 200.244C62.7782 200.228 62.661 200.188 62.5552 200.128C62.086 199.825 62.4871 199.148 62.893 198.783C64.4766 197.349 66.1986 195.845 68.3546 195.513C69.4877 195.336 70.6255 195.408 71.7516 195.15C72.561 194.964 73.3258 194.643 74.1329 194.453C75.6367 194.101 77.8865 193.975 78.961 195.233Z" fill="black"/>
<path d="M66.6156 144.538C65.4024 147.596 65.3279 150.961 66.4045 154.066C65.5857 153.981 65.2315 155.039 65.2526 155.828C65.2817 156.926 65.4559 158.016 65.7711 159.073C65.9212 159.575 66.1042 160.086 66.0456 160.602C65.9611 161.323 65.4262 161.915 65.147 162.59C64.5605 164.018 65.1634 165.609 65.2643 167.14C65.3582 168.577 64.9992 170 64.7107 171.412C64.2326 173.768 63.9502 176.157 63.8661 178.555C63.8644 179.464 63.8025 180.372 63.6807 181.274C63.4696 182.547 62.9769 183.773 62.8831 185.057C62.7494 187.057 63.6338 189.018 63.5541 191.022C63.4602 193.373 62.0432 195.659 62.5382 197.97C62.6086 198.295 62.7986 198.678 63.1482 198.683C66.686 198.725 69.9916 197.786 73.4919 198.277C73.8485 190.54 74.1957 182.767 75.791 175.171C77.1986 168.408 79.5845 161.722 79.3617 154.828C79.2326 150.885 78.252 147.019 77.6561 143.114C73.9158 142.321 70.002 142.826 66.6156 144.538Z" fill="#BBBDC8"/>
<path opacity="0.1" d="M66.6156 144.538C65.4024 147.596 65.3279 150.961 66.4045 154.066C65.5857 153.981 65.2315 155.039 65.2526 155.828C65.2817 156.926 65.4559 158.016 65.7711 159.073C65.9212 159.575 66.1042 160.086 66.0456 160.602C65.9611 161.323 65.4262 161.915 65.147 162.59C64.5605 164.018 65.1634 165.609 65.2643 167.14C65.3582 168.577 64.9992 170 64.7107 171.412C64.2326 173.768 63.9502 176.157 63.8661 178.555C63.8644 179.464 63.8025 180.372 63.6807 181.274C63.4696 182.547 62.9769 183.773 62.8831 185.057C62.7494 187.057 63.6338 189.018 63.5541 191.022C63.4602 193.373 62.0432 195.659 62.5382 197.97C62.6086 198.295 62.7986 198.678 63.1482 198.683C66.686 198.725 69.9916 197.786 73.4919 198.277C73.8485 190.54 74.1957 182.767 75.791 175.171C77.1986 168.408 79.5845 161.722 79.3617 154.828C79.2326 150.885 78.252 147.019 77.6561 143.114C73.9158 142.321 70.002 142.826 66.6156 144.538Z" fill="black"/>
<path d="M82.2442 198.595C82.3852 198.794 82.5421 198.982 82.7134 199.158C82.9776 199.353 83.2823 199.493 83.6073 199.568L86.0659 200.314C86.9785 200.592 87.992 200.951 88.3791 201.785C88.8155 202.726 88.1938 203.871 87.2741 204.407C86.3545 204.943 85.2284 205.021 84.1515 205.061C78.1223 205.283 72.0874 204.795 66.1832 203.607C66.0614 203.59 65.9442 203.55 65.8384 203.49C65.3692 203.188 65.7703 202.511 66.1762 202.145C67.7598 200.711 69.4818 199.207 71.6378 198.875C72.7709 198.698 73.9087 198.77 75.0348 198.512C75.8442 198.326 76.609 198.006 77.4161 197.815C78.9199 197.463 81.1697 197.338 82.2442 198.595Z" fill="#46455B"/>
<path d="M67.8356 144.759C66.9301 145.88 66.6626 147.359 66.7846 148.762C66.9066 150.165 67.4016 151.513 67.8873 152.842C67.2421 153.409 67.3758 154.386 67.4603 155.22C67.7676 158.317 66.6415 161.408 66.8057 164.515C66.8738 165.822 67.1717 167.11 67.2421 168.417C67.3195 169.845 67.1295 171.273 66.9512 172.691C65.8123 181.774 65.1857 190.909 65.0744 200.056C65.0744 200.899 65.0603 201.755 65.309 202.562C67.0145 203.761 69.1565 203.923 71.221 203.475C73.2855 203.026 75.1694 202.027 77.0204 201.04C78.0345 200.539 78.996 199.946 79.8919 199.27C80.166 199.084 80.3688 198.818 80.4691 198.512C80.6661 197.616 79.3617 197.21 78.6133 196.629C77.5248 195.784 77.5412 194.22 77.6538 192.884L78.3342 184.779C78.489 182.944 78.6392 181.072 78.2028 179.279C78.0245 178.553 77.75 177.806 77.9142 177.076C78.1817 175.888 79.4673 175.224 80.3424 174.339C81.6655 172.994 82.0738 171.087 82.3787 169.271C83.8161 160.658 84.1219 151.907 83.289 143.222C81.5647 143.793 79.5213 143.482 77.7031 143.616C75.8849 143.751 74.0785 144.331 72.2368 144.378C70.7025 144.412 68.7788 143.603 67.8356 144.759Z" fill="#BBBDC8"/>
<path d="M80.2585 104.782C85.0525 104.782 88.9388 101.069 88.9388 96.4884C88.9388 91.9083 85.0525 88.1953 80.2585 88.1953C75.4644 88.1953 71.5781 91.9083 71.5781 96.4884C71.5781 101.069 75.4644 104.782 80.2585 104.782Z" fill="#A1616A"/>
<path d="M85.1639 110.13C82.3823 108.91 79.482 107.953 76.5046 107.275C74.4073 106.797 72.012 106.511 70.2595 107.71C69.7903 108.03 69.3657 108.534 69.4665 109.077C69.7758 109.087 70.0713 109.201 70.3004 109.4C70.5294 109.599 70.6771 109.869 70.717 110.162C70.7686 110.637 70.5246 111.092 70.2853 111.507L68.2607 115.093C67.8727 115.739 67.5393 116.413 67.2636 117.11C66.8554 118.249 66.7662 119.468 66.6794 120.669L66.4448 123.924C66.2994 125.975 66.1516 128.035 66.3463 130.081C66.4918 131.625 66.8296 133.176 66.5997 134.712C66.4143 135.947 65.8677 137.105 65.5604 138.32C64.9833 140.606 65.246 143.112 64.127 145.21C64.5814 145.01 65.0944 144.966 65.5792 145.085C68.9762 145.683 71.6483 148.245 74.9469 149.225C75.7797 148.064 76.9082 147.207 77.8395 146.127C78.5322 145.317 78.9908 144.348 79.1697 143.316C79.8736 144.213 80.4718 144.912 80.8917 145.952C80.9665 146.194 81.0944 146.418 81.2671 146.609C81.7105 147.021 82.4401 146.862 83.0337 146.69C85.9436 145.851 88.9519 145.364 91.9885 145.239C92.4765 145.219 92.7134 144.995 92.8659 144.551C93.0184 144.108 92.934 143.628 92.8425 143.171C92.2583 140.183 91.6061 137.191 91.4982 134.154C91.4325 132.36 91.5615 130.543 91.3246 128.754C91.2073 127.878 91.0032 127.015 90.8014 126.154L89.1263 119.042C89.0325 118.645 88.5867 118.385 88.3967 118.02C87.6272 116.532 86.1563 115.456 85.3961 113.963C84.822 112.758 84.7391 111.391 85.1639 110.13Z" fill="#46455B"/>
<path d="M72.9853 99.8075C72.9751 99.6914 73.0039 99.5752 73.0674 99.4758C73.1602 99.3827 73.2766 99.314 73.4052 99.2763C73.755 99.1176 74.0411 98.8543 74.2202 98.5263C74.3993 98.1983 74.4616 97.8234 74.3976 97.4585L75.2187 97.2949L75.2445 94.5627C76.4645 93.9171 78.1278 94.4058 79.275 93.6459C79.9202 93.2156 80.251 92.4849 80.6451 91.8349C81.0392 91.1849 81.6257 90.5304 82.4093 90.4766C82.1399 91.1315 82.0244 91.8349 82.071 92.5371C82.1176 93.2393 82.3252 93.9232 82.6791 94.5402C83.5006 94.143 84.1867 93.5304 84.6568 92.774L85.065 95.0154C85.0733 95.1536 85.1352 95.2839 85.2386 95.3808C85.4521 95.5309 85.7407 95.3427 85.9284 95.1566L86.9911 94.1592C87.4384 95.2314 87.7449 96.3524 87.9037 97.4966C89.6492 95.8784 90.1911 93.2783 89.5202 91.0459C88.8492 88.8135 87.092 86.9644 84.9759 85.8235C82.8598 84.6826 80.4058 84.203 77.9777 84.1178C77.1626 84.0722 76.3447 84.1227 75.5425 84.268C74.6818 84.4748 73.849 84.7757 73.0604 85.1645C71.8475 85.7092 70.6228 86.3076 69.7173 87.249C68.1407 88.8897 67.7865 91.3014 67.9601 93.5249C68.1947 96.4387 69.1847 99.2516 70.3366 101.959C70.719 102.856 71.1272 103.764 71.7583 104.528C72.7085 105.678 75.0428 104.723 74.7448 102.45C74.5384 100.827 72.9853 101.453 72.9853 99.8075Z" fill="#3F3D56"/>
<path d="M76.2692 144.207C73.3414 149.922 68.8454 154.772 63.2604 158.238C61.5736 159.28 59.7413 160.208 57.7683 160.513C57.4985 160.556 57.2287 160.585 56.9542 160.603C55.9368 160.683 54.9145 160.517 53.9818 160.121C53.3643 159.824 52.7928 159.447 52.2833 159C50.4576 157.473 49.0069 155.581 48.0346 153.457C47.4631 152.124 46.9889 150.755 46.6153 149.36C46.0397 147.408 45.4657 145.456 44.8933 143.503C44.3326 141.594 43.7672 139.661 43.6499 137.676C43.4598 134.45 44.4733 131.256 45.8974 128.327C46.1402 127.876 46.3359 127.403 46.4815 126.915C46.4815 126.881 46.498 126.847 46.505 126.812C46.6739 126.038 46.5871 125.229 46.7396 124.449C47.0258 122.88 48.2364 121.58 49.6581 120.753C51.0798 119.926 52.7079 119.502 54.3243 119.09L56.8416 118.442L58.4041 118.041L64.7595 116.407C65.6393 116.183 66.5284 115.885 67.4223 115.735C68.4193 115.555 68.4123 115.649 68.4897 116.582C68.6328 118.272 68.5859 119.933 68.9589 121.607C69.3132 123.205 69.9372 124.745 70.4064 126.314C71.5912 130.275 71.7882 134.443 72.722 138.467C72.9355 139.383 73.2311 140.361 74.0029 140.932C74.8874 141.605 76.3771 141.771 76.6117 142.824C76.6985 143.292 76.4803 143.772 76.2692 144.207Z" fill="#B01873"/>
<path opacity="0.1" d="M57.7683 160.505C57.4985 160.548 57.2287 160.577 56.9542 160.595C55.9376 160.678 54.9153 160.515 53.9818 160.122C53.3643 159.825 52.7928 159.448 52.2833 159.001C50.4576 157.474 49.0069 155.582 48.0346 153.458C47.4631 152.125 46.9889 150.756 46.6153 149.361C46.0397 147.409 45.4657 145.457 44.8933 143.504C44.3326 141.594 43.7672 139.662 43.6499 137.676C43.4598 134.451 44.4733 131.257 45.8974 128.328C46.1402 127.876 46.3359 127.404 46.4815 126.916C46.4815 126.882 46.498 126.848 46.505 126.812C50.3337 127.456 54.9273 134.453 57.2968 143.623C59.0422 150.479 59.1173 156.793 57.7683 160.505Z" fill="black"/>
<path opacity="0.1" d="M64.6893 136.378L64.0488 136.483C63.3896 134.829 62.7327 133.173 61.9609 131.563C61.5597 130.723 61.1257 129.894 60.7879 129.026C59.521 125.695 59.7368 121.744 57.3884 119C57.2208 118.797 57.0296 118.612 56.8184 118.449L58.3808 118.048C59.749 120.115 60.714 122.401 61.2289 124.797C61.4823 125.967 61.6254 127.164 62.0383 128.289C62.3895 129.142 62.7913 129.976 63.2418 130.786C64.1333 132.532 64.8043 134.439 64.6893 136.378Z" fill="black"/>
<path d="M70.9253 111.126C72.6121 109.745 74.9136 108.988 77.0977 109.333C78.3833 109.532 79.5775 110.086 80.7294 110.678C82.9745 111.816 85.1868 113.128 86.8056 114.999C87.7763 116.18 88.5823 117.475 89.2033 118.854C89.5078 119.457 89.7438 120.089 89.9071 120.739C90.4795 123.272 89.0742 125.789 87.7206 128.035L85.1165 132.352C83.92 134.336 82.7141 136.333 81.1564 138.074C80.4385 138.877 79.6502 139.619 78.8643 140.36L75.4133 143.615C75.3512 143.685 75.27 143.737 75.1787 143.765C75.1033 143.769 75.028 143.757 74.9579 143.73C74.8879 143.704 74.8247 143.663 74.7728 143.61L73.6326 142.743C74.6828 142.05 75.6588 141.259 76.5464 140.383C78.0385 138.908 79.2655 137.211 80.4854 135.521L84.2813 130.263C85.391 128.723 86.5499 127.029 86.4256 125.164C86.3669 124.267 86.015 123.425 85.6467 122.602C84.9945 121.139 84.286 119.699 83.5212 118.283C82.6625 116.694 81.7241 115.125 80.4877 113.782C79.2514 112.44 77.6889 111.317 75.8895 110.83C75.3528 110.663 74.784 110.611 74.2238 110.678C72.9898 110.873 72.1124 111.886 71.3312 112.827L68.9523 115.741C68.4103 116.402 67.913 117.169 67.8801 115.914C67.8238 114.123 69.7194 112.278 70.9253 111.126Z" fill="#B01873"/>
<path d="M71.663 130.781C72.1322 132.507 72.8243 134.466 74.5627 135.121C75.7944 135.585 77.2372 135.208 78.3023 134.448C79.3674 133.689 80.1228 132.617 80.8173 131.535C81.405 130.562 82.0529 129.623 82.7574 128.724C84.1486 127.056 86.0419 125.734 86.9803 123.793C87.2571 123.215 87.4495 122.596 87.7639 122.04C88.0998 121.528 88.4796 121.043 88.8994 120.59C89.9795 119.311 90.8432 117.879 91.4589 116.345C91.6747 115.809 91.8601 115.235 91.7756 114.668C91.609 113.577 90.5275 112.859 89.5211 112.324C88.9087 111.999 88.2683 111.683 87.5715 111.633C86.5533 111.557 85.5516 112.082 84.9252 112.85C84.3222 113.646 83.9852 114.597 83.9586 115.578C83.8882 116.773 84.1322 118.015 83.724 119.144C83.5081 119.671 83.2099 120.164 82.8395 120.606C81.5217 122.29 79.8907 123.728 78.0278 124.849C77.9767 124.001 77.7843 123.166 77.4577 122.376C77.2794 121.941 73.7838 122.376 73.3287 122.448C72.4278 122.574 70.6824 122.672 70.1146 123.492C69.5469 124.313 70.2507 125.691 70.4806 126.518L71.663 130.781Z" fill="#A1616A"/>
<path d="M71.5781 111.946C71.0588 112.356 70.5755 112.806 70.1329 113.291C69.0913 114.49 68.5822 116.05 68.4508 117.603C68.3194 119.157 68.5423 120.717 68.8215 122.252C69.0749 123.63 69.3744 124.998 69.72 126.356C69.8162 125.332 70.6842 124.484 71.6907 124.115C72.6971 123.745 73.8021 123.785 74.8743 123.935C76.2542 124.131 77.6004 124.502 78.8766 125.04L79.3716 118.413C79.4758 117.518 79.4703 116.616 79.3552 115.723C79.1993 114.894 78.8605 114.107 78.3613 113.413C77.8621 112.72 77.2141 112.135 76.4602 111.7C74.5787 110.606 73.2672 110.536 71.5781 111.946Z" fill="#46455B"/>
<path opacity="0.1" d="M88.4684 62.1947C89.3754 62.1947 90.1106 61.4925 90.1106 60.6262C90.1106 59.7599 89.3754 59.0576 88.4684 59.0576C87.5614 59.0576 86.8262 59.7599 86.8262 60.6262C86.8262 61.4925 87.5614 62.1947 88.4684 62.1947Z" fill="#B01873"/>
<path opacity="0.1" d="M68.2926 63.7641C69.1996 63.7641 69.9348 63.0618 69.9348 62.1955C69.9348 61.3292 69.1996 60.627 68.2926 60.627C67.3856 60.627 66.6504 61.3292 66.6504 62.1955C66.6504 63.0618 67.3856 63.7641 68.2926 63.7641Z" fill="#B01873"/>
<path opacity="0.1" d="M17.8537 137.729C20.186 137.729 22.0766 135.923 22.0766 133.695C22.0766 131.466 20.186 129.66 17.8537 129.66C15.5215 129.66 13.6309 131.466 13.6309 133.695C13.6309 135.923 15.5215 137.729 17.8537 137.729Z" fill="#B01873"/>
<path opacity="0.1" d="M85.1852 74.7455C86.0922 74.7455 86.8274 74.0433 86.8274 73.177C86.8274 72.3107 86.0922 71.6084 85.1852 71.6084C84.2782 71.6084 83.543 72.3107 83.543 73.177C83.543 74.0433 84.2782 74.7455 85.1852 74.7455Z" fill="#B01873"/>
<path opacity="0.1" d="M23.7184 154.091C24.6254 154.091 25.3606 153.389 25.3606 152.523C25.3606 151.656 24.6254 150.954 23.7184 150.954C22.8114 150.954 22.0762 151.656 22.0762 152.523C22.0762 153.389 22.8114 154.091 23.7184 154.091Z" fill="#B01873"/>
<path opacity="0.1" d="M21.1383 118.228C22.0453 118.228 22.7805 117.526 22.7805 116.659C22.7805 115.793 22.0453 115.091 21.1383 115.091C20.2313 115.091 19.4961 115.793 19.4961 116.659C19.4961 117.526 20.2313 118.228 21.1383 118.228Z" fill="#B01873"/>
<path opacity="0.1" d="M69.5835 211.921C103.595 211.921 131.167 208.81 131.167 204.973C131.167 201.135 103.595 198.024 69.5835 198.024C35.5719 198.024 8 201.135 8 204.973C8 208.81 35.5719 211.921 69.5835 211.921Z" fill="#B01873"/>
<path d="M25.3436 21.0399C25.3823 21.967 25.0948 22.753 24.4811 23.3978C23.8776 24.0315 22.9258 24.3755 21.6256 24.4297L19.4835 24.519L19.6774 29.1709L18.2227 29.2316L17.7581 18.0892L21.355 17.9393C22.6126 17.8869 23.5791 18.1508 24.2545 18.7312C24.9406 19.3111 25.3036 20.0807 25.3436 21.0399ZM21.5756 23.2307C22.3856 23.1969 22.9751 22.9962 23.3441 22.6285C23.7131 22.2608 23.884 21.7519 23.8569 21.1018C23.7996 19.727 22.9823 19.0725 21.405 19.1383L19.2629 19.2276L19.4335 23.32L21.5756 23.2307ZM26.7528 24.4561C26.7155 23.5609 26.864 22.77 27.1983 22.0835C27.5323 21.3863 28.0058 20.8381 28.6191 20.4389C29.243 20.0392 29.9439 19.8232 30.7219 19.7907C31.4892 19.7588 32.1622 19.8962 32.7408 20.203C33.3194 20.5098 33.7577 20.9079 34.0557 21.3973L33.9891 19.7987L35.4598 19.7374L35.825 28.4977L34.3543 28.5591L34.2863 26.9285C34.0199 27.452 33.606 27.8963 33.0447 28.2613C32.4937 28.6153 31.8398 28.808 31.0831 28.8396C30.3051 28.872 29.5937 28.7095 28.949 28.352C28.3042 27.9946 27.7862 27.477 27.3949 26.7994C27.0037 26.1218 26.7897 25.3407 26.7528 24.4561ZM34.171 24.1629C34.1435 23.5021 33.9862 22.9322 33.6994 22.453C33.4125 21.9739 33.0346 21.616 32.5657 21.3793C32.1069 21.1316 31.6058 21.019 31.0623 21.0417C30.5188 21.0643 30.0285 21.2129 29.5916 21.4873C29.1546 21.7617 28.8132 22.1496 28.5672 22.651C28.3212 23.1523 28.2119 23.7334 28.2395 24.3941C28.2675 25.0656 28.4251 25.6462 28.7124 26.136C28.9993 26.6151 29.3721 26.9785 29.8308 27.2263C30.2891 27.4634 30.79 27.5707 31.3335 27.548C31.8771 27.5253 32.3673 27.3768 32.8043 27.1024C33.2514 26.8168 33.598 26.4234 33.844 25.922C34.0895 25.41 34.1985 24.8236 34.171 24.1629ZM41.3907 28.4098C40.7192 28.4378 40.1124 28.351 39.5702 28.1494C39.0276 27.9372 38.5933 27.635 38.2673 27.2429C37.941 26.8402 37.7507 26.373 37.6965 25.8415L39.1992 25.7788C39.26 26.214 39.4774 26.5626 39.8513 26.8246C40.2359 27.0861 40.7265 27.2045 41.3234 27.1796C41.8775 27.1565 42.3094 27.0157 42.6189 26.7572C42.9284 26.4988 43.0754 26.1831 43.0598 25.8101C43.0438 25.4264 42.8615 25.1511 42.5129 24.9841C42.1639 24.8065 41.6286 24.642 40.907 24.4906C40.2498 24.3472 39.7098 24.1989 39.2871 24.0457C38.8745 23.8814 38.5119 23.6349 38.1993 23.3063C37.8969 22.9666 37.7339 22.5144 37.7104 21.9495C37.6917 21.5019 37.8078 21.0861 38.0587 20.7019C38.3096 20.3178 38.6757 20.009 39.1571 19.7754C39.638 19.5311 40.1928 19.3959 40.8216 19.3697C41.7914 19.3293 42.585 19.5417 43.2022 20.0071C43.8195 20.4725 44.1672 21.1305 44.2454 21.9814L42.7906 22.042C42.7396 21.5851 42.5377 21.2252 42.1851 20.9623C41.8432 20.699 41.3898 20.5791 40.825 20.6026C40.3028 20.6244 39.8918 20.7536 39.5921 20.9903C39.2923 21.227 39.15 21.5265 39.1651 21.8889C39.1771 22.1766 39.2777 22.4126 39.4669 22.5969C39.6663 22.7701 39.9069 22.9095 40.1889 23.0152C40.4811 23.1098 40.8805 23.2159 41.3872 23.3336C42.0231 23.4779 42.5418 23.6271 42.9432 23.7812C43.3442 23.9246 43.6901 24.1557 43.981 24.4745C44.2825 24.7929 44.4497 25.2183 44.4826 25.7507C44.5026 26.2303 44.3874 26.6675 44.1369 27.0623C43.8865 27.4571 43.5208 27.7766 43.0399 28.0208C42.5692 28.254 42.0195 28.3836 41.3907 28.4098ZM49.7428 28.0617C49.0714 28.0896 48.4646 28.0028 47.9224 27.8013C47.3797 27.589 46.9454 27.2868 46.6195 26.8947C46.2931 26.492 46.1028 26.0248 46.0486 25.4933L47.5513 25.4307C47.6121 25.8658 47.8295 26.2144 48.2034 26.4764C48.588 26.7379 49.0787 26.8563 49.6755 26.8314C50.2297 26.8083 50.6615 26.6675 50.971 26.4091C51.2805 26.1506 51.4275 25.8349 51.4119 25.4619C51.3959 25.0782 51.2137 24.8029 50.8651 24.6359C50.516 24.4583 49.9807 24.2938 49.2591 24.1424C48.6019 23.999 48.0619 23.8507 47.6392 23.6975C47.2266 23.5332 46.8641 23.2867 46.5514 22.9582C46.249 22.6185 46.086 22.1662 46.0625 21.6013C46.0438 21.1537 46.16 20.7379 46.4108 20.3537C46.6617 19.9696 47.0278 19.6608 47.5092 19.4272C47.9901 19.183 48.545 19.0477 49.1737 19.0215C50.1436 18.9811 50.9371 19.1935 51.5544 19.6589C52.1716 20.1243 52.5193 20.7824 52.5975 21.6332L51.1428 21.6938C51.0917 21.2369 50.8899 20.877 50.5373 20.6141C50.1953 20.3508 49.7419 20.2309 49.1771 20.2544C48.6549 20.2762 48.2439 20.4054 47.9442 20.6421C47.6444 20.8788 47.5021 21.1783 47.5172 21.5407C47.5292 21.8284 47.6298 22.0645 47.819 22.2487C48.0184 22.4219 48.2591 22.5613 48.541 22.667C48.8332 22.7616 49.2327 22.8677 49.7393 22.9854C50.3752 23.1297 50.8939 23.2789 51.2953 23.433C51.6963 23.5764 52.0422 23.8075 52.3331 24.1263C52.6346 24.4447 52.8018 24.8701 52.8347 25.4026C52.8547 25.8821 52.7395 26.3193 52.489 26.7141C52.2386 27.1089 51.8729 27.4284 51.392 27.6726C50.9213 27.9058 50.3716 28.0354 49.7428 28.0617ZM55.3144 17.4844C55.0373 17.4959 54.7989 17.4098 54.599 17.226C54.3992 17.0421 54.2935 16.8117 54.282 16.5346C54.2704 16.2575 54.3566 16.019 54.5404 15.8192C54.7242 15.6194 54.9547 15.5137 55.2318 15.5021C55.4982 15.491 55.726 15.5776 55.9152 15.7619C56.115 15.9457 56.2207 16.1762 56.2323 16.4533C56.2438 16.7304 56.1577 16.9688 55.9738 17.1687C55.8007 17.368 55.5809 17.4733 55.3144 17.4844ZM56.0771 18.8778L56.4423 27.6382L54.9876 27.6989L54.6224 18.9385L56.0771 18.8778ZM62.7484 27.5195C61.9277 27.5537 61.1739 27.3983 60.487 27.0533C59.8107 26.7078 59.2665 26.202 58.8544 25.5359C58.4525 24.8588 58.2326 24.0672 58.1949 23.1613C58.1576 22.2661 58.3165 21.4695 58.6717 20.7714C59.0372 20.0622 59.5481 19.5125 60.2044 19.1221C60.8602 18.7211 61.6038 18.5033 62.4351 18.4687C63.2664 18.434 64.0255 18.5892 64.7125 18.9342C65.399 19.2686 65.9483 19.7688 66.3604 20.4349C66.7832 21.1005 67.0134 21.8863 67.0512 22.7921C67.089 23.698 66.9198 24.5058 66.5437 25.2154C66.1778 25.9139 65.6616 26.4639 64.9951 26.8653C64.3285 27.2668 63.5796 27.4848 62.7484 27.5195ZM62.695 26.2406C63.2173 26.2188 63.7024 26.0758 64.1504 25.8116C64.5985 25.5474 64.9508 25.1643 65.2075 24.6626C65.4748 24.1603 65.5938 23.5575 65.5645 22.8541C65.5352 22.1507 65.3717 21.5597 65.0742 21.081C64.7767 20.6023 64.3992 20.2551 63.9418 20.0393C63.484 19.8128 62.994 19.7105 62.4718 19.7322C61.9389 19.7544 61.4538 19.8974 61.0164 20.1612C60.5892 20.4139 60.2526 20.7909 60.0066 21.2923C59.7606 21.7936 59.6523 22.396 59.6816 23.0994C59.7114 23.8134 59.8644 24.4102 60.1406 24.8898C60.4274 25.3689 60.7945 25.722 61.2416 25.9489C61.6884 26.1651 62.1728 26.2623 62.695 26.2406ZM73.0436 18.0104C74.1093 17.966 74.9861 18.255 75.674 18.8776C76.3614 19.4895 76.7304 20.4029 76.7811 21.6178L76.9964 26.7814L75.5576 26.8413L75.351 21.8856C75.3146 21.0117 75.0683 20.3548 74.6123 19.9147C74.1558 19.464 73.5492 19.2544 72.7925 19.286C72.0252 19.3179 71.4224 19.5833 70.9841 20.082C70.5565 20.5802 70.3618 21.2876 70.4 22.2041L70.6019 27.0479L69.1472 27.1086L68.782 18.3482L70.2367 18.2875L70.2887 19.5345C70.5578 19.0749 70.9323 18.7123 71.4124 18.4467C71.903 18.1807 72.4468 18.0353 73.0436 18.0104ZM78.6452 22.2928C78.6079 21.3976 78.7564 20.6067 79.0908 19.9202C79.4247 19.223 79.8983 18.6748 80.5115 18.2756C81.1354 17.8759 81.8363 17.6598 82.6143 17.6274C83.3817 17.5954 84.0546 17.7328 84.6332 18.0397C85.2119 18.3465 85.6502 18.7446 85.9481 19.2339L85.8815 17.6353L87.3522 17.574L87.7174 26.3344L86.2467 26.3957L86.1787 24.7651C85.9123 25.2887 85.4984 25.733 84.9372 26.098C84.3861 26.4519 83.7322 26.6447 82.9755 26.6762C82.1976 26.7086 81.4862 26.5461 80.8414 26.1887C80.1966 25.8312 79.6786 25.3137 79.2874 24.6361C78.8961 23.9584 78.6821 23.1773 78.6452 22.2928ZM86.0634 21.9995C86.0359 21.3388 85.8787 20.7688 85.5918 20.2897C85.3049 19.8106 84.927 19.4527 84.4581 19.216C83.9994 18.9682 83.4982 18.8557 82.9547 18.8783C82.4112 18.901 81.921 19.0495 81.484 19.324C81.0471 19.5984 80.7056 19.9863 80.4596 20.4876C80.2136 20.989 80.1044 21.57 80.1319 22.2308C80.1599 22.9022 80.3176 23.4828 80.6049 23.9726C80.8917 24.4517 81.2645 24.8152 81.7233 25.063C82.1815 25.3001 82.6824 25.4073 83.226 25.3847C83.7695 25.362 84.2597 25.2135 84.6967 24.939C85.1438 24.6535 85.4904 24.26 85.7364 23.7587C85.982 23.2467 86.091 22.6603 86.0634 21.9995ZM91.635 18.5965L91.8503 23.76C91.868 24.1863 91.9713 24.4863 92.16 24.6599C92.3483 24.8229 92.6663 24.895 93.1139 24.8764L94.1849 24.8317L94.2363 26.0626L92.9254 26.1173C92.1154 26.1511 91.5002 25.9899 91.0797 25.6337C90.6591 25.2776 90.4311 24.6733 90.3955 23.8207L90.1803 18.6572L89.0453 18.7045L88.9953 17.5055L90.1303 17.4582L90.0383 15.2521L91.4931 15.1915L91.585 17.3976L93.871 17.3022L93.921 18.5012L91.635 18.5965ZM103.795 20.94C103.807 21.2171 103.803 21.5109 103.784 21.8213L96.7821 22.1132C96.8714 22.9742 97.1927 23.6387 97.746 24.1068C98.3095 24.5637 98.9749 24.7761 99.7422 24.7442C100.371 24.7179 100.887 24.5523 101.291 24.2472C101.705 23.931 101.987 23.5243 102.137 23.0269L103.703 22.9616C103.504 23.8133 103.064 24.5203 102.383 25.0825C101.701 25.634 100.838 25.9315 99.7936 25.9751C98.9623 26.0097 98.2085 25.8543 97.5322 25.5089C96.8665 25.163 96.333 24.6568 95.9315 23.9902C95.5296 23.313 95.3098 22.5215 95.2721 21.6156C95.2343 20.7098 95.3824 19.9082 95.7163 19.211C96.0502 18.5139 96.5347 17.9705 97.1696 17.5811C97.8149 17.1805 98.5638 16.9625 99.4164 16.9269C100.248 16.8923 100.991 17.0428 101.645 17.3785C102.3 17.7142 102.811 18.1947 103.178 18.8199C103.556 19.434 103.762 20.1407 103.795 20.94ZM102.28 20.6989C102.257 20.1448 102.115 19.6756 101.853 19.2915C101.591 18.8967 101.243 18.607 100.808 18.4223C100.383 18.2265 99.9153 18.1392 99.4037 18.1605C98.6684 18.1912 98.0493 18.4519 97.5467 18.9426C97.0547 19.4328 96.7887 20.0951 96.7488 20.9295L102.28 20.6989ZM117.354 16.3233L112.616 29.428L111.113 29.4906L112.664 25.1983L108.77 16.6811L110.384 16.6138L113.43 23.597L115.852 16.3859L117.354 16.3233ZM123.009 25.0073C122.188 25.0415 121.434 24.8861 120.747 24.5411C120.071 24.1956 119.527 23.6898 119.115 23.0238C118.713 22.3466 118.493 21.555 118.455 20.6492C118.418 19.7539 118.577 18.9573 118.932 18.2592C119.297 17.5501 119.808 17.0003 120.465 16.61C121.12 16.209 121.864 15.9911 122.695 15.9565C123.527 15.9218 124.286 16.077 124.973 16.422C125.659 16.7564 126.208 17.2566 126.621 17.9227C127.043 18.5883 127.274 19.3741 127.311 20.28C127.349 21.1858 127.18 21.9936 126.804 22.7032C126.438 23.4017 125.922 23.9517 125.255 24.3531C124.589 24.7546 123.84 24.9726 123.009 25.0073ZM122.955 23.7284C123.477 23.7066 123.963 23.5636 124.411 23.2994C124.859 23.0352 125.211 22.6522 125.468 22.1504C125.735 21.6481 125.854 21.0453 125.825 20.3419C125.795 19.6385 125.632 19.0475 125.334 18.5688C125.037 18.0901 124.659 17.7429 124.202 17.5271C123.744 17.3006 123.254 17.1983 122.732 17.22C122.199 17.2423 121.714 17.3853 121.277 17.649C120.849 17.9017 120.513 18.2787 120.267 18.7801C120.021 19.2814 119.912 19.8838 119.942 20.5872C119.972 21.3012 120.125 21.898 120.401 22.3776C120.688 22.8568 121.055 23.2098 121.502 23.4367C121.949 23.6529 122.433 23.7502 122.955 23.7284ZM136.811 15.5121L137.177 24.2725L135.722 24.3331L135.668 23.0383C135.409 23.4974 135.035 23.8653 134.545 24.142C134.065 24.4076 133.526 24.5528 132.93 24.5777C132.248 24.6061 131.629 24.4931 131.074 24.2387C130.518 23.9736 130.069 23.5653 129.726 23.0138C129.393 22.4618 129.21 21.7808 129.176 20.9709L128.962 15.8393L130.401 15.7794L130.607 20.7191C130.643 21.5823 130.889 22.2393 131.346 22.69C131.802 23.1301 132.408 23.3343 133.165 23.3028C133.943 23.2703 134.546 23.005 134.973 22.5068C135.401 22.0085 135.595 21.3011 135.557 20.3846L135.357 15.5728L136.811 15.5121Z" fill="#B01873"/>
<mask id="path-45-inside-1_716_64451" fill="white">
<path fill-rule="evenodd" clip-rule="evenodd" d="M9.22061 5.47802C4.25195 5.61559 0.335576 9.755 0.473139 14.7237L0.943624 31.7171C1.08119 36.6858 5.2206 40.6022 10.1893 40.4646L61.4961 39.0441L70.0982 47.0267C71.2848 48.1278 73.2197 47.4366 73.4401 45.8329L74.4221 38.6863L147.456 36.6642C152.424 36.5267 156.341 32.3873 156.203 27.4186L155.732 10.4251C155.595 5.45646 151.456 1.54008 146.487 1.67765L9.22061 5.47802Z"/>
</mask>
<path d="M0.473139 14.7237L-0.526478 14.7513L0.473139 14.7237ZM9.22061 5.47802L9.24829 6.47764L9.24829 6.47764L9.22061 5.47802ZM0.943624 31.7171L1.94324 31.6895L1.94324 31.6895L0.943624 31.7171ZM10.1893 40.4646L10.2169 41.4642L10.2169 41.4642L10.1893 40.4646ZM61.4961 39.0441L62.1763 38.3111L61.8769 38.0332L61.4685 38.0445L61.4961 39.0441ZM70.0982 47.0267L69.418 47.7597L69.418 47.7597L70.0982 47.0267ZM73.4401 45.8329L72.4494 45.6968L72.4494 45.6968L73.4401 45.8329ZM74.4221 38.6863L74.3944 37.6866L73.5469 37.7101L73.4314 38.5501L74.4221 38.6863ZM147.456 36.6642L147.483 37.6639L147.483 37.6639L147.456 36.6642ZM156.203 27.4186L157.203 27.3909L157.203 27.3909L156.203 27.4186ZM155.732 10.4251L156.732 10.3974L156.732 10.3974L155.732 10.4251ZM146.487 1.67765L146.515 2.67726L146.515 2.67726L146.487 1.67765ZM1.47276 14.696C1.35048 10.2794 4.8317 6.59992 9.24829 6.47764L9.19294 4.47841C3.6722 4.63125 -0.679326 9.2306 -0.526478 14.7513L1.47276 14.696ZM1.94324 31.6895L1.47276 14.696L-0.526478 14.7513L-0.0559931 31.7448L1.94324 31.6895ZM10.1616 39.465C5.74499 39.5873 2.06552 36.1061 1.94324 31.6895L-0.0559931 31.7448C0.0968547 37.2656 4.6962 41.6171 10.2169 41.4642L10.1616 39.465ZM61.4685 38.0445L10.1616 39.465L10.2169 41.4642L61.5238 40.0437L61.4685 38.0445ZM70.7785 46.2937L62.1763 38.3111L60.8159 39.7771L69.418 47.7597L70.7785 46.2937ZM72.4494 45.6968C72.3392 46.4986 71.3717 46.8442 70.7785 46.2937L69.418 47.7597C71.1979 49.4114 74.1002 48.3746 74.4307 45.9691L72.4494 45.6968ZM73.4314 38.5501L72.4494 45.6968L74.4307 45.9691L75.4128 38.8224L73.4314 38.5501ZM147.428 35.6646L74.3944 37.6866L74.4498 39.6859L147.483 37.6639L147.428 35.6646ZM155.203 27.4463C155.326 31.8629 151.844 35.5423 147.428 35.6646L147.483 37.6639C153.004 37.511 157.355 32.9117 157.203 27.3909L155.203 27.4463ZM154.733 10.4528L155.203 27.4463L157.203 27.3909L156.732 10.3974L154.733 10.4528ZM146.515 2.67726C150.931 2.55499 154.611 6.03621 154.733 10.4528L156.732 10.3974C156.579 4.87671 151.98 0.525181 146.459 0.678029L146.515 2.67726ZM9.24829 6.47764L146.515 2.67726L146.459 0.678029L9.19294 4.47841L9.24829 6.47764Z" fill="#B01873" mask="url(#path-45-inside-1_716_64451)"/>
<defs>
<linearGradient id="paint0_linear_716_64451" x1="67.72" y1="205.113" x2="67.72" y2="83.9367" gradientUnits="userSpaceOnUse">
<stop stop-color="#808080" stop-opacity="0.25"/>
<stop offset="0.54" stop-color="#808080" stop-opacity="0.12"/>
<stop offset="1" stop-color="#808080" stop-opacity="0.1"/>
</linearGradient>
</defs>
</svg>
