<svg width="254" height="251" viewBox="0 0 254 251" fill="none" xmlns="http://www.w3.org/2000/svg">
<path d="M139.082 122.67L139.081 123.706H136.421L136.417 132.428H135.143L135.147 123.706H132.473L132.474 122.67H139.082ZM144.457 124.616C145.036 124.616 145.558 124.742 146.025 124.994C146.491 125.236 146.855 125.605 147.116 126.1C147.387 126.594 147.522 127.196 147.521 127.906L147.519 132.428H146.259L146.261 128.088C146.262 127.322 146.071 126.739 145.688 126.338C145.306 125.927 144.783 125.722 144.12 125.722C143.448 125.722 142.912 125.932 142.51 126.352C142.118 126.772 141.922 127.383 141.921 128.186L141.919 132.428H140.645L140.65 122.068H141.924L141.922 125.848C142.174 125.456 142.52 125.152 142.959 124.938C143.407 124.723 143.906 124.616 144.457 124.616ZM156.602 128.298C156.602 128.54 156.588 128.797 156.56 129.068H150.428C150.474 129.824 150.731 130.416 151.197 130.846C151.673 131.266 152.247 131.476 152.919 131.476C153.469 131.476 153.927 131.35 154.291 131.098C154.664 130.836 154.926 130.491 155.075 130.062H156.447C156.242 130.799 155.831 131.401 155.215 131.868C154.598 132.325 153.833 132.554 152.918 132.554C152.19 132.554 151.537 132.39 150.958 132.064C150.389 131.737 149.941 131.275 149.615 130.678C149.289 130.071 149.126 129.371 149.126 128.578C149.126 127.784 149.285 127.089 149.603 126.492C149.921 125.894 150.364 125.437 150.934 125.12C151.513 124.793 152.175 124.63 152.922 124.63C153.65 124.63 154.294 124.788 154.854 125.106C155.414 125.423 155.843 125.862 156.141 126.422C156.449 126.972 156.603 127.598 156.602 128.298ZM155.286 128.032C155.287 127.546 155.179 127.131 154.965 126.786C154.75 126.431 154.457 126.165 154.083 125.988C153.719 125.801 153.313 125.708 152.865 125.708C152.221 125.708 151.671 125.913 151.213 126.324C150.765 126.734 150.508 127.304 150.442 128.032H155.286ZM161.473 123.468L161.473 122.306H164.105L164.1 132.428H162.812L162.817 123.468H161.473ZM168.139 127.164C167.617 126.958 167.215 126.66 166.936 126.268C166.656 125.876 166.516 125.4 166.516 124.84C166.516 124.336 166.643 123.883 166.895 123.482C167.147 123.071 167.521 122.749 168.015 122.516C168.519 122.273 169.126 122.152 169.836 122.152C170.545 122.152 171.147 122.273 171.641 122.516C172.145 122.749 172.523 123.071 172.775 123.482C173.036 123.883 173.166 124.336 173.166 124.84C173.166 125.381 173.021 125.857 172.732 126.268C172.442 126.669 172.045 126.968 171.541 127.164C172.12 127.341 172.577 127.654 172.913 128.102C173.258 128.54 173.43 129.072 173.43 129.698C173.43 130.304 173.28 130.836 172.981 131.294C172.682 131.742 172.258 132.092 171.707 132.344C171.165 132.586 170.54 132.708 169.831 132.708C169.121 132.708 168.496 132.586 167.955 132.344C167.423 132.092 167.008 131.742 166.709 131.294C166.411 130.836 166.262 130.304 166.262 129.698C166.262 129.072 166.431 128.536 166.767 128.088C167.103 127.64 167.56 127.332 168.139 127.164ZM171.934 124.994C171.934 124.424 171.748 123.986 171.375 123.678C171.002 123.37 170.488 123.216 169.835 123.216C169.191 123.216 168.682 123.37 168.309 123.678C167.935 123.986 167.748 124.429 167.748 125.008C167.748 125.53 167.939 125.95 168.322 126.268C168.713 126.585 169.217 126.744 169.833 126.744C170.459 126.744 170.963 126.585 171.346 126.268C171.738 125.941 171.934 125.516 171.934 124.994ZM169.833 127.724C169.142 127.724 168.577 127.887 168.139 128.214C167.7 128.531 167.48 129.012 167.48 129.656C167.48 130.253 167.689 130.734 168.109 131.098C168.538 131.462 169.112 131.644 169.831 131.644C170.55 131.644 171.119 131.462 171.539 131.098C171.959 130.734 172.17 130.253 172.17 129.656C172.17 129.03 171.956 128.554 171.527 128.228C171.097 127.892 170.533 127.724 169.833 127.724ZM189.287 124.756L186.889 132.428H185.573L183.728 126.338L181.877 132.428H180.561L178.157 124.756H179.459L181.22 131.196L183.127 124.756H184.429L186.288 131.21L188.027 124.756H189.287ZM197.549 128.298C197.549 128.54 197.535 128.797 197.507 129.068H191.375C191.421 129.824 191.678 130.416 192.144 130.846C192.62 131.266 193.194 131.476 193.866 131.476C194.417 131.476 194.874 131.35 195.238 131.098C195.612 130.836 195.873 130.491 196.023 130.062H197.395C197.189 130.799 196.778 131.401 196.162 131.868C195.546 132.325 194.78 132.554 193.865 132.554C193.137 132.554 192.484 132.39 191.906 132.064C191.337 131.737 190.889 131.275 190.562 130.678C190.236 130.071 190.073 129.371 190.073 128.578C190.074 127.784 190.233 127.089 190.55 126.492C190.868 125.894 191.311 125.437 191.881 125.12C192.46 124.793 193.123 124.63 193.869 124.63C194.597 124.63 195.241 124.788 195.801 125.106C196.361 125.423 196.79 125.862 197.088 126.422C197.396 126.972 197.55 127.598 197.549 128.298ZM196.234 128.032C196.234 127.546 196.127 127.131 195.912 126.786C195.698 126.431 195.404 126.165 195.031 125.988C194.667 125.801 194.261 125.708 193.813 125.708C193.169 125.708 192.618 125.913 192.16 126.324C191.712 126.734 191.455 127.304 191.39 128.032H196.234ZM206.231 128.298C206.231 128.54 206.217 128.797 206.189 129.068H200.057C200.103 129.824 200.359 130.416 200.826 130.846C201.302 131.266 201.876 131.476 202.548 131.476C203.098 131.476 203.556 131.35 203.92 131.098C204.293 130.836 204.555 130.491 204.704 130.062H206.076C205.871 130.799 205.46 131.401 204.843 131.868C204.227 132.325 203.462 132.554 202.547 132.554C201.819 132.554 201.166 132.39 200.587 132.064C200.018 131.737 199.57 131.275 199.244 130.678C198.918 130.071 198.755 129.371 198.755 128.578C198.755 127.784 198.914 127.089 199.232 126.492C199.55 125.894 199.993 125.437 200.563 125.12C201.141 124.793 201.804 124.63 202.551 124.63C203.279 124.63 203.923 124.788 204.483 125.106C205.042 125.423 205.472 125.862 205.77 126.422C206.078 126.972 206.231 127.598 206.231 128.298ZM204.915 128.032C204.915 127.546 204.808 127.131 204.594 126.786C204.379 126.431 204.085 126.165 203.712 125.988C203.348 125.801 202.942 125.708 202.494 125.708C201.85 125.708 201.3 125.913 200.842 126.324C200.394 126.734 200.137 127.304 200.071 128.032H204.915ZM212.195 132.428L209.186 129.04L209.185 132.428H207.911L207.916 122.068H209.19L209.187 128.158L212.142 124.756H213.92L210.307 128.578L213.931 132.428H212.195Z" fill="#B01873"/>
<path d="M250 146H250.5V145.5H250V146ZM249.646 250.354C249.842 250.549 250.158 250.549 250.354 250.354L253.536 247.172C253.731 246.976 253.731 246.66 253.536 246.464C253.34 246.269 253.024 246.269 252.828 246.464L250 249.293L247.172 246.464C246.976 246.269 246.66 246.269 246.464 246.464C246.269 246.66 246.269 246.976 246.464 247.172L249.646 250.354ZM133 146.5H134.009V145.5H133V146.5ZM136.026 146.5H138.043V145.5H136.026V146.5ZM140.06 146.5H142.078V145.5H140.06V146.5ZM144.095 146.5H146.112V145.5H144.095V146.5ZM148.129 146.5H150.147V145.5H148.129V146.5ZM152.164 146.5H154.181V145.5H152.164V146.5ZM156.198 146.5H158.216V145.5H156.198V146.5ZM160.233 146.5H162.25V145.5H160.233V146.5ZM164.267 146.5H166.284V145.5H164.267V146.5ZM168.302 146.5H170.319V145.5H168.302V146.5ZM172.336 146.5H174.353V145.5H172.336V146.5ZM176.371 146.5H178.388V145.5H176.371V146.5ZM180.405 146.5H182.422V145.5H180.405V146.5ZM184.44 146.5H186.457V145.5H184.44V146.5ZM188.474 146.5H190.491V145.5H188.474V146.5ZM192.509 146.5H194.526V145.5H192.509V146.5ZM196.543 146.5H198.56V145.5H196.543V146.5ZM200.578 146.5H202.595V145.5H200.578V146.5ZM204.612 146.5H206.629V145.5H204.612V146.5ZM208.647 146.5H210.664V145.5H208.647V146.5ZM212.681 146.5H214.698V145.5H212.681V146.5ZM216.716 146.5H218.733V145.5H216.716V146.5ZM220.75 146.5H222.767V145.5H220.75V146.5ZM224.785 146.5H226.802V145.5H224.785V146.5ZM228.819 146.5H230.836V145.5H228.819V146.5ZM232.853 146.5H234.871V145.5H232.853V146.5ZM236.888 146.5H238.905V145.5H236.888V146.5ZM240.922 146.5H242.94V145.5H240.922V146.5ZM244.957 146.5H246.974V145.5H244.957V146.5ZM248.991 146.5H250V145.5H248.991V146.5ZM249.5 146V147H250.5V146H249.5ZM249.5 149V151H250.5V149H249.5ZM249.5 153V155H250.5V153H249.5ZM249.5 157V159H250.5V157H249.5ZM249.5 161V163H250.5V161H249.5ZM249.5 165V167H250.5V165H249.5ZM249.5 169V171H250.5V169H249.5ZM249.5 173V175H250.5V173H249.5ZM249.5 177V179H250.5V177H249.5ZM249.5 181V183H250.5V181H249.5ZM249.5 185V187H250.5V185H249.5ZM249.5 189V191H250.5V189H249.5ZM249.5 193V195H250.5V193H249.5ZM249.5 197V199H250.5V197H249.5ZM249.5 201V203H250.5V201H249.5ZM249.5 205V207H250.5V205H249.5ZM249.5 209V211H250.5V209H249.5ZM249.5 213V215H250.5V213H249.5ZM249.5 217V219H250.5V217H249.5ZM249.5 221V223H250.5V221H249.5ZM249.5 225V227H250.5V225H249.5ZM249.5 229V231H250.5V229H249.5ZM249.5 233V235H250.5V233H249.5ZM249.5 237V239H250.5V237H249.5ZM249.5 241V243H250.5V241H249.5ZM249.5 245V247H250.5V245H249.5ZM249.5 249V250H250.5V249H249.5Z" fill="black"/>
<path d="M137.99 157.687L137.986 164.897C137.986 165.7 137.738 166.344 137.243 166.829C136.748 167.305 136.095 167.543 135.283 167.543C134.462 167.543 133.804 167.301 133.309 166.815C132.815 166.321 132.568 165.649 132.568 164.799H133.842C133.851 165.275 133.972 165.663 134.206 165.961C134.448 166.26 134.807 166.409 135.283 166.409C135.759 166.409 136.114 166.269 136.348 165.989C136.581 165.7 136.698 165.336 136.698 164.897L136.702 157.687H137.99ZM143.841 167.571C143.122 167.571 142.469 167.408 141.881 167.081C141.302 166.755 140.845 166.293 140.51 165.695C140.183 165.089 140.02 164.389 140.021 163.595C140.021 162.811 140.189 162.121 140.526 161.523C140.871 160.917 141.338 160.455 141.926 160.137C142.514 159.811 143.172 159.647 143.9 159.647C144.628 159.647 145.286 159.811 145.874 160.137C146.462 160.455 146.924 160.912 147.26 161.509C147.605 162.107 147.777 162.802 147.777 163.595C147.776 164.389 147.599 165.089 147.244 165.695C146.898 166.293 146.426 166.755 145.829 167.081C145.231 167.408 144.569 167.571 143.841 167.571ZM143.841 166.451C144.299 166.451 144.728 166.344 145.129 166.129C145.531 165.915 145.853 165.593 146.096 165.163C146.348 164.734 146.474 164.211 146.475 163.595C146.475 162.979 146.354 162.457 146.111 162.027C145.869 161.598 145.552 161.281 145.16 161.075C144.768 160.861 144.343 160.753 143.886 160.753C143.419 160.753 142.99 160.861 142.598 161.075C142.215 161.281 141.907 161.598 141.673 162.027C141.44 162.457 141.323 162.979 141.323 163.595C141.322 164.221 141.434 164.748 141.658 165.177C141.891 165.607 142.199 165.929 142.581 166.143C142.964 166.349 143.384 166.451 143.841 166.451ZM156.257 159.773L156.254 167.445H154.98L154.98 166.311C154.738 166.703 154.397 167.011 153.958 167.235C153.529 167.45 153.052 167.557 152.53 167.557C151.932 167.557 151.396 167.436 150.92 167.193C150.444 166.941 150.066 166.568 149.787 166.073C149.516 165.579 149.381 164.977 149.381 164.267L149.383 159.773H150.643L150.641 164.099C150.641 164.855 150.832 165.439 151.215 165.849C151.597 166.251 152.12 166.451 152.782 166.451C153.464 166.451 154 166.241 154.393 165.821C154.785 165.401 154.981 164.79 154.981 163.987L154.983 159.773H156.257ZM159.682 161.019C159.906 160.581 160.224 160.24 160.634 159.997C161.055 159.755 161.563 159.633 162.161 159.633L162.16 160.949H161.824C160.396 160.949 159.682 161.724 159.681 163.273L159.679 167.445H158.405L158.409 159.773H159.683L159.682 161.019ZM167.369 159.633C168.303 159.633 169.058 159.918 169.637 160.487C170.215 161.047 170.504 161.859 170.504 162.923L170.502 167.445H169.242L169.244 163.105C169.244 162.34 169.053 161.757 168.67 161.355C168.288 160.945 167.765 160.739 167.103 160.739C166.431 160.739 165.894 160.949 165.492 161.369C165.1 161.789 164.904 162.401 164.904 163.203L164.902 167.445H163.628L163.631 159.773H164.905L164.905 160.865C165.157 160.473 165.498 160.17 165.927 159.955C166.366 159.741 166.847 159.633 167.369 159.633ZM179.585 163.315C179.584 163.558 179.57 163.815 179.542 164.085H173.41C173.457 164.841 173.713 165.434 174.179 165.863C174.655 166.283 175.229 166.493 175.901 166.493C176.452 166.493 176.909 166.367 177.273 166.115C177.647 165.854 177.908 165.509 178.058 165.079H179.43C179.224 165.817 178.813 166.419 178.197 166.885C177.581 167.343 176.815 167.571 175.901 167.571C175.173 167.571 174.519 167.408 173.941 167.081C173.372 166.755 172.924 166.293 172.597 165.695C172.271 165.089 172.108 164.389 172.108 163.595C172.109 162.802 172.268 162.107 172.585 161.509C172.903 160.912 173.347 160.455 173.916 160.137C174.495 159.811 175.158 159.647 175.904 159.647C176.632 159.647 177.276 159.806 177.836 160.123C178.396 160.441 178.825 160.879 179.123 161.439C179.431 161.99 179.585 162.615 179.585 163.315ZM178.269 163.049C178.269 162.564 178.162 162.149 177.947 161.803C177.733 161.449 177.439 161.183 177.066 161.005C176.702 160.819 176.296 160.725 175.848 160.725C175.204 160.725 174.653 160.931 174.196 161.341C173.747 161.752 173.49 162.321 173.425 163.049H178.269ZM187.876 159.773L183.251 171.057H181.935L183.448 167.361L180.358 159.773H181.772L184.177 165.989L186.56 159.773H187.876Z" fill="#B01873"/>
<g opacity="0.2">
<path d="M57.3135 196.618C57.4408 197.117 57.6101 197.606 57.8197 198.079C61.0773 196.855 64.3709 195.682 67.7005 194.559C67.6723 194.427 67.6442 194.288 67.6091 194.151C67.2736 192.74 66.5577 191.439 65.5326 190.375C64.2014 189.03 62.4859 188.38 60.8172 188.776C59.1485 189.173 57.9369 190.532 57.3838 192.319C56.9703 193.722 56.946 195.203 57.3135 196.618Z" fill="#3F3D56"/>
<path d="M61.9938 193.941C64.8538 193.33 66.4795 189.867 65.6249 186.206C64.7703 182.546 61.7591 180.073 58.8991 180.684C56.0392 181.296 54.4135 184.759 55.2681 188.419C56.1226 192.08 59.1339 194.552 61.9938 193.941Z" fill="#3F3D56"/>
<path d="M59.988 185.867C62.8479 185.256 64.4736 181.793 63.619 178.132C62.7644 174.471 59.7532 171.999 56.8932 172.61C54.0333 173.221 52.4076 176.684 53.2622 180.345C54.1168 184.006 57.128 186.478 59.988 185.867Z" fill="#3F3D56"/>
<path d="M57.9763 177.797C60.8362 177.186 62.4619 173.723 61.6073 170.062C60.7527 166.401 57.7415 163.929 54.8815 164.54C52.0216 165.151 50.3959 168.614 51.2505 172.275C52.1051 175.936 55.1163 178.408 57.9763 177.797Z" fill="#3F3D56"/>
<path d="M55.9645 169.723C58.8245 169.111 60.4502 165.648 59.5956 161.988C58.741 158.327 55.7298 155.855 52.8698 156.466C50.0099 157.077 48.3842 160.54 49.2388 164.201C50.0934 167.861 53.1046 170.334 55.9645 169.723Z" fill="#3F3D56"/>
<path d="M59.9361 103.232C60.4237 102.186 60.8356 101.109 61.1689 100.008L47.1071 101.066L61.7641 97.6739C62.4645 94.1475 62.3758 90.5191 61.504 87.0278C60.7396 83.9371 59.3694 81.0131 57.4659 78.4109L40.3105 93.0863L55.1621 75.7158C49.0991 69.5227 39.9285 66.5764 30.8141 68.7649C17.1953 72.0228 8.84957 85.4852 12.1728 98.8332C13.4938 104.225 16.6607 109.039 21.1701 112.511C20.4125 114.14 19.8367 115.842 19.4522 117.587L39.2371 122.327L18.9834 120.648C18.7412 123.353 18.9532 126.078 19.6115 128.72C20.9348 134.111 24.1023 138.925 28.6111 142.397C26.2416 147.488 25.6945 153.184 27.0549 158.602C30.3782 171.95 44.1119 180.127 57.7307 176.872C71.3496 173.616 79.6953 160.154 76.372 146.806C75.0487 141.415 71.8813 136.601 67.3725 133.128C69.742 128.038 70.289 122.342 68.9286 116.923C67.6112 111.528 64.4459 106.709 59.9361 103.232Z" fill="#B01873"/>
<path opacity="0.1" d="M19.6161 128.712C20.9394 134.103 24.1068 138.917 28.6156 142.39C26.2461 147.48 25.6991 153.176 27.0594 158.594C30.3827 171.942 44.1164 180.12 57.7353 176.864C71.3541 173.608 79.6998 160.146 76.3765 146.798C75.0532 141.407 71.8858 136.593 67.377 133.12C69.6597 128.219 18.9411 126.006 19.6161 128.712Z" fill="black"/>
</g>
<path d="M43.0543 208.783C47.4292 208.783 50.9758 208.131 50.9758 207.326C50.9758 206.521 47.4292 205.869 43.0543 205.869C38.6794 205.869 35.1328 206.521 35.1328 207.326C35.1328 208.131 38.6794 208.783 43.0543 208.783Z" fill="#B01873"/>
<path d="M42.9195 207.862C43.4295 207.862 43.8429 207.345 43.8429 206.707C43.8429 206.07 43.4295 205.553 42.9195 205.553C42.4095 205.553 41.9961 206.07 41.9961 206.707C41.9961 207.345 42.4095 207.862 42.9195 207.862Z" fill="#3F3D56"/>
<path d="M42.9195 206.452C43.4295 206.452 43.8429 205.935 43.8429 205.297C43.8429 204.66 43.4295 204.143 42.9195 204.143C42.4095 204.143 41.9961 204.66 41.9961 205.297C41.9961 205.935 42.4095 206.452 42.9195 206.452Z" fill="#3F3D56"/>
<path d="M42.9195 205.039C43.4295 205.039 43.8429 204.522 43.8429 203.884C43.8429 203.246 43.4295 202.729 42.9195 202.729C42.4095 202.729 41.9961 203.246 41.9961 203.884C41.9961 204.522 42.4095 205.039 42.9195 205.039Z" fill="#3F3D56"/>
<path d="M42.9195 203.629C43.4295 203.629 43.8429 203.112 43.8429 202.474C43.8429 201.836 43.4295 201.319 42.9195 201.319C42.4095 201.319 41.9961 201.836 41.9961 202.474C41.9961 203.112 42.4095 203.629 42.9195 203.629Z" fill="#3F3D56"/>
<path d="M42.9195 202.216C43.4295 202.216 43.8429 201.699 43.8429 201.061C43.8429 200.423 43.4295 199.906 42.9195 199.906C42.4095 199.906 41.9961 200.423 41.9961 201.061C41.9961 201.699 42.4095 202.216 42.9195 202.216Z" fill="#3F3D56"/>
<path d="M42.9195 200.803C43.4295 200.803 43.8429 200.286 43.8429 199.648C43.8429 199.01 43.4295 198.493 42.9195 198.493C42.4095 198.493 41.9961 199.01 41.9961 199.648C41.9961 200.286 42.4095 200.803 42.9195 200.803Z" fill="#3F3D56"/>
<path d="M42.9195 199.393C43.4295 199.393 43.8429 198.876 43.8429 198.239C43.8429 197.601 43.4295 197.084 42.9195 197.084C42.4095 197.084 41.9961 197.601 41.9961 198.239C41.9961 198.876 42.4095 199.393 42.9195 199.393Z" fill="#3F3D56"/>
<path d="M46.373 188.576C46.498 188.422 46.6123 188.26 46.7152 188.092L44.2942 187.711L46.9144 187.731C47.1666 187.207 47.3041 186.64 47.3186 186.064C47.3331 185.488 47.2243 184.915 46.9988 184.381L43.4833 186.125L46.7246 183.856C46.4195 183.356 46.0103 182.922 45.5224 182.579C45.0345 182.237 44.4783 181.994 43.8883 181.866C43.2982 181.738 42.6869 181.727 42.0923 181.834C41.4976 181.941 40.9323 182.164 40.4314 182.488C39.9305 182.813 39.5046 183.233 39.1803 183.721C38.8559 184.21 38.6399 184.757 38.5457 185.329C38.4514 185.901 38.481 186.485 38.6325 187.046C38.7841 187.606 39.0543 188.131 39.4265 188.587C39.2307 188.827 39.0618 189.085 38.9226 189.359L42.0701 190.928L38.7141 189.852C38.4779 190.517 38.4186 191.229 38.5413 191.921C38.6641 192.614 38.965 193.267 39.4171 193.821C38.9049 194.444 38.5863 195.193 38.4979 195.982C38.4094 196.77 38.5546 197.567 38.9169 198.28C39.2792 198.993 39.844 199.595 40.5466 200.015C41.2493 200.436 42.0615 200.659 42.8904 200.659C43.7193 200.659 44.5315 200.436 45.2342 200.015C45.9368 199.595 46.5016 198.993 46.8639 198.28C47.2262 197.567 47.3714 196.77 47.2829 195.982C47.1945 195.193 46.8759 194.444 46.3637 193.821C46.9755 193.075 47.3081 192.155 47.3081 191.207C47.3081 190.26 46.9755 189.339 46.3637 188.594L46.373 188.576Z" fill="#B01873"/>
<path opacity="0.1" d="M38.4836 191.188C38.4806 192.135 38.8108 193.056 39.4211 193.802C38.9088 194.426 38.5902 195.175 38.5018 195.963C38.4133 196.752 38.5586 197.548 38.9208 198.262C39.2831 198.975 39.8479 199.576 40.5505 199.997C41.2532 200.418 42.0654 200.641 42.8943 200.641C43.7232 200.641 44.5355 200.418 45.2381 199.997C45.9408 199.576 46.5055 198.975 46.8678 198.262C47.2301 197.548 47.3753 196.752 47.2868 195.963C47.1984 195.175 46.8798 194.426 46.3676 193.802C46.9652 193.083 38.4836 190.715 38.4836 191.188Z" fill="black"/>
<path d="M84.7593 143.144C84.1616 140.153 83.4937 137.155 83.3836 134.113C83.3179 132.319 83.4492 130.494 83.2078 128.704C83.0883 127.825 82.8797 126.962 82.6734 126.099L81.8438 122.644C81.9379 121.981 81.9109 121.308 81.7641 120.655C81.681 120.31 81.5705 119.972 81.4337 119.643C82.2081 118.601 82.8464 117.471 83.3344 116.28C83.5547 115.742 83.7445 115.17 83.6578 114.601C83.489 113.509 82.3828 112.789 81.354 112.251C80.7306 111.926 80.0744 111.612 79.3619 111.56C78.8637 111.541 78.3675 111.632 77.9122 111.827C77.4569 112.021 77.0547 112.314 76.737 112.681C76.5639 111.797 76.6218 110.886 76.9058 110.029C76.2941 109.766 75.6777 109.52 75.0566 109.28C74.9669 108.505 74.9355 107.725 74.9629 106.946C74.9769 106.011 74.9934 105.067 75.0496 104.129C76.7163 103.547 78.157 102.492 79.1783 101.104C80.1997 99.7157 80.7528 98.062 80.7634 96.3646C80.7634 96.2682 80.7634 96.174 80.7634 96.0798C81.2176 95.2986 81.505 94.4388 81.6088 93.5504C81.7126 92.662 81.6308 91.7627 81.368 90.9048C80.6814 88.6625 78.8861 86.8149 76.723 85.6736C74.5598 84.5323 72.0521 84.0503 69.5702 83.9651C68.7372 83.9184 67.9015 83.9689 67.0812 84.1153C66.2034 84.322 65.3527 84.6229 64.5454 85.0122C63.3057 85.5593 62.0565 86.158 61.1284 87.1019C59.5183 88.7455 59.1574 91.1604 59.3332 93.3802C59.5676 96.2951 60.5847 99.1158 61.7612 101.829C62.1526 102.726 62.5698 103.636 63.2143 104.401C63.7134 104.99 64.5806 105.026 65.2696 104.614C65.2149 105.33 65.1977 106.048 65.2181 106.766C63.9455 106.724 62.7057 106.923 61.6839 107.609C61.2151 107.93 60.7698 108.435 60.873 108.977C61.186 108.985 61.486 109.099 61.7201 109.298C61.9543 109.496 62.1074 109.768 62.1526 110.065C62.2041 110.542 61.9534 110.997 61.7096 111.41C61.6042 111.594 61.4987 111.78 61.3909 111.964C60.3831 112.995 59.3496 114.287 59.2582 115.567C59.0938 115.582 58.9303 115.605 58.7684 115.637C57.8544 115.798 56.945 116.096 56.0474 116.32L49.5509 117.957L47.9455 118.383L45.3675 119.034C43.7269 119.446 42.0559 119.87 40.6005 120.699C39.1451 121.529 37.91 122.832 37.6171 124.401C37.4718 125.182 37.5608 125.993 37.3827 126.767C37.3827 126.803 37.3687 126.836 37.3593 126.87C37.2104 127.36 37.0102 127.834 36.7616 128.285C35.3062 131.22 34.2704 134.42 34.4649 137.651C34.5844 139.635 35.168 141.57 35.7351 143.481C36.3304 145.434 36.9179 147.388 37.4976 149.342C37.8798 150.74 38.3645 152.112 38.9483 153.445C39.9482 155.581 41.4315 157.478 43.291 158.999C43.8128 159.447 44.3964 159.824 45.0253 160.12C45.9842 160.517 47.0312 160.679 48.072 160.593C48.3533 160.575 48.6298 160.546 48.904 160.504C50.9172 160.199 52.7945 159.27 54.517 158.225C55.2373 157.789 55.9404 157.329 56.6263 156.846C56.7134 157.6 56.8703 158.344 57.095 159.071C57.2474 159.571 57.4348 160.084 57.3739 160.602C57.2895 161.324 56.7411 161.916 56.4576 162.593C55.8552 164.024 56.474 165.618 56.5747 167.152C56.6708 168.589 56.3052 170.015 56.0123 171.43C55.523 173.79 55.2338 176.183 55.1475 178.587C55.1448 179.497 55.0822 180.407 54.96 181.309C54.742 182.583 54.2311 183.812 54.142 185.099C54.0061 187.103 54.9108 189.065 54.8287 191.072C54.7326 193.428 53.2866 195.718 53.7905 198.023C53.8538 198.312 54.0249 198.646 54.3014 198.72L54.1655 198.839C53.7507 199.207 53.3476 199.886 53.8186 200.184C53.927 200.246 54.0474 200.286 54.1725 200.301C54.9014 200.447 55.6349 200.579 56.3685 200.702C56.3524 201.351 56.4377 201.997 56.6216 202.622C56.7552 202.714 56.8911 202.796 57.0271 202.875C56.9239 203.14 56.931 203.395 57.1747 203.548C57.2831 203.609 57.4035 203.649 57.5286 203.664C63.5657 204.856 69.7312 205.345 75.891 205.122C76.9925 205.081 78.1432 205.005 79.083 204.467C80.0228 203.929 80.6579 202.783 80.2103 201.839C79.8142 201.005 78.7783 200.644 77.8479 200.366L76.7558 200.043C76.8957 199.806 76.9773 199.541 76.9943 199.269C77.0114 198.997 76.9635 198.725 76.8542 198.473C76.4581 197.639 75.4222 197.278 74.4918 197L71.9771 196.254C71.6461 196.179 71.3349 196.039 71.0631 195.843C70.883 195.672 70.7168 195.487 70.5662 195.292C70.2034 194.895 69.7266 194.609 69.1952 194.469C69.1669 193.959 69.1787 193.448 69.2304 192.94L69.9334 184.821C70.0905 182.982 70.2452 181.107 69.7975 179.311C69.6171 178.583 69.3288 177.836 69.5046 177.105C69.7788 175.912 71.0912 175.248 71.9865 174.363C73.3364 173.017 73.7559 171.105 74.0653 169.284C75.3463 161.771 75.7488 154.144 75.2652 146.546C78.0786 145.787 80.9742 145.341 83.8945 145.218C84.3913 145.198 84.6351 144.974 84.7897 144.53C84.9444 144.086 84.8507 143.604 84.7593 143.144ZM70.7326 143.541C70.749 143.463 70.7678 143.384 70.7818 143.306L70.9764 143.543L70.7326 143.541Z" fill="url(#paint0_linear_1525_62811)"/>
<path d="M66.1636 102.384C66.1027 103.164 65.8144 103.913 65.7089 104.691C65.5894 105.548 65.6949 106.42 65.6363 107.283C65.5777 108.147 65.3175 109.055 64.6309 109.617C68.622 109.948 72.5532 110.762 76.3303 112.039C75.1889 110.694 75.1585 108.815 75.1866 107.088C75.2241 104.534 75.271 101.931 76.1428 99.5207C73.5425 98.9646 70.8499 98.931 68.2354 99.422C67.6682 99.5297 65.9503 99.4624 65.6949 99.9691C65.5097 100.341 66.2058 101.819 66.1636 102.384Z" fill="#A1616A"/>
<path opacity="0.1" d="M66.1636 102.384C66.1027 103.164 65.8144 103.913 65.7089 104.691C65.5894 105.548 65.6949 106.42 65.6363 107.283C65.5777 108.147 65.3175 109.055 64.6309 109.617C68.622 109.948 72.5532 110.762 76.3303 112.039C75.1889 110.694 75.1585 108.815 75.1866 107.088C75.2241 104.534 75.271 101.931 76.1428 99.5207C73.5425 98.9646 70.8499 98.931 68.2354 99.422C67.6682 99.5297 65.9503 99.4624 65.6949 99.9691C65.5097 100.341 66.2058 101.819 66.1636 102.384Z" fill="black"/>
<path d="M70.8874 195.302C71.0282 195.501 71.1849 195.689 71.3561 195.865C71.62 196.061 71.9244 196.201 72.249 196.276L74.7051 197.022C75.6168 197.3 76.6293 197.659 77.016 198.493C77.4519 199.435 76.8308 200.581 75.9121 201.117C74.9934 201.652 73.8685 201.731 72.7927 201.771C66.7697 201.993 60.741 201.505 54.8428 200.316C54.7211 200.299 54.6041 200.26 54.4983 200.199C54.0296 199.897 54.4304 199.22 54.8358 198.854C56.4178 197.419 58.138 195.915 60.2918 195.583C61.4238 195.406 62.5604 195.477 63.6854 195.219C64.4939 195.033 65.2579 194.713 66.0642 194.522C67.5664 194.17 69.814 194.045 70.8874 195.302Z" fill="#46455B"/>
<path opacity="0.1" d="M70.8874 195.302C71.0282 195.501 71.1849 195.689 71.3561 195.865C71.62 196.061 71.9244 196.201 72.249 196.276L74.7051 197.022C75.6168 197.3 76.6293 197.659 77.016 198.493C77.4519 199.435 76.8308 200.581 75.9121 201.117C74.9934 201.652 73.8685 201.731 72.7927 201.771C66.7697 201.993 60.741 201.505 54.8428 200.316C54.7211 200.299 54.6041 200.26 54.4983 200.199C54.0296 199.897 54.4304 199.22 54.8358 198.854C56.4178 197.419 58.138 195.915 60.2918 195.583C61.4238 195.406 62.5604 195.477 63.6854 195.219C64.4939 195.033 65.2579 194.713 66.0642 194.522C67.5664 194.17 69.814 194.045 70.8874 195.302Z" fill="black"/>
<path d="M58.5547 144.588C57.3428 147.648 57.2683 151.014 58.3438 154.12C57.5259 154.035 57.172 155.093 57.1931 155.882C57.2222 156.981 57.3962 158.072 57.711 159.129C57.861 159.631 58.0438 160.143 57.9852 160.658C57.9008 161.38 57.3665 161.972 57.0876 162.647C56.5017 164.075 57.104 165.667 57.2048 167.199C57.2985 168.636 56.94 170.06 56.6517 171.473C56.1742 173.83 55.892 176.219 55.808 178.619C55.8063 179.528 55.7444 180.436 55.6228 181.338C55.4119 182.612 54.9197 183.838 54.826 185.123C54.6924 187.123 55.576 189.085 55.4963 191.09C55.4025 193.442 53.987 195.729 54.4815 198.041C54.5518 198.366 54.7416 198.749 55.0908 198.754C58.625 198.796 61.9272 197.857 65.4239 198.348C65.7801 190.608 66.127 182.832 67.7207 175.233C69.1268 168.468 71.5103 161.779 71.2877 154.882C71.1588 150.938 70.1791 147.07 69.5839 143.164C65.8474 142.371 61.9376 142.875 58.5547 144.588Z" fill="#BBBDC8"/>
<path opacity="0.1" d="M58.5547 144.588C57.3428 147.648 57.2683 151.014 58.3438 154.12C57.5259 154.035 57.172 155.093 57.1931 155.882C57.2222 156.981 57.3962 158.072 57.711 159.129C57.861 159.631 58.0438 160.143 57.9852 160.658C57.9008 161.38 57.3665 161.972 57.0876 162.647C56.5017 164.075 57.104 165.667 57.2048 167.199C57.2985 168.636 56.94 170.06 56.6517 171.473C56.1742 173.83 55.892 176.219 55.808 178.619C55.8063 179.528 55.7444 180.436 55.6228 181.338C55.4119 182.612 54.9197 183.838 54.826 185.123C54.6924 187.123 55.576 189.085 55.4963 191.09C55.4025 193.442 53.987 195.729 54.4815 198.041C54.5518 198.366 54.7416 198.749 55.0908 198.754C58.625 198.796 61.9272 197.857 65.4239 198.348C65.7801 190.608 66.127 182.832 67.7207 175.233C69.1268 168.468 71.5103 161.779 71.2877 154.882C71.1588 150.938 70.1791 147.07 69.5839 143.164C65.8474 142.371 61.9376 142.875 58.5547 144.588Z" fill="black"/>
<path d="M74.1686 198.667C74.3094 198.866 74.4662 199.054 74.6373 199.229C74.9012 199.425 75.2056 199.565 75.5303 199.64L77.9864 200.386C78.8981 200.665 79.9105 201.023 80.2972 201.857C80.7331 202.799 80.1121 203.945 79.1933 204.481C78.2746 205.017 77.1497 205.095 76.074 205.136C70.0509 205.358 64.0222 204.869 58.1241 203.68C58.0024 203.663 57.8853 203.624 57.7796 203.564C57.3108 203.261 57.7116 202.584 58.1171 202.218C59.699 200.783 61.4192 199.279 63.573 198.947C64.705 198.77 65.8417 198.842 66.9666 198.584C67.7752 198.398 68.5392 198.077 69.3454 197.886C70.8477 197.534 73.0952 197.409 74.1686 198.667Z" fill="#46455B"/>
<path d="M59.7742 144.811C58.8696 145.932 58.6024 147.412 58.7243 148.815C58.8462 150.219 59.3407 151.566 59.8258 152.896C59.1813 153.463 59.3149 154.441 59.3992 155.275C59.7063 158.374 58.5813 161.466 58.7454 164.574C58.8133 165.881 59.111 167.17 59.1813 168.477C59.2586 169.906 59.0688 171.334 58.8907 172.753C57.7529 181.84 57.127 190.978 57.0158 200.129C57.0158 200.972 57.0017 201.828 57.2501 202.635C58.954 203.835 61.0937 203.997 63.1561 203.548C65.2185 203.1 67.1004 202.1 68.9496 201.113C69.9626 200.611 70.9232 200.018 71.8182 199.342C72.092 199.156 72.2945 198.89 72.3947 198.584C72.5916 197.687 71.2885 197.281 70.5409 196.7C69.4534 195.855 69.4698 194.29 69.5823 192.954L70.262 184.846C70.4167 183.009 70.5667 181.137 70.1307 179.343C69.9526 178.617 69.6784 177.87 69.8425 177.139C70.1097 175.951 71.394 175.287 72.2681 174.401C73.5899 173.056 73.9977 171.148 74.3024 169.332C75.7383 160.715 76.0438 151.961 75.2118 143.272C73.4892 143.844 71.4479 143.533 69.6316 143.667C67.8152 143.802 66.0106 144.382 64.1709 144.429C62.6381 144.463 60.7164 143.654 59.7742 144.811Z" fill="#BBBDC8"/>
<path d="M72.1851 104.817C76.9742 104.817 80.8566 101.103 80.8566 96.5209C80.8566 91.939 76.9742 88.2246 72.1851 88.2246C67.396 88.2246 63.5137 91.939 63.5137 96.5209C63.5137 101.103 67.396 104.817 72.1851 104.817Z" fill="#A1616A"/>
<path d="M77.0857 110.169C74.307 108.948 71.4096 107.991 68.4353 107.312C66.3401 106.835 63.9473 106.548 62.1966 107.747C61.7278 108.068 61.3037 108.572 61.4044 109.115C61.7133 109.125 62.0086 109.239 62.2374 109.438C62.4662 109.637 62.6137 109.907 62.6536 110.2C62.7051 110.675 62.4614 111.131 62.2224 111.545L60.1998 115.133C59.8123 115.779 59.4792 116.454 59.2038 117.151C58.796 118.29 58.7069 119.51 58.6202 120.712L58.3858 123.967C58.2405 126.019 58.0929 128.08 58.2874 130.127C58.4327 131.672 58.7702 133.223 58.5405 134.759C58.3554 135.995 57.8093 137.154 57.5023 138.369C56.9257 140.656 57.1882 143.163 56.0703 145.262C56.5243 145.061 57.0368 145.017 57.521 145.136C60.9146 145.735 63.584 148.298 66.8792 149.278C67.7111 148.116 68.8384 147.26 69.7689 146.179C70.4608 145.369 70.919 144.399 71.0977 143.367C71.8008 144.264 72.3984 144.964 72.8179 146.004C72.8926 146.246 73.0204 146.47 73.1929 146.661C73.6359 147.074 74.3647 146.914 74.9577 146.742C77.8646 145.903 80.8698 145.415 83.9033 145.291C84.3908 145.271 84.6275 145.047 84.7798 144.603C84.9322 144.159 84.8478 143.679 84.7564 143.221C84.1728 140.233 83.5213 137.239 83.4135 134.201C83.3479 132.407 83.4768 130.589 83.2401 128.799C83.1229 127.923 82.919 127.059 82.7174 126.198L81.0441 119.084C80.9503 118.687 80.505 118.427 80.3152 118.061C79.5465 116.573 78.077 115.496 77.3177 114.003C76.7441 112.797 76.6614 111.43 77.0857 110.169Z" fill="#46455B"/>
<path d="M64.9196 99.8417C64.9094 99.7256 64.9381 99.6094 65.0016 99.5099C65.0943 99.4167 65.2105 99.348 65.3391 99.3103C65.6885 99.1516 65.9743 98.8882 66.1532 98.56C66.3321 98.2319 66.3943 97.8569 66.3304 97.4919L67.1507 97.3282L67.1765 94.5949C68.3952 93.9492 70.0568 94.438 71.2028 93.6778C71.8473 93.2473 72.1778 92.5164 72.5715 91.8661C72.9652 91.2159 73.5512 90.5611 74.3339 90.5073C74.0647 91.1624 73.9494 91.8661 73.9959 92.5686C74.0425 93.2711 74.2499 93.9552 74.6034 94.5725C75.4241 94.1751 76.1094 93.5622 76.5791 92.8056L76.9869 95.0478C76.9952 95.1861 77.057 95.3164 77.1603 95.4133C77.3736 95.5636 77.6619 95.3752 77.8494 95.1891L78.9111 94.1913C79.3579 95.2639 79.6641 96.3854 79.8227 97.53C81.5664 95.9111 82.1078 93.3101 81.4375 91.0769C80.7672 88.8436 79.0118 86.9938 76.8979 85.8525C74.7839 84.7112 72.3325 84.2313 69.9068 84.1461C69.0925 84.1005 68.2755 84.151 67.4741 84.2964C66.6143 84.5033 65.7824 84.8042 64.9945 85.1933C63.7829 85.7381 62.5595 86.3368 61.6549 87.2785C60.0799 88.9198 59.7261 91.3325 59.8995 93.5568C60.1338 96.4717 61.1229 99.2857 62.2736 101.994C62.6556 102.891 63.0634 103.799 63.6938 104.564C64.643 105.714 66.9749 104.759 66.6773 102.485C66.471 100.862 64.9196 101.488 64.9196 99.8417Z" fill="#3F3D56"/>
<path d="M68.1986 144.258C65.2739 149.975 60.7825 154.826 55.2032 158.294C53.5181 159.337 51.6877 160.265 49.7167 160.57C49.4472 160.613 49.1777 160.642 48.9035 160.66C47.8871 160.74 46.8658 160.574 45.9341 160.178C45.3172 159.88 44.7463 159.503 44.2373 159.056C42.4135 157.529 40.9643 155.636 39.993 153.511C39.4221 152.178 38.9483 150.809 38.5751 149.413C38.0001 147.46 37.4267 145.507 36.8549 143.554C36.2947 141.643 35.7299 139.711 35.6127 137.724C35.4229 134.497 36.4353 131.302 37.8579 128.372C38.1006 127.92 38.296 127.447 38.4415 126.959C38.4415 126.925 38.4579 126.892 38.4649 126.856C38.6337 126.082 38.547 125.273 38.6993 124.492C38.9852 122.923 40.1945 121.622 41.6148 120.795C43.035 119.968 44.6615 119.544 46.2763 119.131L48.791 118.483L50.3519 118.082L56.7008 116.447C57.5796 116.223 58.4679 115.925 59.3608 115.775C60.3568 115.595 60.3498 115.69 60.4271 116.622C60.5701 118.313 60.5232 119.974 60.8959 121.649C61.2497 123.248 61.8732 124.788 62.3419 126.358C63.5254 130.32 63.7223 134.491 64.6551 138.515C64.8683 139.432 65.1636 140.41 65.9347 140.982C66.8182 141.655 68.3064 141.82 68.5408 142.874C68.6275 143.343 68.4096 143.823 68.1986 144.258Z" fill="#B01873"/>
<path opacity="0.1" d="M49.7167 160.562C49.4472 160.604 49.1777 160.633 48.9035 160.651C47.8879 160.735 46.8667 160.572 45.9341 160.178C45.3172 159.881 44.7463 159.504 44.2373 159.057C42.4135 157.53 40.9643 155.637 39.993 153.512C39.4221 152.179 38.9483 150.809 38.5751 149.413C38.0001 147.461 37.4267 145.508 36.8549 143.554C36.2947 141.644 35.7299 139.711 35.6127 137.725C35.4229 134.498 36.4353 131.303 37.8579 128.372C38.1006 127.921 38.296 127.448 38.4415 126.96C38.4415 126.926 38.4579 126.892 38.4649 126.856C42.2897 127.5 46.8786 134.5 49.2457 143.673C50.9893 150.532 51.0643 156.848 49.7167 160.562Z" fill="black"/>
<path opacity="0.1" d="M56.6305 136.426L55.9907 136.531C55.3321 134.876 54.6759 133.219 53.9048 131.61C53.5041 130.769 53.0705 129.939 52.733 129.071C51.4674 125.739 51.6831 121.786 49.3371 119.042C49.1696 118.838 48.9786 118.653 48.7676 118.49L50.3284 118.089C51.6953 120.156 52.6592 122.444 53.1736 124.84C53.4267 126.011 53.5697 127.208 53.9822 128.334C54.333 129.187 54.7344 130.021 55.1845 130.831C56.075 132.578 56.7453 134.486 56.6305 136.426Z" fill="black"/>
<path d="M62.8616 111.164C64.5467 109.783 66.8458 109.025 69.0277 109.37C70.312 109.57 71.505 110.124 72.6557 110.715C74.8985 111.855 77.1086 113.166 78.7257 115.038C79.6954 116.219 80.5005 117.516 81.1209 118.895C81.4251 119.498 81.6608 120.13 81.824 120.781C82.3958 123.315 80.992 125.833 79.6397 128.079L77.0383 132.398C75.843 134.382 74.6384 136.38 73.0822 138.122C72.3651 138.925 71.5776 139.667 70.7925 140.409L67.345 143.665C67.283 143.735 67.2018 143.787 67.1106 143.815C67.0354 143.819 66.9601 143.807 66.8901 143.781C66.8201 143.754 66.757 143.713 66.7052 143.661L65.5662 142.793C66.6153 142.099 67.5903 141.308 68.477 140.432C69.9675 138.956 71.1932 137.259 72.4119 135.568L76.2039 130.308C77.3125 128.768 78.4702 127.073 78.346 125.207C78.2874 124.31 77.9359 123.467 77.5679 122.644C76.9164 121.181 76.2086 119.74 75.4446 118.323C74.5868 116.734 73.6494 115.164 72.4143 113.821C71.1792 112.478 69.6183 111.354 67.8208 110.868C67.2846 110.7 66.7164 110.648 66.1568 110.715C64.924 110.911 64.0475 111.924 63.2671 112.866L60.8906 115.781C60.3492 116.442 59.8524 117.209 59.8196 115.953C59.7633 114.162 61.657 112.316 62.8616 111.164Z" fill="#B01873"/>
<path d="M63.5987 130.827C64.0674 132.553 64.7588 134.513 66.4954 135.168C67.7259 135.632 69.1672 135.255 70.2312 134.495C71.2952 133.735 72.0499 132.663 72.7436 131.58C73.3307 130.607 73.9779 129.668 74.6818 128.768C76.0715 127.1 77.9629 125.777 78.9003 123.836C79.1769 123.257 79.369 122.638 79.6831 122.082C80.0187 121.569 80.3981 121.084 80.8174 120.631C81.8965 119.352 82.7592 117.919 83.3743 116.385C83.5899 115.849 83.7751 115.275 83.6907 114.707C83.5243 113.615 82.4439 112.898 81.4385 112.362C80.8268 112.037 80.187 111.721 79.4909 111.671C78.4738 111.595 77.473 112.12 76.8473 112.889C76.2449 113.684 75.9083 114.636 75.8817 115.618C75.8114 116.813 76.0551 118.055 75.6473 119.185C75.4317 119.712 75.1338 120.205 74.7638 120.647C73.4473 122.332 71.8179 123.771 69.957 124.892C69.906 124.043 69.7137 123.209 69.3875 122.418C69.2094 121.983 65.7174 122.418 65.2627 122.49C64.3627 122.616 62.6191 122.714 62.0519 123.535C61.4848 124.356 62.1878 125.735 62.4175 126.562L63.5987 130.827Z" fill="#A1616A"/>
<path d="M63.5123 111.985C62.9936 112.395 62.5107 112.845 62.0687 113.33C61.0281 114.53 60.5195 116.09 60.3883 117.644C60.257 119.198 60.4797 120.758 60.7586 122.294C61.0117 123.673 61.3109 125.041 61.6562 126.4C61.7523 125.375 62.6194 124.528 63.6248 124.158C64.6303 123.788 65.7341 123.828 66.8051 123.978C68.1837 124.174 69.5284 124.545 70.8034 125.084L71.2979 118.453C71.402 117.559 71.3965 116.656 71.2815 115.763C71.1257 114.934 70.7873 114.146 70.2886 113.452C69.79 112.758 69.1425 112.174 68.3894 111.738C66.5098 110.644 65.1998 110.574 63.5123 111.985Z" fill="#46455B"/>
<path opacity="0.1" d="M80.3866 62.2145C81.2927 62.2145 82.0272 61.5119 82.0272 60.6453C82.0272 59.7787 81.2927 59.0762 80.3866 59.0762C79.4806 59.0762 78.7461 59.7787 78.7461 60.6453C78.7461 61.5119 79.4806 62.2145 80.3866 62.2145Z" fill="#B01873"/>
<path opacity="0.1" d="M60.2304 63.7838C61.1364 63.7838 61.8709 63.0813 61.8709 62.2147C61.8709 61.348 61.1364 60.6455 60.2304 60.6455C59.3243 60.6455 58.5898 61.348 58.5898 62.2147C58.5898 63.0813 59.3243 63.7838 60.2304 63.7838Z" fill="#B01873"/>
<path opacity="0.1" d="M9.84354 137.777C12.1734 137.777 14.0621 135.97 14.0621 133.741C14.0621 131.512 12.1734 129.705 9.84354 129.705C7.51371 129.705 5.625 131.512 5.625 133.741C5.625 135.97 7.51371 137.777 9.84354 137.777Z" fill="#B01873"/>
<path opacity="0.1" d="M77.1054 74.7701C78.0114 74.7701 78.7459 74.0676 78.7459 73.201C78.7459 72.3344 78.0114 71.6318 77.1054 71.6318C76.1993 71.6318 75.4648 72.3344 75.4648 73.201C75.4648 74.0676 76.1993 74.7701 77.1054 74.7701Z" fill="#B01873"/>
<path opacity="0.1" d="M15.703 154.146C16.6091 154.146 17.3436 153.444 17.3436 152.577C17.3436 151.71 16.6091 151.008 15.703 151.008C14.797 151.008 14.0625 151.71 14.0625 152.577C14.0625 153.444 14.797 154.146 15.703 154.146Z" fill="#B01873"/>
<path opacity="0.1" d="M13.1249 118.268C14.031 118.268 14.7655 117.566 14.7655 116.699C14.7655 115.832 14.031 115.13 13.1249 115.13C12.2189 115.13 11.4844 115.832 11.4844 116.699C11.4844 117.566 12.2189 118.268 13.1249 118.268Z" fill="#B01873"/>
<path opacity="0.1" d="M61.5204 211.997C95.4972 211.997 123.041 208.885 123.041 205.046C123.041 201.207 95.4972 198.095 61.5204 198.095C27.5436 198.095 0 201.207 0 205.046C0 208.885 27.5436 211.997 61.5204 211.997Z" fill="#B01873"/>
<path d="M38.3298 21.0379C38.3685 21.9651 38.081 22.7511 37.4673 23.3959C36.8638 24.0296 35.912 24.3735 34.6118 24.4277L32.4697 24.517L32.6636 29.169L31.2089 29.2296L30.7444 18.0873L34.3412 17.9373C35.5988 17.8849 36.5653 18.1489 37.2407 18.7293C37.9268 19.3092 38.2899 20.0787 38.3298 21.0379ZM34.5618 23.2287C35.3718 23.195 35.9613 22.9943 36.3303 22.6266C36.6993 22.2589 36.8702 21.75 36.8431 21.0999C36.7858 19.7251 35.9685 19.0705 34.3912 19.1363L32.2491 19.2256L32.4197 23.3181L34.5618 23.2287ZM39.739 24.4542C39.7017 23.5589 39.8502 22.7681 40.1845 22.0815C40.5185 21.3844 40.992 20.8362 41.6053 20.4369C42.2292 20.0373 42.9301 19.8212 43.7081 19.7888C44.4754 19.7568 45.1484 19.8942 45.727 20.2011C46.3056 20.5079 46.7439 20.906 47.0419 21.3953L46.9753 19.7967L48.446 19.7354L48.8112 28.4958L47.3405 28.5571L47.2725 26.9265C47.0061 27.4501 46.5922 27.8944 46.0309 28.2594C45.4799 28.6133 44.826 28.8061 44.0693 28.8376C43.2913 28.87 42.5799 28.7075 41.9352 28.3501C41.2904 27.9926 40.7724 27.4751 40.3811 26.7975C39.9899 26.1198 39.7759 25.3387 39.739 24.4542ZM47.1572 24.1609C47.1297 23.5002 46.9724 22.9302 46.6856 22.4511C46.3987 21.972 46.0208 21.614 45.5519 21.3774C45.0932 21.1296 44.592 21.017 44.0485 21.0397C43.505 21.0624 43.0147 21.2109 42.5778 21.4853C42.1408 21.7598 41.7994 22.1477 41.5534 22.649C41.3074 23.1504 41.1981 23.7314 41.2257 24.3922C41.2537 25.0636 41.4113 25.6442 41.6987 26.134C41.9855 26.6131 42.3583 26.9766 42.817 27.2244C43.2753 27.4615 43.7762 27.5687 44.3197 27.546C44.8633 27.5234 45.3535 27.3748 45.7905 27.1004C46.2376 26.8149 46.5842 26.4214 46.8302 25.9201C47.0757 25.4081 47.1848 24.8217 47.1572 24.1609ZM54.3769 28.4079C53.7055 28.4359 53.0986 28.3491 52.5564 28.1475C52.0138 27.9352 51.5795 27.6331 51.2536 27.241C50.9272 26.8382 50.7369 26.3711 50.6827 25.8395L52.1854 25.7769C52.2462 26.2121 52.4636 26.5606 52.8375 26.8226C53.2221 27.0842 53.7128 27.2025 54.3096 27.1776C54.8638 27.1545 55.2956 27.0137 55.6051 26.7553C55.9146 26.4968 56.0616 26.1811 56.046 25.8081C56.03 25.4244 55.8477 25.1491 55.4992 24.9822C55.1501 24.8046 54.6148 24.64 53.8932 24.4886C53.236 24.3452 52.696 24.1969 52.2733 24.0437C51.8607 23.8794 51.4981 23.633 51.1855 23.3044C50.8831 22.9647 50.7201 22.5124 50.6966 21.9476C50.6779 21.5 50.794 21.0841 51.0449 20.7C51.2958 20.3159 51.6619 20.007 52.1433 19.7734C52.6242 19.5292 53.179 19.394 53.8078 19.3677C54.7777 19.3273 55.5712 19.5398 56.1884 20.0051C56.8057 20.4705 57.1534 21.1286 57.2316 21.9794L55.7768 22.0401C55.7258 21.5831 55.5239 21.2232 55.1713 20.9603C54.8294 20.697 54.376 20.5771 53.8112 20.6007C53.289 20.6224 52.878 20.7517 52.5783 20.9884C52.2785 21.2251 52.1362 21.5246 52.1513 21.8869C52.1633 22.1747 52.2639 22.4107 52.4531 22.595C52.6525 22.7682 52.8931 22.9076 53.1751 23.0133C53.4673 23.1078 53.8668 23.214 54.3734 23.3316C55.0093 23.4759 55.528 23.6251 55.9294 23.7792C56.3304 23.9226 56.6763 24.1538 56.9672 24.4726C57.2687 24.791 57.4359 25.2164 57.4688 25.7488C57.4888 26.2284 57.3736 26.6656 57.1231 27.0603C56.8727 27.4551 56.507 27.7746 56.0261 28.0189C55.5554 28.252 55.0057 28.3817 54.3769 28.4079ZM62.729 28.0597C62.0576 28.0877 61.4508 28.0009 60.9086 27.7993C60.3659 27.5871 59.9316 27.2849 59.6057 26.8928C59.2793 26.49 59.089 26.0229 59.0348 25.4913L60.5375 25.4287C60.5983 25.8639 60.8157 26.2125 61.1896 26.4744C61.5742 26.736 62.0649 26.8543 62.6617 26.8294C63.2159 26.8063 63.6477 26.6656 63.9572 26.4071C64.2667 26.1487 64.4137 25.8329 64.3982 25.4599C64.3822 25.0763 64.1999 24.8009 63.8513 24.634C63.5022 24.4564 62.9669 24.2919 62.2453 24.1404C61.5881 23.997 61.0481 23.8487 60.6254 23.6955C60.2128 23.5312 59.8503 23.2848 59.5376 22.9562C59.2352 22.6165 59.0723 22.1642 59.0487 21.5994C59.03 21.1518 59.1462 20.7359 59.397 20.3518C59.6479 19.9677 60.014 19.6588 60.4954 19.4252C60.9763 19.181 61.5312 19.0458 62.1599 19.0196C63.1298 18.9791 63.9233 19.1916 64.5406 19.6569C65.1578 20.1223 65.5055 20.7804 65.5837 21.6312L64.129 21.6919C64.0779 21.2349 63.8761 20.875 63.5235 20.6121C63.1815 20.3488 62.7281 20.2289 62.1633 20.2525C61.6411 20.2743 61.2301 20.4035 60.9304 20.6402C60.6306 20.8769 60.4883 21.1764 60.5034 21.5387C60.5154 21.8265 60.616 22.0625 60.8052 22.2468C61.0046 22.42 61.2453 22.5594 61.5272 22.6651C61.8194 22.7597 62.2189 22.8658 62.7255 22.9834C63.3614 23.1277 63.8801 23.2769 64.2815 23.431C64.6825 23.5744 65.0285 23.8056 65.3193 24.1244C65.6208 24.4428 65.788 24.8682 65.8209 25.4006C65.8409 25.8802 65.7257 26.3174 65.4752 26.7121C65.2248 27.1069 64.8591 27.4264 64.3782 27.6707C63.9075 27.9038 63.3578 28.0335 62.729 28.0597ZM68.3006 17.4824C68.0235 17.494 67.7851 17.4079 67.5852 17.224C67.3854 17.0402 67.2797 16.8097 67.2682 16.5326C67.2566 16.2555 67.3428 16.0171 67.5266 15.8172C67.7104 15.6174 67.9409 15.5117 68.218 15.5002C68.4844 15.4891 68.7122 15.5756 68.9014 15.7599C69.1012 15.9438 69.2069 16.1742 69.2185 16.4513C69.23 16.7284 69.1439 16.9669 68.96 17.1667C68.7869 17.3661 68.5671 17.4713 68.3006 17.4824ZM69.0633 18.8759L69.4285 27.6363L67.9738 27.6969L67.6086 18.9365L69.0633 18.8759ZM75.7346 27.5175C74.9139 27.5517 74.1602 27.3963 73.4732 27.0513C72.7969 26.7058 72.2527 26.2001 71.8406 25.534C71.4387 24.8568 71.2189 24.0653 71.1811 23.1594C71.1438 22.2642 71.3027 21.4675 71.658 20.7695C72.0234 20.0603 72.5343 19.5105 73.1906 19.1202C73.8465 18.7192 74.59 18.5014 75.4213 18.4667C76.2526 18.432 77.0117 18.5872 77.6987 18.9322C78.3852 19.2666 78.9345 19.7668 79.3466 20.4329C79.7694 21.0985 79.9996 21.8843 80.0374 22.7902C80.0752 23.6961 79.906 24.5038 79.5299 25.2134C79.164 25.9119 78.6478 26.4619 77.9813 26.8634C77.3147 27.2648 76.5658 27.4829 75.7346 27.5175ZM75.6813 26.2386C76.2035 26.2169 76.6886 26.0739 77.1366 25.8096C77.5847 25.5454 77.937 25.1624 78.1937 24.6606C78.461 24.1584 78.58 23.5556 78.5507 22.8522C78.5214 22.1488 78.3579 21.5577 78.0604 21.079C77.7629 20.6004 77.3854 20.2531 76.928 20.0373C76.4702 19.8108 75.9802 19.7085 75.458 19.7303C74.9251 19.7525 74.44 19.8955 74.0026 20.1593C73.5754 20.4119 73.2388 20.789 72.9928 21.2903C72.7468 21.7917 72.6385 22.394 72.6678 23.0974C72.6976 23.8115 72.8506 24.4083 73.1268 24.8878C73.4136 25.367 73.7807 25.72 74.2278 25.9469C74.6746 26.1632 75.159 26.2604 75.6813 26.2386ZM86.0298 18.0084C87.0955 17.964 87.9723 18.2531 88.6602 18.8756C89.3476 19.4875 89.7167 20.4009 89.7673 21.6159L89.9826 26.7794L88.5438 26.8394L88.3372 21.8837C88.3008 21.0098 88.0545 20.3528 87.5985 19.9127C87.142 19.462 86.5354 19.2525 85.7787 19.284C85.0114 19.316 84.4086 19.5813 83.9703 20.08C83.5427 20.5783 83.348 21.2856 83.3862 22.2022L83.5881 27.046L82.1334 27.1066L81.7682 18.3462L83.2229 18.2856L83.2749 19.5325C83.544 19.0729 83.9185 18.7103 84.3986 18.4448C84.8892 18.1788 85.433 18.0333 86.0298 18.0084ZM91.6314 22.2908C91.5941 21.3956 91.7426 20.6047 92.077 19.9182C92.4109 19.221 92.8845 18.6728 93.4977 18.2736C94.1216 17.8739 94.8225 17.6579 95.6005 17.6255C96.3679 17.5935 97.0408 17.7309 97.6195 18.0377C98.1981 18.3445 98.6364 18.7426 98.9343 19.232L98.8677 17.6334L100.338 17.5721L100.704 26.3325L99.2329 26.3938L99.1649 24.7632C98.8985 25.2867 98.4846 25.731 97.9234 26.0961C97.3723 26.45 96.7184 26.6427 95.9617 26.6743C95.1838 26.7067 94.4724 26.5442 93.8276 26.1867C93.1828 25.8293 92.6648 25.3117 92.2736 24.6341C91.8823 23.9565 91.6683 23.1754 91.6314 22.2908ZM99.0496 21.9976C99.0221 21.3368 98.8649 20.7669 98.578 20.2877C98.2911 19.8086 97.9132 19.4507 97.4443 19.214C96.9856 18.9663 96.4845 18.8537 95.9409 18.8764C95.3974 18.899 94.9072 19.0476 94.4702 19.322C94.0333 19.5964 93.6918 19.9843 93.4458 20.4857C93.1998 20.987 93.0906 21.5681 93.1181 22.2288C93.1461 22.9003 93.3038 23.4809 93.5911 23.9707C93.878 24.4498 94.2507 24.8132 94.7095 25.061C95.1677 25.2981 95.6686 25.4054 96.2122 25.3827C96.7557 25.36 97.2459 25.2115 97.6829 24.9371C98.13 24.6515 98.4766 24.2581 98.7226 23.7567C98.9682 23.2447 99.0772 22.6583 99.0496 21.9976ZM104.621 18.5946L104.836 23.7581C104.854 24.1844 104.958 24.4843 105.146 24.658C105.335 24.8209 105.652 24.8931 106.1 24.8744L107.171 24.8298L107.222 26.0607L105.912 26.1153C105.102 26.1491 104.486 25.9879 104.066 25.6318C103.645 25.2757 103.417 24.6713 103.382 23.8187L103.166 18.6552L102.031 18.7025L101.981 17.5036L103.117 17.4562L103.025 15.2502L104.479 15.1895L104.571 17.3956L106.857 17.3003L106.907 18.4993L104.621 18.5946ZM116.782 20.9381C116.793 21.2152 116.789 21.5089 116.77 21.8193L109.768 22.1112C109.858 22.9722 110.179 23.6368 110.732 24.1048C111.296 24.5617 111.961 24.7742 112.728 24.7422C113.357 24.716 113.873 24.5503 114.277 24.2453C114.691 23.9291 114.973 23.5223 115.123 23.025L116.69 22.9597C116.49 23.8114 116.05 24.5183 115.369 25.0805C114.687 25.6321 113.824 25.9296 112.78 25.9731C111.948 26.0078 111.195 25.8524 110.518 25.5069C109.853 25.161 109.319 24.6548 108.918 23.9883C108.516 23.3111 108.296 22.5196 108.258 21.6137C108.22 20.7078 108.369 19.9063 108.702 19.2091C109.036 18.5119 109.521 17.9686 110.156 17.5791C110.801 17.1786 111.55 16.9605 112.403 16.925C113.234 16.8903 113.977 17.0409 114.631 17.3766C115.286 17.7122 115.797 18.1927 116.165 18.8179C116.543 19.4321 116.748 20.1388 116.782 20.9381ZM115.266 20.697C115.243 20.1428 115.101 19.6737 114.839 19.2896C114.577 18.8948 114.229 18.6051 113.794 18.4203C113.37 18.2245 112.901 18.1373 112.39 18.1586C111.655 18.1892 111.036 18.4499 110.533 18.9406C110.041 19.4309 109.775 20.0932 109.735 20.9276L115.266 20.697ZM130.34 16.3213L125.602 29.426L124.1 29.4887L125.65 25.1964L121.756 16.6792L123.371 16.6119L126.416 23.5951L128.838 16.384L130.34 16.3213ZM135.995 25.0053C135.174 25.0395 134.42 24.8841 133.733 24.5391C133.057 24.1937 132.513 23.6879 132.101 23.0218C131.699 22.3446 131.479 21.5531 131.441 20.6472C131.404 19.752 131.563 18.9553 131.918 18.2573C132.284 17.5481 132.794 16.9983 133.451 16.608C134.107 16.207 134.85 15.9892 135.681 15.9545C136.513 15.9199 137.272 16.075 137.959 16.4201C138.645 16.7544 139.195 17.2546 139.607 17.9207C140.03 18.5864 140.26 19.3721 140.298 20.278C140.335 21.1839 140.166 21.9916 139.79 22.7012C139.424 23.3998 138.908 23.9497 138.241 24.3512C137.575 24.7526 136.826 24.9707 135.995 25.0053ZM135.941 23.7264C136.464 23.7047 136.949 23.5617 137.397 23.2974C137.845 23.0332 138.197 22.6502 138.454 22.1484C138.721 21.6462 138.84 21.0434 138.811 20.34C138.782 19.6366 138.618 19.0456 138.321 18.5669C138.023 18.0882 137.646 17.7409 137.188 17.5251C136.73 17.2987 136.24 17.1963 135.718 17.2181C135.185 17.2403 134.7 17.3833 134.263 17.6471C133.836 17.8998 133.499 18.2768 133.253 18.7781C133.007 19.2795 132.899 19.8818 132.928 20.5852C132.958 21.2993 133.111 21.8961 133.387 22.3757C133.674 22.8548 134.041 23.2078 134.488 23.4347C134.935 23.651 135.419 23.7482 135.941 23.7264ZM149.798 15.5102L150.163 24.2705L148.708 24.3312L148.654 23.0363C148.396 23.4955 148.021 23.8634 147.531 24.1401C147.051 24.4056 146.513 24.5508 145.916 24.5757C145.234 24.6041 144.615 24.4911 144.06 24.2367C143.505 23.9716 143.055 23.5633 142.712 23.0118C142.379 22.4598 142.196 21.7789 142.162 20.9689L141.948 15.8374L143.387 15.7774L143.593 20.7171C143.629 21.5804 143.875 22.2373 144.332 22.6881C144.788 23.1281 145.394 23.3324 146.151 23.3008C146.929 23.2684 147.532 23.003 147.959 22.5048C148.387 22.0066 148.582 21.2992 148.543 20.3826L148.343 15.5708L149.798 15.5102Z" fill="#B01873"/>
<mask id="path-48-inside-1_1525_62811" fill="white">
<path fill-rule="evenodd" clip-rule="evenodd" d="M22.2075 5.47714C17.2388 5.6149 13.3223 9.75447 13.4596 14.7231L13.9298 31.7298C14.0672 36.6984 18.2065 40.6147 23.1751 40.4769L74.4194 39.0562L83.0095 47.0387C84.1955 48.1408 86.1313 47.4483 86.3516 45.8432L87.332 38.6982L160.282 36.6756C165.251 36.5379 169.168 32.3983 169.03 27.4296L168.56 10.423C168.423 5.45431 164.283 1.53809 159.315 1.67584L22.2075 5.47714Z"/>
</mask>
<path d="M13.4596 14.7231L14.4593 14.6955L13.4596 14.7231ZM22.2075 5.47714L22.1797 4.47752L22.1797 4.47752L22.2075 5.47714ZM13.9298 31.7298L14.9295 31.7021L13.9298 31.7298ZM23.1751 40.4769L23.1474 39.4773L23.1474 39.4773L23.1751 40.4769ZM74.4194 39.0562L75.1001 38.3236L74.8005 38.0452L74.3917 38.0565L74.4194 39.0562ZM83.0095 47.0387L82.3288 47.7713L82.3288 47.7713L83.0095 47.0387ZM86.3516 45.8432L85.3608 45.7073L85.3608 45.7073L86.3516 45.8432ZM87.332 38.6982L87.3043 37.6985L86.4566 37.722L86.3413 38.5622L87.332 38.6982ZM160.282 36.6756L160.31 37.6752L160.31 37.6752L160.282 36.6756ZM169.03 27.4296L168.031 27.4573L168.031 27.4573L169.03 27.4296ZM168.56 10.423L167.56 10.4506L167.56 10.4506L168.56 10.423ZM159.315 1.67584L159.342 2.67546L159.342 2.67546L159.315 1.67584ZM14.4593 14.6955C14.3372 10.2789 17.8186 6.59921 22.2352 6.47675L22.1797 4.47752C16.659 4.63058 12.3074 9.23006 12.46 14.7508L14.4593 14.6955ZM14.9295 31.7021L14.4593 14.6955L12.46 14.7508L12.9302 31.7574L14.9295 31.7021ZM23.1474 39.4773C18.7308 39.5997 15.0516 36.1187 14.9295 31.7021L12.9302 31.7574C13.0828 37.2782 17.6821 41.6296 23.2028 41.4765L23.1474 39.4773ZM74.3917 38.0565L23.1474 39.4773L23.2028 41.4765L74.4471 40.0558L74.3917 38.0565ZM83.6902 46.3062L75.1001 38.3236L73.7387 39.7887L82.3288 47.7713L83.6902 46.3062ZM85.3608 45.7073C85.2504 46.5121 84.2815 46.8557 83.6902 46.3062L82.3288 47.7713C84.1094 49.426 87.0122 48.3846 87.3423 45.9792L85.3608 45.7073ZM86.3413 38.5622L85.3608 45.7073L87.3423 45.9792L88.3227 38.8341L86.3413 38.5622ZM160.255 35.676L87.3043 37.6985L87.3597 39.6978L160.31 37.6752L160.255 35.676ZM168.031 27.4573C168.153 31.8739 164.671 35.5535 160.255 35.676L160.31 37.6752C165.831 37.5222 170.182 32.9227 170.03 27.402L168.031 27.4573ZM167.56 10.4506L168.031 27.4573L170.03 27.402L169.56 10.3953L167.56 10.4506ZM159.342 2.67546C163.759 2.55301 167.438 6.03405 167.56 10.4506L169.56 10.3953C169.407 4.87457 164.808 0.523164 159.287 0.676227L159.342 2.67546ZM22.2352 6.47675L159.342 2.67546L159.287 0.676227L22.1797 4.47752L22.2352 6.47675Z" fill="#B01873" mask="url(#path-48-inside-1_1525_62811)"/>
<defs>
<linearGradient id="paint0_linear_1525_62811" x1="59.659" y1="205.187" x2="59.659" y2="83.9651" gradientUnits="userSpaceOnUse">
<stop stop-color="#808080" stop-opacity="0.25"/>
<stop offset="0.54" stop-color="#808080" stop-opacity="0.12"/>
<stop offset="1" stop-color="#808080" stop-opacity="0.1"/>
</linearGradient>
</defs>
</svg>
