<svg width="170" height="160" viewBox="0 0 170 160" fill="none" xmlns="http://www.w3.org/2000/svg">
<path d="M53.6613 0H51.2812V51.1461H53.6613V0Z" fill="#E0E0E0"/>
<path d="M50.8855 0.395508H16.8064C16.7882 0.395508 16.7734 0.410262 16.7734 0.428463V51.1864C16.7734 51.2046 16.7882 51.2194 16.8064 51.2194H50.8855C50.9037 51.2194 50.9184 51.2046 50.9184 51.1864V0.428463C50.9184 0.410262 50.9037 0.395508 50.8855 0.395508Z" fill="#F5F5F5"/>
<path d="M51.2819 51.6111H16.4119C16.4075 51.6111 16.4032 51.6103 16.3992 51.6086C16.3953 51.607 16.3916 51.6045 16.3886 51.6015C16.3855 51.5984 16.3831 51.5948 16.3814 51.5908C16.3798 51.5868 16.3789 51.5825 16.3789 51.5782V0.032955C16.3789 0.0286273 16.3798 0.0243415 16.3814 0.0203432C16.3831 0.0163449 16.3855 0.0127121 16.3886 0.00965198C16.3916 0.00659183 16.3953 0.00416482 16.3992 0.00250868C16.4032 0.000852535 16.4075 0 16.4119 0H51.2819C51.2862 0 51.2905 0.000852535 51.2945 0.00250868C51.2985 0.00416482 51.3021 0.00659183 51.3052 0.00965198C51.3082 0.0127121 51.3107 0.0163449 51.3123 0.0203432C51.314 0.0243415 51.3148 0.0286273 51.3148 0.032955V51.5818C51.3139 51.5899 51.3101 51.5974 51.304 51.6028C51.2979 51.6082 51.29 51.6112 51.2819 51.6111ZM17.2028 50.8202H50.4909C50.4997 50.8202 50.5081 50.8167 50.5143 50.8106C50.5204 50.8044 50.5239 50.796 50.5239 50.7873V0.823874C50.5239 0.815134 50.5204 0.806751 50.5143 0.800571C50.5081 0.794391 50.4997 0.790919 50.4909 0.790919H17.2028C17.194 0.790919 17.1857 0.794391 17.1795 0.800571C17.1733 0.806751 17.1698 0.815134 17.1698 0.823874V50.7873C17.1698 50.796 17.1733 50.8044 17.1795 50.8106C17.1857 50.8167 17.194 50.8202 17.2028 50.8202Z" fill="#EBEBEB"/>
<path d="M47.5106 3.53027H20.2458C20.2276 3.53027 20.2129 3.54503 20.2129 3.56323V48.0158C20.2129 48.034 20.2276 48.0488 20.2458 48.0488H47.5106C47.5288 48.0488 47.5435 48.034 47.5435 48.0158V3.56323C47.5435 3.54503 47.5288 3.53027 47.5106 3.53027Z" fill="white"/>
<path d="M41.4979 16.1514H26.1958C26.1837 16.1514 26.1738 16.1612 26.1738 16.1733V34.1155C26.1738 34.1276 26.1837 34.1375 26.1958 34.1375H41.4979C41.51 34.1375 41.5199 34.1276 41.5199 34.1155V16.1733C41.5199 16.1612 41.51 16.1514 41.4979 16.1514Z" fill="#EBEBEB"/>
<path d="M40.3041 31.9368C40.3261 31.9918 39.5718 32.325 38.1071 32.1565C37.2214 32.0414 36.379 31.7052 35.6574 31.1789C34.6765 30.4488 33.9998 29.3821 33.757 28.1836C33.6159 27.4332 33.6772 26.6588 33.9347 25.94C34.1921 25.2211 34.6363 24.5838 35.2217 24.0936C35.5488 23.8172 35.9202 23.5981 36.3202 23.4455C36.7624 23.2834 37.237 23.2294 37.7043 23.288C38.2152 23.3373 38.6973 23.5476 39.0811 23.8885C39.2977 24.0914 39.4608 24.3446 39.556 24.6256C39.6512 24.9067 39.6755 25.2069 39.6267 25.4996C39.521 26.0254 39.2564 26.506 38.8687 26.8764C38.5272 27.2163 38.1373 27.5038 37.7116 27.7296C36.8657 28.2015 35.922 28.471 34.9544 28.5169C33.9345 28.5725 32.9194 28.3403 32.0251 27.8468C31.0957 27.3332 30.3419 26.5525 29.861 25.6058C29.3611 24.6397 29.2234 23.5266 29.4729 22.4678C29.7172 21.4431 30.3004 20.5308 31.128 19.879C31.5422 19.5602 32.0131 19.3229 32.5157 19.1796C33.025 19.0431 33.559 19.0268 34.0756 19.132C34.6242 19.2344 35.1236 19.515 35.4963 19.9303C35.8543 20.3542 36.0502 20.8914 36.0492 21.4462C36.0558 21.9509 35.9295 22.4484 35.6831 22.8889C35.4562 23.2885 35.1599 23.6444 34.8079 23.9398C34.1742 24.4748 33.4341 24.8692 32.6366 25.0969C31.8939 25.3122 31.1148 25.3721 30.348 25.2726C29.6363 25.1721 28.9565 24.9117 28.3597 24.511C27.8464 24.1729 27.4111 23.7292 27.0828 23.2095C26.7544 22.6899 26.5407 22.1062 26.4557 21.4974C26.3592 20.5845 26.6117 19.6688 27.1624 18.9343C27.4919 18.4748 27.9416 18.1149 28.4623 17.8944C28.8284 17.7589 29.0262 17.7626 29.0372 17.7955C29.0481 17.8285 28.8724 17.9237 28.5831 18.1177C28.1671 18.4034 27.8205 18.7788 27.5688 19.2162C27.1716 19.8751 27.0247 20.655 27.1551 21.4132C27.26 21.899 27.4646 22.3577 27.7557 22.7604C28.0469 23.1631 28.4184 23.5011 28.8467 23.753C29.3685 24.0591 29.9507 24.2475 30.5529 24.3051C31.155 24.3626 31.7624 24.2879 32.3326 24.0862C32.9747 23.88 33.5678 23.5449 34.0756 23.1013C34.3239 22.9055 34.5259 22.6572 34.667 22.3742C34.8082 22.0913 34.8851 21.7806 34.8922 21.4645C34.8894 21.1759 34.7809 20.8984 34.5872 20.6845C34.3935 20.4706 34.1281 20.3351 33.8413 20.3037C33.5074 20.2448 33.1647 20.261 32.838 20.3513C32.4951 20.4561 32.1748 20.6237 31.8933 20.8457C31.294 21.3293 30.8737 21.9996 30.6995 22.7497C30.5201 23.5206 30.6241 24.3304 30.9925 25.0309C31.3608 25.7521 31.9341 26.3483 32.6402 26.7446C33.3344 27.1287 34.1216 27.3125 34.9141 27.2755C35.6951 27.2421 36.4586 27.0331 37.1477 26.6641C37.4735 26.4986 37.7732 26.2864 38.0375 26.0342C38.2589 25.8412 38.4171 25.586 38.4916 25.3019C38.5135 25.1956 38.5082 25.0855 38.4762 24.9818C38.4442 24.8781 38.3865 24.7842 38.3085 24.7087C38.1028 24.5287 37.8475 24.4151 37.5762 24.3828C37.2851 24.3403 36.9881 24.3653 36.7083 24.4561C36.4147 24.5594 36.1401 24.7103 35.8954 24.9028C35.4331 25.2696 35.0756 25.7518 34.8589 26.3008C34.6423 26.8498 34.5742 27.4462 34.6615 28.0299C34.8265 29.0405 35.3457 29.9594 36.1261 30.6223C36.7374 31.1276 37.4564 31.4859 38.2279 31.6695C39.5168 31.9771 40.2931 31.827 40.3041 31.9368Z" fill="#E0E0E0"/>
<path d="M143.611 149.231C143.157 148.865 142.147 147.638 142.923 146.228C143.212 145.712 143.82 145.456 144.388 145.229C144.956 145.042 145.493 144.77 145.98 144.423C146.845 143.691 147.079 142.512 147.654 141.556C147.971 140.991 148.433 140.52 148.992 140.192C149.552 139.864 150.188 139.69 150.836 139.688C152.322 139.754 153.56 140.941 154.131 142.292C154.703 143.643 154.714 145.148 154.725 146.605C154.725 147.415 154.695 148.326 154.087 148.868C153.48 149.41 152.689 149.377 151.931 149.355L143.816 149.114" fill="#F5F5F5"/>
<path d="M159.137 127.415H137.793L141.634 149.828C141.719 150.3 141.936 150.738 142.26 151.091C142.584 151.445 143.002 151.699 143.465 151.824L143.538 151.842C143.604 151.842 143.666 151.879 143.729 151.89C143.872 151.918 144.018 151.935 144.164 151.941V151.959H144.267H153.787C153.963 151.959 154.138 151.942 154.311 151.908C154.861 151.829 155.371 151.571 155.76 151.174C156.15 150.777 156.398 150.263 156.467 149.711L158.32 134.266L158.404 133.655L159.137 127.536V127.415ZM155.109 141.696H152.912L153.135 135.192H155.669L155.109 141.696ZM155.893 135.192H157.987L157.207 141.696H155.321L155.893 135.192ZM149.616 148.92L149.481 143.27H152.637L152.443 148.92H149.616ZM146.207 143.27H149.272L149.404 148.92H146.687L146.207 143.27ZM146.442 148.92H143.879L142.971 143.27H145.999L146.442 148.92ZM146.076 141.71L145.589 135.207H149.104L149.258 141.71H146.076ZM149.437 141.71L149.287 135.207H152.912L152.689 141.71H149.437ZM149.25 133.655L149.108 127.627H153.161L152.956 133.655H149.25ZM149.038 133.655H145.435L144.955 127.627H148.895L149.038 133.655ZM145.222 133.655H141.433C141.297 132.82 141.169 132.032 141.066 131.326C140.671 128.891 140.521 127.972 140.437 127.627H144.779L145.222 133.655ZM145.347 135.214L145.863 141.717H142.733C142.626 141.058 142.52 140.388 142.41 139.722C142.165 138.188 141.916 136.65 141.678 135.214H145.347ZM142.495 141.717H140.462L139.346 135.214H141.473C141.795 137.217 142.154 139.462 142.517 141.71L142.495 141.717ZM142.747 143.277C143.062 145.233 143.37 147.162 143.652 148.927H141.674L140.704 143.277H142.747ZM152.634 148.927L152.828 143.277H154.933L154.439 148.927H152.634ZM153.154 133.655L153.359 127.627H156.288L155.764 133.655H153.154ZM140.184 127.627C140.268 128.063 140.66 130.436 141.18 133.655H139.038L138.005 127.627H140.184ZM156.295 148.927H154.644L155.138 143.277H156.969L156.295 148.927ZM158.126 133.655H156.024L156.552 127.627H158.895L158.126 133.655Z" fill="#E0E0E0"/>
<path d="M157.687 150.942C157.687 150.957 125.14 150.97 85.0022 150.97C44.8645 150.97 12.3145 150.97 12.3145 150.942C12.3145 150.913 44.8518 150.913 85.0022 150.913C125.153 150.913 157.687 150.942 157.687 150.942Z" fill="#263238"/>
<path d="M33.7559 64.0855L32.6706 62.187C33.2535 60.4534 33.1668 58.5646 32.4276 56.8918C31.6883 55.2189 30.3501 53.8831 28.6759 53.147C27.0017 52.4108 25.1127 52.3276 23.3803 52.9136C21.6478 53.4996 20.1973 54.7125 19.3138 56.3139C18.4303 57.9152 18.1778 59.7891 18.6059 61.5672C19.034 63.3452 20.1118 64.8988 21.6273 65.9225C23.1429 66.9462 24.9865 67.366 26.7959 67.0992C28.6052 66.8325 30.2493 65.8985 31.4049 64.481L33.7559 64.0855Z" fill="white"/>
<path d="M33.7556 64.0856C33.7092 64.1005 33.6616 64.1111 33.6132 64.1172L33.1671 64.1995L31.4046 64.5159C31.4002 64.5168 31.3957 64.5168 31.3913 64.5158C31.3869 64.5148 31.3828 64.5129 31.3792 64.5103C31.3756 64.5076 31.3726 64.5041 31.3705 64.5002C31.3683 64.4963 31.367 64.4919 31.3666 64.4874C31.3666 64.4874 31.3666 64.4874 31.3666 64.4685L31.4268 64.5064C30.6621 65.4577 29.671 66.2018 28.5442 66.6707C27.8161 66.9738 27.0433 67.1555 26.2565 67.2086C24.3663 67.3512 22.4945 66.7545 21.0356 65.5443C19.7209 64.4638 18.8221 62.9604 18.4926 61.2909C18.1631 59.6214 18.4233 57.8893 19.2288 56.3903C19.7927 55.3245 20.6125 54.4155 21.6146 53.745C22.5688 53.103 23.658 52.6894 24.7978 52.5363C26.6846 52.2989 28.5902 52.7987 30.1176 53.9317C31.6449 55.0647 32.6761 56.7433 32.9962 58.6179C33.198 59.8156 33.0969 61.0448 32.7019 62.1934V62.1649L33.4961 63.611L33.6923 63.9748L33.7556 64.0951C33.7556 64.0951 33.7271 64.0508 33.6765 63.9685L33.4613 63.611C33.2683 63.2945 32.9962 62.8168 32.6387 62.2124C32.6355 62.2032 32.6355 62.1932 32.6387 62.1839C33.0883 60.8181 33.1223 59.3496 32.7365 57.9644C32.3506 56.5792 31.5622 55.3398 30.4712 54.4032C29.6997 53.7406 28.7979 53.2471 27.824 52.9544C26.8501 52.6618 25.8257 52.5765 24.8168 52.704C23.7032 52.8557 22.6392 53.2605 21.7064 53.8874C20.729 54.5442 19.929 55.4322 19.3775 56.4726C18.7695 57.6112 18.4774 58.8919 18.5315 60.1816C18.5856 61.4714 18.9841 62.7231 19.6855 63.8068C20.3868 64.8904 21.3655 65.7666 22.5199 66.3442C23.6743 66.9219 24.9623 67.1799 26.2502 67.0916C27.0272 67.0386 27.7903 66.8591 28.5094 66.56C29.6246 66.1055 30.6096 65.3815 31.3761 64.4526C31.3794 64.4492 31.3833 64.4464 31.3877 64.4446C31.392 64.4427 31.3967 64.4417 31.4015 64.4417C31.4062 64.4417 31.4109 64.4427 31.4152 64.4446C31.4196 64.4464 31.4235 64.4492 31.4268 64.4526C31.4314 64.4591 31.4339 64.4668 31.4339 64.4748C31.4339 64.4827 31.4314 64.4905 31.4268 64.4969L31.3888 64.4463L33.1323 64.1774L33.5879 64.1109L33.7556 64.0856Z" fill="#263238"/>
<path d="M23.7001 59.852C23.7001 59.9992 23.6564 60.1431 23.5745 60.2654C23.4927 60.3878 23.3764 60.4831 23.2403 60.5393C23.1042 60.5955 22.9546 60.61 22.8102 60.581C22.6659 60.5521 22.5334 60.481 22.4296 60.3767C22.3257 60.2723 22.2551 60.1396 22.2268 59.9951C22.1985 59.8507 22.2136 59.701 22.2704 59.5652C22.3272 59.4294 22.423 59.3135 22.5457 59.2322C22.6684 59.1509 22.8124 59.1078 22.9596 59.1084C23.0571 59.1084 23.1537 59.1277 23.2437 59.1651C23.3338 59.2025 23.4155 59.2573 23.4843 59.3264C23.5531 59.3955 23.6076 59.4775 23.6446 59.5677C23.6816 59.6579 23.7005 59.7545 23.7001 59.852Z" fill="#263238"/>
<path d="M26.6708 59.852C26.6708 59.999 26.6272 60.1428 26.5454 60.2651C26.4637 60.3874 26.3476 60.4827 26.2117 60.539C26.0759 60.5952 25.9264 60.61 25.7821 60.5813C25.6379 60.5526 25.5054 60.4818 25.4014 60.3778C25.2974 60.2738 25.2266 60.1413 25.1979 59.997C25.1692 59.8528 25.1839 59.7033 25.2402 59.5674C25.2965 59.4315 25.3918 59.3154 25.5141 59.2337C25.6363 59.152 25.7801 59.1084 25.9272 59.1084C26.1244 59.1084 26.3135 59.1867 26.453 59.3262C26.5924 59.4656 26.6708 59.6548 26.6708 59.852Z" fill="#263238"/>
<path d="M29.6328 59.478C29.7067 59.6053 29.7412 59.7518 29.7317 59.8987C29.7223 60.0457 29.6695 60.1865 29.5799 60.3034C29.4904 60.4203 29.3681 60.508 29.2287 60.5553C29.0893 60.6026 28.9389 60.6075 28.7967 60.5693C28.6545 60.5311 28.5268 60.4515 28.4299 60.3406C28.333 60.2298 28.2711 60.0926 28.2522 59.9466C28.2333 59.8006 28.2582 59.6522 28.3238 59.5203C28.3893 59.3885 28.4925 59.279 28.6203 59.2058C28.7046 59.1571 28.7977 59.1255 28.8943 59.1128C28.9908 59.1001 29.089 59.1065 29.183 59.1318C29.2771 59.1571 29.3652 59.2007 29.4424 59.2601C29.5196 59.3195 29.5843 59.3935 29.6328 59.478Z" fill="#263238"/>
<path d="M74.5615 74.2136C74.4895 74.936 74.3454 75.6494 74.1311 76.3431C73.8558 77.0171 73.4413 77.2544 73.4572 78.2986C73.473 79.3428 73.4382 80.4629 73.4382 80.4629C73.4382 80.4629 71.9035 82.624 72.0048 82.6335C72.1061 82.643 74.7576 85.2092 74.7576 85.2092L77.2479 81.1274L80.836 77.2544L81.6999 73.5681L81.4784 73.3498V72.6727C81.4784 72.6727 80.9246 72.0651 80.5291 72.7708C80.5291 72.7708 80.3519 71.8974 79.6431 72.7454C78.9344 73.5934 77.7984 75.5932 77.6813 75.6533C77.5643 75.7134 76.1436 76.8367 76.1436 76.8367L75.3367 76.9981C75.6137 76.6335 75.7677 76.1903 75.7765 75.7324C75.7512 75.0616 76.0328 74.5554 75.5329 74.1693C75.3904 74.0642 75.2162 74.0113 75.0393 74.0193C74.8625 74.0274 74.6938 74.096 74.5615 74.2136Z" fill="#D0D0D0"/>
<path d="M75.791 79.1942C75.8691 79.1372 75.9421 79.0737 76.0093 79.0043C76.2137 78.8407 76.433 78.6966 76.6643 78.574C77.4562 78.1768 78.292 77.8741 79.1545 77.6722H79.1799L79.1957 77.6532L79.5722 77.1818L79.7589 76.9508L79.7747 76.9286V76.9001C79.7747 76.4951 79.7747 76.1028 79.7969 75.7326C79.788 75.569 79.8349 75.4073 79.9298 75.2738C79.9768 75.22 80.0363 75.1787 80.1031 75.1533C80.1698 75.1279 80.2418 75.1193 80.3126 75.1282L80.2652 75.0871C80.6069 76.1661 80.898 76.8527 80.9328 76.8337C80.9676 76.8147 80.8727 76.6597 80.7746 76.3496C80.6765 76.0395 80.5405 75.5933 80.3791 75.0523V75.0143H80.3411C80.2489 75.0015 80.155 75.0112 80.0674 75.0426C79.9798 75.074 79.9011 75.1262 79.838 75.1947C79.7206 75.3512 79.6603 75.5433 79.6671 75.7389C79.6671 76.1059 79.6482 76.4951 79.6387 76.9001L79.6545 76.859L79.4678 77.09L79.0913 77.5615L79.1356 77.533C78.2613 77.7353 77.4184 78.0546 76.6295 78.4822C76.4012 78.6159 76.1889 78.7751 75.9967 78.9569C75.9137 79.0223 75.844 79.1028 75.791 79.1942Z" fill="#9F9F9F"/>
<path d="M78.6426 76.0609C79.0095 75.5451 79.3354 75.0013 79.6171 74.4345C79.9401 73.8897 80.2225 73.3217 80.462 72.7354C80.095 73.2511 79.7692 73.7949 79.4874 74.3617C79.1637 74.9062 78.8813 75.4742 78.6426 76.0609Z" fill="#9F9F9F"/>
<path d="M80.5276 75.0013C80.5466 75.0013 80.5814 74.8906 80.6257 74.7071C80.6783 74.4719 80.7524 74.242 80.8472 74.0204C80.9469 73.8075 81.0954 73.621 81.2807 73.4762C81.4262 73.3686 81.5401 73.3306 81.5338 73.3085C81.5275 73.2863 81.4041 73.2927 81.2174 73.3876C80.9925 73.5212 80.8145 73.7213 80.708 73.9603C80.6039 74.1906 80.5387 74.4365 80.5149 74.6881C80.5055 74.8716 80.5086 75.0013 80.5276 75.0013Z" fill="#9F9F9F"/>
<path d="M77.504 76.1153C77.8443 76.1331 78.1777 76.2181 78.485 76.3652C78.7924 76.5124 79.0676 76.7189 79.2949 76.9728C79.3107 76.9728 79.2664 76.8494 79.1462 76.6975C78.982 76.5025 78.7778 76.345 78.5474 76.2358C78.317 76.1266 78.0658 76.0683 77.8109 76.0647C77.6179 76.0615 77.5008 76.0963 77.504 76.1153Z" fill="#9F9F9F"/>
<path d="M52.0191 141.187H55.4902V122.625H52.0191V141.187Z" fill="#E0E0E0"/>
<path d="M66.1637 119.636C66.1067 119.636 55.4845 122.968 55.4845 122.968H52.0039L39.8281 119.636H66.1637Z" fill="#E0E0E0"/>
<path d="M68.4884 147.778C68.4884 147.778 66.8841 142.877 64.6692 141.69C61.1127 139.792 52.9174 138.874 52.9174 138.874L52.0156 141.193C52.0156 141.193 62.9511 141.624 64.6724 143.829C65.6593 145.096 66.5792 146.415 67.4284 147.778H68.4884Z" fill="#E0E0E0"/>
<path d="M68.7764 150.324C69.6834 149.417 69.6834 147.946 68.7764 147.039C67.8694 146.132 66.3989 146.132 65.4919 147.039C64.5849 147.946 64.5849 149.417 65.4919 150.324C66.3989 151.231 67.8694 151.231 68.7764 150.324Z" fill="#263238"/>
<path d="M38.8555 147.674C38.8555 147.674 40.4597 142.772 42.6746 141.586C46.2312 139.687 54.4296 138.77 54.4296 138.77L55.3282 141.089C55.3282 141.089 44.396 141.519 42.6715 143.725C41.6878 144.992 40.771 146.31 39.925 147.674H38.8555Z" fill="#E0E0E0"/>
<path d="M41.1338 150.321C42.0408 149.414 42.0408 147.943 41.1338 147.036C40.2268 146.129 38.7563 146.129 37.8493 147.036C36.9423 147.943 36.9423 149.414 37.8493 150.321C38.7563 151.228 40.2268 151.228 41.1338 150.321Z" fill="#263238"/>
<path d="M54.9487 140.108L54.4392 146.418L53.0059 146.699V140.108" fill="#E0E0E0"/>
<path d="M55.8679 149.212C56.1617 147.964 55.3877 146.713 54.1391 146.42C52.8905 146.126 51.6402 146.9 51.3464 148.148C51.0526 149.397 51.8266 150.647 53.0752 150.941C54.3238 151.235 55.5742 150.461 55.8679 149.212Z" fill="#263238"/>
<path d="M52.0977 123.04C52.6459 123.115 53.1997 123.141 53.7525 123.116C54.3043 123.141 54.8571 123.115 55.4042 123.04C54.8567 122.969 54.3042 122.945 53.7525 122.967C53.1998 122.944 52.6462 122.969 52.0977 123.04Z" fill="#263238"/>
<path d="M52.0312 139.257C52.5387 139.545 53.1092 139.704 53.6925 139.719C54.2757 139.734 54.8538 139.606 55.3758 139.345C54.8264 139.486 54.2625 139.561 53.6956 139.57C53.1304 139.532 52.5717 139.427 52.0312 139.257Z" fill="#263238"/>
<path d="M60.3448 116.006H36.7748C35.8089 116.006 34.8825 115.622 34.1995 114.939C33.5165 114.256 33.1328 113.33 33.1328 112.364V76.406C33.1328 74.4759 33.8995 72.6248 35.2644 71.26C36.6292 69.8952 38.4803 69.1284 40.4104 69.1284H56.7028C58.633 69.1284 60.4841 69.8952 61.8489 71.26C63.2137 72.6248 63.9805 74.4759 63.9805 76.406L63.9805 112.364C63.9805 113.329 63.5976 114.254 62.916 114.937C62.2344 115.62 61.3096 116.004 60.3448 116.006Z" fill="#455A64"/>
<path d="M35.0399 119.636H68.0107C69.0662 119.636 69.9219 118.78 69.9219 117.725V117.101C69.9219 116.046 69.0662 115.19 68.0107 115.19H35.0399C33.9844 115.19 33.1287 116.046 33.1287 117.101V117.725C33.1287 118.78 33.9844 119.636 35.0399 119.636Z" fill="#455A64"/>
<path d="M64.642 115.167C64.642 115.123 57.8548 115.085 49.4792 115.085C41.1036 115.085 34.3164 115.123 34.3164 115.167C34.3164 115.212 41.1036 115.246 49.4792 115.246C57.8548 115.246 64.642 115.212 64.642 115.167Z" fill="#263238"/>
<path d="M73.0049 138.731L71.2678 145.152C71.2678 145.152 77.0297 149.126 76.8209 150.344L64.5977 147.329L66.9012 137.203L73.0049 138.731Z" fill="#455A64"/>
<path d="M67.6118 143.664C67.4841 143.674 67.3643 143.73 67.2755 143.822C67.1867 143.914 67.1352 144.036 67.1309 144.164C67.1323 144.292 67.1825 144.415 67.2713 144.507C67.3601 144.6 67.4807 144.655 67.6087 144.661C67.7445 144.65 67.8716 144.59 67.9655 144.491C68.0595 144.392 68.1138 144.263 68.1181 144.126C68.0928 143.867 67.8017 143.601 67.5644 143.668" fill="#E0E0E0"/>
<path d="M64.5977 147.328L64.8666 146.315L76.4855 149.584C76.4855 149.584 76.976 149.964 76.8209 150.343L64.5977 147.328Z" fill="#263238"/>
<path d="M71.4793 145.139C71.4635 145.199 71.1629 145.139 70.818 145.278C70.4731 145.418 70.2642 145.623 70.2136 145.595C70.163 145.566 70.337 145.225 70.7484 145.079C71.1597 144.933 71.5078 145.085 71.4793 145.139Z" fill="white"/>
<path d="M72.6342 145.999C72.6342 146.062 72.3526 146.103 72.09 146.315C71.8273 146.527 71.7039 146.783 71.6438 146.768C71.5837 146.752 71.6438 146.394 71.9602 146.135C72.2767 145.875 72.6469 145.939 72.6342 145.999Z" fill="white"/>
<path d="M72.9938 147.759C72.9369 147.759 72.9242 147.443 73.1584 147.126C73.3925 146.81 73.6994 146.762 73.7121 146.81C73.7248 146.857 73.5096 147.006 73.3261 147.253C73.1426 147.499 73.054 147.778 72.9938 147.759Z" fill="white"/>
<path d="M71.7152 143.629C71.6772 143.68 71.4241 143.528 71.0824 143.468C70.7406 143.408 70.4495 143.452 70.4305 143.392C70.4115 143.332 70.7153 143.174 71.1203 143.25C71.5253 143.326 71.7563 143.588 71.7152 143.629Z" fill="white"/>
<path d="M62.2432 142.804L63.5341 150.755L66.3186 156.742C66.3663 156.843 66.3931 156.954 66.3974 157.066C66.4016 157.178 66.3833 157.289 66.3434 157.394C66.3036 157.499 66.243 157.595 66.1654 157.676C66.0877 157.757 65.9946 157.821 65.8915 157.865C65.7724 157.914 65.6433 157.933 65.5154 157.92C65.3874 157.907 65.2645 157.864 65.1574 157.792C63.7683 156.862 58.7752 153.337 58.6708 152.92C58.5031 152.258 56.709 144.538 56.709 144.538L62.2432 142.804Z" fill="#455A64"/>
<path d="M65.8918 157.865L58.5098 152.299L58.573 152.634C58.6304 152.92 58.7806 153.179 59.0002 153.371C59.6014 153.865 61.2816 155.194 65.1356 157.801C65.2458 157.875 65.373 157.92 65.5052 157.932C65.6374 157.943 65.7704 157.921 65.8918 157.868V157.865Z" fill="#263238"/>
<g opacity="0.6">
<path d="M59.6156 149.433C59.7248 149.488 59.8103 149.581 59.8562 149.694C59.9022 149.808 59.9055 149.934 59.8656 150.05C59.8198 150.161 59.7325 150.25 59.6221 150.299C59.5117 150.347 59.3869 150.351 59.2739 150.309C59.1593 150.25 59.07 150.151 59.0223 150.032C58.9746 149.912 58.9718 149.779 59.0144 149.657C59.073 149.548 59.1718 149.466 59.2898 149.428C59.4079 149.39 59.5361 149.4 59.6472 149.455" fill="white"/>
</g>
<path d="M63.4897 154.739C63.6281 154.456 63.8181 154.202 64.0498 153.989C64.3094 153.819 64.5995 153.701 64.9041 153.641C64.9041 153.622 64.7997 153.578 64.613 153.587C64.3701 153.608 64.1383 153.698 63.9453 153.847C63.7506 153.999 63.6026 154.203 63.5182 154.435C63.458 154.628 63.4675 154.739 63.4897 154.739Z" fill="white"/>
<path d="M64.2337 155.704C64.278 155.729 64.4774 155.425 64.8666 155.229C65.1056 155.131 65.3508 155.048 65.6007 154.982C65.4681 154.93 65.3248 154.911 65.1831 154.926C65.0414 154.941 64.9056 154.991 64.7875 155.071C64.3476 155.296 64.1894 155.688 64.2337 155.704Z" fill="white"/>
<path d="M62.2168 153.59C62.4979 153.302 62.8004 153.036 63.1218 152.793C63.4718 152.599 63.8369 152.432 64.2134 152.296C63.7896 152.263 63.3686 152.387 63.03 152.644C62.6554 152.853 62.3672 153.189 62.2168 153.59Z" fill="white"/>
<path d="M61.6289 151.208C61.6574 151.252 62.0497 150.983 62.5971 150.857C63.1446 150.73 63.6129 150.777 63.6192 150.724C63.2752 150.612 62.9068 150.598 62.5553 150.683C62.2038 150.769 61.883 150.95 61.6289 151.208Z" fill="white"/>
<path d="M61.1916 148.882C61.5047 148.704 61.8413 148.572 62.1915 148.489C62.5492 148.461 62.9091 148.482 63.2609 148.553C63.2609 148.534 63.1692 148.451 62.973 148.379C62.7126 148.292 62.435 148.269 62.1639 148.313C61.8929 148.356 61.6363 148.465 61.4162 148.629C61.2485 148.755 61.1757 148.866 61.1916 148.882Z" fill="white"/>
<path d="M62.0973 148.05C62.1051 147.942 62.09 147.834 62.053 147.733C61.975 147.466 61.8472 147.216 61.6765 146.996C61.5653 146.825 61.4006 146.696 61.2082 146.629C61.1435 146.614 61.0757 146.619 61.0143 146.645C60.953 146.67 60.9013 146.715 60.8665 146.771C60.8012 146.888 60.7809 147.024 60.8095 147.154C60.8727 147.414 61.0247 147.643 61.2391 147.802C61.4536 147.96 61.7169 148.039 61.9834 148.024C62.2467 147.998 62.496 147.893 62.6995 147.724C62.903 147.555 63.0514 147.329 63.1257 147.075C63.1446 147.011 63.1499 146.943 63.1412 146.877C63.1325 146.81 63.11 146.746 63.0751 146.689C63.0346 146.636 62.9781 146.596 62.9139 146.577C62.8496 146.558 62.7808 146.559 62.7175 146.581C62.5359 146.663 62.3788 146.791 62.2619 146.952C62.0833 147.165 61.944 147.408 61.8505 147.67C61.8072 147.763 61.7836 147.865 61.7809 147.967C61.9255 147.632 62.1173 147.319 62.3505 147.037C62.4583 146.9 62.5985 146.791 62.7587 146.721C62.7924 146.706 62.8302 146.704 62.8654 146.715C62.9006 146.725 62.9311 146.747 62.9517 146.778C62.9726 146.817 62.9851 146.86 62.9884 146.904C62.9916 146.948 62.9856 146.992 62.9707 147.034C62.8997 147.251 62.7676 147.442 62.5901 147.585C62.4127 147.729 62.1976 147.817 61.9708 147.841C61.7455 147.853 61.5228 147.788 61.3397 147.656C61.1566 147.524 61.0242 147.334 60.9646 147.116C60.9424 147.027 60.9525 146.933 60.993 146.85C61.0117 146.818 61.0402 146.793 61.0744 146.778C61.1086 146.763 61.1466 146.76 61.1829 146.768C61.3436 146.825 61.4829 146.93 61.5816 147.069C61.8111 147.362 61.9858 147.694 62.0973 148.05Z" fill="white"/>
<path d="M65.0362 104.976C67.3651 106.223 76.4273 111.456 78.8764 113.045C80.661 114.206 81.7558 117.354 81.1894 119.319C78.8289 127.47 72.1272 144.022 72.1272 144.022L64.4034 143.051L69.8015 119.952L58.885 114.82L48.2344 104.245L65.0362 104.976Z" fill="#263238"/>
<path d="M52.2885 105.467C52.2885 105.467 61.9868 116.814 62.1893 119.149C62.4614 122.313 65.037 150.158 65.037 150.158L56.9494 151.376L50.7381 122.633L43.144 113.773L42.1758 108.859L43.2389 103.701L52.2885 105.467Z" fill="#263238"/>
<path d="M54.918 108.857C54.9363 108.89 54.9575 108.921 54.9813 108.949L55.1806 109.215L55.959 110.224C56.633 111.104 57.617 112.37 58.8068 113.949C59.4048 114.74 60.0724 115.607 60.7337 116.553C61.0691 117.027 61.4204 117.502 61.74 118.043C61.8899 118.311 61.9845 118.605 62.0184 118.91C62.0785 119.226 62.1197 119.543 62.164 119.859C62.4804 122.457 62.6734 125.33 62.9234 128.342C63.0531 129.849 63.1765 131.317 63.2967 132.738C63.417 134.158 63.5657 135.525 63.6923 136.829C63.9454 139.433 64.1764 141.781 64.3694 143.752C64.5624 145.723 64.7269 147.309 64.8377 148.419C64.8978 148.964 64.9421 149.391 64.9738 149.685C64.9896 149.824 65.0054 149.932 65.0149 150.001C65.0171 150.04 65.0235 150.078 65.0339 150.115C65.0367 150.077 65.0367 150.039 65.0339 150.001C65.0339 149.919 65.0339 149.808 65.0086 149.669C64.9864 149.369 64.9484 148.945 64.9041 148.403C64.8061 147.293 64.6605 145.698 64.4865 143.733C64.3124 141.768 64.0846 139.411 63.8536 136.807C63.7302 135.5 63.6005 134.133 63.4676 132.715C63.3347 131.298 63.224 129.823 63.0974 128.317C62.8443 125.308 62.6449 122.435 62.3222 119.831C62.2779 119.514 62.2367 119.198 62.1734 118.882C62.1466 118.724 62.1117 118.568 62.069 118.413C62.0298 118.255 61.9635 118.105 61.8729 117.97C61.5564 117.436 61.1926 116.948 60.854 116.474C60.1705 115.524 59.5155 114.667 58.9112 113.879C57.7056 112.297 56.6962 111.053 56.0159 110.186L55.2154 109.196L55.0034 108.94C54.9464 108.889 54.9211 108.857 54.918 108.857Z" fill="#455A64"/>
<path d="M72.6079 117.401C72.0437 117.811 71.5146 118.268 71.0258 118.765C70.5025 119.22 70.0159 119.715 69.5703 120.246C70.133 119.834 70.662 119.378 71.1524 118.882C71.6738 118.426 72.1603 117.931 72.6079 117.401Z" fill="#455A64"/>
<path d="M58.0625 76.0742C58.0625 76.0742 60.5749 76.302 61.6665 77.7924C62.948 79.539 68.8904 87.4811 68.8904 87.4811L73.2633 80.3427L77.7912 82.6209C77.7912 82.6209 73.5797 93.6418 71.928 94.6195C70.2763 95.5973 68.0803 95.6827 67.0868 94.6195C66.0932 93.5564 60.6287 86.3926 60.6287 86.3926L58.0625 76.0742Z" fill="#263238"/>
<path d="M64.4985 104.767L54.3194 75.805L52.9398 74.0995L45.2919 73.1123L43.9883 76.7733L48.241 104.998L64.4985 104.767Z" fill="#FAFAFA"/>
<path d="M55.2531 98.2771C55.262 98.2162 55.262 98.1544 55.2531 98.0936C55.2531 97.9543 55.2531 97.7771 55.2531 97.5651C55.2531 97.3531 55.2278 97.0589 55.2025 96.7329C55.1772 96.407 55.1518 96.04 55.1044 95.635C54.943 94.0054 54.5981 91.7715 54.0982 89.3287C53.5982 86.886 53.0572 84.69 52.649 83.108C52.4465 82.3137 52.2724 81.6777 52.1522 81.2379C52.0921 81.0322 52.0446 80.8645 52.0066 80.7316C51.9946 80.6707 51.9733 80.612 51.9434 80.5576C51.9488 80.6185 51.9594 80.6789 51.975 80.738C52.0035 80.874 52.0415 81.0544 52.0889 81.2537L52.5382 83.1333C52.9179 84.7154 53.44 86.9303 53.94 89.3604C54.4399 91.7905 54.8006 94.0276 54.9905 95.6476C55.0443 96.0526 55.0822 96.4197 55.1139 96.7424C55.1455 97.0652 55.174 97.3436 55.1898 97.5715L55.2373 98.0936C55.236 98.1551 55.2413 98.2166 55.2531 98.2771Z" fill="#263238"/>
<path d="M64.7172 100.732C64.7172 100.432 61.2651 79.7886 61.2651 79.7886L60.7177 78.1812C60.4846 77.6155 60.1212 77.113 59.6571 76.7143C59.1931 76.3157 58.6414 76.0323 58.0471 75.8871L54.4874 75.017L52.9844 73.8525L52.918 74.555L54.5001 79.6588L60.9487 100.78L64.7172 100.732Z" fill="#263238"/>
<path d="M49.3083 100.172C49.3083 99.574 49.8715 95.1315 49.4918 91.6002C49.2133 88.9961 48.4666 84.5346 47.9097 81.3641C47.4855 78.9552 46.7406 76.614 45.6948 74.4029L45.0619 73.0518L43.733 75.1718L37.9805 77.4468L40.1511 100.178L49.3083 100.172Z" fill="#263238"/>
<path d="M37.9794 100.847L34.8184 112.263L47.6586 115.791L48.7091 99.79L37.9794 100.847Z" fill="#263238"/>
<path d="M37.9762 100.846C37.9678 100.862 37.9614 100.879 37.9572 100.897C37.9572 100.941 37.9256 100.992 37.9066 101.055C37.8623 101.204 37.8022 101.41 37.723 101.688C37.568 102.239 37.3402 103.027 37.0554 104.023C36.489 106.039 35.6916 108.887 34.7455 112.25L34.7266 112.32L34.7962 112.339L43.2351 114.664L47.6364 115.873L47.7314 115.898V115.8C48.0193 111.222 48.2724 107.225 48.4528 104.362C48.5351 102.941 48.6015 101.802 48.649 101.008C48.668 100.625 48.6838 100.324 48.6933 100.109C48.6933 100.011 48.6933 99.9351 48.6933 99.875C48.6966 99.8487 48.6966 99.8222 48.6933 99.7959C48.6911 99.8222 48.6911 99.8487 48.6933 99.875C48.6933 99.9351 48.6775 100.011 48.6711 100.106C48.6522 100.321 48.6268 100.622 48.5984 101.005C48.5382 101.799 48.456 102.935 48.3547 104.355C48.1585 107.203 47.8864 111.212 47.5763 115.791L47.6744 115.721L43.273 114.509L34.8373 112.19L34.8879 112.282C35.8087 108.906 36.5903 106.052 37.1408 104.03C37.4098 103.03 37.6218 102.239 37.7737 101.685C37.8433 101.419 37.8971 101.213 37.935 101.052L37.973 100.891C37.9762 100.865 37.9793 100.846 37.9762 100.846Z" fill="#455A64"/>
<path d="M50.9759 95.4737L40.8948 94.7048L40.6005 83.7378L38.3128 77.3145C37.2186 77.7815 36.2876 78.5626 35.6376 79.559C34.9876 80.5554 34.6478 81.7223 34.6613 82.9119C34.5759 87.2089 34.462 96.3407 35.2182 99.0493C35.2435 99.1442 35.2752 99.2391 35.3068 99.3309C35.6529 100.292 36.3203 101.104 37.1962 101.629C38.0721 102.154 39.1026 102.361 40.1132 102.213L51.846 100.631L50.9759 95.4737Z" fill="#263238"/>
<path d="M40.4446 84.3193C40.4377 84.3888 40.4377 84.4587 40.4446 84.5282C40.4446 84.6801 40.4446 84.8794 40.4446 85.1262C40.4446 85.6641 40.4825 86.4077 40.511 87.3222C40.5806 89.1922 40.6787 91.752 40.7895 94.565V94.7801H40.8623L47.9975 95.3339L50.1555 95.4858L50.744 95.5174C50.8123 95.5256 50.8814 95.5256 50.9497 95.5174C50.8835 95.4996 50.8156 95.489 50.7472 95.4858L50.1618 95.4225L48.007 95.2231L40.8844 94.6188L40.9572 94.6979V94.5555C40.8306 91.7362 40.7135 89.1764 40.6408 87.3127C40.5901 86.4014 40.5522 85.6578 40.5237 85.1199C40.5079 84.8731 40.492 84.6769 40.4825 84.5218C40.4786 84.453 40.4658 84.3849 40.4446 84.3193Z" fill="#455A64"/>
<path d="M38.2988 78.0078C38.8268 78.6277 39.2803 79.3073 39.6499 80.0329C39.968 80.7828 40.1963 81.5677 40.3302 82.3712C40.3596 82.1296 40.3489 81.8848 40.2986 81.6466C40.1279 80.4767 39.6186 79.3823 38.8336 78.4983C38.6822 78.3077 38.5017 78.1422 38.2988 78.0078Z" fill="#455A64"/>
<path d="M43.5897 75.5293C43.5821 75.5881 43.5821 75.6477 43.5897 75.7065C43.5897 75.8236 43.6087 75.9944 43.634 76.2128C43.6815 76.6526 43.7638 77.2886 43.9061 78.0765C44.2812 80.1439 44.8719 82.1663 45.6686 84.1106L45.6939 84.1707H45.7572L46.5546 84.0283L46.9374 83.9587L46.8615 83.8258C46.4533 84.3131 46.0198 84.8447 45.9597 85.4965C45.9388 85.8065 45.9931 86.1169 46.1179 86.4014C46.2287 86.6767 46.3584 86.9299 46.4723 87.183L47.738 89.8473C48.0924 90.5877 48.3708 91.192 48.5923 91.6318L48.8328 92.1128C48.8556 92.1707 48.8865 92.225 48.9245 92.2742C48.9114 92.2136 48.8902 92.155 48.8613 92.1002C48.8043 91.9704 48.7347 91.809 48.6493 91.6065L47.8424 89.7998C47.4912 89.034 47.0798 88.1259 46.621 87.1197C46.4059 86.6166 46.0736 86.0914 46.1274 85.5091C46.1812 84.9269 46.5894 84.4143 46.9976 83.9271L47.1431 83.7562L46.9216 83.7973L46.5451 83.8606L45.7477 84.0062L45.8363 84.0568C45.0425 82.1211 44.4385 80.113 44.0327 78.0606C43.8777 77.2823 43.7764 76.6494 43.7163 76.2128C43.6846 76.0071 43.6593 75.8426 43.6404 75.7097C43.6325 75.6474 43.6155 75.5866 43.5897 75.5293Z" fill="#455A64"/>
<path d="M58.6111 90.7786C58.6248 90.7238 58.6301 90.6673 58.6269 90.6109C58.6269 90.5001 58.6269 90.3388 58.6269 90.1331C58.6269 89.7186 58.5984 89.1174 58.5256 88.377C58.3109 86.4578 57.9684 84.5551 57.5004 82.6814C57.2378 81.5803 56.9973 80.5298 56.7315 79.5837C56.5061 78.7417 56.2151 77.9186 55.8614 77.122C55.6229 76.5841 55.3336 76.0703 54.9976 75.5873C54.9071 75.4549 54.8099 75.3271 54.7064 75.2045C54.6733 75.1601 54.6363 75.1188 54.5957 75.0811C54.5957 75.0811 54.7223 75.2741 54.9438 75.6221C55.2558 76.1142 55.5277 76.6306 55.757 77.1663C56.092 77.9637 56.369 78.7843 56.586 79.6217C56.8423 80.5709 57.0796 81.6183 57.3422 82.7194C57.8075 84.5905 58.1646 86.4869 58.4117 88.3991C58.5003 89.1332 58.5383 89.7312 58.5636 90.1426C58.5636 90.3356 58.5826 90.4938 58.5889 90.6204C58.593 90.6735 58.6004 90.7264 58.6111 90.7786Z" fill="#455A64"/>
<path d="M38.2539 97.0023C38.5615 96.4588 38.9559 95.9693 39.4215 95.5531C39.9195 95.1769 40.4766 94.886 41.07 94.6924C40.8812 94.682 40.6924 94.7123 40.5163 94.781C39.6363 95.0601 38.8968 95.666 38.4501 96.4739C38.3477 96.634 38.2809 96.8142 38.2539 97.0023Z" fill="#455A64"/>
<path d="M51.5156 81.1967L52.3731 101.362L54.9171 105.985L56.6131 100.65L52.5092 81.0195L51.5156 81.1967Z" fill="#B01873"/>
<path d="M73.0359 87.8193C72.9979 87.9364 65.9513 103.324 65.9513 103.324H52.918L58.6515 88.7876C58.6515 88.7876 63.113 89.3666 67.0777 89.0375C69.1023 88.8504 71.1003 88.4419 73.0359 87.8193Z" fill="#E0E0E0"/>
<path d="M73.0353 87.8195C73.0166 87.8317 72.9964 87.8412 72.9752 87.848L72.7853 87.9144C72.6176 87.9682 72.3708 88.0473 72.0449 88.1422C71.0983 88.4124 70.1382 88.6332 69.1687 88.8036C66.6626 89.2813 62.989 89.3383 58.6414 88.851L58.7173 88.8099L53.0218 103.305L53.006 103.346L52.9269 103.235H65.9602L65.8906 103.28C70.1021 94.1795 72.7727 88.408 73.0448 87.8132C72.779 88.4049 70.1559 94.2048 66.0266 103.34L66.0076 103.384H65.9602H52.9269H52.8066L52.8509 103.27L52.8699 103.229C54.9741 97.9038 56.9391 92.9297 58.5971 88.7403L58.6161 88.6896H58.6699C63.0017 89.1896 66.6658 89.1548 69.1655 88.6896C70.4154 88.4808 71.3804 88.2372 72.0417 88.0568L72.7885 87.848L72.9815 87.791L73.0353 87.8195Z" fill="#263238"/>
<path d="M50.9473 95.5685L51.8332 95.6223C51.8332 95.6223 54.7696 92.8916 55.1904 92.8916C55.7645 92.9678 56.3316 93.0895 56.8864 93.2555L56.5289 94.1604C56.5289 94.1604 58.69 94.0465 59.345 94.1604C60 94.2743 60.7689 94.6224 60.4999 95.4261C60.4999 95.4261 61.0379 96.3121 59.9209 96.7329C59.9209 96.7329 60.1867 97.2044 59.5317 97.6315C59.4239 97.7025 59.3094 97.7629 59.19 97.8119C58.1142 98.2739 58.1901 98.3656 58.1901 98.3656C58.1476 98.6936 58 98.9989 57.7693 99.2358C57.3832 99.6187 55.2158 100.445 54.0292 100.501C53.2642 100.515 52.5019 100.408 51.77 100.185L50.9473 95.5685Z" fill="#D0D0D0"/>
<path d="M54.041 94.1604C54.4581 94.2385 54.8832 94.2651 55.3067 94.2396C55.7305 94.2629 56.1556 94.2342 56.5724 94.1541C56.1553 94.076 55.7301 94.0505 55.3067 94.0782C54.883 94.0524 54.4578 94.0801 54.041 94.1604Z" fill="#9F9F9F"/>
<path d="M54.6035 95.8441C54.8897 95.8573 55.1766 95.8467 55.461 95.8124L57.5209 95.6732L59.5808 95.5656C59.8669 95.5674 60.1527 95.5452 60.4351 95.4992C60.1518 95.4527 59.8643 95.4368 59.5776 95.4517C59.0492 95.4517 58.3119 95.4517 57.5114 95.5118C56.7109 95.5719 55.9736 95.6321 55.4484 95.6985C55.1625 95.7181 54.8794 95.7668 54.6035 95.8441Z" fill="#9F9F9F"/>
<path d="M55.8379 97.3908C56.547 97.3715 57.2535 97.2985 57.9516 97.1724C58.6572 97.0996 59.3564 96.9738 60.0431 96.7959C59.3331 96.815 58.6256 96.8869 57.9263 97.0111C57.2215 97.0841 56.5233 97.211 55.8379 97.3908Z" fill="#9F9F9F"/>
<path d="M56.0664 98.6754C56.8246 98.7379 57.5864 98.6084 58.2813 98.2988C57.909 98.3199 57.5394 98.375 57.177 98.4634C56.8015 98.5023 56.4299 98.5733 56.0664 98.6754Z" fill="#9F9F9F"/>
<g opacity="0.3">
<path d="M66.815 105.985L69.9381 107.776L35.6699 109.177L36.5559 105.981L66.815 105.985Z" fill="black"/>
</g>
<path d="M51.5162 81.1968L50.8105 80.3045L51.3358 78.792H52.1617L52.8293 80.1652L52.5097 81.0196L51.5162 81.1968Z" fill="#B01873"/>
<path d="M54.3 78.564C54.2991 78.6211 54.2895 78.6776 54.2715 78.7317C54.2301 78.8892 54.1751 79.0427 54.1069 79.1906C53.8592 79.7346 53.4689 80.2015 52.9773 80.5417L52.9077 80.5891L52.8792 80.5069C52.7429 80.1011 52.5801 79.7047 52.3919 79.3203C52.1853 78.8834 51.8692 78.5073 51.4743 78.2286L51.5977 78.1812C51.5218 78.4533 51.4395 78.7349 51.3478 79.0229C51.1239 79.728 50.863 80.4209 50.5662 81.0986L50.5282 81.1872L50.4523 81.1302C49.7074 80.5793 49.0031 79.9755 48.345 79.3234C48.1013 79.083 47.9178 78.8836 47.7944 78.7476C47.7255 78.6809 47.666 78.6054 47.6172 78.5229C47.695 78.5777 47.7662 78.6414 47.8292 78.7128L48.4082 79.2538C49.086 79.8786 49.7991 80.4639 50.5441 81.0068L50.427 81.0384C50.6896 80.4056 50.9554 79.7158 51.1927 78.9722C51.2813 78.6874 51.3668 78.4058 51.4395 78.14L51.4712 78.0293L51.5629 78.0926C51.9751 78.389 52.3024 78.7883 52.5122 79.2507C52.6997 79.644 52.8593 80.05 52.99 80.4657L52.8919 80.4309C53.3712 80.1116 53.762 79.6762 54.0278 79.1652C54.2303 78.7982 54.281 78.5577 54.3 78.564Z" fill="#263238"/>
<path d="M54.9459 54.8961C53.6802 54.6557 52.5 55.9055 51.2058 55.7979C50.4179 55.7346 49.7661 55.1809 49.0384 54.8771C48.469 54.6435 47.8533 54.545 47.2395 54.5895C46.6256 54.634 46.0305 54.8202 45.5008 55.1334C44.5136 55.7663 43.9187 56.4244 43.8902 57.6078C42.8777 57.1649 41.419 58.5413 41.0077 59.7595C40.5963 60.9777 40.8653 62.1579 41.3241 63.3667C42.0915 65.4472 43.2589 67.3574 44.7604 68.9894C44.8933 69.135 45.0958 69.2869 45.2635 69.1856C45.315 69.141 45.3551 69.0846 45.3805 69.0213C45.4058 68.958 45.4156 68.8896 45.409 68.8217C45.466 67.6668 45.1907 66.5277 44.9661 65.3917C44.7414 64.2558 44.561 63.085 44.8015 61.9523C45.042 60.8195 45.7824 59.7373 46.8867 59.3861C47.7213 59.1724 48.6045 59.261 49.3801 59.6361C50.168 59.9683 50.8799 60.4524 51.6362 60.8448C52.3769 61.2805 53.2228 61.5048 54.0821 61.4935C54.9332 61.4365 55.7971 60.9334 56.0723 60.1265C56.3476 59.3197 55.8224 58.2723 54.9712 58.19C55.3509 58.1104 55.6913 57.9019 55.9347 57.5998C56.1781 57.2977 56.3094 56.9207 56.3065 56.5327C56.3035 56.1448 56.1664 55.7699 55.9184 55.4715C55.6703 55.1732 55.3268 54.9699 54.9459 54.8961Z" fill="#263238"/>
<path d="M55.6829 68.5404C55.4709 66.9584 54.7748 63.7942 54.1008 60.8989C53.7568 59.4049 52.863 58.0952 51.5971 57.2303C50.3312 56.3655 48.7861 56.009 47.2693 56.2318L46.9529 56.2792C43.6115 56.9722 42.7445 60.2693 43.5292 63.5885L45.2442 73.4734L51.4903 78.1659L53.1673 75.2865L53.0471 72.7551C53.0471 72.7551 56.1195 71.7837 55.6829 68.5404Z" fill="#D0D0D0"/>
<path d="M53.0466 72.7322C51.5285 72.9997 49.9651 72.808 48.5566 72.1816C48.5566 72.1816 49.8951 74.308 53.0846 73.5391L53.0466 72.7322Z" fill="#9F9F9F"/>
<path d="M44.0133 65.8254C43.9563 65.8254 41.4376 65.5502 41.8331 67.7556C42.2287 69.961 44.5322 69.2206 44.5322 69.2206L44.0133 65.8254Z" fill="#D0D0D0"/>
<path d="M43.5169 68.322C43.5169 68.322 43.4852 68.3568 43.4251 68.3979C43.3412 68.4532 43.239 68.4737 43.1403 68.4549C42.9806 68.392 42.841 68.2869 42.7362 68.151C42.6315 68.015 42.5656 67.8532 42.5455 67.6828C42.5041 67.4952 42.5041 67.3008 42.5455 67.1132C42.5543 67.0409 42.5801 66.9716 42.6208 66.9111C42.6614 66.8506 42.7159 66.8006 42.7796 66.7652C42.822 66.7456 42.87 66.7415 42.9151 66.7536C42.9602 66.7658 42.9996 66.7934 43.0264 66.8316C43.0676 66.8886 43.0612 66.9329 43.0739 66.936C43.0865 66.9392 43.115 66.8886 43.0739 66.8031C43.0528 66.7502 43.0135 66.7064 42.9631 66.6797C42.8931 66.646 42.8132 66.6393 42.7385 66.6608C42.6555 66.7012 42.584 66.7618 42.5304 66.8369C42.4767 66.9121 42.4428 66.9995 42.4315 67.0911C42.3725 67.297 42.3649 67.5143 42.4094 67.7239C42.5043 68.1637 42.8049 68.5403 43.1403 68.5751C43.2029 68.5818 43.2662 68.5742 43.3254 68.5528C43.3846 68.5314 43.4382 68.4969 43.4821 68.4517C43.5232 68.3757 43.5264 68.3251 43.5169 68.322Z" fill="#9F9F9F"/>
<path d="M53.7056 57.8702C53.2997 57.2905 52.756 56.8207 52.1235 56.5033C50.7847 55.753 49.2431 55.4451 47.7189 55.6236C46.1904 55.8119 44.7948 56.5868 43.827 57.7848C43.0904 58.7663 42.6581 59.9424 42.5834 61.1673C42.4773 62.5048 42.6157 63.8504 42.9916 65.1383C43.1593 65.6446 43.4821 65.7902 43.9029 66.1192C44.1655 66.3249 44.5832 66.4357 44.8142 66.1825C44.9348 66.0257 44.9994 65.833 44.9977 65.6351C45.1717 63.8632 45.3141 61.9647 44.4535 60.411C44.7751 59.7829 45.2246 59.2289 45.7729 58.7847C46.0471 58.5631 46.3625 58.3984 46.701 58.3C47.0394 58.2017 47.3941 58.1718 47.7442 58.2119C48.7789 58.3701 49.5257 59.2403 50.4116 59.794C51.0512 60.1829 51.7739 60.4144 52.5204 60.4694C53.2669 60.5244 54.0158 60.4014 54.7054 60.1105L53.7056 57.8702Z" fill="#263238"/>
<path d="M41.043 62.6074C41.043 62.582 41.2834 62.5757 41.6537 62.4966C42.6251 62.2849 43.4839 61.7214 44.0648 60.9145C44.2831 60.5981 44.3812 60.3893 44.4065 60.3987C44.358 60.6047 44.2699 60.7992 44.147 60.9715C43.8726 61.402 43.5103 61.7697 43.0839 62.0505C42.6575 62.3313 42.1766 62.5189 41.6726 62.601C41.4652 62.6445 41.2512 62.6466 41.043 62.6074Z" fill="#E0E0E0"/>
<path d="M41.3027 63.2363C41.3027 63.2109 41.54 63.2046 41.9103 63.1255C42.8826 62.916 43.7422 62.352 44.3214 61.5434C44.5429 61.227 44.6378 61.0182 44.6631 61.0277C44.6165 61.2342 44.5282 61.4291 44.4036 61.6004C44.1292 62.0309 43.7669 62.3986 43.3405 62.6794C42.9141 62.9602 42.4332 63.1478 41.9292 63.2299C41.7227 63.2715 41.5101 63.2736 41.3027 63.2363Z" fill="#E0E0E0"/>
<path d="M51.471 68.641C51.471 68.641 51.471 68.7138 51.4267 68.8277C51.3963 68.8982 51.3581 68.965 51.3128 69.027C51.2823 69.0678 51.2473 69.105 51.2084 69.1378C51.1621 69.1721 51.1094 69.1969 51.0534 69.2106C50.934 69.2451 50.8105 69.2632 50.6863 69.2644C50.5393 69.272 50.3924 69.2471 50.256 69.1916C50.1024 69.1299 49.9696 69.0256 49.8731 68.891C49.772 68.7423 49.7231 68.5642 49.7339 68.3847C49.7402 68.2178 49.7657 68.0522 49.8098 67.8911C49.817 67.8492 49.8276 67.8079 49.8415 67.7677C49.852 67.7349 49.8721 67.7059 49.8991 67.6845C49.9262 67.6631 49.959 67.6502 49.9934 67.6475C50.0384 67.6516 50.0829 67.6601 50.1263 67.6728L50.2307 67.7013L50.9648 67.9133C51.1948 67.9646 51.4179 68.0432 51.6293 68.1474C51.3946 68.1307 51.1623 68.0893 50.9363 68.024L50.1927 67.85L50.0851 67.8247C50.0576 67.8148 50.0289 67.8084 49.9997 67.8057C49.9987 67.8109 49.9987 67.8163 49.9997 67.8215C49.9997 67.8436 49.9997 67.8911 49.9744 67.9259C49.9381 68.0775 49.9158 68.2322 49.9079 68.3879C49.8994 68.5284 49.9352 68.668 50.0101 68.7872C50.085 68.9064 50.1953 68.9991 50.3256 69.0524C50.5509 69.1376 50.7965 69.1541 51.0312 69.0998C51.118 69.0862 51.1961 69.0398 51.2495 68.9701C51.297 68.9165 51.3404 68.8593 51.3793 68.7992C51.4362 68.698 51.4616 68.6379 51.471 68.641Z" fill="#263238"/>
<path d="M62.3378 89.0529C62.2904 89.0529 61.9898 87.3917 61.6607 85.3287C61.3316 83.2656 61.1038 81.5854 61.1481 81.5791C61.1924 81.5728 61.4961 83.2403 61.8252 85.3034C62.1543 87.3664 62.3821 89.0466 62.3378 89.0529Z" fill="#455A64"/>
<path d="M51.5862 100.65C51.5382 100.668 51.4883 100.681 51.4375 100.688L51.0103 100.764L49.4282 101.017C48.0992 101.226 46.264 101.501 44.2231 101.795C43.2042 101.938 42.236 102.09 41.3469 102.175C40.559 102.264 39.765 102.284 38.9737 102.235C38.4386 102.204 37.9083 102.116 37.3916 101.973C37.2081 101.925 37.0752 101.871 36.9771 101.84C36.9278 101.826 36.8808 101.804 36.8379 101.776C36.8379 101.761 37.0436 101.827 37.4074 101.909C37.9273 102.028 38.4568 102.099 38.9895 102.121C39.7745 102.15 40.5605 102.119 41.3405 102.026C42.2233 101.932 43.1916 101.776 44.2073 101.631C46.2419 101.337 48.0866 101.08 49.4219 100.903L51.004 100.701L51.4375 100.653C51.4867 100.645 51.5367 100.644 51.5862 100.65Z" fill="#455A64"/>
<path d="M107.707 102.181H103.248C103.245 102.145 103.239 102.109 103.229 102.074L100.185 89.2652C100.11 88.9483 99.93 88.666 99.6745 88.464C99.4191 88.2619 99.103 88.1518 98.7772 88.1514H82.1589C81.9365 88.1519 81.7172 88.2035 81.5179 88.3024C81.3187 88.4013 81.1449 88.5447 81.0099 88.7215C80.875 88.8983 80.7826 89.1039 80.7399 89.3221C80.6972 89.5404 80.7052 89.7656 80.7635 89.9803L84.2441 102.789C84.3802 103.283 84.6302 103.789 85.2503 103.855H109.115V103.589C109.115 103.405 109.078 103.221 109.007 103.051C108.937 102.88 108.833 102.725 108.702 102.594C108.571 102.463 108.416 102.359 108.245 102.289C108.075 102.218 107.891 102.181 107.707 102.181Z" fill="#E0E0E0"/>
<path d="M107.707 102.181C107.759 102.178 107.812 102.178 107.865 102.181C108.022 102.198 108.174 102.241 108.317 102.308C108.556 102.418 108.759 102.593 108.903 102.814C108.995 102.955 109.061 103.111 109.099 103.276C109.133 103.466 109.146 103.659 109.137 103.852V103.874H109.115L85.2504 103.909C85.1099 103.895 84.9736 103.854 84.8496 103.786C84.7256 103.719 84.6166 103.627 84.5289 103.516C84.3652 103.292 84.2489 103.037 84.1872 102.766C84.0459 102.241 83.9014 101.714 83.7537 101.184C83.4647 100.115 83.1694 99.0264 82.8677 97.9189C82.2634 95.704 81.6432 93.4163 81.0072 91.0811C80.9439 90.8469 80.8806 90.6096 80.8142 90.3755C80.7374 90.1411 80.6854 89.8993 80.6591 89.654C80.6504 89.4034 80.7035 89.1545 80.8139 88.9293C80.9243 88.7041 81.0885 88.5096 81.292 88.3631C81.4975 88.2198 81.7358 88.1306 81.9849 88.1036C82.2349 88.0814 82.4659 88.1036 82.7032 88.1036H98.445C98.6426 88.0948 98.8406 88.1032 99.0367 88.1289C99.3301 88.1829 99.6009 88.3227 99.8149 88.5305C100.029 88.7383 100.177 89.0048 100.239 89.2965C100.325 89.6604 100.41 90.0211 100.492 90.3755C100.661 91.0885 100.825 91.7814 100.983 92.4544C101.301 93.8002 101.6 95.0659 101.878 96.2514C102.432 98.6087 102.913 100.605 103.27 102.184L103.242 102.162H103.223V102.14C102.846 100.558 102.369 98.5676 101.809 96.2134L100.9 92.4164C100.738 91.7456 100.573 91.0537 100.407 90.3407L100.147 89.2617C100.07 88.8985 99.853 88.5802 99.543 88.3757C99.3857 88.2757 99.2106 88.207 99.0272 88.1732C98.8362 88.1498 98.6436 88.1424 98.4514 88.1511H82.7095C82.4754 88.1511 82.2286 88.1511 82.0039 88.1511C81.7761 88.1766 81.5584 88.2593 81.3711 88.3915C81.1814 88.5246 81.0277 88.7026 80.9239 88.9098C80.8201 89.1169 80.7693 89.3465 80.7762 89.5781C80.8013 89.815 80.8523 90.0484 80.9281 90.2742L81.1179 90.9798C81.7508 93.315 82.3836 95.6027 82.9785 97.8176C83.2949 98.9251 83.5734 100.017 83.8645 101.083C84.0068 101.618 84.1524 102.146 84.2948 102.665C84.349 102.922 84.4568 103.165 84.6112 103.377C84.6882 103.474 84.7838 103.555 84.8925 103.615C85.0012 103.675 85.1207 103.712 85.244 103.725L109.108 103.763L109.089 103.782C109.1 103.593 109.09 103.403 109.058 103.216C109.017 103.084 108.956 102.959 108.877 102.846C108.74 102.627 108.544 102.453 108.311 102.342C108.124 102.245 107.918 102.19 107.707 102.181Z" fill="#263238"/>
<path d="M98.6867 89.417H82.002L85.318 101.264H101.547L98.6867 89.417Z" fill="white"/>
<path d="M101.556 101.263H85.308L81.9824 89.4072H98.683L101.556 101.263ZM85.3206 101.263H101.537L98.6893 89.4325H82.0109L85.3206 101.263Z" fill="#263238"/>
<path d="M103.414 102.213C103.414 102.248 99.4841 102.274 94.6334 102.274C89.7827 102.274 85.8496 102.248 85.8496 102.213C85.8496 102.179 89.7827 102.153 94.6334 102.153C99.4841 102.153 103.414 102.182 103.414 102.213Z" fill="#263238"/>
<path d="M99.9171 100.149C99.9171 100.149 99.9013 100.149 99.8633 100.149H99.7019H99.0691L96.7751 100.168L89.2158 100.184H86.5231V100.14C85.9061 97.925 85.3713 95.9758 84.9885 94.5868L84.5518 92.9635L84.4379 92.5269C84.4242 92.477 84.4137 92.4262 84.4062 92.375C84.4282 92.423 84.4462 92.4728 84.46 92.5237L84.5898 92.954C84.7005 93.3401 84.8619 93.8875 85.0581 94.5678C85.4536 95.9537 86.0073 97.887 86.6402 100.111L86.5832 100.067H89.2316L96.7909 100.083L99.0849 100.102H99.7177H99.8791L99.9171 100.149Z" fill="#263238"/>
<path d="M88.7659 96.084H86.7598L87.7312 99.2513H89.7373L88.7659 96.084Z" fill="#455A64"/>
<path d="M98.1545 96.084H96.1484L97.1167 99.2513H99.1228L98.1545 96.084Z" fill="#B01873"/>
<path d="M91.5452 94.9727H89.5391L90.7889 99.2506H92.795L91.5452 94.9727Z" fill="#B01873"/>
<path d="M94.1338 92.9922H92.1309L94.0673 99.251H96.0734L94.1338 92.9922Z" fill="#455A64"/>
<path d="M113.998 107.184H110.59V150.982H113.998V107.184Z" fill="#E0E0E0"/>
<path d="M113.998 150.983C113.998 150.983 113.998 150.904 113.998 150.755C113.998 150.606 113.998 150.381 113.998 150.097C113.998 149.514 113.998 148.663 113.998 147.565C113.998 145.369 113.982 142.186 113.972 138.247C113.972 130.365 113.953 119.426 113.938 107.184L114.02 107.266H110.59L110.672 107.184C110.647 127.09 110.628 144.104 110.618 150.983L110.59 150.954H113.121H113.773H113.998C113.998 150.954 113.928 150.954 113.786 150.954H113.137L110.606 150.973H110.574V150.942C110.574 144.063 110.546 127.049 110.523 107.143V107.061H114.096V107.143C114.096 119.407 114.07 130.368 114.061 138.266C114.061 142.202 114.042 145.373 114.036 147.565C114.036 148.654 114.036 149.499 114.036 150.078C114.036 150.359 114.036 150.574 114.036 150.726C114.036 150.878 113.998 150.983 113.998 150.983Z" fill="#263238"/>
<path d="M22.652 105.665H19.2441V150.979H22.652V105.665Z" fill="#E0E0E0"/>
<path d="M22.6517 150.979C22.6517 150.979 22.6517 150.896 22.6517 150.741C22.6517 150.586 22.6517 150.355 22.6517 150.061C22.6517 149.457 22.6517 148.577 22.6517 147.441C22.6517 145.166 22.6359 141.879 22.6264 137.797C22.6264 129.643 22.6074 118.324 22.5916 105.664L22.6739 105.747H19.2439L19.3262 105.664C19.3009 126.336 19.2819 143.992 19.2724 150.979L19.2439 150.95L21.7753 150.966H22.4271H22.6486H22.4366H21.8037H19.2502H19.2186V150.938C19.2186 143.951 19.1901 126.295 19.168 105.623V105.541H22.734V105.623C22.734 118.309 22.7087 129.646 22.6992 137.816C22.6992 141.888 22.6802 145.172 22.6739 147.441C22.6739 148.568 22.6739 149.444 22.6739 150.042C22.6739 150.333 22.6739 150.558 22.6739 150.713C22.6739 150.868 22.6517 150.979 22.6517 150.979Z" fill="#263238"/>
<path d="M48.6168 105.665H45.209V151.002H48.6168V105.665Z" fill="#E0E0E0"/>
<path d="M48.6166 150.998C48.6166 150.998 48.6166 150.919 48.6166 150.764C48.6166 150.609 48.6166 150.378 48.6166 150.08C48.6166 149.479 48.6166 148.596 48.6166 147.46C48.6166 145.185 48.6166 141.895 48.5913 137.813C48.5913 129.652 48.5723 118.331 48.5565 105.665L48.6387 105.747H45.2088L45.291 105.665C45.2657 126.349 45.2467 144.011 45.2372 150.998L45.2088 150.969L47.7401 150.985H48.3919H48.6134C48.6134 150.985 48.5438 150.985 48.4014 150.985H47.7686H45.2151H45.1834V150.954C45.1834 143.967 45.155 126.305 45.1328 105.62V105.538H48.7052V105.62C48.7052 118.309 48.6799 129.652 48.6704 137.829C48.6704 141.904 48.6514 145.189 48.6451 147.457C48.6451 148.587 48.6451 149.46 48.6451 150.058C48.6451 150.349 48.6451 150.574 48.6451 150.729C48.6451 150.884 48.6166 150.998 48.6166 150.998Z" fill="#263238"/>
<path d="M121.418 103.494H13.5508V109.019H121.418V103.494Z" fill="#C49485"/>
<g opacity="0.3">
<path d="M42.9293 103.504H13.7207V109.006H42.9293V103.504Z" fill="black"/>
</g>
<path d="M146.464 61C146.366 60.703 146.178 60.4437 145.927 60.2578C145.675 60.0719 145.372 59.9686 145.059 59.9621C144.747 59.624 144.331 59.4 143.877 59.326C143.423 59.2521 142.957 59.3323 142.553 59.554C142.314 59.3458 142.025 59.2032 141.715 59.1401C141.404 59.0771 141.082 59.0957 140.781 59.1942C140.479 59.2928 140.209 59.4678 139.995 59.7022C139.782 59.9367 139.633 60.2225 139.563 60.5317C139.26 60.4247 138.93 60.4159 138.622 60.5067C138.313 60.5975 138.041 60.7832 137.843 61.0374C137.646 61.2917 137.534 61.6016 137.523 61.9232C137.512 62.2448 137.603 62.5617 137.782 62.8289C137.422 62.8798 137.094 63.0616 136.86 63.3395C136.626 63.6175 136.503 63.972 136.514 64.3351C136.526 64.6981 136.671 65.0442 136.922 65.307C137.172 65.5698 137.511 65.7307 137.874 65.7589L145.882 62.6612C146.141 62.48 146.336 62.2223 146.44 61.9243C146.545 61.6263 146.553 61.303 146.464 61Z" fill="#263238"/>
<path d="M137.625 65.9231C138.033 64.4067 138.996 63.0991 140.323 62.2602C141.65 61.4213 143.244 61.1125 144.789 61.3951L145.105 61.4552C148.501 62.2842 149.693 65.632 148.77 69.0018L145.938 80.5353L145.862 80.646L140.131 84.6139L139.15 83.8893L137.885 80.7441L138.375 78.1178C138.375 78.1178 135.167 77.0009 135.733 73.688C136.015 72.0932 136.841 68.8499 137.625 65.9231Z" fill="#D0D0D0"/>
<path d="M138.388 78.1213C139.912 78.3924 141.482 78.2222 142.913 77.6309C142.913 77.6309 141.435 79.8458 138.227 78.9567L138.388 78.1213Z" fill="#9F9F9F"/>
<path d="M138.221 64.4679C138.221 64.4679 139.467 62.5694 140.553 62.253C141.866 61.8891 142.135 63.3098 143.353 63.2022C144.571 63.0946 145.815 62.7402 146.834 63.8351C147.941 65.0438 147.213 65.6165 147.023 67.0942C146.258 73.0871 147.023 74.9667 147.856 72.2265C147.947 71.9259 148.84 71.8373 149.204 70.5684C149.675 68.9199 150.112 66.8948 149.957 65.6355C149.824 64.5723 149.378 63.7749 148.492 62.8225C147.093 61.3164 144.872 60.8829 143.334 60.7595C141.796 60.6361 138.556 61.8574 138.221 64.4679Z" fill="#263238"/>
<path d="M147.655 72.1121C147.682 71.992 147.732 71.8785 147.803 71.7784C147.875 71.6783 147.966 71.5937 148.071 71.5298C148.176 71.4659 148.293 71.424 148.414 71.4066C148.536 71.3892 148.66 71.3967 148.779 71.4287C149.386 71.5995 150.006 72.0615 149.728 73.3272C149.244 75.5706 147.092 74.6213 147.102 74.5549C147.111 74.4884 147.443 73.0487 147.655 72.1121Z" fill="#D0D0D0"/>
<path d="M147.776 73.8272C147.776 73.8272 147.811 73.862 147.868 73.9063C147.952 73.9667 148.056 73.9917 148.159 73.9759C148.323 73.9156 148.468 73.8126 148.58 73.6774C148.691 73.5423 148.764 73.3799 148.792 73.207C148.834 73.0152 148.834 72.8165 148.792 72.6248C148.785 72.5501 148.761 72.478 148.72 72.4147C148.68 72.3514 148.625 72.2986 148.561 72.2609C148.518 72.2393 148.47 72.2331 148.424 72.2435C148.377 72.2539 148.336 72.2802 148.307 72.3179C148.263 72.3748 148.269 72.4223 148.257 72.4223C148.244 72.4223 148.216 72.3748 148.257 72.2862C148.281 72.2321 148.324 72.1884 148.377 72.1628C148.45 72.1345 148.532 72.1345 148.605 72.1628C148.693 72.2012 148.77 72.2615 148.828 72.338C148.886 72.4144 148.924 72.5044 148.937 72.5995C148.991 72.8145 148.991 73.0395 148.937 73.2545C148.826 73.7038 148.504 74.074 148.159 74.0993C148.095 74.1035 148.031 74.0935 147.971 74.07C147.911 74.0465 147.858 74.01 147.814 73.9632C147.77 73.881 147.766 73.8303 147.776 73.8272Z" fill="#9F9F9F"/>
<path d="M148.412 67.7232C148.093 67.8954 147.737 67.9866 147.374 67.989C147.194 67.9825 147.022 67.9116 146.89 67.7891C146.757 67.6666 146.673 67.5006 146.653 67.3213C146.653 67.1599 146.729 66.9828 146.653 66.8435C146.577 66.7043 146.321 66.679 146.128 66.6663C145.793 66.6311 145.481 66.482 145.244 66.2441C145.007 66.0061 144.858 65.6938 144.824 65.3595C144.701 65.4488 144.549 65.4906 144.397 65.4772C144.246 65.4638 144.104 65.3962 143.998 65.2868C143.797 65.0554 143.631 64.7965 143.504 64.5179C143.439 64.3797 143.34 64.2594 143.218 64.1674C143.096 64.0754 142.953 64.0144 142.802 63.9894C142.632 64.0146 142.46 64.021 142.289 64.0084C141.998 63.9261 141.919 63.5528 141.925 63.2522C141.932 62.9516 141.963 62.6004 141.742 62.3947C141.504 62.2443 141.22 62.1837 140.941 62.2238C140.66 62.2238 140.309 62.0846 140.309 61.8061C140.309 61.7324 140.325 61.6595 140.355 61.5921C140.385 61.5246 140.429 61.464 140.483 61.4138C140.716 61.1755 141.023 61.0225 141.354 60.9795C141.686 60.9365 142.021 61.0058 142.308 61.1765C142.488 60.8212 142.77 60.5273 143.117 60.332C143.464 60.1366 143.861 60.0487 144.258 60.0792C144.655 60.1096 145.034 60.2572 145.347 60.5033C145.66 60.7493 145.893 61.0827 146.017 61.4612C146.296 61.2872 146.613 61.1832 146.941 61.1581C147.269 61.133 147.598 61.1875 147.901 61.3171C148.203 61.4467 148.47 61.6475 148.678 61.9023C148.886 62.1572 149.029 62.4585 149.096 62.7807C149.386 62.7575 149.676 62.8201 149.931 62.9609C150.186 63.1017 150.394 63.3143 150.529 63.5724C150.664 63.8304 150.72 64.1224 150.69 64.4121C150.66 64.7017 150.546 64.9762 150.361 65.2013C150.551 65.344 150.702 65.5327 150.8 65.7496C150.897 65.9666 150.938 66.2047 150.918 66.4417C150.842 66.91 150.301 67.2928 149.874 67.0745C149.93 67.2745 149.908 67.4884 149.813 67.6729C149.717 67.8574 149.555 67.9987 149.359 68.0683C149.163 68.1378 148.949 68.1304 148.758 68.0475C148.568 67.9647 148.416 67.8125 148.333 67.6219" fill="#263238"/>
<path d="M150.013 67.1256C150.007 67.2054 149.984 67.2831 149.946 67.3534C149.908 67.4238 149.855 67.4853 149.791 67.5338C149.653 67.6552 149.475 67.7216 149.291 67.7205C149.172 67.7164 149.056 67.6859 148.95 67.6312C148.845 67.5764 148.752 67.4989 148.681 67.404H148.779C148.621 67.5919 148.434 67.7532 148.225 67.8818C148.086 67.9706 147.931 68.0319 147.769 68.0622C147.562 68.0913 147.35 68.056 147.163 67.9609C146.977 67.8658 146.824 67.7156 146.725 67.5306C146.659 67.3711 146.626 67.2 146.627 67.0275C146.622 66.9648 146.627 66.9017 146.643 66.8408C146.664 66.8987 146.676 66.9596 146.678 67.0212C146.696 67.1831 146.74 67.3411 146.807 67.4895C146.875 67.5995 146.965 67.6946 147.07 67.7689C147.176 67.8432 147.296 67.8951 147.422 67.9214C147.549 67.9478 147.679 67.9481 147.806 67.9222C147.932 67.8964 148.052 67.8449 148.158 67.7711C148.355 67.6478 148.532 67.4964 148.684 67.3218L148.734 67.2617L148.782 67.3249C148.843 67.404 148.92 67.4692 149.009 67.5161C149.097 67.5631 149.195 67.5906 149.294 67.5971C149.455 67.6065 149.614 67.557 149.741 67.4578C149.852 67.3657 149.944 67.2529 150.013 67.1256Z" fill="#455A64"/>
<path d="M146.698 61.1931C146.698 61.1931 146.635 61.1931 146.527 61.2216C146.372 61.2578 146.231 61.3393 146.122 61.4558L146.087 61.4937L146.065 61.4463C145.852 61.0125 145.532 60.64 145.135 60.3641C144.88 60.1858 144.59 60.0639 144.284 60.0066C143.982 59.9538 143.673 59.9746 143.382 60.0672C143.09 60.1597 142.825 60.3213 142.61 60.5382C142.436 60.716 142.308 60.9331 142.236 61.171L142.217 61.2406L142.151 61.209C141.853 61.0696 141.514 61.0492 141.202 61.152C140.955 61.237 140.741 61.3961 140.588 61.6077C140.459 61.7989 140.37 62.0141 140.325 62.2405C140.313 62.1778 140.313 62.1134 140.325 62.0506C140.365 61.8244 140.464 61.6126 140.611 61.4361C140.758 61.2597 140.949 61.1246 141.164 61.0444C141.504 60.9237 141.879 60.9396 142.208 61.0887L142.123 61.1299C142.196 60.8737 142.331 60.6391 142.515 60.4464C142.717 60.2407 142.961 60.081 143.23 59.9781C143.572 59.845 143.945 59.8099 144.306 59.8768C144.629 59.9417 144.934 60.0743 145.201 60.266C145.609 60.5577 145.929 60.9548 146.128 61.4146H146.071C146.194 61.2945 146.351 61.2168 146.521 61.1931C146.579 61.1763 146.64 61.1763 146.698 61.1931Z" fill="#455A64"/>
<path d="M110.924 103.906C110.924 103.906 111.155 101.476 112.256 100.78C113.357 100.084 116.297 99.4824 116.297 99.4824L117.467 102.963L115.499 105.447L110.924 103.906Z" fill="#D0D0D0"/>
<path d="M104.417 139.434L104.68 146.926C104.68 146.926 97.1904 149.553 97.0859 150.942L111.594 151.116L111.667 139.408L104.417 139.434Z" fill="#263238"/>
<path d="M109.152 146.329C109.293 146.372 109.413 146.465 109.489 146.591C109.565 146.717 109.593 146.867 109.566 147.012C109.529 147.155 109.438 147.277 109.312 147.354C109.187 147.432 109.036 147.457 108.892 147.427C108.744 147.38 108.617 147.281 108.537 147.147C108.457 147.013 108.429 146.855 108.459 146.702C108.513 146.558 108.621 146.44 108.761 146.374C108.9 146.308 109.059 146.298 109.206 146.348" fill="#E0E0E0"/>
<path d="M111.683 151.113V150.183L97.5988 150.3C97.4701 150.379 97.3591 150.484 97.2726 150.608C97.186 150.732 97.1258 150.873 97.0957 151.021L111.683 151.113Z" fill="#455A64"/>
<path d="M104.618 146.973C104.618 147.046 104.978 147.078 105.33 147.308C105.681 147.539 105.867 147.84 105.934 147.812C106 147.783 105.893 147.369 105.462 147.1C105.032 146.831 104.602 146.91 104.618 146.973Z" fill="#455A64"/>
<path d="M103.079 147.61C103.063 147.68 103.373 147.8 103.617 148.104C103.86 148.407 103.933 148.737 103.999 148.737C104.066 148.737 104.117 148.328 103.806 147.958C103.496 147.588 103.082 147.54 103.079 147.61Z" fill="#455A64"/>
<path d="M102.206 149.448C102.269 149.448 102.37 149.103 102.187 148.714C102.003 148.324 101.668 148.163 101.639 148.223C101.611 148.283 101.817 148.492 101.956 148.818C102.095 149.144 102.133 149.438 102.206 149.448Z" fill="#455A64"/>
<path d="M104.747 145.246C104.778 145.309 105.107 145.211 105.512 145.246C105.917 145.28 106.231 145.401 106.269 145.341C106.307 145.28 106.003 145.024 105.525 144.996C105.047 144.967 104.712 145.192 104.747 145.246Z" fill="#455A64"/>
<path d="M104.49 143.632C104.73 143.701 104.985 143.701 105.224 143.632C105.488 143.586 105.745 143.507 105.99 143.398C106.135 143.334 106.276 143.26 106.411 143.176C106.494 143.131 106.568 143.072 106.632 143.002C106.679 142.951 106.707 142.887 106.713 142.818C106.72 142.75 106.703 142.681 106.667 142.623C106.631 142.572 106.584 142.531 106.529 142.503C106.474 142.474 106.413 142.459 106.351 142.458C106.258 142.458 106.165 142.471 106.075 142.496C105.92 142.535 105.767 142.587 105.62 142.651C105.373 142.763 105.144 142.912 104.943 143.094C104.601 143.41 104.487 143.676 104.509 143.692C104.531 143.708 104.709 143.49 105.053 143.23C105.256 143.081 105.476 142.957 105.708 142.863C105.846 142.81 105.986 142.767 106.129 142.733C106.284 142.692 106.417 142.692 106.446 142.762C106.474 142.831 106.462 142.8 106.43 142.844C106.38 142.893 106.325 142.935 106.265 142.971C106.136 143.053 106.006 143.126 105.876 143.192C105.649 143.305 105.412 143.395 105.167 143.461C104.938 143.503 104.712 143.56 104.49 143.632Z" fill="#455A64"/>
<path d="M98.269 124.913L94.7346 131.526C94.7346 131.526 86.9381 130.039 86.166 131.21L98.6297 138.636L104.559 128.558L98.269 124.913Z" fill="#263238"/>
<path d="M98.8431 133.222C98.944 133.329 99.0015 133.47 99.0044 133.617C99.0073 133.765 98.9555 133.908 98.8589 134.019C98.7549 134.123 98.6149 134.183 98.4678 134.188C98.3207 134.192 98.1776 134.139 98.0679 134.041C97.9638 133.925 97.9062 133.775 97.9062 133.619C97.9062 133.463 97.9638 133.312 98.0679 133.196C98.1866 133.098 98.3391 133.05 98.4927 133.062C98.6464 133.075 98.7891 133.147 98.8906 133.263" fill="#E0E0E0"/>
<path d="M98.6294 138.623L99.1041 137.82L86.8587 130.858C86.7077 130.863 86.5593 130.898 86.4226 130.962C86.286 131.027 86.164 131.118 86.0645 131.232L98.6294 138.623Z" fill="#455A64"/>
<path d="M94.5961 131.498C94.5645 131.562 94.8556 131.77 95.0454 132.147C95.2353 132.523 95.2448 132.878 95.3144 132.884C95.384 132.891 95.5011 132.482 95.2669 132.033C95.0328 131.584 94.6183 131.435 94.5961 131.498Z" fill="#455A64"/>
<path d="M92.9513 131.276C92.9007 131.327 93.1063 131.592 93.1665 131.972C93.2266 132.352 93.1222 132.668 93.1854 132.7C93.2487 132.732 93.5019 132.409 93.4101 131.931C93.3183 131.453 92.9861 131.219 92.9513 131.276Z" fill="#455A64"/>
<path d="M91.2706 132.428C91.3181 132.472 91.5871 132.216 91.6219 131.795C91.6567 131.374 91.451 131.061 91.394 131.099C91.3371 131.137 91.413 131.415 91.3751 131.773C91.3371 132.13 91.2137 132.387 91.2706 132.428Z" fill="#455A64"/>
<path d="M95.5898 130.057C95.5898 130.13 95.9063 130.209 96.2512 130.437C96.5961 130.665 96.7954 130.931 96.8587 130.899C96.922 130.867 96.7891 130.491 96.3904 130.228C95.9917 129.966 95.5898 130.004 95.5898 130.057Z" fill="#455A64"/>
<path d="M96.1626 128.545C96.1468 128.571 96.3683 128.751 96.7954 128.909C97.0478 129.001 97.3102 129.062 97.577 129.093C97.7357 129.109 97.8953 129.115 98.0548 129.112C98.1488 129.111 98.2425 129.098 98.3332 129.074C98.3993 129.052 98.4565 129.01 98.4959 128.952C98.5354 128.895 98.5549 128.827 98.5515 128.757C98.5459 128.696 98.5261 128.637 98.4937 128.585C98.4613 128.533 98.4172 128.489 98.3649 128.457C98.284 128.409 98.1966 128.374 98.1054 128.352C97.9515 128.306 97.7937 128.274 97.6339 128.257C97.3632 128.232 97.0902 128.247 96.8239 128.302C96.3746 128.403 96.1373 128.577 96.1531 128.618C96.1689 128.659 96.4252 128.542 96.8555 128.491C97.1045 128.46 97.3565 128.46 97.6054 128.491C97.7513 128.514 97.8952 128.548 98.0358 128.593C98.1908 128.634 98.3047 128.7 98.3047 128.779C98.3047 128.858 98.3047 128.821 98.2478 128.843C98.1817 128.86 98.1137 128.87 98.0453 128.871C97.8902 128.871 97.7289 128.871 97.5991 128.871C97.3459 128.853 97.0948 128.812 96.8492 128.748C96.6252 128.665 96.3958 128.597 96.1626 128.545Z" fill="#263238"/>
<path d="M143.857 113.835C143.857 113.677 143.838 113.592 143.838 113.592L143.857 113.835Z" fill="#263238"/>
<path d="M144.085 113.836L127.406 107.593C127.406 107.593 117.553 102.995 113.971 102.005C110.136 100.948 106.694 103.834 104.539 108.308C103.09 111.336 95.002 130.226 95.002 130.226L101.413 134.381L114.224 111.542L132.963 123.705C132.963 123.705 136.655 123.629 140.24 123.629C143.455 123.629 144.199 115.31 144.085 113.836Z" fill="#263238"/>
<path d="M103.311 145.698L105.662 119.802C105.662 119.802 106.073 114.423 109.183 113.335C112.294 112.246 115.932 112.702 115.932 112.702L133.367 123.704L115.48 124.02C115.48 124.02 114.569 127.786 114.309 129.418L111.686 146.056L103.311 145.698Z" fill="#263238"/>
<path d="M132.961 122.739L132.882 122.685L132.638 122.537L131.689 121.97L128.148 119.863L122.734 116.658L119.456 114.718L117.694 113.677L115.84 112.63H115.824L113.397 112.554C112.34 112.59 111.289 112.726 110.258 112.959C109.991 113.021 109.729 113.101 109.473 113.199C109.226 113.329 108.98 113.449 108.745 113.595L108.407 113.838L108.239 113.962L108.087 114.104L107.771 114.392C107.673 114.493 107.587 114.604 107.496 114.709C106.869 115.476 106.395 116.357 106.1 117.303C105.803 118.214 105.624 119.16 105.569 120.116C105.401 121.98 105.236 123.777 105.084 125.495C104.768 128.922 104.502 132.007 104.271 134.599C104.04 137.19 103.863 139.282 103.733 140.737C103.673 141.455 103.626 142.019 103.594 142.405C103.594 142.591 103.569 142.721 103.563 142.838V142.987C103.563 142.987 103.562 142.939 103.585 142.841C103.607 142.743 103.61 142.595 103.629 142.408C103.667 142.022 103.721 141.459 103.79 140.74C103.93 139.288 104.126 137.193 104.366 134.605C104.607 132.017 104.891 128.928 105.205 125.505C105.363 123.793 105.521 121.992 105.698 120.126C105.753 119.18 105.931 118.245 106.227 117.344C106.516 116.413 106.983 115.546 107.6 114.791C107.689 114.69 107.774 114.579 107.869 114.474L108.17 114.193L108.318 114.054L108.483 113.933L108.799 113.696C109.027 113.554 109.274 113.433 109.508 113.31C109.758 113.214 110.014 113.135 110.274 113.073C111.298 112.842 112.341 112.707 113.39 112.668L115.817 112.74H115.789L117.643 113.785L119.406 114.822L122.693 116.753L128.117 119.933L131.676 122.011L132.626 122.562L132.872 122.701L132.961 122.739Z" fill="#455A64"/>
<path d="M129.453 100.894L124.669 101.865L120.492 103.273L127.542 107.621L128.744 104.88L129.453 100.894Z" fill="#B01873"/>
<path d="M146.801 80.1429C146.801 80.1429 150.627 85.3702 149.241 92.2016C147.855 99.0331 145.529 112.389 145.463 113.873C145.406 115.088 144.741 114.968 144.741 114.968L127.607 107.811L131.227 93.2553L136.648 83.3641L137.483 80.8327L146.444 78.4912L146.801 80.1429Z" fill="#B01873"/>
<path d="M128.269 105.618C128.269 105.618 128.522 108.643 128.55 109.023C128.579 109.403 128.053 110.63 128.047 111.317C128.041 112.004 128.256 112.668 127.965 112.88C127.86 112.93 127.745 112.957 127.629 112.961C127.513 112.965 127.397 112.945 127.289 112.902C127.18 112.86 127.082 112.795 127 112.713C126.917 112.631 126.853 112.533 126.81 112.424C126.658 111.928 126.775 110.412 126.775 110.412L126.357 111.763L126.218 114.294C126.193 114.41 126.124 114.511 126.027 114.577C125.929 114.643 125.809 114.669 125.693 114.649C125.551 114.63 125.415 114.583 125.292 114.51C125.169 114.437 125.062 114.34 124.978 114.225C124.807 114.249 124.633 114.213 124.486 114.123C124.339 114.033 124.227 113.894 124.171 113.731C124.171 113.731 123.342 113.95 123.124 112.564C123.008 112.592 122.885 112.582 122.776 112.535C122.666 112.487 122.575 112.405 122.516 112.301C122.291 111.931 121.852 111.007 121.852 111.007C121.852 111.007 121.953 107.659 122.19 106.938C122.427 106.216 124.519 103.732 124.519 103.732C125.536 103.821 126.558 103.857 127.579 103.843L128.269 105.618Z" fill="#D0D0D0"/>
<path d="M125.311 108.428C125.27 108.491 125.237 108.559 125.213 108.63C125.133 108.817 125.063 109.008 125.004 109.203C124.809 109.845 124.692 110.508 124.656 111.177C124.62 111.848 124.668 112.521 124.798 113.18C124.836 113.379 124.885 113.575 124.944 113.769C124.959 113.842 124.985 113.912 125.02 113.978C125.039 113.978 124.96 113.661 124.881 113.165C124.777 112.51 124.741 111.846 124.773 111.184C124.812 110.522 124.918 109.866 125.09 109.225C125.219 108.731 125.333 108.437 125.311 108.428Z" fill="#9F9F9F"/>
<path d="M123.732 108.279C123.706 108.345 123.688 108.415 123.678 108.485C123.653 108.621 123.615 108.817 123.577 109.061C123.469 109.696 123.42 110.34 123.431 110.985C123.441 111.636 123.571 112.279 123.814 112.883C123.888 113.065 123.978 113.24 124.083 113.405C124.159 113.522 124.206 113.582 124.213 113.576C124.219 113.57 124.061 113.31 123.896 112.852C123.684 112.253 123.57 111.623 123.558 110.988C123.55 110.353 123.586 109.719 123.665 109.089C123.708 108.821 123.73 108.551 123.732 108.279Z" fill="#9F9F9F"/>
<path d="M123.077 108.159C123.025 108.367 122.989 108.579 122.97 108.792C122.91 109.178 122.805 109.71 122.761 110.311C122.714 110.827 122.766 111.346 122.916 111.842C122.964 111.991 123.027 112.134 123.106 112.269C123.163 112.368 123.201 112.415 123.207 112.409C123.213 112.402 123.099 112.19 122.998 111.817C122.874 111.328 122.835 110.822 122.881 110.32C122.922 109.729 123.014 109.194 123.052 108.805C123.088 108.591 123.096 108.375 123.077 108.159Z" fill="#9F9F9F"/>
<g opacity="0.3">
<path d="M120.223 103.927C120.223 103.927 123.07 104.731 124.858 105.193C126.646 105.655 127.624 105.807 128.573 105.396C129.522 104.984 133.234 103.111 134.094 102.45C135.3 101.529 139.553 98.4693 140.315 97.6529C141.768 96.1088 143.846 93.666 143.846 93.666L127.152 102.798L120.625 103.165L120.223 103.927Z" fill="black"/>
</g>
<path d="M146.827 87.1358C146.731 86.7765 146.602 86.4269 146.441 86.0916C144.859 82.6775 139.243 84.6456 136.885 86.7245C134.778 88.5945 126.621 97.6567 126.621 97.6567L116.084 99.473L117.252 103.39C118.848 103.805 120.474 104.097 122.115 104.264C125.703 104.634 126.266 104.726 128.247 104.248C130.073 103.805 136.196 99.5837 139.597 97.1252C142.999 94.6666 147.58 91.1132 146.827 87.1358Z" fill="#B01873"/>
<path d="M146.635 80.0254C146.598 80.0329 146.562 80.0445 146.527 80.0602L146.211 80.1868L145.11 80.6551C144.176 81.0443 142.879 81.5569 141.417 82.0505C140.237 82.4523 139.133 82.7782 138.253 83.025L138.307 83.044C138.021 82.576 137.801 82.0715 137.652 81.5442C137.598 81.3575 137.563 81.2056 137.541 81.1044C137.534 81.0512 137.52 80.9991 137.5 80.9493C137.495 81.003 137.495 81.057 137.5 81.1107C137.516 81.2151 137.541 81.367 137.588 81.56C137.722 82.1002 137.935 82.6174 138.221 83.0947L138.237 83.1263H138.275C139.164 82.8953 140.272 82.5757 141.455 82.177C142.92 81.6834 144.214 81.1518 145.141 80.7437C145.603 80.5411 145.974 80.3671 146.23 80.2437L146.521 80.095C146.562 80.0765 146.6 80.0532 146.635 80.0254Z" fill="#263238"/>
<path d="M144.724 123.863H146.259C146.649 123.865 147.027 123.723 147.319 123.464C147.611 123.204 147.797 122.846 147.841 122.458C148.157 119.952 148.746 112.965 148.752 112.908L147.657 112.813C147.657 112.883 147.05 119.841 146.749 122.325C146.735 122.446 146.677 122.558 146.586 122.639C146.495 122.72 146.377 122.765 146.255 122.765H144.721L144.724 123.863Z" fill="#E0E0E0"/>
<path d="M144.723 123.862C144.725 123.837 144.725 123.811 144.723 123.786C144.723 123.732 144.723 123.663 144.723 123.574C144.723 123.381 144.723 123.109 144.739 122.764L144.714 122.789H145.568H146.078C146.171 122.799 146.266 122.799 146.359 122.789C146.461 122.77 146.555 122.721 146.628 122.647C146.707 122.571 146.76 122.473 146.78 122.365C146.796 122.258 146.802 122.16 146.815 122.049C146.834 121.837 146.856 121.619 146.878 121.394C146.926 120.941 146.973 120.461 147.024 119.954C147.22 117.92 147.457 115.471 147.717 112.816L147.644 112.876L148.457 112.946L148.739 112.971L148.679 112.898C148.334 116.607 148.024 119.948 147.796 122.391C147.773 122.655 147.685 122.91 147.538 123.131C147.392 123.352 147.192 123.533 146.957 123.656C146.583 123.814 146.175 123.877 145.771 123.84H144.992H144.787H144.714C144.714 123.84 144.733 123.84 144.777 123.84H144.976L145.758 123.856C145.929 123.856 146.122 123.856 146.331 123.856C146.56 123.846 146.784 123.788 146.989 123.685C147.24 123.558 147.455 123.369 147.612 123.136C147.769 122.903 147.864 122.633 147.888 122.353C148.125 119.926 148.448 116.584 148.811 112.879V112.813H148.748L148.463 112.787L147.653 112.718H147.587V112.784C147.337 115.436 147.109 117.885 146.916 119.919C146.872 120.426 146.828 120.907 146.786 121.359C146.764 121.587 146.745 121.805 146.726 122.017C146.726 122.122 146.71 122.229 146.698 122.334C146.681 122.423 146.639 122.505 146.576 122.57C146.513 122.634 146.432 122.679 146.343 122.698C146.255 122.706 146.166 122.706 146.078 122.698H145.584H144.73H144.701V122.78C144.701 123.131 144.701 123.413 144.701 123.603C144.701 123.688 144.701 123.758 144.701 123.811C144.701 123.865 144.72 123.865 144.723 123.862Z" fill="#263238"/>
<path d="M120.27 125.204H144.79C145.704 125.204 146.444 124.59 146.444 123.834C146.444 123.078 145.704 122.464 144.79 122.464H120.27C119.356 122.464 118.615 123.078 118.615 123.834C118.603 124.59 119.343 125.204 120.27 125.204Z" fill="#455A64"/>
<path d="M150.013 113.728L153.358 87.4812C153.413 87.0461 153.294 86.6067 153.026 86.2596C152.758 85.9125 152.363 85.6861 151.928 85.6301C151.492 85.5754 151.053 85.6956 150.706 85.9643C150.359 86.233 150.133 86.6282 150.077 87.0635L146.732 113.31C146.677 113.746 146.796 114.185 147.064 114.532C147.332 114.879 147.727 115.105 148.162 115.161C148.378 115.189 148.597 115.174 148.807 115.117C149.016 115.059 149.213 114.961 149.385 114.828C149.557 114.695 149.701 114.53 149.809 114.341C149.916 114.152 149.986 113.944 150.013 113.728Z" fill="#455A64"/>
<path d="M120.418 124.182L116.764 151.001H118.219L123.674 125.207L120.418 124.182Z" fill="#455A64"/>
<path d="M144.492 124.182L148.046 151.001H146.593L141.236 125.207L144.492 124.182Z" fill="#455A64"/>
<path d="M120.27 125.204C120.27 125.242 125.835 125.27 132.702 125.27C139.568 125.27 145.134 125.242 145.134 125.204C145.134 125.166 139.568 125.141 132.702 125.141C125.835 125.141 120.27 125.169 120.27 125.204Z" fill="#263238"/>
</svg>
