<svg width="220" height="150" viewBox="0 0 220 150" fill="none" xmlns="http://www.w3.org/2000/svg">
<g clip-path="url(#clip0_1374_63241)">
<rect width="220" height="150" fill="white"/>
<g opacity="0.5">
<path d="M77.0801 123.358C120.15 122.698 168.03 122.708 211.14 123.358C168.03 124.008 120.17 124.018 77.0801 123.358Z" fill="#C1C1C1"/>
</g>
<path d="M6.83917 122.738L2.71917 111.218C0.109165 103.918 4.87917 96.0684 12.5692 95.0284C20.6892 93.9284 26.7592 86.9984 26.7592 78.7984C26.7592 53.1084 54.1792 36.7184 76.8092 48.8784C98.9792 60.7884 125.359 62.0084 148.529 52.1884L166.889 44.4084C189.059 35.0084 212.589 54.5684 207.399 78.0784C206.319 82.9884 206.589 88.1084 208.199 92.8684L211.179 101.698C218.459 123.248 204.509 146.158 182.019 149.578H11.7892C5.64917 149.578 1.91917 142.808 5.19917 137.628C8.00917 133.178 8.60917 127.688 6.83917 122.738Z" fill="#F3F2F4"/>
<path d="M124.159 81.7281C124.179 81.9881 124.199 82.2381 124.259 82.4881C124.479 83.3981 125.309 84.1281 126.239 84.2381C126.799 84.2981 127.429 84.1181 127.689 83.6181C127.789 83.4281 127.829 83.2181 127.859 83.0081C128.159 81.1181 128.119 79.1781 127.739 77.2981C127.689 77.0481 127.619 76.7681 127.399 76.6181C127.249 76.5181 127.059 76.4981 126.869 76.4881C125.819 76.4081 124.219 76.4681 123.949 77.7681C123.699 78.9381 124.069 80.5381 124.149 81.7281H124.159Z" fill="#A8AAB4"/>
<path d="M144.59 83.7285C144.59 83.9185 144.59 84.1185 144.66 84.2685C144.74 84.4085 144.87 84.4785 144.99 84.5285C146 84.9485 147.11 84.8885 148.09 84.3585C148.2 84.2985 148.32 84.2285 148.38 84.0885C148.43 83.9585 148.43 83.8085 148.43 83.6585C148.34 81.1185 148.25 78.5785 148.16 76.0385C148.16 75.8585 148.14 75.6585 148.06 75.5285C147.98 75.3985 147.85 75.3485 147.73 75.3185C146.63 75.0185 144.81 75.5985 144.74 77.3385C144.65 79.4685 144.64 81.5985 144.59 83.7285Z" fill="#A8AAB4"/>
<path d="M169.509 77.9284C169.509 78.5684 169.599 79.1984 169.789 79.8084C169.829 79.9484 169.879 80.0884 169.869 80.2284C169.849 80.6984 169.089 81.4584 168.759 81.7884C168.099 82.4584 167.279 82.9984 166.419 83.3784C166.169 83.4884 165.859 83.5884 165.629 83.4384C165.509 83.3584 165.439 83.2284 165.369 83.0984C165.099 82.5784 164.829 82.0484 164.559 81.5284C164.499 81.4184 164.439 81.2884 164.459 81.1584C164.469 81.0584 164.539 80.9684 164.599 80.8784C165.019 80.2884 165.449 79.7084 165.759 79.0484C165.989 78.5484 166.029 78.0684 166.139 77.5384C166.279 76.8984 166.299 76.9284 166.959 76.5684C167.589 76.2284 168.269 75.8784 168.979 75.9684C168.979 76.0984 169.129 76.1684 169.229 76.2484C169.589 76.5284 169.559 77.0684 169.529 77.5184C169.529 77.6484 169.519 77.7784 169.519 77.9084L169.509 77.9284Z" fill="#A8AAB4"/>
<path d="M97.2596 76.9782C97.8196 75.9982 98.8996 75.3882 99.3796 74.3682C99.9996 73.0382 99.4196 71.4182 99.8496 70.0082C100.35 68.3882 102.36 67.4182 103.94 68.0282C104.39 67.2782 105.32 66.9082 106.2 66.9482C107.08 66.9882 107.9 67.3682 108.63 67.8482C111.23 69.5482 112.9 72.5882 112.93 75.6882C112.95 77.7582 112.3 79.7782 111.54 81.7082C111.46 81.9082 111.38 82.1082 111.23 82.2482C111.05 82.4282 110.79 82.4982 110.55 82.5582C107.38 83.3782 102.98 84.3182 99.7396 83.4682C98.4696 83.1382 97.5196 81.8682 97.0896 80.4482C96.7196 79.2382 96.7396 77.9182 97.2696 76.9782H97.2596Z" fill="#333333"/>
<path d="M103.299 80.3084C103.319 79.3984 103.649 78.6084 104.199 77.6084C105.049 77.3084 105.969 77.2284 106.859 77.3784C107.159 78.1384 107.459 78.9184 107.549 79.7384C107.769 81.8984 104.519 85.0784 103.549 81.8684C103.369 81.2884 103.299 80.7884 103.299 80.3184V80.3084Z" fill="#A8AAB4"/>
<path d="M100.949 75.7583C101.219 76.7783 101.719 77.6983 102.419 78.2583C103.669 79.2683 105.129 79.0883 106.519 78.5883C107.539 78.2183 108.299 77.5583 108.779 76.5883C109.049 76.0383 109.179 75.4283 109.199 74.8183C109.249 72.8883 108.109 70.9683 106.389 70.0983C104.889 69.3383 102.829 69.3983 101.689 70.7483C100.689 71.9283 100.479 74.0083 100.939 75.7683L100.949 75.7583Z" fill="#BBBDC8"/>
<path d="M103.039 69.9183C103.229 69.9483 103.429 69.9683 103.629 69.9583C103.839 69.9583 104.049 69.9283 104.239 69.9983C104.569 70.1183 104.739 70.4883 104.789 70.8283C104.839 71.1683 104.809 71.5284 104.899 71.8684C105.349 73.5684 108.319 72.5584 108.109 74.7884C108.189 74.4884 108.279 74.1783 108.459 73.9283C108.639 73.6783 108.949 73.4884 109.259 73.5384C110.379 75.8584 109.789 78.5784 109.559 81.1484C109.539 81.3384 109.529 81.5383 109.639 81.6883C110.289 82.6483 111.479 81.5683 111.629 80.8683C111.919 79.4483 112.029 77.9984 112.149 76.5584C112.199 75.9184 112.249 75.2783 112.149 74.6383C112.069 74.1183 111.899 73.6283 111.709 73.1383C111.199 71.8583 110.509 70.6383 109.559 69.6483C108.609 68.6483 107.399 67.8783 106.049 67.5983C105.639 67.5083 105.179 67.4783 104.839 67.7183C104.589 67.8983 104.399 68.2183 104.089 68.2283C103.929 68.2283 103.789 68.1483 103.639 68.0983C103.259 67.9783 102.859 68.0983 102.479 68.2183C101.479 68.5383 100.389 68.9283 99.8387 69.8283C98.9187 71.3383 99.9587 73.4983 98.9687 74.9583C98.7287 75.3083 98.3887 75.5784 98.0987 75.8984C96.8087 77.2884 96.5787 79.5683 97.5687 81.1883C98.8687 78.9683 99.8987 76.5883 100.629 74.1183C100.719 73.8083 100.809 73.4983 100.979 73.2283C101.239 72.8183 101.669 72.5383 101.939 72.1283C102.269 71.6483 102.349 71.0183 102.729 70.5683C103.189 70.0183 103.959 69.8783 104.669 69.7683" fill="#333333"/>
<path d="M97.5801 81.1887L98.1301 73.7687C98.1301 73.7687 98.5501 73.6687 98.6201 73.9887C98.8901 75.1587 99.1401 78.1287 99.2001 78.0087C99.2501 77.8987 99.8401 77.1887 100.26 76.8987C100.44 76.7787 100.71 76.8987 100.71 76.8987L99.2001 81.4087L97.5801 81.1787V81.1887Z" fill="#BBBDC8"/>
<path d="M102.729 80.4384L103.299 79.8984C103.299 79.8984 103.069 82.7584 104.879 82.8184C106.689 82.8784 107.469 80.2084 107.469 80.2084L109.199 81.4084L104.989 90.0184L101.889 81.1584L102.729 80.4384Z" fill="#E6E6E6"/>
<path d="M143.359 80.6787L145.539 90.0287L149.499 80.8587L143.359 80.6787Z" fill="#CCCCCC"/>
<path d="M100.08 81.4085L102.73 80.4385L104.57 89.2985L108.14 80.7185L111.65 81.4185L113.6 93.9785L100.08 93.7585V81.4085Z" fill="#4D4D4D"/>
<path d="M105.429 92.1384L101.719 91.3584C101.719 91.3584 99.7392 92.4684 99.1992 93.9784L105.429 93.8484V92.1484V92.1384Z" fill="#BBBDC8"/>
<path d="M129.609 75.2281C129.589 76.4181 129.309 77.6581 128.489 78.5681C127.399 79.7781 125.449 80.0981 124.029 79.2981C123.119 78.7881 122.469 77.8781 122.109 76.8981C121.749 75.9181 121.679 74.8481 121.729 73.7981C121.819 71.9981 122.599 70.4981 124.589 70.2681C125.599 70.1481 126.619 70.4281 127.539 70.8681C127.959 71.0681 128.359 71.2981 128.679 71.6381C128.619 71.6181 128.539 71.5481 128.579 71.5781C128.879 71.7881 129.029 72.1481 129.159 72.4881C129.479 73.2881 129.609 74.3681 129.589 75.2181L129.609 75.2281Z" fill="#BBBDC8"/>
<path d="M122.459 81.4086L124.059 80.7686L125.719 83.7986L127.809 80.7686L129.539 81.8286L125.719 85.6786L122.459 81.4086Z" fill="#999999"/>
<path d="M135.449 93.7581L135.209 85.5781C135.189 84.7681 134.699 84.0481 133.949 83.7281L129.539 81.8281L125.179 84.9581L122.779 81.8281L118.249 83.0881C117.369 83.3281 116.759 84.1181 116.729 85.0281L116.439 93.9781L135.449 93.7581Z" fill="#666666"/>
<path d="M142.369 72.4286C142.139 73.5486 142.229 74.7486 142.759 75.7586C143.289 76.7686 144.279 77.5586 145.409 77.7186C146.909 77.9286 148.399 76.9986 149.189 75.7086C149.979 74.4186 150.149 72.8386 150.049 71.3286C149.979 70.2386 149.749 69.1086 149.079 68.2486C148.419 67.3986 147.359 66.8886 146.289 66.8986C145.389 66.8986 143.839 67.4086 143.279 68.1886C142.929 68.6786 142.929 69.3686 142.889 69.9386C142.819 70.7986 142.559 71.5886 142.389 72.4286H142.369Z" fill="#BBBDC8"/>
<path d="M148.269 70.2885C148.409 71.4085 148.529 72.5385 148.629 73.6685C148.769 73.1685 148.899 72.6785 149.039 72.1785C148.939 71.9285 149.349 71.8885 149.529 72.0985C149.709 72.3085 149.669 72.6085 149.609 72.8785C149.399 73.8985 149.199 74.9185 148.989 75.9285C149.849 74.9385 150.729 73.9185 151.099 72.6585C151.219 72.2585 151.279 71.8385 151.329 71.4185C151.419 70.6985 151.459 69.9485 151.229 69.2585C150.999 68.5685 150.449 67.9385 149.729 67.8185C150.129 67.2085 149.779 66.3285 149.169 65.9285C148.559 65.5285 147.789 65.4685 147.059 65.4785C145.779 65.4985 144.499 65.6585 143.249 65.9585C142.659 66.0985 142.059 66.2885 141.619 66.7085C140.879 67.4285 140.849 68.5885 140.909 69.6185C140.929 69.8985 140.959 70.2185 141.159 70.4085C141.299 70.5385 141.489 70.5985 141.679 70.6485C142.009 70.7385 142.339 70.8285 142.679 70.9185C142.739 69.9685 143.179 69.0385 143.919 68.4385C144.659 67.8385 145.709 67.6285 146.599 67.9485C147.489 68.2685 148.169 69.1685 148.169 70.1185C148.169 69.9285 148.239 70.4685 148.249 70.2785L148.269 70.2885Z" fill="#333333"/>
<path d="M136.01 93.7585C136.01 93.7585 135.64 86.4585 136.79 83.0885C137.05 82.3385 137.65 81.7685 138.4 81.4985C140.28 80.8285 144.3 79.3885 143.98 79.3985L146.16 85.2785L150.22 79.8985L153.63 80.9985C154.42 81.2485 155.01 81.9085 155.18 82.7085L157.57 93.7485H136L136.01 93.7585Z" fill="#4D4D4D"/>
<path d="M142.639 79.7386L144.259 79.0986L145.479 89.4686L149.219 79.3986L150.219 79.8986L149.439 84.9586L148.049 85.3386L148.829 86.5786L145.539 90.0286L143.359 85.8986L144.309 84.9586L142.969 84.2486L142.639 79.7386Z" fill="#333333"/>
<path d="M145.869 80.9383C145.869 80.9383 143.979 82.2683 143.979 82.1183C143.979 81.9683 143.809 79.1783 143.809 79.1783L144.439 78.8483L145.649 80.6483L148.399 78.4883L149.499 79.7083L148.149 82.5883L145.869 80.9383Z" fill="#999999"/>
<path d="M139.738 93.7584L140.958 91.8584C141.198 91.4884 141.628 91.2984 142.068 91.3784L145.978 92.0884V93.9884L139.738 93.7684V93.7584Z" fill="#BBBDC8"/>
<path d="M135.949 91.6982L140.969 91.8582V93.7582H136.009L135.949 91.6982Z" fill="#666666"/>
<path d="M144.59 93.7584L144.72 92.3584C144.77 91.7884 145.25 91.3584 145.82 91.3584H157.06V93.7584H144.59Z" fill="#666666"/>
<path d="M163.879 70.4783C163.799 71.2783 163.959 72.1983 163.699 72.9083C163.609 73.1683 163.489 73.4083 163.399 73.6583C162.989 74.7883 163.279 76.2783 164.199 77.1083C166.839 79.5183 171.149 76.4783 171.929 73.6583C172.429 71.8583 171.659 69.6783 169.959 68.8983C168.789 68.3583 167.469 68.5483 166.239 68.7683C165.779 68.8483 164.959 68.8483 164.579 69.1083C164.099 69.4383 163.939 69.9283 163.879 70.4783Z" fill="#BBBDC8"/>
<path d="M169.63 74.0886C169.17 74.0086 168.87 74.7986 168.41 74.6786C168.33 74.0786 168.51 73.4886 168.59 72.8886C168.65 72.3786 168.64 71.8486 168.55 71.3386C168.49 70.9786 168.44 70.8586 168.19 70.5886C168 70.3886 167.73 70.2986 167.47 70.2086C167.11 70.0986 166.74 69.9786 166.38 69.8686C165.78 69.6786 165.04 69.5186 164.59 69.9486C164.32 70.1986 164.17 70.6386 163.81 70.6686C163.66 70.0886 163.52 69.4186 163.89 68.9486C164.06 68.7286 164.31 68.5986 164.56 68.4886C165.52 68.0786 166.57 67.9686 167.61 67.8686C167.93 67.8386 168.25 67.8086 168.57 67.8686C169.05 67.9486 169.48 68.2186 169.86 68.5086C170.31 68.8586 170.72 69.2586 171.11 69.6786C171.94 70.5886 172.68 71.7186 172.56 72.9386C172.51 73.5086 172.27 74.0386 171.98 74.5286C171.24 75.8086 170.2 76.8786 169.16 77.9386C169.54 76.8586 169.92 75.7786 170.3 74.6986C170.38 74.4686 170.46 74.1986 170.33 73.9886C170.2 73.7786 169.62 73.8486 169.64 74.0886H169.63Z" fill="#333333"/>
<path d="M173.19 81.2686L168.4 91.6886L161.99 86.4786C161.99 86.4786 161.15 87.9986 159.76 88.2886C158.37 88.5786 163.94 93.9786 163.94 93.9786L172.56 93.7586L175.46 85.0386C175.88 83.7686 175.32 82.3686 174.12 81.7586L173.18 81.2786L173.19 81.2686Z" fill="#666666"/>
<path d="M161.93 79.7383L159.53 93.7483H156.35L159.4 81.7383C159.61 80.8883 160.26 80.2283 161.1 79.9783L161.92 79.7383H161.93Z" fill="#666666"/>
<path d="M173.189 81.2679L169.789 79.4679V79.7379L165.769 83.3379L164.659 80.6779L165.969 78.8779L161.929 79.7379L159.529 93.7579L168.669 93.8579L173.189 81.2679Z" fill="#4D4D4D"/>
<path d="M164.169 79.2583L163.789 82.3683L166.059 81.8783L165.819 78.9883L164.169 79.2583Z" fill="#B3B3B3"/>
<path d="M166.889 83.388C166.889 83.388 171.599 80.408 171.119 80.168L169.699 79.458C169.699 79.458 166.969 81.638 166.049 81.818C165.129 81.998 166.889 83.378 166.889 83.378V83.388Z" fill="#B3B3B3"/>
<path d="M161.249 85.7285C160.959 85.0085 160.509 84.3085 160.179 83.6285C159.959 83.6285 159.859 83.2685 159.639 83.2785C159.089 83.3185 159.729 85.2385 159.759 85.4985C159.779 85.6085 157.399 85.0185 157.219 84.9185C156.449 84.4785 155.289 83.2785 154.769 84.6485C154.349 85.7785 155.409 86.1885 156.259 86.3785C156.759 86.4885 157.219 86.7185 157.679 86.9485C158.229 87.2185 158.789 87.5085 159.289 87.8785C159.699 88.1885 160.119 88.7485 160.709 88.6185C160.709 88.7085 161.419 88.0585 161.479 87.9085C161.629 87.5185 161.579 87.0485 161.519 86.6485C161.469 86.3285 161.369 86.0185 161.249 85.7185V85.7285Z" fill="#BBBDC8"/>
<path d="M134.169 93.6981V83.8881C134.169 83.2981 133.689 82.8281 133.109 82.8281H118.349C117.759 82.8281 117.289 83.3081 117.289 83.8881V93.7581L134.179 93.6981H134.169Z" fill="#333333"/>
<path d="M133.419 93.7088V84.7688C133.419 84.2288 132.989 83.7988 132.449 83.7988H118.999C118.459 83.7988 118.029 84.2288 118.029 84.7688V93.7588L133.419 93.7088Z" stroke="#666666" stroke-width="0.25" stroke-miterlimit="10"/>
<path d="M111.648 81.418L110.868 86.238L111.928 91.088L104.878 91.478L104.568 93.988H115.768C115.768 93.988 115.378 81.128 111.648 81.428V81.418Z" fill="#666666"/>
<path d="M130.529 72.4079C130.469 71.6279 130.069 70.9179 129.619 70.2679C129.279 69.7779 128.909 69.3079 128.419 68.9679C127.539 68.3579 126.079 68.2779 125.109 68.7179C124.559 68.9679 124.329 69.4679 123.859 69.5079C123.099 69.5679 122.599 69.0679 121.879 69.8079C121.279 70.4179 121.109 71.3179 121.039 72.1679C120.939 73.3279 121.009 74.5879 121.699 75.5179C121.899 74.5479 122.299 73.6279 122.869 72.8179C123.139 72.4379 123.469 71.9879 123.339 71.5379C125.029 72.5179 127.209 72.5979 128.969 71.7479C128.989 72.6879 128.989 74.3379 129.569 75.0879C130.319 74.7179 130.589 73.1779 130.529 72.4179V72.4079Z" fill="#333333"/>
<path d="M161.479 85.958L159.879 88.538C159.879 88.538 168.709 96.198 171.259 95.358C173.809 94.518 172.509 93.188 172.509 93.188C172.509 93.188 172.099 91.348 166.809 89.018C163.419 87.528 162.099 86.208 161.489 85.968L161.479 85.958Z" fill="#666666"/>
<path d="M100.029 81.2783L96.9993 81.3483C96.9993 81.3483 95.3993 92.9383 97.4993 94.5983C99.5993 96.2683 99.9993 94.4583 99.9993 94.4583C99.9993 94.4583 101.319 93.1083 100.379 87.3983C99.7793 83.7483 100.159 81.9283 100.029 81.2783Z" fill="#666666"/>
<path d="M125.669 89.2686C126.972 89.2686 128.029 88.8298 128.029 88.2886C128.029 87.7474 126.972 87.3086 125.669 87.3086C124.365 87.3086 123.309 87.7474 123.309 88.2886C123.309 88.8298 124.365 89.2686 125.669 89.2686Z" fill="#999999"/>
<path d="M187.42 95.418H85.25V123.358H187.42V95.418Z" fill="#4D4D4D"/>
<path d="M190.48 93.7588H80.3398V96.5488H190.48V93.7588Z" fill="#1A1A1A"/>
<path d="M69.21 140.068C69.7 139.868 70.21 139.418 70.09 138.898C70.02 138.578 69.74 138.358 69.47 138.168C67.58 136.798 64.03 135.258 62.88 138.658C62.11 140.938 67.79 140.638 69.21 140.058V140.068Z" fill="#40324C"/>
<path d="M55.0097 133.849C54.0397 134.369 53.6197 135.649 53.9697 136.689C54.3297 137.729 55.3497 138.459 56.4397 138.599C57.4997 138.739 58.7697 138.159 58.9197 137.099C59.0497 136.219 58.3397 135.389 57.4997 135.069C56.6597 134.749 55.7397 134.829 54.8597 134.899" fill="#40324C"/>
<path d="M55.6486 116.519L53.8086 136.309H56.8686L61.6686 116.519H55.6486Z" fill="#9E1667"/>
<path d="M50.1487 87.728C50.2587 88.108 50.4287 88.418 50.6887 88.578C51.4087 89.008 53.4287 88.648 54.2687 88.648C54.5987 88.648 54.9287 88.648 55.2487 88.578C55.5787 88.518 55.8887 88.398 56.1587 88.228C56.2487 88.168 56.3287 88.108 56.3587 88.018C56.3887 87.918 56.3287 87.818 56.2787 87.728C55.9687 87.158 55.7487 86.558 55.6387 85.938C55.5787 85.598 55.5387 85.238 55.2787 84.978C55.0287 84.738 54.6187 84.638 54.2387 84.628C53.8587 84.618 53.4687 84.678 53.0887 84.678C51.8687 84.678 49.8787 83.918 49.9287 85.638C49.9487 86.128 49.9387 87.048 50.1487 87.748V87.728Z" fill="#91575F"/>
<path d="M58.8296 78.6387C59.2596 80.5687 59.2096 82.5787 59.0596 84.5587C59.0496 84.6887 59.0296 84.8387 58.9396 84.9387C58.8596 85.0287 58.7396 85.0587 58.6296 85.0887C55.7896 85.7787 52.5996 84.7887 50.6396 82.6087C50.3996 82.3387 50.1696 82.0387 50.0396 81.6987C49.8996 81.3287 49.8996 80.9187 49.9196 80.5287C50.0896 77.9087 51.7596 75.3487 54.1296 74.1787C56.9496 72.7887 58.2896 76.2587 58.8196 78.6487L58.8296 78.6387Z" fill="#A1616A"/>
<path d="M56.8491 81.0685C56.9891 80.0785 57.0391 79.0785 56.9891 78.0885C56.9791 77.8085 56.9491 77.5285 56.9891 77.2585C57.0591 76.8585 57.2691 76.4985 57.4391 76.1285C57.8291 75.3285 58.0891 74.4485 58.0091 73.5585C57.9291 72.6785 57.4791 71.7985 56.6991 71.3585C55.8391 70.8785 54.7791 71.0085 53.8091 71.1585C53.1791 71.2485 52.5491 71.3485 51.9691 71.5885C51.3891 71.8285 50.8391 72.2285 50.5591 72.7985C50.4491 73.0285 50.3791 73.2885 50.2491 73.5085C50.0191 73.9385 49.6091 74.2285 49.2491 74.5485C48.2791 75.4085 47.5591 76.5585 47.2091 77.8085C47.0291 78.4585 46.9491 79.1585 47.1191 79.8085C47.3391 80.6485 47.9391 81.3085 48.4091 82.0385C49.1291 83.1585 49.5291 84.4585 49.8691 85.7485C50.7991 85.5685 51.7391 85.4585 52.6791 85.4185C53.4991 85.3785 54.2691 85.5585 55.0391 85.2285C55.1091 85.1985 55.1891 85.1685 55.2391 85.1085C55.2891 85.0485 55.3191 84.9685 55.3491 84.8885C55.7591 83.5585 55.5491 82.0485 54.8091 80.8785C54.7091 80.7185 54.5891 80.5585 54.5291 80.3785C54.3991 80.0185 54.4991 79.6185 54.5991 79.2385C54.6291 79.1385 54.6591 79.0385 54.7391 78.9785C54.8091 78.9285 54.8991 78.9285 54.9891 78.9285C56.4291 78.9685 56.4591 79.9085 56.8391 81.0485L56.8491 81.0685Z" fill="#333333"/>
<path d="M70.4395 92.1386L72.2495 86.6186L75.2094 86.0186L74.1495 90.8186L71.8195 93.9386L70.4395 92.1386Z" fill="#91575F"/>
<path d="M68.1995 94.3982L69.4495 93.4082L68.8195 88.1882L69.4495 87.7282L71.2695 90.5682L75.1295 85.9082L75.9295 86.4782L73.8795 89.4382L73.4295 91.2582L70.4695 96.5982L67.7695 95.2282L68.1995 94.3982Z" fill="#A1616A"/>
<path d="M47.6184 89.768L45.4184 90.798C44.5884 91.188 44.0284 91.988 43.9484 92.888L42.8984 104.178L46.4484 111.728L47.6184 89.748V89.768Z" fill="#544660"/>
<path d="M63.4091 137.839C63.4091 137.839 67.9991 138.879 67.9991 138.429C67.9991 138.089 70.8691 125.039 73.5091 117.489C74.2091 115.499 72.7791 111.679 70.6791 111.589L46.3791 110.509L45.7891 118.589C45.7891 118.589 64.4491 119.329 67.1091 118.289C65.3291 121.349 66.5191 126.409 63.4091 137.839Z" fill="#AF1873"/>
<path d="M46.5093 90.4188L49.9193 88.2188L53.5693 87.7588L60.9193 89.2888C60.9193 89.2888 61.0493 113.829 62.0893 115.469C63.1293 117.109 44.6693 115.869 44.8193 115.429C44.9693 114.989 46.5093 90.4188 46.5093 90.4188Z" fill="#40324C"/>
<path d="M49.6385 86.6379L48.9785 88.7779C48.9785 88.7779 53.2485 89.2679 56.9285 88.1479L56.3585 86.6279C56.3585 86.6279 52.8185 87.6379 49.6385 86.6279V86.6379Z" fill="#BBBDC8"/>
<path d="M64.4983 100.578L64.6683 100.258L68.0483 94.1282C68.0483 94.1282 69.9383 93.9582 71.2683 95.4282C70.6483 98.1782 67.2083 103.538 66.2683 104.978C66.0883 105.248 65.8783 105.478 65.6183 105.678C65.0483 106.118 63.9783 106.848 62.8983 107.018C61.8883 107.178 60.9683 106.428 60.7783 105.428C59.9283 100.898 59.7383 95.7482 59.7383 95.7482L60.9183 89.1582L61.7983 89.5682C62.7283 89.9982 63.3583 90.8782 63.4783 91.8882L64.4883 100.578H64.4983Z" fill="#544660"/>
<path d="M44.4395 110.278V119.518H47.5595V108.838L44.4395 110.278Z" fill="#B3B3B3"/>
<path d="M49.6295 113.278L48.7695 98.748L50.3695 98.788C51.6195 98.818 52.6295 99.838 52.6395 101.088L52.7395 110.318C52.5395 112.148 50.6195 112.968 49.6295 113.268V113.278Z" fill="#B3B3B3"/>
<path d="M38.1094 98.748H49.0294C49.8794 98.748 50.5694 99.438 50.5694 100.288V111.858C50.5694 112.708 49.8794 113.398 49.0294 113.398H39.3494C38.5594 113.398 37.8994 112.808 37.8194 112.018L36.5894 100.448C36.4894 99.538 37.2094 98.748 38.1194 98.748H38.1094Z" fill="#808080"/>
<path d="M61.3191 117.838H38.6191C37.7907 117.838 37.1191 118.509 37.1191 119.338C37.1191 120.166 37.7907 120.838 38.6191 120.838H61.3191C62.1476 120.838 62.8191 120.166 62.8191 119.338C62.8191 118.509 62.1476 117.838 61.3191 117.838Z" fill="#808080"/>
<path d="M56.3593 120.838H53.7793V140.478H56.3593V120.838Z" fill="#666666"/>
<path d="M41.1991 120.838H38.6191V140.478H41.1991V120.838Z" fill="#666666"/>
<path d="M61.9691 120.838H59.6191V138.738H61.9691V120.838Z" fill="#4D4D4D"/>
<path d="M49.9398 120.838H47.5898V138.738H49.9398V120.838Z" fill="#4D4D4D"/>
<path opacity="0.2" d="M136.668 129.228C170.181 129.228 197.348 126.3 197.348 122.688C197.348 119.076 170.181 116.148 136.668 116.148C103.156 116.148 75.9883 119.076 75.9883 122.688C75.9883 126.3 103.156 129.228 136.668 129.228Z" fill="#4D4D4D"/>
<path opacity="0.2" d="M55.9486 142.728C69.4188 142.728 80.3386 140.373 80.3386 137.468C80.3386 134.563 69.4188 132.208 55.9486 132.208C42.4784 132.208 31.5586 134.563 31.5586 137.468C31.5586 140.373 42.4784 142.728 55.9486 142.728Z" fill="#4D4D4D"/>
<rect x="1.33203" width="66" height="24" rx="12" fill="#F0F0F0"/>
<path d="M12.98 16.084C12.42 16.084 11.916 15.988 11.468 15.796C11.02 15.596 10.668 15.316 10.412 14.956C10.156 14.596 10.028 14.176 10.028 13.696H11.492C11.524 14.056 11.664 14.352 11.912 14.584C12.168 14.816 12.524 14.932 12.98 14.932C13.452 14.932 13.82 14.82 14.084 14.596C14.348 14.364 14.48 14.068 14.48 13.708C14.48 13.428 14.396 13.2 14.228 13.024C14.068 12.848 13.864 12.712 13.616 12.616C13.376 12.52 13.04 12.416 12.608 12.304C12.064 12.16 11.62 12.016 11.276 11.872C10.94 11.72 10.652 11.488 10.412 11.176C10.172 10.864 10.052 10.448 10.052 9.928C10.052 9.448 10.172 9.028 10.412 8.668C10.652 8.308 10.988 8.032 11.42 7.84C11.852 7.648 12.352 7.552 12.92 7.552C13.728 7.552 14.388 7.756 14.9 8.164C15.42 8.564 15.708 9.116 15.764 9.82H14.252C14.228 9.516 14.084 9.256 13.82 9.04C13.556 8.824 13.208 8.716 12.776 8.716C12.384 8.716 12.064 8.816 11.816 9.016C11.568 9.216 11.444 9.504 11.444 9.88C11.444 10.136 11.52 10.348 11.672 10.516C11.832 10.676 12.032 10.804 12.272 10.9C12.512 10.996 12.84 11.1 13.256 11.212C13.808 11.364 14.256 11.516 14.6 11.668C14.952 11.82 15.248 12.056 15.488 12.376C15.736 12.688 15.86 13.108 15.86 13.636C15.86 14.06 15.744 14.46 15.512 14.836C15.288 15.212 14.956 15.516 14.516 15.748C14.084 15.972 13.572 16.084 12.98 16.084ZM19.0702 10.504V14.164C19.0702 14.412 19.1262 14.592 19.2382 14.704C19.3582 14.808 19.5582 14.86 19.8382 14.86H20.6782V16H19.5982C18.9822 16 18.5102 15.856 18.1822 15.568C17.8542 15.28 17.6902 14.812 17.6902 14.164V10.504H16.9102V9.388H17.6902V7.744H19.0702V9.388H20.6782V10.504H19.0702ZM21.4831 12.664C21.4831 12 21.6191 11.412 21.8911 10.9C22.1711 10.388 22.5471 9.992 23.0191 9.712C23.4991 9.424 24.0271 9.28 24.6031 9.28C25.1231 9.28 25.5751 9.384 25.9591 9.592C26.3511 9.792 26.6631 10.044 26.8951 10.348V9.388H28.2751V16H26.8951V15.016C26.6631 15.328 26.3471 15.588 25.9471 15.796C25.5471 16.004 25.0911 16.108 24.5791 16.108C24.0111 16.108 23.4911 15.964 23.0191 15.676C22.5471 15.38 22.1711 14.972 21.8911 14.452C21.6191 13.924 21.4831 13.328 21.4831 12.664ZM26.8951 12.688C26.8951 12.232 26.7991 11.836 26.6071 11.5C26.4231 11.164 26.1791 10.908 25.8751 10.732C25.5711 10.556 25.2431 10.468 24.8911 10.468C24.5391 10.468 24.2111 10.556 23.9071 10.732C23.6031 10.9 23.3551 11.152 23.1631 11.488C22.9791 11.816 22.8871 12.208 22.8871 12.664C22.8871 13.12 22.9791 13.52 23.1631 13.864C23.3551 14.208 23.6031 14.472 23.9071 14.656C24.2191 14.832 24.5471 14.92 24.8911 14.92C25.2431 14.92 25.5711 14.832 25.8751 14.656C26.1791 14.48 26.4231 14.224 26.6071 13.888C26.7991 13.544 26.8951 13.144 26.8951 12.688ZM32.7359 9.28C33.2479 9.28 33.6999 9.384 34.0919 9.592C34.4919 9.792 34.8039 10.044 35.0279 10.348V9.388H36.4079V16.108C36.4079 16.716 36.2799 17.256 36.0239 17.728C35.7679 18.208 35.3959 18.584 34.9079 18.856C34.4279 19.128 33.8519 19.264 33.1799 19.264C32.2839 19.264 31.5399 19.052 30.9479 18.628C30.3559 18.212 30.0199 17.644 29.9399 16.924H31.2959C31.3999 17.268 31.6199 17.544 31.9559 17.752C32.2999 17.968 32.7079 18.076 33.1799 18.076C33.7319 18.076 34.1759 17.908 34.5119 17.572C34.8559 17.236 35.0279 16.748 35.0279 16.108V15.004C34.7959 15.316 34.4799 15.58 34.0799 15.796C33.6879 16.004 33.2399 16.108 32.7359 16.108C32.1599 16.108 31.6319 15.964 31.1519 15.676C30.6799 15.38 30.3039 14.972 30.0239 14.452C29.7519 13.924 29.6159 13.328 29.6159 12.664C29.6159 12 29.7519 11.412 30.0239 10.9C30.3039 10.388 30.6799 9.992 31.1519 9.712C31.6319 9.424 32.1599 9.28 32.7359 9.28ZM35.0279 12.688C35.0279 12.232 34.9319 11.836 34.7399 11.5C34.5559 11.164 34.3119 10.908 34.0079 10.732C33.7039 10.556 33.3759 10.468 33.0239 10.468C32.6719 10.468 32.3439 10.556 32.0399 10.732C31.7359 10.9 31.4879 11.152 31.2959 11.488C31.1119 11.816 31.0199 12.208 31.0199 12.664C31.0199 13.12 31.1119 13.52 31.2959 13.864C31.4879 14.208 31.7359 14.472 32.0399 14.656C32.3519 14.832 32.6799 14.92 33.0239 14.92C33.3759 14.92 33.7039 14.832 34.0079 14.656C34.3119 14.48 34.5559 14.224 34.7399 13.888C34.9319 13.544 35.0279 13.144 35.0279 12.688ZM44.2647 12.532C44.2647 12.78 44.2487 13.004 44.2167 13.204H39.1647C39.2047 13.732 39.4007 14.156 39.7527 14.476C40.1047 14.796 40.5367 14.956 41.0487 14.956C41.7847 14.956 42.3047 14.648 42.6087 14.032H44.0847C43.8847 14.64 43.5207 15.14 42.9927 15.532C42.4727 15.916 41.8247 16.108 41.0487 16.108C40.4167 16.108 39.8487 15.968 39.3447 15.688C38.8487 15.4 38.4567 15 38.1687 14.488C37.8887 13.968 37.7487 13.368 37.7487 12.688C37.7487 12.008 37.8847 11.412 38.1567 10.9C38.4367 10.38 38.8247 9.98 39.3207 9.7C39.8247 9.42 40.4007 9.28 41.0487 9.28C41.6727 9.28 42.2287 9.416 42.7167 9.688C43.2047 9.96 43.5847 10.344 43.8567 10.84C44.1287 11.328 44.2647 11.892 44.2647 12.532ZM42.8367 12.1C42.8287 11.596 42.6487 11.192 42.2967 10.888C41.9447 10.584 41.5087 10.432 40.9887 10.432C40.5167 10.432 40.1127 10.584 39.7767 10.888C39.4407 11.184 39.2407 11.588 39.1767 12.1H42.8367ZM46.1629 16.084C45.9149 16.084 45.7069 16 45.5389 15.832C45.3709 15.664 45.2869 15.456 45.2869 15.208C45.2869 14.96 45.3709 14.752 45.5389 14.584C45.7069 14.416 45.9149 14.332 46.1629 14.332C46.4029 14.332 46.6069 14.416 46.7749 14.584C46.9429 14.752 47.0269 14.96 47.0269 15.208C47.0269 15.456 46.9429 15.664 46.7749 15.832C46.6069 16 46.4029 16.084 46.1629 16.084ZM46.1629 11.044C45.9149 11.044 45.7069 10.96 45.5389 10.792C45.3709 10.624 45.2869 10.416 45.2869 10.168C45.2869 9.92 45.3709 9.712 45.5389 9.544C45.7069 9.376 45.9149 9.292 46.1629 9.292C46.4029 9.292 46.6069 9.376 46.7749 9.544C46.9429 9.712 47.0269 9.92 47.0269 10.168C47.0269 10.416 46.9429 10.624 46.7749 10.792C46.6069 10.96 46.4029 11.044 46.1629 11.044ZM56.1935 9.28C56.1055 8.912 55.9455 8.636 55.7135 8.452C55.4815 8.268 55.1575 8.176 54.7415 8.176C54.1095 8.176 53.6375 8.42 53.3255 8.908C53.0135 9.388 52.8495 10.188 52.8335 11.308C53.0415 10.956 53.3455 10.684 53.7455 10.492C54.1455 10.3 54.5775 10.204 55.0415 10.204C55.5695 10.204 56.0335 10.32 56.4335 10.552C56.8415 10.776 57.1575 11.104 57.3815 11.536C57.6135 11.968 57.7295 12.484 57.7295 13.084C57.7295 13.644 57.6175 14.144 57.3935 14.584C57.1775 15.024 56.8535 15.372 56.4215 15.628C55.9895 15.876 55.4695 16 54.8615 16C54.0375 16 53.3895 15.82 52.9175 15.46C52.4535 15.092 52.1255 14.576 51.9335 13.912C51.7495 13.248 51.6575 12.42 51.6575 11.428C51.6575 8.5 52.6895 7.036 54.7535 7.036C55.5535 7.036 56.1815 7.252 56.6375 7.684C57.1015 8.116 57.3735 8.648 57.4535 9.28H56.1935ZM54.7415 11.356C54.2535 11.356 53.8375 11.504 53.4935 11.8C53.1575 12.088 52.9895 12.508 52.9895 13.06C52.9895 13.612 53.1455 14.052 53.4575 14.38C53.7775 14.7 54.2215 14.86 54.7895 14.86C55.2935 14.86 55.6895 14.704 55.9775 14.392C56.2735 14.08 56.4215 13.664 56.4215 13.144C56.4215 12.6 56.2775 12.168 55.9895 11.848C55.7095 11.52 55.2935 11.356 54.7415 11.356Z" fill="#606060"/>
</g>
<defs>
<clipPath id="clip0_1374_63241">
<rect width="220" height="150" fill="white"/>
</clipPath>
</defs>
</svg>
