<svg width="220" height="150" viewBox="0 0 220 150" fill="none" xmlns="http://www.w3.org/2000/svg">
<g clip-path="url(#clip0_1374_63146)">
<rect width="220" height="150" fill="white"/>
<path d="M87.1513 106.303C109.05 106.303 126.803 88.5502 126.803 66.6514C126.803 44.7525 109.05 27 87.1513 27C65.2525 27 47.5 44.7525 47.5 66.6514C47.5 88.5502 65.2525 106.303 87.1513 106.303Z" fill="#F3F2F4"/>
<path d="M132.323 112.671L112.923 116.044L102.432 112.671L120.843 107.135L132.323 112.671Z" fill="#B3B3B3"/>
<path d="M58.6992 133.455L65.8172 140.98L108.781 133.455L95.9176 126.337L58.6992 133.455Z" fill="#B3B3B3"/>
<path d="M113.32 115.935L109.168 133.347L96.3047 126.229L102.83 112.562L113.32 115.935Z" fill="#4D4D4D"/>
<path d="M66.2053 140.87L63.6349 153.001H47.3984L59.0873 133.345L66.2053 140.87Z" fill="#4D4D4D"/>
<path d="M132.428 112.562L142.326 153.003H63.3418L65.9122 140.872L108.864 133.347L113.028 115.935L132.428 112.562Z" fill="#666666"/>
<path d="M107.66 112.975C107.788 113.428 108.276 113.696 108.753 113.719C109.23 113.742 109.683 113.591 110.137 113.486C112.882 112.87 115.72 114.045 118.534 113.952C119.023 113.94 119.616 113.8 119.732 113.323C119.86 112.788 119.279 112.393 118.79 112.137C117.802 111.637 117.046 110.834 116.092 110.358C115.068 109.858 113.766 110.032 112.905 109.195C111.847 108.171 112.231 106.81 110.381 106.589C109.114 106.438 108.823 107.38 108.613 108.415C108.358 109.66 107.346 111.753 107.671 112.963L107.66 112.975Z" fill="#3F3D56"/>
<path d="M57.0625 104.276C57.8767 104.276 58.6675 103.927 59.4584 103.706C62.8081 102.741 66.5415 104.102 68.7979 107.114C69.6121 108.196 70.2983 109.51 71.4497 110.022C72.4732 110.476 73.6479 110.162 74.6365 109.592C75.6252 109.022 76.5091 108.208 77.4744 107.58C79.3935 106.347 81.6615 105.881 83.8016 106.3C84.4878 106.428 85.174 106.649 85.8602 106.498C86.9767 106.242 87.7676 105.067 88.3957 103.939C89.8961 101.217 91.0591 98.2749 92.0826 95.2626C92.7223 93.3668 93.3155 91.4361 93.5714 89.4239C93.9319 86.7372 93.6993 84.0156 93.6412 81.3057C93.5132 75.06 94.3041 68.6863 93.0945 62.6151C92.8037 61.1612 92.3967 59.7307 91.6988 58.4978C91.4778 58.1256 91.222 57.7534 90.873 57.5673C89.6169 56.9277 87.1512 57.4278 85.802 57.579C84.0109 57.7767 82.2198 58.3001 80.7078 59.498C79.7308 60.2773 78.9283 61.2892 78.1258 62.3011C77.3698 63.2431 76.323 64.2318 75.7996 65.3716C75.4856 66.0578 75.4507 66.8603 75.1832 67.5698C74.3109 69.8959 73.2292 72.257 72.1825 74.4901C69.1468 80.9451 65.9949 87.3304 62.7267 93.6343C60.8774 97.2049 58.9816 100.752 57.0625 104.265V104.276Z" fill="#9E1667"/>
<path d="M108.933 92.1245C108.968 93.1713 108.596 94.1832 108.316 95.1834C107.688 97.4631 107.537 99.8706 107.863 102.22C108.188 104.558 108.979 106.954 108.305 109.222C109.794 109.094 111.259 108.838 112.701 108.442C112.957 103.79 113.678 99.1728 114.841 94.6717C115.307 92.8922 115.83 91.101 115.853 89.2634C115.853 88.0887 115.655 86.9256 115.458 85.7742C115.4 85.4485 115.341 85.1112 115.167 84.8204C114.795 84.1808 113.992 83.9598 113.259 83.8667C111.433 83.6341 109.584 83.9132 107.758 84.0993C104.676 84.4017 101.571 84.425 98.4768 84.1459C98.4536 85.0531 97.9534 85.8672 97.5115 86.6697C96.3484 88.7633 95.4994 91.0429 95.0225 93.3923C94.8829 94.0785 94.662 94.7531 94.5224 95.4277C94.3363 96.3232 94.6271 96.1255 95.511 95.9278C97.0346 95.5905 98.5234 95.1369 100.012 94.6601C102.955 93.718 105.874 92.6596 108.933 92.1245Z" fill="#544660"/>
<path d="M84.5931 132.45C84.8025 133.322 85.5585 133.997 86.4192 134.276C87.2798 134.555 88.2219 134.45 89.071 134.183C89.3617 134.09 89.6641 133.962 89.8735 133.741C90.1294 133.473 90.2224 133.101 90.3038 132.741C90.6411 131.205 90.7923 129.624 90.7458 128.042C90.7458 127.693 90.6993 127.309 90.455 127.053C89.4199 126.007 86.9426 126.844 85.9539 127.646C84.8607 128.53 84.2791 131.171 84.5815 132.45H84.5931Z" fill="#3F3D56"/>
<path d="M87.4725 94.7748C87.6004 98.8572 87.4144 102.963 86.9142 107.022C86.5769 109.697 86.1117 112.349 85.8558 115.024C85.5185 118.536 86.0419 122.212 85.5767 125.678C85.4488 126.608 84.7277 127.515 85.4488 128.271C86.1815 129.051 88.1471 128.806 89.0776 128.702C90.8338 128.504 90.4965 128.353 90.7059 126.852C91.2176 123.328 90.985 120.141 91.9736 116.722C93.1599 112.57 94.3579 108.418 95.5442 104.266C96.1374 102.195 97.126 100.171 97.6959 98.0082C98.3356 95.589 98.8474 93.1349 99.2312 90.6575C99.4871 89.0176 100.732 86.3077 99.5336 84.8306C98.7776 83.8885 97.3819 83.8419 96.1723 83.8768C94.0322 83.935 91.8922 83.9931 89.7405 84.0397C85.8442 84.1443 87.205 89.8434 87.3562 92.5185C87.4027 93.2745 87.4376 94.0188 87.4609 94.7748H87.4725Z" fill="#544660"/>
<path d="M93.4972 60.8362C94.3463 63.3368 95.6024 65.7909 95.742 68.466C95.9862 72.6996 96.4049 76.9099 97.0097 81.1086C97.2075 82.4578 97.4168 83.7953 97.8471 85.0863C97.9286 85.3422 98.0332 85.5981 98.2193 85.7725C98.3822 85.9237 98.6148 86.0051 98.8358 86.04C99.6034 86.168 100.406 85.8656 100.987 85.3422C101.569 84.8188 101.941 84.0977 102.162 83.3533C102.372 82.6555 102.453 81.9227 102.511 81.19C102.662 79.3523 102.686 77.4914 102.569 75.6538C102.499 74.5605 102.395 73.4672 102.278 72.3739C102.151 71.1178 102.023 69.8617 101.895 68.6055C101.743 67.175 101.592 65.7095 101.011 64.3836C100.429 63.0577 100.197 61.4526 99.8593 59.9988C99.7197 59.4056 99.5685 58.7892 99.2312 58.2775C98.7776 57.5912 98.0332 57.1376 97.2423 56.905C96.4515 56.6724 95.6257 56.6259 94.7999 56.6143C94.0672 56.6143 92.8925 56.6608 92.7296 57.5215C92.5435 58.5333 93.16 59.9058 93.4856 60.8478L93.4972 60.8362Z" fill="#A8AAB4"/>
<path d="M95.1426 57.6948C95.2821 57.939 96.3289 58.8811 96.3289 58.8811V65.0687L99.4925 63.5218L97.3175 58.7299L96.9453 56.2061L95.1426 57.6948Z" fill="#1A1A1A"/>
<path d="M87.5548 78.6927C87.1593 81.0653 86.2405 83.3101 85.6706 85.7176C87.2873 85.6827 88.7993 86.4155 90.3345 86.9272C92.4629 87.6367 94.7193 87.9158 96.9524 87.7414C97.2316 87.7181 97.534 87.6832 97.7549 87.5088C97.9294 87.3692 98.0341 87.1482 98.1155 86.9505C100.279 81.9842 100.523 76.2851 99.2669 71.0164C98.0108 65.7476 95.3125 60.8744 91.8698 56.6873C91.5441 56.2919 91.1836 55.8732 90.7067 55.6754C90.2764 55.501 89.7995 55.5126 89.3459 55.5475C87.6129 55.6754 85.7288 55.8383 84.2749 56.885C83.5654 57.3968 82.9257 58.176 82.5303 58.9553C82.0651 59.8509 82.4024 60.7115 82.7048 61.642C83.4142 63.8286 84.5192 65.864 85.1588 68.0389C85.8916 70.493 87.3571 72.5516 87.6595 75.1802C87.799 76.4014 87.7176 77.5645 87.5315 78.6927H87.5548Z" fill="#40324C"/>
<path d="M92.0448 70.3507C92.0797 70.5368 92.1146 70.7112 92.2309 70.8624C92.4519 71.1416 92.8589 71.1997 93.2079 71.1183C93.5568 71.0369 93.8708 70.8508 94.2081 70.7461C95.2781 70.3856 96.4994 70.7461 97.5694 70.3972C97.802 70.3158 98.0462 70.1995 98.1858 69.9901C98.465 69.583 98.2556 68.9899 97.8602 68.6875C97.4647 68.3851 96.9413 68.3269 96.4528 68.3037C95.3247 68.2455 94.1848 68.3618 93.0916 68.6409C91.9983 68.9201 91.8703 69.2923 92.0448 70.3507Z" fill="#A1616A"/>
<path d="M97.9079 70.2006C97.9079 70.2006 97.9079 70.3169 97.9428 70.3518C97.9777 70.3983 98.0359 70.41 98.0824 70.4332C98.3732 70.5147 98.7104 70.4332 98.9431 70.2471C98.8733 69.7703 98.7919 69.2818 98.7221 68.8049C98.6639 68.4328 98.3034 67.6651 97.8847 68.2118C97.5939 68.584 97.8847 69.7587 97.8963 70.2006H97.9079Z" fill="#BBBDC8"/>
<path d="M98.3535 58.1878C98.528 58.8973 99.3072 59.4439 99.4003 60.1301C99.6329 61.7817 99.6794 63.4449 99.7259 65.1197C99.9353 72.3773 100.145 79.6465 99.7492 86.9041C101.424 85.8922 103.087 84.8803 104.762 83.8685C104.89 83.787 105.018 83.7056 105.088 83.5777C105.157 83.4498 105.157 83.2869 105.146 83.1357C105.03 80.6235 104.274 78.1927 103.645 75.7851C103.378 74.75 103.017 74.0289 103.006 72.9123C102.994 71.6213 103.157 70.3419 103.308 69.0625C103.506 67.4924 103.704 65.9339 103.901 64.3637C104.122 62.6424 104.215 61.1071 103.343 59.5718C102.959 58.8856 102.715 58.3623 102.064 57.8621C101.482 57.4202 100.819 57.0829 100.249 56.6176C99.691 56.1524 98.0278 56.7456 97.3184 56.6176C97.5626 57.3504 98.1441 57.3969 98.3535 58.1878Z" fill="#40324C"/>
<path d="M102.164 57.3225C102.188 57.6366 102.432 57.9157 102.537 58.2065C102.63 58.474 102.595 58.7647 102.63 59.0323C102.734 59.9162 102.769 60.8001 102.781 61.6841C102.781 62.1958 102.804 62.7076 102.816 63.2077C102.816 63.2658 102.816 63.3356 102.804 63.3938C102.781 63.4752 102.711 63.545 102.653 63.6031C101.49 64.7197 100.013 65.4292 98.5939 66.1852C98.5357 66.2201 98.4659 66.2549 98.4194 66.3131C98.3496 66.4061 98.3496 66.5225 98.3612 66.6388C98.3961 67.7902 98.4892 68.9533 98.6404 70.0931C98.6404 70.128 98.6404 70.1745 98.6753 70.1978C98.6985 70.2327 98.745 70.2443 98.7799 70.2559C99.6406 70.5351 100.583 70.4653 101.49 70.3839C102.816 70.2675 104.153 70.1396 105.444 69.814C106.735 69.4883 108.003 68.9649 109.015 68.1042C109.166 67.9763 109.317 67.8367 109.422 67.6739C110.015 66.7783 109.608 65.6501 109.12 64.8244C108.817 64.3242 108.526 63.8241 108.224 63.3356C107.98 62.9286 107.736 62.5098 107.422 62.1493C107.247 61.9399 107.049 61.7538 106.875 61.5561C106.689 61.3468 106.503 61.1258 106.328 60.9048C106.003 60.4977 105.596 60.0907 105.328 59.6371C105.119 59.2765 104.944 59.0439 104.619 58.7647C104.246 58.4391 103.863 58.1367 103.444 57.8692C103.06 57.6249 102.606 57.3807 102.188 57.2295C102.188 57.2644 102.188 57.2993 102.188 57.3342L102.164 57.3225Z" fill="#2F253A"/>
<path d="M106.688 65.3057C107.037 65.3057 107.456 65.3871 107.677 65.108C107.77 64.9801 107.793 64.8172 107.793 64.666C107.793 64.3869 107.7 64.0729 107.467 63.9217C107.293 63.8054 107.06 63.7937 106.839 63.7937C105.932 63.7705 105.025 63.7588 104.141 63.9566C104.024 63.9798 103.897 64.0263 103.803 64.1078C103.617 64.2822 103.664 64.5846 103.652 64.8405C103.617 65.6081 102.92 66.7828 104.257 66.2362C105.06 65.9105 105.781 65.2825 106.688 65.3057Z" fill="#A1616A"/>
<path d="M104.345 63.7439C104.589 64.2208 104.635 64.7907 104.554 65.3141C104.473 65.8375 104.287 66.3609 104.1 66.861C104.089 66.8959 104.077 66.9308 104.054 66.954C104.019 66.9889 103.972 66.9889 103.926 67.0005C103.484 67.0703 103.054 67.2215 102.658 67.4309C102.74 66.8377 102.821 66.2562 102.902 65.663C102.972 65.1164 102.693 64.279 102.972 63.8137C103.298 63.2787 104.042 63.1508 104.356 63.7439H104.345Z" fill="#BBBDC8"/>
<path d="M97.4998 55.0486C97.9185 55.0835 98.2907 55.3278 98.6745 55.4906C99.4072 55.793 100.221 55.8046 101.001 55.9558C101.78 56.107 102.606 56.4559 102.931 57.177C102.99 57.305 103.036 57.4562 103.001 57.5958C102.931 57.8865 102.594 58.0028 102.315 58.0726C102.082 58.1308 101.838 58.2006 101.594 58.1889C101.163 58.1773 100.768 57.9447 100.384 57.7353C99.3026 57.1422 98.1744 56.6188 96.9997 56.2117C96.6042 56.0721 95.7087 55.9791 96.0576 55.351C96.2553 55.0137 97.1741 55.0137 97.4882 55.037L97.4998 55.0486Z" fill="#AF1873"/>
<path d="M102.092 63.941C102.778 63.7898 102.848 63.941 102.999 64.6505C103.15 65.3599 103.255 66.1857 102.906 66.8719C102.708 67.2557 102.383 67.5698 102.069 67.8722C101.58 68.3374 101.161 68.8259 100.533 69.0818C99.9402 69.3144 99.3237 69.4772 98.7073 69.6168C97.4745 69.8959 96.2067 70.0471 94.9506 70.1518C93.7643 70.2448 92.5779 70.2448 91.38 70.2448C90.496 70.2448 89.6005 70.2448 88.763 69.9657C87.4255 69.5354 86.3904 68.477 85.5413 67.3488C84.0759 65.3948 83.0058 63.1501 82.4243 60.7774C82.2964 60.2657 82.2033 59.719 82.4127 59.2305C82.5522 58.9165 82.8081 58.6606 83.0756 58.4513C83.82 57.8581 84.7155 57.4627 85.6576 57.2998C85.9484 57.2533 86.2624 57.2301 86.5299 57.3464C86.8091 57.4743 87.0068 57.7418 87.1813 57.9977C88.0768 59.312 88.891 60.6728 89.6121 62.0917C89.7633 62.3825 89.9145 62.6965 90.182 62.8942C90.4146 63.0687 90.7054 63.1501 90.9845 63.2199C91.9033 63.4409 92.8454 63.6153 93.741 63.8828C94.1946 64.0224 94.6366 64.2666 95.1018 64.3597C95.7764 64.4876 96.4742 64.2783 97.1372 64.1503C98.7771 63.8479 100.498 64.2666 102.103 63.9177L102.092 63.941Z" fill="#2F253A"/>
<path d="M62.7299 99.6002C62.9741 99.4839 63.23 99.3792 63.4975 99.2978C66.6495 98.2859 69.3362 94.8316 71.1273 91.8658C73.1859 88.458 74.57 84.6315 75.9424 80.8282C76.4658 79.386 76.9776 77.9438 77.3148 76.4434C77.594 75.1524 77.7335 73.8381 77.9894 72.5355C78.2569 71.1631 78.6291 69.8255 79.0129 68.4764C80.0946 65.0802 80.1411 60.486 83.0953 58.2529C85.1889 56.6712 87.6546 57.2992 89.9226 56.4385C90.632 56.171 90.8298 54.659 90.3762 54.0659C89.7481 53.2285 87.5034 54.0426 86.5962 54.1705C85.2237 54.3566 83.8397 54.5544 82.5022 54.9033C81.7927 55.0894 81.0483 55.3453 80.5482 55.9268C80.3737 56.1361 80.2342 56.3804 80.083 56.613C79.0013 58.439 77.5358 60.0324 76.5356 61.8934C75.4772 63.8473 74.791 66.0921 73.9419 68.1623C70.9994 75.3617 67.0565 82.0145 63.1253 88.6208C61.2993 91.6913 59.4151 94.8316 56.6703 96.9251C55.9608 97.4718 55.1932 97.937 54.5302 98.5534C53.7742 99.2513 53.1694 100.124 52.6809 101.066C50.8782 104.555 50.8084 109.044 52.5065 112.603C52.2273 112.01 54.3092 108.788 54.6465 108.219C55.3909 106.928 56.2283 105.357 57.2983 104.369C59.043 102.764 60.5898 100.6 62.7299 99.5769V99.6002Z" fill="#AF1873"/>
<path d="M90.5977 54.2409C92.54 55.1598 94.5637 56.1251 95.8896 57.8232C96.0176 57.9977 96.2037 58.1838 96.413 58.1256C96.541 58.0907 96.6224 57.9628 96.6689 57.8465C96.8783 57.3812 96.8899 56.8578 96.9015 56.3577C96.9131 55.3459 96.9131 54.3107 96.6922 53.3221C96.4712 52.3335 95.9827 51.3681 95.1918 50.7401C94.5288 50.2167 93.6798 49.9492 93.0517 49.3909C91.8887 48.3674 91.7607 49.0653 91.6909 50.2283C91.6677 50.5656 90.8884 54.3689 90.6093 54.2409H90.5977Z" fill="#91575F"/>
<path d="M96.7152 53.5908C97.5294 53.9514 98.5645 54.1956 99.2507 53.6373C99.7043 53.2651 99.8788 52.6603 99.9835 52.0904C100.484 49.5549 100.379 46.8915 99.6927 44.4025C99.5764 43.9954 99.4485 43.5767 99.1693 43.2743C98.8669 42.937 98.4249 42.7626 97.9946 42.6346C95.8313 41.9833 91.2372 42.0647 90.0276 44.5188C89.0971 46.4146 91.8652 49.8341 93.0864 51.0786C94.1216 52.137 95.3544 52.9976 96.7036 53.6024L96.7152 53.5908Z" fill="#A1616A"/>
<path d="M91.3902 49.7766C91.2623 49.9511 91.0064 49.7301 90.9134 49.5323C90.6808 49.0555 90.4481 48.5786 90.2155 48.0901C89.5642 46.7526 88.9129 45.2406 89.3316 43.81C89.8317 42.1352 91.6345 41.2047 93.3558 40.9023C94.8097 40.6465 96.2635 40.7511 97.6708 40.2045C98.0663 40.0533 98.485 39.8556 98.9037 39.9137C99.0665 39.937 99.2293 39.9951 99.3689 40.0766C100.102 40.4487 100.637 41.1931 100.753 42.0073C100.927 43.1587 100.474 44.0775 99.3457 44.1822C98.0198 44.2985 96.659 44.8917 95.3447 44.8684C95.1004 44.8684 94.8446 44.8452 94.6352 44.9498C93.2046 45.636 94.926 47.8226 93.7513 48.7182C93.6233 48.4507 93.5535 48.1367 93.4489 47.8459C93.3326 47.5319 93.1581 47.2295 92.8673 47.0783C92.2276 46.741 91.5647 47.3225 91.3902 47.8924C91.239 48.346 91.6461 49.4393 91.3902 49.7766Z" fill="#333333"/>
<path d="M90.0512 54.3256C89.9815 54.4302 89.9233 54.5465 89.8535 54.6629C89.9931 54.4302 91.761 56.6982 91.8773 56.8494C92.5518 57.7683 93.1915 58.722 93.7847 59.699C93.5637 59.3384 95.5061 57.7566 95.7852 57.524C95.8899 57.4426 96.0062 57.3496 96.1457 57.3263C96.2853 57.303 96.4249 57.3496 96.5528 57.3961C97.2623 57.652 97.9834 57.9078 98.6929 58.1637C98.123 57.1518 97.4949 56.1749 96.7971 55.2444C96.6226 55.5119 96.6808 55.8608 96.5644 56.1516C96.3784 56.6168 95.7736 56.7913 95.2851 56.675C94.7966 56.5587 94.4011 56.2097 94.0173 55.8841C93.2497 55.2095 92.4937 54.5349 91.7144 53.872C90.8538 53.1392 90.4932 53.5812 90.0512 54.3139V54.3256Z" fill="#BBBDC8"/>
<rect x="0.332031" width="66" height="24" rx="12" fill="#F0F0F0"/>
<path d="M11.98 16.084C11.42 16.084 10.916 15.988 10.468 15.796C10.02 15.596 9.66803 15.316 9.41203 14.956C9.15603 14.596 9.02803 14.176 9.02803 13.696H10.492C10.524 14.056 10.664 14.352 10.912 14.584C11.168 14.816 11.524 14.932 11.98 14.932C12.452 14.932 12.82 14.82 13.084 14.596C13.348 14.364 13.48 14.068 13.48 13.708C13.48 13.428 13.396 13.2 13.228 13.024C13.068 12.848 12.864 12.712 12.616 12.616C12.376 12.52 12.04 12.416 11.608 12.304C11.064 12.16 10.62 12.016 10.276 11.872C9.94003 11.72 9.65203 11.488 9.41203 11.176C9.17203 10.864 9.05203 10.448 9.05203 9.928C9.05203 9.448 9.17203 9.028 9.41203 8.668C9.65203 8.308 9.98803 8.032 10.42 7.84C10.852 7.648 11.352 7.552 11.92 7.552C12.728 7.552 13.388 7.756 13.9 8.164C14.42 8.564 14.708 9.116 14.764 9.82H13.252C13.228 9.516 13.084 9.256 12.82 9.04C12.556 8.824 12.208 8.716 11.776 8.716C11.384 8.716 11.064 8.816 10.816 9.016C10.568 9.216 10.444 9.504 10.444 9.88C10.444 10.136 10.52 10.348 10.672 10.516C10.832 10.676 11.032 10.804 11.272 10.9C11.512 10.996 11.84 11.1 12.256 11.212C12.808 11.364 13.256 11.516 13.6 11.668C13.952 11.82 14.248 12.056 14.488 12.376C14.736 12.688 14.86 13.108 14.86 13.636C14.86 14.06 14.744 14.46 14.512 14.836C14.288 15.212 13.956 15.516 13.516 15.748C13.084 15.972 12.572 16.084 11.98 16.084ZM18.0702 10.504V14.164C18.0702 14.412 18.1262 14.592 18.2382 14.704C18.3582 14.808 18.5582 14.86 18.8382 14.86H19.6782V16H18.5982C17.9822 16 17.5102 15.856 17.1822 15.568C16.8542 15.28 16.6902 14.812 16.6902 14.164V10.504H15.9102V9.388H16.6902V7.744H18.0702V9.388H19.6782V10.504H18.0702ZM20.4831 12.664C20.4831 12 20.6191 11.412 20.8911 10.9C21.1711 10.388 21.5471 9.992 22.0191 9.712C22.4991 9.424 23.0271 9.28 23.6031 9.28C24.1231 9.28 24.5751 9.384 24.9591 9.592C25.3511 9.792 25.6631 10.044 25.8951 10.348V9.388H27.2751V16H25.8951V15.016C25.6631 15.328 25.3471 15.588 24.9471 15.796C24.5471 16.004 24.0911 16.108 23.5791 16.108C23.0111 16.108 22.4911 15.964 22.0191 15.676C21.5471 15.38 21.1711 14.972 20.8911 14.452C20.6191 13.924 20.4831 13.328 20.4831 12.664ZM25.8951 12.688C25.8951 12.232 25.7991 11.836 25.6071 11.5C25.4231 11.164 25.1791 10.908 24.8751 10.732C24.5711 10.556 24.2431 10.468 23.8911 10.468C23.5391 10.468 23.2111 10.556 22.9071 10.732C22.6031 10.9 22.3551 11.152 22.1631 11.488C21.9791 11.816 21.8871 12.208 21.8871 12.664C21.8871 13.12 21.9791 13.52 22.1631 13.864C22.3551 14.208 22.6031 14.472 22.9071 14.656C23.2191 14.832 23.5471 14.92 23.8911 14.92C24.2431 14.92 24.5711 14.832 24.8751 14.656C25.1791 14.48 25.4231 14.224 25.6071 13.888C25.7991 13.544 25.8951 13.144 25.8951 12.688ZM31.7359 9.28C32.2479 9.28 32.6999 9.384 33.0919 9.592C33.4919 9.792 33.8039 10.044 34.0279 10.348V9.388H35.4079V16.108C35.4079 16.716 35.2799 17.256 35.0239 17.728C34.7679 18.208 34.3959 18.584 33.9079 18.856C33.4279 19.128 32.8519 19.264 32.1799 19.264C31.2839 19.264 30.5399 19.052 29.9479 18.628C29.3559 18.212 29.0199 17.644 28.9399 16.924H30.2959C30.3999 17.268 30.6199 17.544 30.9559 17.752C31.2999 17.968 31.7079 18.076 32.1799 18.076C32.7319 18.076 33.1759 17.908 33.5119 17.572C33.8559 17.236 34.0279 16.748 34.0279 16.108V15.004C33.7959 15.316 33.4799 15.58 33.0799 15.796C32.6879 16.004 32.2399 16.108 31.7359 16.108C31.1599 16.108 30.6319 15.964 30.1519 15.676C29.6799 15.38 29.3039 14.972 29.0239 14.452C28.7519 13.924 28.6159 13.328 28.6159 12.664C28.6159 12 28.7519 11.412 29.0239 10.9C29.3039 10.388 29.6799 9.992 30.1519 9.712C30.6319 9.424 31.1599 9.28 31.7359 9.28ZM34.0279 12.688C34.0279 12.232 33.9319 11.836 33.7399 11.5C33.5559 11.164 33.3119 10.908 33.0079 10.732C32.7039 10.556 32.3759 10.468 32.0239 10.468C31.6719 10.468 31.3439 10.556 31.0399 10.732C30.7359 10.9 30.4879 11.152 30.2959 11.488C30.1119 11.816 30.0199 12.208 30.0199 12.664C30.0199 13.12 30.1119 13.52 30.2959 13.864C30.4879 14.208 30.7359 14.472 31.0399 14.656C31.3519 14.832 31.6799 14.92 32.0239 14.92C32.3759 14.92 32.7039 14.832 33.0079 14.656C33.3119 14.48 33.5559 14.224 33.7399 13.888C33.9319 13.544 34.0279 13.144 34.0279 12.688ZM43.2647 12.532C43.2647 12.78 43.2487 13.004 43.2167 13.204H38.1647C38.2047 13.732 38.4007 14.156 38.7527 14.476C39.1047 14.796 39.5367 14.956 40.0487 14.956C40.7847 14.956 41.3047 14.648 41.6087 14.032H43.0847C42.8847 14.64 42.5207 15.14 41.9927 15.532C41.4727 15.916 40.8247 16.108 40.0487 16.108C39.4167 16.108 38.8487 15.968 38.3447 15.688C37.8487 15.4 37.4567 15 37.1687 14.488C36.8887 13.968 36.7487 13.368 36.7487 12.688C36.7487 12.008 36.8847 11.412 37.1567 10.9C37.4367 10.38 37.8247 9.98 38.3207 9.7C38.8247 9.42 39.4007 9.28 40.0487 9.28C40.6727 9.28 41.2287 9.416 41.7167 9.688C42.2047 9.96 42.5847 10.344 42.8567 10.84C43.1287 11.328 43.2647 11.892 43.2647 12.532ZM41.8367 12.1C41.8287 11.596 41.6487 11.192 41.2967 10.888C40.9447 10.584 40.5087 10.432 39.9887 10.432C39.5167 10.432 39.1127 10.584 38.7767 10.888C38.4407 11.184 38.2407 11.588 38.1767 12.1H41.8367ZM45.1629 16.084C44.9149 16.084 44.7069 16 44.5389 15.832C44.3709 15.664 44.2869 15.456 44.2869 15.208C44.2869 14.96 44.3709 14.752 44.5389 14.584C44.7069 14.416 44.9149 14.332 45.1629 14.332C45.4029 14.332 45.6069 14.416 45.7749 14.584C45.9429 14.752 46.0269 14.96 46.0269 15.208C46.0269 15.456 45.9429 15.664 45.7749 15.832C45.6069 16 45.4029 16.084 45.1629 16.084ZM45.1629 11.044C44.9149 11.044 44.7069 10.96 44.5389 10.792C44.3709 10.624 44.2869 10.416 44.2869 10.168C44.2869 9.92 44.3709 9.712 44.5389 9.544C44.7069 9.376 44.9149 9.292 45.1629 9.292C45.4029 9.292 45.6069 9.376 45.7749 9.544C45.9429 9.712 46.0269 9.92 46.0269 10.168C46.0269 10.416 45.9429 10.624 45.7749 10.792C45.6069 10.96 45.4029 11.044 45.1629 11.044ZM56.1295 8.428H52.1095V10.816C52.2775 10.592 52.5255 10.404 52.8535 10.252C53.1895 10.1 53.5455 10.024 53.9215 10.024C54.5935 10.024 55.1375 10.168 55.5535 10.456C55.9775 10.744 56.2775 11.108 56.4535 11.548C56.6375 11.988 56.7295 12.452 56.7295 12.94C56.7295 13.532 56.6135 14.06 56.3815 14.524C56.1575 14.98 55.8175 15.34 55.3615 15.604C54.9135 15.868 54.3615 16 53.7055 16C52.8335 16 52.1335 15.784 51.6055 15.352C51.0775 14.92 50.7615 14.348 50.6575 13.636H51.9895C52.0775 14.012 52.2735 14.312 52.5775 14.536C52.8815 14.752 53.2615 14.86 53.7175 14.86C54.2855 14.86 54.7095 14.688 54.9895 14.344C55.2775 14 55.4215 13.544 55.4215 12.976C55.4215 12.4 55.2775 11.96 54.9895 11.656C54.7015 11.344 54.2775 11.188 53.7175 11.188C53.3255 11.188 52.9935 11.288 52.7215 11.488C52.4575 11.68 52.2655 11.944 52.1455 12.28H50.8495V7.228H56.1295V8.428Z" fill="#606060"/>
</g>
<defs>
<clipPath id="clip0_1374_63146">
<rect width="220" height="150" fill="white"/>
</clipPath>
</defs>
</svg>
