<svg width="220" height="150" viewBox="0 0 220 150" fill="none" xmlns="http://www.w3.org/2000/svg">
<g clip-path="url(#clip0_1374_62925)">
<rect width="220" height="150" fill="white"/>
<g clip-path="url(#clip1_1374_62925)">
<path opacity="0.2" d="M67.1703 150C94.9995 150 117.559 147.727 117.559 144.923C117.559 142.119 94.9995 139.846 67.1703 139.846C39.3412 139.846 16.7812 142.119 16.7812 144.923C16.7812 147.727 39.3412 150 67.1703 150Z" fill="#4D4D4D"/>
<path d="M55.9016 137.456C55.0625 137.977 54.3827 138.656 54.1172 139.75C55.0519 141.227 57.0381 141.577 58.419 142.65C59.7148 143.648 60.5327 145.305 62.0728 145.837C62.4446 144.233 63.8147 142.703 63.1137 140.982C62.4658 139.389 60.4264 137.838 59.1094 136.819C58.8651 136.628 58.5889 136.436 58.2809 136.426C58.0684 136.426 57.8666 136.511 57.6648 136.596C57.0594 136.851 56.4539 137.116 55.9122 137.456H55.9016Z" fill="#333333"/>
<path d="M59.8323 138.688C59.9491 138.784 60.0659 138.88 60.1828 138.964C60.6607 139.315 62.4558 139.804 62.4558 138.529C62.4558 138.21 63.8897 137.042 64.134 136.734C64.697 136.065 65.2174 135.353 65.7166 134.62C66.6195 133.303 67.448 131.933 68.0959 130.478C69.5192 127.291 72.2277 124.413 74.3202 121.587C74.522 121.322 74.7132 121.046 74.8194 120.738C74.9256 120.408 74.9362 120.058 74.9362 119.718C74.9362 117.328 74.9469 114.938 74.5963 112.58C74.3096 110.658 73.7785 108.767 73.2474 106.898C72.7588 105.166 71.8984 103.223 71.8878 101.417C71.8878 100.546 72.3764 98.4535 70.9531 98.3367C70.199 98.273 69.4342 98.2199 68.6801 98.1668C67.6285 98.0924 66.407 98.103 65.7379 98.9209C65.2599 99.5051 65.228 100.334 65.228 101.088C65.2493 106.399 65.876 111.699 65.5998 116.999C65.4299 120.281 64.8775 123.574 63.6773 126.643C62.3814 129.915 60.2359 131.986 58.0797 134.631C57.9097 134.843 57.7185 135.077 57.6761 135.353C57.6017 135.714 57.7717 136.086 57.9628 136.405C58.4514 137.244 59.0887 138.051 59.8429 138.688H59.8323Z" fill="#9E1667"/>
<path d="M74.086 71.5593C74.1073 71.6124 74.171 71.6443 74.2347 71.6655C74.3197 71.6974 74.4259 71.6655 74.5109 71.6443C74.9464 71.5274 75.3819 71.4 75.8173 71.2831C75.966 71.2406 76.1148 71.1982 76.221 71.0813C76.3059 70.9857 76.3484 70.8476 76.3803 70.7202C76.8476 68.8933 77.3256 66.9707 76.8476 65.1544C76.8158 65.0482 76.7839 64.9314 76.6989 64.857C76.6033 64.7827 76.4759 64.7721 76.359 64.7614C75.5412 64.7083 74.7233 64.6552 73.9267 64.8464C72.7477 65.1226 71.4306 66.1423 71.9936 67.4381C72.5565 68.7339 73.4381 70.0298 74.0966 71.5487L74.086 71.5593Z" fill="#91575F"/>
<path d="M69.1476 75.946C69.1476 75.946 69.2538 75.9885 69.2963 76.0097C69.9867 76.3071 70.6771 76.6151 71.3675 76.9125C71.6755 77.0506 71.9942 77.1887 72.281 77.3586C72.5465 77.518 73.46 78.2296 73.7999 77.9747C74.0335 77.7941 73.8317 77.0294 73.8317 76.7638C73.8317 76.1265 73.7786 75.4999 73.7786 74.8626C73.7786 73.4393 73.7361 72.0372 73.7468 70.6245C73.7468 70.6245 75.8605 70.051 76.0198 70.1041C76.7739 70.3377 76.6677 71.931 76.7527 72.5152C76.9864 73.4924 77.0501 74.5545 77.22 75.553C77.4218 76.7213 77.5281 77.9003 77.5387 79.09C77.5387 80.0034 77.4643 81.0125 76.827 81.6817C76.4234 82.1171 75.8498 82.3402 75.2975 82.542C74.9258 82.6801 74.554 82.8075 74.161 82.85C73.7892 82.8925 73.4069 82.85 73.0351 82.8182C72.2066 82.7332 71.325 82.8182 70.6558 82.2658C69.8911 81.6392 69.7636 80.6089 69.4769 79.6954C69.1582 78.6545 68.5528 77.6454 68.4678 76.5514C68.4572 76.3496 68.4678 76.1159 68.6271 75.9885C68.7758 75.8716 68.9776 75.9035 69.1582 75.9672L69.1476 75.946Z" fill="#4B3B56"/>
<path d="M130.561 67.417C106.047 66.5247 81.4575 65.6325 57.0171 67.417C47.0115 68.1499 36.9953 68.7022 26.9685 69.0421C21.7851 69.2226 16.6124 69.3395 11.429 69.3926C8.53993 69.4245 5.96949 69.4245 3.12289 69.69C2.2944 69.7643 1.45529 69.9662 0.817992 70.4123C-0.870849 71.6231 0.35064 72.9508 2.01824 73.0252C4.16381 73.1314 7.09538 72.4304 9.34717 72.2923C15.0191 71.9418 20.6805 71.6125 26.3524 71.3151C41.2546 70.5185 56.1355 69.9874 70.9846 68.819C75.9024 68.5535 80.8308 68.6066 85.7593 68.6491C91.3675 68.7128 96.9651 68.7659 102.573 68.8296C112.154 68.9252 121.756 69.0315 131.273 69.9555C132.495 70.0724 134.098 70.0193 134.491 69.0527C134.778 68.3517 134.151 67.5869 133.344 67.2789C132.537 66.9709 131.443 67.4488 130.561 67.417Z" fill="#4D4D4D"/>
<path d="M66.7464 73.3432C65.2806 72.6527 63.8573 71.8561 62.4977 70.9745C62.1578 70.7515 61.7967 70.4966 61.6268 70.1248C61.4993 69.8486 61.4887 69.53 61.4887 69.2326C61.4781 67.6181 61.6799 66.0142 62.0835 64.4528C62.1366 64.2616 62.2003 64.0598 62.3703 63.9749C62.4659 63.9218 62.5827 63.9218 62.6889 63.9218C63.1988 63.9218 63.7192 63.9218 64.2291 63.9111C64.8026 63.9111 65.4187 63.9111 65.9073 64.2298C66.6827 64.7502 67.8617 67.087 67.8404 67.9792C67.8298 68.6059 65.8436 72.9289 66.7464 73.3432Z" fill="#91575F"/>
<path d="M60.3203 147.101C60.3203 147.345 60.3416 147.61 60.4796 147.812C60.7452 148.195 61.2975 148.205 61.7649 148.173C63.8786 148.014 66.0029 147.738 68.0954 148.078C68.8707 148.205 69.6461 148.418 70.4321 148.45C72.0785 148.524 73.6505 147.844 75.1481 147.186C75.4243 146.623 75.0207 145.932 74.479 145.624C73.9373 145.316 73.2893 145.263 72.6839 145.104C71.1544 144.7 69.901 143.649 68.6158 142.714C68.0422 142.3 67.4368 141.896 66.7464 141.747C65.8861 141.556 64.9938 141.779 64.1441 142.002C63.1669 142.257 61.5843 142.321 60.9682 143.139C60.3097 144.031 60.3097 146.038 60.3309 147.101H60.3203Z" fill="#4D4D4D"/>
<path d="M73.8625 100.8C74.0537 100.577 73.9794 100.248 73.905 99.972C72.8004 95.957 71.9825 91.8677 71.4408 87.7358C71.1328 87.5128 70.8141 88.0014 70.7504 88.3731C69.975 92.8236 70.0919 97.4228 71.0903 101.831C72.1631 101.746 73.1721 101.618 73.8732 100.79L73.8625 100.8Z" fill="#40324C"/>
<path d="M70.5384 97.0189C71.1332 102.075 71.9936 106.621 70.942 111.602C70.549 113.472 70.0392 115.309 69.6037 117.168C68.3185 122.617 67.6174 128.183 66.927 133.749C66.5659 136.606 66.2579 139.707 67.6918 142.203C66.3428 143.117 64.7177 143.605 63.0926 143.584C62.689 143.584 62.2535 143.531 61.9561 143.255C61.733 143.042 61.6268 142.734 61.5312 142.448C61.0426 140.812 60.8833 139.081 61.0426 137.381C61.1276 136.51 61.2976 135.639 61.2232 134.768C61.1595 134.099 60.947 133.44 60.7771 132.793C59.9699 129.808 59.8318 126.632 60.3947 123.594C60.9258 120.705 62.0623 117.997 62.0092 115.054C61.9561 112.112 62.0092 108.979 60.9364 106.079C60.3204 104.422 59.375 102.861 59.0989 101.119C58.8333 99.4937 59.3432 97.773 60.7452 96.8383C62.2323 95.8505 64.0379 96.3922 65.7268 96.4028C67.6918 96.4134 68.5628 97.0295 70.5278 97.0401L70.5384 97.0189Z" fill="#AF1873"/>
<path d="M68.9448 72.8975C69.6564 73.556 69.6139 74.3208 69.9326 75.2024C70.2087 75.9884 70.6548 76.7638 70.9204 77.6029C71.4302 79.1961 71.8976 81.6285 71.2709 83.2536C70.1662 81.6816 68.7005 79.8441 68.2862 77.8791C68.0844 76.8806 68.2756 75.8397 68.1694 74.82C68.1057 74.2252 67.8189 71.9309 68.9448 72.9081V72.8975Z" fill="#333333"/>
<path d="M71.9934 105.91C71.2287 105.963 70.5277 105.942 69.7417 105.899C68.5733 105.835 67.4155 105.761 66.2471 105.697C64.5795 105.612 62.7845 105.326 61.1169 105.485C60.5752 105.538 59.3643 105.623 58.8757 105.389C58.1109 105.028 58.3446 104.763 58.4402 103.86C58.5995 102.245 58.1428 100.716 58.2172 99.0482C58.3021 97.1151 58.7589 95.2988 58.7589 93.3232C58.7589 90.8483 58.1641 88.4478 58.026 85.9942C57.8773 83.3282 57.8029 80.6728 57.9304 78.0067C58.0685 75.3301 58.0366 72.8234 59.5236 70.4972C59.821 70.0299 60.2671 69.5944 60.8407 69.0739C61.9135 68.9359 63.2093 70.083 64.1016 70.6353C65.1319 71.2726 66.0028 71.9312 66.7782 72.8765C69.3699 76.0099 70.209 80.1311 71.4093 83.9124C71.6535 84.6771 71.8978 85.4525 71.9722 86.2491C72.0359 87.0458 71.9297 87.853 71.8341 88.6496C71.5261 91.2307 71.3774 93.8436 71.388 96.4459C71.388 97.7099 71.4836 98.7721 71.781 99.9936C72.259 101.905 72.1952 103.828 72.5882 105.719C72.5882 105.75 72.5989 105.793 72.5882 105.825C72.567 105.878 72.5033 105.889 72.4502 105.889C72.2908 105.91 72.1421 105.92 71.9934 105.931V105.91Z" fill="#40324C"/>
<path d="M70.0488 68.0542C70.0276 68.1817 69.9851 68.3197 69.8895 68.4047C69.7408 68.5322 69.5178 68.4897 69.3266 68.4366C67.4572 67.9161 65.6409 67.1832 63.9308 66.2698C63.1129 65.8343 62.295 65.3244 61.7533 64.5809C61.3072 63.9755 61.0629 63.2532 60.8505 62.5416C60.5743 61.6387 60.3194 60.6828 60.5 59.7587C60.7337 58.6222 61.6259 57.6875 62.6668 57.1776C63.7077 56.6678 64.8973 56.5297 66.0657 56.5085C71.4084 56.4235 70.7924 64.4747 70.0488 68.0542Z" fill="#A1616A"/>
<path d="M69.2637 55.5313C68.8707 55.4676 68.4777 55.5313 68.0847 55.5313C66.9694 55.5313 65.8967 55.0852 64.7814 55.0108C63.4431 54.9152 62.0729 55.4038 61.0957 56.3173C60.1185 57.2308 59.5449 58.5691 59.5449 59.9074C59.5449 62.2548 61.1913 64.2411 62.2003 66.3548C62.5084 65.9936 62.8164 65.6431 63.135 65.282C63.3687 65.0164 63.6024 64.7403 63.698 64.4004C63.8254 63.9224 63.6449 63.4232 63.4856 62.9558C63.3262 62.4885 63.1669 61.9786 63.3475 61.5113C63.528 61.0439 64.1866 60.7784 64.5265 61.1395C64.6539 61.2776 64.707 61.4688 64.7495 61.6494C64.8557 62.0849 64.962 62.5097 65.0682 62.9452C65.0469 61.6919 65.2806 60.4279 65.7373 59.2595C65.7798 59.1533 65.8329 59.0364 65.9285 58.9833C66.4277 58.6753 67.9891 59.2914 68.6264 59.302C69.2637 59.3126 69.9435 59.302 70.4321 58.8665C71.6111 57.8256 70.7614 55.7331 69.2956 55.5207L69.2637 55.5313Z" fill="#1A1A1A"/>
<path d="M72.5237 66.1314C72.5237 66.1951 72.5237 66.2482 72.5343 66.3226C72.598 67.1192 72.8848 67.5334 73.7345 67.5759C74.0001 67.5865 74.255 67.5334 74.5099 67.4697C75.1897 67.3104 75.8695 67.1086 76.528 66.8749C76.6661 66.8218 76.8148 66.7687 76.8892 66.6306C76.9317 66.5456 76.9423 66.45 76.9529 66.3544C76.9848 66.0039 76.9954 65.6428 77.006 65.2923C77.006 65.0798 77.006 64.8355 76.8467 64.6974C76.7617 64.6231 76.6449 64.5912 76.5387 64.5594C75.5827 64.3257 74.5737 64.3469 73.6283 64.5912C72.6724 64.8462 72.4706 65.3029 72.5131 66.1314H72.5237Z" fill="#A1616A"/>
<path d="M69.1043 72.0479C69.7628 72.5152 69.6354 72.8233 69.2317 74.0554C68.9874 74.8308 68.8918 75.3937 68.9025 76.2859C68.1908 74.5015 66.9162 72.9507 65.4611 71.7186C64.144 70.6033 62.1896 69.4137 60.3945 69.435C60.4583 68.7977 60.6388 68.1604 60.9044 67.5762C61.2018 67.7355 61.5098 67.8842 61.8391 67.9692C62.009 68.0117 62.1896 68.0223 62.3595 68.0648C62.5613 68.1179 62.7419 68.1922 62.9331 68.2772C63.9528 68.7233 64.8981 69.2013 65.8541 69.7642C66.7888 70.3059 67.5429 71.1344 68.4882 71.6761C68.7431 71.8142 68.9343 71.9417 69.0937 72.0479H69.1043Z" fill="#B3B3B3"/>
<path d="M67.1932 101.884C67.5756 102.659 67.5862 104.242 68.0536 105.219C68.4678 106.079 69.4769 106.462 69.9124 107.322C69.2857 107.63 68.351 107.566 68.0536 106.876C68.2979 107.842 68.6165 109.659 67.9367 110.498C67.1082 111.518 65.6531 111.018 64.9202 110.169C64.1873 109.319 64.251 107.97 64.1342 106.855C64.0173 105.739 63.55 104.104 63.7943 103.031C64.1023 101.671 65.7274 101.172 67.1826 101.884H67.1932Z" fill="#A1616A"/>
<path d="M62.4231 72.8234C63.3897 72.526 64.4412 72.6853 65.1316 73.5776C67.0541 76.0524 66.0663 80.6728 65.6308 83.5088C65.4396 84.794 65.3228 86.0367 65.3228 87.3326C65.3228 89.8181 65.0573 92.9621 65.6627 95.3625C66.385 98.2304 67.3515 100.992 68.3818 103.722C67.5852 103.966 66.7461 103.764 65.9282 103.722C65.1104 103.679 64.25 103.764 63.379 103.722C62.1575 99.983 61.4353 96.1379 60.5112 92.3141C59.9376 89.9561 59.6296 87.6725 59.7571 85.2295C59.8526 83.2645 59.7252 81.2676 59.8102 79.3239C59.8845 77.4863 59.449 75.6382 60.6705 74.0449C61.1166 73.4713 61.7539 73.0359 62.4337 72.8234H62.4231Z" fill="#32273D"/>
<path d="M126.355 125.719C133.699 125.719 139.653 124.939 139.653 123.977C139.653 123.015 133.699 122.235 126.355 122.235C119.01 122.235 113.057 123.015 113.057 123.977C113.057 124.939 119.01 125.719 126.355 125.719Z" fill="#808080"/>
<path d="M18.269 125.517C25.6134 125.517 31.5673 124.737 31.5673 123.775C31.5673 122.813 25.6134 122.033 18.269 122.033C10.9246 122.033 4.9707 122.813 4.9707 123.775C4.9707 124.737 10.9246 125.517 18.269 125.517Z" fill="#808080"/>
<path opacity="0.7" d="M18.269 70.083L4.9707 123.775" stroke="#4D4D4D" stroke-width="0.25" stroke-miterlimit="10"/>
<path opacity="0.7" d="M31.5678 123.775L18.2695 70.083" stroke="#4D4D4D" stroke-width="0.25" stroke-miterlimit="10"/>
<path opacity="0.7" d="M18.2695 125.517V70.083" stroke="#4D4D4D" stroke-width="0.25" stroke-miterlimit="10"/>
<path opacity="0.7" d="M124.274 68.2031L113.047 123.977" stroke="#4D4D4D" stroke-width="0.25" stroke-miterlimit="10"/>
<path opacity="0.7" d="M139.654 123.977L124.273 68.2031" stroke="#4D4D4D" stroke-width="0.25" stroke-miterlimit="10"/>
<path d="M26.7461 121.852C26.9691 121.364 27.0329 120.928 26.9267 120.546C26.8204 120.153 26.523 119.696 26.0344 119.176C25.5458 118.645 25.1104 118.135 24.7174 117.646C24.3244 117.158 24.027 116.658 23.8145 116.148C23.6021 115.649 23.5065 115.129 23.5065 114.598C23.5065 114.067 23.6658 113.493 23.9526 112.877C24.4412 111.836 25.1953 111.156 26.2044 110.806C27.2241 110.466 28.3393 110.508 29.5502 110.955L30.4637 109.011L31.9295 109.701L30.9947 111.677C32.0357 112.367 32.7048 113.249 32.9916 114.311C33.2784 115.373 33.1403 116.478 32.5986 117.646L29.4865 116.18C29.7839 115.543 29.8901 114.991 29.8157 114.534C29.7308 114.077 29.4652 113.737 29.0085 113.525C28.6049 113.334 28.2331 113.313 27.8826 113.461C27.5321 113.61 27.2666 113.907 27.0541 114.353C26.8417 114.81 26.7992 115.224 26.9267 115.617C27.0541 116.01 27.3515 116.457 27.8083 116.966C28.265 117.476 28.6792 117.986 29.0616 118.485C29.444 118.984 29.7414 119.484 29.9538 119.994C30.1663 120.503 30.2725 121.024 30.2725 121.555C30.2725 122.097 30.1238 122.67 29.837 123.297C29.3484 124.348 28.6049 125.039 27.6277 125.389C26.6505 125.74 25.5671 125.697 24.3668 125.272L23.4959 127.121L22.0301 126.43L22.9011 124.571C21.6265 123.796 20.8192 122.861 20.4687 121.746C20.1182 120.631 20.2456 119.441 20.8405 118.177L23.942 119.643C23.6127 120.344 23.5171 120.949 23.6552 121.459C23.7933 121.969 24.1438 122.362 24.7174 122.628C25.1316 122.819 25.5246 122.851 25.8751 122.723C26.2363 122.585 26.5124 122.298 26.7142 121.863L26.7461 121.852Z" fill="#9E1667"/>
<path d="M125.739 106.93L130.02 118.656C130.508 119.984 130.636 121.237 130.434 122.416C130.232 123.595 129.68 124.636 128.809 125.528C127.938 126.42 126.78 127.132 125.336 127.663C123.158 128.46 121.225 128.523 119.557 127.844C117.89 127.164 116.679 125.847 115.935 123.892L111.623 112.081L115.967 110.499L120.312 122.395C121.076 124.339 122.34 124.986 124.114 124.339C125.006 124.009 125.591 123.521 125.877 122.862C126.153 122.204 126.1 121.322 125.697 120.207L121.427 108.502L125.75 106.93H125.739Z" fill="#9E1667"/>
<path d="M137.284 109.457L138.038 102.437L142.966 100.631L141.203 111.337L149.637 118.496L144.655 120.313L139.429 115.342L138.633 122.511L133.662 124.328L135.499 113.419L127.268 106.356L132.185 104.561L137.284 109.447V109.457Z" fill="#9E1667"/>
<path d="M16.4312 105.495L13.3722 106.249C13.9883 106.844 14.4769 107.577 14.8274 108.437L17.8439 107.694L17.8014 111.082L15.5815 111.634C15.6983 113.089 15.4434 114.364 14.8274 115.458C14.2113 116.552 13.181 117.519 11.7471 118.379L19.7239 124.37L19.7771 124.593L14.1051 125.995L5.14043 119.452L4.40753 116.552L7.96578 115.671C9.38908 115.288 10.1538 114.385 10.2494 112.962L3.47283 114.64L3.51531 111.252L9.3466 109.807C8.66681 108.958 7.679 108.681 6.38316 108.958L2.32569 109.967L2.2832 105.644L16.4631 102.128L16.4206 105.516L16.4312 105.495Z" fill="#AF1873"/>
<path d="M16.2403 132.889H20.0216C24.1853 132.889 28.009 130.573 29.9422 126.877L31.5673 123.765C22.2096 125.91 13.4043 125.655 4.9707 123.765L5.92665 126.038C7.67922 130.191 11.7367 132.889 16.2403 132.889Z" fill="#4D4D4D"/>
<path d="M124.326 133.101H128.108C132.271 133.101 136.095 130.785 138.028 127.089L139.653 123.977C130.296 126.122 121.49 125.867 113.057 123.977L114.013 126.25C115.765 130.403 119.823 133.101 124.326 133.101Z" fill="#4D4D4D"/>
<path opacity="0.7" d="M127.332 125.486L124.273 68.2031" stroke="#4D4D4D" stroke-width="0.25" stroke-miterlimit="10"/>
</g>
<rect width="65" height="24" rx="12" fill="#F0F0F0"/>
<path d="M11.648 16.084C11.088 16.084 10.584 15.988 10.136 15.796C9.688 15.596 9.336 15.316 9.08 14.956C8.824 14.596 8.696 14.176 8.696 13.696H10.16C10.192 14.056 10.332 14.352 10.58 14.584C10.836 14.816 11.192 14.932 11.648 14.932C12.12 14.932 12.488 14.82 12.752 14.596C13.016 14.364 13.148 14.068 13.148 13.708C13.148 13.428 13.064 13.2 12.896 13.024C12.736 12.848 12.532 12.712 12.284 12.616C12.044 12.52 11.708 12.416 11.276 12.304C10.732 12.16 10.288 12.016 9.944 11.872C9.608 11.72 9.32 11.488 9.08 11.176C8.84 10.864 8.72 10.448 8.72 9.928C8.72 9.448 8.84 9.028 9.08 8.668C9.32 8.308 9.656 8.032 10.088 7.84C10.52 7.648 11.02 7.552 11.588 7.552C12.396 7.552 13.056 7.756 13.568 8.164C14.088 8.564 14.376 9.116 14.432 9.82H12.92C12.896 9.516 12.752 9.256 12.488 9.04C12.224 8.824 11.876 8.716 11.444 8.716C11.052 8.716 10.732 8.816 10.484 9.016C10.236 9.216 10.112 9.504 10.112 9.88C10.112 10.136 10.188 10.348 10.34 10.516C10.5 10.676 10.7 10.804 10.94 10.9C11.18 10.996 11.508 11.1 11.924 11.212C12.476 11.364 12.924 11.516 13.268 11.668C13.62 11.82 13.916 12.056 14.156 12.376C14.404 12.688 14.528 13.108 14.528 13.636C14.528 14.06 14.412 14.46 14.18 14.836C13.956 15.212 13.624 15.516 13.184 15.748C12.752 15.972 12.24 16.084 11.648 16.084ZM17.7382 10.504V14.164C17.7382 14.412 17.7942 14.592 17.9062 14.704C18.0262 14.808 18.2262 14.86 18.5062 14.86H19.3462V16H18.2662C17.6502 16 17.1782 15.856 16.8502 15.568C16.5222 15.28 16.3582 14.812 16.3582 14.164V10.504H15.5782V9.388H16.3582V7.744H17.7382V9.388H19.3462V10.504H17.7382ZM20.151 12.664C20.151 12 20.287 11.412 20.559 10.9C20.839 10.388 21.215 9.992 21.687 9.712C22.167 9.424 22.695 9.28 23.271 9.28C23.791 9.28 24.243 9.384 24.627 9.592C25.019 9.792 25.331 10.044 25.563 10.348V9.388H26.943V16H25.563V15.016C25.331 15.328 25.015 15.588 24.615 15.796C24.215 16.004 23.759 16.108 23.247 16.108C22.679 16.108 22.159 15.964 21.687 15.676C21.215 15.38 20.839 14.972 20.559 14.452C20.287 13.924 20.151 13.328 20.151 12.664ZM25.563 12.688C25.563 12.232 25.467 11.836 25.275 11.5C25.091 11.164 24.847 10.908 24.543 10.732C24.239 10.556 23.911 10.468 23.559 10.468C23.207 10.468 22.879 10.556 22.575 10.732C22.271 10.9 22.023 11.152 21.831 11.488C21.647 11.816 21.555 12.208 21.555 12.664C21.555 13.12 21.647 13.52 21.831 13.864C22.023 14.208 22.271 14.472 22.575 14.656C22.887 14.832 23.215 14.92 23.559 14.92C23.911 14.92 24.239 14.832 24.543 14.656C24.847 14.48 25.091 14.224 25.275 13.888C25.467 13.544 25.563 13.144 25.563 12.688ZM31.4038 9.28C31.9158 9.28 32.3678 9.384 32.7598 9.592C33.1598 9.792 33.4718 10.044 33.6958 10.348V9.388H35.0758V16.108C35.0758 16.716 34.9478 17.256 34.6918 17.728C34.4358 18.208 34.0638 18.584 33.5758 18.856C33.0958 19.128 32.5198 19.264 31.8478 19.264C30.9518 19.264 30.2078 19.052 29.6158 18.628C29.0238 18.212 28.6878 17.644 28.6078 16.924H29.9638C30.0678 17.268 30.2878 17.544 30.6238 17.752C30.9678 17.968 31.3758 18.076 31.8478 18.076C32.3998 18.076 32.8438 17.908 33.1798 17.572C33.5238 17.236 33.6958 16.748 33.6958 16.108V15.004C33.4638 15.316 33.1478 15.58 32.7478 15.796C32.3558 16.004 31.9078 16.108 31.4038 16.108C30.8278 16.108 30.2998 15.964 29.8198 15.676C29.3478 15.38 28.9718 14.972 28.6918 14.452C28.4198 13.924 28.2838 13.328 28.2838 12.664C28.2838 12 28.4198 11.412 28.6918 10.9C28.9718 10.388 29.3478 9.992 29.8198 9.712C30.2998 9.424 30.8278 9.28 31.4038 9.28ZM33.6958 12.688C33.6958 12.232 33.5998 11.836 33.4078 11.5C33.2238 11.164 32.9798 10.908 32.6758 10.732C32.3718 10.556 32.0438 10.468 31.6918 10.468C31.3398 10.468 31.0118 10.556 30.7078 10.732C30.4038 10.9 30.1558 11.152 29.9638 11.488C29.7798 11.816 29.6878 12.208 29.6878 12.664C29.6878 13.12 29.7798 13.52 29.9638 13.864C30.1558 14.208 30.4038 14.472 30.7078 14.656C31.0198 14.832 31.3478 14.92 31.6918 14.92C32.0438 14.92 32.3718 14.832 32.6758 14.656C32.9798 14.48 33.2238 14.224 33.4078 13.888C33.5998 13.544 33.6958 13.144 33.6958 12.688ZM42.9327 12.532C42.9327 12.78 42.9167 13.004 42.8847 13.204H37.8327C37.8727 13.732 38.0687 14.156 38.4207 14.476C38.7727 14.796 39.2047 14.956 39.7167 14.956C40.4527 14.956 40.9727 14.648 41.2767 14.032H42.7527C42.5527 14.64 42.1887 15.14 41.6607 15.532C41.1407 15.916 40.4927 16.108 39.7167 16.108C39.0847 16.108 38.5167 15.968 38.0127 15.688C37.5167 15.4 37.1247 15 36.8367 14.488C36.5567 13.968 36.4167 13.368 36.4167 12.688C36.4167 12.008 36.5527 11.412 36.8247 10.9C37.1047 10.38 37.4927 9.98 37.9887 9.7C38.4927 9.42 39.0687 9.28 39.7167 9.28C40.3407 9.28 40.8967 9.416 41.3847 9.688C41.8727 9.96 42.2527 10.344 42.5247 10.84C42.7967 11.328 42.9327 11.892 42.9327 12.532ZM41.5047 12.1C41.4967 11.596 41.3167 11.192 40.9647 10.888C40.6127 10.584 40.1767 10.432 39.6567 10.432C39.1847 10.432 38.7807 10.584 38.4447 10.888C38.1087 11.184 37.9087 11.588 37.8447 12.1H41.5047ZM44.8309 16.084C44.5829 16.084 44.3749 16 44.2069 15.832C44.0389 15.664 43.9549 15.456 43.9549 15.208C43.9549 14.96 44.0389 14.752 44.2069 14.584C44.3749 14.416 44.5829 14.332 44.8309 14.332C45.0709 14.332 45.2749 14.416 45.4429 14.584C45.6109 14.752 45.6949 14.96 45.6949 15.208C45.6949 15.456 45.6109 15.664 45.4429 15.832C45.2749 16 45.0709 16.084 44.8309 16.084ZM44.8309 11.044C44.5829 11.044 44.3749 10.96 44.2069 10.792C44.0389 10.624 43.9549 10.416 43.9549 10.168C43.9549 9.92 44.0389 9.712 44.2069 9.544C44.3749 9.376 44.5829 9.292 44.8309 9.292C45.0709 9.292 45.2749 9.376 45.4429 9.544C45.6109 9.712 45.6949 9.92 45.6949 10.168C45.6949 10.416 45.6109 10.624 45.4429 10.792C45.2749 10.96 45.0709 11.044 44.8309 11.044ZM50.9135 14.14C51.6815 13.476 52.2855 12.932 52.7255 12.508C53.1735 12.076 53.5455 11.628 53.8415 11.164C54.1375 10.7 54.2855 10.236 54.2855 9.772C54.2855 9.292 54.1695 8.916 53.9375 8.644C53.7135 8.372 53.3575 8.236 52.8695 8.236C52.3975 8.236 52.0295 8.388 51.7655 8.692C51.5095 8.988 51.3735 9.388 51.3575 9.892H50.0375C50.0615 8.98 50.3335 8.284 50.8535 7.804C51.3815 7.316 52.0495 7.072 52.8575 7.072C53.7295 7.072 54.4095 7.312 54.8975 7.792C55.3935 8.272 55.6415 8.912 55.6415 9.712C55.6415 10.288 55.4935 10.844 55.1975 11.38C54.9095 11.908 54.5615 12.384 54.1535 12.808C53.7535 13.224 53.2415 13.708 52.6175 14.26L52.0775 14.74H55.8815V15.88H50.0495V14.884L50.9135 14.14Z" fill="#606060"/>
</g>
<defs>
<clipPath id="clip0_1374_62925">
<rect width="220" height="150" fill="white"/>
</clipPath>
<clipPath id="clip1_1374_62925">
<rect width="149.648" height="95" fill="white" transform="translate(0 55)"/>
</clipPath>
</defs>
</svg>
