<svg width="220" height="150" viewBox="0 0 220 150" fill="none" xmlns="http://www.w3.org/2000/svg">
<g clip-path="url(#clip0_1374_63351)">
<rect width="220" height="150" fill="white"/>
<path opacity="0.2" d="M109.495 149.55C141.279 149.55 167.045 147.468 167.045 144.9C167.045 142.332 141.279 140.25 109.495 140.25C77.7113 140.25 51.9453 142.332 51.9453 144.9C51.9453 147.468 77.7113 149.55 109.495 149.55Z" fill="#4D4D4D"/>
<path d="M104.975 141.68C104.995 141.82 105.015 141.97 104.955 142.1C104.905 142.21 104.815 142.29 104.725 142.37C103.885 143.1 103.045 143.82 102.215 144.55C101.905 144.82 101.595 145.09 101.215 145.26C100.835 145.43 100.405 145.48 99.9954 145.53C99.4354 145.6 98.8054 145.65 98.3654 145.29C97.9154 144.92 97.8554 144.23 98.0654 143.69C98.2754 143.15 98.6854 142.71 99.0754 142.29C99.7554 141.56 100.435 140.78 100.775 139.83C100.975 139.29 101.125 138.63 101.655 138.4C101.845 138.32 102.045 138.31 102.255 138.3C102.925 138.27 104.165 138.14 104.595 138.78C104.985 139.35 104.885 141 104.975 141.69V141.68Z" fill="#3F3D56"/>
<path d="M114.356 144.97C114.946 145.37 115.726 145.3 116.426 145.21C116.756 145.17 117.096 145.13 117.426 145.09C117.596 145.07 117.766 145.05 117.916 144.97C118.196 144.82 118.326 144.47 118.306 144.16C118.286 143.85 118.136 143.55 117.956 143.29C117.376 142.42 116.506 141.77 116.006 140.85C115.426 139.77 115.306 138.36 113.996 137.89C112.986 137.52 112.096 137.96 111.656 138.91C111.216 139.86 111.246 141.39 111.836 142.25C112.196 142.77 112.826 143.02 113.236 143.5C113.646 143.98 113.826 144.62 114.366 144.99L114.356 144.97Z" fill="#3F3D56"/>
<path d="M81.7148 93.23C82.3148 93.4 82.9248 93.54 83.5348 93.65C83.7048 93.68 83.8848 93.71 84.0548 93.68C84.1948 93.65 84.3348 93.59 84.4648 93.53C84.8348 93.35 85.2148 93.17 85.5848 92.99C85.5148 92.46 85.4448 91.92 85.3748 91.39C85.3548 91.21 85.3248 91.03 85.2248 90.88C85.1248 90.73 84.9648 90.64 84.8048 90.54C84.2448 90.21 83.6748 89.88 83.0548 89.69C82.6848 89.57 82.6048 89.52 82.4648 89.85C82.3248 90.18 82.2748 90.62 82.1948 90.97C82.0248 91.72 81.8648 92.48 81.7148 93.23Z" fill="#BBBDC8"/>
<path d="M107.066 105.42C106.566 105.1 106.316 101.31 106.186 100.6C105.966 99.31 105.876 98.14 105.816 96.85C105.706 94.6 104.696 92.69 103.976 90.6C102.666 86.8 100.916 81.07 103.956 77.7C105.616 75.85 108.206 75.62 110.546 75.67C111.346 75.69 112.226 75.76 112.816 76.36C113.426 76.99 113.546 78 113.626 78.92C114.016 83.21 114.386 87.68 113.016 91.71C112.696 92.65 112.286 93.56 112.086 94.54C111.906 95.44 111.906 96.38 111.826 97.3C111.566 100.05 110.486 102.7 108.796 104.71C108.336 105.25 107.636 105.78 107.066 105.41V105.42Z" fill="#A8AAB4"/>
<path d="M100.106 92.3399C100.316 94.2899 100.526 96.2499 100.396 98.2099C100.176 101.5 99.0057 104.63 97.8457 107.71C98.9157 107.78 99.8357 108.48 100.866 108.78C103.046 109.42 105.436 108.14 106.746 106.28C108.056 104.42 108.506 102.1 108.816 99.8499C109.446 95.2999 109.616 90.5199 107.926 86.2499C107.446 85.0399 106.816 83.8799 106.386 82.6499C105.616 80.4199 105.516 78.0199 105.416 75.6699C105.436 76.1999 100.986 77.5499 100.446 77.7499C98.8657 78.3399 98.6857 78.7299 98.8157 80.4099C99.1357 84.3999 99.6757 88.3799 100.106 92.3499V92.3399Z" fill="#40324C"/>
<path d="M112.925 76.6704C112.755 81.7504 109.665 86.3004 108.925 91.3304C108.715 92.7704 108.695 94.2304 108.675 95.6804C108.635 99.2304 108.595 102.79 109.165 106.29C109.435 107.96 110.655 109.25 112.325 109.5C113.145 109.62 116.535 109.89 117.155 109.35C117.775 108.81 116.735 106 116.625 105.12C116.215 101.85 116.385 98.5204 116.845 95.2604C117.195 92.7504 117.555 90.3404 117.815 87.8404C117.905 86.9704 119.385 79.6604 119.005 79.4104C117.165 78.1904 114.945 77.5204 112.915 76.6504L112.925 76.6704Z" fill="#40324C"/>
<path d="M120.366 96.5105C120.786 96.5905 121.216 96.5405 121.636 96.4805C122.896 96.3005 124.136 96.0405 125.356 95.6905C125.886 95.5405 126.416 95.3705 126.946 95.2005C129.156 94.5005 131.366 93.7905 133.576 93.0905C132.906 91.7105 132.696 90.1005 132.996 88.5905C132.326 88.7205 131.716 89.0705 131.076 89.3105C130.466 89.5405 129.836 89.6805 129.196 89.8205C128.086 90.0705 126.966 90.3105 125.846 90.5105C125.376 90.5905 124.896 90.6205 124.436 90.7105C123.916 90.8105 123.306 90.9905 122.776 90.8905C122.326 90.8005 122.366 90.5305 122.256 90.1505C121.916 89.0205 121.356 87.9305 120.976 86.8105C120.176 84.4805 119.596 82.0705 119.216 79.6305C119.336 79.4405 118.866 79.3805 118.666 79.5005C118.466 79.6205 118.416 79.8805 118.386 80.1105C117.986 83.2105 117.586 86.3005 117.186 89.4005C117.106 89.9905 117.036 90.5905 117.166 91.1705C117.306 91.7805 117.676 92.3105 118.036 92.8305C118.896 94.0605 119.746 95.3005 120.606 96.5305" fill="#2F253A"/>
<path d="M133.035 89.0799C133.065 89.6399 132.945 90.8299 133.465 91.2099C133.685 91.3699 134.025 91.3399 134.285 91.3599C134.705 91.3999 135.125 91.4699 135.555 91.5099C135.925 91.5499 136.295 91.4599 136.665 91.4399C137.715 91.3799 138.755 91.2699 139.805 91.1499C140.495 91.0699 141.205 90.9699 141.815 90.6299C142.425 90.2899 142.905 89.6399 142.845 88.9399C141.235 88.9999 139.615 89.0499 138.005 89.1099C138.175 88.8099 138.595 88.6799 138.905 88.8299C139.025 88.6399 138.905 88.3699 138.705 88.2599C138.505 88.1499 138.275 88.1399 138.045 88.1399C137.385 88.1399 136.735 88.1399 136.075 88.1299C135.645 88.1299 135.215 88.1299 134.795 88.2199C134.155 88.3599 133.585 88.7199 133.035 89.0799Z" fill="#A1616A"/>
<path d="M109.755 73.6203C110.115 73.6603 110.475 73.7003 110.835 73.7603C111.215 73.8203 111.605 73.9203 111.895 74.1703C112.185 74.4203 112.335 74.8703 112.125 75.2003C111.975 75.4303 111.695 75.5403 111.425 75.6303C111.045 75.7603 110.665 75.8903 110.285 76.0203C110.005 76.1103 109.735 76.2103 109.445 76.2503C108.555 76.3903 107.675 76.0403 106.845 75.7103C106.685 75.6503 106.515 75.5803 106.395 75.4503C106.255 75.3003 106.195 75.1003 106.145 74.9103C106.085 74.6803 105.805 74.1003 105.965 73.9003C106.115 73.7103 106.865 73.6603 107.085 73.6203C107.965 73.4803 108.875 73.5403 109.755 73.6303V73.6203Z" fill="#A8AAB4"/>
<path d="M107.286 76.6903C107.286 76.8703 107.286 77.0603 107.386 77.2103C107.556 77.4603 107.896 77.4803 108.196 77.4803C109.016 77.4803 109.836 77.4603 110.656 77.4603C110.786 77.4603 110.936 77.4603 111.046 77.3803C111.206 77.2703 111.236 77.0503 111.246 76.8603C111.376 75.0003 111.906 69.8503 108.876 70.9503C106.576 71.7803 107.276 74.7403 107.276 76.7103L107.286 76.6903Z" fill="#91575F"/>
<path d="M104.615 66.9197C104.615 67.0997 104.615 67.2797 104.655 67.4397C104.825 68.1597 104.925 68.8497 105.015 69.5997L105.255 71.5297C105.345 72.2997 105.775 72.9997 106.425 73.4397L107.665 74.2797C108.565 74.8897 109.735 74.8997 110.635 74.3097L111.745 73.5897C112.385 73.1697 112.825 72.4997 112.935 71.7497L113.225 69.8897C113.315 69.3297 113.405 68.7597 113.495 68.1997C113.565 67.7797 113.735 67.3397 113.715 66.9197C113.665 65.9597 113.165 64.9697 112.505 64.2897C111.725 63.4797 110.635 62.9897 109.515 62.9497C108.715 62.9197 108.095 63.1697 107.325 63.2997C106.695 63.3997 106.145 63.9697 105.675 64.3797C105.545 64.4897 105.415 64.6097 105.315 64.7497C105.225 64.8797 105.155 65.0197 105.095 65.1697C104.885 65.6697 104.635 66.3397 104.605 66.9497L104.615 66.9197Z" fill="#A1616A"/>
<path d="M106.114 65.7002C106.594 65.5502 107.234 65.6302 107.654 65.6202C108.554 65.5902 109.464 65.5102 110.354 65.3802C110.934 65.3002 111.554 65.2002 112.094 65.4202C113.064 65.8102 112.854 67.0802 112.944 67.9302C113.034 68.6702 113.224 69.5802 113.084 70.3202C113.514 69.2802 114.324 68.2202 114.444 67.0902C114.564 65.9602 114.614 64.7802 114.384 63.6502C114.114 62.3502 114.114 62.1502 112.914 61.2902C112.754 61.1702 112.574 61.0702 112.384 61.0302C112.004 60.9502 111.614 61.1002 111.254 61.2402C110.374 61.5902 109.424 61.0102 108.494 61.1802C108.234 61.2302 106.414 61.1902 106.414 61.4302C105.994 61.5202 105.554 61.6202 105.194 61.8502C104.174 62.4902 104.104 64.1602 105.024 64.9202C104.894 64.7002 104.634 64.4902 104.364 64.5502C104.094 64.6102 103.914 64.8302 103.824 65.0802C103.734 65.3302 103.734 65.6002 103.734 65.8602C103.734 67.0102 104.544 67.9002 104.804 69.0402C104.914 69.5402 104.884 70.0002 105.144 70.4402C105.214 70.5602 105.254 71.5802 105.254 71.5902C105.384 70.5302 105.394 69.6502 105.294 68.5802C105.244 68.0402 105.294 67.5002 105.354 66.9602C105.384 66.6602 105.424 66.3402 105.584 66.0902C105.704 65.8902 105.904 65.7702 106.124 65.7002H106.114Z" fill="#333333"/>
<path d="M133.864 91.5099C133.884 91.5599 133.914 91.6199 133.934 91.6699C134.084 91.9699 134.394 92.1099 134.524 92.4099C134.334 92.4999 134.124 92.5499 133.924 92.5999C133.684 92.6699 133.414 92.7199 133.214 92.5899C133.064 92.4899 132.984 92.3199 132.914 92.1599C132.484 91.1999 131.964 90.0299 132.704 89.0899C132.824 88.9399 133.154 88.5299 133.394 88.6799C133.604 88.8099 133.564 89.3399 133.544 89.5399C133.514 89.9199 133.514 90.1699 133.604 90.5499C133.674 90.8699 133.744 91.1999 133.874 91.4999L133.864 91.5099Z" fill="#BBBDC8"/>
<path d="M82.8248 90.5096C82.7948 91.0696 82.9148 92.2596 82.3948 92.6396C82.1748 92.7996 81.8348 92.7696 81.5748 92.7896C81.1548 92.8296 80.7348 92.8996 80.3048 92.9396C79.9348 92.9796 79.5648 92.8896 79.1948 92.8696C78.1448 92.8096 77.1048 92.6996 76.0548 92.5796C75.3648 92.4996 74.6548 92.3996 74.0448 92.0596C73.4348 91.7196 72.9548 91.0696 73.0148 90.3696C74.6248 90.4296 76.2448 90.4796 77.8548 90.5396C77.6848 90.2396 77.2648 90.1096 76.9548 90.2596C76.8348 90.0696 76.9548 89.7996 77.1548 89.6896C77.3548 89.5796 77.5848 89.5696 77.8148 89.5696C78.4748 89.5696 79.1248 89.5696 79.7848 89.5596C80.2148 89.5596 80.6448 89.5596 81.0648 89.6496C81.7048 89.7896 82.2748 90.1496 82.8248 90.5096Z" fill="#A1616A"/>
<path d="M108.216 79.1603C108.216 79.6303 108.096 80.1003 107.996 80.5403C107.586 82.3103 107.266 84.1103 107.056 85.9203C106.956 86.7603 106.876 87.0503 106.466 87.7703C106.096 88.4203 106.036 89.0003 106.516 89.6203C107.086 90.3503 107.646 91.0703 108.216 91.8003C109.456 90.9403 110.706 90.0703 111.946 89.2103C112.066 89.1303 112.186 89.0403 112.246 88.9103C112.316 88.7403 112.276 88.5503 112.226 88.3803C111.436 85.5003 110.716 82.6103 110.066 79.7003C109.966 79.2403 109.866 78.7803 109.766 78.3303C110.066 78.0103 110.256 77.6703 110.556 77.3503C110.596 77.3003 110.646 77.2503 110.666 77.1903C110.706 77.0403 110.586 76.9103 110.476 76.8003C110.196 76.5503 109.886 76.2803 109.506 76.2803C109.286 76.2803 109.076 76.3703 108.876 76.4703C108.186 76.7803 107.606 76.9403 107.816 77.7803C107.916 78.1903 108.186 78.5003 108.236 78.9403C108.236 79.0203 108.246 79.1003 108.246 79.1803L108.216 79.1603Z" fill="#333333"/>
<path d="M99.7951 106.76C100.605 117.69 100.635 128.68 99.8951 139.62C99.8651 140.1 99.8651 140.66 100.255 140.94C100.415 141.05 100.615 141.09 100.805 141.13C101.415 141.25 102.025 141.38 102.635 141.5C103.365 141.65 104.245 141.76 104.765 141.21C105.075 140.89 105.155 140.42 105.225 139.98C105.715 136.7 105.925 133.38 105.835 130.06C105.805 128.75 105.715 127.44 105.755 126.13C105.785 124.94 105.925 123.76 106.055 122.58C106.575 117.95 107.095 113.32 107.615 108.69C107.685 108.1 107.995 107.32 108.575 107.46C110.005 115.96 110.755 124.57 110.805 133.19C110.825 135.52 110.785 137.88 111.405 140.12C111.405 140.12 114.345 140.3 114.635 140.34C115.505 140.49 116.665 141.22 116.645 139.89C116.595 133.96 116.535 128.04 116.485 122.11C116.475 120.74 116.455 119.36 116.445 117.99C116.425 115.4 116.395 112.81 116.375 110.22C116.355 107.99 116.525 105.86 115.095 103.98C113.785 102.25 111.545 101.41 109.375 101.32C107.205 101.23 105.065 101.81 102.995 102.46C100.385 103.28 99.5951 103.96 99.7951 106.73V106.76Z" fill="#AF1873"/>
<path d="M100.106 92.3399C100.316 94.2899 100.526 96.2499 100.396 98.2099C100.176 101.5 99.0057 104.63 97.8457 107.71C98.9157 107.78 99.8357 108.48 100.866 108.78C103.046 109.42 105.436 108.14 106.746 106.28C108.056 104.42 108.506 102.1 108.816 99.8499C109.446 95.2999 109.616 90.5199 107.926 86.2499C107.446 85.0399 106.816 83.8799 106.386 82.6499C105.616 80.4199 105.516 78.0199 105.416 75.6699C105.436 76.1999 100.986 77.5499 100.446 77.7499C98.8657 78.3399 98.6857 78.7299 98.8157 80.4099C99.1357 84.3999 99.6757 88.3799 100.106 92.3499V92.3399Z" fill="#40324C"/>
<path d="M112.925 76.6704C112.755 81.7504 109.665 86.3004 108.925 91.3304C108.715 92.7704 108.695 94.2304 108.675 95.6804C108.635 99.2304 108.595 102.79 109.165 106.29C109.435 107.96 110.655 109.25 112.325 109.5C113.145 109.62 116.535 109.89 117.155 109.35C117.775 108.81 116.735 106 116.625 105.12C116.215 101.85 116.385 98.5204 116.845 95.2604C117.195 92.7504 117.555 90.3404 117.815 87.8404C117.905 86.9704 119.385 79.6604 119.005 79.4104C117.165 78.1904 114.945 77.5204 112.915 76.6504L112.925 76.6704Z" fill="#40324C"/>
<path d="M103.015 82.02C105.625 84.86 106.675 88.75 107.635 92.48C108.055 94.11 108.475 95.74 108.895 97.37C109.425 95.17 109.605 92.89 109.435 90.64C109.365 89.69 109.235 88.75 108.905 87.85C108.695 87.26 108.395 86.7 108.125 86.12C107.385 84.54 106.845 82.89 106.395 81.21C106.115 80.16 106.035 77.42 104.905 77C104.595 77.35 102.735 81.72 103.005 82.01L103.015 82.02Z" fill="#544660"/>
<path d="M113.345 77.8301C114.325 78.6701 116.055 81.1501 116.405 82.4101C115.615 82.3901 114.865 82.8101 114.315 83.3701C113.765 83.9301 113.385 84.6401 113.015 85.3401C112.215 86.8301 111.855 88.9801 111.255 90.6401C110.745 92.0401 109.125 94.7201 109.195 96.1501C109.095 93.9901 109.295 91.8201 109.455 89.6701C109.495 89.1401 109.535 88.6001 109.645 88.0801C110.115 85.9201 111.735 84.1901 112.135 82.0101C112.375 80.6801 112.775 79.0101 113.345 77.8301Z" fill="#544660"/>
<path d="M97.0844 96.5698C97.0444 96.6998 97.2844 96.6498 97.3544 96.5398C98.1044 95.3998 98.8444 94.2498 99.5944 93.1098C100.274 92.0698 100.974 90.9798 101.094 89.7398C101.144 89.2798 101.094 88.8098 101.054 88.3398C100.784 85.4498 100.354 82.5798 99.6944 79.7498C99.6344 79.4998 99.5744 79.2298 99.4144 79.0298C99.2544 78.8298 98.9744 78.6898 98.7244 78.7798C98.4544 78.8798 98.3444 79.1998 98.2744 79.4798C97.8844 80.9198 97.5144 82.3698 97.0744 83.7898C96.8844 84.4098 96.7944 85.0498 96.5544 85.6598C96.3144 86.2698 96.0244 86.8698 95.8444 87.4998C95.6944 88.0098 95.6144 88.5298 95.4444 89.0298C95.2944 89.4598 95.0744 89.8598 94.9144 90.2898C94.7844 90.6298 94.8144 90.9698 94.4644 91.1098C93.6844 91.4398 92.5544 91.2398 91.7444 91.1698C89.5844 90.9798 87.3844 90.7898 85.3444 90.0698C85.1144 89.9898 84.7944 89.9298 84.5544 89.9798C84.9144 90.2198 85.0044 90.7098 85.0144 91.1498C85.0144 91.8098 84.8944 92.4598 84.6644 93.0798C84.5044 93.4898 84.2744 93.5898 84.0344 93.9098C84.0244 93.9298 84.0044 93.9498 84.0144 93.9698C84.0144 94.0198 84.0744 94.0298 84.1244 94.0298C84.6244 94.0698 85.0744 93.9798 85.5744 94.1098C87.5544 94.6398 89.5444 95.1698 91.5244 95.6998C93.3744 96.1898 95.2244 96.3298 97.1144 96.5498L97.0844 96.5698Z" fill="#40324C"/>
<path d="M109.605 75.82C110.045 75.77 110.485 75.65 110.865 75.4C111.305 75.11 111.635 74.66 111.775 74.15C111.825 73.98 112.005 73.76 112.105 73.9C112.545 74.61 112.985 75.32 113.415 76.03C113.465 76.12 113.525 76.21 113.535 76.31C113.565 76.52 113.405 76.71 113.255 76.87C113.255 77.17 111.995 78.21 111.755 78.41C111.475 77.97 111.035 77.66 110.635 77.32C110.465 77.17 110.285 77.03 110.065 76.97C109.695 76.87 109.295 77.05 108.905 77.02C108.755 77.01 108.605 76.97 108.465 77.02C108.355 77.07 108.275 77.17 108.205 77.26C107.535 78.18 107.225 78.7 106.225 77.9C105.545 77.36 104.825 76.6 104.775 75.68C104.755 75.29 104.885 74.47 105.325 74.3C105.825 74.11 106.155 74.7 106.515 74.97C107.385 75.62 108.505 75.95 109.585 75.82H109.605Z" fill="#BBBDC8"/>
<path d="M31.0513 79.7944L30.7552 75.6756C28.8154 74.7059 26.6682 74.2244 24.5 74.2729C27.5503 76.6306 27.306 81.343 29.4185 84.568C30.085 85.5688 30.9683 86.4068 32.0027 87.0199C33.0372 87.6329 34.1964 88.0053 35.3943 88.1095L37.9329 89.57C38.2233 87.6507 38.0941 85.6912 37.5543 83.8266C37.0145 81.962 36.0769 80.2366 34.8061 78.7692C34.085 77.9531 33.264 77.2311 32.3625 76.6201C31.8076 78.2132 31.0513 79.7944 31.0513 79.7944Z" fill="#F2F2F2"/>
<path d="M39.8122 101.712C46.3942 101.712 51.73 96.3766 51.73 89.7947C51.73 83.2127 46.3942 77.877 39.8122 77.877C33.2303 77.877 27.8945 83.2127 27.8945 89.7947C27.8945 96.3766 33.2303 101.712 39.8122 101.712Z" fill="white"/>
<path d="M34.2876 85.9173C34.7804 84.3468 35.901 82.9064 37.4508 82.3755C39.0007 81.8445 41.2701 82.6533 42.4353 83.8145C44.5666 85.9386 45.0867 93.2358 43.6224 95.5418C43.3312 95.5263 42.3262 95.5149 42.0314 95.5039L41.6144 94.114V95.4902C41.1447 95.4757 40.6714 95.4657 40.1944 95.4601C38.5952 95.4403 37.0659 94.8012 35.9282 93.6772C34.7904 92.5532 34.1327 91.0319 34.0933 89.433C34.0552 87.9034 34.0934 86.5362 34.2876 85.9173Z" fill="#2F2E41"/>
<path d="M39.6347 91.123C41.5106 91.123 43.0312 89.6024 43.0312 87.7265C43.0312 85.8507 41.5106 84.3301 39.6347 84.3301C37.7589 84.3301 36.2383 85.8507 36.2383 87.7265C36.2383 89.6024 37.7589 91.123 39.6347 91.123Z" fill="#9E616A"/>
<path d="M36.7031 84.7433L40.6138 82.7852C41.4134 83.1454 42.1019 83.7131 42.6081 84.4291C43.1144 85.1452 43.4198 85.9837 43.4927 86.8576L43.5902 88.0252L41.9526 87.6083L41.7732 86.1153L41.4951 87.4919L40.7394 87.2996L40.7465 84.9817L39.9903 87.2979L37.2911 86.6778L36.7031 84.7433Z" fill="#2F2E41"/>
<path d="M48.6561 97.6808C46.5914 100.03 43.6856 101.473 40.5661 101.699C37.4466 101.924 34.3635 100.914 31.9824 98.8858L33.0046 96.0335C33.2356 95.5269 33.6002 95.0928 34.0592 94.7776C34.5182 94.4624 35.0543 94.2781 35.6101 94.2444L36.2604 94.2045L37.811 92.8671C37.811 92.8671 41.9891 92.7179 41.9272 92.6465L44.458 94.1688L44.4559 94.1583L45.4508 94.2192C46.0066 94.2527 46.5428 94.437 47.0018 94.7522C47.4608 95.0674 47.8253 95.5016 48.0562 96.0083L48.6561 97.6808Z" fill="#B01873"/>
<path d="M39.8111 101.861C37.4245 101.861 35.0915 101.153 33.1071 99.8269C31.1227 98.501 29.576 96.6163 28.6627 94.4114C27.7494 92.2064 27.5104 89.7802 27.976 87.4394C28.4416 85.0986 29.5909 82.9485 31.2785 81.2609C32.9661 79.5733 35.1162 78.424 37.457 77.9584C39.7977 77.4928 42.224 77.7318 44.429 78.6451C46.6339 79.5584 48.5185 81.1051 49.8445 83.0895C51.1704 85.0739 51.8781 87.4069 51.8781 89.7936C51.8745 92.9928 50.602 96.06 48.3398 98.3222C46.0776 100.584 43.0104 101.857 39.8111 101.861ZM39.8111 78.0252C37.4836 78.0252 35.2083 78.7154 33.273 80.0085C31.3377 81.3016 29.8293 83.1396 28.9385 85.29C28.0478 87.4404 27.8148 89.8066 28.2689 92.0895C28.7229 94.3723 29.8438 96.4692 31.4896 98.1151C33.1355 99.7609 35.2324 100.882 37.5152 101.336C39.7981 101.79 42.1643 101.557 44.3147 100.666C46.4651 99.7754 48.3031 98.267 49.5962 96.3317C50.8893 94.3964 51.5795 92.1211 51.5795 89.7936C51.576 86.6735 50.335 83.6822 48.1287 81.4759C45.9225 79.2697 42.9312 78.0287 39.8111 78.0252Z" fill="#3F3D56"/>
<path d="M57.7551 114.269H42.5772C42.1704 114.269 41.7805 114.107 41.4928 113.819C41.2052 113.532 41.0434 113.142 41.043 112.735V103.387C41.0434 102.98 41.2052 102.59 41.4928 102.302C41.7805 102.015 42.1704 101.853 42.5772 101.853H57.7551C58.1618 101.853 58.5518 102.015 58.8394 102.302C59.1271 102.59 59.2889 102.98 59.2893 103.387V112.735C59.2889 113.142 59.1271 113.532 58.8394 113.819C58.5518 114.107 58.1618 114.269 57.7551 114.269Z" fill="#E6E6E6"/>
<path d="M51.7226 113.065H43.642C43.2611 113.065 42.8958 112.913 42.6264 112.644C42.357 112.374 42.2055 112.009 42.2051 111.628V104.494C42.2055 104.113 42.357 103.747 42.6264 103.478C42.8958 103.209 43.2611 103.057 43.642 103.057H56.6861C57.0671 103.057 57.4323 103.209 57.7017 103.478C57.971 103.747 58.1226 104.113 58.123 104.494V106.665C58.1211 108.362 57.4461 109.988 56.2462 111.188C55.0463 112.388 53.4195 113.063 51.7226 113.065Z" fill="white"/>
<path d="M55.3857 106.963H44.9441C44.8537 106.963 44.7671 106.927 44.7033 106.864C44.6394 106.8 44.6035 106.713 44.6035 106.623C44.6035 106.532 44.6394 106.446 44.7033 106.382C44.7671 106.318 44.8537 106.282 44.9441 106.282H55.3857C55.476 106.282 55.5626 106.318 55.6265 106.382C55.6903 106.446 55.7262 106.532 55.7262 106.623C55.7262 106.713 55.6903 106.8 55.6265 106.864C55.5626 106.927 55.476 106.963 55.3857 106.963Z" fill="#B01873"/>
<path d="M46.5774 108.309H44.9441C44.8537 108.309 44.7671 108.273 44.7033 108.209C44.6394 108.145 44.6035 108.059 44.6035 107.968C44.6035 107.878 44.6394 107.792 44.7033 107.728C44.7671 107.664 44.8537 107.628 44.9441 107.628H46.5774C46.6677 107.628 46.7543 107.664 46.8182 107.728C46.8821 107.792 46.918 107.878 46.918 107.968C46.918 108.059 46.8821 108.145 46.8182 108.209C46.7543 108.273 46.6677 108.309 46.5774 108.309Z" fill="#B01873"/>
<path d="M49.4715 109.656H44.9453C44.8551 109.656 44.7687 109.62 44.705 109.556C44.6413 109.492 44.6055 109.405 44.6055 109.315C44.6055 109.225 44.6413 109.138 44.705 109.075C44.7687 109.011 44.8551 108.975 44.9453 108.975H49.4715C49.5617 108.975 49.6481 109.011 49.7118 109.075C49.7756 109.138 49.8113 109.225 49.8113 109.315C49.8113 109.405 49.7756 109.492 49.7118 109.556C49.6481 109.62 49.5617 109.656 49.4715 109.656Z" fill="#B01873"/>
<path d="M40.5135 104.877C42.2867 104.877 43.7242 103.44 43.7242 101.667C43.7242 99.8935 42.2867 98.4561 40.5135 98.4561C38.7402 98.4561 37.3027 99.8935 37.3027 101.667C37.3027 103.44 38.7402 104.877 40.5135 104.877Z" fill="#3F3D56"/>
<path d="M150.501 86.096C158.137 86.096 164.327 79.9055 164.327 72.2692C164.327 64.6329 158.137 58.4424 150.501 58.4424C142.864 58.4424 136.674 64.6329 136.674 72.2692C136.674 79.9055 142.864 86.096 150.501 86.096Z" fill="white"/>
<path d="M151.14 73.6795C153.63 73.6795 155.648 71.6609 155.648 69.1708C155.648 66.6807 153.63 64.6621 151.14 64.6621C148.649 64.6621 146.631 66.6807 146.631 69.1708C146.631 71.6609 148.649 73.6795 151.14 73.6795Z" fill="#FFB8B8"/>
<path d="M155.108 66.193C155.108 66.193 156.282 63.9489 153.7 63.7449C153.7 63.7449 151.498 61.7477 149.254 63.3798C149.254 63.3798 148.03 63.3798 147.36 64.7649C147.36 64.7649 146.398 64.3998 146.186 65.377C146.186 65.377 145.482 67.4171 146.186 69.2532C146.891 71.0894 147.125 71.2934 147.125 71.2934C147.125 71.2934 146.63 69.0149 149.448 68.8108C152.266 68.6068 154.851 66.8417 155.085 69.0858C155.32 71.33 155.578 70.3162 155.578 70.3162C155.578 70.3162 157.809 67.1111 155.108 66.193Z" fill="#2F2E41"/>
<path d="M160.897 81.4639C158.502 84.1895 155.131 85.8638 151.511 86.1254C147.892 86.387 144.315 85.2148 141.553 82.8619L142.739 79.5527C143.007 78.9649 143.43 78.4612 143.962 78.0955C144.495 77.7298 145.117 77.516 145.761 77.4769L146.516 77.4306L148.315 75.879C148.315 75.879 153.162 75.7059 153.091 75.623L156.027 77.3892L156.024 77.377L157.179 77.4477C157.823 77.4866 158.446 77.7003 158.978 78.066C159.511 78.4317 159.934 78.9356 160.201 79.5234L160.897 81.4639Z" fill="#B01873"/>
<path d="M150.5 86.2695C147.731 86.2695 145.024 85.4484 142.722 83.9101C140.42 82.3718 138.625 80.1853 137.566 77.6271C136.506 75.0689 136.229 72.254 136.769 69.5383C137.309 66.8225 138.643 64.328 140.601 62.37C142.558 60.4121 145.053 59.0787 147.769 58.5385C150.484 57.9984 153.299 58.2756 155.858 59.3352C158.416 60.3948 160.602 62.1893 162.141 64.4916C163.679 66.7938 164.5 69.5006 164.5 72.2695C164.496 75.9813 163.019 79.5398 160.395 82.1644C157.77 84.789 154.212 86.2653 150.5 86.2695ZM150.5 58.616C147.8 58.616 145.16 59.4167 142.914 60.917C140.669 62.4173 138.919 64.5497 137.886 67.0445C136.852 69.5394 136.582 72.2847 137.109 74.9332C137.636 77.5817 138.936 80.0146 140.845 81.9241C142.755 83.8336 145.188 85.1339 147.836 85.6608C150.485 86.1876 153.23 85.9172 155.725 84.8838C158.22 83.8504 160.352 82.1004 161.853 79.8551C163.353 77.6097 164.154 74.97 164.154 72.2695C164.149 68.6496 162.71 65.1792 160.15 62.6195C157.59 60.0599 154.12 58.6201 150.5 58.616Z" fill="#3F3D56"/>
<path d="M184.772 73.2982H167.163C166.691 73.2977 166.238 73.11 165.905 72.7763C165.571 72.4426 165.383 71.9901 165.383 71.5182V60.6726C165.383 60.2007 165.571 59.7482 165.905 59.4145C166.238 59.0808 166.691 58.8931 167.163 58.8926H184.772C185.244 58.8931 185.696 59.0808 186.03 59.4145C186.364 59.7482 186.552 60.2007 186.552 60.6726V71.5182C186.552 71.9901 186.364 72.4426 186.03 72.7763C185.696 73.11 185.244 73.2977 184.772 73.2982Z" fill="#E6E6E6"/>
<path d="M177.775 71.9008H168.4C167.958 71.9003 167.534 71.7245 167.221 71.412C166.909 71.0994 166.733 70.6757 166.732 70.2337V61.9561C166.733 61.5141 166.909 61.0904 167.221 60.7779C167.534 60.4653 167.958 60.2895 168.4 60.2891H183.533C183.975 60.2896 184.399 60.4653 184.711 60.7779C185.024 61.0904 185.2 61.5141 185.2 61.9561V64.4751C185.198 66.4439 184.415 68.3313 183.023 69.7234C181.631 71.1155 179.743 71.8985 177.775 71.9008Z" fill="white"/>
<path d="M182.025 64.8224H169.911C169.806 64.8224 169.705 64.7808 169.631 64.7067C169.557 64.6326 169.516 64.5321 169.516 64.4273C169.516 64.3225 169.557 64.222 169.631 64.1479C169.705 64.0738 169.806 64.0322 169.911 64.0322H182.025C182.13 64.0322 182.23 64.0738 182.304 64.1479C182.378 64.222 182.42 64.3225 182.42 64.4273C182.42 64.5321 182.378 64.6326 182.304 64.7067C182.23 64.7808 182.13 64.8224 182.025 64.8224Z" fill="#B01873"/>
<path d="M171.806 66.384H169.911C169.806 66.384 169.705 66.3423 169.631 66.2682C169.557 66.1941 169.516 66.0936 169.516 65.9889C169.516 65.8841 169.557 65.7836 169.631 65.7095C169.705 65.6354 169.806 65.5938 169.911 65.5938H171.806C171.911 65.5938 172.011 65.6354 172.085 65.7095C172.159 65.7836 172.201 65.8841 172.201 65.9889C172.201 66.0936 172.159 66.1941 172.085 66.2682C172.011 66.3423 171.911 66.384 171.806 66.384Z" fill="#B01873"/>
<path d="M175.161 67.9455H169.91C169.805 67.9453 169.705 67.9035 169.631 67.8295C169.557 67.7554 169.516 67.655 169.516 67.5504C169.516 67.4457 169.557 67.3454 169.631 67.2713C169.705 67.1972 169.805 67.1555 169.91 67.1553H175.161C175.266 67.1553 175.366 67.1969 175.441 67.271C175.515 67.3451 175.556 67.4456 175.556 67.5504C175.556 67.6552 175.515 67.7557 175.441 67.8298C175.366 67.9039 175.266 67.9455 175.161 67.9455Z" fill="#B01873"/>
<path d="M164.766 75.3925C166.823 75.3925 168.491 73.7247 168.491 71.6674C168.491 69.6101 166.823 67.9424 164.766 67.9424C162.709 67.9424 161.041 69.6101 161.041 71.6674C161.041 73.7247 162.709 75.3925 164.766 75.3925Z" fill="#3F3D56"/>
<path d="M73.3649 57.3263C73.2091 58.1638 72.9534 58.9796 72.6036 59.7563C70.6 63.9947 76.3057 62.6132 78.3447 62.6132C80.574 62.6132 82.7071 63.7855 82.3813 58.5766C82.2421 56.3516 80.574 54.54 78.3447 54.54C76.4405 54.54 73.7631 55.3864 73.3649 57.3263Z" fill="#2F2E41"/>
<path d="M78.0107 62.6131C79.8223 62.6131 81.2909 61.1445 81.2909 59.3329C81.2909 57.5213 79.8223 56.0527 78.0107 56.0527C76.1991 56.0527 74.7305 57.5213 74.7305 59.3329C74.7305 61.1445 76.1991 62.6131 78.0107 62.6131Z" fill="#FFB6B6"/>
<path d="M75.7822 55.9886C76.357 55.6382 77.0154 55.4487 77.6885 55.4398C78.3616 55.4309 79.0248 55.603 79.6086 55.9382C80.1925 56.2733 80.6755 56.7592 81.0073 57.3449C81.3391 57.9306 81.5075 58.5947 81.4947 59.2678C79.8233 59.6875 78.0674 60.0086 76.2849 59.3682L75.864 58.338L75.6158 59.3689C75.073 59.5908 74.5287 59.7785 73.9845 59.3668C73.9623 58.6956 74.1166 58.0304 74.4321 57.4376C74.7476 56.8448 75.2131 56.3451 75.7822 55.9886Z" fill="#2F2E41"/>
<path d="M86.8316 69.3212C84.8639 71.5602 82.0947 72.9355 79.1217 73.1504C76.1488 73.3652 73.2106 72.4024 70.9414 70.4696L71.9156 67.7513C72.1357 67.2685 72.4831 66.8548 72.9206 66.5544C73.358 66.254 73.8689 66.0784 74.3986 66.0463L75.0183 66.0082L76.4961 64.7337C76.4961 64.7337 80.4779 64.5915 80.4189 64.5234L82.8308 65.9742L82.8288 65.9642L83.7769 66.0223C84.3066 66.0542 84.8176 66.2298 85.2551 66.5302C85.6925 66.8306 86.0399 67.2444 86.2599 67.7273L86.8316 69.3212Z" fill="#B01873"/>
<path d="M78 73.2695C75.7255 73.2695 73.5021 72.5951 71.6109 71.3314C69.7198 70.0678 68.2458 68.2717 67.3754 66.1704C66.505 64.069 66.2772 61.7568 66.721 59.526C67.1647 57.2952 68.26 55.2461 69.8683 53.6378C71.4766 52.0295 73.5257 50.9342 75.7565 50.4905C77.9872 50.0468 80.2995 50.2745 82.4009 51.1449C84.5022 52.0153 86.2983 53.4893 87.5619 55.3805C88.8255 57.2716 89.5 59.4951 89.5 61.7695C89.4965 64.8185 88.2838 67.7415 86.1279 69.8974C83.972 72.0534 81.0489 73.2661 78 73.2695ZM78 50.5541C75.7818 50.5541 73.6134 51.2119 71.769 52.4442C69.9247 53.6766 68.4872 55.4282 67.6383 57.4776C66.7894 59.5269 66.5673 61.782 67.0001 63.9576C67.4328 66.1331 68.501 68.1315 70.0695 69.7C71.638 71.2686 73.6364 72.3367 75.812 72.7695C77.9876 73.2022 80.2426 72.9801 82.292 72.1313C84.3413 71.2824 86.0929 69.8449 87.3253 68.0005C88.5577 66.1561 89.2154 63.9877 89.2154 61.7695C89.2121 58.7961 88.0294 55.9453 85.9268 53.8427C83.8242 51.7402 80.9735 50.5575 78 50.5541Z" fill="#3F3D56"/>
<rect x="1.33203" width="65" height="24" rx="12" fill="#F0F0F0"/>
<path d="M12.98 16.084C12.42 16.084 11.916 15.988 11.468 15.796C11.02 15.596 10.668 15.316 10.412 14.956C10.156 14.596 10.028 14.176 10.028 13.696H11.492C11.524 14.056 11.664 14.352 11.912 14.584C12.168 14.816 12.524 14.932 12.98 14.932C13.452 14.932 13.82 14.82 14.084 14.596C14.348 14.364 14.48 14.068 14.48 13.708C14.48 13.428 14.396 13.2 14.228 13.024C14.068 12.848 13.864 12.712 13.616 12.616C13.376 12.52 13.04 12.416 12.608 12.304C12.064 12.16 11.62 12.016 11.276 11.872C10.94 11.72 10.652 11.488 10.412 11.176C10.172 10.864 10.052 10.448 10.052 9.928C10.052 9.448 10.172 9.028 10.412 8.668C10.652 8.308 10.988 8.032 11.42 7.84C11.852 7.648 12.352 7.552 12.92 7.552C13.728 7.552 14.388 7.756 14.9 8.164C15.42 8.564 15.708 9.116 15.764 9.82H14.252C14.228 9.516 14.084 9.256 13.82 9.04C13.556 8.824 13.208 8.716 12.776 8.716C12.384 8.716 12.064 8.816 11.816 9.016C11.568 9.216 11.444 9.504 11.444 9.88C11.444 10.136 11.52 10.348 11.672 10.516C11.832 10.676 12.032 10.804 12.272 10.9C12.512 10.996 12.84 11.1 13.256 11.212C13.808 11.364 14.256 11.516 14.6 11.668C14.952 11.82 15.248 12.056 15.488 12.376C15.736 12.688 15.86 13.108 15.86 13.636C15.86 14.06 15.744 14.46 15.512 14.836C15.288 15.212 14.956 15.516 14.516 15.748C14.084 15.972 13.572 16.084 12.98 16.084ZM19.0702 10.504V14.164C19.0702 14.412 19.1262 14.592 19.2382 14.704C19.3582 14.808 19.5582 14.86 19.8382 14.86H20.6782V16H19.5982C18.9822 16 18.5102 15.856 18.1822 15.568C17.8542 15.28 17.6902 14.812 17.6902 14.164V10.504H16.9102V9.388H17.6902V7.744H19.0702V9.388H20.6782V10.504H19.0702ZM21.4831 12.664C21.4831 12 21.6191 11.412 21.8911 10.9C22.1711 10.388 22.5471 9.992 23.0191 9.712C23.4991 9.424 24.0271 9.28 24.6031 9.28C25.1231 9.28 25.5751 9.384 25.9591 9.592C26.3511 9.792 26.6631 10.044 26.8951 10.348V9.388H28.2751V16H26.8951V15.016C26.6631 15.328 26.3471 15.588 25.9471 15.796C25.5471 16.004 25.0911 16.108 24.5791 16.108C24.0111 16.108 23.4911 15.964 23.0191 15.676C22.5471 15.38 22.1711 14.972 21.8911 14.452C21.6191 13.924 21.4831 13.328 21.4831 12.664ZM26.8951 12.688C26.8951 12.232 26.7991 11.836 26.6071 11.5C26.4231 11.164 26.1791 10.908 25.8751 10.732C25.5711 10.556 25.2431 10.468 24.8911 10.468C24.5391 10.468 24.2111 10.556 23.9071 10.732C23.6031 10.9 23.3551 11.152 23.1631 11.488C22.9791 11.816 22.8871 12.208 22.8871 12.664C22.8871 13.12 22.9791 13.52 23.1631 13.864C23.3551 14.208 23.6031 14.472 23.9071 14.656C24.2191 14.832 24.5471 14.92 24.8911 14.92C25.2431 14.92 25.5711 14.832 25.8751 14.656C26.1791 14.48 26.4231 14.224 26.6071 13.888C26.7991 13.544 26.8951 13.144 26.8951 12.688ZM32.7359 9.28C33.2479 9.28 33.6999 9.384 34.0919 9.592C34.4919 9.792 34.8039 10.044 35.0279 10.348V9.388H36.4079V16.108C36.4079 16.716 36.2799 17.256 36.0239 17.728C35.7679 18.208 35.3959 18.584 34.9079 18.856C34.4279 19.128 33.8519 19.264 33.1799 19.264C32.2839 19.264 31.5399 19.052 30.9479 18.628C30.3559 18.212 30.0199 17.644 29.9399 16.924H31.2959C31.3999 17.268 31.6199 17.544 31.9559 17.752C32.2999 17.968 32.7079 18.076 33.1799 18.076C33.7319 18.076 34.1759 17.908 34.5119 17.572C34.8559 17.236 35.0279 16.748 35.0279 16.108V15.004C34.7959 15.316 34.4799 15.58 34.0799 15.796C33.6879 16.004 33.2399 16.108 32.7359 16.108C32.1599 16.108 31.6319 15.964 31.1519 15.676C30.6799 15.38 30.3039 14.972 30.0239 14.452C29.7519 13.924 29.6159 13.328 29.6159 12.664C29.6159 12 29.7519 11.412 30.0239 10.9C30.3039 10.388 30.6799 9.992 31.1519 9.712C31.6319 9.424 32.1599 9.28 32.7359 9.28ZM35.0279 12.688C35.0279 12.232 34.9319 11.836 34.7399 11.5C34.5559 11.164 34.3119 10.908 34.0079 10.732C33.7039 10.556 33.3759 10.468 33.0239 10.468C32.6719 10.468 32.3439 10.556 32.0399 10.732C31.7359 10.9 31.4879 11.152 31.2959 11.488C31.1119 11.816 31.0199 12.208 31.0199 12.664C31.0199 13.12 31.1119 13.52 31.2959 13.864C31.4879 14.208 31.7359 14.472 32.0399 14.656C32.3519 14.832 32.6799 14.92 33.0239 14.92C33.3759 14.92 33.7039 14.832 34.0079 14.656C34.3119 14.48 34.5559 14.224 34.7399 13.888C34.9319 13.544 35.0279 13.144 35.0279 12.688ZM44.2647 12.532C44.2647 12.78 44.2487 13.004 44.2167 13.204H39.1647C39.2047 13.732 39.4007 14.156 39.7527 14.476C40.1047 14.796 40.5367 14.956 41.0487 14.956C41.7847 14.956 42.3047 14.648 42.6087 14.032H44.0847C43.8847 14.64 43.5207 15.14 42.9927 15.532C42.4727 15.916 41.8247 16.108 41.0487 16.108C40.4167 16.108 39.8487 15.968 39.3447 15.688C38.8487 15.4 38.4567 15 38.1687 14.488C37.8887 13.968 37.7487 13.368 37.7487 12.688C37.7487 12.008 37.8847 11.412 38.1567 10.9C38.4367 10.38 38.8247 9.98 39.3207 9.7C39.8247 9.42 40.4007 9.28 41.0487 9.28C41.6727 9.28 42.2287 9.416 42.7167 9.688C43.2047 9.96 43.5847 10.344 43.8567 10.84C44.1287 11.328 44.2647 11.892 44.2647 12.532ZM42.8367 12.1C42.8287 11.596 42.6487 11.192 42.2967 10.888C41.9447 10.584 41.5087 10.432 40.9887 10.432C40.5167 10.432 40.1127 10.584 39.7767 10.888C39.4407 11.184 39.2407 11.588 39.1767 12.1H42.8367ZM46.1629 16.084C45.9149 16.084 45.7069 16 45.5389 15.832C45.3709 15.664 45.2869 15.456 45.2869 15.208C45.2869 14.96 45.3709 14.752 45.5389 14.584C45.7069 14.416 45.9149 14.332 46.1629 14.332C46.4029 14.332 46.6069 14.416 46.7749 14.584C46.9429 14.752 47.0269 14.96 47.0269 15.208C47.0269 15.456 46.9429 15.664 46.7749 15.832C46.6069 16 46.4029 16.084 46.1629 16.084ZM46.1629 11.044C45.9149 11.044 45.7069 10.96 45.5389 10.792C45.3709 10.624 45.2869 10.416 45.2869 10.168C45.2869 9.92 45.3709 9.712 45.5389 9.544C45.7069 9.376 45.9149 9.292 46.1629 9.292C46.4029 9.292 46.6069 9.376 46.7749 9.544C46.9429 9.712 47.0269 9.92 47.0269 10.168C47.0269 10.416 46.9429 10.624 46.7749 10.792C46.6069 10.96 46.4029 11.044 46.1629 11.044ZM57.0335 8.308L53.6975 16H52.3175L55.6895 8.452H51.2495V7.288H57.0335V8.308Z" fill="#606060"/>
</g>
<defs>
<clipPath id="clip0_1374_63351">
<rect width="220" height="150" fill="white"/>
</clipPath>
</defs>
</svg>
