<svg width="220" height="150" viewBox="0 0 220 150" fill="none" xmlns="http://www.w3.org/2000/svg">
<g clip-path="url(#clip0_1374_62993)">
<rect width="220" height="150" fill="white"/>
<path d="M37.2628 36.0002C16.6832 36.0002 0.000183105 52.6832 0.000183105 73.2628C0.000183105 93.8424 16.6832 110.525 37.2628 110.525C57.8424 110.525 74.5254 93.8424 74.5254 73.2628C74.5254 52.6832 57.8424 36.0002 37.2628 36.0002Z" fill="#F2F2F2"/>
<path opacity="0.2" d="M66.1478 146.998C102.68 146.998 132.296 144.605 132.296 141.653C132.296 138.701 102.68 136.309 66.1478 136.309C29.6154 136.309 0 138.701 0 141.653C0 144.605 29.6154 146.998 66.1478 146.998Z" fill="#4D4D4D"/>
<path d="M12.1476 143.434C12.3315 143.768 12.5729 144.02 12.9177 144.135C13.6419 144.365 14.4349 144.25 15.1935 144.158C16.3085 144.02 17.4349 143.963 18.5613 143.986C19.0555 143.986 20.8371 144.365 20.8946 143.48C20.9175 143.089 20.4463 142.883 20.067 142.756C18.5728 142.25 17.3429 141.032 16.8142 139.549C16.297 138.09 16.4349 136.48 16.2165 134.952C16.1016 134.182 15.0901 133.618 14.3545 133.653C13.8143 133.676 13.8947 133.883 13.5269 134.193C13.1591 134.503 12.6649 134.595 12.1936 134.641C11.5729 134.71 10.8488 134.814 10.5385 135.354C10.3891 135.618 10.3661 135.929 10.3546 136.228C10.3086 137.044 10.2626 137.883 10.458 138.676C10.6419 139.423 11.0212 140.112 11.3316 140.825C11.6419 141.526 11.7454 142.687 12.1591 143.446L12.1476 143.434Z" fill="#3F3D56"/>
<path d="M43.2161 129.125C42.7104 129.367 42.1127 129.804 42.2506 130.378C42.2966 130.585 42.4345 130.746 42.5609 130.907C43.7333 132.39 44.6643 134.068 45.7333 135.631C46.8022 137.194 48.0321 138.7 49.6182 139.631C50.0205 139.861 50.4573 140.068 50.9171 140.056C51.3768 140.045 51.8481 139.792 52.009 139.344C52.2044 138.815 51.9285 138.217 51.6757 137.711C50.4458 135.229 49.5493 132.574 49.0206 129.838C48.9286 129.355 48.8252 128.838 48.4803 128.516C48.3079 128.367 48.101 128.275 47.8941 128.183C47.1011 127.85 46.193 127.137 45.4574 127.654C44.7218 128.171 44.0896 128.781 43.2276 129.125H43.2161Z" fill="#3F3D56"/>
<path d="M51.0449 111.941C51.1599 111.987 51.2863 112.022 51.4012 112.068C51.815 112.217 52.2978 112.401 52.4242 112.849C52.5046 113.125 52.4242 113.424 52.3207 113.7C51.3208 116.562 49.3093 118.861 47.8841 121.504C47.2404 122.7 46.7232 123.964 46.1255 125.171C45.6887 126.044 44.3669 127.274 45.2864 128.113C45.9761 128.734 46.7347 129.274 47.5393 129.711C47.999 129.952 48.2404 130.182 48.6312 129.906C48.9875 129.653 49.2978 128.906 49.5507 128.538C50.7461 126.768 51.9529 124.987 53.1483 123.217C54.2287 121.631 55.1598 119.918 56.2862 118.366C56.9873 117.389 58.0103 116.654 58.6079 115.596C59.2631 114.412 60.1251 112.654 59.6194 111.252C59.3895 110.619 58.9987 110.079 58.6079 109.539C57.4356 107.918 56.4701 106.091 55.1138 104.643C53.7575 103.194 52.1598 102.045 50.6656 100.792C47.976 98.5277 45.0106 96.6427 41.8612 95.2175C41.7808 95.183 41.7003 95.1485 41.6199 95.1715C41.5279 95.1945 41.4704 95.275 41.413 95.3554C39.5739 98.0105 38.4705 101.252 38.2636 104.574C38.1832 105.861 39.3785 106.194 40.2981 106.7C42.0566 107.677 44.1485 108.16 45.7922 109.263C47.4358 110.367 49.1829 111.298 51.0219 111.964L51.0449 111.941Z" fill="#9E1667"/>
<path d="M41.5626 69.4938C43.0224 71.3213 44.8269 72.8615 46.8613 74.0109C47.0567 74.1258 47.2866 74.2293 47.482 74.1258C47.6544 74.0339 47.7119 73.827 47.7464 73.6316C48.2176 71.5282 48.9188 69.4823 49.8383 67.5283C49.8957 67.4133 49.9532 67.2984 49.9417 67.172C49.9417 66.9651 49.7693 66.7927 49.6199 66.6547C48.528 65.6548 46.6544 63.8502 45.2062 65.0916C44.8269 65.4134 41.5396 69.4708 41.5626 69.5053V69.4938Z" fill="#91575F"/>
<path d="M25.7462 113.344C25.5278 114.287 25.2979 115.241 24.8841 116.103C24.2979 117.31 23.3669 118.298 22.5279 119.344C21.6313 120.47 20.8382 121.666 20.0452 122.873C17.482 126.769 14.9188 130.654 12.3672 134.55C13.8384 135.367 15.2637 136.286 16.62 137.286C18.3326 133.907 20.7808 130.953 23.206 128.033C24.4473 126.539 25.6887 125.045 27.0335 123.631C28.0679 122.539 29.2748 121.528 30.1369 120.309C30.9989 119.091 32.1828 118.31 33.1023 117.206C33.8264 116.344 34.3207 115.321 34.8149 114.31C35.2632 113.367 35.7229 112.425 36.1597 111.482C37.2861 109.08 38.378 106.655 39.1251 104.114C39.8033 101.862 40.4699 99.0801 40.1021 96.7124C39.9297 95.6319 38.7803 95.7009 37.8493 95.5285C36.6309 95.2986 35.4011 95.1147 34.1597 95.1377C32.8379 95.1492 31.4931 95.402 30.3093 95.9767C28.9185 96.6549 28.6771 97.2066 28.5277 98.7008C28.2059 101.862 27.6197 104.988 26.953 108.103C26.5737 109.85 26.1714 111.597 25.7692 113.333L25.7462 113.344Z" fill="#AF1873"/>
<path d="M46.0562 65.4138C46.2286 65.954 46.447 66.4942 46.6884 67C47.2056 68.0689 47.6539 69.1723 48.2401 70.2183C48.5389 70.7585 48.8837 71.2872 49.2745 71.77C49.8147 72.4251 49.9297 72.5056 50.6193 71.9999C52.5388 70.5976 54.4583 68.4712 55.1479 66.1609C55.3778 65.4023 55.4698 64.6092 55.5387 63.8276C55.6422 62.6897 55.9065 60.7932 55.4583 59.6898C54.9295 58.4025 52.8261 57.8508 51.6308 57.5404C50.9296 57.368 50.0101 57.0347 49.2975 57.0002C48.4584 56.9543 47.6654 57.6439 47.0332 58.1151C46.6079 58.437 46.1711 58.7703 45.8953 59.2186C45.5849 59.7358 45.5045 60.3565 45.47 60.9657C45.401 62.4714 45.6079 63.9886 46.0677 65.4138H46.0562Z" fill="#A1616A"/>
<path d="M48.2642 62.7014C48.5746 62.8279 48.8274 63.2072 48.9194 63.7704C49.0688 64.7244 49.1263 65.7473 49.3906 66.6668C50.5515 65.6554 50.6205 63.9313 50.7239 62.506C50.7239 62.3911 50.7469 62.2647 50.8389 62.1842C50.9193 62.1152 51.0343 62.1037 51.1377 62.1037C53.1262 62.0578 55.9997 63.552 57.333 61.5635C57.7353 60.9773 58.149 60.3222 58.1031 59.6095C58.0341 58.5636 57.356 58.5061 56.5284 58.4257C55.3905 58.3222 54.8962 57.851 53.7928 57.4717C53.379 57.3337 52.9193 57.3452 52.4825 57.2993C50.7239 57.1383 48.7355 56.897 47.0918 57.7015C44.9655 58.7475 44.6206 60.8739 44.5977 63.0118C44.5977 63.8048 44.5977 64.6209 44.9425 65.3335C45.0919 65.6209 45.2988 65.8967 45.5976 66.0232C46.3447 66.345 46.724 65.6554 46.747 65.0347C46.7585 64.483 46.816 63.9083 47.0804 63.4255C47.4597 62.7474 47.9079 62.552 48.2757 62.6899L48.2642 62.7014Z" fill="#333333"/>
<path d="M42.7234 67.058C42.8039 67.058 42.8614 67.127 42.9188 67.1729C44.7004 68.7936 45.3096 71.5177 47.3095 72.8625C47.5969 73.0464 47.9072 73.2188 48.0681 73.5176C48.1946 73.759 48.2176 74.0348 48.2176 74.3107C48.2405 75.1153 48.275 75.9199 48.298 76.7244C46.367 75.4946 44.7809 73.805 43.4591 71.9544C42.8039 71.0349 42.1258 70.0579 41.62 69.035C41.4476 68.6787 41.2062 68.3338 41.3901 67.9315C41.5051 67.6557 42.4131 67.012 42.7005 67.058H42.7234Z" fill="#BBBDC8"/>
<path d="M49.0439 82.0682C48.1244 84.8268 47.3198 87.5853 46.5957 90.3784L46.7566 73.873C46.8141 73.919 46.8601 73.9765 46.906 74.0225C47.5842 74.7121 48.1589 75.5052 48.6991 76.3098C48.7796 77.9304 48.8485 79.4361 48.929 81.0568C48.952 81.4016 48.9635 81.7464 49.0439 82.0797V82.0682Z" fill="#333333"/>
<path d="M46.7446 73.8735L46.5837 90.3788C45.9056 92.988 44.1355 99.0798 43.5723 101.758C43.5263 101.93 35.9518 101.677 35.1932 101.689C33.4461 101.723 31.4691 101.505 29.791 100.769C29.2508 100.528 28.7336 100.241 28.2738 99.8843C28.1819 99.8039 28.0784 99.7119 28.0324 99.597C27.9865 99.4476 28.0324 99.2867 28.0899 99.1487C28.5612 97.9763 29.0669 96.8155 29.6071 95.6776C30.0324 94.7695 31.653 90.4248 31.8714 89.4478C32.0553 88.5973 32.0668 87.7007 32.0668 86.8272C32.0898 84.356 32.2392 81.9193 32.6875 79.4826C33.1932 76.7125 33.1358 74.0804 34.7794 71.6782C34.9748 71.4023 35.1702 71.115 35.4231 70.8966C35.7219 70.6207 36.0667 70.4483 36.4115 70.2529C37.9287 69.4368 39.4345 68.6208 40.9517 67.8047C41.7218 68.8047 42.8137 69.4828 43.5838 70.4713C44.147 71.2184 44.7217 71.954 45.3883 72.6207C45.8366 73.0574 46.2964 73.4482 46.7331 73.885L46.7446 73.8735Z" fill="#40324C"/>
<path d="M46.5975 89.7689C46.586 89.1712 47.0572 88.3091 47.1722 87.7C47.3101 86.9988 47.3905 86.2862 47.4365 85.5736C47.54 84.1253 47.471 82.6771 47.379 81.2289C47.2871 79.9415 47.1492 78.7347 46.8733 77.4933C46.7009 76.7117 46.9883 75.2175 46.4825 74.5624C46.3676 74.4129 46.1032 74.3555 45.9883 74.4934C45.9538 74.5394 45.9308 74.5854 45.9078 74.6428C45.2986 76.206 44.701 77.7692 44.0918 79.3324C44.0343 79.4703 43.9883 79.6082 43.9998 79.7576C44.0228 79.93 44.1263 80.0795 44.2412 80.2059C46.4365 83.0679 46.4595 86.3322 46.5975 89.7689Z" fill="#544660"/>
<path d="M34.1022 74.3213C35.2401 72.5857 37.3665 72.7121 38.9872 73.942C39.8377 74.5857 40.4239 75.6201 40.3664 76.6891C40.309 77.6545 39.7573 78.5051 39.2285 79.3097C37.5619 81.8154 35.8953 84.321 34.2287 86.8267C34.0907 87.0336 33.9528 87.275 34.0448 87.4934C34.0907 87.5968 34.1827 87.6773 34.2746 87.7577C37.8722 90.6772 41.9526 92.999 46.3088 94.5737C46.056 95.9529 45.8606 97.3322 45.7111 98.723C45.6422 98.1023 41.7802 96.9759 41.1825 96.7575C39.6308 96.2058 38.0447 95.7116 36.493 95.1369C35.1827 94.6541 33.8494 94.1714 32.5505 93.6771C30.9874 93.0909 29.4931 91.8266 28.0794 90.9531C27.9415 90.8611 27.792 90.7692 27.7116 90.6312C27.5851 90.4129 27.6311 90.137 27.6886 89.8956C28.1598 87.7118 28.6311 85.5164 29.4357 83.4245C30.0793 81.7464 30.9414 80.1602 31.7919 78.5741C32.5161 77.2408 33.2287 75.9075 33.9528 74.5742C33.9988 74.4822 34.0563 74.3903 34.1137 74.3098L34.1022 74.3213Z" fill="#382C44"/>
<path d="M51.2747 102.838C51.631 103.183 51.9989 103.551 52.4701 103.677C53.0678 102.85 52.7115 101.678 52.1253 100.838C51.4816 99.9189 50.6196 99.1833 49.9184 98.2983C49.3323 97.5397 48.8725 96.6891 48.5737 95.7811C48.5162 95.5972 48.4587 95.4018 48.3093 95.2754C48.1829 95.1604 48.0104 95.126 47.838 95.0915C47.0335 94.9191 46.091 94.7926 45.4933 95.3558C45.0105 95.8156 44.8151 96.919 45.0105 97.5512C45.2174 98.2293 45.8036 98.4247 46.3553 98.781C48.1254 99.9419 49.7575 101.344 51.2632 102.827L51.2747 102.838Z" fill="#A1616A"/>
<path d="M53.5384 89.9877C52.5499 87.9303 52.8832 85.5165 54.3315 83.6315L63.9289 71.1951C63.9289 71.1951 66.9059 66.632 72.377 69.1147C77.8366 71.5974 110.422 91.367 126.364 107.148C127.617 108.39 132.594 112.229 132.295 115.895C132.019 119.274 120.387 130.32 118.594 131.458C115.905 133.171 112.732 132.159 109.939 131.309C107.813 130.665 66.2967 105.114 57.9061 95.8956C56.1935 94.0106 54.5269 91.9991 53.5499 89.9647L53.5384 89.9877Z" fill="#1A1A1A"/>
<path d="M48.1248 96.7921C47.1823 94.7232 47.5501 92.3094 49.0443 90.4474L58.8831 78.1948C58.8831 78.1948 61.952 73.6892 67.3657 76.2753C72.7793 78.8615 104.974 99.2518 120.606 115.355C121.836 116.619 126.732 120.562 126.364 124.217C126.019 127.596 114.181 138.412 112.365 139.515C109.64 141.17 106.491 140.101 103.71 139.205C101.595 138.527 60.5842 112.171 52.3661 102.803C50.6879 100.895 49.0673 98.8495 48.1248 96.7921Z" fill="#1A1A1A"/>
<path d="M46.5171 92.5516C45.3332 90.1493 45.5516 87.2873 47.0229 85.0345L56.7468 70.2188C56.7468 70.2188 59.7237 64.7937 65.7925 67.6327C71.8613 70.4717 108.297 93.2987 126.469 111.689C127.894 113.137 133.515 117.585 133.389 121.919C133.274 125.907 121.274 139.125 119.389 140.493C116.573 142.55 113.079 141.401 109.987 140.458C107.642 139.734 61.1834 110.218 51.5745 99.4709C49.609 97.2756 47.6895 94.9308 46.5171 92.5401V92.5516Z" fill="#4D4D4D"/>
<path d="M39.3891 73.9431L38.8144 77.5063C38.734 78.0235 38.5731 78.5292 38.3432 79.0005L34.6191 86.8164L39.1708 79.2993C40.1592 77.6672 40.2397 75.6442 39.3891 73.9316V73.9431Z" fill="#2F253A"/>
<path d="M33.5407 87.0908L30.8281 87.2402L33.2189 87.677L33.1384 89.9183L33.5407 88.2977L37.9659 90.4241L34.2418 87.0908H33.5407Z" fill="#2F253A"/>
<path d="M37.3105 90.3789L46.3103 94.5742C46.3103 94.5742 44 95.7926 44.2184 96.85L44.0115 94.5397L37.3105 90.3789Z" fill="#2F253A"/>
<rect width="65" height="24" rx="12" fill="#F0F0F0"/>
<path d="M11.648 16.084C11.088 16.084 10.584 15.988 10.136 15.796C9.688 15.596 9.336 15.316 9.08 14.956C8.824 14.596 8.696 14.176 8.696 13.696H10.16C10.192 14.056 10.332 14.352 10.58 14.584C10.836 14.816 11.192 14.932 11.648 14.932C12.12 14.932 12.488 14.82 12.752 14.596C13.016 14.364 13.148 14.068 13.148 13.708C13.148 13.428 13.064 13.2 12.896 13.024C12.736 12.848 12.532 12.712 12.284 12.616C12.044 12.52 11.708 12.416 11.276 12.304C10.732 12.16 10.288 12.016 9.944 11.872C9.608 11.72 9.32 11.488 9.08 11.176C8.84 10.864 8.72 10.448 8.72 9.928C8.72 9.448 8.84 9.028 9.08 8.668C9.32 8.308 9.656 8.032 10.088 7.84C10.52 7.648 11.02 7.552 11.588 7.552C12.396 7.552 13.056 7.756 13.568 8.164C14.088 8.564 14.376 9.116 14.432 9.82H12.92C12.896 9.516 12.752 9.256 12.488 9.04C12.224 8.824 11.876 8.716 11.444 8.716C11.052 8.716 10.732 8.816 10.484 9.016C10.236 9.216 10.112 9.504 10.112 9.88C10.112 10.136 10.188 10.348 10.34 10.516C10.5 10.676 10.7 10.804 10.94 10.9C11.18 10.996 11.508 11.1 11.924 11.212C12.476 11.364 12.924 11.516 13.268 11.668C13.62 11.82 13.916 12.056 14.156 12.376C14.404 12.688 14.528 13.108 14.528 13.636C14.528 14.06 14.412 14.46 14.18 14.836C13.956 15.212 13.624 15.516 13.184 15.748C12.752 15.972 12.24 16.084 11.648 16.084ZM17.7382 10.504V14.164C17.7382 14.412 17.7942 14.592 17.9062 14.704C18.0262 14.808 18.2262 14.86 18.5062 14.86H19.3462V16H18.2662C17.6502 16 17.1782 15.856 16.8502 15.568C16.5222 15.28 16.3582 14.812 16.3582 14.164V10.504H15.5782V9.388H16.3582V7.744H17.7382V9.388H19.3462V10.504H17.7382ZM20.151 12.664C20.151 12 20.287 11.412 20.559 10.9C20.839 10.388 21.215 9.992 21.687 9.712C22.167 9.424 22.695 9.28 23.271 9.28C23.791 9.28 24.243 9.384 24.627 9.592C25.019 9.792 25.331 10.044 25.563 10.348V9.388H26.943V16H25.563V15.016C25.331 15.328 25.015 15.588 24.615 15.796C24.215 16.004 23.759 16.108 23.247 16.108C22.679 16.108 22.159 15.964 21.687 15.676C21.215 15.38 20.839 14.972 20.559 14.452C20.287 13.924 20.151 13.328 20.151 12.664ZM25.563 12.688C25.563 12.232 25.467 11.836 25.275 11.5C25.091 11.164 24.847 10.908 24.543 10.732C24.239 10.556 23.911 10.468 23.559 10.468C23.207 10.468 22.879 10.556 22.575 10.732C22.271 10.9 22.023 11.152 21.831 11.488C21.647 11.816 21.555 12.208 21.555 12.664C21.555 13.12 21.647 13.52 21.831 13.864C22.023 14.208 22.271 14.472 22.575 14.656C22.887 14.832 23.215 14.92 23.559 14.92C23.911 14.92 24.239 14.832 24.543 14.656C24.847 14.48 25.091 14.224 25.275 13.888C25.467 13.544 25.563 13.144 25.563 12.688ZM31.4038 9.28C31.9158 9.28 32.3678 9.384 32.7598 9.592C33.1598 9.792 33.4718 10.044 33.6958 10.348V9.388H35.0758V16.108C35.0758 16.716 34.9478 17.256 34.6918 17.728C34.4358 18.208 34.0638 18.584 33.5758 18.856C33.0958 19.128 32.5198 19.264 31.8478 19.264C30.9518 19.264 30.2078 19.052 29.6158 18.628C29.0238 18.212 28.6878 17.644 28.6078 16.924H29.9638C30.0678 17.268 30.2878 17.544 30.6238 17.752C30.9678 17.968 31.3758 18.076 31.8478 18.076C32.3998 18.076 32.8438 17.908 33.1798 17.572C33.5238 17.236 33.6958 16.748 33.6958 16.108V15.004C33.4638 15.316 33.1478 15.58 32.7478 15.796C32.3558 16.004 31.9078 16.108 31.4038 16.108C30.8278 16.108 30.2998 15.964 29.8198 15.676C29.3478 15.38 28.9718 14.972 28.6918 14.452C28.4198 13.924 28.2838 13.328 28.2838 12.664C28.2838 12 28.4198 11.412 28.6918 10.9C28.9718 10.388 29.3478 9.992 29.8198 9.712C30.2998 9.424 30.8278 9.28 31.4038 9.28ZM33.6958 12.688C33.6958 12.232 33.5998 11.836 33.4078 11.5C33.2238 11.164 32.9798 10.908 32.6758 10.732C32.3718 10.556 32.0438 10.468 31.6918 10.468C31.3398 10.468 31.0118 10.556 30.7078 10.732C30.4038 10.9 30.1558 11.152 29.9638 11.488C29.7798 11.816 29.6878 12.208 29.6878 12.664C29.6878 13.12 29.7798 13.52 29.9638 13.864C30.1558 14.208 30.4038 14.472 30.7078 14.656C31.0198 14.832 31.3478 14.92 31.6918 14.92C32.0438 14.92 32.3718 14.832 32.6758 14.656C32.9798 14.48 33.2238 14.224 33.4078 13.888C33.5998 13.544 33.6958 13.144 33.6958 12.688ZM42.9327 12.532C42.9327 12.78 42.9167 13.004 42.8847 13.204H37.8327C37.8727 13.732 38.0687 14.156 38.4207 14.476C38.7727 14.796 39.2047 14.956 39.7167 14.956C40.4527 14.956 40.9727 14.648 41.2767 14.032H42.7527C42.5527 14.64 42.1887 15.14 41.6607 15.532C41.1407 15.916 40.4927 16.108 39.7167 16.108C39.0847 16.108 38.5167 15.968 38.0127 15.688C37.5167 15.4 37.1247 15 36.8367 14.488C36.5567 13.968 36.4167 13.368 36.4167 12.688C36.4167 12.008 36.5527 11.412 36.8247 10.9C37.1047 10.38 37.4927 9.98 37.9887 9.7C38.4927 9.42 39.0687 9.28 39.7167 9.28C40.3407 9.28 40.8967 9.416 41.3847 9.688C41.8727 9.96 42.2527 10.344 42.5247 10.84C42.7967 11.328 42.9327 11.892 42.9327 12.532ZM41.5047 12.1C41.4967 11.596 41.3167 11.192 40.9647 10.888C40.6127 10.584 40.1767 10.432 39.6567 10.432C39.1847 10.432 38.7807 10.584 38.4447 10.888C38.1087 11.184 37.9087 11.588 37.8447 12.1H41.5047ZM44.8309 16.084C44.5829 16.084 44.3749 16 44.2069 15.832C44.0389 15.664 43.9549 15.456 43.9549 15.208C43.9549 14.96 44.0389 14.752 44.2069 14.584C44.3749 14.416 44.5829 14.332 44.8309 14.332C45.0709 14.332 45.2749 14.416 45.4429 14.584C45.6109 14.752 45.6949 14.96 45.6949 15.208C45.6949 15.456 45.6109 15.664 45.4429 15.832C45.2749 16 45.0709 16.084 44.8309 16.084ZM44.8309 11.044C44.5829 11.044 44.3749 10.96 44.2069 10.792C44.0389 10.624 43.9549 10.416 43.9549 10.168C43.9549 9.92 44.0389 9.712 44.2069 9.544C44.3749 9.376 44.5829 9.292 44.8309 9.292C45.0709 9.292 45.2749 9.376 45.4429 9.544C45.6109 9.712 45.6949 9.92 45.6949 10.168C45.6949 10.416 45.6109 10.624 45.4429 10.792C45.2749 10.96 45.0709 11.044 44.8309 11.044ZM50.1335 9.412C50.1815 8.668 50.4655 8.088 50.9855 7.672C51.5135 7.256 52.1855 7.048 53.0015 7.048C53.5615 7.048 54.0455 7.148 54.4535 7.348C54.8615 7.548 55.1695 7.82 55.3775 8.164C55.5855 8.508 55.6895 8.896 55.6895 9.328C55.6895 9.824 55.5575 10.248 55.2935 10.6C55.0295 10.952 54.7135 11.188 54.3455 11.308V11.356C54.8175 11.5 55.1855 11.764 55.4495 12.148C55.7135 12.524 55.8455 13.008 55.8455 13.6C55.8455 14.072 55.7375 14.492 55.5215 14.86C55.3055 15.228 54.9855 15.52 54.5615 15.736C54.1375 15.944 53.6295 16.048 53.0375 16.048C52.1735 16.048 51.4615 15.828 50.9015 15.388C50.3495 14.94 50.0535 14.3 50.0135 13.468H51.3335C51.3655 13.892 51.5295 14.24 51.8255 14.512C52.1215 14.776 52.5215 14.908 53.0255 14.908C53.5135 14.908 53.8895 14.776 54.1535 14.512C54.4175 14.24 54.5495 13.892 54.5495 13.468C54.5495 12.908 54.3695 12.512 54.0095 12.28C53.6575 12.04 53.1135 11.92 52.3775 11.92H52.0655V10.792H52.3895C53.0375 10.784 53.5295 10.676 53.8655 10.468C54.2095 10.26 54.3815 9.932 54.3815 9.484C54.3815 9.1 54.2575 8.796 54.0095 8.572C53.7615 8.34 53.4095 8.224 52.9535 8.224C52.5055 8.224 52.1575 8.34 51.9095 8.572C51.6615 8.796 51.5135 9.076 51.4655 9.412H50.1335Z" fill="#606060"/>
</g>
<defs>
<clipPath id="clip0_1374_62993">
<rect width="220" height="150" fill="white"/>
</clipPath>
</defs>
</svg>
