<svg width="220" height="150" viewBox="0 0 220 150" fill="none" xmlns="http://www.w3.org/2000/svg">
<g clip-path="url(#clip0_1374_63058)">
<rect width="220" height="150" fill="white"/>
<path opacity="0.2" d="M85.4957 139C132.714 139 170.991 136.051 170.991 132.414C170.991 128.776 132.714 125.827 85.4957 125.827C38.2777 125.827 0 128.776 0 132.414C0 136.051 38.2777 139 85.4957 139Z" fill="#4D4D4D"/>
<path d="M95.4911 123.919C95.4911 124.18 95.5237 124.473 95.7193 124.647C95.828 124.745 95.9802 124.799 96.1215 124.843C96.8388 125.071 97.5561 125.288 98.2843 125.516C101.436 126.505 104.827 127.484 107.968 126.462C107.794 124.984 106.61 123.832 105.392 122.962C104.175 122.093 102.817 121.332 102.001 120.082C101.621 119.506 101.371 118.843 100.991 118.267C100.154 117.017 97.2518 115.365 95.7519 116.506C94.4803 117.474 95.4367 122.267 95.5019 123.919H95.4911Z" fill="#3F3D56"/>
<path d="M33.0838 128.343C32.9426 128.441 32.8013 128.55 32.7361 128.702C32.5839 129.06 32.9317 129.43 33.2577 129.658C35.1271 130.919 37.5291 131.343 39.7137 130.81C41.8983 130.278 43.8329 128.778 44.9089 126.8C46.2566 124.311 44.3546 121.865 41.6483 122.539C38.7464 123.257 35.5075 126.637 33.073 128.354L33.0838 128.343Z" fill="#3F3D56"/>
<path d="M86.5121 88.9548C87.0121 89.4656 87.5229 90.009 87.8163 90.6829C88.0228 91.172 88.1533 91.7806 88.5989 92.0088C89.4031 89.2482 89.827 86.3789 89.8814 83.5096C89.9031 82.2271 89.6531 80.9772 89.7292 79.7165C89.8162 78.2057 89.827 76.695 89.7509 75.1843C89.7292 74.8256 89.7075 74.4561 89.5553 74.13C89.4031 73.8039 89.088 73.5322 88.7293 73.5322C88.4684 73.5322 88.2293 73.6735 88.012 73.8257C87.4468 74.2278 86.9903 74.7604 86.6534 75.369C86.3165 75.9777 86.2078 76.6298 85.8709 77.2058C85.1861 78.4122 84.5666 79.5643 84.0232 80.8577C83.4906 82.1619 82.306 84.0422 82.9907 85.4877C83.5776 86.7158 85.5883 87.9983 86.5121 88.9548Z" fill="#40324C"/>
<path d="M73.0142 78.7389C72.6338 79.7714 72.286 80.8257 72.1882 81.9126C72.0361 83.7711 72.623 85.6188 73.3729 87.3251C73.612 87.8794 73.8837 88.4337 74.3185 88.8359C74.8728 89.3467 75.6444 89.5532 76.3944 89.6836C78.7963 90.1184 82.5895 90.9226 83.8937 88.1294C84.2089 87.4664 84.1437 86.8143 84.3176 86.1296C84.5567 85.1731 85.1545 84.2493 85.5783 83.3581C86.4913 81.4235 87.3499 79.478 88.1433 77.489C88.915 75.5218 89.6215 73.4894 89.6649 71.3809C89.7193 69.055 88.7085 67.6095 87.6868 65.664C86.6978 63.762 85.1327 62.2839 83.2633 61.2296C82.0786 60.5666 79.6006 59.6102 78.7202 61.197C78.0899 62.3274 78.4811 64.5011 78.1442 65.7836C76.9921 70.294 74.6445 74.3915 73.0251 78.7281L73.0142 78.7389Z" fill="#A8AAB4"/>
<path d="M95.7504 119.474C96.0439 119.756 96.533 119.8 96.9242 119.669C97.3372 119.539 97.5981 119.202 97.9894 119.039C98.4024 118.865 98.9675 118.822 99.4023 118.724C100.543 118.474 101.706 118.311 102.869 118.235C100.065 113.942 98.7719 108.844 96.5221 104.225C95.37 101.856 93.9571 99.6278 92.4355 97.4867C91.8269 96.628 91.2182 95.6281 90.49 94.8565C89.7618 94.0848 88.8054 93.5196 88.0555 92.748C87.2512 91.9219 86.6969 90.9003 86.1535 89.8786C86.1535 89.4439 85.2622 87.9766 84.9579 87.6614C84.4471 87.1289 83.458 86.7702 82.8277 86.3898C82.4799 86.1833 82.1321 85.9768 81.7517 85.8464C81.2735 85.6725 80.7626 85.6182 80.2627 85.5638C78.252 85.3464 76.3935 85.303 74.6436 84.1944C73.209 83.2814 71.4374 83.1184 69.818 82.7597C68.3181 82.4337 66.59 81.8576 65.0901 82.4989C64.5358 82.738 64.1011 83.1727 63.6989 83.6183C61.96 85.6073 60.8948 88.1397 60.3514 90.7264C59.9058 92.8675 59.2754 94.7695 58.5146 96.8019C57.156 100.399 55.5475 103.921 53.3955 107.116C51.124 110.486 48.2764 113.42 45.4506 116.344C43.5051 118.354 41.5705 120.354 39.625 122.365C42.2117 123.158 44.7224 124.202 47.1135 125.452C48.7981 123.56 51.0044 122.245 53.0695 120.8C57.406 117.757 61.2426 114.018 64.4054 109.768C65.9813 107.66 67.2856 105.345 68.9376 103.247C70.6657 101.041 72.5025 98.9213 74.4262 96.8998C75.1218 96.1716 75.8283 95.4542 76.5565 94.7478C76.6108 94.6934 76.6652 94.65 76.7304 94.6282C76.8717 94.5956 77.0021 94.7152 77.0999 94.8239C78.5454 96.4976 79.4475 98.6713 81.1865 100.052C81.8821 100.595 82.2951 101.193 82.8603 101.812C83.6972 102.714 84.8166 103.464 85.7622 104.258C87.4686 105.703 88.5337 106.997 89.4249 109.007C89.9357 110.149 90.8813 111.235 91.5443 112.301C92.2507 113.409 92.9355 114.529 93.6202 115.659C94.3158 116.811 94.957 117.572 95.4244 118.854C95.4896 119.05 95.5657 119.246 95.6961 119.398C95.7178 119.419 95.7287 119.441 95.7504 119.463V119.474Z" fill="#AF1873"/>
<path d="M84.373 85.6507C84.5034 85.6507 84.6338 85.6398 84.7643 85.629C82.5362 85.705 80.3081 85.4442 78.1344 84.8573C77.5366 84.6943 76.1889 83.9443 75.6129 84.5421C73.9283 86.2811 77.9062 87.2484 78.6996 87.2592C80.5255 87.2701 82.6123 88.27 84.373 87.3462C84.949 87.0419 84.123 86.3354 84.3621 85.6507H84.373Z" fill="#333333"/>
<path d="M75.4699 59.4575C74.6982 59.7074 73.9374 60.0009 73.2092 60.3704C69.8074 62.1094 69.4161 65.1309 68.927 68.6088C68.7314 70.0217 68.8401 71.3586 68.5249 72.7498C68.188 74.2931 67.8293 75.869 66.9489 77.195C65.4599 79.4448 62.7102 80.4882 60.9277 82.5206C60.9603 82.488 64.9817 87.205 65.5686 87.6615C65.949 87.9549 68.7423 89.0635 68.7423 89.4005C69.4161 89.6504 70.09 89.9004 70.7638 90.1504C71.3725 90.3786 72.0572 90.596 72.655 90.346C73.068 90.1721 73.3614 89.8135 73.6114 89.4439C75.6764 86.4551 76.1764 82.6619 77.7958 79.4122C78.2197 78.5536 78.7196 77.7384 79.1761 76.9016C80.4912 74.4779 81.4368 71.8477 81.9693 69.1414C82.1976 67.9676 82.6432 66.359 82.4041 65.1635C82.1758 64.044 81.5129 63.3702 81.9476 62.142C81.9476 61.0878 83.7192 60.327 84.4365 59.9466C85.3386 59.6748 87.2732 58.3923 87.8819 57.7076C88.6861 56.8055 87.9797 55.2187 86.6428 55.2405C86.3929 55.2405 86.1646 55.3709 85.9472 55.4904C83.567 56.7729 81.0564 57.8054 78.4588 58.588C77.4589 58.8814 76.4481 59.1531 75.459 59.4683L75.4699 59.4575Z" fill="#40324C"/>
<path d="M76.5569 81.7374C77.6221 78.9659 78.6002 76.4336 79.4371 73.5751C79.6328 72.9013 79.8284 72.2165 79.9262 71.5101C80.1871 69.5211 79.5458 67.4344 78.2198 65.9345L82.1543 62.1631C82.7738 62.8369 82.8064 64.1955 82.7955 65.1085C82.7303 68.619 81.9586 72.1187 80.524 75.325C80.1436 76.1836 79.7197 77.0205 79.285 77.8465C78.3611 79.6833 77.383 81.3788 76.1113 82.9982C76.2418 82.6939 76.4374 82.0309 76.5569 81.7266V81.7374Z" fill="#544660"/>
<path d="M87.0989 81.304C87.1207 81.63 87.0446 81.9452 86.9794 82.2713C86.8381 82.9125 86.6424 85.4014 85.8925 85.2058C85.6751 85.1515 83.371 82.8473 83.3927 82.7712C83.9579 80.2823 84.5231 77.8043 85.0882 75.3154C85.2078 74.772 85.3382 74.2285 85.2839 73.6742C85.2187 72.9352 84.86 72.2831 84.447 71.6744C84.0122 71.0332 84.0122 70.8484 83.9362 70.0876C84.86 69.4572 85.7838 68.816 86.7185 68.1856C86.8489 68.0986 87.012 68.0117 87.1424 68.0878C87.2076 68.1312 87.2511 68.1965 87.2837 68.2725C87.5554 68.7942 87.8271 69.3159 88.1097 69.8376C88.251 70.1202 88.4032 70.4028 88.4466 70.718C88.5662 71.6418 87.8706 72.0874 87.338 72.7069C86.8055 73.3264 86.599 74.0655 86.4251 74.848C86.0447 76.6196 86.1534 78.4999 86.762 80.2063C86.8924 80.5758 87.0554 80.9345 87.0772 81.3257L87.0989 81.304Z" fill="#1A1A1A"/>
<path d="M83.1445 63.4136C83.188 65.2503 84.0684 67.0545 85.503 68.2175C85.9378 68.5653 86.4486 68.8696 87.0138 68.837C87.4702 68.8044 87.8832 68.5544 88.2093 68.2283C89.3722 67.0654 89.4157 65.2069 89.1875 63.5766C89.0353 62.5006 88.7853 61.4463 88.4484 60.4138C88.2854 59.9139 88.0897 59.4139 87.7093 59.0552C85.0031 56.5229 83.1119 61.3594 83.1663 63.4136H83.1445Z" fill="#91575F"/>
<path d="M73.3945 96.008C73.6988 96.345 74.014 96.6493 74.2205 96.8993C76.2312 99.236 76.6333 102.41 76.9159 105.377C77.1115 107.453 77.3072 109.529 77.5028 111.604C78.068 112.126 79.0462 111.789 79.47 111.148C79.8939 110.507 79.9374 109.713 80.0243 108.953C80.1656 107.681 80.4808 106.42 80.9373 105.225C81.046 105.909 81.1547 106.583 81.2633 107.268C81.9263 106.485 81.6655 105.301 81.3503 104.312C80.0135 100.019 78.6766 95.7146 76.6333 91.715C76.5681 91.5954 73.8618 92.867 73.6445 92.9974C72.0359 94.0082 72.8076 94.356 73.2097 95.8233" fill="#A1616A"/>
<path d="M89.2103 74.7937C89.0582 76.5761 88.7647 78.3477 88.3952 80.0976C87.9604 82.1735 87.4061 84.2385 87.1888 86.3579C86.9714 88.3468 86.9605 90.7814 87.917 92.5856C89.0799 91.5313 90.0363 90.5749 91.0145 89.3033C91.2862 88.9446 91.5688 88.5859 91.6884 88.1512C91.797 87.7382 91.7536 87.3034 91.721 86.8687C91.5797 84.9341 91.7318 82.9995 91.9383 81.0757C92.0688 79.7932 91.9383 78.652 91.8731 77.3913C91.797 75.8262 92.46 74.3046 92.8622 72.8265C93.3295 71.1092 93.7317 69.3811 94.0251 67.6313C94.1555 66.8596 94.2533 66.0553 94.0034 65.3163C93.6556 64.3164 92.6774 63.6316 91.6449 63.436C90.7428 63.2621 89.0147 63.2838 88.5691 64.2185C88.1235 65.1532 88.8408 66.414 88.9386 67.3704C89.0582 68.5008 89.2647 69.6094 89.3081 70.7506C89.3625 72.0983 89.319 73.4568 89.1994 74.8046L89.2103 74.7937Z" fill="#40324C"/>
<path d="M88.9372 77.6078C89.1328 75.5754 89.122 73.5321 89.1872 71.4996C89.1981 71.0432 89.2198 70.5867 89.2415 70.1302C89.2959 68.9673 89.3719 67.7174 90.0893 66.8044C90.1327 66.7392 90.198 66.6849 90.274 66.6957C90.3284 66.6957 90.3719 66.7501 90.4045 66.7935C90.9479 67.4891 91.4261 68.2282 91.8283 69.0107C91.1761 69.4129 90.8392 70.1737 90.6001 70.891C90.1328 72.3148 89.8828 73.8147 89.8828 75.3145C89.8828 75.8253 89.9045 76.3253 89.8828 76.8361C89.8393 77.4991 89.6871 78.1621 89.5024 78.8033C89.2741 79.5968 88.9915 80.3793 88.6655 81.1292C88.3394 81.8792 87.8395 82.6074 87.5352 83.3682C88.046 82.6074 88.2742 81.477 88.4807 80.5967C88.709 79.6185 88.8611 78.6186 88.9481 77.6078H88.9372Z" fill="#544660"/>
<path d="M81.2745 61.7403C81.1767 63.5879 82.3071 65.2291 83.0244 66.9355C83.6439 68.4027 83.72 69.8374 83.9808 71.359C84.9047 71.2829 86.3067 69.6852 86.9914 69.0331C87.4153 69.9461 87.7196 70.9134 87.8609 71.9133C87.8609 71.9459 87.8718 71.9894 87.8935 72.0111C87.9587 72.0763 88.0674 71.9894 88.1109 71.9133C88.5022 71.3046 88.8826 70.6851 89.2738 70.0765C89.4369 69.8156 89.6108 69.5439 89.7303 69.2613C89.8933 68.8918 89.9912 68.5005 90.0781 68.1093C90.2085 67.5658 90.339 67.0224 90.4585 66.4899C90.3824 66.7942 88.8173 67.8593 88.5239 68.131C87.9044 68.6853 87.5675 68.6853 86.8284 68.2614C85.4372 67.468 84.5134 65.9573 84.0569 64.4683C83.7526 63.4793 83.6222 62.3598 84.1004 61.436C84.5025 60.6643 85.3177 60.0122 85.209 59.1427C85.1872 58.9688 85.1112 58.784 84.9699 58.6971C84.796 58.5884 84.5677 58.621 84.3721 58.6753C82.9048 59.0449 81.3506 60.0991 81.2637 61.7511L81.2745 61.7403Z" fill="#BBBDC8"/>
<path d="M92.4026 83.1843C90.0876 83.1191 90.1419 83.3582 89.7398 80.9671C89.6528 80.4454 89.5659 79.8911 89.6855 79.3803C89.805 78.8586 90.1963 78.3695 90.7288 78.2826C90.9788 78.5651 91.2288 78.8586 91.4788 79.1412C91.6418 78.8695 91.8048 78.5651 91.7396 78.25C91.6744 77.9348 91.2179 77.7283 91.0332 77.9782C91.4353 77.4674 93.4895 76.924 94.0981 77.1522C94.8806 77.4348 95.1524 78.4891 95.5219 79.1303C95.598 79.2607 95.674 79.4129 95.6197 79.5542C95.5871 79.652 95.511 79.7172 95.4349 79.7824C94.3481 80.7389 93.5438 81.8475 92.7178 83.0213C92.6852 83.0756 92.6417 83.13 92.5874 83.1517C92.533 83.1734 92.4678 83.1734 92.4026 83.1734V83.1843Z" fill="#A1616A"/>
<path d="M93.4901 77.5645C94.0009 78.5209 94.6421 79.3904 95.4029 80.1512C95.7507 79.6621 96.1094 79.173 96.4572 78.6948C96.5441 78.5752 96.6311 78.4557 96.642 78.3035C96.6528 78.1188 96.5441 77.9557 96.4355 77.8144C96.0116 77.2601 95.3595 76.195 94.6095 76.0537C93.7835 75.9016 93.0879 76.8254 93.4792 77.5536L93.4901 77.5645Z" fill="#BBBDC8"/>
<path d="M102.622 69.6731C102.241 71.0643 101.806 72.5751 101.241 73.8902C100.698 75.1292 99.524 76.216 98.611 77.1833C97.9154 77.9224 97.2089 78.6615 96.5134 79.4005C96.4481 79.4658 96.3829 79.531 96.296 79.5418C96.1982 79.5418 96.1112 79.4658 96.0351 79.4005C95.3069 78.618 94.7418 77.6942 94.0679 76.8682C93.6223 76.3247 93.5788 76.4117 93.8179 75.7378C93.981 75.2705 94.307 74.8031 94.5244 74.3575C94.9591 73.488 95.3722 72.5968 95.7634 71.7056C96.1003 70.9448 96.5894 70.184 95.8612 69.4884C95.6221 69.2601 95.3178 69.108 95.0352 68.9558C94.3831 68.608 93.7419 68.195 93.2419 67.6407C92.9485 67.3147 92.7093 66.9451 92.4702 66.5647C91.9051 65.6409 91.3616 64.641 91.253 63.5541C91.1443 62.4673 91.4703 61.6521 92.155 60.7392C92.742 59.9566 93.1658 59.0545 94.0571 58.5654C95.0787 58.0111 95.5895 59.098 96.3612 59.6306C96.8503 59.9675 97.4046 60.2283 97.8937 60.5761C98.4045 60.9457 98.8392 61.4021 99.2522 61.8695C100.654 63.4454 101.872 65.217 102.6 67.1951C102.73 67.5538 102.85 67.9342 102.861 68.3146C102.861 68.6732 102.785 69.0428 102.687 69.3906C102.665 69.4775 102.643 69.5645 102.611 69.6623L102.622 69.6731Z" fill="#544660"/>
<path d="M87.6745 68.4578C89.4352 68.7512 91.6633 67.2405 92.9132 66.1645C95.3804 64.0342 97.7606 62.1866 98.6083 58.8717C99.13 56.8392 98.9996 54.5568 97.8475 52.7961C97.5323 52.3179 97.1302 51.8723 96.6085 51.6223C96.0542 51.3615 95.413 51.3506 94.7935 51.3506C93.5218 51.3506 92.2285 51.3506 91.0329 51.7745C90.0548 52.1331 89.207 52.7635 88.4245 53.4482C87.0007 54.6981 84.7726 56.7305 84.3813 58.676C83.9792 60.6215 84.8161 62.8822 85.316 64.7298C85.5117 65.4689 85.5334 66.4253 85.8921 67.0883C86.3486 67.9252 86.9789 68.3273 87.6854 68.4469L87.6745 68.4578Z" fill="#A1616A"/>
<path d="M89.3938 59.9571C89.5459 59.9136 89.6981 59.881 89.8503 59.9245C89.9916 59.968 90.1111 60.0875 90.2089 60.1962C91.2741 61.3591 92.2848 62.5764 93.2304 63.8372C95.0455 63.2068 97.2518 63.8154 98.806 62.696C100.012 61.8265 100.36 59.9788 99.5668 58.7289C99.469 58.5659 99.3386 58.4029 99.3277 58.2181C99.3168 58.0334 99.4146 57.8595 99.4907 57.6964C100.404 55.8379 99.9907 53.4685 98.6647 51.8817C97.3279 50.2949 95.2085 49.4689 93.1435 49.5124C91.0784 49.5558 89.0677 50.3927 87.4157 51.6426C85.9919 52.7186 84.992 54.2185 85.3507 56.0553C85.4702 56.6639 85.8072 57.1965 85.905 57.816C86.0789 58.8485 85.7528 59.8593 85.7746 60.8809C86.9701 60.7179 88.2091 60.2723 89.3829 59.9571H89.3938Z" fill="#1A1A1A"/>
<path d="M76.21 100.346L79.2424 98.2914C79.3619 98.2044 79.4924 98.1175 79.5576 97.9762C79.6554 97.7479 79.5141 97.498 79.3728 97.2806C78.4598 95.8894 77.4817 94.52 76.4709 93.2049C76.3839 93.0962 76.2861 92.9766 76.1448 92.9332C75.9492 92.8788 75.7536 93.031 75.6014 93.1723C74.2646 94.3569 73.3842 94.5852 73.9494 96.2807C74.0798 96.6828 76.2535 100.335 76.2318 100.356L76.21 100.346Z" fill="#BBBDC8"/>
<path d="M68.503 70.7826C68.253 72.2607 68.0031 73.7497 67.9922 75.2604C67.9922 76.619 68.177 77.9558 68.3617 79.3035C68.8508 82.825 69.3073 86.3681 70.2529 89.8026C70.6115 91.1177 70.9158 92.7371 71.4919 93.9653C72.1875 95.476 73.6113 96.6933 74.5568 98.0736C74.6546 98.2149 74.7742 98.3779 74.9481 98.3888C75.1111 98.3888 75.2415 98.2801 75.3502 98.1714C76.2523 97.2802 77.1653 96.389 78.0674 95.4977C78.2847 95.2804 78.513 95.0413 78.5565 94.7478C78.5891 94.4544 78.4478 94.1718 78.3174 93.9109C76.0458 89.357 76.1328 84.5639 76.0893 79.5861C76.0676 77.0103 76.111 74.4127 76.6327 71.8803C77.1762 69.261 78.2413 66.6851 78.0891 64.0006C78.0674 63.6528 78.0239 63.2941 77.8609 62.9789C77.6652 62.6202 77.3174 62.3703 76.9914 62.1312C75.9697 61.403 74.8285 60.6422 73.5786 60.74C69.3725 61.0769 69.0138 67.8589 68.5248 70.7826H68.503Z" fill="#544660"/>
<path d="M133.948 101.163H115.135V134.504H133.948V101.163Z" fill="#808080"/>
<path d="M138.268 96.7842V130.336L133.947 134.505V101.163L138.268 96.7842Z" fill="#4D4D4D"/>
<path d="M120.822 96.7842L115.135 101.163H133.948L138.269 96.7842H120.822Z" fill="#999999"/>
<path d="M40.0811 101.163H21.2676V134.504H40.0811V101.163Z" fill="#808080"/>
<path d="M44.401 96.7842V130.336L40.0684 134.505V101.163L44.401 96.7842Z" fill="#4D4D4D"/>
<path d="M26.9548 96.7842L21.2676 101.163H40.0694L44.402 96.7842H26.9548Z" fill="#999999"/>
<path d="M91.2552 119.661L86.5723 121.869L102.595 101.128L106.834 99.2246L91.2552 119.661Z" fill="#4D4D4D"/>
<path d="M101.682 127.135L97.9336 130.72L106.575 105.974L110.009 102.833L101.682 127.135Z" fill="#4D4D4D"/>
<path d="M65.2935 119.463L69.9764 121.682L53.9657 100.93L49.7148 99.0264L65.2935 119.463Z" fill="#4D4D4D"/>
<path d="M98.4478 98.8031L105.443 96.3857L106.833 99.2235L102.594 101.127L86.5712 121.867L82.3203 119.357L98.4478 98.8031Z" fill="#999999"/>
<path d="M102.126 104.865L108.011 100.357L110.23 102.611L106.797 105.753L98.1551 130.499L93.332 129.459L102.126 104.865Z" fill="#999999"/>
<path d="M58.1114 98.6166L51.1045 96.1875L49.7148 99.0253L53.9657 100.929L69.9764 121.681L74.2273 119.158L58.1114 98.6166Z" fill="#999999"/>
<path d="M57.7844 105.087L51.9103 100.579L49.6914 102.833L53.1131 105.974L61.7549 130.72L66.5897 129.669L57.7844 105.087Z" fill="#999999"/>
<path d="M58.1683 127.135L61.917 130.72L53.2752 105.974L49.8418 102.833L58.1683 127.135Z" fill="#4D4D4D"/>
<path d="M121.347 76.2655L121.148 75.9619Z" fill="#AF1873"/>
<path d="M82.4707 114.371C83.1247 113.074 84.1056 111.953 85.2968 111.112C85.4603 111.007 85.6355 110.89 85.8223 110.902C86.161 110.914 86.3829 111.288 86.4179 111.638C86.4997 112.42 85.9858 113.179 85.3202 113.612C84.6545 114.044 83.8604 114.219 83.0896 114.371" fill="#999999"/>
<path d="M73.7377 112.607C72.6166 111.825 71.9042 110.493 71.8809 109.127C73.1187 109.781 74.1698 110.785 74.8705 112C74.9989 112.222 75.1157 112.479 75.0573 112.724C74.9989 112.969 74.6719 113.156 74.4734 112.992" fill="#999999"/>
<path d="M55.0042 128.806C53.4627 127.322 52.1548 125.594 51.1621 123.702C53.5561 123.702 55.6348 126.131 55.2962 128.502" fill="#999999"/>
<path d="M105.875 132.016L110.581 129.657C110.908 130.685 110.044 131.771 109.016 132.098C107.989 132.425 106.879 132.191 105.84 131.958" fill="#999999"/>
<rect x="0.332031" width="66" height="24" rx="12" fill="#F0F0F0"/>
<path d="M11.98 16.084C11.42 16.084 10.916 15.988 10.468 15.796C10.02 15.596 9.66803 15.316 9.41203 14.956C9.15603 14.596 9.02803 14.176 9.02803 13.696H10.492C10.524 14.056 10.664 14.352 10.912 14.584C11.168 14.816 11.524 14.932 11.98 14.932C12.452 14.932 12.82 14.82 13.084 14.596C13.348 14.364 13.48 14.068 13.48 13.708C13.48 13.428 13.396 13.2 13.228 13.024C13.068 12.848 12.864 12.712 12.616 12.616C12.376 12.52 12.04 12.416 11.608 12.304C11.064 12.16 10.62 12.016 10.276 11.872C9.94003 11.72 9.65203 11.488 9.41203 11.176C9.17203 10.864 9.05203 10.448 9.05203 9.928C9.05203 9.448 9.17203 9.028 9.41203 8.668C9.65203 8.308 9.98803 8.032 10.42 7.84C10.852 7.648 11.352 7.552 11.92 7.552C12.728 7.552 13.388 7.756 13.9 8.164C14.42 8.564 14.708 9.116 14.764 9.82H13.252C13.228 9.516 13.084 9.256 12.82 9.04C12.556 8.824 12.208 8.716 11.776 8.716C11.384 8.716 11.064 8.816 10.816 9.016C10.568 9.216 10.444 9.504 10.444 9.88C10.444 10.136 10.52 10.348 10.672 10.516C10.832 10.676 11.032 10.804 11.272 10.9C11.512 10.996 11.84 11.1 12.256 11.212C12.808 11.364 13.256 11.516 13.6 11.668C13.952 11.82 14.248 12.056 14.488 12.376C14.736 12.688 14.86 13.108 14.86 13.636C14.86 14.06 14.744 14.46 14.512 14.836C14.288 15.212 13.956 15.516 13.516 15.748C13.084 15.972 12.572 16.084 11.98 16.084ZM18.0702 10.504V14.164C18.0702 14.412 18.1262 14.592 18.2382 14.704C18.3582 14.808 18.5582 14.86 18.8382 14.86H19.6782V16H18.5982C17.9822 16 17.5102 15.856 17.1822 15.568C16.8542 15.28 16.6902 14.812 16.6902 14.164V10.504H15.9102V9.388H16.6902V7.744H18.0702V9.388H19.6782V10.504H18.0702ZM20.4831 12.664C20.4831 12 20.6191 11.412 20.8911 10.9C21.1711 10.388 21.5471 9.992 22.0191 9.712C22.4991 9.424 23.0271 9.28 23.6031 9.28C24.1231 9.28 24.5751 9.384 24.9591 9.592C25.3511 9.792 25.6631 10.044 25.8951 10.348V9.388H27.2751V16H25.8951V15.016C25.6631 15.328 25.3471 15.588 24.9471 15.796C24.5471 16.004 24.0911 16.108 23.5791 16.108C23.0111 16.108 22.4911 15.964 22.0191 15.676C21.5471 15.38 21.1711 14.972 20.8911 14.452C20.6191 13.924 20.4831 13.328 20.4831 12.664ZM25.8951 12.688C25.8951 12.232 25.7991 11.836 25.6071 11.5C25.4231 11.164 25.1791 10.908 24.8751 10.732C24.5711 10.556 24.2431 10.468 23.8911 10.468C23.5391 10.468 23.2111 10.556 22.9071 10.732C22.6031 10.9 22.3551 11.152 22.1631 11.488C21.9791 11.816 21.8871 12.208 21.8871 12.664C21.8871 13.12 21.9791 13.52 22.1631 13.864C22.3551 14.208 22.6031 14.472 22.9071 14.656C23.2191 14.832 23.5471 14.92 23.8911 14.92C24.2431 14.92 24.5711 14.832 24.8751 14.656C25.1791 14.48 25.4231 14.224 25.6071 13.888C25.7991 13.544 25.8951 13.144 25.8951 12.688ZM31.7359 9.28C32.2479 9.28 32.6999 9.384 33.0919 9.592C33.4919 9.792 33.8039 10.044 34.0279 10.348V9.388H35.4079V16.108C35.4079 16.716 35.2799 17.256 35.0239 17.728C34.7679 18.208 34.3959 18.584 33.9079 18.856C33.4279 19.128 32.8519 19.264 32.1799 19.264C31.2839 19.264 30.5399 19.052 29.9479 18.628C29.3559 18.212 29.0199 17.644 28.9399 16.924H30.2959C30.3999 17.268 30.6199 17.544 30.9559 17.752C31.2999 17.968 31.7079 18.076 32.1799 18.076C32.7319 18.076 33.1759 17.908 33.5119 17.572C33.8559 17.236 34.0279 16.748 34.0279 16.108V15.004C33.7959 15.316 33.4799 15.58 33.0799 15.796C32.6879 16.004 32.2399 16.108 31.7359 16.108C31.1599 16.108 30.6319 15.964 30.1519 15.676C29.6799 15.38 29.3039 14.972 29.0239 14.452C28.7519 13.924 28.6159 13.328 28.6159 12.664C28.6159 12 28.7519 11.412 29.0239 10.9C29.3039 10.388 29.6799 9.992 30.1519 9.712C30.6319 9.424 31.1599 9.28 31.7359 9.28ZM34.0279 12.688C34.0279 12.232 33.9319 11.836 33.7399 11.5C33.5559 11.164 33.3119 10.908 33.0079 10.732C32.7039 10.556 32.3759 10.468 32.0239 10.468C31.6719 10.468 31.3439 10.556 31.0399 10.732C30.7359 10.9 30.4879 11.152 30.2959 11.488C30.1119 11.816 30.0199 12.208 30.0199 12.664C30.0199 13.12 30.1119 13.52 30.2959 13.864C30.4879 14.208 30.7359 14.472 31.0399 14.656C31.3519 14.832 31.6799 14.92 32.0239 14.92C32.3759 14.92 32.7039 14.832 33.0079 14.656C33.3119 14.48 33.5559 14.224 33.7399 13.888C33.9319 13.544 34.0279 13.144 34.0279 12.688ZM43.2647 12.532C43.2647 12.78 43.2487 13.004 43.2167 13.204H38.1647C38.2047 13.732 38.4007 14.156 38.7527 14.476C39.1047 14.796 39.5367 14.956 40.0487 14.956C40.7847 14.956 41.3047 14.648 41.6087 14.032H43.0847C42.8847 14.64 42.5207 15.14 41.9927 15.532C41.4727 15.916 40.8247 16.108 40.0487 16.108C39.4167 16.108 38.8487 15.968 38.3447 15.688C37.8487 15.4 37.4567 15 37.1687 14.488C36.8887 13.968 36.7487 13.368 36.7487 12.688C36.7487 12.008 36.8847 11.412 37.1567 10.9C37.4367 10.38 37.8247 9.98 38.3207 9.7C38.8247 9.42 39.4007 9.28 40.0487 9.28C40.6727 9.28 41.2287 9.416 41.7167 9.688C42.2047 9.96 42.5847 10.344 42.8567 10.84C43.1287 11.328 43.2647 11.892 43.2647 12.532ZM41.8367 12.1C41.8287 11.596 41.6487 11.192 41.2967 10.888C40.9447 10.584 40.5087 10.432 39.9887 10.432C39.5167 10.432 39.1127 10.584 38.7767 10.888C38.4407 11.184 38.2407 11.588 38.1767 12.1H41.8367ZM45.1629 16.084C44.9149 16.084 44.7069 16 44.5389 15.832C44.3709 15.664 44.2869 15.456 44.2869 15.208C44.2869 14.96 44.3709 14.752 44.5389 14.584C44.7069 14.416 44.9149 14.332 45.1629 14.332C45.4029 14.332 45.6069 14.416 45.7749 14.584C45.9429 14.752 46.0269 14.96 46.0269 15.208C46.0269 15.456 45.9429 15.664 45.7749 15.832C45.6069 16 45.4029 16.084 45.1629 16.084ZM45.1629 11.044C44.9149 11.044 44.7069 10.96 44.5389 10.792C44.3709 10.624 44.2869 10.416 44.2869 10.168C44.2869 9.92 44.3709 9.712 44.5389 9.544C44.7069 9.376 44.9149 9.292 45.1629 9.292C45.4029 9.292 45.6069 9.376 45.7749 9.544C45.9429 9.712 46.0269 9.92 46.0269 10.168C46.0269 10.416 45.9429 10.624 45.7749 10.792C45.6069 10.96 45.4029 11.044 45.1629 11.044ZM50.3215 14.176V13.144L54.3535 7.36H56.0095V12.988H57.1255V14.176H56.0095V16H54.6655V14.176H50.3215ZM54.7255 8.752L51.8935 12.988H54.7255V8.752Z" fill="#606060"/>
</g>
<defs>
<clipPath id="clip0_1374_63058">
<rect width="220" height="150" fill="white"/>
</clipPath>
</defs>
</svg>
