<svg width="220" height="150" viewBox="0 0 220 150" fill="none" xmlns="http://www.w3.org/2000/svg">
<g clip-path="url(#clip0_1374_62893)">
<rect width="220" height="150" fill="white"/>
<path d="M68.9112 108.399C89.8782 108.399 106.875 91.4016 106.875 70.4347C106.875 49.4678 89.8782 32.4707 68.9112 32.4707C47.9443 32.4707 30.9473 49.4678 30.9473 70.4347C30.9473 91.4016 47.9443 108.399 68.9112 108.399Z" fill="#F3F2F4"/>
<path d="M0 115.955C53.6312 115.278 113.809 115.267 167.45 115.955C113.819 116.643 53.6416 116.633 0 115.955Z" fill="#C1C1C1"/>
<path d="M115.946 117.363C118.135 118.958 120.928 118.812 120.928 118.812C120.928 118.812 117.249 118.082 115.914 116.3C115.873 116.248 115.831 116.185 115.789 116.133C117.322 116.352 119.083 116.331 120.908 116.248C121.523 116.467 122.502 116.884 123.42 117.624C124.91 118.812 126.359 119.26 127.652 119.448C127.652 119.448 125.046 118.374 124.274 117.29C123.493 116.217 127.548 116.915 130.143 118.291C130.143 118.291 131.331 119.104 131.373 119.698C131.415 120.292 129.622 119.771 129.622 119.771C129.622 119.771 131.446 120.918 131.707 119.813C131.707 119.813 133.562 120.522 133.01 123.159C133.01 123.159 135.001 121.345 131.634 118.739C131.634 118.739 134.052 119 134.834 120.042C134.834 120.042 135.167 118.708 131.561 118.072C131.561 118.072 130.154 117.103 128.256 116.842C128.256 116.842 130.227 116.435 132.009 117.395C132.009 117.395 131.457 116.019 127.214 116.654C127.214 116.654 126.172 116.279 124.65 116.279C123.795 116.279 123.253 116.227 122.753 116.123C127.892 115.748 133.135 115.174 135.115 117.28C135.115 117.28 135.032 116.185 133.041 115.57H112.568C113.652 115.935 114.945 116.602 115.967 117.353L115.946 117.363Z" fill="#D375B1"/>
<path d="M27.082 117.29C29.0313 115.205 34.1912 115.778 39.278 116.153C38.7568 116.268 38.2044 116.299 37.3183 116.299C35.7964 116.299 34.7541 116.664 34.7541 116.664C30.5219 116.028 29.959 117.404 29.959 117.404C31.7415 116.435 33.7117 116.841 33.7117 116.841C31.8145 117.102 30.4073 118.071 30.4073 118.071C26.8006 118.707 27.1342 120.042 27.1342 120.042C27.9055 118.999 30.3343 118.739 30.3343 118.739C26.9674 121.345 28.9583 123.158 28.9583 123.158C28.4059 120.521 30.2613 119.812 30.2613 119.812C30.5219 120.928 32.3461 119.771 32.3461 119.771C32.3461 119.771 30.5636 120.292 30.5949 119.698C30.6366 119.103 31.8249 118.29 31.8249 118.29C34.4309 116.914 38.4754 116.206 37.6936 117.29C36.9118 118.363 34.3162 119.447 34.3162 119.447C35.6192 119.26 37.0682 118.811 38.5484 117.623C39.4865 116.873 40.4872 116.445 41.0918 116.237C42.8847 116.331 44.6255 116.351 46.1474 116.164C46.1161 116.206 46.0849 116.247 46.0536 116.278C44.7193 118.061 41.0397 118.77 41.0397 118.77C41.0397 118.77 43.8229 118.957 46.0223 117.363C47.0439 116.612 48.3364 115.945 49.4205 115.58H29.1668C27.1654 116.185 27.0925 117.29 27.0925 117.29H27.082Z" fill="#D375B1"/>
<path d="M103.113 115.632C103.113 115.632 103.175 115.58 103.279 115.58H58.9151C59.0193 115.58 59.0819 115.632 59.0819 115.632C58.7796 115.601 58.4669 115.58 58.1333 115.58H57.7789C56.4133 115.58 54.7664 115.768 52.8067 116.362C52.2855 116.143 51.4932 115.893 50.6593 116.101C48.8039 116.55 48.5745 117.081 46.5731 117.383C46.5731 117.383 47.5009 117.519 50.0339 116.633C50.8053 116.362 51.3577 116.466 51.7121 116.654C51.1388 116.852 50.5551 117.071 49.9401 117.331C45.9269 118.999 40.6315 119.781 35.7322 119.781C30.833 119.781 30.3848 124.128 30.3848 124.128C30.3848 124.128 32.1151 120.834 37.1812 120.896C37.2541 120.896 37.3375 120.896 37.4209 120.896C37.1291 121.397 36.5245 122.345 35.7114 123.231C35.1694 123.325 34.4814 123.367 33.9081 123.158C32.7927 122.752 31.8233 123.711 30.7913 125.608C30.7913 125.608 32.5738 123.565 33.3973 123.68C34.0748 123.773 34.471 123.94 35.2006 123.763C35.086 123.878 34.9609 123.982 34.8462 124.086C32.4279 126.171 33.2097 128.547 33.2097 128.547C33.1367 127.099 34.4814 125.108 35.8156 124.159C36.2013 123.888 36.5453 123.575 36.8372 123.242C36.7851 124.055 37.0352 124.68 37.4522 125.566C37.9734 126.682 37.6711 128.172 37.6711 128.172C38.0047 127.203 38.3382 126.129 37.6711 125.087C37.2333 124.409 37.2854 123.294 37.3792 122.595C37.9108 121.887 38.2444 121.209 38.4008 120.886C39.7767 120.844 41.3716 120.709 43.3 120.406C43.1437 120.573 42.9873 120.771 42.8309 121.001C42.0387 121.053 40.6628 121.543 39.6725 122.502C38.8594 123.294 37.6711 123.617 37.6711 123.617C37.6711 123.617 38.7448 123.919 39.7142 123.096C40.694 122.262 41.8615 121.918 42.3306 121.803C42.2055 122.022 42.0804 122.251 41.9449 122.502C41.0172 124.253 38.7135 125.441 38.7135 125.441C40.8296 125.222 42.1325 123.21 42.9456 121.803C43.3417 121.115 44.2486 120.531 45.0825 120.104C47.2403 119.698 49.7733 119.093 52.7962 118.228C53.1819 118.113 53.5676 118.019 53.9429 117.936C52.0353 119.176 51.8268 120.531 51.8268 120.531C52.5669 119.187 54.7142 118.082 55.7775 117.602C57.8727 117.321 59.6969 117.415 61.1875 117.654C59.5718 117.78 58.7691 118.488 57.9978 119.531C57.143 120.677 54.1305 120.427 54.1305 120.427C55.913 120.834 57.4766 121.136 59.4467 119.427C60.8122 118.249 62.7719 118.238 63.856 118.342C64.9922 118.749 65.6177 119.135 65.6177 119.135C65.6177 119.135 65.232 119.969 63.2514 120.573C62.4488 120.375 60.7601 119.854 61.4168 119.103C61.4168 119.103 59.822 119.906 62.3967 120.792C60.7914 121.136 58.4147 121.324 54.9123 121.032C53.4634 120.917 52.1812 120.865 51.0346 120.875C50.43 120.386 49.0123 119.614 46.4793 120.25C46.4793 120.25 48.9394 119.916 50.0756 120.896C44.405 121.157 42.3097 123.148 40.423 126.379C40.4126 126.4 40.3917 126.421 40.3813 126.452C39.9539 126.598 39.0992 126.796 38.6405 126.202C38.6405 126.202 38.8386 127.161 40.1624 126.807C37.817 130.32 34.398 129.173 34.398 129.173C36.1805 130.455 38.234 130.142 40.0061 128.881C39.8914 133.04 37.7858 133.52 37.7858 133.52C40.2771 133.332 40.8608 129.413 40.9859 128.068C41.6009 127.463 42.1742 126.744 42.6537 125.941C43.4877 124.555 45.0095 123.857 47.0839 123.554C46.5106 124.482 45.1659 126.254 43.0603 126.765C43.0603 126.765 45.979 126.723 47.9074 123.45C48.2305 123.419 48.5641 123.398 48.8977 123.377C48.1993 124.201 48.0742 125.441 47.3445 126.911C42.0596 126.442 41.455 129.767 41.455 129.767C42.758 127.578 45.6454 127.432 47.0109 127.505C46.8337 127.797 46.6357 128.089 46.3959 128.391C44.2069 131.143 42.341 128.985 41.0068 131.247C39.193 134.312 41.5592 136.897 41.5592 136.897C41.1214 136.074 40.5794 133.311 41.6426 131.768C41.5071 132.79 42.9873 133.666 43.8212 134.781C44.8949 136.23 43.6023 137.721 43.6023 137.721C46.0207 135.969 43.6753 134.041 42.6016 132.853C41.9241 132.102 42.2993 131.372 42.6746 130.935C42.9143 130.83 43.1854 130.768 43.4877 130.737C44.0818 130.674 44.5926 130.58 45.0408 130.455C44.8219 131.112 44.3111 133.061 45.3118 134.75C46.5419 136.835 46.8754 137.689 45.9477 139.242C45.9477 139.242 47.8449 138.012 46.5002 135.709C45.6767 134.281 45.3014 133.04 45.4474 131.831C45.562 132.383 45.8539 132.936 46.5419 133.186C47.0631 133.374 47.9491 134.114 48.2097 135.896C48.2097 135.896 48.5433 133.332 46.8337 132.738C46.0519 132.467 45.833 131.164 46.0102 130.101C46.0207 130.08 46.0311 130.059 46.0415 130.038C47.0214 129.496 47.6155 128.641 48.1889 127.432C48.2618 127.901 48.4911 128.62 49.1791 129.621C49.1791 129.621 48.4494 127.932 48.7622 126.108C48.7622 126.108 48.7622 126.098 48.7622 126.087C49.4085 124.524 50.5342 123.742 51.4411 123.346C53.5885 123.388 56.0277 123.565 58.6858 123.711C59.0297 123.732 59.3737 123.742 59.7073 123.742C59.1236 124.128 58.1958 124.493 56.6739 124.784C56.6218 124.795 56.5697 124.805 56.5176 124.816C56.0068 124.513 55.0791 124.159 53.7031 124.378C52.2542 124.597 51.1388 126.942 50.0652 127.015C50.0652 127.015 50.774 127.568 52.6295 125.566C53.4738 124.659 54.6308 124.639 55.3918 125.149C53.307 125.962 52.348 127.536 51.3994 128.912C49.7629 131.289 46.4585 131.477 46.4585 131.477C48.9915 132.008 50.847 130.778 52.1604 129.173C52.1499 129.506 52.2333 129.934 52.5878 130.393C52.5878 130.393 52.3689 129.559 52.5669 128.631C52.6607 128.495 52.7545 128.37 52.8484 128.235C53.4946 127.265 54.7247 126.463 56.1736 125.941C53.7761 127.87 54.2556 129.642 54.2556 129.642C54.6204 127.755 56.455 126.233 57.3202 125.608C57.8101 125.493 58.3105 125.41 58.8213 125.368C59.2799 125.326 59.6865 125.222 60.0409 125.076C60.291 125.983 59.8428 126.723 58.446 127.109C56.2883 127.703 55.9547 128.964 55.9547 128.964C56.1006 128.631 57.2577 127.995 59.3008 127.401C60.9582 126.921 60.8852 125.285 60.7914 124.691C61.3126 124.357 61.6983 123.961 61.9589 123.638C63.5746 123.492 65.0235 123.19 66.2848 122.814C65.774 123.179 64.9818 123.586 63.856 124.138C61.5732 125.254 62.7407 127.203 62.7407 127.203C62.5739 125.201 63.5225 124.972 65.92 123.971C66.1076 123.898 66.2848 123.805 66.4516 123.721C66.7852 125.139 65.6177 125.994 65.6177 125.994C67.0875 125.42 67.077 123.94 67.0249 123.388C67.7442 122.929 68.2758 122.408 68.6302 121.97C70.6837 121.094 71.8199 120.229 71.8199 120.229C70.5899 125.003 67.1396 126.442 62.355 127.776C61.74 127.422 61.1354 126.661 61.6774 125.076C61.6774 125.076 60.2806 126.817 61.6983 127.964C59.7282 128.506 57.5495 129.048 55.2146 129.819C53.4529 130.403 52.1291 131.226 51.1388 132.175C50.3049 132.488 48.7517 132.821 47.0422 131.956C47.0422 131.956 48.2201 133.405 50.5447 132.8C47.3549 136.574 48.6267 141.734 48.6267 141.734C48.6996 138.534 49.8254 136.282 51.5349 134.635C50.1277 137.429 52.0874 138.085 52.0874 138.085C50.7948 137.085 51.806 135.042 52.8171 133.582C55.0582 132.008 57.9248 131.122 60.7497 130.413C60.4161 130.955 59.8949 131.696 59.207 132.467C58.519 132.311 57.0596 132.185 55.5482 133.342C53.4529 134.927 52.4001 135.156 52.4001 135.156C52.4001 135.156 53.5989 135.323 55.5794 133.905C56.8094 133.019 57.8623 132.926 58.5815 133.124C57.7997 133.885 56.8511 134.604 55.7358 135.115C54.0471 135.896 52.9734 137.199 52.3167 138.669C49.544 139.357 49.7837 142.14 49.7837 142.14C50.3466 140.003 51.5454 139.555 52.0144 139.451C51.5871 140.723 51.4203 142.067 51.4203 143.287C51.4203 143.287 52.004 137.585 56.2883 135.876C55.7045 136.491 55.0165 137.408 54.5996 138.607C54.5162 138.846 54.4432 139.086 54.3807 139.347C53.8595 139.607 52.5669 140.431 52.1499 142.37C52.1499 142.37 53.0881 140.337 54.2243 140.003C53.8699 141.525 53.5572 143.11 52.3793 143.548C52.3793 143.548 53.6301 143.954 54.2764 141.723C54.8914 139.597 55.0999 137.585 57.6955 135.25C59.134 134.468 60.1764 133.405 60.9269 132.373C60.5308 133.77 59.0402 135.615 59.0402 135.615C61.0624 134.208 61.6879 131.675 61.8234 130.955C62.011 130.622 62.1569 130.309 62.2924 130.028C63.1159 129.83 63.929 129.642 64.7004 129.454C67.1917 128.829 69.2348 127.766 70.8609 126.567C70.371 127.776 68.7136 129.006 68.7136 129.006C70.5899 128.141 71.4551 126.588 71.7886 125.837C75.0722 123.075 76.4065 119.979 76.4065 119.979C76.4065 122.095 75.1243 125.483 73.3314 128.078C72.7685 127.932 71.4238 127.776 69.6934 128.819C66.9102 130.486 65.5968 130.966 63.8665 130.049C63.8665 130.049 65.1486 131.696 67.692 130.58C66.6184 132.039 67.0666 132.998 67.0666 132.998C67.0041 131.914 67.9631 130.747 68.5572 130.121C70.6107 128.902 71.6844 128.714 72.5809 129.058C71.9242 129.861 71.2153 130.549 70.4857 131.018C69.4641 131.675 68.2654 132.456 67.2021 133.447C66.6601 133.322 65.7428 133.176 64.6587 133.249C63.7726 132.832 62.6573 131.977 62.8345 130.34C62.8345 130.34 62.1257 132.321 63.8143 133.353C62.7198 133.551 61.5315 134.02 60.4682 134.969C59.9679 135.417 59.5405 135.959 59.1757 136.553C58.5294 136.553 57.4766 136.803 56.6739 138.096C55.4439 140.076 55.0582 142.14 53.724 143.308C53.724 143.308 54.7559 143.256 55.84 140.608C56.7365 138.429 57.7685 137.377 58.8004 137.199C58.2584 138.2 57.8414 139.284 57.4036 140.285C56.8928 140.9 56.111 141.702 55.3084 141.963C55.3084 141.963 56.1423 141.807 57.07 141.025C56.2883 142.672 55.3918 143.902 53.7135 143.777C53.7135 143.777 55.8296 145.059 57.3932 142.328C58.1854 140.931 59.0193 138.648 60.4474 136.96C59.8428 138.388 59.9888 139.816 60.2181 141.4C56.3404 143.506 57.3411 146.435 57.3411 146.435C57.4036 143.871 59.478 142.547 60.3223 142.109C60.3536 142.349 60.3953 142.589 60.4266 142.839C60.8018 145.778 58.9776 146.852 58.9776 146.852C62.0214 146.331 60.9061 142.432 60.6872 139.68C60.5621 138.106 61.4585 136.657 62.2507 135.719C61.4898 137.022 62.3967 138.419 62.3967 138.419C61.9276 136.501 62.9075 135.438 63.6892 134.906C64.346 134.771 65.0861 134.739 65.9095 134.875C65.2841 135.698 64.7838 136.626 64.5232 137.7C63.4391 137.981 61.5523 138.825 61.4794 141.4C61.4377 142.745 61.7295 143.464 62.1257 144.069C62.3863 144.986 62.6886 146.57 62.1048 147.644C62.1048 147.644 63.1055 146.675 62.7824 144.955C63.2931 145.653 63.7726 146.518 63.856 148.353C63.856 148.353 64.6378 146.789 62.9596 144.048C62.4071 143.151 62.1882 142.307 62.209 141.567C62.6469 143.589 64.4606 143.277 64.4606 143.277C62.8658 143.141 62.5635 141.338 62.5322 140.327C62.8866 139.649 63.5225 139.149 64.3355 138.919C64.2521 140.056 64.4189 141.327 64.9297 142.755C64.9297 142.766 64.9401 142.787 64.9505 142.797C64.8046 143.12 63.8977 145.257 65.1069 146.216C66.4203 147.248 66.8581 147.582 67.421 149.281C67.421 149.281 67.3897 147.415 65.92 146.299C64.815 145.466 65.159 144.35 65.4092 143.839C67.9318 148.832 74.0715 150 74.0715 150C71.3821 149.02 68.2862 146.748 66.7122 143.954C68.9012 143.662 72.4662 146.602 72.4662 146.602C69.9332 143.381 67.3481 142.818 66.1389 142.745C65.4717 140.983 65.4613 139.065 66.5141 137.158C66.462 139.076 67.5044 141.192 70.569 141.702C70.8922 141.755 71.1945 141.838 71.4759 141.932C72.0492 142.557 73.1646 144.069 73.3001 146.466C73.3001 146.466 73.4773 143.975 72.5496 142.463C75.0201 144.11 74.8637 147.561 74.8637 147.561C75.9791 143.495 73.5294 141.202 69.683 140.149C67.5253 139.555 67.5565 137.595 68.0048 135.99C68.2862 136.793 68.9638 137.825 70.6316 138.367C70.6316 138.367 68.1298 136.532 68.8282 134.458C69.5162 133.874 70.3293 133.301 71.2779 132.738C71.7991 132.436 72.289 132.092 72.7789 131.716C72.7164 132.655 72.5392 134.301 72.0597 135.771C71.5802 136.188 70.5482 136.835 69.4641 135.855C69.4641 135.855 70.444 137.45 71.8095 136.636C71.403 138.45 71.7782 140.16 73.7588 141.067C73.7588 141.067 71.6636 139.701 72.5913 136.24C72.7268 135.75 72.8623 135.292 73.0082 134.854C73.1229 135.667 73.4044 136.574 74.0402 137.022C75.5725 138.106 75.6247 140.42 75.6247 140.42C75.708 139.607 75.9895 137.971 74.3425 136.657C73.5503 136.021 73.4044 134.614 73.4044 133.686C73.7066 132.863 73.9777 132.133 74.1861 131.445C74.1861 132.644 74.3842 134.062 75.093 135.459C75.7185 136.678 76.2918 137.96 76.74 139.274C76.3022 139.962 75.2181 142.078 76.0103 144.882C76.0103 144.882 75.6768 141.327 77.011 140.139C77.8345 142.912 78.0326 145.789 76.8755 148.509C76.8755 148.509 78.7727 146.643 78.658 142.953C79.1792 144.1 80.3988 147.154 79.7734 149.291C79.7734 149.291 81.4725 146.049 78.4912 141.4C78.3766 140.733 78.1994 140.014 77.9283 139.253C77.6782 138.513 77.428 137.846 77.2091 137.241C77.7511 137.512 78.5955 138.356 79.6066 140.816C79.6066 140.816 78.9499 136.907 76.7192 135.896C75.8644 133.561 75.4058 132.071 75.6976 130.194C75.9999 131.539 76.6462 132.832 77.6573 133.791C79.6587 135.688 80.1695 139.472 80.1695 139.472C80.2737 137.648 80.0236 136.178 79.3564 134.844C81.8582 134.739 82.1188 132.446 82.1188 132.446C81.4516 133.989 79.7421 134.124 78.9395 134.103C78.6059 133.582 78.1994 133.071 77.7199 132.561C77.5322 132.363 77.3863 132.133 77.2612 131.873C77.8241 131.748 78.7831 131.153 79.1688 128.714C79.1688 128.714 78.0951 131.414 76.9277 130.778C76.7087 129.673 76.7609 128.402 76.8443 127.495C77.7824 126.254 78.5746 125.003 79.2105 123.898C80.034 125.108 79.0541 127.588 79.0541 127.588C80.3988 125.452 80.034 123.794 79.7004 123.012C80.5552 121.438 81.0034 120.344 81.0034 120.344C81.0034 120.344 81.535 121.605 82.5357 123.367C82.494 124.295 82.2543 125.525 81.4516 126.588C79.3356 129.371 79.617 131.602 79.7213 132.832C79.7213 132.832 79.6066 129.715 82.1188 127.317C82.8589 126.609 83.255 125.743 83.4426 124.878C83.943 125.681 84.5163 126.525 85.1626 127.37C85.2564 128.276 85.3189 129.611 85.0896 130.768C83.9221 131.393 82.8484 128.704 82.8484 128.704C83.2341 131.143 84.1827 131.737 84.756 131.862C84.6309 132.123 84.485 132.363 84.2974 132.55C82.4002 134.552 81.681 136.563 81.8477 139.461C81.8477 139.461 82.3481 135.667 84.3599 133.78C85.3815 132.821 86.0173 131.529 86.3196 130.184C86.6115 132.081 86.132 133.593 85.2564 135.99C82.0458 137.762 81.1285 143.589 81.1285 143.589C82.2543 139.597 83.8179 138.044 84.7143 137.46C84.5163 138.002 84.2974 138.596 84.0785 139.242C83.7032 140.316 83.4947 141.306 83.4113 142.192C83.0882 143.12 82.567 144.486 81.8582 145.872C81.8582 145.872 82.6712 144.976 83.3696 143.662C83.4947 146.862 85.1521 148.488 85.1521 148.488C83.9847 145.768 84.1827 142.901 85.0166 140.118C86.3509 141.306 86.0173 144.861 86.0173 144.861C86.8095 142.057 85.7255 139.941 85.2876 139.253C85.7359 137.95 86.3092 136.668 86.9346 135.438C87.6435 134.041 87.8519 132.623 87.8415 131.424C88.0396 132.112 88.321 132.853 88.6233 133.666C88.6233 134.593 88.4878 136.001 87.6852 136.636C86.0382 137.95 86.3196 139.586 86.403 140.4C86.403 140.4 86.4551 138.085 87.9874 137.001C88.6233 136.553 88.9048 135.646 89.0194 134.833C89.1654 135.271 89.3009 135.73 89.4364 136.219C90.3537 139.68 88.2689 141.046 88.2689 141.046C90.239 140.149 90.6143 138.429 90.2182 136.616C91.5837 137.429 92.5636 135.834 92.5636 135.834C91.4899 136.814 90.4475 136.167 89.968 135.75C89.4781 134.229 89.3009 132.529 89.2487 131.602C89.7699 132.008 90.3016 132.383 90.8645 132.707C91.7401 133.228 92.501 133.749 93.1473 134.291C94.0021 136.428 91.3961 138.336 91.3961 138.336C93.0535 137.783 93.7415 136.751 94.0229 135.959C94.4711 137.564 94.5024 139.524 92.3446 140.118C88.4982 141.181 86.0486 143.464 87.164 147.529C87.164 147.529 87.0076 144.079 89.4781 142.432C88.5399 143.944 88.7275 146.435 88.7275 146.435C88.8735 144.037 89.9784 142.526 90.5517 141.901C90.8332 141.807 91.125 141.723 91.4586 141.671C94.6379 141.14 95.649 138.878 95.4927 136.897C96.6914 138.878 96.7123 140.879 96.0347 142.703C94.8985 142.734 92.1987 143.204 89.5615 146.57C89.5615 146.57 93.2828 143.506 95.451 143.944C93.8874 146.727 90.8228 148.989 88.1334 149.969C88.1334 149.969 94.1167 148.832 96.7123 144.017C96.9312 144.579 97.0771 145.528 96.1077 146.258C94.6275 147.373 94.6066 149.239 94.6066 149.239C95.1591 147.54 95.6073 147.206 96.9208 146.174C97.9527 145.361 97.4524 143.693 97.1814 143.016C97.2231 142.922 97.2543 142.818 97.296 142.724C97.7964 141.327 97.9632 140.076 97.8902 138.961C98.599 139.222 99.1619 139.68 99.4851 140.306C99.4434 141.317 99.1515 143.12 97.5566 143.256C97.5566 143.256 99.3704 143.568 99.8082 141.546C99.829 142.286 99.5997 143.12 99.0577 144.027C97.3898 146.779 98.1612 148.332 98.1612 148.332C98.2446 146.508 98.7241 145.632 99.2349 144.934C98.9117 146.654 99.9124 147.623 99.9124 147.623C99.3391 146.55 99.6414 144.965 99.8916 144.048C100.288 143.454 100.58 142.724 100.538 141.379C100.465 138.982 98.8075 138.075 97.713 137.741C97.4524 136.636 96.9416 135.667 96.2953 134.833C97.0458 134.739 97.713 134.76 98.328 134.896C99.1098 135.427 100.09 136.491 99.6206 138.409C99.6206 138.409 100.538 137.022 99.7665 135.709C100.559 136.657 101.455 138.096 101.33 139.67C101.111 142.422 99.9958 146.32 103.04 146.841C103.04 146.841 101.215 145.768 101.591 142.828C101.622 142.578 101.653 142.338 101.695 142.099C102.55 142.536 104.624 143.86 104.676 146.425C104.676 146.425 105.677 143.495 101.799 141.39C102.028 139.805 102.174 138.388 101.57 136.949C102.998 138.638 103.821 140.921 104.624 142.318C106.188 145.049 108.304 143.766 108.304 143.766C106.636 143.892 105.729 142.661 104.947 141.015C105.875 141.796 106.709 141.953 106.709 141.953C105.906 141.692 105.124 140.889 104.614 140.274C104.176 139.274 103.759 138.19 103.217 137.189C104.249 137.366 105.281 138.409 106.177 140.598C107.261 143.245 108.293 143.297 108.293 143.297C106.959 142.13 106.563 140.066 105.343 138.085C104.541 136.793 103.488 136.553 102.842 136.543C102.477 135.948 102.049 135.417 101.549 134.958C100.486 134.01 99.2974 133.541 98.2029 133.342C99.8916 132.311 99.1828 130.33 99.1828 130.33C99.3495 131.967 98.2446 132.821 97.3586 133.238C96.3891 133.165 95.5344 133.28 94.9819 133.395C93.9291 132.425 92.7408 131.654 91.7401 130.997C91 130.518 90.2703 129.819 89.5927 128.985C90.4579 128.725 91.5212 128.964 93.4496 130.101C94.0438 130.716 95.0028 131.894 94.9402 132.978C94.9402 132.978 95.3884 132.029 94.3148 130.559C96.8686 131.664 98.1404 130.028 98.1404 130.028C96.41 130.945 95.107 130.476 92.3134 128.798C90.7394 127.859 89.4989 127.891 88.8631 128.016C87.0806 125.431 85.8193 122.064 85.8193 119.958C85.8193 119.958 87.0597 122.846 90.1035 125.535C90.2911 126.067 91.1146 127.985 93.2932 128.985C93.2932 128.985 91.4273 127.599 91.0729 126.317C92.7512 127.599 94.8777 128.766 97.5358 129.423C98.2342 129.6 98.9534 129.767 99.6935 129.944C99.829 130.236 99.9854 130.57 100.183 130.924C100.319 131.633 100.944 134.176 102.967 135.584C102.967 135.584 101.476 133.739 101.08 132.342C101.83 133.374 102.873 134.437 104.311 135.219C106.907 137.554 107.115 139.566 107.73 141.692C108.366 143.923 109.628 143.516 109.628 143.516C108.439 143.068 108.137 141.494 107.783 139.972C108.908 140.295 109.857 142.338 109.857 142.338C109.44 140.389 108.137 139.576 107.626 139.315C107.564 139.065 107.491 138.815 107.407 138.575C106.99 137.377 106.313 136.459 105.719 135.844C109.992 137.554 110.587 143.256 110.587 143.256C110.587 142.036 110.43 140.691 109.992 139.42C110.461 139.513 111.66 139.972 112.223 142.109C112.223 142.109 112.463 139.326 109.69 138.638C109.033 137.158 107.96 135.855 106.271 135.083C105.156 134.573 104.207 133.843 103.425 133.092C104.145 132.884 105.197 132.988 106.427 133.874C108.408 135.292 109.607 135.125 109.607 135.125C109.607 135.125 108.543 134.906 106.459 133.311C104.937 132.154 103.488 132.279 102.8 132.436C102.081 131.643 101.549 130.862 101.215 130.32C103.946 130.997 106.74 131.821 108.992 133.27C110.065 134.75 111.306 136.991 109.919 138.054C109.919 138.054 112.056 137.335 110.263 134.208C112.213 135.876 113.516 138.231 113.599 141.692C113.599 141.692 114.86 136.584 111.733 132.821C113.881 133.249 114.965 131.914 114.965 131.914C113.464 132.675 112.088 132.509 111.212 132.238C110.211 131.237 108.856 130.372 107.022 129.767C104.624 128.975 102.383 128.422 100.371 127.87C101.695 126.723 100.329 125.035 100.329 125.035C100.851 126.567 100.309 127.317 99.7248 127.693C95.0236 126.358 91.6358 124.91 90.4162 120.187C90.4162 120.187 91.4273 120.959 93.262 121.772C93.6268 122.231 94.1897 122.814 94.9923 123.336C94.9402 123.888 94.9298 125.379 96.3996 125.941C96.3996 125.941 95.2321 125.087 95.5656 123.669C95.7324 123.752 95.9096 123.836 96.0973 123.919C98.4948 124.92 99.4434 125.149 99.2766 127.151C99.2766 127.151 100.444 125.201 98.1612 124.086C96.9103 123.471 96.0764 123.054 95.5761 122.648C96.8582 123.054 98.3488 123.388 100.027 123.565C100.298 123.898 100.684 124.305 101.215 124.639C101.122 125.233 101.049 126.869 102.706 127.349C104.749 127.943 105.906 128.579 106.052 128.912C106.052 128.912 105.719 127.651 103.561 127.057C102.164 126.671 101.716 125.931 101.966 125.024C102.331 125.17 102.737 125.274 103.186 125.316C103.696 125.358 104.197 125.441 104.687 125.556C105.562 126.181 107.386 127.703 107.751 129.59C107.751 129.59 108.231 127.818 105.833 125.889C107.293 126.4 108.512 127.203 109.158 128.183C109.252 128.318 109.336 128.454 109.44 128.579C109.638 129.506 109.419 130.34 109.419 130.34C109.784 129.882 109.857 129.444 109.846 129.121C111.17 130.726 113.015 131.956 115.548 131.424C115.548 131.424 112.244 131.237 110.607 128.86C109.659 127.484 108.7 125.91 106.615 125.097C107.376 124.576 108.533 124.607 109.377 125.514C111.233 127.516 111.942 126.963 111.942 126.963C110.868 126.89 109.753 124.545 108.304 124.326C106.928 124.117 106 124.472 105.489 124.764C105.437 124.753 105.385 124.743 105.333 124.732C103.821 124.44 102.883 124.076 102.3 123.69C102.706 123.69 103.123 123.679 103.54 123.659C106.115 123.513 108.481 123.346 110.576 123.304C111.473 123.7 112.598 124.482 113.245 126.035C113.245 126.035 113.245 126.046 113.245 126.056C113.568 127.88 112.828 129.569 112.828 129.569C113.505 128.568 113.745 127.849 113.818 127.38C114.391 128.589 114.975 129.444 115.965 129.986C115.976 130.007 115.986 130.028 115.997 130.049C116.163 131.112 115.955 132.415 115.173 132.686C113.464 133.28 113.797 135.844 113.797 135.844C114.058 134.062 114.954 133.322 115.465 133.134C116.153 132.884 116.445 132.331 116.559 131.779C116.705 132.999 116.33 134.239 115.507 135.657C114.172 137.96 116.059 139.19 116.059 139.19C115.131 137.627 115.465 136.772 116.695 134.698C117.696 132.999 117.185 131.06 116.966 130.403C117.414 130.538 117.925 130.632 118.519 130.684C118.821 130.716 119.092 130.789 119.332 130.882C119.707 131.32 120.083 132.06 119.405 132.8C118.332 133.989 115.986 135.917 118.404 137.668C118.404 137.668 117.102 136.178 118.186 134.729C119.02 133.614 120.51 132.738 120.364 131.716C121.427 133.259 120.885 136.021 120.448 136.845C120.448 136.845 122.814 134.26 121 131.195C119.666 128.933 117.8 131.08 115.611 128.339C115.371 128.037 115.163 127.745 114.996 127.453C116.372 127.38 119.249 127.526 120.552 129.715C120.552 129.715 119.947 126.39 114.662 126.859C113.922 125.389 113.808 124.128 113.099 123.315C113.443 123.325 113.766 123.346 114.089 123.377C116.028 126.671 118.957 126.713 118.957 126.713C116.82 126.192 115.475 124.388 114.912 123.471C117.112 123.763 118.717 124.451 119.582 125.9C119.999 126.598 120.479 127.234 121.01 127.776C121.083 128.798 121.563 133.28 124.231 133.478C124.231 133.478 122.063 132.988 122.001 128.673C123.825 130.069 125.983 130.465 127.838 129.131C127.838 129.131 124.461 130.257 122.115 126.817C123.21 126.984 123.377 126.16 123.377 126.16C123.001 126.65 122.366 126.609 121.907 126.494C121.876 126.442 121.844 126.4 121.813 126.348C119.906 123.085 117.779 121.074 111.952 120.855C113.088 119.885 115.538 120.219 115.538 120.219C113.015 119.583 111.587 120.354 110.983 120.844C109.888 120.844 108.679 120.896 107.324 121.001C103.717 121.292 101.309 121.094 99.704 120.73C102.154 119.854 100.6 119.072 100.6 119.072C101.226 119.781 99.7248 120.292 98.8909 120.511C96.9937 119.916 96.6289 119.103 96.6289 119.103C96.6289 119.103 97.2752 118.707 98.4531 118.29C99.5684 118.217 101.33 118.311 102.571 119.395C104.541 121.105 106.104 120.802 107.887 120.396C107.887 120.396 104.874 120.657 104.019 119.5C103.269 118.488 102.498 117.8 100.976 117.644C102.404 117.404 104.145 117.3 106.146 117.54C107.178 117.998 109.419 119.124 110.19 120.511C110.19 120.511 109.982 119.093 107.96 117.842C108.439 117.946 108.94 118.071 109.45 118.207C112.306 119.02 114.725 119.604 116.799 120.01C117.664 120.438 118.655 121.053 119.072 121.772C119.885 123.179 121.188 125.191 123.304 125.41C123.304 125.41 121 124.222 120.072 122.47C119.937 122.22 119.812 121.991 119.687 121.772C120.156 121.887 121.313 122.231 122.303 123.064C123.272 123.878 124.346 123.586 124.346 123.586C124.346 123.586 123.158 123.263 122.345 122.47C121.354 121.511 119.979 121.021 119.186 120.969C119.02 120.73 118.853 120.511 118.686 120.333C120.625 120.646 122.241 120.802 123.627 120.844C123.773 121.167 124.117 121.845 124.648 122.564C124.742 123.263 124.794 124.378 124.357 125.055C123.689 126.098 124.023 127.172 124.357 128.141C124.357 128.141 124.054 126.65 124.575 125.535C124.992 124.649 125.243 124.023 125.19 123.21C125.493 123.534 125.826 123.846 126.212 124.128C127.536 125.076 128.891 127.067 128.818 128.516C128.818 128.516 129.6 126.14 127.181 124.055C127.056 123.951 126.942 123.836 126.827 123.732C127.557 123.909 127.953 123.742 128.63 123.648C129.443 123.534 131.236 125.577 131.236 125.577C130.194 123.68 129.235 122.72 128.12 123.127C127.557 123.336 126.858 123.294 126.316 123.2C125.503 122.304 124.909 121.365 124.607 120.855C124.763 120.855 124.919 120.855 125.065 120.855C130.142 120.802 131.862 124.086 131.862 124.086C131.862 124.086 131.414 119.739 126.514 119.739C121.615 119.739 116.309 118.957 112.306 117.29C111.639 117.019 111.014 116.768 110.399 116.56C110.764 116.404 111.275 116.331 111.994 116.581C114.516 117.477 115.455 117.321 115.455 117.321C113.453 117.019 113.224 116.466 111.368 116.018C110.587 115.83 109.846 116.08 109.325 116.289C107.418 115.726 105.812 115.549 104.468 115.549H104.207C103.842 115.549 103.498 115.57 103.175 115.601L103.113 115.632Z" fill="#D375B1"/>
<path d="M80.5352 95.0763L83.1724 87.4772C83.8604 85.4863 84.9341 83.6412 86.3309 82.0568L92.7207 74.7913C94.6075 72.644 95.9 70.038 96.4629 67.2339L96.6089 66.5355C97.0675 64.2527 97.0362 61.8969 96.5046 59.6349L95.9209 57.1123L96.2023 57.5918C98.2558 61.063 98.9543 65.1596 98.1516 69.1103C97.6825 71.4452 96.7027 73.6447 95.2954 75.5627L88.8118 84.3605C87.3941 86.2785 86.4247 88.4779 85.9556 90.8129L84.6213 97.4425" fill="#D375B1"/>
<path d="M97.5904 64.2531L92.5035 60.7193C87.9274 57.54 86.0928 51.6714 88.0421 46.449C89.1366 43.5094 89.0636 40.2572 87.8232 37.3801L84.6543 30L95.4639 35.9833C100.321 38.6727 102.74 44.3016 101.353 49.6804L98.3305 63.7214L96.7878 60.4275L97.5904 64.2635V64.2531Z" fill="#E2ACCD"/>
<path d="M97.1723 64.6706C97.1723 64.6706 94.2119 52.2453 94.2014 52.214C94.2014 52.2036 94.0346 43.5101 94.0242 43.4892C94.2327 43.854 89.3439 37.6831 89.3751 37.7665L94.2536 43.3954L94.2848 43.4267V43.4788C94.2848 43.4475 94.7956 52.3808 94.7643 52.0994L98.173 64.41L97.1618 64.6706H97.1723Z" fill="#D375B1"/>
<path d="M90.3223 82.1304C90.3223 82.1304 94.9296 79.1804 100.517 80.5564C100.517 80.5564 110.722 82.0887 118.071 75.0525C118.071 75.0525 106.73 70.122 100.246 73.7912L93.9498 77.2103L90.3223 82.1408V82.1304Z" fill="#E2ACCD"/>
<path d="M50.7344 107.387L51.2973 108.377L55.1124 108.565L58.2083 106.908C58.2083 106.908 60.0221 105.208 59.9074 105.208C59.7928 105.208 58.1354 104.041 58.1354 104.041L57.1868 104.833L57.4161 105.365L56.1548 104.792L54.4766 104.937L53.9449 105.354L54.0909 105.73H55.3209L54.3515 106.439L53.4863 106.293L53.7156 105.354L52.5481 105.844L52.3605 106.439L53.1944 107.127L50.7448 107.387H50.7344Z" fill="#A1616A"/>
<path d="M80.7536 76.574C81.1393 76.6157 81.5249 76.6574 81.9002 76.7199C82.2963 76.7929 82.7133 76.8867 83.026 77.1473C83.3387 77.4079 83.4951 77.8978 83.2762 78.2418C83.1198 78.492 82.8175 78.6067 82.5361 78.7005C82.1295 78.836 81.723 78.9715 81.3165 79.107C81.0246 79.2113 80.7327 79.3051 80.42 79.3572C79.4818 79.5031 78.5437 79.1383 77.6577 78.7839C77.4909 78.7109 77.3137 78.638 77.1782 78.5129C77.0322 78.3565 76.9697 78.148 76.9176 77.9395C76.855 77.6894 76.5527 77.0744 76.7195 76.8659C76.8759 76.6678 77.6681 76.6053 77.9183 76.574C78.8564 76.4281 79.8154 76.4906 80.7536 76.5844V76.574Z" fill="#A8AAB4"/>
<path d="M84.1421 78.9189C84.6842 81.2956 85.3305 83.4429 85.5077 85.9134C85.6849 88.363 85.8517 90.8231 86.0289 93.2727C86.3312 97.5361 86.3729 101.508 85.1428 105.625C84.58 107.512 84.3089 107.72 82.2346 107.835C80.1602 107.95 78.1171 107.835 76.0844 107.543C75.3548 107.439 74.5521 107.241 74.1664 106.615C73.9163 106.209 73.9058 105.698 73.9058 105.219C73.9058 99.6522 73.9058 94.0858 73.9058 88.5194C73.9058 86.3721 73.3534 81.3165 75.3548 79.8467C76.0844 79.3046 84.163 79.0545 84.1421 78.9294V78.9189Z" fill="#A8AAB4"/>
<path d="M72.5312 105.365H87.0935L87.3958 109.41L72.5312 108.993V105.365Z" fill="#40324C"/>
<path d="M79.9299 117.29C79.3982 117.353 78.877 117.436 78.3558 117.52C76.6255 117.801 74.9785 117.603 73.2168 117.614C69.0681 117.634 64.909 117.092 60.9062 115.998C60.2703 115.821 59.6449 115.633 59.0716 115.299C58.5816 115.018 58.1751 114.622 57.779 114.236C57.091 113.538 56.476 112.746 56.2467 111.797C56.0173 110.817 56.2363 109.785 56.5802 108.826C56.5802 108.805 56.5907 108.764 56.6011 108.743C56.6532 108.628 56.6949 108.493 56.747 108.378C57.0076 107.7 57.3516 106.992 58.0083 106.689C58.4774 106.46 59.0403 106.502 59.5719 106.543C64.5337 106.96 69.5685 106.835 74.5094 107.315C77.8555 107.617 81.2224 107.69 84.5998 107.648C85.1523 107.638 85.6943 107.627 86.2572 107.617C88.0814 107.586 89.7909 107.471 91.5734 107.179C93.481 106.877 95.3781 106.46 97.317 106.46C97.9841 106.46 98.6513 106.523 99.3288 106.564C100.538 106.648 101.789 106.752 102.873 107.304C103.634 107.68 104.301 108.368 104.582 109.16C104.697 109.483 104.76 109.837 104.728 110.192C104.708 110.515 104.603 110.828 104.489 111.14C103.79 113.006 102.456 114.653 100.715 115.633C99.1829 116.509 97.39 116.842 95.6283 117.092C92.5637 117.509 89.3218 117.843 86.2259 117.634C85.0063 117.551 83.9535 117.103 82.6714 117.113C81.754 117.113 80.8367 117.186 79.9299 117.301V117.29Z" fill="#9E1667"/>
<path d="M76.3979 79.0132C74.73 79.5344 73.0726 80.066 71.4048 80.5872C71.1755 80.6602 70.9462 80.7332 70.7794 80.8895C70.6126 81.0459 70.5188 81.2544 70.425 81.4628C69.3096 84.0375 68.1838 86.6018 67.0684 89.1766C66.5994 90.2606 66.1199 91.3552 65.7863 92.4809C65.1609 94.5449 64.7231 96.7756 63.222 98.3913C61.4187 100.341 59.5841 102.279 57.6035 104.041C58.1247 104.927 58.6355 105.824 59.1567 106.71C61.7627 104.958 64.3582 103.197 66.9642 101.446C67.819 100.872 68.1734 100.236 68.5278 99.2982C68.9552 98.1516 69.5285 97.0675 69.935 95.9208C70.3311 94.7951 70.7168 93.6484 71.1859 92.5539C71.2172 92.4809 71.3423 92.408 71.3527 92.4914C71.6029 94.3051 71.853 96.0251 71.8218 97.8597C71.8009 99.2044 71.8218 100.539 71.8843 101.883C71.9052 102.363 72.1449 103.072 71.9052 103.52C71.6863 103.937 71.1546 104.364 70.8523 104.739C70.0184 105.751 69.1845 106.772 68.3402 107.783C68.705 107.95 69.0386 108.221 69.4034 108.367C69.7057 108.482 70.0497 108.544 70.352 108.659C70.8002 108.826 75.9809 110.222 75.9913 110.014C76.106 107.95 76.1581 105.917 76.0956 103.843C76.0747 103.176 76.0539 102.519 76.033 101.852C76.0122 101.32 76.0018 100.778 75.9496 100.247C75.7099 97.8388 74.9698 95.6081 75.0323 93.1689C75.0949 90.6672 75.3451 88.1654 75.6578 85.6845C75.9497 83.36 76.3041 81.0459 76.721 78.7422C76.523 78.8881 76.6376 78.9298 76.3979 79.0132Z" fill="#40324C"/>
<path d="M75.1045 78.7425C75.0107 78.8155 74.9273 78.8989 74.8544 78.9823C74.5416 79.3471 74.5104 79.9934 74.3853 80.4416C74.156 81.213 73.9266 81.9843 73.7077 82.7661C73.5201 83.4228 73.051 84.3193 73.051 84.9969C73.0302 85.0698 73.0093 85.1532 73.0302 85.2366C73.0614 85.3096 73.124 85.3513 73.1761 85.393C73.4471 85.5806 73.7182 85.7682 73.9892 85.9559C73.5409 86.1331 73.1031 86.3311 72.6758 86.5605C72.6132 86.5917 72.5507 86.6334 72.5194 86.696C72.4881 86.7585 72.5194 86.8315 72.5298 86.9044C73.3012 89.5938 74.0621 92.2832 74.8752 94.9621C74.8127 93.4819 74.8231 92.0018 74.9065 90.5216C75.0524 88.197 75.386 85.8933 75.73 83.5792C75.8134 82.985 75.9072 82.3805 75.9906 81.7863C76.0844 81.1296 76.1157 80.4937 76.2512 79.837C76.3137 79.5451 76.5222 77.9399 76.7828 77.8252C76.272 78.0441 75.5736 78.336 75.0941 78.7321L75.1045 78.7425Z" fill="#544660"/>
<path d="M85.0695 94.6381C84.934 96.233 84.663 97.7965 84.6213 99.4227C84.6004 100.267 84.5483 101.111 84.5691 101.945C84.5691 102.414 84.59 102.883 84.6004 103.342C84.6108 103.988 84.6213 104.624 84.7255 105.26C84.8297 105.906 85.0174 106.542 85.2676 107.147C85.4656 107.637 85.6637 108.314 86.0806 108.658C86.5601 109.054 87.6442 108.71 88.2071 108.585C88.9993 108.398 89.7707 108.106 90.4899 107.731C89.9062 107.366 89.6248 106.699 89.312 106.084C88.9368 105.333 88.3322 104.676 88.0507 103.884C87.7693 103.092 87.9465 102.31 88.0195 101.539C88.1758 99.9126 88.3635 98.2865 88.4573 96.6499C88.5407 95.201 88.6762 93.8563 88.6866 92.4074C89.458 93.9293 90.0417 95.6284 90.6046 97.2441C90.9903 98.3282 91.3447 99.4435 91.9701 100.423C92.5539 101.351 93.4712 102.008 94.3468 102.644C96.442 104.155 98.5998 105.615 100.956 106.699C101.466 105.906 101.956 105.166 102.467 104.374C102.519 104.301 102.561 104.228 102.582 104.134C102.655 103.79 101.862 103.196 101.633 102.967C101.247 102.571 100.851 102.175 100.445 101.789C99.663 101.038 98.8395 100.319 98.0056 99.6312C97.6199 99.3184 97.2342 99.0057 96.8798 98.6513C95.5977 97.317 95.2433 95.472 94.7533 93.7521C94.4927 92.8139 94.2217 91.8758 93.9611 90.948C93.5859 89.6242 93.2106 88.3003 92.5852 87.0807C92.3767 86.6846 92.1369 86.2885 91.9284 85.8924C91.6262 85.3191 91.3656 84.7249 91.1154 84.1412C90.6672 83.1092 90.2189 82.0773 89.7811 81.0453C89.6977 80.8576 89.6143 80.6596 89.4684 80.5241C89.312 80.3781 89.0931 80.3156 88.8847 80.2531L85.9034 79.3774C85.4031 79.2315 84.8714 79.0022 84.3607 78.9292C83.8186 78.8458 83.9437 79.2836 83.9333 79.7527C83.902 81.8062 84.4232 83.8076 84.6838 85.8299C84.7776 86.5595 84.8402 87.2996 84.9027 88.0397C85.0591 89.9682 85.2154 91.8966 85.1216 93.825C85.1112 94.096 85.0903 94.3671 85.0695 94.6381Z" fill="#40324C"/>
<path d="M85.9468 85.6221L87.2186 85.1843C86.7391 83.2871 86.2387 81.5463 85.7592 79.6492C85.7071 79.4615 85.6654 79.2739 85.5612 79.1175C85.1755 78.5338 84.279 78.5963 83.7578 78.1377C83.7995 79.5449 83.8516 80.9522 84.0393 82.349C84.2373 83.7354 84.5709 85.1009 84.7272 86.4873C84.8002 87.1231 84.8315 87.759 84.8732 88.4053C84.9044 89.0516 84.9461 89.6978 84.9774 90.3441C85.04 91.5846 85.1129 92.8354 85.0921 94.0759C85.0817 95.0974 85.1755 96.2858 84.8106 97.276C85.4569 95.5248 85.7696 93.6589 86.1866 91.8452C86.4159 90.8757 86.6452 89.9167 86.8954 88.9577C86.958 88.7076 87.7189 86.2162 87.6459 86.1746C87.1456 85.8931 86.5202 85.7055 85.9468 85.6221Z" fill="#544660"/>
<path d="M78.1277 78.7743C78.1277 78.9619 78.1277 79.1704 78.2319 79.3268C78.4091 79.5874 78.774 79.6082 79.0867 79.6082C79.9623 79.6082 80.8275 79.5874 81.7031 79.5874C81.849 79.5874 81.995 79.5874 82.1096 79.504C82.2764 79.3893 82.3077 79.1496 82.3285 78.9515C82.4745 76.9814 83.0269 71.5088 79.8164 72.6763C77.3772 73.5623 78.1173 76.6999 78.1173 78.7847L78.1277 78.7743Z" fill="#91575F"/>
<path d="M79.7331 81.2239C79.0869 80.8069 78.4301 80.4004 77.7734 79.9938C77.8985 79.5873 77.9298 79.2329 78.1278 78.8576C78.1487 78.8263 78.1695 78.7847 78.2008 78.7742C78.2425 78.7534 78.2946 78.7638 78.3468 78.7742C79.5038 78.9931 80.6921 78.7742 81.8492 78.5762C81.9534 79.1703 82.0472 79.7749 82.1515 80.3691C81.5677 80.5254 81.0153 80.8277 80.5775 81.2447L81.6511 100.185L79.9625 101.947L78.4301 100.133L79.7331 81.2447V81.2239Z" fill="#1A1A1A"/>
<path d="M76.7828 76.9395L76.3867 79.0138L78.2005 81.7762L79.6077 78.8366L80.6397 78.7428L81.7446 81.3905L83.7877 79.3578L83.2352 77.3981C83.2352 77.3981 80.3478 79.3578 76.7828 76.9499V76.9395Z" fill="#BBBDC8"/>
<path d="M80.1296 117.301C80.5778 117.28 81.0156 117.269 81.4638 117.248C81.5368 117.28 81.6098 117.311 81.6723 117.342C81.641 117.332 81.5889 117.321 81.4847 117.321C81.0781 117.332 80.6925 117.342 80.2859 117.374C79.0038 117.426 77.7216 117.467 76.4395 117.53C75.3554 117.582 74.2713 117.624 73.1977 117.634C69.0489 117.655 64.8898 117.113 60.887 116.018C60.2511 115.841 59.6257 115.654 59.0524 115.32C58.5624 115.039 58.1559 114.642 57.7598 114.257C57.0718 113.558 56.4568 112.766 56.2275 111.818C55.9877 110.817 56.2275 109.743 56.5819 108.763H56.7487C57.1031 108.743 57.4679 108.743 57.8119 108.753C60.3971 108.857 62.9301 109.545 65.4422 110.233C66.7765 110.598 68.1108 110.963 69.4033 111.474C70.2164 111.797 71.0086 112.172 71.7904 112.558C73.5416 113.433 75.3033 114.267 77.0545 115.132C78.5139 115.852 80.2651 116.456 81.5889 117.405" fill="#AF1873"/>
<path d="M104.718 110.181C104.698 110.504 104.593 110.817 104.479 111.13C103.78 112.995 102.446 114.642 100.705 115.622C99.1728 116.498 97.3799 116.831 95.6183 117.082C91.0734 117.697 86.466 117.801 81.9004 117.384C81.8378 117.384 81.8065 117.373 81.7753 117.363C81.744 117.353 81.7023 117.342 81.671 117.332C81.6398 117.321 81.5876 117.311 81.4834 117.311C81.4104 117.311 81.3375 117.311 81.2749 117.321C80.7537 117.082 80.2325 116.873 79.7843 116.644C79.3256 116.404 78.8461 116.185 78.3875 115.956C78.3145 115.81 78.2728 115.685 78.2207 115.528C81.7336 114.851 85.1943 113.954 88.6029 112.829C93.8149 111.098 99.0686 108.815 104.562 109.149H104.572C104.687 109.472 104.75 109.827 104.718 110.181Z" fill="#AF1873"/>
<path d="M75.3008 68.4016C75.3008 68.5997 75.3008 68.7769 75.3425 68.9541C75.5301 69.715 75.6239 70.4551 75.7177 71.2473L75.9679 73.3009C76.0722 74.1243 76.5204 74.8644 77.2084 75.3231L78.5218 76.2091C79.4704 76.8554 80.7108 76.8658 81.6802 76.2404L82.8581 75.469C83.5357 75.0312 84.0048 74.312 84.1299 73.5198L84.4426 71.5496C84.5364 70.9555 84.6302 70.3509 84.724 69.7567C84.797 69.3085 84.9742 68.8394 84.9534 68.3912C84.9012 67.3696 84.3696 66.3272 83.6712 65.5976C82.8477 64.7428 81.6907 64.2216 80.5023 64.1695C79.658 64.1382 78.9909 64.4092 78.1778 64.5343C77.5107 64.6386 76.9165 65.2536 76.4266 65.681C76.2911 65.806 76.1555 65.9311 76.0513 66.0771C75.9575 66.2126 75.8845 66.3689 75.822 66.5253C75.6031 67.0569 75.3321 67.7657 75.3008 68.412V68.4016Z" fill="#A1616A"/>
<path d="M101.832 106.449C101.947 106.376 104.74 108.534 104.74 108.534H108.701L109.535 107.492L107.232 107.137L107.836 106.762L107.909 106.199L106.627 105.688L106.7 106.199L106.095 106.46L104.73 105.866L105.449 105.688H105.939L106.356 105.376L105.678 105.032L104.167 104.729L103 105.146L102.113 105.376L101.832 106.46V106.449Z" fill="#A1616A"/>
<path d="M102.478 104.385L102.999 105.135L102.061 106.97L101.227 106.303L102.478 104.385Z" fill="#BBBDC8"/>
<path d="M77.0425 66.4003C77.5533 66.2439 78.2309 66.3273 78.6791 66.3065C79.6381 66.2752 80.5971 66.1918 81.5457 66.0563C82.1607 65.9729 82.8174 65.8687 83.3907 66.098C84.4227 66.515 84.1934 67.8597 84.2976 68.7561C84.3914 69.5379 84.5999 70.5073 84.4435 71.2996C84.8918 70.1946 85.7674 69.0688 85.8925 67.8597C86.0175 66.6505 86.0801 65.41 85.8195 64.2113C85.5276 62.8249 85.538 61.5636 84.2559 60.6359C84.0787 60.5108 83.9015 60.4065 83.693 60.3544C83.2865 60.2606 82.8799 60.4274 82.4942 60.5733C81.5561 60.9382 80.545 61.3968 79.5547 61.574C79.2733 61.6261 77.3448 61.5844 77.3448 61.845C76.8966 61.9389 76.4379 62.0431 76.0418 62.2933C74.9577 62.9708 74.8848 64.7533 75.8646 65.5455C75.7291 65.3058 75.4581 65.0869 75.1662 65.1494C74.8744 65.212 74.6867 65.4517 74.5929 65.7123C74.4991 65.9729 74.4991 66.2648 74.4887 66.5462C74.4887 67.7658 74.4053 68.9229 74.6763 70.1217C74.8014 70.6533 74.9577 71.1953 75.2288 71.6644C75.3017 71.7895 76.1044 72.613 76.1044 72.6338C76.2399 71.508 76.2503 70.5803 76.1565 69.4441C76.1044 68.8708 76.1565 68.2975 76.219 67.7241C76.2503 67.401 76.292 67.0674 76.4692 66.7964C76.6047 66.5879 76.8028 66.4524 77.0425 66.3795V66.4003Z" fill="#333333"/>
<path d="M91.043 79.9199L92.1583 78.5544L96.2028 77.0534C100.591 75.4272 105.292 74.7914 109.962 75.2083L114.111 75.5732L107.919 75.7191C104.761 75.7921 101.634 76.3445 98.642 77.3557L91.043 79.9095V79.9199Z" fill="#D375B1"/>
<rect x="-0.333984" width="62" height="24" rx="12" fill="#F0F0F0"/>
<path d="M11.314 16.084C10.754 16.084 10.25 15.988 9.80202 15.796C9.35402 15.596 9.00202 15.316 8.74602 14.956C8.49002 14.596 8.36202 14.176 8.36202 13.696H9.82602C9.85802 14.056 9.99802 14.352 10.246 14.584C10.502 14.816 10.858 14.932 11.314 14.932C11.786 14.932 12.154 14.82 12.418 14.596C12.682 14.364 12.814 14.068 12.814 13.708C12.814 13.428 12.73 13.2 12.562 13.024C12.402 12.848 12.198 12.712 11.95 12.616C11.71 12.52 11.374 12.416 10.942 12.304C10.398 12.16 9.95402 12.016 9.61002 11.872C9.27402 11.72 8.98602 11.488 8.74602 11.176C8.50602 10.864 8.38602 10.448 8.38602 9.928C8.38602 9.448 8.50602 9.028 8.74602 8.668C8.98602 8.308 9.32202 8.032 9.75402 7.84C10.186 7.648 10.686 7.552 11.254 7.552C12.062 7.552 12.722 7.756 13.234 8.164C13.754 8.564 14.042 9.116 14.098 9.82H12.586C12.562 9.516 12.418 9.256 12.154 9.04C11.89 8.824 11.542 8.716 11.11 8.716C10.718 8.716 10.398 8.816 10.15 9.016C9.90202 9.216 9.77802 9.504 9.77802 9.88C9.77802 10.136 9.85402 10.348 10.006 10.516C10.166 10.676 10.366 10.804 10.606 10.9C10.846 10.996 11.174 11.1 11.59 11.212C12.142 11.364 12.59 11.516 12.934 11.668C13.286 11.82 13.582 12.056 13.822 12.376C14.07 12.688 14.194 13.108 14.194 13.636C14.194 14.06 14.078 14.46 13.846 14.836C13.622 15.212 13.29 15.516 12.85 15.748C12.418 15.972 11.906 16.084 11.314 16.084ZM17.4042 10.504V14.164C17.4042 14.412 17.4602 14.592 17.5722 14.704C17.6922 14.808 17.8922 14.86 18.1722 14.86H19.0122V16H17.9322C17.3162 16 16.8442 15.856 16.5162 15.568C16.1882 15.28 16.0242 14.812 16.0242 14.164V10.504H15.2442V9.388H16.0242V7.744H17.4042V9.388H19.0122V10.504H17.4042ZM19.817 12.664C19.817 12 19.953 11.412 20.225 10.9C20.505 10.388 20.881 9.992 21.353 9.712C21.833 9.424 22.361 9.28 22.937 9.28C23.457 9.28 23.909 9.384 24.293 9.592C24.685 9.792 24.997 10.044 25.229 10.348V9.388H26.609V16H25.229V15.016C24.997 15.328 24.681 15.588 24.281 15.796C23.881 16.004 23.425 16.108 22.913 16.108C22.345 16.108 21.825 15.964 21.353 15.676C20.881 15.38 20.505 14.972 20.225 14.452C19.953 13.924 19.817 13.328 19.817 12.664ZM25.229 12.688C25.229 12.232 25.133 11.836 24.941 11.5C24.757 11.164 24.513 10.908 24.209 10.732C23.905 10.556 23.577 10.468 23.225 10.468C22.873 10.468 22.545 10.556 22.241 10.732C21.937 10.9 21.689 11.152 21.497 11.488C21.313 11.816 21.221 12.208 21.221 12.664C21.221 13.12 21.313 13.52 21.497 13.864C21.689 14.208 21.937 14.472 22.241 14.656C22.553 14.832 22.881 14.92 23.225 14.92C23.577 14.92 23.905 14.832 24.209 14.656C24.513 14.48 24.757 14.224 24.941 13.888C25.133 13.544 25.229 13.144 25.229 12.688ZM31.0699 9.28C31.5819 9.28 32.0339 9.384 32.4259 9.592C32.8259 9.792 33.1379 10.044 33.3619 10.348V9.388H34.7419V16.108C34.7419 16.716 34.6139 17.256 34.3579 17.728C34.1019 18.208 33.7299 18.584 33.2419 18.856C32.7619 19.128 32.1859 19.264 31.5139 19.264C30.6179 19.264 29.8739 19.052 29.2819 18.628C28.6899 18.212 28.3539 17.644 28.2739 16.924H29.6299C29.7339 17.268 29.9539 17.544 30.2899 17.752C30.6339 17.968 31.0419 18.076 31.5139 18.076C32.0659 18.076 32.5099 17.908 32.8459 17.572C33.1899 17.236 33.3619 16.748 33.3619 16.108V15.004C33.1299 15.316 32.8139 15.58 32.4139 15.796C32.0219 16.004 31.5739 16.108 31.0699 16.108C30.4939 16.108 29.9659 15.964 29.4859 15.676C29.0139 15.38 28.6379 14.972 28.3579 14.452C28.0859 13.924 27.9499 13.328 27.9499 12.664C27.9499 12 28.0859 11.412 28.3579 10.9C28.6379 10.388 29.0139 9.992 29.4859 9.712C29.9659 9.424 30.4939 9.28 31.0699 9.28ZM33.3619 12.688C33.3619 12.232 33.2659 11.836 33.0739 11.5C32.8899 11.164 32.6459 10.908 32.3419 10.732C32.0379 10.556 31.7099 10.468 31.3579 10.468C31.0059 10.468 30.6779 10.556 30.3739 10.732C30.0699 10.9 29.8219 11.152 29.6299 11.488C29.4459 11.816 29.3539 12.208 29.3539 12.664C29.3539 13.12 29.4459 13.52 29.6299 13.864C29.8219 14.208 30.0699 14.472 30.3739 14.656C30.6859 14.832 31.0139 14.92 31.3579 14.92C31.7099 14.92 32.0379 14.832 32.3419 14.656C32.6459 14.48 32.8899 14.224 33.0739 13.888C33.2659 13.544 33.3619 13.144 33.3619 12.688ZM42.5987 12.532C42.5987 12.78 42.5827 13.004 42.5507 13.204H37.4987C37.5387 13.732 37.7347 14.156 38.0867 14.476C38.4387 14.796 38.8707 14.956 39.3827 14.956C40.1187 14.956 40.6387 14.648 40.9427 14.032H42.4187C42.2187 14.64 41.8547 15.14 41.3267 15.532C40.8067 15.916 40.1587 16.108 39.3827 16.108C38.7507 16.108 38.1827 15.968 37.6787 15.688C37.1827 15.4 36.7907 15 36.5027 14.488C36.2227 13.968 36.0827 13.368 36.0827 12.688C36.0827 12.008 36.2187 11.412 36.4907 10.9C36.7707 10.38 37.1587 9.98 37.6547 9.7C38.1587 9.42 38.7347 9.28 39.3827 9.28C40.0067 9.28 40.5627 9.416 41.0507 9.688C41.5387 9.96 41.9187 10.344 42.1907 10.84C42.4627 11.328 42.5987 11.892 42.5987 12.532ZM41.1707 12.1C41.1627 11.596 40.9827 11.192 40.6307 10.888C40.2787 10.584 39.8427 10.432 39.3227 10.432C38.8507 10.432 38.4467 10.584 38.1107 10.888C37.7747 11.184 37.5747 11.588 37.5107 12.1H41.1707ZM44.4969 16.084C44.2489 16.084 44.0409 16 43.8729 15.832C43.7049 15.664 43.6209 15.456 43.6209 15.208C43.6209 14.96 43.7049 14.752 43.8729 14.584C44.0409 14.416 44.2489 14.332 44.4969 14.332C44.7369 14.332 44.9409 14.416 45.1089 14.584C45.2769 14.752 45.3609 14.96 45.3609 15.208C45.3609 15.456 45.2769 15.664 45.1089 15.832C44.9409 16 44.7369 16.084 44.4969 16.084ZM44.4969 11.044C44.2489 11.044 44.0409 10.96 43.8729 10.792C43.7049 10.624 43.6209 10.416 43.6209 10.168C43.6209 9.92 43.7049 9.712 43.8729 9.544C44.0409 9.376 44.2489 9.292 44.4969 9.292C44.7369 9.292 44.9409 9.376 45.1089 9.544C45.2769 9.712 45.3609 9.92 45.3609 10.168C45.3609 10.416 45.2769 10.624 45.1089 10.792C44.9409 10.96 44.7369 11.044 44.4969 11.044ZM49.6435 8.5V7.252H52.1395V16H50.7595V8.5H49.6435Z" fill="#606060"/>
</g>
<defs>
<clipPath id="clip0_1374_62893">
<rect width="220" height="150" fill="white"/>
</clipPath>
</defs>
</svg>
