<svg width="180" height="160" viewBox="0 0 180 160" fill="none" xmlns="http://www.w3.org/2000/svg">
<g clip-path="url(#clip0_691_62980)">
<path d="M20.786 160L20.6297 159.942C15.3342 157.945 11.1854 153.719 9.28541 148.388C8.77063 146.906 8.44445 145.366 8.31459 143.802L8.30183 143.653L8.44915 143.68C10.2078 143.995 12.0539 144.17 12.8765 144.238L8.26172 141.184L8.27005 141.026C8.34191 139.535 9.31356 138.238 10.724 137.75C12.148 137.224 13.7485 137.617 14.7666 138.743C15.2254 139.241 15.7104 139.742 16.1794 140.227C17.7912 141.893 19.4579 143.615 20.5118 145.649C22.0967 148.782 22.1828 152.463 20.7459 155.667L20.786 160Z" fill="#F2F2F2"/>
<path d="M114.16 157.041L114.158 157.025C113.954 152.495 113.123 148.016 111.689 143.715L111.687 143.708C111.604 143.266 111.628 142.811 111.758 142.381C112.159 141.147 113.401 140.393 114.68 140.605C116.002 140.853 117.368 140.62 118.533 139.947C119.272 139.518 120.169 139.459 120.959 139.787C121.703 140.09 122.26 140.728 122.46 141.506C122.476 141.568 122.489 141.629 122.501 141.692C122.543 146.243 123.379 150.751 124.971 155.014L124.972 155.02C125.139 155.9 124.873 156.807 124.257 157.458C123.714 158.01 122.951 158.29 122.179 158.222C120.794 158.127 119.369 158.408 117.822 159.081C117.282 159.322 116.675 159.364 116.107 159.202C115.102 158.907 114.349 158.071 114.16 157.041Z" fill="#B01873"/>
<path d="M69.8652 94.824V154.301H111.533V94.824C111.534 93.9459 110.963 93.1695 110.124 92.9103C109.931 92.8466 109.729 92.8153 109.526 92.8175H71.8776C70.7683 92.8153 69.8674 93.7128 69.8652 94.822V94.824ZM86.1264 115.261C86.149 112.804 88.1588 110.831 90.6154 110.854C93.04 110.876 95.0001 112.836 95.0224 115.261V122.162C95.0108 124.618 93.01 126.6 90.5534 126.589C88.1132 126.577 86.1379 124.602 86.1264 122.162V115.261Z" fill="#F2F2F2"/>
<path d="M69.7363 152.398V158.134C69.7383 158.752 70.2373 159.254 70.8556 159.259H110.54C111.159 159.256 111.659 158.753 111.659 158.134V152.398H69.7363Z" fill="#E6E6E6"/>
<path d="M4.31445 5.21357V113.811C4.31673 116.692 6.65218 119.028 9.53379 119.03H170.463C173.345 119.028 175.68 116.692 175.683 113.811V5.21357C175.676 2.33478 173.342 0.00365185 170.463 0H9.53379C6.65501 0.0036662 4.32131 2.33478 4.31445 5.21357Z" fill="#E6E6E6"/>
<path d="M169.122 3.76953H10.8773C9.33588 3.77289 8.08803 5.02334 8.08789 6.56478V112.471C8.09054 114.01 9.33786 115.258 10.8773 115.26H169.122C170.661 115.258 171.909 114.01 171.911 112.471V6.56478C171.911 5.02334 170.663 3.77289 169.122 3.76953ZM129.204 79.0111C128.731 79.9456 127.772 80.5336 126.724 80.5312L126.708 80.53C125.191 80.3186 123.668 80.1793 122.14 80.1119C122.377 80.2818 122.586 80.4883 122.759 80.7237C123.202 81.3592 123.338 82.1597 123.13 82.9061C122.785 84.2513 122.801 85.7039 123.181 87.3468C123.318 87.9215 123.25 88.5264 122.986 89.0555C122.513 89.99 121.554 90.578 120.507 90.5756L120.49 90.5744C116.867 90.0698 113.199 89.9721 109.555 90.2831C109.54 90.375 109.522 90.467 109.499 90.559C109.153 91.9042 109.169 93.3568 109.549 94.9996C109.687 95.5744 109.618 96.1793 109.354 96.7084C108.881 97.6428 107.922 98.2309 106.875 98.2284L106.858 98.2273C103.138 97.7093 99.3697 97.6206 95.6288 97.9628C95.6004 98.897 95.6975 99.8309 95.9173 100.739C96.0551 101.314 95.9862 101.919 95.7227 102.448C95.2498 103.383 94.2905 103.971 93.2432 103.968L93.2266 103.967C88.7362 103.341 84.1806 103.341 79.6902 103.967H79.683C79.2334 103.969 78.7901 103.862 78.3908 103.655C77.2512 103.036 76.7355 101.677 77.1777 100.458C77.3134 100.074 77.4142 99.6792 77.479 99.2773C73.3637 98.803 69.2049 98.8519 65.1019 99.4231H65.0947C64.6451 99.4248 64.2018 99.3178 63.8025 99.1113C62.6629 98.4924 62.1473 97.1333 62.5894 95.9142C63.0746 94.6603 63.0945 93.274 62.6455 92.0066C62.4339 91.4124 62.4338 90.7633 62.6453 90.169C59.5522 90.0114 56.451 90.1471 53.3835 90.5744H53.3762C52.9267 90.5761 52.4833 90.4692 52.084 90.2626C50.9445 89.6438 50.4288 88.2846 50.871 87.0656C51.3562 85.8117 51.376 84.4254 50.927 83.158C50.6402 82.3528 50.7455 81.4599 51.2117 80.7435C51.6458 80.0669 52.3746 79.6358 53.1765 79.581C53.2396 79.5768 53.3029 79.5746 53.3669 79.5746C54.9385 79.8493 56.5254 80.0286 58.1187 80.1114C57.1023 79.4433 56.6764 78.1655 57.0889 77.0212C57.5741 75.7673 57.594 74.381 57.145 73.1136C56.8582 72.3084 56.9634 71.4155 57.4297 70.6991C57.4498 70.6682 57.4733 70.6408 57.4946 70.6111C56.3607 70.6893 55.2295 70.8069 54.1009 70.9639H54.0937C53.6441 70.9656 53.2008 70.8587 52.8015 70.6522C51.6619 70.0333 51.1463 68.6741 51.5884 67.4551C52.0736 66.2012 52.0935 64.8149 51.6445 63.5475C51.3577 62.7423 51.4629 61.8494 51.9292 61.133C52.3633 60.4565 53.092 60.0253 53.894 59.9705C53.9571 59.9663 54.0204 59.9641 54.0843 59.9641C55.9741 60.295 57.8856 60.4874 59.8034 60.5398C59.3141 59.8347 59.1939 58.9372 59.4805 58.1282C59.9656 56.8742 59.9855 55.4879 59.5365 54.2206C59.2497 53.4154 59.355 52.5225 59.8212 51.8061C60.2553 51.1295 60.984 50.6984 61.786 50.6436C61.8491 50.6394 61.9124 50.6372 61.9764 50.6372C63.5756 50.9168 65.1905 51.0976 66.812 51.1785C66.4637 50.5189 66.4068 49.7438 66.655 49.0404C67.1402 47.7864 67.1601 46.4002 66.7111 45.1328C66.4243 44.3276 66.5295 43.4347 66.9958 42.7183C67.4299 42.0417 68.1586 41.6106 68.9606 41.5558C69.0237 41.5516 69.0869 41.5494 69.1509 41.5494C71.0327 41.8788 72.9359 42.0709 74.8456 42.1243C74.5856 41.5101 74.5644 40.8208 74.7862 40.1918C75.2714 38.9378 75.2913 37.5515 74.8422 36.2842C74.5554 35.479 74.6607 34.5861 75.1269 33.8696C75.5611 33.1931 76.2898 32.762 77.0918 32.7072C77.1548 32.703 77.2181 32.7007 77.2821 32.7007C81.764 33.4896 86.3491 33.4902 90.8311 32.7025H90.8367C91.1826 32.7738 91.5394 32.7738 91.8854 32.7025H91.891C96.373 33.4902 100.958 33.4896 105.44 32.7007C105.504 32.7007 105.567 32.703 105.63 32.7072C106.432 32.762 107.161 33.1931 107.595 33.8696C108.061 34.5861 108.167 35.479 107.88 36.2842C107.431 37.5515 107.451 38.9378 107.936 40.1918C108.158 40.8208 108.136 41.5101 107.876 42.1243C109.786 42.0709 111.689 41.8788 113.571 41.5494C113.635 41.5494 113.698 41.5516 113.761 41.5558C114.563 41.6106 115.292 42.0417 115.726 42.7183C116.193 43.4347 116.298 44.3276 116.011 45.1328C115.562 46.4002 115.582 47.7864 116.067 49.0404C116.315 49.7438 116.258 50.5189 115.91 51.1785C117.532 51.0976 119.146 50.9168 120.746 50.6372C120.81 50.6372 120.873 50.6394 120.936 50.6436C121.738 50.6984 122.467 51.1295 122.901 51.8061C123.367 52.5225 123.472 53.4154 123.186 54.2206C122.737 55.4879 122.756 56.8742 123.242 58.1282C123.529 58.9393 123.407 59.8391 122.915 60.545C123.129 60.7062 123.318 60.8976 123.476 61.1133C123.92 61.7487 124.056 62.5492 123.848 63.2956C123.502 64.6409 123.518 66.0934 123.898 67.7363C124.036 68.3111 123.967 68.916 123.704 69.445C123.607 69.6334 123.49 69.8103 123.354 69.9723C124.473 69.8739 125.59 69.7271 126.704 69.5319H126.71C127.606 69.5288 128.449 69.9555 128.977 70.6793C129.42 71.3148 129.556 72.1153 129.348 72.8617C129.003 74.207 129.019 75.6595 129.399 77.3024C129.536 77.8771 129.467 78.482 129.204 79.0111Z" fill="white"/>
<path d="M163.988 18.3583H15.9198C15.5946 18.3512 15.3367 18.0817 15.3439 17.7565C15.3508 17.4414 15.6046 17.1876 15.9198 17.1807H163.988C164.314 17.1878 164.571 17.4573 164.564 17.7825C164.557 18.0976 164.304 18.3514 163.988 18.3583Z" fill="#E6E6E6"/>
<path d="M91.7444 101.147L91.7278 101.146C87.2374 100.521 82.6819 100.521 78.1915 101.146H78.1842C77.7346 101.148 77.2913 101.041 76.892 100.835C75.7525 100.216 75.2368 98.8565 75.679 97.6375C76.1641 96.3835 76.184 94.9973 75.735 93.7299C75.4482 92.9247 75.5535 92.0318 76.0197 91.3154C76.4538 90.6388 77.1825 90.2077 77.9845 90.1529C78.0476 90.1487 78.1109 90.1465 78.1749 90.1465C82.6567 90.9353 87.2418 90.9359 91.7239 90.1482H91.7295C92.6254 90.1451 93.4685 90.5718 93.9965 91.2957C94.4401 91.9311 94.5764 92.7316 94.3681 93.478C94.0224 94.8233 94.0388 96.2758 94.4185 97.9187C94.5563 98.4935 94.4874 99.0984 94.224 99.6274C93.751 100.562 92.7917 101.15 91.7444 101.147Z" fill="#B01873"/>
<path d="M105.552 77.6985L101.94 74.709C99.2305 76.1289 95.1083 81.7978 95.1083 81.7978L85.5987 88.6373C84.4567 88.6917 83.575 89.6616 83.6293 90.8036C83.6837 91.9457 84.6536 92.8274 85.7957 92.773C86.5368 92.7377 87.2024 92.3085 87.5403 91.6479L100.461 84.8201L105.552 77.6985Z" fill="#D0D0D0"/>
<path d="M111.648 66.3209C113.733 68.0867 113.992 71.2085 112.226 73.2935C112.028 73.5272 111.809 73.7419 111.572 73.9351L109.274 75.8026C109.274 75.8026 103.544 84.0518 100.561 85.0088L92.9039 89.0092L89.4512 85.5474L96.3911 79.8916C96.3911 79.8916 99.583 76.8725 99.9027 74.6624C100.098 73.3089 102.389 69.622 104.685 66.8874C106.447 64.8085 109.561 64.5519 111.64 66.3142L111.648 66.3209Z" fill="#3F3D56"/>
<path d="M104.224 155.849L100.961 155.849L99.4082 143.26L104.225 143.26L104.224 155.849Z" fill="#D0D0D0"/>
<path d="M104.339 159.254L94.3027 159.253V159.126C94.3029 156.969 96.0518 155.22 98.2092 155.22L100.043 153.829L103.463 155.22L104.339 155.22L104.339 159.254Z" fill="#2F2E41"/>
<path d="M129.091 138.671L127.546 141.545L115.723 136.952L118.004 132.709L129.091 138.671Z" fill="#D0D0D0"/>
<path d="M132.145 140.182L127.392 149.021L127.28 148.961C125.38 147.939 124.668 145.571 125.689 143.671L125.689 143.67L125.332 141.397L128.177 139.043L128.592 138.271L132.145 140.182Z" fill="#2F2E41"/>
<path d="M98.0524 98.1982L95.1719 121.243L96.6122 128.969L122.537 140.327L123.978 135.646C117.351 131.591 110.267 125.454 105.803 125.003C105.803 125.003 105.433 120.913 108.631 118.389C109.276 117.88 109.135 117.191 109.396 116.567C109.575 116.137 110.289 115.69 110.472 115.249C110.709 114.678 110.415 114.111 110.654 113.531C110.787 113.205 111.295 113.184 111.428 112.858C111.655 112.301 111.507 111.439 111.728 110.888C112.201 109.713 112.655 108.563 113.07 107.485C114.362 104.131 115.271 101.473 115.156 100.899C114.796 99.0984 98.0524 98.1982 98.0524 98.1982Z" fill="#2F2E41"/>
<path d="M97.5578 121.177L96.0508 130.909L99.8543 150.769H104.895C106.706 144.096 106.8 135.325 105.075 127.905L97.5578 121.177Z" fill="#2F2E41"/>
<path d="M100.797 70.0426L103.12 65.9932L105.615 63.9916L110.296 63.2715L111.597 64.2715C116.277 71.4245 118.022 80.1054 116.47 88.5115L116.105 90.4902L115.873 91.7462L115.974 93.2475L115.192 95.4332L115.3 97.0336L115.357 97.8885L115.415 98.7463L115.495 99.9438C115.639 100.627 114.914 100.537 115.017 101.14C115.197 102.198 116.004 103.765 114.778 103.77L102.103 101.14C98.8827 101.153 95.8848 97.3131 98.9938 94.2041L100.797 70.0426Z" fill="#3F3D56"/>
<path d="M106.729 62.1429C110.128 62.1429 112.884 59.3872 112.884 55.988C112.884 52.5887 110.128 49.833 106.729 49.833C103.33 49.833 100.574 52.5887 100.574 55.988C100.574 59.3872 103.33 62.1429 106.729 62.1429Z" fill="#D0D0D0"/>
<path d="M106.833 61.9687C107.733 61.9827 108.634 61.9198 109.523 61.7806C110.406 61.6013 112.379 60.1553 112.929 59.2851C113.338 58.6386 113.599 57.6291 113.746 56.8961C114.147 54.9344 113.698 52.8946 112.51 51.2831C112.284 50.9498 111.972 50.6837 111.607 50.513C111.575 50.5004 111.542 50.4892 111.508 50.4796C110.977 50.3398 110.499 50.0444 110.137 49.6313C110.067 49.5477 109.991 49.4693 109.909 49.3967C109.5 49.0512 109.014 48.8075 108.493 48.6855C107.651 48.4601 106.432 48.6838 104.871 49.351C104.087 49.6862 103.229 49.5648 102.569 49.4217C102.494 49.4072 102.417 49.4337 102.366 49.4914C102.085 49.7549 101.715 49.9025 101.33 49.9043C101.094 49.9147 100.847 50.2412 100.548 50.6671C100.48 50.7638 100.401 50.8766 100.343 50.9452L100.336 50.8134L100.202 50.9604C99.516 51.717 99.5729 52.8867 100.329 53.573C100.533 53.7575 100.775 53.8944 101.037 53.9738C101.275 54.0369 101.518 54.0756 101.763 54.0894C101.911 54.1027 102.065 54.1165 102.212 54.1421C103.173 54.3389 103.96 55.026 104.284 55.9516C104.42 56.3308 104.838 56.5279 105.217 56.392C105.276 56.3706 105.333 56.3416 105.385 56.3057C105.696 56.0634 106.106 55.9887 106.483 56.1058C106.643 56.1949 106.768 56.3365 106.836 56.5068C106.92 56.6965 107.057 56.8571 107.232 56.9683C107.83 57.2764 107.871 58.6417 107.656 59.7798C107.449 60.8768 107.04 61.6704 106.662 61.7096C106.37 61.7398 106.337 61.7605 106.316 61.812L106.297 61.8582L106.329 61.9014C106.49 61.9597 106.662 61.9827 106.833 61.9687Z" fill="#2F2E41"/>
<path d="M94.3733 58.3389L94.3567 58.3377C89.8663 57.7121 85.3108 57.7121 80.8204 58.3377H80.8131C80.3636 58.3394 79.9202 58.2325 79.5209 58.0259C78.3814 57.4071 77.8657 56.0479 78.3079 54.8289C78.7931 53.575 78.8129 52.1887 78.3639 50.9213C78.0771 50.1161 78.1824 49.2232 78.6486 48.5068C79.0827 47.8302 79.8115 47.3991 80.6134 47.3443C80.6765 47.3401 80.7398 47.3379 80.8038 47.3379C85.2856 48.1267 89.8707 48.1273 94.3528 47.3396H94.3584C95.2543 47.3365 96.0974 47.7632 96.6254 48.4871C97.069 49.1225 97.2053 49.923 96.997 50.6694C96.6513 52.0147 96.6677 53.4672 97.0474 55.1101C97.1852 55.6849 97.1163 56.2898 96.8529 56.8188C96.3799 57.7533 95.4207 58.3414 94.3733 58.3389Z" fill="#B01873"/>
<path d="M100.131 72.8348L102.677 68.8977C100.951 66.3732 94.8388 62.9417 94.8388 62.9417L86.935 54.2965C86.7475 53.1686 85.6812 52.4063 84.5533 52.5938C83.4255 52.7812 82.6631 53.8475 82.8506 54.9754C82.9723 55.7073 83.4763 56.3182 84.1719 56.5766L92.4628 68.611L100.131 72.8348Z" fill="#D0D0D0"/>
<path d="M112.143 77.5588C110.633 79.8359 107.563 80.4577 105.285 78.9476C105.03 78.7784 104.791 78.5859 104.572 78.3725L102.449 76.3092C102.449 76.3092 93.5486 71.662 92.2496 68.8115L86.418 60.5401L90.3281 57.0127L97.1244 63.1909C97.1244 63.1909 100.254 66.8093 102.486 66.8685C103.853 66.9047 107.782 68.7489 110.766 70.7096C113.037 72.2169 113.656 75.2795 112.149 77.55L112.143 77.5588Z" fill="#3F3D56"/>
<path d="M52.8538 159.218L52.8372 159.217C48.3468 158.591 43.7913 158.591 39.3008 159.217H39.2936C38.844 159.218 38.4007 159.111 38.0014 158.905C36.8618 158.286 36.3462 156.927 36.7883 155.708C37.2735 154.454 37.2934 153.068 36.8444 151.8C36.5576 150.995 36.6628 150.102 37.1291 149.386C37.5632 148.709 38.2919 148.278 39.0939 148.223C39.157 148.219 39.2203 148.217 39.2842 148.217C43.7661 149.006 48.3512 149.006 52.8332 148.219H52.8389C53.7348 148.215 54.5779 148.642 55.1059 149.366C55.5494 150.001 55.6857 150.802 55.4775 151.548C55.1318 152.894 55.1482 154.346 55.5279 155.989C55.6657 156.564 55.5968 157.169 55.3334 157.698C54.8604 158.632 53.9011 159.22 52.8538 159.218Z" fill="#B01873"/>
<path d="M56.68 149.173L56.6634 149.172C52.1729 148.546 47.6174 148.546 43.127 149.172H43.1198C42.6702 149.173 42.2269 149.066 41.8275 148.86C40.688 148.241 40.1723 146.882 40.6145 145.663C41.0997 144.409 41.1196 143.023 40.6705 141.755C40.3837 140.95 40.489 140.057 40.9552 139.341C41.3894 138.664 42.1181 138.233 42.9201 138.178C42.9831 138.174 43.0464 138.172 43.1104 138.172C47.5922 138.961 52.1774 138.961 56.6594 138.174H56.665C57.561 138.17 58.4041 138.597 58.9321 139.321C59.3756 139.957 59.5119 140.757 59.3036 141.503C58.958 142.849 58.9743 144.301 59.3541 145.944C59.4918 146.519 59.423 147.124 59.1595 147.653C58.6866 148.587 57.7273 149.175 56.68 149.173Z" fill="#B01873"/>
<path d="M23.1965 151.911L23.2067 151.898C26.241 148.53 28.7936 144.756 30.7914 140.686L30.7955 140.68C31.046 140.307 31.383 140 31.7778 139.785C32.9289 139.188 34.3436 139.522 35.1055 140.571C35.8723 141.676 37.0094 142.469 38.3107 142.807C39.1383 143.021 39.8189 143.609 40.151 144.396C40.4682 145.135 40.4169 145.98 40.013 146.675C39.9811 146.729 39.9475 146.783 39.9116 146.836C36.747 150.106 34.1773 153.904 32.3184 158.057L32.3152 158.062C31.8158 158.806 30.99 159.265 30.0946 159.297C29.3197 159.308 28.5804 158.973 28.0788 158.382C27.1582 157.342 25.946 156.541 24.3724 155.935C23.8192 155.727 23.3567 155.331 23.0661 154.817C22.5571 153.902 22.6076 152.777 23.1965 151.911Z" fill="#B01873"/>
<path d="M179.532 159.582L0.466864 159.656C0.3096 159.655 0.182775 159.527 0.183598 159.369C0.184411 159.213 0.31076 159.087 0.466864 159.086L179.532 159.013C179.689 159.014 179.816 159.142 179.815 159.299C179.815 159.455 179.688 159.581 179.532 159.582Z" fill="#CACACA"/>
<path d="M38.5087 12.8918C39.6257 12.8918 40.5312 11.9662 40.5312 10.8243C40.5312 9.68248 39.6257 8.75684 38.5087 8.75684C37.3918 8.75684 36.4863 9.68248 36.4863 10.8243C36.4863 11.9662 37.3918 12.8918 38.5087 12.8918Z" fill="#3F3D56"/>
<path d="M45.4951 12.8918C46.612 12.8918 47.5175 11.9662 47.5175 10.8243C47.5175 9.68248 46.612 8.75684 45.4951 8.75684C44.3781 8.75684 43.4727 9.68248 43.4727 10.8243C43.4727 11.9662 44.3781 12.8918 45.4951 12.8918Z" fill="#3F3D56"/>
<path d="M52.4814 12.8918C53.5984 12.8918 54.5038 11.9662 54.5038 10.8243C54.5038 9.68248 53.5984 8.75684 52.4814 8.75684C51.3644 8.75684 50.459 9.68248 50.459 10.8243C50.459 11.9662 51.3644 12.8918 52.4814 12.8918Z" fill="#3F3D56"/>
<path d="M60.4475 12.4585C60.3854 12.4585 60.3234 12.4344 60.2766 12.3865L58.912 10.9915C58.821 10.8986 58.821 10.7501 58.912 10.6571L60.2766 9.26224C60.3692 9.16789 60.5208 9.16637 60.6148 9.25851C60.7092 9.35088 60.7109 9.50233 60.6185 9.59669L59.4175 10.8243L60.6185 12.0521C60.7109 12.1464 60.7092 12.2979 60.6148 12.3903C60.5683 12.4358 60.5079 12.4585 60.4475 12.4585Z" fill="#3F3D56"/>
<path d="M62.7411 12.4586C62.6807 12.4586 62.6204 12.436 62.5739 12.3904C62.4794 12.2981 62.4778 12.1467 62.5702 12.0523L63.7711 10.8245L62.5702 9.59686C62.4778 9.50251 62.4794 9.35105 62.5739 9.25868C62.6681 9.1662 62.8197 9.16795 62.9121 9.26242L64.2766 10.6573C64.3675 10.7502 64.3675 10.8988 64.2766 10.9917L62.9121 12.3867C62.8653 12.4346 62.8032 12.4586 62.7411 12.4586Z" fill="#3F3D56"/>
<path d="M134.131 8.99609H131.594C131.305 8.99609 131.07 9.23046 131.07 9.51984V12.0596C131.07 12.349 131.305 12.5834 131.594 12.5834H134.131C134.421 12.5834 134.658 12.349 134.658 12.0596V9.51984C134.658 9.23046 134.421 8.99609 134.131 8.99609Z" fill="#3F3D56"/>
<path d="M127.913 8.99609H125.375C125.086 8.99609 124.852 9.23046 124.852 9.51984V12.0596C124.852 12.349 125.086 12.5834 125.375 12.5834H127.913C128.202 12.5834 128.439 12.349 128.439 12.0596V9.51984C128.439 9.23046 128.202 8.99609 127.913 8.99609Z" fill="#3F3D56"/>
<path d="M139.991 9.11621H137.453C137.164 9.11621 136.93 9.35057 136.93 9.63995V12.1798C136.93 12.4691 137.164 12.7035 137.453 12.7035H139.991C140.28 12.7035 140.517 12.4691 140.517 12.1798V9.63995C140.517 9.35057 140.28 9.11621 139.991 9.11621Z" fill="#3F3D56"/>
<path d="M101.743 10.082H81.4608C81.1069 10.082 80.8223 10.369 80.8223 10.7206C80.8223 11.0721 81.1069 11.3591 81.4608 11.3591H101.743C102.095 11.3591 102.382 11.0721 102.382 10.7206C102.382 10.369 102.095 10.082 101.743 10.082Z" fill="#3F3D56"/>
</g>
<defs>
<clipPath id="clip0_691_62980">
<rect width="179.632" height="160" fill="white" transform="translate(0.183594)"/>
</clipPath>
</defs>
</svg>
