<svg width="207" height="122" viewBox="0 0 207 122" fill="none" xmlns="http://www.w3.org/2000/svg">
<path d="M205.998 0.951638C205.971 0.676791 205.726 0.475635 205.452 0.502344L200.973 0.937598C200.698 0.964307 200.497 1.20877 200.523 1.48362C200.55 1.75846 200.795 1.95962 201.069 1.93291L205.051 1.54602L205.438 5.52726C205.464 5.80211 205.709 6.00327 205.984 5.97656C206.258 5.94985 206.46 5.70539 206.433 5.43054L205.998 0.951638ZM0.988682 85.9999C1.31007 86.0071 1.63454 86.0136 1.96203 86.0191L1.97889 85.0192C1.6533 85.0137 1.33076 85.0074 1.01132 85.0001L0.988682 85.9999ZM3.96309 86.0414C4.62557 86.0452 5.29931 86.0455 5.98401 86.0421L5.97915 85.0421C5.29789 85.0454 4.62766 85.0452 3.96874 85.0415L3.96309 86.0414ZM7.97142 86.0227C8.64241 86.013 9.32307 85.9999 10.0131 85.9833L9.98919 84.9836C9.3022 85.0001 8.62467 85.0131 7.95686 85.0228L7.97142 86.0227ZM11.9829 85.9275C12.6476 85.9058 13.3205 85.8811 14.0013 85.8531L13.9602 84.8539C13.2823 84.8818 12.6122 84.9065 11.9503 84.9281L11.9829 85.9275ZM16.0019 85.7628C16.6591 85.7305 17.3231 85.6952 17.9938 85.6571L17.937 84.6587C17.2688 84.6967 16.6074 84.7318 15.9528 84.764L16.0019 85.7628ZM20.0258 85.5335C20.6775 85.4914 21.3351 85.4466 21.9984 85.3989L21.9267 84.4015C21.2658 84.449 20.6106 84.4937 19.9614 84.5356L20.0258 85.5335ZM23.9998 85.2479C24.6667 85.1951 25.3391 85.1396 26.0169 85.0812L25.931 84.0849C25.2556 84.1431 24.5855 84.1984 23.921 84.251L23.9998 85.2479ZM27.9906 84.9045C28.6534 84.8429 29.321 84.7786 29.9933 84.7115L29.8941 83.7165C29.224 83.7833 28.5586 83.8474 27.8981 83.9088L27.9906 84.9045ZM31.9985 84.5048C32.6525 84.4352 33.3106 84.3631 33.9728 84.2883L33.8606 83.2946C33.2005 83.3691 32.5445 83.4411 31.8927 83.5104L31.9985 84.5048ZM35.9717 84.056C36.6344 83.9768 37.3011 83.895 37.9715 83.8106L37.8465 82.8185C37.1782 82.9026 36.5137 82.9841 35.853 83.063L35.9717 84.056ZM39.9422 83.5562C40.6027 83.4689 41.2665 83.379 41.9338 83.2865L41.7965 82.296C41.1313 82.3882 40.4695 82.4778 39.8111 82.5649L39.9422 83.5562ZM43.9329 83.0032C44.5847 82.9087 45.2395 82.8118 45.8973 82.7124L45.7479 81.7236C45.0921 81.8227 44.4393 81.9194 43.7895 82.0135L43.9329 83.0032ZM47.8795 82.4067C48.5432 82.3023 49.2097 82.1953 49.879 82.0858L49.7175 81.099C49.0502 81.2081 48.3857 81.3148 47.7241 81.4189L47.8795 82.4067ZM51.8371 81.7594C52.4918 81.6483 53.149 81.5347 53.8086 81.4187L53.6353 80.4338C52.9777 80.5495 52.3224 80.6627 51.6697 80.7736L51.8371 81.7594ZM55.7948 81.063C56.4477 80.9441 57.103 80.8227 57.7604 80.6989L57.5753 79.7162C56.9198 79.8396 56.2666 79.9606 55.6156 80.0792L55.7948 81.063ZM59.7204 80.3237C60.3759 80.1962 61.0334 80.0663 61.6929 79.9339L61.4961 78.9534C60.8386 79.0854 60.183 79.215 59.5295 79.3421L59.7204 80.3237ZM63.6659 79.5316C64.3135 79.3976 64.9629 79.2611 65.614 79.1223L65.4055 78.1443C64.7563 78.2827 64.1088 78.4187 63.4632 78.5524L63.6659 79.5316ZM67.5726 78.6985C68.2272 78.5549 68.8834 78.4088 69.5413 78.2602L69.321 77.2848C68.6651 77.4329 68.0108 77.5785 67.3582 77.7218L67.5726 78.6985ZM71.4878 77.8145C72.1346 77.6643 72.7829 77.5118 73.4325 77.3569L73.2005 76.3841C72.5528 76.5386 71.9065 76.6907 71.2617 76.8404L71.4878 77.8145ZM75.3856 76.8848C76.0357 76.7256 76.6872 76.5639 77.3398 76.3998L77.096 75.43C76.4453 75.5936 75.7959 75.7548 75.1477 75.9135L75.3856 76.8848ZM79.2707 75.9082C79.9155 75.742 80.5614 75.5733 81.2084 75.4023L80.9527 74.4355C80.3077 74.606 79.6638 74.7741 79.021 74.9399L79.2707 75.9082ZM83.1525 74.8818C83.7956 74.7075 84.4397 74.5308 85.0847 74.3517L84.8171 73.3882C84.1741 73.5667 83.532 73.7429 82.8909 73.9166L83.1525 74.8818ZM87.0071 73.8115C87.6488 73.6291 88.2914 73.4442 88.9347 73.2569L88.6552 72.2968C88.0139 72.4835 87.3733 72.6678 86.7336 72.8497L87.0071 73.8115ZM90.867 72.6877C91.5036 72.498 92.141 72.3059 92.779 72.1114L92.4874 71.1549C91.8514 71.3488 91.2161 71.5403 90.5814 71.7294L90.867 72.6877ZM94.6902 71.5221C95.3279 71.3232 95.9662 71.1219 96.605 70.9182L96.3011 69.9655C95.6644 70.1686 95.0282 70.3692 94.3925 70.5674L94.6902 71.5221ZM98.5207 70.3005C99.1519 70.0946 99.7836 69.8864 100.416 69.6758L100.1 68.7271C99.4695 68.937 98.8399 69.1446 98.2107 69.3497L98.5207 70.3005ZM102.313 69.0366C102.946 68.8211 103.579 68.6032 104.212 68.3828L103.884 67.4384C103.252 67.658 102.621 67.8752 101.991 68.09L102.313 69.0366ZM106.107 67.7165C106.734 67.4938 107.36 67.2687 107.987 67.0412L107.646 66.1012C107.021 66.328 106.397 66.5523 105.772 66.7742L106.107 67.7165ZM109.868 66.3513C110.495 66.1189 111.122 65.884 111.75 65.6466L111.396 64.7114C110.771 64.9479 110.146 65.182 109.521 65.4136L109.868 66.3513ZM113.623 64.9302C114.244 64.6904 114.865 64.4481 115.486 64.2033L115.119 63.273C114.5 63.5169 113.882 63.7584 113.263 63.9974L113.623 64.9302ZM117.348 63.4617C117.968 63.2119 118.589 62.9597 119.209 62.705L118.829 61.78C118.211 62.0338 117.593 62.2851 116.975 62.5339L117.348 63.4617ZM121.061 61.937C121.675 61.6796 122.289 61.4198 122.903 61.1574L122.51 60.2379C121.898 60.4993 121.286 60.7582 120.674 61.0147L121.061 61.937ZM124.744 60.3628C125.357 60.0954 125.97 59.8255 126.582 59.553L126.176 58.6393C125.566 58.9108 124.955 59.1797 124.344 59.4461L124.744 60.3628ZM128.41 58.7319C129.017 58.4566 129.624 58.1787 130.23 57.8983L129.81 56.9907C129.206 57.2701 128.602 57.5469 127.997 57.8212L128.41 58.7319ZM132.046 57.0495C132.651 56.764 133.256 56.4759 133.86 56.1853L133.426 55.2842C132.824 55.5737 132.222 55.8607 131.619 56.1451L132.046 57.0495ZM135.662 55.3095C136.26 55.0158 136.858 54.7196 137.456 54.4207L137.008 53.5264C136.413 53.8241 135.818 54.1192 135.221 54.4118L135.662 55.3095ZM139.245 53.5164C139.841 53.2124 140.437 52.9057 141.031 52.5965L140.569 51.7094C139.977 52.0174 139.385 52.3228 138.791 52.6256L139.245 53.5164ZM142.805 51.6646C143.394 51.3521 143.983 51.037 144.57 50.7193L144.094 49.8396C143.509 50.1561 142.923 50.47 142.336 50.7812L142.805 51.6646ZM146.33 49.7582C146.916 49.4352 147.501 49.1095 148.085 48.7812L147.595 47.9095C147.013 48.2365 146.431 48.5608 145.847 48.8825L146.33 49.7582ZM149.828 47.7919C150.407 47.4601 150.984 47.1257 151.561 46.7887L151.057 45.9253C150.482 46.2609 149.907 46.5939 149.331 46.9243L149.828 47.7919ZM153.288 45.7695C153.863 45.4272 154.437 45.0821 155.009 44.7343L154.49 43.8797C153.92 44.2259 153.349 44.5695 152.777 44.9105L153.288 45.7695ZM156.718 43.6861C157.285 43.3348 157.851 42.9807 158.416 42.624L157.882 41.7785C157.32 42.1337 156.756 42.4862 156.191 42.836L156.718 43.6861ZM160.107 41.5457C160.669 41.1835 161.231 40.8186 161.79 40.451L161.241 39.6151C160.684 39.9811 160.125 40.3443 159.566 40.7049L160.107 41.5457ZM163.462 39.3428C164.016 38.9715 164.569 38.5975 165.121 38.2207L164.557 37.3949C164.008 37.7699 163.457 38.1422 162.905 38.5118L163.462 39.3428ZM166.772 37.0821C167.321 36.6999 167.868 36.3148 168.414 35.927L167.835 35.1117C167.292 35.4978 166.747 35.881 166.2 36.2615L166.772 37.0821ZM170.044 34.7577C170.584 34.3662 171.123 33.972 171.661 33.5749L171.066 32.7707C170.532 33.1659 169.995 33.5583 169.457 33.9479L170.044 34.7577ZM173.268 32.3754C173.802 31.9727 174.334 31.5673 174.865 31.159L174.256 30.3663C173.727 30.7726 173.197 31.1761 172.666 31.5769L173.268 32.3754ZM176.45 29.9279C176.975 29.516 177.498 29.1014 178.02 28.6839L177.395 27.9032C176.876 28.3187 176.355 28.7313 175.833 29.1412L176.45 29.9279ZM179.579 27.4229C180.097 26.9997 180.613 26.5737 181.128 26.1448L180.487 25.3767C179.975 25.8035 179.462 26.2274 178.946 26.6484L179.579 27.4229ZM182.663 24.8512C183.171 24.4189 183.677 23.9838 184.182 23.5458L183.526 22.7908C183.024 23.2266 182.521 23.6595 182.015 24.0896L182.663 24.8512ZM185.689 22.2232C186.189 21.7795 186.688 21.3329 187.184 20.8834L186.513 20.142C186.019 20.5892 185.523 21.0335 185.025 21.475L185.689 22.2232ZM188.667 19.5269C189.157 19.0743 189.644 18.6188 190.13 18.1604L189.443 17.4333C188.96 17.8892 188.475 18.3423 187.988 18.7926L188.667 19.5269ZM191.58 16.7767C192.062 16.3125 192.541 15.8454 193.018 15.3754L192.316 14.663C191.842 15.1305 191.365 15.5951 190.886 16.0568L191.58 16.7767ZM194.443 13.9566C194.913 13.4837 195.381 13.008 195.847 12.5293L195.13 11.832C194.667 12.3082 194.201 12.7814 193.734 13.2517L194.443 13.9566ZM197.236 11.0852C197.697 10.6009 198.156 10.1136 198.612 9.62343L197.88 8.94198C197.426 9.42949 196.97 9.91407 196.512 10.3957L197.236 11.0852ZM199.974 8.14402C200.424 7.65078 200.871 7.15461 201.315 6.65549L200.568 5.99034C200.126 6.48671 199.682 6.98014 199.235 7.47067L199.974 8.14402ZM202.639 5.15255C203.078 4.64862 203.515 4.14174 203.949 3.6319L203.187 2.98354C202.756 3.49054 202.321 3.99459 201.885 4.49572L202.639 5.15255ZM205.244 2.09347C205.459 1.83563 205.673 1.57704 205.886 1.3177L205.114 0.682301C204.902 0.940181 204.689 1.19732 204.475 1.45372L205.244 2.09347Z" fill="black"/>
<path d="M12.0085 59.1243L12.21 60.291L9.21431 60.8084L10.9106 70.631L9.47582 70.8787L7.77955 61.0561L4.76812 61.5762L4.56664 60.4095L12.0085 59.1243ZM18.4416 60.2703C19.0933 60.1578 19.7064 60.198 20.281 60.391C20.8537 60.5736 21.3353 60.918 21.7259 61.4242C22.1269 61.9287 22.3964 62.5803 22.5343 63.3792L23.4138 68.4718L21.9948 68.7168L21.1507 63.8292C21.0019 62.9673 20.6729 62.3475 20.1639 61.97C19.6531 61.5819 19.0246 61.4523 18.2783 61.5812C17.5215 61.7119 16.9579 62.0528 16.5876 62.6038C16.2279 63.1531 16.126 63.8797 16.2821 64.7836L17.1071 69.5609L15.6724 69.8087L13.6575 58.1414L15.0923 57.8936L15.8274 62.1506C16.035 61.6601 16.3649 61.2513 16.8172 60.9243C17.28 60.5954 17.8214 60.3774 18.4416 60.2703ZM32.8376 62.0545C32.8848 62.3278 32.9189 62.6196 32.94 62.9299L26.0342 64.1224C26.2338 64.9647 26.6381 65.5823 27.2472 65.975C27.8649 66.3555 28.5522 66.4803 29.309 66.3496C29.9292 66.2425 30.4197 66.0117 30.7806 65.6571C31.1502 65.2902 31.3774 64.8505 31.4621 64.3379L33.0072 64.0711C32.9193 64.9414 32.5739 65.6992 31.971 66.3446C31.3662 66.9794 30.5487 67.3858 29.5186 67.5637C28.6988 67.7053 27.9312 67.6484 27.216 67.393C26.5113 67.1359 25.9169 66.7027 25.4329 66.0935C24.947 65.4738 24.6269 64.7173 24.4726 63.8238C24.3183 62.9304 24.3618 62.1164 24.603 61.382C24.8442 60.6476 25.2545 60.0463 25.834 59.5782C26.4222 59.0978 27.1367 58.785 27.9776 58.6398C28.7974 58.4982 29.5536 58.5516 30.2459 58.8001C30.9383 59.0485 31.5071 59.4591 31.9524 60.0317C32.4064 60.5919 32.7014 61.2662 32.8376 62.0545ZM31.3038 62.0109C31.2094 61.4643 31.0077 61.0175 30.6988 60.6703C30.3881 60.3126 30.0052 60.0702 29.5503 59.9431C29.1041 59.8037 28.6287 59.7775 28.1242 59.8647C27.3989 59.9899 26.8187 60.3283 26.3835 60.8797C25.9588 61.4293 25.7805 62.1204 25.8485 62.953L31.3038 62.0109ZM37.3806 55.6683L37.1546 54.3597L40.1187 53.8478L42.0872 65.2471L40.6367 65.4976L38.8942 55.4069L37.3806 55.6683ZM49.4055 55.0368C48.9728 53.91 48.152 53.451 46.9432 53.6597C46.0077 53.8212 45.3714 54.3046 45.0341 55.1097C44.6951 55.9043 44.6733 57.1259 44.9688 58.7743C45.1162 58.186 45.4421 57.6913 45.9465 57.2903C46.4597 56.8769 47.0631 56.6103 47.7568 56.4905C48.8395 56.3036 49.7595 56.4911 50.5168 57.0531C51.2847 57.6132 51.7712 58.4872 51.9763 59.675C52.0997 60.3897 52.0685 61.0554 51.8827 61.672C51.7075 62.2868 51.3651 62.8114 50.8556 63.2457C50.3566 63.6783 49.7076 63.9636 48.9088 64.1015C47.8262 64.2885 46.9383 64.1928 46.2451 63.8146C45.552 63.4364 45.011 62.8424 44.6222 62.0328C44.2335 61.2231 43.9311 60.1929 43.7151 58.9421C43.0489 55.0845 44.0612 52.9234 46.7521 52.4587C47.7822 52.2808 48.6396 52.4196 49.3244 52.875C50.0093 53.3305 50.4777 53.9748 50.7299 54.8081L49.4055 55.0368ZM47.6669 57.7563C47.2149 57.8343 46.8056 58.0025 46.4388 58.2606C46.0703 58.5083 45.7925 58.8431 45.6056 59.2651C45.4274 59.6747 45.3846 60.1476 45.4771 60.6836C45.6151 61.4825 45.9589 62.0942 46.5085 62.5189C47.0563 62.9331 47.7611 63.0657 48.623 62.9169C49.3588 62.7898 49.9032 62.4631 50.2561 61.9367C50.6177 61.3979 50.7313 60.7397 50.597 59.9619C50.4554 59.142 50.1344 58.5371 49.6341 58.1472C49.132 57.7468 48.4763 57.6165 47.6669 57.7563ZM69.0174 51.6987L67.8133 60.8044L66.3313 61.0603L63.0657 54.5613L62.1689 61.7791L60.6868 62.0351L56.4829 53.8633L57.9492 53.6101L61.1882 60.5197L62.08 52.8967L63.5463 52.6435L66.8985 59.5498L67.5984 51.9437L69.0174 51.6987ZM79.0135 54.0804C79.0607 54.3537 79.0948 54.6454 79.1159 54.9557L72.2101 56.1483C72.4097 56.9906 72.814 57.6081 73.4231 58.0009C74.0408 58.3813 74.7281 58.5062 75.4849 58.3755C76.1051 58.2684 76.5956 58.0376 76.9565 57.683C77.3261 57.316 77.5533 56.8763 77.638 56.3638L79.1831 56.0969C79.0952 56.9672 78.7498 57.7251 78.1469 58.3704C77.5421 59.0053 76.7246 59.4116 75.6946 59.5895C74.8747 59.7311 74.1071 59.6742 73.3919 59.4189C72.6872 59.1617 72.0928 58.7285 71.6088 58.1194C71.1229 57.4997 70.8028 56.7431 70.6485 55.8497C70.4942 54.9562 70.5377 54.1423 70.7789 53.4079C71.0201 52.6734 71.4304 52.0722 72.0099 51.6041C72.5981 51.1236 73.3126 50.8108 74.1535 50.6656C74.9733 50.524 75.7295 50.5775 76.4218 50.8259C77.1142 51.0744 77.683 51.4849 78.1283 52.0575C78.5823 52.6178 78.8773 53.2921 79.0135 54.0804ZM77.4797 54.0368C77.3853 53.4902 77.1836 53.0433 76.8747 52.6961C76.564 52.3385 76.1811 52.0961 75.7262 51.969C75.28 51.8296 74.8046 51.8034 74.3001 51.8905C73.5748 52.0158 72.9946 52.3541 72.5594 52.9055C72.1347 53.4552 71.9564 54.1463 72.0244 54.9788L77.4797 54.0368ZM88.7906 52.392C88.8378 52.6652 88.872 52.957 88.8931 53.2673L81.9873 54.4599C82.1869 55.3022 82.5912 55.9197 83.2002 56.3125C83.818 56.6929 84.5053 56.8178 85.2621 56.6871C85.8822 56.58 86.3728 56.3491 86.7337 55.9945C87.1033 55.6276 87.3304 55.1879 87.4151 54.6753L88.9603 54.4085C88.8724 55.2788 88.527 56.0366 87.924 56.682C87.3192 57.3168 86.5018 57.7232 85.4717 57.9011C84.6518 58.0427 83.8843 57.9858 83.1691 57.7304C82.4644 57.4733 81.87 57.0401 81.3859 56.4309C80.9001 55.8112 80.58 55.0547 80.4257 54.1612C80.2714 53.2678 80.3149 52.4539 80.5561 51.7194C80.7973 50.985 81.2076 50.3837 81.7871 49.9156C82.3752 49.4352 83.0897 49.1224 83.9306 48.9772C84.7505 48.8356 85.5066 48.889 86.199 49.1375C86.8914 49.386 87.4602 49.7965 87.9055 50.3691C88.3594 50.9293 88.6545 51.6036 88.7906 52.392ZM87.2568 52.3483C87.1624 51.8018 86.9608 51.3549 86.6519 51.0077C86.3411 50.6501 85.9583 50.4077 85.5034 50.2806C85.0571 50.1411 84.5817 50.115 84.0772 50.2021C83.352 50.3274 82.7717 50.6657 82.3366 51.2171C81.9119 51.7667 81.7336 52.4578 81.8016 53.2904L87.2568 52.3483ZM96.3123 55.8829L92.2635 52.6528L92.9224 56.4683L91.4877 56.7161L89.4728 45.0488L90.9076 44.801L92.092 51.6595L94.7571 47.2537L96.7595 46.9079L93.435 51.9147L98.2673 55.5453L96.3123 55.8829Z" fill="#B01873"/>
<path d="M21.8941 102.079L23.2967 110.198C23.4528 111.102 23.2995 111.876 22.8369 112.518C22.3724 113.151 21.6829 113.546 20.7684 113.704C19.8435 113.864 19.0552 113.718 18.4037 113.268C17.7504 112.807 17.3412 112.098 17.176 111.142L18.6107 110.894C18.7138 111.428 18.9258 111.841 19.2467 112.132C19.5781 112.421 20.0118 112.519 20.5478 112.427C21.0839 112.334 21.4561 112.107 21.6644 111.747C21.8709 111.376 21.9315 110.943 21.8461 110.449L20.4436 102.329L21.8941 102.079ZM30.4115 112.071C29.6022 112.21 28.8347 112.154 28.1089 111.9C27.3937 111.645 26.7888 111.213 26.2942 110.606C25.8083 109.986 25.4882 109.23 25.3338 108.336C25.1813 107.453 25.2362 106.643 25.4984 105.905C25.7693 105.155 26.205 104.543 26.8054 104.072C27.4041 103.589 28.1133 103.278 28.9332 103.136C29.7531 102.994 30.5259 103.05 31.2516 103.304C31.9755 103.547 32.5848 103.972 33.0794 104.579C33.5845 105.185 33.9142 105.934 34.0685 106.828C34.2228 107.721 34.1593 108.544 33.8779 109.296C33.6052 110.036 33.1642 110.648 32.5551 111.132C31.9459 111.616 31.2314 111.929 30.4115 112.071ZM30.1937 110.809C30.7087 110.72 31.1713 110.516 31.5816 110.196C31.9918 109.876 32.2918 109.451 32.4815 108.92C32.6818 108.388 32.722 107.775 32.6022 107.081C32.4824 106.387 32.2441 105.822 31.8873 105.386C31.5305 104.95 31.1114 104.654 30.63 104.499C30.1467 104.333 29.6476 104.295 29.1326 104.384C28.607 104.475 28.1444 104.679 27.7447 104.997C27.3537 105.303 27.0685 105.72 26.8893 106.249C26.71 106.778 26.6803 107.389 26.8001 108.083C26.9218 108.787 27.1505 109.359 27.4863 109.799C27.8326 110.238 28.2421 110.54 28.7148 110.708C29.1857 110.864 29.6786 110.898 30.1937 110.809ZM42.874 100.874L44.3664 109.514L42.9316 109.762L42.7111 108.485C42.514 108.973 42.1903 109.387 41.7398 109.724C41.2981 110.049 40.7829 110.263 40.1943 110.365C39.5216 110.481 38.8936 110.449 38.3103 110.268C37.7252 110.077 37.2269 109.73 36.8154 109.227C36.4143 108.723 36.1448 108.071 36.0068 107.272L35.1326 102.211L36.5516 101.966L37.3931 106.838C37.5402 107.689 37.8691 108.309 38.38 108.697C38.889 109.075 39.5167 109.199 40.2629 109.07C41.0302 108.938 41.5938 108.597 41.9535 108.047C42.3133 107.498 42.4151 106.772 42.259 105.868L41.4392 101.122L42.874 100.874ZM46.9736 101.611C47.1406 101.073 47.4317 100.628 47.847 100.275C48.2727 99.9198 48.822 99.6843 49.4947 99.5681L49.7507 101.05L49.3723 101.115C47.7641 101.393 47.1107 102.405 47.4121 104.149L48.2237 108.848L46.7889 109.096L45.2965 100.456L46.7313 100.208L46.9736 101.611ZM55.3606 98.5548C56.4117 98.3733 57.3185 98.5468 58.0809 99.0754C58.8415 99.5935 59.3253 100.452 59.5323 101.65L60.4119 106.743L58.9929 106.988L58.1487 102.1C57.9998 101.238 57.6709 100.618 57.1618 100.241C56.651 99.8528 56.0224 99.7232 55.2762 99.8521C54.5194 99.9829 53.9558 100.324 53.5856 100.875C53.2258 101.424 53.124 102.151 53.2801 103.055L54.1053 107.832L52.6706 108.08L51.1782 99.4396L52.6129 99.1918L52.8253 100.422C53.0329 99.9311 53.3575 99.5233 53.7993 99.198C54.2515 98.8709 54.772 98.6565 55.3606 98.5548ZM69.8355 100.325C69.8827 100.598 69.9168 100.89 69.9379 101.2L63.0322 102.393C63.2318 103.235 63.6362 103.853 64.2452 104.246C64.863 104.626 65.5503 104.751 66.3071 104.62C66.9272 104.513 67.4177 104.282 67.7787 103.928C68.1483 103.561 68.3754 103.121 68.4601 102.608L70.0052 102.341C69.9174 103.212 69.572 103.97 68.969 104.615C68.3643 105.25 67.5468 105.656 66.5168 105.834C65.6969 105.976 64.9294 105.919 64.2141 105.664C63.5094 105.406 62.915 104.973 62.4309 104.364C61.945 103.745 61.6249 102.988 61.4706 102.095C61.3163 101.201 61.3597 100.387 61.6009 99.6527C61.8421 98.9183 62.2524 98.317 62.8318 97.8489C63.42 97.3684 64.1345 97.0556 64.9753 96.9103C65.7952 96.7687 66.5513 96.8221 67.2437 97.0706C67.9361 97.319 68.505 97.7295 68.9502 98.3021C69.4042 98.8623 69.6993 99.5366 69.8355 100.325ZM68.3017 100.281C68.2073 99.7348 68.0056 99.2879 67.6967 98.9408C67.3859 98.5831 67.0031 98.3407 66.5481 98.2136C66.1019 98.0742 65.6265 98.0481 65.122 98.1352C64.3967 98.2605 63.8165 98.5989 63.3814 99.1503C62.9567 99.7 62.7784 100.391 62.8464 101.224L68.3017 100.281ZM78.4821 94.7234L75.4742 108.33L73.9921 108.586L74.9759 104.129L70.0155 96.1859L71.6079 95.9108L75.5289 102.443L77 94.9794L78.4821 94.7234Z" fill="#B01873"/>
</svg>
