<svg width="25" height="24" viewBox="0 0 25 24" fill="none" xmlns="http://www.w3.org/2000/svg">
<mask id="mask0_94_555" style="mask-type:alpha" maskUnits="userSpaceOnUse" x="0" y="0" width="25" height="24">
<rect x="0.317383" width="24" height="24" fill="#D9D9D9"/>
</mask>
<g mask="url(#mask0_94_555)">
<path d="M9.51738 15.6L12.3174 13.5L15.0674 15.6L14.0174 12.2L16.8174 10H13.4174L12.3174 6.6L11.2174 10H7.81738L10.5674 12.2L9.51738 15.6ZM12.3174 22C10.0007 21.4167 8.08822 20.0875 6.57988 18.0125C5.07155 15.9375 4.31738 13.6333 4.31738 11.1V5L12.3174 2L20.3174 5V11.1C20.3174 13.6333 19.5632 15.9375 18.0549 18.0125C16.5465 20.0875 14.634 21.4167 12.3174 22Z" fill="white"/>
</g>
</svg>
