<svg width="18" height="19" viewBox="0 0 18 19" fill="none" xmlns="http://www.w3.org/2000/svg">
<g id="border_color">
<mask id="mask0_494_297" style="mask-type:alpha" maskUnits="userSpaceOnUse" x="0" y="0" width="18" height="19">
<rect id="Bounding box" y="0.294922" width="18" height="18" fill="#D9D9D9"/>
</mask>
<g mask="url(#mask0_494_297)">
<path id="border_color_2" d="M1.5 18.2947V15.2947H16.5V18.2947H1.5ZM3 13.7947V10.9822L9.7875 4.19471L12.6 7.00721L5.8125 13.7947H3ZM4.5 12.2947H5.175L10.5 7.00721L9.7875 6.29471L4.5 11.6197V12.2947ZM13.4438 6.18221L10.6313 3.36971L11.9813 2.01971C12.1188 1.86971 12.2937 1.79784 12.5063 1.80409C12.7188 1.81034 12.8938 1.88221 13.0312 2.01971L14.7938 3.78221C14.9313 3.91971 15 4.09159 15 4.29784C15 4.50409 14.9313 4.68221 14.7938 4.83221L13.4438 6.18221Z" fill="#D0D0D0"/>
</g>
</g>
</svg>
