<svg width="207" height="304" viewBox="0 0 207 304" fill="none" xmlns="http://www.w3.org/2000/svg">
<g clip-path="url(#clip0_523_3213)">
<path d="M92.2861 126.884C92.4786 128.13 90.9477 132.586 87.9499 140.814C87.53 141.973 87.0751 143.204 86.5968 144.517C85.5587 147.347 84.4593 150.344 83.3891 153.331C82.3189 156.319 81.2662 159.316 80.3447 162.107C78.3909 167.997 76.9824 173.016 76.9737 175.435C76.9737 176.253 76.9999 176.991 77.0262 177.712C77.0262 177.803 77.0262 177.894 77.0262 177.982C77.1311 180.523 77.2244 182.718 75.9355 185.621C75.7372 186.065 75.5389 186.508 75.3319 186.952C74.4571 188.882 73.5356 190.825 72.6374 192.727C71.7626 194.551 70.8877 196.423 70.0362 198.284C66.5369 205.968 62.2065 212.327 57.6311 219.008C57.532 219.15 57.4299 219.311 57.3395 219.439L56.3247 220.919C55.7969 221.691 55.2341 222.485 54.6946 223.251C54.5488 223.457 54.403 223.664 54.2484 223.859C54.0472 224.163 53.8402 224.439 53.639 224.734C51.3294 228.029 49.1365 231.455 48.2354 235.245C48.0459 236.041 47.6901 237.78 47.2089 240.248C45.7888 247.561 43.2751 261.249 40.7439 275.553C40.1315 279.033 39.5133 282.544 38.9097 286.015C37.8161 292.328 36.7634 298.477 35.8565 303.994H34.5326C35.4366 298.489 36.4952 292.331 37.5974 286.018C38.2332 282.37 38.8893 278.65 39.5425 274.984C42.1991 260.048 44.8236 245.859 46.1416 239.011C46.5586 236.838 46.8444 235.406 46.9611 234.92C47.9117 230.923 50.1484 227.403 52.5017 224.032C52.7204 223.713 52.9391 223.4 53.1636 223.087L53.6331 222.421C54.1143 221.746 54.5721 221.096 55.0212 220.451L55.2545 220.111L56.2664 218.631C56.3363 218.527 56.4093 218.427 56.4734 218.327C56.8467 217.786 57.217 217.247 57.5844 216.71C61.7457 210.612 65.6504 204.691 68.8523 197.682C69.7038 195.816 70.602 193.928 71.4768 192.11C72.5791 189.785 73.7193 187.384 74.7603 185.043C74.8391 184.861 74.9149 184.685 74.979 184.508C75.4418 183.361 75.7111 182.14 75.7751 180.897C75.8218 179.985 75.7751 179.052 75.7431 178.043C75.7081 177.226 75.676 176.384 75.6789 175.432C75.6789 170.472 80.8404 156.426 85.3837 144.027L86.9468 139.757C88.9501 134.246 90.7756 129.054 90.9885 127.465C89.0405 126.696 86.139 125.337 82.7855 123.665C82.2168 123.386 81.6394 123.094 81.0358 122.793C78.2684 121.392 75.2677 119.817 72.2875 118.206C69.7271 116.823 67.1726 115.413 64.7872 114.057C60.7513 111.765 57.1849 109.635 54.8375 108.057C54.5459 107.869 54.2805 107.683 54.0326 107.51C53.3436 107.034 52.7961 106.366 52.4521 105.583C50.8978 102.081 53.0353 96.1783 55.8669 90.5825C56.7417 88.8712 57.6603 87.1842 58.5613 85.6067C58.6809 85.403 58.7946 85.2024 58.9084 84.9988C59.2466 84.4152 60.4014 82.3452 62.1423 79.2236C72.7395 60.1563 105.009 1.71443 105.759 -0.00292969L106.945 0.562431C106.024 2.69013 74.18 60.1928 63.4954 79.4759C61.9994 82.172 60.9176 84.1173 60.3897 85.0656C60.174 85.4547 60.0544 85.6736 60.034 85.707C59.4274 86.7526 58.8646 87.7577 58.3455 88.7223C57.914 89.5125 57.5145 90.2785 57.1412 91.0141C56.7077 91.8672 56.3111 92.6859 55.9514 93.4701C53.9102 97.9139 53.0091 101.248 53.2511 103.519C53.3853 104.814 53.8927 105.759 54.7646 106.373C55.2341 106.701 55.7735 107.066 56.3743 107.455C58.9463 109.121 62.6293 111.297 66.7002 113.583C68.6686 114.692 70.7303 115.823 72.7978 116.942C75.5302 118.419 78.2713 119.863 80.8404 121.173C81.8756 121.696 82.8817 122.206 83.8411 122.693C87.1975 124.355 90.0466 125.668 91.875 126.361L92.2366 126.498L92.2861 126.884Z" fill="#601A72"/>
<path d="M85.9714 96.2442C80.4041 95.1588 73.3535 93.7575 69.6975 94.3919C68.3277 91.5458 66.2266 83.8012 68.1379 77.0068L60.7195 81.505C59.9882 85.7428 61.0179 92.32 62.1888 96.9412C62.883 99.7077 63.3596 101.389 66.1387 101.796C72.3215 102.701 78.6339 99.6064 84.479 98.7309C85.0852 97.426 85.1801 97.4574 85.9714 96.2442Z" fill="#D0D0D0"/>
<path d="M69.2671 77.1491C69.318 77.2384 69.3643 77.33 69.4129 77.4192L69.6813 77.2577C69.8872 77.3348 68.9501 76.9489 69.2671 77.1491Z" fill="#171717" fill-opacity="0.12"/>
<path d="M36.2681 147.668C35.5495 147.588 34.8766 147.263 34.3544 146.742C32.4894 145.054 32.3968 141.867 32.3205 139.313C32.3043 138.693 32.2858 138.107 32.2464 137.577L32.221 137.249C32.0451 134.851 31.86 132.372 31.064 130.165C30.8511 129.576 30.6174 128.993 30.393 128.426C29.9344 127.336 29.5388 126.219 29.2082 125.081C27.8037 119.907 28.2549 115.283 30.5156 111.714C31.8623 109.586 33.968 108.139 35.8492 107.003C36.7834 106.493 37.76 106.073 38.7671 105.747C39.3433 105.542 39.887 105.346 40.2804 105.158L40.565 105.809C40.1416 106.012 39.5839 106.212 38.9916 106.424C38.0264 106.739 37.0902 107.142 36.194 107.63C34.3822 108.725 32.3575 110.112 31.0895 112.117C28.3775 116.4 28.9282 121.429 29.8677 124.9C30.1908 126.011 30.5771 127.102 31.0247 128.165C31.2561 128.737 31.4875 129.328 31.705 129.926C32.538 132.229 32.7254 134.75 32.9059 137.208L32.9314 137.536C32.973 138.083 32.9892 138.676 33.0077 139.306C33.0841 141.846 33.1674 144.723 34.8057 146.218C35.5577 146.901 36.3074 147.123 37.034 146.879C38.2928 146.452 39.1952 144.747 39.5006 143.346C39.8917 141.551 39.9125 139.636 39.931 137.784V137.239C39.931 136.87 39.931 136.491 39.9056 136.086C39.857 134.685 39.8061 133.235 40.4817 132.039L41.0741 132.403C40.5002 133.419 40.5465 134.762 40.5928 136.06C40.6067 136.455 40.6229 136.863 40.6159 137.246V137.794C40.5974 139.682 40.5766 141.636 40.1694 143.505C39.8084 145.152 38.7648 147.043 37.2445 147.56C36.9289 147.661 36.5972 147.698 36.2681 147.668Z" fill="#601A72"/>
<path d="M26.6375 143.527C26.2949 143.501 25.9564 143.434 25.6286 143.326C24.7031 143.018 23.5461 142.222 23.1944 140.176C22.7825 137.699 23.2985 134.484 23.951 132.543C24.2102 131.769 24.4601 130.951 24.7007 130.162C25.2769 128.269 25.8739 126.303 26.7324 124.542C27.5878 122.874 28.5431 121.263 29.5924 119.719C30.0853 118.964 30.5943 118.182 31.0618 117.41C32.3157 115.312 33.9783 113.512 35.9418 112.126L36.525 113.014C34.6758 114.323 33.111 116.022 31.9318 118.001C31.4551 118.788 30.9414 119.576 30.4462 120.339C29.4181 121.839 28.4815 123.405 27.6418 125.027C26.8203 126.716 26.2349 128.645 25.6703 130.488C25.4389 131.284 25.1774 132.109 24.9113 132.9C24.1662 135.119 23.8723 138.035 24.1986 139.996C24.4022 141.202 24.9853 141.988 25.9318 142.306C27.6464 142.878 30.1894 141.824 31.4852 140.495C33.6078 138.252 35.2892 135.598 36.4347 132.683C36.643 132.154 36.8628 131.617 37.0942 131.05C37.9249 129.026 38.8643 126.732 39.1929 124.728L40.2087 124.909C39.8593 127.039 38.8944 129.395 38.0429 131.472C37.8115 132.036 37.5801 132.569 37.3904 133.088C36.2003 136.14 34.4418 138.917 32.2164 141.257C30.9113 142.603 28.6229 143.683 26.6375 143.527Z" fill="#494F60"/>
<path d="M37.6216 144.118C37.4836 144.678 37.2362 145.203 36.895 145.66C36.5539 146.116 36.1262 146.494 35.6386 146.771C35.3892 146.92 35.1265 147.042 34.8541 147.138C34.757 147.176 34.6598 147.208 34.558 147.239C34.2752 147.322 33.9877 147.385 33.6972 147.43C33.5259 147.451 33.3524 147.471 33.1719 147.485C33.0585 147.485 32.9405 147.499 32.8271 147.502C32.7716 147.502 32.7184 147.502 32.6628 147.502C32.5554 147.494 32.449 147.474 32.3458 147.442C32.0195 147.334 31.7365 147.117 31.5406 146.824C31.4509 146.707 31.3733 146.58 31.3092 146.445C31.2722 146.366 31.2375 146.281 31.2028 146.204C31.2028 146.168 31.1773 146.13 31.1634 146.093C31.1356 146.011 31.1102 145.929 31.0847 145.852C30.8348 144.974 30.7446 143.79 30.7724 142.418C30.7724 141.996 30.7978 141.554 30.8256 141.101C31.0148 138.532 31.3509 135.977 31.8321 133.45C31.9478 132.825 32.0635 132.206 32.1862 131.605C32.6952 129.032 33.2344 126.757 33.5861 125.373C33.6625 125.074 33.7296 124.813 33.7874 124.603C33.8568 124.345 33.9101 124.157 33.9448 124.051C34.0534 123.678 34.1392 123.299 34.2016 122.915C34.2773 122.421 34.3998 121.936 34.5672 121.468L35.2012 121.738C35.1596 121.849 35.1202 121.967 35.0855 122.085L35.583 122.435C35.2915 122.884 35.1364 123.641 35.0809 124.606C35.0396 125.357 35.0396 126.11 35.0809 126.861C35.0948 127.102 35.1087 127.362 35.1295 127.621C35.2706 129.55 35.5738 131.769 35.9186 133.908C36.0111 134.507 36.1106 135.097 36.2101 135.674C36.467 137.157 36.7261 138.554 36.9436 139.723C37.5337 142.755 37.7095 143.773 37.6216 144.118ZM36.2888 139.827C36.0875 138.747 35.8885 137.656 35.7034 136.605C35.6062 136.049 35.5113 135.497 35.4187 134.95C34.8657 131.656 34.4492 128.588 34.3844 126.198V126.113C34.3844 125.734 34.3844 125.37 34.3844 125.03C34.3289 125.23 34.2687 125.457 34.2062 125.71C34.1854 125.788 34.1669 125.872 34.1438 125.952C33.7041 127.707 33.0793 130.474 32.5379 133.428C32.3921 134.248 32.2486 135.083 32.1191 135.91C31.8738 137.466 31.6748 139.012 31.5568 140.43C31.5151 140.946 31.4827 141.448 31.4642 141.928C31.411 143.322 31.4642 144.523 31.6771 145.394C31.6986 145.494 31.7256 145.592 31.7581 145.688C31.7968 145.82 31.8464 145.948 31.9062 146.072C31.925 146.116 31.9466 146.16 31.971 146.202C32.0071 146.268 32.0465 146.333 32.089 146.395C32.1658 146.519 32.2724 146.62 32.3982 146.688C32.524 146.756 32.6647 146.789 32.8063 146.783C32.9984 146.783 33.2112 146.766 33.438 146.737C33.593 146.718 33.755 146.694 33.917 146.658C34.0132 146.643 34.1083 146.621 34.2016 146.593C34.46 146.528 34.7124 146.44 34.956 146.33C35.4485 146.12 35.8868 145.793 36.235 145.374C36.5832 144.955 36.8316 144.456 36.9598 143.918C36.9992 143.64 36.6544 141.788 36.2888 139.827Z" fill="#171C2B"/>
<path d="M33.968 146.337C33.968 146.41 33.9495 146.48 33.9379 146.552C33.9334 146.588 33.9265 146.623 33.9171 146.658C33.8834 146.867 33.8291 147.071 33.7551 147.268C33.5862 147.268 33.4196 147.292 33.2553 147.309C33.3386 147.127 33.4 146.935 33.4381 146.738C33.5076 146.421 33.5456 146.098 33.5515 145.773C33.6753 145.973 33.8146 146.161 33.968 146.337ZM33.968 146.337C33.968 146.41 33.9495 146.48 33.9379 146.552C33.9334 146.588 33.9265 146.623 33.9171 146.658C33.8834 146.867 33.8291 147.071 33.7551 147.268C33.7379 147.322 33.7178 147.376 33.6949 147.427C33.5791 147.736 33.3813 148.003 33.1246 148.198C32.868 148.393 32.5633 148.507 32.2464 148.527C31.9969 148.547 31.7463 148.547 31.4967 148.527C31.1831 148.506 30.8727 148.448 30.5711 148.356C30.3449 148.297 30.1385 148.174 29.9741 148.002C29.5785 147.519 30.1662 146.82 30.5758 146.484C30.7448 146.352 30.9226 146.232 31.108 146.125L31.1797 146.079C31.3791 145.966 31.5708 145.839 31.7536 145.698C31.8336 145.636 31.9065 145.565 31.9711 145.486C32.112 145.259 32.197 145 32.2187 144.731C32.2798 144.217 32.2968 143.698 32.2696 143.18C32.2433 143.069 32.2488 142.953 32.2854 142.845C32.3221 142.738 32.3881 142.644 32.4755 142.575C32.4913 142.56 32.5093 142.549 32.5287 142.541C32.6322 142.483 32.7458 142.448 32.8627 142.437C32.9796 142.426 33.0974 142.44 33.209 142.478C33.2454 142.486 33.281 142.497 33.3155 142.512C33.3988 142.541 33.644 142.63 33.8754 144C33.938 144.387 33.979 144.778 33.9981 145.17C34.0206 145.559 34.0106 145.95 33.968 146.337ZM33.5515 145.761C33.5908 144.442 33.2576 143.043 33.0887 142.792C33.0507 142.778 33.011 142.77 32.9707 142.768C32.9438 142.763 32.9163 142.763 32.8897 142.77C32.8631 142.776 32.8379 142.787 32.8156 142.804C32.7716 142.847 32.7397 142.902 32.7234 142.963C32.7071 143.024 32.707 143.088 32.7231 143.149V143.166C32.7231 143.226 32.7393 143.426 32.7393 143.694C32.7431 144.057 32.7199 144.42 32.6699 144.779C32.6412 145.096 32.5361 145.401 32.3644 145.664C32.2285 145.821 32.0728 145.959 31.9016 146.072C31.7952 146.147 31.6818 146.217 31.5684 146.287C31.5407 146.304 31.5083 146.32 31.4805 146.34L31.3139 146.441C31.1739 146.526 31.0387 146.62 30.909 146.721C30.5434 147.017 30.1269 147.56 30.349 147.833C30.4443 147.929 30.5626 147.996 30.6915 148.028C30.9596 148.116 31.237 148.168 31.5175 148.185C31.6494 148.197 31.779 148.202 31.9016 148.202C32.0243 148.202 32.0821 148.202 32.1608 148.202C32.3648 148.183 32.5613 148.113 32.7328 147.996C32.9044 147.88 33.0457 147.721 33.1442 147.534C33.153 147.521 33.16 147.507 33.1651 147.493C33.199 147.438 33.2277 147.38 33.2507 147.319C33.3339 147.137 33.3954 146.945 33.4335 146.747C33.506 146.424 33.5455 146.093 33.5515 145.761Z" fill="#7B88A8"/>
<path d="M32.5009 144.719C31.9248 144.586 31.9664 145.172 31.6448 145.416L31.1959 145.806C30.6081 145.891 31.2398 146.289 31.5823 146.289C32.0451 146.289 32.5079 145.874 32.7069 145.587C32.9059 145.3 33.0678 144.851 32.5009 144.719Z" fill="#7B88A8"/>
<path d="M38.6978 152.975C38.4386 153.172 37.3673 153.192 36.1362 153.122C34.718 153.054 33.3052 152.893 31.9064 152.639C30.8859 152.398 30.5296 152.574 30.2727 151.535C30.1131 150.893 30.3676 149.388 30.5041 148.614C30.5596 148.324 30.6013 148.132 30.6013 148.132C31.2376 147.152 37.0248 146.834 37.7953 147.912C38.4571 148.819 39.6742 152.227 38.6978 152.975Z" fill="#2D2D2D"/>
<path d="M38.9175 150.161C38.3969 148.764 37.027 146.907 35.1712 147.336L32.4477 149.748C32.2163 150.414 31.4666 150.86 31.1774 151.502C30.983 151.933 31.02 152.467 31.0085 152.949C30.9876 153.914 30.946 154.782 31.9664 155.407C33.5746 156.396 36.6151 156.077 38.103 155.103C39.968 153.89 39.57 151.912 38.9175 150.161Z" fill="#2D2D2D"/>
<path d="M36.5504 151.899C36.4494 152.318 36.3108 152.727 36.1362 153.119C34.7179 153.051 33.3052 152.89 31.9063 152.637C30.8859 152.395 30.5295 152.572 30.2727 151.532C30.113 150.89 30.3676 149.385 30.5041 148.611C30.5235 148.734 30.5359 148.858 30.5411 148.983C30.5243 149.376 30.6039 149.768 30.7725 150.121C31.1936 150.883 32.2303 150.82 32.9939 150.878C33.7575 150.936 34.9144 151.013 35.5647 150.589C36.1154 150.227 36.2264 149.243 36.2103 148.606C36.2103 148.493 36.2102 148.322 36.1941 148.16C36.3529 148.496 36.4942 148.841 36.6175 149.192C36.8142 149.959 36.7309 151.115 36.5504 151.899Z" fill="#3D3D3D"/>
<path d="M39.8871 145.52C39.8732 145.44 39.8408 145.1 39.8269 145.037C39.7274 145.163 39.621 145.561 39.459 145.732C39.6441 146.82 39.6904 148.156 39.1582 149.063C39.0591 149.25 38.9173 149.408 38.7454 149.524C38.5734 149.641 38.3766 149.711 38.1725 149.729C37.9591 149.745 37.7448 149.745 37.5315 149.729C36.9507 149.683 36.5018 149.548 36.3745 149.374C36.1431 149.101 36.5689 148.559 36.9345 148.262C37.1161 148.121 37.3071 147.994 37.506 147.881C37.8335 147.707 38.1319 147.479 38.39 147.206C38.8528 146.646 38.7602 144.905 38.7486 144.707V144.69C38.7325 144.629 38.7327 144.565 38.749 144.504C38.7653 144.443 38.7972 144.388 38.8412 144.345C38.8799 144.311 38.9291 144.292 38.98 144.292H39.0402C39.0504 144.179 39.0802 144.069 39.1281 143.967C39.0195 143.939 38.9066 143.935 38.7964 143.954C38.6863 143.974 38.581 144.017 38.4872 144.08C38.4001 144.15 38.3343 144.245 38.2978 144.353C38.2613 144.462 38.2555 144.578 38.2812 144.69C38.3113 145.201 38.3136 146.593 37.985 146.993C37.7529 147.234 37.4859 147.435 37.1937 147.589C36.9801 147.712 36.7745 147.85 36.5782 148.002C36.1663 148.334 35.5785 149.027 35.9742 149.514C36.282 149.893 37.0664 149.996 37.506 150.042C37.7548 150.061 38.0047 150.061 38.2534 150.042C39.179 149.955 39.7506 149.292 39.9472 148.067C40.0568 147.22 40.0365 146.36 39.8871 145.52Z" fill="#7B88A8"/>
<path d="M38.5173 146.248C37.9434 146.115 37.9828 146.701 37.6634 146.945L37.2145 147.333C36.6268 147.42 37.2585 147.816 37.601 147.816C38.0637 147.816 38.5265 147.403 38.7232 147.114C38.9199 146.824 39.0773 146.383 38.5173 146.248Z" fill="#7B88A8"/>
<path d="M72.5738 66.8502C72.1943 67.1469 71.7384 67.5256 71.4168 67.7716C71.4168 67.8174 71.4422 67.8656 71.4561 67.9211C71.5358 68.3009 71.5953 68.685 71.6343 69.0716C71.6343 69.0716 69.6698 69.5419 69.6999 69.6408C69.7623 69.841 71.3937 69.6408 71.6412 69.7156C71.8125 69.7638 71.4793 70.3089 71.8287 70.8323C71.9414 71.001 72.0309 71.1853 72.0948 71.3798C72.8607 73.6518 69.6327 73.7917 69.0381 73.8303C67.9089 73.9147 66.819 73.975 66.5552 74.25C66.2243 74.5925 66.3863 75.632 66.6431 76.6619C66.7889 77.2407 67.0296 77.8148 67.1059 78.4057C67.0527 78.4057 58.9817 78.1645 58.0816 75.3112C57.9011 74.7299 58.8475 74.0908 59.1136 73.8858C59.3172 73.7266 60.2706 72.921 60.3261 72.6798C60.3255 72.6734 60.3255 72.6669 60.3261 72.6605C60.3428 72.5365 60.3428 72.4107 60.3261 72.2867C60.3261 72.2465 60.3215 72.2031 60.3122 72.1564C60.2396 71.7975 60.127 71.4486 59.9767 71.1169C59.8101 70.6876 56.9385 68.3649 55.5594 65.9868C55.3678 65.6634 55.2044 65.3227 55.0711 64.9689C54.8677 64.4703 54.7927 63.9249 54.8536 63.3867C54.8881 63.1683 54.9361 62.9524 54.9971 62.7403C55.2596 61.9058 55.5958 61.0983 56.0013 60.3284C56.0175 60.2947 56.0361 60.2609 56.0569 60.2223C56.3488 59.6343 56.6944 59.077 57.0889 58.5581C57.3475 58.2227 57.6374 57.9149 57.9543 57.6392C58.3315 57.316 58.7341 57.0097 59.1506 56.7202C59.8305 56.2517 60.5342 55.8217 61.2586 55.4323C62.0939 54.9788 62.9941 54.248 63.9335 54.0382C63.9663 54.0318 63.9981 54.0213 64.0284 54.0068C64.0182 54.0175 64.011 54.0308 64.0076 54.0454L66.3724 55.4009C66.4927 55.7482 67.1591 56.7058 67.8973 57.7284C68.2305 58.1891 68.5753 58.6618 68.8946 59.0984C69.2139 59.5349 69.5379 59.9859 69.76 60.3043C69.9086 60.493 70.0323 60.7014 70.1279 60.9242C70.1551 61.2487 70.203 61.571 70.2714 61.8889C70.3987 62.5498 72.2452 65.5767 72.8167 66.5777C72.825 66.5959 72.8343 66.6136 72.8445 66.6308L72.5738 66.8502Z" fill="#BCBCBC"/>
<path d="M67.9366 57.7259C67.9158 57.7573 67.881 57.7838 67.8695 57.8224C67.5409 59.0862 61.763 61.884 61.9203 63.0273C62.677 68.5337 62.2721 67.7425 61.4298 68.2563C60.967 67.6871 60.8582 69.496 60.967 70.0797C61.0548 70.4707 61.0468 70.8785 60.9437 71.2654C60.8406 71.6524 60.6457 72.006 60.3769 72.2938C60.3769 72.2536 60.3723 72.2102 60.3631 72.1636C60.2904 71.8046 60.1778 71.4558 60.0275 71.124C59.8609 70.6947 56.9893 68.3721 55.6102 65.9939C55.4112 65.6538 53.0649 62.405 55.7306 59.2816C57.9843 56.6478 61.1845 53.2808 66.1433 51.6817C66.178 51.6744 69.3573 53.2446 67.9366 57.7259Z" fill="#323232"/>
<path d="M60.488 66.4718C59.7753 66.4163 58.8104 67.5113 59.0048 68.2662C59.1992 69.0211 60.0252 69.2792 60.6755 69.53C61.3257 69.7809 61.9481 70.1837 62.6469 70.0124C63.4823 69.7954 63.4545 69.4939 62.9917 68.7751C62.5683 68.107 61.3812 66.5417 60.488 66.4718Z" fill="#BCBCBC"/>
<path d="M60.8929 67.0364C61.1544 67.1497 62.0245 67.7479 61.9643 68.0204C61.9504 68.0879 61.8694 68.1386 61.8555 68.2351C61.8458 68.377 61.8763 68.5188 61.9435 68.6427C62.1124 68.9779 62.9338 69.0696 62.9338 69.0696C62.7534 69.0696 62.2582 69.552 61.6033 69.154C61.4944 69.087 61.4057 68.9895 61.3473 68.8725C61.289 68.7556 61.2632 68.6239 61.2731 68.4924C61.283 68.361 61.3281 68.2351 61.4032 68.129C61.4784 68.023 61.5806 67.9411 61.6982 67.8926C61.4023 67.6147 61.0456 67.4168 60.6592 67.3161C60.4546 67.2329 60.2275 67.2329 60.0229 67.3161C59.8864 67.3861 59.6388 67.5573 59.6689 67.731C59.3935 66.9447 60.3769 66.8145 60.8929 67.0364Z" fill="#171717" fill-opacity="0.12"/>
<path d="M105.191 70.8085C102.877 71.1509 100.427 72.0313 97.9367 73.1046C93.5819 74.9835 89.1438 77.4629 85.2772 78.7195C81.7114 79.8845 79.1175 80.2511 75.48 80.7672C74.4364 80.9168 70.3893 80.362 69.4429 80.9891L69.4174 81.0084C68.3438 81.7778 67.5293 86.1819 67.1405 87.3951C67.0966 87.5302 67.0549 87.6629 67.011 87.7955C65.7105 91.8355 64.8243 94.2039 63.5794 97.0186C62.8598 98.6491 62.0175 100.427 60.9068 102.766C60.2358 104.18 59.5184 106.674 59.007 108.104C56.036 105.465 49.948 104.857 46.1855 104.778C41.9371 104.691 41.1296 106.049 37.2028 107.125C37.3162 106.883 51.8848 75.7167 58.0907 73.8402C61.5339 72.7983 62.7464 71.655 66.3168 71.8938C69.8872 72.1326 72.5644 74.6024 76.0052 73.5315C79.3211 72.4992 83.1599 69.7496 86.6493 69.3734C91.8395 68.8138 99.1076 69.2769 104.353 68.2422L105.191 70.8085Z" fill="#D0D0D0"/>
<path d="M110.407 66.6285C109.347 66.192 107.861 66.5127 106.783 66.8118C105.589 67.1398 104.652 68.3337 103.497 68.587L103.347 70.6709C104.041 70.3718 104.358 70.9916 105.198 70.8108C105.832 70.6733 107.329 70.2295 107.889 69.8798C108.412 69.5493 108.852 69.0814 109.361 68.7486C109.928 68.3796 109.886 68.3795 110.434 68.6545C110.585 68.7293 109.469 70.2608 110.224 70.1016C110.886 69.9521 111.679 69.3419 111.612 68.8161C111.471 67.9165 110.508 66.9565 110.407 66.6285Z" fill="#D0D0D0"/>
<path d="M97.9368 73.1045C93.5819 74.9834 89.1438 77.4628 85.2772 78.7194C81.7114 79.8844 79.1175 80.251 75.48 80.7671C74.4364 80.9167 70.3894 80.3619 69.443 80.989L69.4175 81.0083C68.3438 81.7777 67.5293 86.1818 67.1406 87.395C67.0966 87.5301 67.055 87.6628 67.011 87.7954C65.7106 91.8354 64.8243 94.2038 63.5794 97.0185C62.8853 97.3128 62.1147 98.3161 61.1938 97.9833C61.4113 96.3143 66.6385 82.5953 67.7538 80.3402C68.9825 77.8535 71.8448 77.9645 74.4225 78.1695C76.7087 78.3528 78.7334 78.155 80.9617 77.9283C80.3439 77.4628 79.8441 76.5463 79.4021 75.8709C79.4021 75.8709 83.8958 75.8565 85.4485 74.9231C84.6062 75.8758 83.2294 75.8348 82.4265 76.6524C84.7404 79.2283 91.15 75.4199 93.6213 74.4359C95.0261 73.8812 96.4686 73.4361 97.9368 73.1045Z" fill="#171717" fill-opacity="0.12"/>
<path d="M75.8988 189.508C75.8572 189.585 75.8132 189.657 75.7646 189.73C74.6377 191.502 71.898 191.99 70.6138 191.505C66.805 190.058 62.8274 187.226 62.4016 186.782C62.5629 186.466 62.7628 186.172 62.9963 185.909C64.0237 184.703 65.8216 183.55 67.0387 183.439L68.802 184.452C69.2347 185.273 69.9381 186.317 71.5208 188.312C72.5783 189.665 75.3874 189.037 75.8988 189.508Z" fill="#313A44"/>
<path d="M75.7716 189.73C74.6447 191.503 71.905 191.99 70.6208 191.505C66.812 190.058 62.8344 187.226 62.4086 186.782C62.5696 186.464 62.757 186.162 62.9686 185.878L63.0056 185.909C64.3847 186.983 70.8059 193.082 75.7716 189.73Z" fill="#929292"/>
<path d="M68.6655 184.534C68.6655 184.534 68.1819 185.772 67.1175 185.687C65.5949 185.569 65.662 183.579 65.662 183.579C64.1232 175.116 60.4348 165.155 60.9439 162.596C61.2678 160.953 62.3855 158.57 62.4109 157.024C62.4364 155.377 60.3284 153.346 59.3681 152.159C56.7024 148.87 53.3148 145.944 50.2419 142.799C49.4274 141.964 48.6337 141.11 47.8817 140.233C45.7783 137.777 44.0036 135.114 42.9762 131.998L53.3889 124.553C54.5898 125.071 56.4525 128.064 57.5031 129.459C57.7345 129.762 58.4078 130.906 59.3334 132.517C59.8633 133.441 60.4742 134.521 61.1244 135.689C64.4495 141.658 68.8691 149.96 69.2694 151.728C69.7415 153.761 69.2417 172.19 68.6655 184.534Z" fill="#D0D0D0"/>
<path d="M69.4963 129.917L67.4415 130.556C66.428 131.798 65.9675 134.847 66.5159 136.366C67.3883 136.337 78.7798 133.301 80.2445 130.759C78.4443 130.918 71.0605 130.303 69.4963 129.917Z" fill="#313A44"/>
<path d="M80.2537 130.758C78.7797 133.3 67.3951 136.332 66.5158 136.365C66.3975 136.027 66.3092 135.679 66.252 135.324C68.1356 134.967 76.003 132.859 79.0921 130.784C79.5803 130.784 79.9806 130.784 80.2537 130.758Z" fill="#929292"/>
<path d="M81.929 100.636C81.6976 101.3 77.7824 110.868 74.7049 119.097C72.7056 124.43 71.0604 129.201 70.9841 130.616C70.9378 131.475 70.2043 132.958 69.1445 132.992C68.9304 133 68.717 132.961 68.5184 132.877C68.3199 132.793 68.1406 132.667 67.9924 132.505C67.8442 132.344 67.7305 132.152 67.6586 131.941C67.5868 131.731 67.5585 131.507 67.5756 131.285C67.807 128.467 68.5012 117.235 68.5244 115.332C68.5891 107.021 71.9721 104.947 72.0508 104.688C69.5633 105.306 63.9937 112.165 58.3986 116.401C57.4555 117.131 56.4633 117.789 55.4298 118.371L55.3233 118.434C55.2123 118.492 55.092 118.552 54.9878 118.608C52.7341 119.746 50.0244 120.296 47.8146 121.338L47.7059 106.929C48.7515 105.823 49.9108 104.84 51.1629 103.999H51.1328C51.3501 103.721 51.6049 103.477 51.8895 103.275C52.7202 102.643 53.8794 102.069 54.6269 101.625C54.6708 101.596 54.7164 101.569 54.7634 101.546C55.3326 101.237 56.9015 100.501 58.984 99.5825C61.5432 98.3765 64.0469 97.3418 66.0184 96.6279C71.3126 94.5175 76.7897 92.6169 78.4558 92.9208C80.2144 93.244 81.6421 95.9357 82.0563 97.472C82.3484 98.5128 82.3037 99.6248 81.929 100.636Z" fill="#BCBCBC"/>
<path d="M69.1422 132.992C68.9283 132.999 68.7152 132.96 68.517 132.875C68.3188 132.791 68.1398 132.665 67.9918 132.503C67.8437 132.342 67.73 132.15 67.6579 131.94C67.5858 131.73 67.557 131.507 67.5733 131.284C67.8047 128.467 68.4989 117.237 68.5244 115.332C68.5892 107.02 71.9721 104.961 72.0508 104.688C69.119 105.412 61.9134 114.787 55.4367 118.371L55.5733 118.144C62.7187 112.696 68.367 102.252 74.728 102.392C72.1549 105.257 70.9378 110.407 71.5093 114.227C71.8379 116.432 73.1129 117.782 74.7049 119.097C72.708 124.43 71.0581 129.2 70.9841 130.616C70.9401 131.475 70.2043 132.956 69.1422 132.992Z" fill="#171717" fill-opacity="0.12"/>
<path d="M60.2982 133.971C59.8655 134.682 58.3916 135.98 57.7853 136.583C55.3117 139.033 51.9565 141.055 48.7841 142.265C45.459 138.686 42.2195 135.227 38.6213 131.916C36.7563 130.199 34.7732 127.524 33.8777 124.832C33.5086 123.801 33.3464 122.702 33.401 121.603L52.0745 116.33C52.498 117.372 59.7984 130.652 60.3098 133.503C60.3558 133.656 60.3517 133.82 60.2982 133.971Z" fill="#601A72"/>
<path opacity="0.34" d="M60.2983 133.972C59.8656 134.683 58.3916 135.981 57.7853 136.584C55.3117 139.034 51.9565 141.055 48.7841 142.266C45.459 138.687 42.2195 135.228 38.6213 131.917C36.7563 130.199 34.7732 127.525 33.8778 124.833L40.1254 123.504C39.4312 124.09 42.2241 128.552 42.7725 129.396C44.3252 131.789 46.1185 134.136 48.2056 136.039C48.8188 136.601 49.7722 137.705 50.6029 137.819C51.1443 137.891 52.2226 137.406 52.7942 137.273C53.7161 137.052 54.6128 136.728 55.4691 136.309C57.1591 135.537 58.776 134.602 60.2983 133.516C60.3454 133.664 60.3454 133.824 60.2983 133.972Z" fill="black"/>
<path d="M58.9724 114.537C58.2702 115.445 57.5062 116.3 56.6862 117.093L56.6006 117.175L56.3345 117.417C55.4691 111.628 53.4652 105.273 50.2836 103.121C50.906 102.325 51.8432 101.527 52.4263 100.926L52.535 100.82C56.2535 103.826 58.107 110.188 58.9724 114.537Z" fill="#3B2541"/>
<path d="M53.3681 116.359C52.2643 116.955 51.1745 117.763 50.0892 118.431C49.6611 118.692 46.4702 120.976 46.2458 120.744L37.513 128.197C39.732 128.547 42.245 129.495 44.7232 129.304C47.2014 129.114 49.9342 128.113 51.665 126.219C53.7221 123.964 53.5578 119.273 53.3681 116.359Z" fill="#3B2541"/>
<path d="M57.8085 141.826C56.957 141.759 56.3044 140.432 55.564 138.932C55.4645 138.732 55.3719 138.541 55.3326 138.464C54.1373 136.354 53.3298 134.03 52.9515 131.612C52.6027 129.26 52.0908 126.938 51.4197 124.663C50.8875 122.898 50.2142 121.829 48.8443 120.59L49.8948 119.328C51.3601 120.575 52.4257 122.258 52.9492 124.152C53.644 126.502 54.1738 128.902 54.5343 131.332C54.8805 133.546 55.6197 135.672 56.714 137.603C56.7834 137.726 56.8714 137.907 56.9963 138.158C57.2277 138.611 57.8941 139.989 58.188 140.23C58.1109 140.182 58.0241 140.153 57.9346 140.146C57.8451 140.139 57.7552 140.153 57.672 140.189L58.2366 141.754C58.1008 141.811 57.9546 141.836 57.8085 141.826Z" fill="#3B2541"/>
<path d="M63.0288 137.883C60.5575 141.318 55.8163 143.628 52.1371 144.993C51.3203 144.159 50.5174 143.305 49.7746 142.427C54.8444 140.739 59.8749 138.04 61.2378 134.709C61.7677 135.633 62.3763 136.713 63.0288 137.883Z" fill="#3B2541"/>
<path d="M51.0565 124.868C51.0565 124.868 51.0565 124.868 51.0565 124.856L49.9296 123.843C50.2405 123.535 50.5881 123.269 50.9639 123.052C53.0927 121.629 57.5216 118.667 56.7094 113.028L58.1811 112.787C58.593 115.648 57.8918 118.265 56.0985 120.566C54.6546 122.418 52.859 123.626 51.7669 124.347C51.5218 124.508 51.2847 124.682 51.0565 124.868Z" fill="#3B2541"/>
<path d="M54.7148 120.436C54.3423 120.82 53.5417 121.546 52.5189 122.412C49.7422 124.773 45.2925 128.2 43.3742 128.683C38.1239 130.019 33.3364 126.767 31.4991 121.664C30.872 119.925 31.196 117.335 31.587 115.538C32.7116 110.383 36.6222 108.336 36.8189 107.974C36.8189 107.974 49.5779 101.578 50.4549 102.61C53.0951 105.716 54.3909 118.321 54.7148 120.436Z" fill="#591B76"/>
<path opacity="0.3" d="M54.7148 120.436C54.3423 120.819 53.5417 121.545 52.5189 122.411C52.5999 121.302 49.7676 106.251 48.3052 105.61C46.977 105.031 36.5273 108.263 36.8189 107.973C39.4753 105.371 49.5779 101.577 50.4549 102.609C53.0951 105.716 54.3909 118.321 54.7148 120.436Z" fill="black"/>
<path d="M37.0271 115.624C36.8035 115.741 36.5714 115.839 36.3329 115.918C35.9118 116.063 35.1435 116.268 34.7131 116.043C34.612 115.986 34.5292 115.899 34.4749 115.793C34.4207 115.687 34.3973 115.567 34.4077 115.448C34.4119 115.283 34.4408 115.12 34.4933 114.965C34.5301 114.836 34.5773 114.71 34.6345 114.589C34.6599 114.529 34.69 114.476 34.7155 114.423C34.8249 114.235 34.9446 114.053 35.0741 113.88L35.1343 113.798C35.3476 113.54 35.521 113.248 35.648 112.934C35.6908 112.746 35.6908 112.551 35.648 112.363C35.648 112.288 35.6202 112.213 35.6017 112.136C35.47 111.638 35.2958 111.154 35.0811 110.689C35.0171 110.595 34.98 110.484 34.9743 110.369C34.9685 110.255 34.9943 110.14 35.0487 110.04C35.1289 109.913 35.2442 109.813 35.3795 109.755C35.5054 109.697 35.6401 109.663 35.7775 109.654H35.8053C35.8596 109.65 35.9139 109.663 35.9603 109.693C36.1066 109.782 36.2341 109.901 36.3352 110.043C36.5311 110.283 36.709 110.538 36.8674 110.807C37.3165 111.528 37.6523 112.318 37.8624 113.149C38.1354 114.333 37.8531 115.175 37.0271 115.624ZM35.84 110.112C35.8 110.065 35.7549 110.022 35.7058 109.985L35.6295 109.999C35.6142 110.002 35.5994 110.007 35.5855 110.014C35.5329 110.026 35.4872 110.06 35.4582 110.108C35.4337 110.165 35.4246 110.228 35.432 110.291C35.4393 110.353 35.4628 110.413 35.4999 110.462V110.479C35.7264 110.965 35.9077 111.472 36.0413 111.994C36.0747 112.129 36.0987 112.267 36.1131 112.406C36.1395 112.581 36.1293 112.759 36.083 112.93C35.9947 113.18 35.8706 113.415 35.7151 113.627C35.6688 113.692 35.6248 113.757 35.5739 113.822C35.5554 113.848 35.5369 113.88 35.5161 113.906C35.3743 114.091 35.2437 114.284 35.125 114.485C34.8936 114.905 34.7108 115.573 35.0163 115.737C35.2106 115.841 35.6734 115.785 36.2264 115.597C36.4306 115.534 36.6295 115.453 36.8211 115.356C37.0034 115.258 37.1594 115.114 37.2753 114.938C37.3912 114.761 37.4633 114.558 37.4852 114.345C37.712 112.869 36.3699 110.694 35.84 110.112Z" fill="#7B88A8"/>
<path d="M35.8701 112.003C35.2893 112.109 35.5415 112.633 35.3356 112.987L35.0625 113.525C34.5512 113.839 35.2801 113.954 35.5971 113.817C36.0275 113.634 36.2912 113.072 36.3792 112.722C36.4671 112.372 36.4347 111.902 35.8701 112.003Z" fill="#7B88A8"/>
<path d="M34.572 114.416C34.572 114.493 34.5558 114.575 34.5442 114.671C34.5327 114.768 34.5211 114.85 34.5072 114.946C34.4864 115.098 34.4563 115.267 34.4216 115.429C34.3245 115.926 34.1755 116.412 33.9773 116.876C33.4775 118.004 32.7579 118.487 31.8392 118.323L31.7328 118.301C31.5518 118.259 31.3733 118.206 31.1983 118.142L31.1196 118.115C31.0039 118.072 30.8674 118.017 30.7239 117.949C30.3444 117.768 29.9233 117.508 29.7775 117.182C29.5207 116.606 30.2634 116.099 30.7424 115.892C30.9401 115.811 31.1426 115.744 31.3487 115.691L31.4435 115.662L31.5708 115.629C31.8478 115.566 32.1135 115.458 32.3576 115.308C32.5503 115.127 32.6973 114.899 32.7856 114.645C32.9774 114.167 33.1262 113.672 33.2299 113.166C33.2336 113.052 33.2688 112.942 33.3312 112.848C33.3936 112.754 33.4805 112.681 33.5816 112.638C33.723 112.596 33.8719 112.59 34.0159 112.62C34.16 112.651 34.2951 112.716 34.41 112.812C34.4494 112.841 34.535 112.901 34.5812 113.193C34.6256 113.599 34.6224 114.01 34.572 114.416ZM33.9912 115.238C34.0957 114.692 34.1523 114.138 34.1601 113.581C34.1689 113.4 34.1541 113.218 34.1161 113.041C34.081 113.018 34.0438 113 34.0051 112.985C33.9546 112.964 33.8982 112.964 33.8477 112.985C33.7947 113.015 33.7504 113.059 33.7198 113.113C33.6892 113.167 33.6734 113.229 33.6742 113.292V113.311C33.6008 113.661 33.5096 114.006 33.4011 114.346C33.3433 114.517 33.2785 114.69 33.2091 114.855C33.1021 115.151 32.9245 115.414 32.6931 115.619C32.5063 115.744 32.3027 115.839 32.0891 115.901C31.9827 115.937 31.8716 115.969 31.7629 116L31.6657 116.027L31.4875 116.075C31.3305 116.119 31.1759 116.172 31.0247 116.234C30.5943 116.42 30.0575 116.83 30.201 117.153C30.2727 117.317 30.5342 117.508 30.9113 117.679C31.016 117.73 31.1234 117.775 31.233 117.814C31.4338 117.892 31.6404 117.952 31.8508 117.995C31.877 117.997 31.9033 117.997 31.9295 117.995C32.1193 118.019 32.312 117.997 32.4923 117.931C32.6727 117.864 32.8357 117.755 32.9684 117.611C33.5053 117.09 33.82 116.14 33.9912 115.238Z" fill="#601A72"/>
<path d="M33.0564 114.738C32.5357 114.451 32.427 115.025 32.0567 115.175L31.5245 115.416C30.9345 115.337 31.4435 115.899 31.7744 115.99C32.221 116.12 32.7625 115.845 33.0355 115.624C33.3086 115.402 33.5677 115.023 33.0564 114.738Z" fill="#601A72"/>
<path d="M40.2596 105.942C40.2619 105.978 40.2619 106.013 40.2596 106.048C40.2523 106.114 40.2376 106.178 40.2156 106.239C40.1982 106.28 40.1765 106.319 40.1508 106.355C40.0963 106.429 40.0264 106.489 39.9462 106.531C39.866 106.573 39.7777 106.595 39.6881 106.596C39.6629 106.602 39.6374 106.607 39.6117 106.61C39.1493 106.704 38.6955 106.84 38.2557 107.016C38.0096 107.099 37.7876 107.246 37.6101 107.443C37.5693 107.503 37.533 107.567 37.5014 107.633C37.4628 107.711 37.4296 107.792 37.4019 107.874C37.3412 108.041 37.2887 108.211 37.2445 108.383C37.2445 108.417 37.226 108.448 37.2168 108.482C37.1577 108.694 37.0874 108.903 37.0062 109.107C36.8618 109.465 36.6306 109.779 36.3352 110.016C36.264 110.071 36.1818 110.108 36.0948 110.125C36.0078 110.141 35.9183 110.137 35.833 110.113C35.8001 110.103 35.7683 110.091 35.7382 110.074C35.6978 110.052 35.6591 110.027 35.6225 109.999C35.5331 109.923 35.4551 109.834 35.3911 109.734C35.3026 109.617 35.2251 109.492 35.1597 109.36C35.0516 109.132 34.9604 108.896 34.8866 108.653C34.8681 108.595 34.8519 108.54 34.838 108.484C34.7805 108.293 34.7357 108.097 34.7038 107.898C34.7038 107.841 34.7038 107.787 34.6853 107.732C34.6252 106.852 35.1134 106.171 36.1454 105.711C36.7749 105.446 37.437 105.276 38.1123 105.204C38.2766 105.185 38.4246 105.173 38.5426 105.163C39.5099 105.098 39.8477 105.199 39.9819 105.289C40.0156 105.312 40.0441 105.342 40.0652 105.378C40.1379 105.492 40.1919 105.617 40.2249 105.749C40.2424 105.812 40.254 105.877 40.2596 105.942ZM37.0062 107.872C37.0062 107.838 37.027 107.8 37.0409 107.763C37.1103 107.521 37.214 107.291 37.3487 107.081L37.3903 107.028C37.5887 106.826 37.8251 106.67 38.0845 106.569C38.526 106.39 38.9822 106.252 39.4474 106.157L39.5793 106.13H39.5978C39.6582 106.132 39.7177 106.116 39.7703 106.085C39.8228 106.054 39.8664 106.009 39.8963 105.954C39.8971 105.939 39.8971 105.924 39.8963 105.909C39.9016 105.868 39.8968 105.826 39.8824 105.788C39.8688 105.749 39.8526 105.711 39.8338 105.675C39.6004 105.618 39.3605 105.596 39.1211 105.609C38.6942 105.615 38.2681 105.652 37.8462 105.72C36.9391 105.865 35.9557 106.169 35.4073 106.741C35.2017 106.942 35.0651 107.208 35.0185 107.498C34.9989 107.629 34.9989 107.763 35.0185 107.894C35.0383 108.028 35.0661 108.161 35.1018 108.292C35.1234 108.374 35.1466 108.454 35.1712 108.533C35.2349 108.732 35.3122 108.926 35.4026 109.114C35.4258 109.167 35.4512 109.215 35.4744 109.261C35.5435 109.401 35.6415 109.523 35.7613 109.618L35.7844 109.633C35.834 109.658 35.89 109.665 35.9441 109.654C36.2241 109.606 36.5272 109.172 36.6869 108.8C36.7734 108.582 36.8468 108.358 36.9067 108.13C36.9067 108.099 36.9229 108.062 36.9345 108.031C36.946 108 36.9345 107.983 36.9553 107.959C36.9761 107.935 36.9969 107.913 37.0062 107.872Z" fill="#FFDC4A"/>
<path d="M38.198 106.728C38.4572 107.278 37.9041 107.377 37.7514 107.761L37.4946 108.306C37.557 108.921 37.0318 108.378 36.9531 108.031C36.842 107.56 37.1197 107.003 37.3418 106.726C37.564 106.448 37.9388 106.183 38.198 106.728Z" fill="#FFDC4A"/>
<path d="M88.024 94.776C86.7143 95.1161 85.4624 95.7842 84.2569 96.4113L80.2306 98.582C82.732 98.3143 85.1061 99.7132 87.5982 99.788C90.3587 99.8772 91.791 98.9197 93.2118 96.7007C91.3282 95.8735 90.0972 94.2358 88.024 94.776Z" fill="#D0D0D0"/>
<path d="M204.638 251.105C202.013 259.738 205.332 302.535 204.448 303.866L56.0359 303.982C55.9426 301.854 55.8435 299.726 55.7239 297.599C55.4323 292.538 54.8958 287.665 54.5166 282.732L66.6973 251.953L61.5532 230.652L72.3428 209.886L77.2332 194.907H76.9678C76.6762 191.73 75.5885 187.782 75.1335 186.28C73.8067 181.876 80.2426 171.675 80.2426 171.675C80.2426 171.675 78.7845 159.167 83.4882 153.179C85.8648 150.14 90.029 142.988 90.029 142.988L81.3624 133.987L81.3157 125.018L90.7289 116.276C90.7289 116.276 93.54 111.413 94.791 107.674C95.269 106.404 95.9106 105.207 96.6982 104.118C101.696 101.47 100.795 91.2571 106.356 88.7039C112.638 85.8194 117.079 78.5517 116.379 75.8192C116.379 75.7675 118.193 73.0835 118.178 73.0258C119.768 68.4664 108.876 44.0921 108.876 44.0921C108.876 44.0921 125.469 2.35264 126.609 0.267493L191.457 0.21582C193.428 12.5048 200.83 53.9798 200.83 53.9798C200.83 53.9798 208.863 84.4424 205.997 96.2998C202.025 112.729 202.681 128.607 203.124 145.456C203.708 167.277 204.32 189.071 205.382 210.87C206.102 225.682 209.018 236.613 204.638 251.105Z" fill="#2A2A2A"/>
<path d="M137.944 22.189C134.995 21.5097 131.977 21.2136 128.959 21.3075C128.084 14.8819 131.741 7.32547 135.083 0.267578H126.626C125.486 2.35273 108.893 44.0922 108.893 44.0922C108.893 44.0922 110.643 65.7157 109.057 70.269C109.071 70.3206 106.913 74.5609 106.928 74.6125C107.19 75.6369 110.99 78.5093 111.048 80.3391C111.139 83.3787 110.299 86.9015 106.383 88.704C100.822 91.2572 101.279 96.6464 96.2782 99.2939C95.5084 100.44 85.8881 98.0598 85.4711 99.2939C84.2201 103.039 79.3269 109.069 79.3269 109.069L81.3157 125.018L81.3769 133.988L80.2659 143.468L62.4251 156.301L71.9083 177.511C73.139 180.37 74.2205 183.297 75.1481 186.277C75.603 187.779 76.6907 191.727 76.9824 194.904H77.2331L72.3312 209.883L61.5415 230.649L66.6856 251.95L54.505 282.729C54.8841 287.662 55.4323 292.535 55.7122 297.596C55.8318 299.723 55.931 301.851 56.0243 303.979L81.1845 303.961C80.8928 299.574 80.1405 295.246 78.4346 291.234C76.2387 286.067 67.9366 278.838 67.9366 274.085C67.9366 268.309 78.0234 258.683 81.9193 256.273C85.6665 253.957 90.274 253.197 94.826 255.577C96.459 249.564 101.017 247.491 99.7134 242.634C99.0398 240.139 95.5434 237.728 94.8406 233.883C88.8218 233.722 82.7183 233.154 76.6995 233.008C76.4429 227.254 78.4287 214.737 78.4287 214.737C78.4287 214.737 99.4568 208.488 103.991 198.232C105.907 193.891 108.403 186.074 108.403 186.074C108.403 186.074 111.844 182.317 113.9 180.548C117.691 177.292 121.736 174.542 125.699 171.548C127.819 174.037 130.408 176.715 133.447 178.207C135.027 172.128 138.139 159.991 138.139 159.991C138.139 159.991 145.447 144.514 144.572 138.228C138.448 140.276 136.223 142.337 131.604 138.696C126.297 134.504 124.462 126.875 118.464 122.924C123.891 117.65 129.163 114.133 129.431 107.482C129.554 104.534 128.361 97.8805 128.361 97.8805C128.361 97.8805 134.065 91.8013 136.109 89.6736C143.4 82.1233 153.277 69.8556 153.277 69.8556C153.277 69.8556 154.924 62.1655 155.484 58.2444C155.499 58.2535 138.314 29.2104 137.944 22.189Z" fill="#3F3F3F"/>
<path d="M168.172 130.76C164.644 128.817 160.357 128.665 157.622 125.252C145.015 128.933 130.907 136.161 119.791 143.632L125.693 153.195C133.115 147.42 142.125 142.827 150.638 138.994C155.922 136.617 155.166 135.453 158.435 138.869C161.206 141.769 165.97 154.496 166.309 158.42C166.312 150.486 163.708 137.234 168.172 130.76Z" fill="#3F3F3F"/>
<path d="M161.541 82.4242C153.551 87.8954 143.852 89.7648 135.587 94.8865C135.771 86.0261 133.295 75.7371 132.715 66.5303C131.84 66.6914 132.05 67.3662 131.549 67.8221L120.392 80.8132C126.387 83.7464 134.421 97.5552 138.18 104.689C144.546 101.175 151.425 96.8227 158.301 94.4609C159.969 99.9929 163.99 105.595 167.612 109.932C167.402 100.4 167.58 90.2754 161.541 82.4242Z" fill="#3F3F3F"/>
<path d="M138.603 212.998C133.744 212.764 128.688 213.056 123.806 212.801C123.392 206.454 126.69 201.229 128.35 195.357C120.152 201.375 105.712 199.867 96.1237 203.114C98.8269 196.375 102.268 186.6 102.72 179.466L96.8323 190.408C97.3164 194.424 93.2047 201.907 93.1026 206.719C101.355 207.603 110.891 205.776 119.012 204.801C119.385 209.217 118.689 213.409 117.846 217.609C121.879 217.002 127.335 216.169 131.041 217.64C127.174 223.822 122.45 229.798 118.371 235.941C124.183 227.929 131.82 220.157 138.603 212.998Z" fill="#3F3F3F"/>
<path d="M76.0667 266.097C74.3783 270.848 73.1069 275.966 71.4009 280.726C68.6744 280.033 66.4056 278.626 64.274 276.975C65.0244 279.364 65.6951 281.773 66.2861 284.2C68.9747 285.24 71.4855 286.632 73.9759 288.1C74.6495 283.912 75.5418 278.24 78.0118 275.003C82.488 280.723 86.5093 287.228 90.8893 293.152C85.3399 284.954 80.5604 275.006 76.0667 266.097Z" fill="#3F3F3F"/>
<path d="M175.631 175.702C175.862 175.702 176.095 175.684 176.325 175.675C175.802 174.301 175.279 172.929 174.754 171.559C172.969 171.404 171.213 171.143 169.668 170.915C170.514 175.116 171.216 179.304 170.849 183.721C162.716 182.757 153.189 180.946 144.936 181.842C145.047 186.654 149.171 194.134 148.689 198.15L154.592 209.071C154.131 201.937 150.675 192.168 147.963 185.432C157.554 188.663 171.992 187.134 180.201 193.137C178.533 187.268 175.214 182.049 175.631 175.702Z" fill="#191919"/>
<path d="M204.638 251.106C202.013 259.738 205.332 302.535 204.448 303.867L139.801 303.918C139.743 303.058 139.676 302.201 139.588 301.347C138.588 291.347 133.036 277.769 135.602 267.79C136.984 262.419 140.659 261.306 145.426 257.498C154.32 250.41 166.53 244.54 173.646 235.613C169.613 232.312 164.988 228.622 159.849 226.747C160.724 222.187 161.952 217.558 162.273 212.746C162.999 201.849 164.877 195.041 168.717 184.737C172.371 174.94 165.588 174.858 156.656 172.98C161.153 170.302 171.321 167.259 173.57 162.605C175.818 157.952 173.17 146.827 173.622 141.596C174.229 134.581 175.865 132.824 172.255 127.918C169.295 123.915 162.41 117.726 157.966 116.246C162.681 116.057 167.341 117.103 172.091 116.854C173.342 111.34 179.819 98.5282 178.113 93.6344C176.454 88.8957 165.615 82.2816 161.06 81.3029C165.142 78.1904 173.386 76.5915 178.685 75.8772C176.2 64.0229 178.023 50.6488 177.273 38.4905C173.637 38.9221 170.499 41.53 167.72 43.7793C163.276 36.916 160.31 29.4933 154.382 23.3291C158.196 16.3928 163.098 8.4534 165.2 0.228308L191.472 0.207031C193.443 12.496 200.844 53.971 200.844 53.971C200.844 53.971 208.863 84.4428 205.997 96.3001C202.025 112.729 202.681 128.608 203.124 145.456C203.708 167.277 204.32 189.071 205.382 210.871C206.102 225.683 209.018 236.613 204.638 251.106Z" fill="#191919"/>
</g>
<defs>
<clipPath id="clip0_523_3213">
<rect width="207" height="304" fill="white" transform="matrix(-1 0 0 1 207 0)"/>
</clipPath>
</defs>
</svg>
