<svg width="16" height="16" viewBox="0 0 16 16" fill="none" xmlns="http://www.w3.org/2000/svg">
<g clip-path="url(#clip0_1623_62730)">
<path d="M0 0H16V16H0V0Z" fill="url(#paint0_linear_1623_62730)"/>
<path d="M15 1V15H1V1H15ZM16 0H0V16H16V0Z" fill="url(#paint1_linear_1623_62730)"/>
<path d="M11 3V2H3V3V6H3.5H4H5V4H7V12H4V9H6V7H3H2V9V14H3H4H9V13V12V4H11V3Z" fill="white"/>
<path d="M13 7H10V9H12V12H10V14H12H13H14V9V7H13Z" fill="white"/>
</g>
<defs>
<linearGradient id="paint0_linear_1623_62730" x1="13.76" y1="-4.64634" x2="0.570316" y2="11.6212" gradientUnits="userSpaceOnUse">
<stop stop-color="#9A1F78"/>
<stop offset="1" stop-color="#562E76"/>
</linearGradient>
<linearGradient id="paint1_linear_1623_62730" x1="13.76" y1="-4.64634" x2="0.570316" y2="11.6212" gradientUnits="userSpaceOnUse">
<stop stop-color="#9A1F78"/>
<stop offset="1" stop-color="#562E76"/>
</linearGradient>
<clipPath id="clip0_1623_62730">
<rect width="16" height="16" fill="white"/>
</clipPath>
</defs>
</svg>
