<?xml version="1.0" encoding="utf-8"?>
<!-- Generator: Adobe Illustrator 27.9.0, SVG Export Plug-In . SVG Version: 6.00 Build 0)  -->
<svg version="1.0" id="Layer_1" xmlns="http://www.w3.org/2000/svg" xmlns:xlink="http://www.w3.org/1999/xlink" x="0px" y="0px"
	 viewBox="0 0 1920 1080" style="enable-background:new 0 0 1920 1080;" xml:space="preserve">
<style type="text/css">
	.st0{fill:none;stroke:#FFFFFF;stroke-miterlimit:10;}
	.st1{clip-path:url(#SVGID_00000118396166887670677880000005817156932932600960_);}
</style>
<line class="st0" x1="0.5" y1="1080" x2="0.5" y2="0"/>
<g>
	<defs>
		<rect id="SVGID_1_" x="0.14" y="0.18" width="1923.72" height="1085.64"/>
	</defs>
	<clipPath id="SVGID_00000137821551018530068880000002405294383687744646_">
		<use xlink:href="#SVGID_1_"  style="overflow:visible;"/>
	</clipPath>
	<g style="clip-path:url(#SVGID_00000137821551018530068880000002405294383687744646_);">
		<g id="_x3C_Grid_Repeat_x3E__00000096744294963687168210000000736959137454944661_">
			<line class="st0" x1="0.64" y1="1080.18" x2="0.64" y2="0.18"/>
		</g>
		<g id="_x3C_Grid_Repeat_x3E__00000130623609197972007790000006109052332302578560_">
			<line class="st0" x1="11.64" y1="1080.18" x2="11.64" y2="0.18"/>
		</g>
		<g id="_x3C_Grid_Repeat_x3E__00000004512208426297269340000014666272492993237181_">
			<line class="st0" x1="22.64" y1="1080.18" x2="22.64" y2="0.18"/>
		</g>
		<g id="_x3C_Grid_Repeat_x3E__00000116943240936482483070000005083474391661433521_">
			<line class="st0" x1="33.64" y1="1080.18" x2="33.64" y2="0.18"/>
		</g>
		<g id="_x3C_Grid_Repeat_x3E__00000133523366209910697510000017789855946312387979_">
			<line class="st0" x1="44.64" y1="1080.18" x2="44.64" y2="0.18"/>
		</g>
		<g id="_x3C_Grid_Repeat_x3E__00000152237290997875138080000011640330276043228554_">
			<line class="st0" x1="55.64" y1="1080.18" x2="55.64" y2="0.18"/>
		</g>
		<g id="_x3C_Grid_Repeat_x3E__00000169556543847055485470000001532070605634763667_">
			<line class="st0" x1="66.64" y1="1080.18" x2="66.64" y2="0.18"/>
		</g>
		<g id="_x3C_Grid_Repeat_x3E__00000005230000165933402010000013094106169040348853_">
			<line class="st0" x1="77.64" y1="1080.18" x2="77.64" y2="0.18"/>
		</g>
		<g id="_x3C_Grid_Repeat_x3E__00000049205420428782442200000011609029880673708944_">
			<line class="st0" x1="88.64" y1="1080.18" x2="88.64" y2="0.18"/>
		</g>
		<g id="_x3C_Grid_Repeat_x3E__00000179626785325973975010000010017895107558373546_">
			<line class="st0" x1="99.64" y1="1080.18" x2="99.64" y2="0.18"/>
		</g>
		<g id="_x3C_Grid_Repeat_x3E__00000171693908974887768110000000763595960029229753_">
			<line class="st0" x1="110.64" y1="1080.18" x2="110.64" y2="0.18"/>
		</g>
		<g id="_x3C_Grid_Repeat_x3E__00000183229938531311845190000015988526591163728040_">
			<line class="st0" x1="121.64" y1="1080.18" x2="121.64" y2="0.18"/>
		</g>
		<g id="_x3C_Grid_Repeat_x3E__00000150101622955840338440000009997110781089637506_">
			<line class="st0" x1="132.64" y1="1080.18" x2="132.64" y2="0.18"/>
		</g>
		<g id="_x3C_Grid_Repeat_x3E__00000135652699007114521350000009394757074579136155_">
			<line class="st0" x1="143.64" y1="1080.18" x2="143.64" y2="0.18"/>
		</g>
		<g id="_x3C_Grid_Repeat_x3E__00000144336904484773757650000001554042457347368108_">
			<line class="st0" x1="154.64" y1="1080.18" x2="154.64" y2="0.18"/>
		</g>
		<g id="_x3C_Grid_Repeat_x3E__00000148656287293867314010000012899665317825364121_">
			<line class="st0" x1="165.64" y1="1080.18" x2="165.64" y2="0.18"/>
		</g>
		<g id="_x3C_Grid_Repeat_x3E__00000024723002232033968230000014471476499813100171_">
			<line class="st0" x1="176.64" y1="1080.18" x2="176.64" y2="0.18"/>
		</g>
		<g id="_x3C_Grid_Repeat_x3E__00000003826791044515698630000013553629818367646605_">
			<line class="st0" x1="187.64" y1="1080.18" x2="187.64" y2="0.18"/>
		</g>
		<g id="_x3C_Grid_Repeat_x3E__00000137823790823810532310000015863308581418243714_">
			<line class="st0" x1="198.64" y1="1080.18" x2="198.64" y2="0.18"/>
		</g>
		<g id="_x3C_Grid_Repeat_x3E__00000006696290255337601980000002688394980769558201_">
			<line class="st0" x1="209.64" y1="1080.18" x2="209.64" y2="0.18"/>
		</g>
		<g id="_x3C_Grid_Repeat_x3E__00000023253146659332801720000005121632670023374464_">
			<line class="st0" x1="220.64" y1="1080.18" x2="220.64" y2="0.18"/>
		</g>
		<g id="_x3C_Grid_Repeat_x3E__00000030468492009877793290000000614088662199036059_">
			<line class="st0" x1="231.64" y1="1080.18" x2="231.64" y2="0.18"/>
		</g>
		<g id="_x3C_Grid_Repeat_x3E__00000021109157266758497030000009396591380262178998_">
			<line class="st0" x1="242.64" y1="1080.18" x2="242.64" y2="0.18"/>
		</g>
		<g id="_x3C_Grid_Repeat_x3E__00000031198120064268383780000002525977015759550339_">
			<line class="st0" x1="253.64" y1="1080.18" x2="253.64" y2="0.18"/>
		</g>
		<g id="_x3C_Grid_Repeat_x3E__00000050647914731759244760000015782863273647772801_">
			<line class="st0" x1="264.64" y1="1080.18" x2="264.64" y2="0.18"/>
		</g>
		<g id="_x3C_Grid_Repeat_x3E__00000114790221420453249610000013173541681410537644_">
			<line class="st0" x1="275.64" y1="1080.18" x2="275.64" y2="0.18"/>
		</g>
		<g id="_x3C_Grid_Repeat_x3E__00000026884955779458404970000003092102508112510851_">
			<line class="st0" x1="286.64" y1="1080.18" x2="286.64" y2="0.18"/>
		</g>
		<g id="_x3C_Grid_Repeat_x3E__00000032638450838639749850000002447856257745049759_">
			<line class="st0" x1="297.64" y1="1080.18" x2="297.64" y2="0.18"/>
		</g>
		<g id="_x3C_Grid_Repeat_x3E__00000111158751838500305610000003110824019373391277_">
			<line class="st0" x1="308.64" y1="1080.18" x2="308.64" y2="0.18"/>
		</g>
		<g id="_x3C_Grid_Repeat_x3E__00000134942915189163018910000012326685098029984441_">
			<line class="st0" x1="319.64" y1="1080.18" x2="319.64" y2="0.18"/>
		</g>
		<g id="_x3C_Grid_Repeat_x3E__00000065786825640660234770000016624750815363924649_">
			<line class="st0" x1="330.64" y1="1080.18" x2="330.64" y2="0.18"/>
		</g>
		<g id="_x3C_Grid_Repeat_x3E__00000104677224944468916380000015080712204768040352_">
			<line class="st0" x1="341.64" y1="1080.18" x2="341.64" y2="0.18"/>
		</g>
		<g id="_x3C_Grid_Repeat_x3E__00000090258102837539496020000010343457168660197554_">
			<line class="st0" x1="352.64" y1="1080.18" x2="352.64" y2="0.18"/>
		</g>
		<g id="_x3C_Grid_Repeat_x3E__00000176750712117626006200000016510459105099460774_">
			<line class="st0" x1="363.64" y1="1080.18" x2="363.64" y2="0.18"/>
		</g>
		<g id="_x3C_Grid_Repeat_x3E__00000095313415384408177000000011755318812301113239_">
			<line class="st0" x1="374.64" y1="1080.18" x2="374.64" y2="0.18"/>
		</g>
		<g id="_x3C_Grid_Repeat_x3E__00000080908233019286293860000013712772437918248836_">
			<line class="st0" x1="385.64" y1="1080.18" x2="385.64" y2="0.18"/>
		</g>
		<g id="_x3C_Grid_Repeat_x3E__00000054257762105370651470000002884509778631702149_">
			<line class="st0" x1="396.64" y1="1080.18" x2="396.64" y2="0.18"/>
		</g>
		<g id="_x3C_Grid_Repeat_x3E__00000013885038779094303990000006039669173975754907_">
			<line class="st0" x1="407.64" y1="1080.18" x2="407.64" y2="0.18"/>
		</g>
		<g id="_x3C_Grid_Repeat_x3E__00000175297984644694034170000006097829336142987403_">
			<line class="st0" x1="418.64" y1="1080.18" x2="418.64" y2="0.18"/>
		</g>
		<g id="_x3C_Grid_Repeat_x3E__00000118373350118021220280000005421274127967216802_">
			<line class="st0" x1="429.64" y1="1080.18" x2="429.64" y2="0.18"/>
		</g>
		<g id="_x3C_Grid_Repeat_x3E__00000104690570462406511590000013943478940417281173_">
			<line class="st0" x1="440.64" y1="1080.18" x2="440.64" y2="0.18"/>
		</g>
		<g id="_x3C_Grid_Repeat_x3E__00000158029063591209166100000003613613401687569329_">
			<line class="st0" x1="451.64" y1="1080.18" x2="451.64" y2="0.18"/>
		</g>
		<g id="_x3C_Grid_Repeat_x3E__00000117652423772512459730000007475305426362637736_">
			<line class="st0" x1="462.64" y1="1080.18" x2="462.64" y2="0.18"/>
		</g>
		<g id="_x3C_Grid_Repeat_x3E__00000112607287290596571470000010004704381843734673_">
			<line class="st0" x1="473.64" y1="1080.18" x2="473.64" y2="0.18"/>
		</g>
		<g id="_x3C_Grid_Repeat_x3E__00000146458970970494994080000011820822434683722921_">
			<line class="st0" x1="484.64" y1="1080.18" x2="484.64" y2="0.18"/>
		</g>
		<g id="_x3C_Grid_Repeat_x3E__00000077288595845667488150000016734033828771176072_">
			<line class="st0" x1="495.64" y1="1080.18" x2="495.64" y2="0.18"/>
		</g>
		<g id="_x3C_Grid_Repeat_x3E__00000060709246318649546780000001417031025016759982_">
			<line class="st0" x1="506.64" y1="1080.18" x2="506.64" y2="0.18"/>
		</g>
		<g id="_x3C_Grid_Repeat_x3E__00000016762404521493981540000013107979409782448527_">
			<line class="st0" x1="517.64" y1="1080.18" x2="517.64" y2="0.18"/>
		</g>
		<g id="_x3C_Grid_Repeat_x3E__00000008114198441413953630000016398044772408488328_">
			<line class="st0" x1="528.64" y1="1080.18" x2="528.64" y2="0.18"/>
		</g>
		<g id="_x3C_Grid_Repeat_x3E__00000048463159777527294500000008787933849530918281_">
			<line class="st0" x1="539.64" y1="1080.18" x2="539.64" y2="0.18"/>
		</g>
		<g id="_x3C_Grid_Repeat_x3E__00000119839383584534811030000008828358962563860885_">
			<line class="st0" x1="550.64" y1="1080.18" x2="550.64" y2="0.18"/>
		</g>
		<g id="_x3C_Grid_Repeat_x3E__00000036224992211054200870000003462689216647474599_">
			<line class="st0" x1="561.64" y1="1080.18" x2="561.64" y2="0.18"/>
		</g>
		<g id="_x3C_Grid_Repeat_x3E__00000107554510570250264590000000875842876411367830_">
			<line class="st0" x1="572.64" y1="1080.18" x2="572.64" y2="0.18"/>
		</g>
		<g id="_x3C_Grid_Repeat_x3E__00000137851694238100801330000015278184444475982262_">
			<line class="st0" x1="583.64" y1="1080.18" x2="583.64" y2="0.18"/>
		</g>
		<g id="_x3C_Grid_Repeat_x3E__00000073700440277814753540000013191029118042029233_">
			<line class="st0" x1="594.64" y1="1080.18" x2="594.64" y2="0.18"/>
		</g>
		<g id="_x3C_Grid_Repeat_x3E__00000173133871908290143360000005875221488297514632_">
			<line class="st0" x1="605.64" y1="1080.18" x2="605.64" y2="0.18"/>
		</g>
		<g id="_x3C_Grid_Repeat_x3E__00000116926718666845115150000011443698334510310287_">
			<line class="st0" x1="616.64" y1="1080.18" x2="616.64" y2="0.18"/>
		</g>
		<g id="_x3C_Grid_Repeat_x3E__00000042732144506921038690000009795451702289618350_">
			<line class="st0" x1="627.64" y1="1080.18" x2="627.64" y2="0.18"/>
		</g>
		<g id="_x3C_Grid_Repeat_x3E__00000098188381784034705390000017511372008459551419_">
			<line class="st0" x1="638.64" y1="1080.18" x2="638.64" y2="0.18"/>
		</g>
		<g id="_x3C_Grid_Repeat_x3E__00000103261532546941421200000008701636775654594746_">
			<line class="st0" x1="649.64" y1="1080.18" x2="649.64" y2="0.18"/>
		</g>
		<g id="_x3C_Grid_Repeat_x3E__00000043415975886610877220000011338271253750464941_">
			<line class="st0" x1="660.64" y1="1080.18" x2="660.64" y2="0.18"/>
		</g>
		<g id="_x3C_Grid_Repeat_x3E__00000118360415181136714260000015970369322536653759_">
			<line class="st0" x1="671.64" y1="1080.18" x2="671.64" y2="0.18"/>
		</g>
		<g id="_x3C_Grid_Repeat_x3E__00000039102327658392462450000016122418181409179778_">
			<line class="st0" x1="682.64" y1="1080.18" x2="682.64" y2="0.18"/>
		</g>
		<g id="_x3C_Grid_Repeat_x3E__00000088828679679413540500000004043504377293017787_">
			<line class="st0" x1="693.64" y1="1080.18" x2="693.64" y2="0.18"/>
		</g>
		<g id="_x3C_Grid_Repeat_x3E__00000078740274547511217980000001716824478321689021_">
			<line class="st0" x1="704.64" y1="1080.18" x2="704.64" y2="0.18"/>
		</g>
		<g id="_x3C_Grid_Repeat_x3E__00000161608398129126951880000004197737568452138935_">
			<line class="st0" x1="715.64" y1="1080.18" x2="715.64" y2="0.18"/>
		</g>
		<g id="_x3C_Grid_Repeat_x3E__00000008836520268875698790000004223713402490356155_">
			<line class="st0" x1="726.64" y1="1080.18" x2="726.64" y2="0.18"/>
		</g>
		<g id="_x3C_Grid_Repeat_x3E__00000037688175298992337750000017813820048562898591_">
			<line class="st0" x1="737.64" y1="1080.18" x2="737.64" y2="0.18"/>
		</g>
		<g id="_x3C_Grid_Repeat_x3E__00000079460913134244277160000005845685984209353601_">
			<line class="st0" x1="748.64" y1="1080.18" x2="748.64" y2="0.18"/>
		</g>
		<g id="_x3C_Grid_Repeat_x3E__00000059993614863021561180000011325964127821769400_">
			<line class="st0" x1="759.64" y1="1080.18" x2="759.64" y2="0.18"/>
		</g>
		<g id="_x3C_Grid_Repeat_x3E__00000125568894742278986870000002232722743856934329_">
			<line class="st0" x1="770.64" y1="1080.18" x2="770.64" y2="0.18"/>
		</g>
		<g id="_x3C_Grid_Repeat_x3E__00000024722958174457286830000008782269536667069094_">
			<line class="st0" x1="781.64" y1="1080.18" x2="781.64" y2="0.18"/>
		</g>
		<g id="_x3C_Grid_Repeat_x3E__00000038399877091194375140000012051495370699467948_">
			<line class="st0" x1="792.64" y1="1080.18" x2="792.64" y2="0.18"/>
		</g>
		<g id="_x3C_Grid_Repeat_x3E__00000093177304006943309710000000202239013611176843_">
			<line class="st0" x1="803.64" y1="1080.18" x2="803.64" y2="0.18"/>
		</g>
		<g id="_x3C_Grid_Repeat_x3E__00000005240186445249603940000009291402610555565455_">
			<line class="st0" x1="814.64" y1="1080.18" x2="814.64" y2="0.18"/>
		</g>
		<g id="_x3C_Grid_Repeat_x3E__00000103245958386841423190000008413222301903147180_">
			<line class="st0" x1="825.64" y1="1080.18" x2="825.64" y2="0.18"/>
		</g>
		<g id="_x3C_Grid_Repeat_x3E__00000016756868821400338310000002950756614114544810_">
			<line class="st0" x1="836.64" y1="1080.18" x2="836.64" y2="0.18"/>
		</g>
		<g id="_x3C_Grid_Repeat_x3E__00000139985381922023133560000016000573158672402350_">
			<line class="st0" x1="847.64" y1="1080.18" x2="847.64" y2="0.18"/>
		</g>
		<g id="_x3C_Grid_Repeat_x3E__00000150802626724399199520000017848794492800585122_">
			<line class="st0" x1="858.64" y1="1080.18" x2="858.64" y2="0.18"/>
		</g>
		<g id="_x3C_Grid_Repeat_x3E__00000025411960393623772480000011337521134273591201_">
			<line class="st0" x1="869.64" y1="1080.18" x2="869.64" y2="0.18"/>
		</g>
		<g id="_x3C_Grid_Repeat_x3E__00000144311913926205712720000016115493092393759139_">
			<line class="st0" x1="880.64" y1="1080.18" x2="880.64" y2="0.18"/>
		</g>
		<g id="_x3C_Grid_Repeat_x3E__00000094582864011587666640000006786341139155932094_">
			<line class="st0" x1="891.64" y1="1080.18" x2="891.64" y2="0.18"/>
		</g>
		<g id="_x3C_Grid_Repeat_x3E__00000134957080887941994350000010479397696710378643_">
			<line class="st0" x1="902.64" y1="1080.18" x2="902.64" y2="0.18"/>
		</g>
		<g id="_x3C_Grid_Repeat_x3E__00000080919816059177131370000017886572523684965793_">
			<line class="st0" x1="913.64" y1="1080.18" x2="913.64" y2="0.18"/>
		</g>
		<g id="_x3C_Grid_Repeat_x3E__00000083793555356683889870000011925918702223656578_">
			<line class="st0" x1="924.64" y1="1080.18" x2="924.64" y2="0.18"/>
		</g>
		<g id="_x3C_Grid_Repeat_x3E__00000066493909659521264050000006023698813374210441_">
			<line class="st0" x1="935.64" y1="1080.18" x2="935.64" y2="0.18"/>
		</g>
		<g id="_x3C_Grid_Repeat_x3E__00000104669596112724500170000008566197329424323255_">
			<line class="st0" x1="946.64" y1="1080.18" x2="946.64" y2="0.18"/>
		</g>
		<g id="_x3C_Grid_Repeat_x3E__00000029765834081073216950000013898559390662833312_">
			<line class="st0" x1="957.64" y1="1080.18" x2="957.64" y2="0.18"/>
		</g>
		<g id="_x3C_Grid_Repeat_x3E__00000104669432846734194110000012728200662501839798_">
			<line class="st0" x1="968.64" y1="1080.18" x2="968.64" y2="0.18"/>
		</g>
		<g id="_x3C_Grid_Repeat_x3E__00000113346987457433310220000008882947176808462471_">
			<line class="st0" x1="979.64" y1="1080.18" x2="979.64" y2="0.18"/>
		</g>
		<g id="_x3C_Grid_Repeat_x3E__00000135655157501432025800000004614481137365008049_">
			<line class="st0" x1="990.64" y1="1080.18" x2="990.64" y2="0.18"/>
		</g>
		<g id="_x3C_Grid_Repeat_x3E__00000009562000823411073640000012163585486331994789_">
			<line class="st0" x1="1001.64" y1="1080.18" x2="1001.64" y2="0.18"/>
		</g>
		<g id="_x3C_Grid_Repeat_x3E__00000080178747125600929780000002296434281157597361_">
			<line class="st0" x1="1012.64" y1="1080.18" x2="1012.64" y2="0.18"/>
		</g>
		<g id="_x3C_Grid_Repeat_x3E__00000081613930714251082230000015216321380163444367_">
			<line class="st0" x1="1023.64" y1="1080.18" x2="1023.64" y2="0.18"/>
		</g>
		<g id="_x3C_Grid_Repeat_x3E__00000051381392078514846520000004149128648928447115_">
			<line class="st0" x1="1034.64" y1="1080.18" x2="1034.64" y2="0.18"/>
		</g>
		<g id="_x3C_Grid_Repeat_x3E__00000023278111811619125730000005182883462735441852_">
			<line class="st0" x1="1045.64" y1="1080.18" x2="1045.64" y2="0.18"/>
		</g>
		<g id="_x3C_Grid_Repeat_x3E__00000079460553764402974030000002660082737381691781_">
			<line class="st0" x1="1056.64" y1="1080.18" x2="1056.64" y2="0.18"/>
		</g>
		<g id="_x3C_Grid_Repeat_x3E__00000132803223834008302120000001080934974390956972_">
			<line class="st0" x1="1067.64" y1="1080.18" x2="1067.64" y2="0.18"/>
		</g>
		<g id="_x3C_Grid_Repeat_x3E__00000113323937595764204020000003202354985221460153_">
			<line class="st0" x1="1078.64" y1="1080.18" x2="1078.64" y2="0.18"/>
		</g>
		<g id="_x3C_Grid_Repeat_x3E__00000044150000185301615120000008809157135398005681_">
			<line class="st0" x1="1089.64" y1="1080.18" x2="1089.64" y2="0.18"/>
		</g>
		<g id="_x3C_Grid_Repeat_x3E__00000004508034364283172710000013056512589341963179_">
			<line class="st0" x1="1100.64" y1="1080.18" x2="1100.64" y2="0.18"/>
		</g>
		<g id="_x3C_Grid_Repeat_x3E__00000154424407453008843990000013185357740229987982_">
			<line class="st0" x1="1111.64" y1="1080.18" x2="1111.64" y2="0.18"/>
		</g>
		<g id="_x3C_Grid_Repeat_x3E__00000139981143519704623680000010459797397201971376_">
			<line class="st0" x1="1122.64" y1="1080.18" x2="1122.64" y2="0.18"/>
		</g>
		<g id="_x3C_Grid_Repeat_x3E__00000119837597548770040590000017547491731245767061_">
			<line class="st0" x1="1133.64" y1="1080.18" x2="1133.64" y2="0.18"/>
		</g>
		<g id="_x3C_Grid_Repeat_x3E__00000098201323306526353000000016719264065957424778_">
			<line class="st0" x1="1144.64" y1="1080.18" x2="1144.64" y2="0.18"/>
		</g>
		<g id="_x3C_Grid_Repeat_x3E__00000111158359308605485490000007631516942804987309_">
			<line class="st0" x1="1155.64" y1="1080.18" x2="1155.64" y2="0.18"/>
		</g>
		<g id="_x3C_Grid_Repeat_x3E__00000170988680395427617690000012841777430339901360_">
			<line class="st0" x1="1166.64" y1="1080.18" x2="1166.64" y2="0.18"/>
		</g>
		<g id="_x3C_Grid_Repeat_x3E__00000142883598250927935650000012871823455137703586_">
			<line class="st0" x1="1177.64" y1="1080.18" x2="1177.64" y2="0.18"/>
		</g>
		<g id="_x3C_Grid_Repeat_x3E__00000182522204383525178040000009932957064659793840_">
			<line class="st0" x1="1188.64" y1="1080.18" x2="1188.64" y2="0.18"/>
		</g>
		<g id="_x3C_Grid_Repeat_x3E__00000061473766193467794890000013479812368913487234_">
			<line class="st0" x1="1199.64" y1="1080.18" x2="1199.64" y2="0.18"/>
		</g>
		<g id="_x3C_Grid_Repeat_x3E__00000074436228492737495000000004584249904384626586_">
			<line class="st0" x1="1210.64" y1="1080.18" x2="1210.64" y2="0.18"/>
		</g>
		<g id="_x3C_Grid_Repeat_x3E__00000181054072785302665690000018226485396406388391_">
			<line class="st0" x1="1221.64" y1="1080.18" x2="1221.64" y2="0.18"/>
		</g>
		<g id="_x3C_Grid_Repeat_x3E__00000014605159493726818090000012856767936559116171_">
			<line class="st0" x1="1232.64" y1="1080.18" x2="1232.64" y2="0.18"/>
		</g>
		<g id="_x3C_Grid_Repeat_x3E__00000083773380432715874600000000188985015258940299_">
			<line class="st0" x1="1243.64" y1="1080.18" x2="1243.64" y2="0.18"/>
		</g>
		<g id="_x3C_Grid_Repeat_x3E__00000041288090443716953360000003218743605455274430_">
			<line class="st0" x1="1254.64" y1="1080.18" x2="1254.64" y2="0.18"/>
		</g>
		<g id="_x3C_Grid_Repeat_x3E__00000171705343687635983590000016566646304916538287_">
			<line class="st0" x1="1265.64" y1="1080.18" x2="1265.64" y2="0.18"/>
		</g>
		<g id="_x3C_Grid_Repeat_x3E__00000139295633021188270920000008222932109174775220_">
			<line class="st0" x1="1276.64" y1="1080.18" x2="1276.64" y2="0.18"/>
		</g>
		<g id="_x3C_Grid_Repeat_x3E__00000072982344556391038310000012277421567273026214_">
			<line class="st0" x1="1287.64" y1="1080.18" x2="1287.64" y2="0.18"/>
		</g>
		<g id="_x3C_Grid_Repeat_x3E__00000086651789363816548110000005552053180602613686_">
			<line class="st0" x1="1298.64" y1="1080.18" x2="1298.64" y2="0.18"/>
		</g>
		<g id="_x3C_Grid_Repeat_x3E__00000132795249078159530020000001750486370039675792_">
			<line class="st0" x1="1309.64" y1="1080.18" x2="1309.64" y2="0.18"/>
		</g>
		<g id="_x3C_Grid_Repeat_x3E__00000075158567490804136910000003188329040023460535_">
			<line class="st0" x1="1320.64" y1="1080.18" x2="1320.64" y2="0.18"/>
		</g>
		<g id="_x3C_Grid_Repeat_x3E__00000147935147004257822740000000757607450612011445_">
			<line class="st0" x1="1331.64" y1="1080.18" x2="1331.64" y2="0.18"/>
		</g>
		<g id="_x3C_Grid_Repeat_x3E__00000145034408124851845740000000663532996122727867_">
			<line class="st0" x1="1342.64" y1="1080.18" x2="1342.64" y2="0.18"/>
		</g>
		<g id="_x3C_Grid_Repeat_x3E__00000135677395605113759630000004278240067501461382_">
			<line class="st0" x1="1353.64" y1="1080.18" x2="1353.64" y2="0.18"/>
		</g>
		<g id="_x3C_Grid_Repeat_x3E__00000035494585812182390930000011038101851050194311_">
			<line class="st0" x1="1364.64" y1="1080.18" x2="1364.64" y2="0.18"/>
		</g>
		<g id="_x3C_Grid_Repeat_x3E__00000094588557915036834740000018085511879261047461_">
			<line class="st0" x1="1375.64" y1="1080.18" x2="1375.64" y2="0.18"/>
		</g>
		<g id="_x3C_Grid_Repeat_x3E__00000106145441678147947250000005281272418785897915_">
			<line class="st0" x1="1386.64" y1="1080.18" x2="1386.64" y2="0.18"/>
		</g>
		<g id="_x3C_Grid_Repeat_x3E__00000116916544293339488510000010876598093093869186_">
			<line class="st0" x1="1397.64" y1="1080.18" x2="1397.64" y2="0.18"/>
		</g>
		<g id="_x3C_Grid_Repeat_x3E__00000105398997791646588500000004904778501056904580_">
			<line class="st0" x1="1408.64" y1="1080.18" x2="1408.64" y2="0.18"/>
		</g>
		<g id="_x3C_Grid_Repeat_x3E__00000087402654052478612520000009435320701803541426_">
			<line class="st0" x1="1419.64" y1="1080.18" x2="1419.64" y2="0.18"/>
		</g>
		<g id="_x3C_Grid_Repeat_x3E__00000073723324482892827800000013571911872275282623_">
			<line class="st0" x1="1430.64" y1="1080.18" x2="1430.64" y2="0.18"/>
		</g>
		<g id="_x3C_Grid_Repeat_x3E__00000151501817414349703210000011318124096748782267_">
			<line class="st0" x1="1441.64" y1="1080.18" x2="1441.64" y2="0.18"/>
		</g>
		<g id="_x3C_Grid_Repeat_x3E__00000010292230794385593120000005633784436549169809_">
			<line class="st0" x1="1452.64" y1="1080.18" x2="1452.64" y2="0.18"/>
		</g>
		<g id="_x3C_Grid_Repeat_x3E__00000130622934302704425400000009230812486793269383_">
			<line class="st0" x1="1463.64" y1="1080.18" x2="1463.64" y2="0.18"/>
		</g>
		<g id="_x3C_Grid_Repeat_x3E__00000058556226050512432890000003328988045244605572_">
			<line class="st0" x1="1474.64" y1="1080.18" x2="1474.64" y2="0.18"/>
		</g>
		<g id="_x3C_Grid_Repeat_x3E__00000011735756405838483330000001804444183122875795_">
			<line class="st0" x1="1485.64" y1="1080.18" x2="1485.64" y2="0.18"/>
		</g>
		<g id="_x3C_Grid_Repeat_x3E__00000106831848380474144800000016059036318385864361_">
			<line class="st0" x1="1496.64" y1="1080.18" x2="1496.64" y2="0.18"/>
		</g>
		<g id="_x3C_Grid_Repeat_x3E__00000182505103653349681840000004631796038258145441_">
			<line class="st0" x1="1507.64" y1="1080.18" x2="1507.64" y2="0.18"/>
		</g>
		<g id="_x3C_Grid_Repeat_x3E__00000084523493214920420210000010508073544409834121_">
			<line class="st0" x1="1518.64" y1="1080.18" x2="1518.64" y2="0.18"/>
		</g>
		<g id="_x3C_Grid_Repeat_x3E__00000178165641971181541060000005212794911400926347_">
			<line class="st0" x1="1529.64" y1="1080.18" x2="1529.64" y2="0.18"/>
		</g>
		<g id="_x3C_Grid_Repeat_x3E__00000168107069618622878000000007939351760886117772_">
			<line class="st0" x1="1540.64" y1="1080.18" x2="1540.64" y2="0.18"/>
		</g>
		<g id="_x3C_Grid_Repeat_x3E__00000054946246778463077320000008792001177691927681_">
			<line class="st0" x1="1551.64" y1="1080.18" x2="1551.64" y2="0.18"/>
		</g>
		<g id="_x3C_Grid_Repeat_x3E__00000129192555721059031480000006470863175785056166_">
			<line class="st0" x1="1562.64" y1="1080.18" x2="1562.64" y2="0.18"/>
		</g>
		<g id="_x3C_Grid_Repeat_x3E__00000113327328599179780420000014695306688225540273_">
			<line class="st0" x1="1573.64" y1="1080.18" x2="1573.64" y2="0.18"/>
		</g>
		<g id="_x3C_Grid_Repeat_x3E__00000112625868091129683760000001118702537009263524_">
			<line class="st0" x1="1584.64" y1="1080.18" x2="1584.64" y2="0.18"/>
		</g>
		<g id="_x3C_Grid_Repeat_x3E__00000183250360641185787150000005684871832460552845_">
			<line class="st0" x1="1595.64" y1="1080.18" x2="1595.64" y2="0.18"/>
		</g>
		<g id="_x3C_Grid_Repeat_x3E__00000146500776483662583050000016245643576610238096_">
			<line class="st0" x1="1606.64" y1="1080.18" x2="1606.64" y2="0.18"/>
		</g>
		<g id="_x3C_Grid_Repeat_x3E__00000043415613121056713390000016241722143479694518_">
			<line class="st0" x1="1617.64" y1="1080.18" x2="1617.64" y2="0.18"/>
		</g>
		<g id="_x3C_Grid_Repeat_x3E__00000032620369427418459710000003301467551111913095_">
			<line class="st0" x1="1628.64" y1="1080.18" x2="1628.64" y2="0.18"/>
		</g>
		<g id="_x3C_Grid_Repeat_x3E__00000152943547324796831080000013980883696988559015_">
			<line class="st0" x1="1639.64" y1="1080.18" x2="1639.64" y2="0.18"/>
		</g>
		<g id="_x3C_Grid_Repeat_x3E__00000061469653209540762800000014222406459327851428_">
			<line class="st0" x1="1650.64" y1="1080.18" x2="1650.64" y2="0.18"/>
		</g>
		<g id="_x3C_Grid_Repeat_x3E__00000151537137998818192150000013514994250184195493_">
			<line class="st0" x1="1661.64" y1="1080.18" x2="1661.64" y2="0.18"/>
		</g>
		<g id="_x3C_Grid_Repeat_x3E__00000141428542485194899820000015281996734073019053_">
			<line class="st0" x1="1672.64" y1="1080.18" x2="1672.64" y2="0.18"/>
		</g>
		<g id="_x3C_Grid_Repeat_x3E__00000023979906761178198150000006336378331756650402_">
			<line class="st0" x1="1683.64" y1="1080.18" x2="1683.64" y2="0.18"/>
		</g>
		<g id="_x3C_Grid_Repeat_x3E__00000057842424531538084750000007012214272435567529_">
			<line class="st0" x1="1694.64" y1="1080.18" x2="1694.64" y2="0.18"/>
		</g>
		<g id="_x3C_Grid_Repeat_x3E__00000005268713575321581990000009541137851984565439_">
			<line class="st0" x1="1705.64" y1="1080.18" x2="1705.64" y2="0.18"/>
		</g>
		<g id="_x3C_Grid_Repeat_x3E__00000122697918932070634240000006614719350142814378_">
			<line class="st0" x1="1716.64" y1="1080.18" x2="1716.64" y2="0.18"/>
		</g>
		<g id="_x3C_Grid_Repeat_x3E__00000000183632651093211690000015439852468561240738_">
			<line class="st0" x1="1727.64" y1="1080.18" x2="1727.64" y2="0.18"/>
		</g>
		<g id="_x3C_Grid_Repeat_x3E__00000060021739950084293260000005904727841346448534_">
			<line class="st0" x1="1738.64" y1="1080.18" x2="1738.64" y2="0.18"/>
		</g>
		<g id="_x3C_Grid_Repeat_x3E__00000172399912657597580410000007593343853122260881_">
			<line class="st0" x1="1749.64" y1="1080.18" x2="1749.64" y2="0.18"/>
		</g>
		<g id="_x3C_Grid_Repeat_x3E__00000096032412690158326570000012399165527221655943_">
			<line class="st0" x1="1760.64" y1="1080.18" x2="1760.64" y2="0.18"/>
		</g>
		<g id="_x3C_Grid_Repeat_x3E__00000082328817891129507160000010791605625077708936_">
			<line class="st0" x1="1771.64" y1="1080.18" x2="1771.64" y2="0.18"/>
		</g>
		<g id="_x3C_Grid_Repeat_x3E__00000106835915994019563160000013908746906921825696_">
			<line class="st0" x1="1782.64" y1="1080.18" x2="1782.64" y2="0.18"/>
		</g>
		<g id="_x3C_Grid_Repeat_x3E__00000094579290638523585430000009022075830806919068_">
			<line class="st0" x1="1793.64" y1="1080.18" x2="1793.64" y2="0.18"/>
		</g>
		<g id="_x3C_Grid_Repeat_x3E__00000132082252183025000540000011129830042598653090_">
			<line class="st0" x1="1804.64" y1="1080.18" x2="1804.64" y2="0.18"/>
		</g>
		<g id="_x3C_Grid_Repeat_x3E__00000034783615076151093430000005939212008283276449_">
			<line class="st0" x1="1815.64" y1="1080.18" x2="1815.64" y2="0.18"/>
		</g>
		<g id="_x3C_Grid_Repeat_x3E__00000176023634642964714720000013049859916898035357_">
			<line class="st0" x1="1826.64" y1="1080.18" x2="1826.64" y2="0.18"/>
		</g>
		<g id="_x3C_Grid_Repeat_x3E__00000160897781197966432900000012182295566156094137_">
			<line class="st0" x1="1837.64" y1="1080.18" x2="1837.64" y2="0.18"/>
		</g>
		<g id="_x3C_Grid_Repeat_x3E__00000078752762097348661320000017813915414765332406_">
			<line class="st0" x1="1848.64" y1="1080.18" x2="1848.64" y2="0.18"/>
		</g>
		<g id="_x3C_Grid_Repeat_x3E__00000055695035845691581870000007608357925188961946_">
			<line class="st0" x1="1859.64" y1="1080.18" x2="1859.64" y2="0.18"/>
		</g>
		<g id="_x3C_Grid_Repeat_x3E__00000070826697577469310790000015251144349989274523_">
			<line class="st0" x1="1870.64" y1="1080.18" x2="1870.64" y2="0.18"/>
		</g>
		<g id="_x3C_Grid_Repeat_x3E__00000052078683298739473630000008056320108703248784_">
			<line class="st0" x1="1881.64" y1="1080.18" x2="1881.64" y2="0.18"/>
		</g>
		<g id="_x3C_Grid_Repeat_x3E__00000138557566392558245040000012480044858997958316_">
			<line class="st0" x1="1892.64" y1="1080.18" x2="1892.64" y2="0.18"/>
		</g>
		<g id="_x3C_Grid_Repeat_x3E__00000067915049447114150900000016883876716333954441_">
			<line class="st0" x1="1903.64" y1="1080.18" x2="1903.64" y2="0.18"/>
		</g>
		<g id="_x3C_Grid_Repeat_x3E__00000079460176658222710950000017367607602578338721_">
			<line class="st0" x1="1914.64" y1="1080.18" x2="1914.64" y2="0.18"/>
		</g>
	</g>
</g>
<line class="st0" x1="0" y1="0.5" x2="1920" y2="0.5"/>
<line class="st0" x1="0" y1="10.5" x2="1920" y2="10.5"/>
<line class="st0" x1="0" y1="20.5" x2="1920" y2="20.5"/>
<line class="st0" x1="0" y1="30.5" x2="1920" y2="30.5"/>
<line class="st0" x1="0" y1="40.5" x2="1920" y2="40.5"/>
<line class="st0" x1="0" y1="50.5" x2="1920" y2="50.5"/>
<line class="st0" x1="0" y1="60.5" x2="1920" y2="60.5"/>
<line class="st0" x1="0" y1="70.5" x2="1920" y2="70.5"/>
<line class="st0" x1="0" y1="80.5" x2="1920" y2="80.5"/>
<line class="st0" x1="0" y1="90.5" x2="1920" y2="90.5"/>
<line class="st0" x1="0" y1="100.5" x2="1920" y2="100.5"/>
<line class="st0" x1="0" y1="110.5" x2="1920" y2="110.5"/>
<line class="st0" x1="0" y1="120.5" x2="1920" y2="120.5"/>
<line class="st0" x1="0" y1="130.5" x2="1920" y2="130.5"/>
<line class="st0" x1="0" y1="140.5" x2="1920" y2="140.5"/>
<line class="st0" x1="0" y1="150.5" x2="1920" y2="150.5"/>
<line class="st0" x1="0" y1="160.5" x2="1920" y2="160.5"/>
<line class="st0" x1="0" y1="170.5" x2="1920" y2="170.5"/>
<line class="st0" x1="0" y1="180.5" x2="1920" y2="180.5"/>
<line class="st0" x1="0" y1="190.5" x2="1920" y2="190.5"/>
<line class="st0" x1="0" y1="200.5" x2="1920" y2="200.5"/>
<line class="st0" x1="0" y1="210.5" x2="1920" y2="210.5"/>
<line class="st0" x1="0" y1="220.5" x2="1920" y2="220.5"/>
<line class="st0" x1="0" y1="230.5" x2="1920" y2="230.5"/>
<line class="st0" x1="0" y1="240.5" x2="1920" y2="240.5"/>
<line class="st0" x1="0" y1="250.5" x2="1920" y2="250.5"/>
<line class="st0" x1="0" y1="260.5" x2="1920" y2="260.5"/>
<line class="st0" x1="0" y1="270.5" x2="1920" y2="270.5"/>
<line class="st0" x1="0" y1="280.5" x2="1920" y2="280.5"/>
<line class="st0" x1="0" y1="290.5" x2="1920" y2="290.5"/>
<line class="st0" x1="0" y1="300.5" x2="1920" y2="300.5"/>
<line class="st0" x1="0" y1="310.5" x2="1920" y2="310.5"/>
<line class="st0" x1="0" y1="320.5" x2="1920" y2="320.5"/>
<line class="st0" x1="0" y1="330.5" x2="1920" y2="330.5"/>
<line class="st0" x1="0" y1="340.5" x2="1920" y2="340.5"/>
<line class="st0" x1="0" y1="350.5" x2="1920" y2="350.5"/>
<line class="st0" x1="0" y1="360.5" x2="1920" y2="360.5"/>
<line class="st0" x1="0" y1="370.5" x2="1920" y2="370.5"/>
<line class="st0" x1="0" y1="380.5" x2="1920" y2="380.5"/>
<line class="st0" x1="0" y1="390.5" x2="1920" y2="390.5"/>
<line class="st0" x1="0" y1="400.5" x2="1920" y2="400.5"/>
<line class="st0" x1="0" y1="410.5" x2="1920" y2="410.5"/>
<line class="st0" x1="0" y1="420.5" x2="1920" y2="420.5"/>
<line class="st0" x1="0" y1="430.5" x2="1920" y2="430.5"/>
<line class="st0" x1="0" y1="440.5" x2="1920" y2="440.5"/>
<line class="st0" x1="0" y1="450.5" x2="1920" y2="450.5"/>
<line class="st0" x1="0" y1="460.5" x2="1920" y2="460.5"/>
<line class="st0" x1="0" y1="470.5" x2="1920" y2="470.5"/>
<line class="st0" x1="0" y1="480.5" x2="1920" y2="480.5"/>
<line class="st0" x1="0" y1="490.5" x2="1920" y2="490.5"/>
<line class="st0" x1="0" y1="500.5" x2="1920" y2="500.5"/>
<line class="st0" x1="0" y1="510.5" x2="1920" y2="510.5"/>
<line class="st0" x1="0" y1="520.5" x2="1920" y2="520.5"/>
<line class="st0" x1="0" y1="530.5" x2="1920" y2="530.5"/>
<line class="st0" x1="0" y1="540.5" x2="1920" y2="540.5"/>
<line class="st0" x1="0" y1="550.5" x2="1920" y2="550.5"/>
<line class="st0" x1="0" y1="560.5" x2="1920" y2="560.5"/>
<line class="st0" x1="0" y1="570.5" x2="1920" y2="570.5"/>
<line class="st0" x1="0" y1="580.5" x2="1920" y2="580.5"/>
<line class="st0" x1="0" y1="590.5" x2="1920" y2="590.5"/>
<line class="st0" x1="0" y1="600.5" x2="1920" y2="600.5"/>
<line class="st0" x1="0" y1="610.5" x2="1920" y2="610.5"/>
<line class="st0" x1="0" y1="620.5" x2="1920" y2="620.5"/>
<line class="st0" x1="0" y1="630.5" x2="1920" y2="630.5"/>
<line class="st0" x1="0" y1="640.5" x2="1920" y2="640.5"/>
<line class="st0" x1="0" y1="650.5" x2="1920" y2="650.5"/>
<line class="st0" x1="0" y1="660.5" x2="1920" y2="660.5"/>
<line class="st0" x1="0" y1="670.5" x2="1920" y2="670.5"/>
<line class="st0" x1="0" y1="680.5" x2="1920" y2="680.5"/>
<line class="st0" x1="0" y1="690.5" x2="1920" y2="690.5"/>
<line class="st0" x1="0" y1="700.5" x2="1920" y2="700.5"/>
<line class="st0" x1="0" y1="710.5" x2="1920" y2="710.5"/>
<line class="st0" x1="0" y1="720.5" x2="1920" y2="720.5"/>
<line class="st0" x1="0" y1="730.5" x2="1920" y2="730.5"/>
<line class="st0" x1="0" y1="740.5" x2="1920" y2="740.5"/>
<line class="st0" x1="0" y1="750.5" x2="1920" y2="750.5"/>
<line class="st0" x1="0" y1="760.5" x2="1920" y2="760.5"/>
<line class="st0" x1="0" y1="770.5" x2="1920" y2="770.5"/>
<line class="st0" x1="0" y1="780.5" x2="1920" y2="780.5"/>
<line class="st0" x1="0" y1="790.5" x2="1920" y2="790.5"/>
<line class="st0" x1="0" y1="800.5" x2="1920" y2="800.5"/>
<line class="st0" x1="0" y1="810.5" x2="1920" y2="810.5"/>
<line class="st0" x1="0" y1="820.5" x2="1920" y2="820.5"/>
<line class="st0" x1="0" y1="830.5" x2="1920" y2="830.5"/>
<line class="st0" x1="0" y1="840.5" x2="1920" y2="840.5"/>
<line class="st0" x1="0" y1="850.5" x2="1920" y2="850.5"/>
<line class="st0" x1="0" y1="860.5" x2="1920" y2="860.5"/>
<line class="st0" x1="0" y1="870.5" x2="1920" y2="870.5"/>
<line class="st0" x1="0" y1="880.5" x2="1920" y2="880.5"/>
<line class="st0" x1="0" y1="890.5" x2="1920" y2="890.5"/>
<line class="st0" x1="0" y1="900.5" x2="1920" y2="900.5"/>
<line class="st0" x1="0" y1="910.5" x2="1920" y2="910.5"/>
<line class="st0" x1="0" y1="920.5" x2="1920" y2="920.5"/>
<line class="st0" x1="0" y1="930.5" x2="1920" y2="930.5"/>
<line class="st0" x1="0" y1="940.5" x2="1920" y2="940.5"/>
<line class="st0" x1="0" y1="950.5" x2="1920" y2="950.5"/>
<line class="st0" x1="0" y1="960.5" x2="1920" y2="960.5"/>
<line class="st0" x1="0" y1="970.5" x2="1920" y2="970.5"/>
<line class="st0" x1="0" y1="980.5" x2="1920" y2="980.5"/>
<line class="st0" x1="0" y1="990.5" x2="1920" y2="990.5"/>
<line class="st0" x1="0" y1="1000.5" x2="1920" y2="1000.5"/>
<line class="st0" x1="0" y1="1010.5" x2="1920" y2="1010.5"/>
<line class="st0" x1="0" y1="1020.5" x2="1920" y2="1020.5"/>
<line class="st0" x1="0" y1="1030.5" x2="1920" y2="1030.5"/>
<line class="st0" x1="0" y1="1040.5" x2="1920" y2="1040.5"/>
<line class="st0" x1="0" y1="1050.5" x2="1920" y2="1050.5"/>
<line class="st0" x1="0" y1="1060.5" x2="1920" y2="1060.5"/>
<line class="st0" x1="0" y1="1070.5" x2="1920" y2="1070.5"/>
<line class="st0" x1="0" y1="1080.5" x2="1920" y2="1080.5"/>
</svg>
