<?xml version="1.0" encoding="utf-8"?>
<!-- Generator: Adobe Illustrator 27.9.0, SVG Export Plug-In . SVG Version: 6.00 Build 0)  -->
<svg version="1.1" id="Layer_1" xmlns="http://www.w3.org/2000/svg" xmlns:xlink="http://www.w3.org/1999/xlink" x="0px" y="0px"
	 viewBox="0 0 1920 1080" style="enable-background:new 0 0 1920 1080;" xml:space="preserve">
<style type="text/css">
	.st0{opacity:0.5;}
	.st1{opacity:0.2;}
	.st2{clip-path:url(#SVGID_00000078729127987683368850000004198062465507005607_);}
	.st3{fill:none;stroke:#FFFFFF;stroke-miterlimit:10;}
	.st4{opacity:0.2;fill:none;stroke:#FFFFFF;stroke-miterlimit:10;}
</style>
<g class="st0">
	<g class="st0">
		<g class="st1">
			<g>
				<defs>
					<rect id="SVGID_1_" x="0.1" y="-3.8" width="1923.7" height="1095.6"/>
				</defs>
				<clipPath id="SVGID_00000063619460393962506860000009000005154913305503_">
					<use xlink:href="#SVGID_1_"  style="overflow:visible;"/>
				</clipPath>
				<g style="clip-path:url(#SVGID_00000063619460393962506860000009000005154913305503_);">
					<g id="_x3C_Grid_Repeat_x3E__00000096744294963687168210000000736959137454944661_">
						<line class="st3" x1="0.6" y1="1086.2" x2="0.6" y2="-3.8"/>
					</g>
					<g id="_x3C_Grid_Repeat_x3E__00000130623609197972007790000006109052332302578560_">
						<line class="st3" x1="11.6" y1="1086.2" x2="11.6" y2="-3.8"/>
					</g>
					<g id="_x3C_Grid_Repeat_x3E__00000004512208426297269340000014666272492993237181_">
						<line class="st3" x1="22.6" y1="1086.2" x2="22.6" y2="-3.8"/>
					</g>
					<g id="_x3C_Grid_Repeat_x3E__00000116943240936482483070000005083474391661433521_">
						<line class="st3" x1="33.6" y1="1086.2" x2="33.6" y2="-3.8"/>
					</g>
					<g id="_x3C_Grid_Repeat_x3E__00000133523366209910697510000017789855946312387979_">
						<line class="st3" x1="44.6" y1="1086.2" x2="44.6" y2="-3.8"/>
					</g>
					<g id="_x3C_Grid_Repeat_x3E__00000152237290997875138080000011640330276043228554_">
						<line class="st3" x1="55.6" y1="1086.2" x2="55.6" y2="-3.8"/>
					</g>
					<g id="_x3C_Grid_Repeat_x3E__00000169556543847055485470000001532070605634763667_">
						<line class="st3" x1="66.6" y1="1086.2" x2="66.6" y2="-3.8"/>
					</g>
					<g id="_x3C_Grid_Repeat_x3E__00000005230000165933402010000013094106169040348853_">
						<line class="st3" x1="77.6" y1="1086.2" x2="77.6" y2="-3.8"/>
					</g>
					<g id="_x3C_Grid_Repeat_x3E__00000049205420428782442200000011609029880673708944_">
						<line class="st3" x1="88.6" y1="1086.2" x2="88.6" y2="-3.8"/>
					</g>
					<g id="_x3C_Grid_Repeat_x3E__00000179626785325973975010000010017895107558373546_">
						<line class="st3" x1="99.6" y1="1086.2" x2="99.6" y2="-3.8"/>
					</g>
					<g id="_x3C_Grid_Repeat_x3E__00000171693908974887768110000000763595960029229753_">
						<line class="st3" x1="110.6" y1="1086.2" x2="110.6" y2="-3.8"/>
					</g>
					<g id="_x3C_Grid_Repeat_x3E__00000183229938531311845190000015988526591163728040_">
						<line class="st3" x1="121.6" y1="1086.2" x2="121.6" y2="-3.8"/>
					</g>
					<g id="_x3C_Grid_Repeat_x3E__00000150101622955840338440000009997110781089637506_">
						<line class="st3" x1="132.6" y1="1086.2" x2="132.6" y2="-3.8"/>
					</g>
					<g id="_x3C_Grid_Repeat_x3E__00000135652699007114521350000009394757074579136155_">
						<line class="st3" x1="143.6" y1="1086.2" x2="143.6" y2="-3.8"/>
					</g>
					<g id="_x3C_Grid_Repeat_x3E__00000144336904484773757650000001554042457347368108_">
						<line class="st3" x1="154.6" y1="1086.2" x2="154.6" y2="-3.8"/>
					</g>
					<g id="_x3C_Grid_Repeat_x3E__00000148656287293867314010000012899665317825364121_">
						<line class="st3" x1="165.6" y1="1086.2" x2="165.6" y2="-3.8"/>
					</g>
					<g id="_x3C_Grid_Repeat_x3E__00000024723002232033968230000014471476499813100171_">
						<line class="st3" x1="176.6" y1="1086.2" x2="176.6" y2="-3.8"/>
					</g>
					<g id="_x3C_Grid_Repeat_x3E__00000003826791044515698630000013553629818367646605_">
						<line class="st3" x1="187.6" y1="1086.2" x2="187.6" y2="-3.8"/>
					</g>
					<g id="_x3C_Grid_Repeat_x3E__00000137823790823810532310000015863308581418243714_">
						<line class="st3" x1="198.6" y1="1086.2" x2="198.6" y2="-3.8"/>
					</g>
					<g id="_x3C_Grid_Repeat_x3E__00000006696290255337601980000002688394980769558201_">
						<line class="st3" x1="209.6" y1="1086.2" x2="209.6" y2="-3.8"/>
					</g>
					<g id="_x3C_Grid_Repeat_x3E__00000023253146659332801720000005121632670023374464_">
						<line class="st3" x1="220.6" y1="1086.2" x2="220.6" y2="-3.8"/>
					</g>
					<g id="_x3C_Grid_Repeat_x3E__00000030468492009877793290000000614088662199036059_">
						<line class="st3" x1="231.6" y1="1086.2" x2="231.6" y2="-3.8"/>
					</g>
					<g id="_x3C_Grid_Repeat_x3E__00000021109157266758497030000009396591380262178998_">
						<line class="st3" x1="242.6" y1="1086.2" x2="242.6" y2="-3.8"/>
					</g>
					<g id="_x3C_Grid_Repeat_x3E__00000031198120064268383780000002525977015759550339_">
						<line class="st3" x1="253.6" y1="1086.2" x2="253.6" y2="-3.8"/>
					</g>
					<g id="_x3C_Grid_Repeat_x3E__00000050647914731759244760000015782863273647772801_">
						<line class="st3" x1="264.6" y1="1086.2" x2="264.6" y2="-3.8"/>
					</g>
					<g id="_x3C_Grid_Repeat_x3E__00000114790221420453249610000013173541681410537644_">
						<line class="st3" x1="275.6" y1="1086.2" x2="275.6" y2="-3.8"/>
					</g>
					<g id="_x3C_Grid_Repeat_x3E__00000026884955779458404970000003092102508112510851_">
						<line class="st3" x1="286.6" y1="1086.2" x2="286.6" y2="-3.8"/>
					</g>
					<g id="_x3C_Grid_Repeat_x3E__00000032638450838639749850000002447856257745049759_">
						<line class="st3" x1="297.6" y1="1086.2" x2="297.6" y2="-3.8"/>
					</g>
					<g id="_x3C_Grid_Repeat_x3E__00000111158751838500305610000003110824019373391277_">
						<line class="st3" x1="308.6" y1="1086.2" x2="308.6" y2="-3.8"/>
					</g>
					<g id="_x3C_Grid_Repeat_x3E__00000134942915189163018910000012326685098029984441_">
						<line class="st3" x1="319.6" y1="1086.2" x2="319.6" y2="-3.8"/>
					</g>
					<g id="_x3C_Grid_Repeat_x3E__00000065786825640660234770000016624750815363924649_">
						<line class="st3" x1="330.6" y1="1086.2" x2="330.6" y2="-3.8"/>
					</g>
					<g id="_x3C_Grid_Repeat_x3E__00000104677224944468916380000015080712204768040352_">
						<line class="st3" x1="341.6" y1="1086.2" x2="341.6" y2="-3.8"/>
					</g>
					<g id="_x3C_Grid_Repeat_x3E__00000090258102837539496020000010343457168660197554_">
						<line class="st3" x1="352.6" y1="1086.2" x2="352.6" y2="-3.8"/>
					</g>
					<g id="_x3C_Grid_Repeat_x3E__00000176750712117626006200000016510459105099460774_">
						<line class="st3" x1="363.6" y1="1086.2" x2="363.6" y2="-3.8"/>
					</g>
					<g id="_x3C_Grid_Repeat_x3E__00000095313415384408177000000011755318812301113239_">
						<line class="st3" x1="374.6" y1="1086.2" x2="374.6" y2="-3.8"/>
					</g>
					<g id="_x3C_Grid_Repeat_x3E__00000080908233019286293860000013712772437918248836_">
						<line class="st3" x1="385.6" y1="1086.2" x2="385.6" y2="-3.8"/>
					</g>
					<g id="_x3C_Grid_Repeat_x3E__00000054257762105370651470000002884509778631702149_">
						<line class="st3" x1="396.6" y1="1086.2" x2="396.6" y2="-3.8"/>
					</g>
					<g id="_x3C_Grid_Repeat_x3E__00000013885038779094303990000006039669173975754907_">
						<line class="st3" x1="407.6" y1="1086.2" x2="407.6" y2="-3.8"/>
					</g>
					<g id="_x3C_Grid_Repeat_x3E__00000175297984644694034170000006097829336142987403_">
						<line class="st3" x1="418.6" y1="1086.2" x2="418.6" y2="-3.8"/>
					</g>
					<g id="_x3C_Grid_Repeat_x3E__00000118373350118021220280000005421274127967216802_">
						<line class="st3" x1="429.6" y1="1086.2" x2="429.6" y2="-3.8"/>
					</g>
					<g id="_x3C_Grid_Repeat_x3E__00000104690570462406511590000013943478940417281173_">
						<line class="st3" x1="440.6" y1="1086.2" x2="440.6" y2="-3.8"/>
					</g>
					<g id="_x3C_Grid_Repeat_x3E__00000158029063591209166100000003613613401687569329_">
						<line class="st3" x1="451.6" y1="1086.2" x2="451.6" y2="-3.8"/>
					</g>
					<g id="_x3C_Grid_Repeat_x3E__00000117652423772512459730000007475305426362637736_">
						<line class="st3" x1="462.6" y1="1086.2" x2="462.6" y2="-3.8"/>
					</g>
					<g id="_x3C_Grid_Repeat_x3E__00000112607287290596571470000010004704381843734673_">
						<line class="st3" x1="473.6" y1="1086.2" x2="473.6" y2="-3.8"/>
					</g>
					<g id="_x3C_Grid_Repeat_x3E__00000146458970970494994080000011820822434683722921_">
						<line class="st3" x1="484.6" y1="1086.2" x2="484.6" y2="-3.8"/>
					</g>
					<g id="_x3C_Grid_Repeat_x3E__00000077288595845667488150000016734033828771176072_">
						<line class="st3" x1="495.6" y1="1086.2" x2="495.6" y2="-3.8"/>
					</g>
					<g id="_x3C_Grid_Repeat_x3E__00000060709246318649546780000001417031025016759982_">
						<line class="st3" x1="506.6" y1="1086.2" x2="506.6" y2="-3.8"/>
					</g>
					<g id="_x3C_Grid_Repeat_x3E__00000016762404521493981540000013107979409782448527_">
						<line class="st3" x1="517.6" y1="1086.2" x2="517.6" y2="-3.8"/>
					</g>
					<g id="_x3C_Grid_Repeat_x3E__00000008114198441413953630000016398044772408488328_">
						<line class="st3" x1="528.6" y1="1086.2" x2="528.6" y2="-3.8"/>
					</g>
					<g id="_x3C_Grid_Repeat_x3E__00000048463159777527294500000008787933849530918281_">
						<line class="st3" x1="539.6" y1="1086.2" x2="539.6" y2="-3.8"/>
					</g>
					<g id="_x3C_Grid_Repeat_x3E__00000119839383584534811030000008828358962563860885_">
						<line class="st3" x1="550.6" y1="1086.2" x2="550.6" y2="-3.8"/>
					</g>
					<g id="_x3C_Grid_Repeat_x3E__00000036224992211054200870000003462689216647474599_">
						<line class="st3" x1="561.6" y1="1086.2" x2="561.6" y2="-3.8"/>
					</g>
					<g id="_x3C_Grid_Repeat_x3E__00000107554510570250264590000000875842876411367830_">
						<line class="st3" x1="572.6" y1="1086.2" x2="572.6" y2="-3.8"/>
					</g>
					<g id="_x3C_Grid_Repeat_x3E__00000137851694238100801330000015278184444475982262_">
						<line class="st3" x1="583.6" y1="1086.2" x2="583.6" y2="-3.8"/>
					</g>
					<g id="_x3C_Grid_Repeat_x3E__00000073700440277814753540000013191029118042029233_">
						<line class="st3" x1="594.6" y1="1086.2" x2="594.6" y2="-3.8"/>
					</g>
					<g id="_x3C_Grid_Repeat_x3E__00000173133871908290143360000005875221488297514632_">
						<line class="st3" x1="605.6" y1="1086.2" x2="605.6" y2="-3.8"/>
					</g>
					<g id="_x3C_Grid_Repeat_x3E__00000116926718666845115150000011443698334510310287_">
						<line class="st3" x1="616.6" y1="1086.2" x2="616.6" y2="-3.8"/>
					</g>
					<g id="_x3C_Grid_Repeat_x3E__00000042732144506921038690000009795451702289618350_">
						<line class="st3" x1="627.6" y1="1086.2" x2="627.6" y2="-3.8"/>
					</g>
					<g id="_x3C_Grid_Repeat_x3E__00000098188381784034705390000017511372008459551419_">
						<line class="st3" x1="638.6" y1="1086.2" x2="638.6" y2="-3.8"/>
					</g>
					<g id="_x3C_Grid_Repeat_x3E__00000103261532546941421200000008701636775654594746_">
						<line class="st3" x1="649.6" y1="1086.2" x2="649.6" y2="-3.8"/>
					</g>
					<g id="_x3C_Grid_Repeat_x3E__00000043415975886610877220000011338271253750464941_">
						<line class="st3" x1="660.6" y1="1086.2" x2="660.6" y2="-3.8"/>
					</g>
					<g id="_x3C_Grid_Repeat_x3E__00000118360415181136714260000015970369322536653759_">
						<line class="st3" x1="671.6" y1="1086.2" x2="671.6" y2="-3.8"/>
					</g>
					<g id="_x3C_Grid_Repeat_x3E__00000039102327658392462450000016122418181409179778_">
						<line class="st3" x1="682.6" y1="1086.2" x2="682.6" y2="-3.8"/>
					</g>
					<g id="_x3C_Grid_Repeat_x3E__00000088828679679413540500000004043504377293017787_">
						<line class="st3" x1="693.6" y1="1086.2" x2="693.6" y2="-3.8"/>
					</g>
					<g id="_x3C_Grid_Repeat_x3E__00000078740274547511217980000001716824478321689021_">
						<line class="st3" x1="704.6" y1="1086.2" x2="704.6" y2="-3.8"/>
					</g>
					<g id="_x3C_Grid_Repeat_x3E__00000161608398129126951880000004197737568452138935_">
						<line class="st3" x1="715.6" y1="1086.2" x2="715.6" y2="-3.8"/>
					</g>
					<g id="_x3C_Grid_Repeat_x3E__00000008836520268875698790000004223713402490356155_">
						<line class="st3" x1="726.6" y1="1086.2" x2="726.6" y2="-3.8"/>
					</g>
					<g id="_x3C_Grid_Repeat_x3E__00000037688175298992337750000017813820048562898591_">
						<line class="st3" x1="737.6" y1="1086.2" x2="737.6" y2="-3.8"/>
					</g>
					<g id="_x3C_Grid_Repeat_x3E__00000079460913134244277160000005845685984209353601_">
						<line class="st3" x1="748.6" y1="1086.2" x2="748.6" y2="-3.8"/>
					</g>
					<g id="_x3C_Grid_Repeat_x3E__00000059993614863021561180000011325964127821769400_">
						<line class="st3" x1="759.6" y1="1086.2" x2="759.6" y2="-3.8"/>
					</g>
					<g id="_x3C_Grid_Repeat_x3E__00000125568894742278986870000002232722743856934329_">
						<line class="st3" x1="770.6" y1="1086.2" x2="770.6" y2="-3.8"/>
					</g>
					<g id="_x3C_Grid_Repeat_x3E__00000024722958174457286830000008782269536667069094_">
						<line class="st3" x1="781.6" y1="1086.2" x2="781.6" y2="-3.8"/>
					</g>
					<g id="_x3C_Grid_Repeat_x3E__00000038399877091194375140000012051495370699467948_">
						<line class="st3" x1="792.6" y1="1086.2" x2="792.6" y2="-3.8"/>
					</g>
					<g id="_x3C_Grid_Repeat_x3E__00000093177304006943309710000000202239013611176843_">
						<line class="st3" x1="803.6" y1="1086.2" x2="803.6" y2="-3.8"/>
					</g>
					<g id="_x3C_Grid_Repeat_x3E__00000005240186445249603940000009291402610555565455_">
						<line class="st3" x1="814.6" y1="1086.2" x2="814.6" y2="-3.8"/>
					</g>
					<g id="_x3C_Grid_Repeat_x3E__00000103245958386841423190000008413222301903147180_">
						<line class="st3" x1="825.6" y1="1086.2" x2="825.6" y2="-3.8"/>
					</g>
					<g id="_x3C_Grid_Repeat_x3E__00000016756868821400338310000002950756614114544810_">
						<line class="st3" x1="836.6" y1="1086.2" x2="836.6" y2="-3.8"/>
					</g>
					<g id="_x3C_Grid_Repeat_x3E__00000139985381922023133560000016000573158672402350_">
						<line class="st3" x1="847.6" y1="1086.2" x2="847.6" y2="-3.8"/>
					</g>
					<g id="_x3C_Grid_Repeat_x3E__00000150802626724399199520000017848794492800585122_">
						<line class="st3" x1="858.6" y1="1086.2" x2="858.6" y2="-3.8"/>
					</g>
					<g id="_x3C_Grid_Repeat_x3E__00000025411960393623772480000011337521134273591201_">
						<line class="st3" x1="869.6" y1="1086.2" x2="869.6" y2="-3.8"/>
					</g>
					<g id="_x3C_Grid_Repeat_x3E__00000144311913926205712720000016115493092393759139_">
						<line class="st3" x1="880.6" y1="1086.2" x2="880.6" y2="-3.8"/>
					</g>
					<g id="_x3C_Grid_Repeat_x3E__00000094582864011587666640000006786341139155932094_">
						<line class="st3" x1="891.6" y1="1086.2" x2="891.6" y2="-3.8"/>
					</g>
					<g id="_x3C_Grid_Repeat_x3E__00000134957080887941994350000010479397696710378643_">
						<line class="st3" x1="902.6" y1="1086.2" x2="902.6" y2="-3.8"/>
					</g>
					<g id="_x3C_Grid_Repeat_x3E__00000080919816059177131370000017886572523684965793_">
						<line class="st3" x1="913.6" y1="1086.2" x2="913.6" y2="-3.8"/>
					</g>
					<g id="_x3C_Grid_Repeat_x3E__00000083793555356683889870000011925918702223656578_">
						<line class="st3" x1="924.6" y1="1086.2" x2="924.6" y2="-3.8"/>
					</g>
					<g id="_x3C_Grid_Repeat_x3E__00000066493909659521264050000006023698813374210441_">
						<line class="st3" x1="935.6" y1="1086.2" x2="935.6" y2="-3.8"/>
					</g>
					<g id="_x3C_Grid_Repeat_x3E__00000104669596112724500170000008566197329424323255_">
						<line class="st3" x1="946.6" y1="1086.2" x2="946.6" y2="-3.8"/>
					</g>
					<g id="_x3C_Grid_Repeat_x3E__00000029765834081073216950000013898559390662833312_">
						<line class="st3" x1="957.6" y1="1086.2" x2="957.6" y2="-3.8"/>
					</g>
					<g id="_x3C_Grid_Repeat_x3E__00000104669432846734194110000012728200662501839798_">
						<line class="st3" x1="968.6" y1="1086.2" x2="968.6" y2="-3.8"/>
					</g>
					<g id="_x3C_Grid_Repeat_x3E__00000113346987457433310220000008882947176808462471_">
						<line class="st3" x1="979.6" y1="1086.2" x2="979.6" y2="-3.8"/>
					</g>
					<g id="_x3C_Grid_Repeat_x3E__00000135655157501432025800000004614481137365008049_">
						<line class="st3" x1="990.6" y1="1086.2" x2="990.6" y2="-3.8"/>
					</g>
					<g id="_x3C_Grid_Repeat_x3E__00000009562000823411073640000012163585486331994789_">
						<line class="st3" x1="1001.6" y1="1086.2" x2="1001.6" y2="-3.8"/>
					</g>
					<g id="_x3C_Grid_Repeat_x3E__00000080178747125600929780000002296434281157597361_">
						<line class="st3" x1="1012.6" y1="1086.2" x2="1012.6" y2="-3.8"/>
					</g>
					<g id="_x3C_Grid_Repeat_x3E__00000081613930714251082230000015216321380163444367_">
						<line class="st3" x1="1023.6" y1="1086.2" x2="1023.6" y2="-3.8"/>
					</g>
					<g id="_x3C_Grid_Repeat_x3E__00000051381392078514846520000004149128648928447115_">
						<line class="st3" x1="1034.6" y1="1086.2" x2="1034.6" y2="-3.8"/>
					</g>
					<g id="_x3C_Grid_Repeat_x3E__00000023278111811619125730000005182883462735441852_">
						<line class="st3" x1="1045.6" y1="1086.2" x2="1045.6" y2="-3.8"/>
					</g>
					<g id="_x3C_Grid_Repeat_x3E__00000079460553764402974030000002660082737381691781_">
						<line class="st3" x1="1056.6" y1="1086.2" x2="1056.6" y2="-3.8"/>
					</g>
					<g id="_x3C_Grid_Repeat_x3E__00000132803223834008302120000001080934974390956972_">
						<line class="st3" x1="1067.6" y1="1086.2" x2="1067.6" y2="-3.8"/>
					</g>
					<g id="_x3C_Grid_Repeat_x3E__00000113323937595764204020000003202354985221460153_">
						<line class="st3" x1="1078.6" y1="1086.2" x2="1078.6" y2="-3.8"/>
					</g>
					<g id="_x3C_Grid_Repeat_x3E__00000044150000185301615120000008809157135398005681_">
						<line class="st3" x1="1089.6" y1="1086.2" x2="1089.6" y2="-3.8"/>
					</g>
					<g id="_x3C_Grid_Repeat_x3E__00000004508034364283172710000013056512589341963179_">
						<line class="st3" x1="1100.6" y1="1086.2" x2="1100.6" y2="-3.8"/>
					</g>
					<g id="_x3C_Grid_Repeat_x3E__00000154424407453008843990000013185357740229987982_">
						<line class="st3" x1="1111.6" y1="1086.2" x2="1111.6" y2="-3.8"/>
					</g>
					<g id="_x3C_Grid_Repeat_x3E__00000139981143519704623680000010459797397201971376_">
						<line class="st3" x1="1122.6" y1="1086.2" x2="1122.6" y2="-3.8"/>
					</g>
					<g id="_x3C_Grid_Repeat_x3E__00000119837597548770040590000017547491731245767061_">
						<line class="st3" x1="1133.6" y1="1086.2" x2="1133.6" y2="-3.8"/>
					</g>
					<g id="_x3C_Grid_Repeat_x3E__00000098201323306526353000000016719264065957424778_">
						<line class="st3" x1="1144.6" y1="1086.2" x2="1144.6" y2="-3.8"/>
					</g>
					<g id="_x3C_Grid_Repeat_x3E__00000111158359308605485490000007631516942804987309_">
						<line class="st3" x1="1155.6" y1="1086.2" x2="1155.6" y2="-3.8"/>
					</g>
					<g id="_x3C_Grid_Repeat_x3E__00000170988680395427617690000012841777430339901360_">
						<line class="st3" x1="1166.6" y1="1086.2" x2="1166.6" y2="-3.8"/>
					</g>
					<g id="_x3C_Grid_Repeat_x3E__00000142883598250927935650000012871823455137703586_">
						<line class="st3" x1="1177.6" y1="1086.2" x2="1177.6" y2="-3.8"/>
					</g>
					<g id="_x3C_Grid_Repeat_x3E__00000182522204383525178040000009932957064659793840_">
						<line class="st3" x1="1188.6" y1="1086.2" x2="1188.6" y2="-3.8"/>
					</g>
					<g id="_x3C_Grid_Repeat_x3E__00000061473766193467794890000013479812368913487234_">
						<line class="st3" x1="1199.6" y1="1086.2" x2="1199.6" y2="-3.8"/>
					</g>
					<g id="_x3C_Grid_Repeat_x3E__00000074436228492737495000000004584249904384626586_">
						<line class="st3" x1="1210.6" y1="1086.2" x2="1210.6" y2="-3.8"/>
					</g>
					<g id="_x3C_Grid_Repeat_x3E__00000181054072785302665690000018226485396406388391_">
						<line class="st3" x1="1221.6" y1="1086.2" x2="1221.6" y2="-3.8"/>
					</g>
					<g id="_x3C_Grid_Repeat_x3E__00000014605159493726818090000012856767936559116171_">
						<line class="st3" x1="1232.6" y1="1086.2" x2="1232.6" y2="-3.8"/>
					</g>
					<g id="_x3C_Grid_Repeat_x3E__00000083773380432715874600000000188985015258940299_">
						<line class="st3" x1="1243.6" y1="1086.2" x2="1243.6" y2="-3.8"/>
					</g>
					<g id="_x3C_Grid_Repeat_x3E__00000041288090443716953360000003218743605455274430_">
						<line class="st3" x1="1254.6" y1="1086.2" x2="1254.6" y2="-3.8"/>
					</g>
					<g id="_x3C_Grid_Repeat_x3E__00000171705343687635983590000016566646304916538287_">
						<line class="st3" x1="1265.6" y1="1086.2" x2="1265.6" y2="-3.8"/>
					</g>
					<g id="_x3C_Grid_Repeat_x3E__00000139295633021188270920000008222932109174775220_">
						<line class="st3" x1="1276.6" y1="1086.2" x2="1276.6" y2="-3.8"/>
					</g>
					<g id="_x3C_Grid_Repeat_x3E__00000072982344556391038310000012277421567273026214_">
						<line class="st3" x1="1287.6" y1="1086.2" x2="1287.6" y2="-3.8"/>
					</g>
					<g id="_x3C_Grid_Repeat_x3E__00000086651789363816548110000005552053180602613686_">
						<line class="st3" x1="1298.6" y1="1086.2" x2="1298.6" y2="-3.8"/>
					</g>
					<g id="_x3C_Grid_Repeat_x3E__00000132795249078159530020000001750486370039675792_">
						<line class="st3" x1="1309.6" y1="1086.2" x2="1309.6" y2="-3.8"/>
					</g>
					<g id="_x3C_Grid_Repeat_x3E__00000075158567490804136910000003188329040023460535_">
						<line class="st3" x1="1320.6" y1="1086.2" x2="1320.6" y2="-3.8"/>
					</g>
					<g id="_x3C_Grid_Repeat_x3E__00000147935147004257822740000000757607450612011445_">
						<line class="st3" x1="1331.6" y1="1086.2" x2="1331.6" y2="-3.8"/>
					</g>
					<g id="_x3C_Grid_Repeat_x3E__00000145034408124851845740000000663532996122727867_">
						<line class="st3" x1="1342.6" y1="1086.2" x2="1342.6" y2="-3.8"/>
					</g>
					<g id="_x3C_Grid_Repeat_x3E__00000135677395605113759630000004278240067501461382_">
						<line class="st3" x1="1353.6" y1="1086.2" x2="1353.6" y2="-3.8"/>
					</g>
					<g id="_x3C_Grid_Repeat_x3E__00000035494585812182390930000011038101851050194311_">
						<line class="st3" x1="1364.6" y1="1086.2" x2="1364.6" y2="-3.8"/>
					</g>
					<g id="_x3C_Grid_Repeat_x3E__00000094588557915036834740000018085511879261047461_">
						<line class="st3" x1="1375.6" y1="1086.2" x2="1375.6" y2="-3.8"/>
					</g>
					<g id="_x3C_Grid_Repeat_x3E__00000106145441678147947250000005281272418785897915_">
						<line class="st3" x1="1386.6" y1="1086.2" x2="1386.6" y2="-3.8"/>
					</g>
					<g id="_x3C_Grid_Repeat_x3E__00000116916544293339488510000010876598093093869186_">
						<line class="st3" x1="1397.6" y1="1086.2" x2="1397.6" y2="-3.8"/>
					</g>
					<g id="_x3C_Grid_Repeat_x3E__00000105398997791646588500000004904778501056904580_">
						<line class="st3" x1="1408.6" y1="1086.2" x2="1408.6" y2="-3.8"/>
					</g>
					<g id="_x3C_Grid_Repeat_x3E__00000087402654052478612520000009435320701803541426_">
						<line class="st3" x1="1419.6" y1="1086.2" x2="1419.6" y2="-3.8"/>
					</g>
					<g id="_x3C_Grid_Repeat_x3E__00000073723324482892827800000013571911872275282623_">
						<line class="st3" x1="1430.6" y1="1086.2" x2="1430.6" y2="-3.8"/>
					</g>
					<g id="_x3C_Grid_Repeat_x3E__00000151501817414349703210000011318124096748782267_">
						<line class="st3" x1="1441.6" y1="1086.2" x2="1441.6" y2="-3.8"/>
					</g>
					<g id="_x3C_Grid_Repeat_x3E__00000010292230794385593120000005633784436549169809_">
						<line class="st3" x1="1452.6" y1="1086.2" x2="1452.6" y2="-3.8"/>
					</g>
					<g id="_x3C_Grid_Repeat_x3E__00000130622934302704425400000009230812486793269383_">
						<line class="st3" x1="1463.6" y1="1086.2" x2="1463.6" y2="-3.8"/>
					</g>
					<g id="_x3C_Grid_Repeat_x3E__00000058556226050512432890000003328988045244605572_">
						<line class="st3" x1="1474.6" y1="1086.2" x2="1474.6" y2="-3.8"/>
					</g>
					<g id="_x3C_Grid_Repeat_x3E__00000011735756405838483330000001804444183122875795_">
						<line class="st3" x1="1485.6" y1="1086.2" x2="1485.6" y2="-3.8"/>
					</g>
					<g id="_x3C_Grid_Repeat_x3E__00000106831848380474144800000016059036318385864361_">
						<line class="st3" x1="1496.6" y1="1086.2" x2="1496.6" y2="-3.8"/>
					</g>
					<g id="_x3C_Grid_Repeat_x3E__00000182505103653349681840000004631796038258145441_">
						<line class="st3" x1="1507.6" y1="1086.2" x2="1507.6" y2="-3.8"/>
					</g>
					<g id="_x3C_Grid_Repeat_x3E__00000084523493214920420210000010508073544409834121_">
						<line class="st3" x1="1518.6" y1="1086.2" x2="1518.6" y2="-3.8"/>
					</g>
					<g id="_x3C_Grid_Repeat_x3E__00000178165641971181541060000005212794911400926347_">
						<line class="st3" x1="1529.6" y1="1086.2" x2="1529.6" y2="-3.8"/>
					</g>
					<g id="_x3C_Grid_Repeat_x3E__00000168107069618622878000000007939351760886117772_">
						<line class="st3" x1="1540.6" y1="1086.2" x2="1540.6" y2="-3.8"/>
					</g>
					<g id="_x3C_Grid_Repeat_x3E__00000054946246778463077320000008792001177691927681_">
						<line class="st3" x1="1551.6" y1="1086.2" x2="1551.6" y2="-3.8"/>
					</g>
					<g id="_x3C_Grid_Repeat_x3E__00000129192555721059031480000006470863175785056166_">
						<line class="st3" x1="1562.6" y1="1086.2" x2="1562.6" y2="-3.8"/>
					</g>
					<g id="_x3C_Grid_Repeat_x3E__00000113327328599179780420000014695306688225540273_">
						<line class="st3" x1="1573.6" y1="1086.2" x2="1573.6" y2="-3.8"/>
					</g>
					<g id="_x3C_Grid_Repeat_x3E__00000112625868091129683760000001118702537009263524_">
						<line class="st3" x1="1584.6" y1="1086.2" x2="1584.6" y2="-3.8"/>
					</g>
					<g id="_x3C_Grid_Repeat_x3E__00000183250360641185787150000005684871832460552845_">
						<line class="st3" x1="1595.6" y1="1086.2" x2="1595.6" y2="-3.8"/>
					</g>
					<g id="_x3C_Grid_Repeat_x3E__00000146500776483662583050000016245643576610238096_">
						<line class="st3" x1="1606.6" y1="1086.2" x2="1606.6" y2="-3.8"/>
					</g>
					<g id="_x3C_Grid_Repeat_x3E__00000043415613121056713390000016241722143479694518_">
						<line class="st3" x1="1617.6" y1="1086.2" x2="1617.6" y2="-3.8"/>
					</g>
					<g id="_x3C_Grid_Repeat_x3E__00000032620369427418459710000003301467551111913095_">
						<line class="st3" x1="1628.6" y1="1086.2" x2="1628.6" y2="-3.8"/>
					</g>
					<g id="_x3C_Grid_Repeat_x3E__00000152943547324796831080000013980883696988559015_">
						<line class="st3" x1="1639.6" y1="1086.2" x2="1639.6" y2="-3.8"/>
					</g>
					<g id="_x3C_Grid_Repeat_x3E__00000061469653209540762800000014222406459327851428_">
						<line class="st3" x1="1650.6" y1="1086.2" x2="1650.6" y2="-3.8"/>
					</g>
					<g id="_x3C_Grid_Repeat_x3E__00000151537137998818192150000013514994250184195493_">
						<line class="st3" x1="1661.6" y1="1086.2" x2="1661.6" y2="-3.8"/>
					</g>
					<g id="_x3C_Grid_Repeat_x3E__00000141428542485194899820000015281996734073019053_">
						<line class="st3" x1="1672.6" y1="1086.2" x2="1672.6" y2="-3.8"/>
					</g>
					<g id="_x3C_Grid_Repeat_x3E__00000023979906761178198150000006336378331756650402_">
						<line class="st3" x1="1683.6" y1="1086.2" x2="1683.6" y2="-3.8"/>
					</g>
					<g id="_x3C_Grid_Repeat_x3E__00000057842424531538084750000007012214272435567529_">
						<line class="st3" x1="1694.6" y1="1086.2" x2="1694.6" y2="-3.8"/>
					</g>
					<g id="_x3C_Grid_Repeat_x3E__00000005268713575321581990000009541137851984565439_">
						<line class="st3" x1="1705.6" y1="1086.2" x2="1705.6" y2="-3.8"/>
					</g>
					<g id="_x3C_Grid_Repeat_x3E__00000122697918932070634240000006614719350142814378_">
						<line class="st3" x1="1716.6" y1="1086.2" x2="1716.6" y2="-3.8"/>
					</g>
					<g id="_x3C_Grid_Repeat_x3E__00000000183632651093211690000015439852468561240738_">
						<line class="st3" x1="1727.6" y1="1086.2" x2="1727.6" y2="-3.8"/>
					</g>
					<g id="_x3C_Grid_Repeat_x3E__00000060021739950084293260000005904727841346448534_">
						<line class="st3" x1="1738.6" y1="1086.2" x2="1738.6" y2="-3.8"/>
					</g>
					<g id="_x3C_Grid_Repeat_x3E__00000172399912657597580410000007593343853122260881_">
						<line class="st3" x1="1749.6" y1="1086.2" x2="1749.6" y2="-3.8"/>
					</g>
					<g id="_x3C_Grid_Repeat_x3E__00000096032412690158326570000012399165527221655943_">
						<line class="st3" x1="1760.6" y1="1086.2" x2="1760.6" y2="-3.8"/>
					</g>
					<g id="_x3C_Grid_Repeat_x3E__00000082328817891129507160000010791605625077708936_">
						<line class="st3" x1="1771.6" y1="1086.2" x2="1771.6" y2="-3.8"/>
					</g>
					<g id="_x3C_Grid_Repeat_x3E__00000106835915994019563160000013908746906921825696_">
						<line class="st3" x1="1782.6" y1="1086.2" x2="1782.6" y2="-3.8"/>
					</g>
					<g id="_x3C_Grid_Repeat_x3E__00000094579290638523585430000009022075830806919068_">
						<line class="st3" x1="1793.6" y1="1086.2" x2="1793.6" y2="-3.8"/>
					</g>
					<g id="_x3C_Grid_Repeat_x3E__00000132082252183025000540000011129830042598653090_">
						<line class="st3" x1="1804.6" y1="1086.2" x2="1804.6" y2="-3.8"/>
					</g>
					<g id="_x3C_Grid_Repeat_x3E__00000034783615076151093430000005939212008283276449_">
						<line class="st3" x1="1815.6" y1="1086.2" x2="1815.6" y2="-3.8"/>
					</g>
					<g id="_x3C_Grid_Repeat_x3E__00000176023634642964714720000013049859916898035357_">
						<line class="st3" x1="1826.6" y1="1086.2" x2="1826.6" y2="-3.8"/>
					</g>
					<g id="_x3C_Grid_Repeat_x3E__00000160897781197966432900000012182295566156094137_">
						<line class="st3" x1="1837.6" y1="1086.2" x2="1837.6" y2="-3.8"/>
					</g>
					<g id="_x3C_Grid_Repeat_x3E__00000078752762097348661320000017813915414765332406_">
						<line class="st3" x1="1848.6" y1="1086.2" x2="1848.6" y2="-3.8"/>
					</g>
					<g id="_x3C_Grid_Repeat_x3E__00000055695035845691581870000007608357925188961946_">
						<line class="st3" x1="1859.6" y1="1086.2" x2="1859.6" y2="-3.8"/>
					</g>
					<g id="_x3C_Grid_Repeat_x3E__00000070826697577469310790000015251144349989274523_">
						<line class="st3" x1="1870.6" y1="1086.2" x2="1870.6" y2="-3.8"/>
					</g>
					<g id="_x3C_Grid_Repeat_x3E__00000052078683298739473630000008056320108703248784_">
						<line class="st3" x1="1881.6" y1="1086.2" x2="1881.6" y2="-3.8"/>
					</g>
					<g id="_x3C_Grid_Repeat_x3E__00000138557566392558245040000012480044858997958316_">
						<line class="st3" x1="1892.6" y1="1086.2" x2="1892.6" y2="-3.8"/>
					</g>
					<g id="_x3C_Grid_Repeat_x3E__00000067915049447114150900000016883876716333954441_">
						<line class="st3" x1="1903.6" y1="1086.2" x2="1903.6" y2="-3.8"/>
					</g>
					<g id="_x3C_Grid_Repeat_x3E__00000079460176658222710950000017367607602578338721_">
						<line class="st3" x1="1914.6" y1="1086.2" x2="1914.6" y2="-3.8"/>
					</g>
				</g>
				<use xlink:href="#SVGID_1_"  style="overflow:visible;fill:none;stroke:#FFFFFF;stroke-miterlimit:10;"/>
			</g>
		</g>
		<line class="st4" x1="0" y1="-0.5" x2="1920" y2="-0.5"/>
		<line class="st4" x1="0" y1="9.5" x2="1920" y2="9.5"/>
		<line class="st4" x1="0" y1="19.5" x2="1920" y2="19.5"/>
		<line class="st4" x1="0" y1="29.5" x2="1920" y2="29.5"/>
		<line class="st4" x1="0" y1="39.5" x2="1920" y2="39.5"/>
		<line class="st4" x1="0" y1="49.5" x2="1920" y2="49.5"/>
		<line class="st4" x1="0" y1="59.5" x2="1920" y2="59.5"/>
		<line class="st4" x1="0" y1="69.5" x2="1920" y2="69.5"/>
		<line class="st4" x1="0" y1="79.5" x2="1920" y2="79.5"/>
		<line class="st4" x1="0" y1="89.5" x2="1920" y2="89.5"/>
		<line class="st4" x1="0" y1="99.5" x2="1920" y2="99.5"/>
		<line class="st4" x1="0" y1="109.5" x2="1920" y2="109.5"/>
		<line class="st4" x1="0" y1="119.5" x2="1920" y2="119.5"/>
		<line class="st4" x1="0" y1="129.5" x2="1920" y2="129.5"/>
		<line class="st4" x1="0" y1="139.5" x2="1920" y2="139.5"/>
		<line class="st4" x1="0" y1="149.5" x2="1920" y2="149.5"/>
		<line class="st4" x1="0" y1="159.5" x2="1920" y2="159.5"/>
		<line class="st4" x1="0" y1="169.5" x2="1920" y2="169.5"/>
		<line class="st4" x1="0" y1="179.5" x2="1920" y2="179.5"/>
		<line class="st4" x1="0" y1="189.5" x2="1920" y2="189.5"/>
		<line class="st4" x1="0" y1="199.5" x2="1920" y2="199.5"/>
		<line class="st4" x1="0" y1="209.5" x2="1920" y2="209.5"/>
		<line class="st4" x1="0" y1="219.5" x2="1920" y2="219.5"/>
		<line class="st4" x1="0" y1="229.5" x2="1920" y2="229.5"/>
		<line class="st4" x1="0" y1="239.5" x2="1920" y2="239.5"/>
		<line class="st4" x1="0" y1="249.5" x2="1920" y2="249.5"/>
		<line class="st4" x1="0" y1="259.5" x2="1920" y2="259.5"/>
		<line class="st4" x1="0" y1="269.5" x2="1920" y2="269.5"/>
		<line class="st4" x1="0" y1="279.5" x2="1920" y2="279.5"/>
		<line class="st4" x1="0" y1="289.5" x2="1920" y2="289.5"/>
		<line class="st4" x1="0" y1="299.5" x2="1920" y2="299.5"/>
		<line class="st4" x1="0" y1="309.5" x2="1920" y2="309.5"/>
		<line class="st4" x1="0" y1="319.5" x2="1920" y2="319.5"/>
		<line class="st4" x1="0" y1="329.5" x2="1920" y2="329.5"/>
		<line class="st4" x1="0" y1="339.5" x2="1920" y2="339.5"/>
		<line class="st4" x1="0" y1="349.5" x2="1920" y2="349.5"/>
		<line class="st4" x1="0" y1="359.5" x2="1920" y2="359.5"/>
		<line class="st4" x1="0" y1="369.5" x2="1920" y2="369.5"/>
		<line class="st4" x1="0" y1="379.5" x2="1920" y2="379.5"/>
		<line class="st4" x1="0" y1="389.5" x2="1920" y2="389.5"/>
		<line class="st4" x1="0" y1="399.5" x2="1920" y2="399.5"/>
		<line class="st4" x1="0" y1="409.5" x2="1920" y2="409.5"/>
		<line class="st4" x1="0" y1="419.5" x2="1920" y2="419.5"/>
		<line class="st4" x1="0" y1="429.5" x2="1920" y2="429.5"/>
		<line class="st4" x1="0" y1="439.5" x2="1920" y2="439.5"/>
		<line class="st4" x1="0" y1="449.5" x2="1920" y2="449.5"/>
		<line class="st4" x1="0" y1="459.5" x2="1920" y2="459.5"/>
		<line class="st4" x1="0" y1="469.5" x2="1920" y2="469.5"/>
		<line class="st4" x1="0" y1="479.5" x2="1920" y2="479.5"/>
		<line class="st4" x1="0" y1="489.5" x2="1920" y2="489.5"/>
		<line class="st4" x1="0" y1="499.5" x2="1920" y2="499.5"/>
		<line class="st4" x1="0" y1="509.5" x2="1920" y2="509.5"/>
		<line class="st4" x1="0" y1="519.5" x2="1920" y2="519.5"/>
		<line class="st4" x1="0" y1="529.5" x2="1920" y2="529.5"/>
		<line class="st4" x1="0" y1="539.5" x2="1920" y2="539.5"/>
		<line class="st4" x1="0" y1="549.5" x2="1920" y2="549.5"/>
		<line class="st4" x1="0" y1="559.5" x2="1920" y2="559.5"/>
		<line class="st4" x1="0" y1="569.5" x2="1920" y2="569.5"/>
		<line class="st4" x1="0" y1="579.5" x2="1920" y2="579.5"/>
		<line class="st4" x1="0" y1="589.5" x2="1920" y2="589.5"/>
		<line class="st4" x1="0" y1="599.5" x2="1920" y2="599.5"/>
		<line class="st4" x1="0" y1="609.5" x2="1920" y2="609.5"/>
		<line class="st4" x1="0" y1="619.5" x2="1920" y2="619.5"/>
		<line class="st4" x1="0" y1="629.5" x2="1920" y2="629.5"/>
		<line class="st4" x1="0" y1="639.5" x2="1920" y2="639.5"/>
		<line class="st4" x1="0" y1="649.5" x2="1920" y2="649.5"/>
		<line class="st4" x1="0" y1="659.5" x2="1920" y2="659.5"/>
		<line class="st4" x1="0" y1="669.5" x2="1920" y2="669.5"/>
		<line class="st4" x1="0" y1="679.5" x2="1920" y2="679.5"/>
		<line class="st4" x1="0" y1="689.5" x2="1920" y2="689.5"/>
		<line class="st4" x1="0" y1="699.5" x2="1920" y2="699.5"/>
		<line class="st4" x1="0" y1="709.5" x2="1920" y2="709.5"/>
		<line class="st4" x1="0" y1="719.5" x2="1920" y2="719.5"/>
		<line class="st4" x1="0" y1="729.5" x2="1920" y2="729.5"/>
		<line class="st4" x1="0" y1="739.5" x2="1920" y2="739.5"/>
		<line class="st4" x1="0" y1="749.5" x2="1920" y2="749.5"/>
		<line class="st4" x1="0" y1="759.5" x2="1920" y2="759.5"/>
		<line class="st4" x1="0" y1="769.5" x2="1920" y2="769.5"/>
		<line class="st4" x1="0" y1="779.5" x2="1920" y2="779.5"/>
		<line class="st4" x1="0" y1="789.5" x2="1920" y2="789.5"/>
		<line class="st4" x1="0" y1="799.5" x2="1920" y2="799.5"/>
		<line class="st4" x1="0" y1="809.5" x2="1920" y2="809.5"/>
		<line class="st4" x1="0" y1="819.5" x2="1920" y2="819.5"/>
		<line class="st4" x1="0" y1="829.5" x2="1920" y2="829.5"/>
		<line class="st4" x1="0" y1="839.5" x2="1920" y2="839.5"/>
		<line class="st4" x1="0" y1="849.5" x2="1920" y2="849.5"/>
		<line class="st4" x1="0" y1="859.5" x2="1920" y2="859.5"/>
		<line class="st4" x1="0" y1="869.5" x2="1920" y2="869.5"/>
		<line class="st4" x1="0" y1="879.5" x2="1920" y2="879.5"/>
		<line class="st4" x1="0" y1="889.5" x2="1920" y2="889.5"/>
		<line class="st4" x1="0" y1="899.5" x2="1920" y2="899.5"/>
		<line class="st4" x1="0" y1="909.5" x2="1920" y2="909.5"/>
		<line class="st4" x1="0" y1="919.5" x2="1920" y2="919.5"/>
		<line class="st4" x1="0" y1="929.5" x2="1920" y2="929.5"/>
		<line class="st4" x1="0" y1="939.5" x2="1920" y2="939.5"/>
		<line class="st4" x1="0" y1="949.5" x2="1920" y2="949.5"/>
		<line class="st4" x1="0" y1="959.5" x2="1920" y2="959.5"/>
		<line class="st4" x1="0" y1="969.5" x2="1920" y2="969.5"/>
		<line class="st4" x1="0" y1="979.5" x2="1920" y2="979.5"/>
		<line class="st4" x1="0" y1="989.5" x2="1920" y2="989.5"/>
		<line class="st4" x1="0" y1="999.5" x2="1920" y2="999.5"/>
		<line class="st4" x1="0" y1="1009.5" x2="1920" y2="1009.5"/>
		<line class="st4" x1="0" y1="1019.5" x2="1920" y2="1019.5"/>
		<line class="st4" x1="0" y1="1029.5" x2="1920" y2="1029.5"/>
		<line class="st4" x1="0" y1="1039.5" x2="1920" y2="1039.5"/>
		<line class="st4" x1="0" y1="1049.5" x2="1920" y2="1049.5"/>
		<line class="st4" x1="0" y1="1059.5" x2="1920" y2="1059.5"/>
		<line class="st4" x1="0" y1="1069.5" x2="1920" y2="1069.5"/>
		<line class="st4" x1="0" y1="1089.5" x2="1920" y2="1089.5"/>
	</g>
	<g class="st1">
		<line class="st3" x1="0.5" y1="1091" x2="0.5" y2="1"/>
		<g>
			<g id="_x3C_Grid_Repeat_x3E__00000156548187317019663710000009753492613206006719_">
				<line class="st3" x1="0.6" y1="1091.2" x2="0.6" y2="1.2"/>
			</g>
			<g id="_x3C_Grid_Repeat_x3E__00000076605717250234564540000015417387702108725898_">
				<line class="st3" x1="99.7" y1="1091.2" x2="99.7" y2="1.2"/>
			</g>
			<g id="_x3C_Grid_Repeat_x3E__00000167395420233210963110000013564943185081523898_">
				<line class="st3" x1="198.8" y1="1091.2" x2="198.8" y2="1.2"/>
			</g>
			<g id="_x3C_Grid_Repeat_x3E__00000091714539580192887470000010907116062671566487_">
				<line class="st3" x1="297.9" y1="1091.2" x2="297.9" y2="1.2"/>
			</g>
			<g id="_x3C_Grid_Repeat_x3E__00000072243217362269175070000017873335885327680697_">
				<line class="st3" x1="396.9" y1="1091.2" x2="396.9" y2="1.2"/>
			</g>
			<g id="_x3C_Grid_Repeat_x3E__00000176765368044029260300000008344465143544294528_">
				<line class="st3" x1="496" y1="1091.2" x2="496" y2="1.2"/>
			</g>
			<g id="_x3C_Grid_Repeat_x3E__00000111189434132248193250000009162737858451319979_">
				<line class="st3" x1="595.1" y1="1091.2" x2="595.1" y2="1.2"/>
			</g>
			<g id="_x3C_Grid_Repeat_x3E__00000000924431372337121910000014459990618476021675_">
				<line class="st3" x1="694.1" y1="1091.2" x2="694.1" y2="1.2"/>
			</g>
			<g id="_x3C_Grid_Repeat_x3E__00000026162002594608307180000017112276914075013311_">
				<line class="st3" x1="793.2" y1="1091.2" x2="793.2" y2="1.2"/>
			</g>
			<g id="_x3C_Grid_Repeat_x3E__00000145032523626166530710000012826446998091971492_">
				<line class="st3" x1="892.3" y1="1091.2" x2="892.3" y2="1.2"/>
			</g>
			<g id="_x3C_Grid_Repeat_x3E__00000180342151488657334310000015805291181021167498_">
				<line class="st3" x1="991.3" y1="1091.2" x2="991.3" y2="1.2"/>
			</g>
			<g id="_x3C_Grid_Repeat_x3E__00000047742894806333534680000009049889535012604035_">
				<line class="st3" x1="1090.4" y1="1091.2" x2="1090.4" y2="1.2"/>
			</g>
			<g id="_x3C_Grid_Repeat_x3E__00000070817324141941327530000003655509448215144349_">
				<line class="st3" x1="1189.4" y1="1091.2" x2="1189.4" y2="1.2"/>
			</g>
			<g id="_x3C_Grid_Repeat_x3E__00000158020750652683065520000009038219234468517798_">
				<line class="st3" x1="1288.5" y1="1091.2" x2="1288.5" y2="1.2"/>
			</g>
			<g id="_x3C_Grid_Repeat_x3E__00000058577260042150912260000011627919766438402469_">
				<line class="st3" x1="1387.6" y1="1091.2" x2="1387.6" y2="1.2"/>
			</g>
			<g id="_x3C_Grid_Repeat_x3E__00000151517864729207746870000009554093104989929662_">
				<line class="st3" x1="1486.6" y1="1091.2" x2="1486.6" y2="1.2"/>
			</g>
			<g id="_x3C_Grid_Repeat_x3E__00000069379311863534092040000011097988794998901378_">
				<line class="st3" x1="1585.7" y1="1091.2" x2="1585.7" y2="1.2"/>
			</g>
			<g id="_x3C_Grid_Repeat_x3E__00000066513276343540851010000012608930885215345588_">
				<line class="st3" x1="1684.8" y1="1091.2" x2="1684.8" y2="1.2"/>
			</g>
			<g id="_x3C_Grid_Repeat_x3E__00000152953234660821122220000003516986772692901810_">
				<line class="st3" x1="1783.8" y1="1091.2" x2="1783.8" y2="1.2"/>
			</g>
			<g id="_x3C_Grid_Repeat_x3E__00000111183658204575094630000006890855396091147179_">
				<line class="st3" x1="1882.9" y1="1091.2" x2="1882.9" y2="1.2"/>
			</g>
		</g>
		<g>
			<g id="_x3C_Grid_Repeat_x3E__00000044859697592858484590000012646879511017794716_">
				<line class="st3" x1="0" y1="1.1" x2="1920" y2="1.1"/>
			</g>
			<g id="_x3C_Grid_Repeat_x3E__00000111905302942976562440000014339053974622491038_">
				<line class="st3" x1="0" y1="99.9" x2="1920" y2="99.9"/>
			</g>
			<g id="_x3C_Grid_Repeat_x3E__00000028324960203917449960000006397794606576477319_">
				<line class="st3" x1="0" y1="198.8" x2="1920" y2="198.8"/>
			</g>
			<g id="_x3C_Grid_Repeat_x3E__00000044888878930561330580000014180575527066260405_">
				<line class="st3" x1="0" y1="297.7" x2="1920" y2="297.7"/>
			</g>
			<g id="_x3C_Grid_Repeat_x3E__00000060029405013250401840000005568041010292277399_">
				<line class="st3" x1="0" y1="399.5" x2="1920" y2="399.5"/>
			</g>
			<g id="_x3C_Grid_Repeat_x3E__00000175310054337066651350000016835354740387276980_">
				<line class="st3" x1="0" y1="498.4" x2="1920" y2="498.4"/>
			</g>
			<g id="_x3C_Grid_Repeat_x3E__00000013173648883493959670000008710839732232048271_">
				<line class="st3" x1="0" y1="599.3" x2="1920" y2="599.3"/>
			</g>
			<g id="_x3C_Grid_Repeat_x3E__00000038398484666778551670000003368501612178947987_">
				<line class="st3" x1="0" y1="698.1" x2="1920" y2="698.1"/>
			</g>
			<g id="_x3C_Grid_Repeat_x3E__00000115491852612371466870000003438447158910828961_">
				<line class="st3" x1="0" y1="799" x2="1920" y2="799"/>
			</g>
			<g id="_x3C_Grid_Repeat_x3E__00000145042292815305026940000011727318446560625334_">
				<line class="st3" x1="0" y1="898.9" x2="1920" y2="898.9"/>
			</g>
			<g id="_x3C_Grid_Repeat_x3E__00000171679210990922612850000013247730027492749983_">
				<line class="st3" x1="0" y1="998.7" x2="1920" y2="998.7"/>
			</g>
		</g>
	</g>
</g>
</svg>
