<svg width="1400" height="830" viewBox="0 0 1400 830" fill="none" xmlns="http://www.w3.org/2000/svg">
<g clip-path="url(#clip0_691_64155)">
<rect width="1400" height="830" fill="white"/>
<rect width="1408" height="830" fill="url(#paint0_linear_691_64155)"/>
<g opacity="0.3">
<g opacity="0.2">
<line x1="-20" y1="56.5" x2="1579" y2="56.5" stroke="white"/>
<line x1="-20" y1="126.5" x2="1579" y2="126.5" stroke="white"/>
<line x1="-20" y1="196.5" x2="1579" y2="196.5" stroke="white"/>
<line x1="-20" y1="266.5" x2="1579" y2="266.5" stroke="white"/>
<line x1="-20" y1="336.5" x2="1579" y2="336.5" stroke="white"/>
<line x1="-20" y1="406.5" x2="1579" y2="406.5" stroke="white"/>
<line x1="38.5" y1="-42" x2="38.5" y2="442" stroke="white"/>
<line x1="108.5" y1="-42" x2="108.5" y2="442" stroke="white"/>
<line x1="178.5" y1="-42" x2="178.5" y2="442" stroke="white"/>
<line x1="248.5" y1="-42" x2="248.5" y2="442" stroke="white"/>
<line x1="318.5" y1="-42" x2="318.5" y2="442" stroke="white"/>
<line x1="388.5" y1="-42" x2="388.5" y2="442" stroke="white"/>
<line x1="458.5" y1="-42" x2="458.5" y2="442" stroke="white"/>
<line x1="528.5" y1="-42" x2="528.5" y2="442" stroke="white"/>
<line x1="598.5" y1="-42" x2="598.5" y2="442" stroke="white"/>
<line x1="668.5" y1="-42" x2="668.5" y2="442" stroke="white"/>
<line x1="738.5" y1="-42" x2="738.5" y2="442" stroke="white"/>
<line x1="808.5" y1="-42" x2="808.5" y2="442" stroke="white"/>
<line x1="878.5" y1="-42" x2="878.5" y2="442" stroke="white"/>
<line x1="948.5" y1="-42" x2="948.5" y2="442" stroke="white"/>
<line x1="1018.5" y1="-42" x2="1018.5" y2="442" stroke="white"/>
<line x1="1088.5" y1="-42" x2="1088.5" y2="442" stroke="white"/>
<line x1="1158.5" y1="-42" x2="1158.5" y2="442" stroke="white"/>
<line x1="1228.5" y1="-42" x2="1228.5" y2="442" stroke="white"/>
<line x1="1298.5" y1="-42" x2="1298.5" y2="442" stroke="white"/>
<line x1="1368.5" y1="-42" x2="1368.5" y2="442" stroke="white"/>
</g>
<g opacity="0.3">
<line x1="-20" y1="56.5" x2="1579" y2="56.5" stroke="white"/>
<line x1="-20" y1="126.5" x2="1579" y2="126.5" stroke="white"/>
<line x1="-20" y1="196.5" x2="1579" y2="196.5" stroke="white"/>
<line x1="-20" y1="266.5" x2="1579" y2="266.5" stroke="white"/>
<line x1="-20" y1="336.5" x2="1579" y2="336.5" stroke="white"/>
<line x1="-20" y1="406.5" x2="1579" y2="406.5" stroke="white"/>
<line x1="38.5" y1="-42" x2="38.5" y2="442" stroke="white"/>
<line x1="108.5" y1="-42" x2="108.5" y2="442" stroke="white"/>
<line x1="178.5" y1="-42" x2="178.5" y2="442" stroke="white"/>
<line x1="248.5" y1="-42" x2="248.5" y2="442" stroke="white"/>
<line x1="318.5" y1="-42" x2="318.5" y2="442" stroke="white"/>
<line x1="388.5" y1="-42" x2="388.5" y2="442" stroke="white"/>
<line x1="458.5" y1="-42" x2="458.5" y2="442" stroke="white"/>
<line x1="528.5" y1="-42" x2="528.5" y2="442" stroke="white"/>
<line x1="598.5" y1="-42" x2="598.5" y2="442" stroke="white"/>
<line x1="668.5" y1="-42" x2="668.5" y2="442" stroke="white"/>
<line x1="738.5" y1="-42" x2="738.5" y2="442" stroke="white"/>
<line x1="808.5" y1="-42" x2="808.5" y2="442" stroke="white"/>
<line x1="878.5" y1="-42" x2="878.5" y2="442" stroke="white"/>
<line x1="948.5" y1="-42" x2="948.5" y2="442" stroke="white"/>
<line x1="1018.5" y1="-42" x2="1018.5" y2="442" stroke="white"/>
<line x1="1088.5" y1="-42" x2="1088.5" y2="442" stroke="white"/>
<line x1="1158.5" y1="-42" x2="1158.5" y2="442" stroke="white"/>
<line x1="1228.5" y1="-42" x2="1228.5" y2="442" stroke="white"/>
<line x1="1298.5" y1="-42" x2="1298.5" y2="442" stroke="white"/>
<line x1="1368.5" y1="-42" x2="1368.5" y2="442" stroke="white"/>
</g>
<g opacity="0.2">
<line x1="-10" y1="66.5" x2="1589" y2="66.5" stroke="white"/>
<line x1="-10" y1="46.5" x2="1589" y2="46.5" stroke="white"/>
<line x1="-10" y1="136.5" x2="1589" y2="136.5" stroke="white"/>
<line x1="-10" y1="206.5" x2="1589" y2="206.5" stroke="white"/>
<line x1="-10" y1="276.5" x2="1589" y2="276.5" stroke="white"/>
<line x1="-10" y1="346.5" x2="1589" y2="346.5" stroke="white"/>
<line x1="-10" y1="416.5" x2="1589" y2="416.5" stroke="white"/>
<line x1="48.5" y1="-32" x2="48.5" y2="452" stroke="white"/>
<line x1="118.5" y1="-32" x2="118.5" y2="452" stroke="white"/>
<line x1="188.5" y1="-32" x2="188.5" y2="452" stroke="white"/>
<line x1="258.5" y1="-32" x2="258.5" y2="452" stroke="white"/>
<line x1="328.5" y1="-32" x2="328.5" y2="452" stroke="white"/>
<line x1="398.5" y1="-32" x2="398.5" y2="452" stroke="white"/>
<line x1="468.5" y1="-32" x2="468.5" y2="452" stroke="white"/>
<line x1="538.5" y1="-32" x2="538.5" y2="452" stroke="white"/>
<line x1="608.5" y1="-32" x2="608.5" y2="452" stroke="white"/>
<line x1="678.5" y1="-32" x2="678.5" y2="452" stroke="white"/>
<line x1="748.5" y1="-32" x2="748.5" y2="452" stroke="white"/>
<line x1="818.5" y1="-32" x2="818.5" y2="452" stroke="white"/>
<line x1="888.5" y1="-32" x2="888.5" y2="452" stroke="white"/>
<line x1="958.5" y1="-32" x2="958.5" y2="452" stroke="white"/>
<line x1="1028.5" y1="-32" x2="1028.5" y2="452" stroke="white"/>
<line x1="1098.5" y1="-32" x2="1098.5" y2="452" stroke="white"/>
<line x1="1168.5" y1="-32" x2="1168.5" y2="452" stroke="white"/>
<line x1="1238.5" y1="-32" x2="1238.5" y2="452" stroke="white"/>
<line x1="1308.5" y1="-32" x2="1308.5" y2="452" stroke="white"/>
<line x1="1378.5" y1="-32" x2="1378.5" y2="452" stroke="white"/>
</g>
<g opacity="0.2">
<line y1="76.5" x2="1599" y2="76.5" stroke="white"/>
<line y1="146.5" x2="1599" y2="146.5" stroke="white"/>
<line y1="216.5" x2="1599" y2="216.5" stroke="white"/>
<line y1="286.5" x2="1599" y2="286.5" stroke="white"/>
<line y1="356.5" x2="1599" y2="356.5" stroke="white"/>
<line y1="426.5" x2="1599" y2="426.5" stroke="white"/>
<line x1="58.5" y1="-22" x2="58.5" y2="462" stroke="white"/>
<line x1="128.5" y1="-22" x2="128.5" y2="462" stroke="white"/>
<line x1="198.5" y1="-22" x2="198.5" y2="462" stroke="white"/>
<line x1="268.5" y1="-22" x2="268.5" y2="462" stroke="white"/>
<line x1="338.5" y1="-22" x2="338.5" y2="462" stroke="white"/>
<line x1="408.5" y1="-22" x2="408.5" y2="462" stroke="white"/>
<line x1="478.5" y1="-22" x2="478.5" y2="462" stroke="white"/>
<line x1="548.5" y1="-22" x2="548.5" y2="462" stroke="white"/>
<line x1="618.5" y1="-22" x2="618.5" y2="462" stroke="white"/>
<line x1="688.5" y1="-22" x2="688.5" y2="462" stroke="white"/>
<line x1="758.5" y1="-22" x2="758.5" y2="462" stroke="white"/>
<line x1="828.5" y1="-22" x2="828.5" y2="462" stroke="white"/>
<line x1="898.5" y1="-22" x2="898.5" y2="462" stroke="white"/>
<line x1="968.5" y1="-22" x2="968.5" y2="462" stroke="white"/>
<line x1="1038.5" y1="-22" x2="1038.5" y2="462" stroke="white"/>
<line x1="1108.5" y1="-22" x2="1108.5" y2="462" stroke="white"/>
<line x1="1178.5" y1="-22" x2="1178.5" y2="462" stroke="white"/>
<line x1="1248.5" y1="-22" x2="1248.5" y2="462" stroke="white"/>
<line x1="1318.5" y1="-22" x2="1318.5" y2="462" stroke="white"/>
<line x1="1388.5" y1="-22" x2="1388.5" y2="462" stroke="white"/>
</g>
<g opacity="0.2">
<line x1="10" y1="86.5" x2="1609" y2="86.5" stroke="white"/>
<line x1="10" y1="156.5" x2="1609" y2="156.5" stroke="white"/>
<line x1="10" y1="226.5" x2="1609" y2="226.5" stroke="white"/>
<line x1="10" y1="296.5" x2="1609" y2="296.5" stroke="white"/>
<line x1="10" y1="366.5" x2="1609" y2="366.5" stroke="white"/>
<line x1="10" y1="436.5" x2="1609" y2="436.5" stroke="white"/>
<line x1="68.5" y1="-12" x2="68.5" y2="472" stroke="white"/>
<line x1="138.5" y1="-12" x2="138.5" y2="472" stroke="white"/>
<line x1="208.5" y1="-12" x2="208.5" y2="472" stroke="white"/>
<line x1="278.5" y1="-12" x2="278.5" y2="472" stroke="white"/>
<line x1="348.5" y1="-12" x2="348.5" y2="472" stroke="white"/>
<line x1="418.5" y1="-12" x2="418.5" y2="472" stroke="white"/>
<line x1="488.5" y1="-12" x2="488.5" y2="472" stroke="white"/>
<line x1="558.5" y1="-12" x2="558.5" y2="472" stroke="white"/>
<line x1="628.5" y1="-12" x2="628.5" y2="472" stroke="white"/>
<line x1="698.5" y1="-12" x2="698.5" y2="472" stroke="white"/>
<line x1="768.5" y1="-12" x2="768.5" y2="472" stroke="white"/>
<line x1="838.5" y1="-12" x2="838.5" y2="472" stroke="white"/>
<line x1="908.5" y1="-12" x2="908.5" y2="472" stroke="white"/>
<line x1="978.5" y1="-12" x2="978.5" y2="472" stroke="white"/>
<line x1="1048.5" y1="-12" x2="1048.5" y2="472" stroke="white"/>
<line x1="1118.5" y1="-12" x2="1118.5" y2="472" stroke="white"/>
<line x1="1188.5" y1="-12" x2="1188.5" y2="472" stroke="white"/>
<line x1="1258.5" y1="-12" x2="1258.5" y2="472" stroke="white"/>
<line x1="1328.5" y1="-12" x2="1328.5" y2="472" stroke="white"/>
<line x1="1398.5" y1="-12" x2="1398.5" y2="472" stroke="white"/>
</g>
<g opacity="0.2">
<line x1="20" y1="96.5" x2="1619" y2="96.5" stroke="white"/>
<line x1="20" y1="166.5" x2="1619" y2="166.5" stroke="white"/>
<line x1="20" y1="236.5" x2="1619" y2="236.5" stroke="white"/>
<line x1="20" y1="306.5" x2="1619" y2="306.5" stroke="white"/>
<line x1="20" y1="376.5" x2="1619" y2="376.5" stroke="white"/>
<line x1="20" y1="446.5" x2="1619" y2="446.5" stroke="white"/>
<line x1="8.5" y1="-2" x2="8.49998" y2="482" stroke="white"/>
<line x1="78.5" y1="-2" x2="78.5" y2="482" stroke="white"/>
<line x1="148.5" y1="-2" x2="148.5" y2="482" stroke="white"/>
<line x1="218.5" y1="-2" x2="218.5" y2="482" stroke="white"/>
<line x1="288.5" y1="-2" x2="288.5" y2="482" stroke="white"/>
<line x1="358.5" y1="-2" x2="358.5" y2="482" stroke="white"/>
<line x1="428.5" y1="-2" x2="428.5" y2="482" stroke="white"/>
<line x1="498.5" y1="-2" x2="498.5" y2="482" stroke="white"/>
<line x1="568.5" y1="-2" x2="568.5" y2="482" stroke="white"/>
<line x1="638.5" y1="-2" x2="638.5" y2="482" stroke="white"/>
<line x1="708.5" y1="-2" x2="708.5" y2="482" stroke="white"/>
<line x1="778.5" y1="-2" x2="778.5" y2="482" stroke="white"/>
<line x1="848.5" y1="-2" x2="848.5" y2="482" stroke="white"/>
<line x1="918.5" y1="-2" x2="918.5" y2="482" stroke="white"/>
<line x1="988.5" y1="-2" x2="988.5" y2="482" stroke="white"/>
<line x1="1058.5" y1="-2" x2="1058.5" y2="482" stroke="white"/>
<line x1="1128.5" y1="-2" x2="1128.5" y2="482" stroke="white"/>
<line x1="1198.5" y1="-2" x2="1198.5" y2="482" stroke="white"/>
<line x1="1268.5" y1="-2" x2="1268.5" y2="482" stroke="white"/>
<line x1="1338.5" y1="-2" x2="1338.5" y2="482" stroke="white"/>
</g>
<g opacity="0.2">
<line x1="30" y1="106.5" x2="1629" y2="106.5" stroke="white"/>
<line x1="30" y1="176.5" x2="1629" y2="176.5" stroke="white"/>
<line x1="30" y1="246.5" x2="1629" y2="246.5" stroke="white"/>
<line x1="30" y1="316.5" x2="1629" y2="316.5" stroke="white"/>
<line x1="30" y1="386.5" x2="1629" y2="386.5" stroke="white"/>
<line x1="30" y1="456.5" x2="1629" y2="456.5" stroke="white"/>
<line x1="18.5" y1="8" x2="18.5" y2="492" stroke="white"/>
<line x1="88.5" y1="8" x2="88.5" y2="492" stroke="white"/>
<line x1="158.5" y1="8" x2="158.5" y2="492" stroke="white"/>
<line x1="228.5" y1="8" x2="228.5" y2="492" stroke="white"/>
<line x1="298.5" y1="8" x2="298.5" y2="492" stroke="white"/>
<line x1="368.5" y1="8" x2="368.5" y2="492" stroke="white"/>
<line x1="438.5" y1="8" x2="438.5" y2="492" stroke="white"/>
<line x1="508.5" y1="8" x2="508.5" y2="492" stroke="white"/>
<line x1="578.5" y1="8" x2="578.5" y2="492" stroke="white"/>
<line x1="648.5" y1="8" x2="648.5" y2="492" stroke="white"/>
<line x1="718.5" y1="8" x2="718.5" y2="492" stroke="white"/>
<line x1="788.5" y1="8" x2="788.5" y2="492" stroke="white"/>
<line x1="858.5" y1="8" x2="858.5" y2="492" stroke="white"/>
<line x1="928.5" y1="8" x2="928.5" y2="492" stroke="white"/>
<line x1="998.5" y1="8" x2="998.5" y2="492" stroke="white"/>
<line x1="1068.5" y1="8" x2="1068.5" y2="492" stroke="white"/>
<line x1="1138.5" y1="8" x2="1138.5" y2="492" stroke="white"/>
<line x1="1208.5" y1="8" x2="1208.5" y2="492" stroke="white"/>
<line x1="1278.5" y1="8" x2="1278.5" y2="492" stroke="white"/>
<line x1="1348.5" y1="8" x2="1348.5" y2="492" stroke="white"/>
</g>
<g opacity="0.2">
<line x1="40" y1="116.5" x2="1639" y2="116.5" stroke="white"/>
<line x1="40" y1="186.5" x2="1639" y2="186.5" stroke="white"/>
<line x1="40" y1="256.5" x2="1639" y2="256.5" stroke="white"/>
<line x1="40" y1="326.5" x2="1639" y2="326.5" stroke="white"/>
<line x1="40" y1="396.5" x2="1639" y2="396.5" stroke="white"/>
<line x1="40" y1="466.5" x2="1639" y2="466.5" stroke="white"/>
<line x1="28.5" y1="18" x2="28.5" y2="502" stroke="white"/>
<line x1="98.5" y1="18" x2="98.5" y2="502" stroke="white"/>
<line x1="168.5" y1="18" x2="168.5" y2="502" stroke="white"/>
<line x1="238.5" y1="18" x2="238.5" y2="502" stroke="white"/>
<line x1="308.5" y1="18" x2="308.5" y2="502" stroke="white"/>
<line x1="378.5" y1="18" x2="378.5" y2="502" stroke="white"/>
<line x1="448.5" y1="18" x2="448.5" y2="502" stroke="white"/>
<line x1="518.5" y1="18" x2="518.5" y2="502" stroke="white"/>
<line x1="588.5" y1="18" x2="588.5" y2="502" stroke="white"/>
<line x1="658.5" y1="18" x2="658.5" y2="502" stroke="white"/>
<line x1="728.5" y1="18" x2="728.5" y2="502" stroke="white"/>
<line x1="798.5" y1="18" x2="798.5" y2="502" stroke="white"/>
<line x1="868.5" y1="18" x2="868.5" y2="502" stroke="white"/>
<line x1="938.5" y1="18" x2="938.5" y2="502" stroke="white"/>
<line x1="1008.5" y1="18" x2="1008.5" y2="502" stroke="white"/>
<line x1="1078.5" y1="18" x2="1078.5" y2="502" stroke="white"/>
<line x1="1148.5" y1="18" x2="1148.5" y2="502" stroke="white"/>
<line x1="1218.5" y1="18" x2="1218.5" y2="502" stroke="white"/>
<line x1="1288.5" y1="18" x2="1288.5" y2="502" stroke="white"/>
<line x1="1358.5" y1="18" x2="1358.5" y2="502" stroke="white"/>
</g>
</g>
<rect x="-4" y="-92" width="1408" height="833" fill="url(#paint1_linear_691_64155)"/>
</g>
<defs>
<linearGradient id="paint0_linear_691_64155" x1="1210.88" y1="-241.029" x2="666.704" y2="897.517" gradientUnits="userSpaceOnUse">
<stop stop-color="#7B115D"/>
<stop offset="1" stop-color="#591B76"/>
</linearGradient>
<linearGradient id="paint1_linear_691_64155" x1="1206.88" y1="-333.9" x2="655.491" y2="800.33" gradientUnits="userSpaceOnUse">
<stop stop-color="#7B115D" stop-opacity="0"/>
<stop offset="1" stop-color="#591B76"/>
</linearGradient>
<clipPath id="clip0_691_64155">
<rect width="1400" height="830" fill="white"/>
</clipPath>
</defs>
</svg>
