<svg width="207" height="304" viewBox="0 0 207 304" fill="none" xmlns="http://www.w3.org/2000/svg">
<g clip-path="url(#clip0_691_63789)">
<path d="M92.286 126.884C92.4785 128.13 90.9475 132.586 87.9498 140.814C87.5299 141.973 87.0749 143.204 86.5967 144.517C85.5586 147.347 84.4592 150.344 83.389 153.331C82.3188 156.319 81.2661 159.316 80.3446 162.107C78.3908 167.997 76.9823 173.016 76.9735 175.435C76.9735 176.253 76.9998 176.991 77.026 177.712C77.026 177.803 77.026 177.894 77.026 177.982C77.131 180.523 77.2243 182.718 75.9354 185.621C75.7371 186.065 75.5388 186.508 75.3318 186.952C74.4569 188.882 73.5354 190.825 72.6373 192.727C71.7624 194.551 70.8876 196.423 70.0361 198.284C66.5368 205.968 62.2064 212.327 57.631 219.008C57.5318 219.15 57.4298 219.311 57.3394 219.439L56.3246 220.919C55.7967 221.691 55.2339 222.485 54.6945 223.251C54.5487 223.457 54.4028 223.664 54.2483 223.859C54.0471 224.163 53.8401 224.439 53.6388 224.734C51.3293 228.029 49.1364 231.455 48.2353 235.245C48.0457 236.041 47.69 237.78 47.2088 240.248C45.7887 247.561 43.275 261.249 40.7438 275.553C40.1314 279.033 39.5132 282.544 38.9096 286.015C37.816 292.328 36.7633 298.477 35.8564 303.994H34.5325C35.4365 298.489 36.495 292.331 37.5973 286.018C38.233 282.37 38.8892 278.65 39.5424 274.984C42.1989 260.048 44.8234 245.859 46.1415 239.011C46.5585 236.838 46.8443 235.406 46.9609 234.92C47.9116 230.923 50.1482 227.403 52.5015 224.032C52.7203 223.713 52.939 223.4 53.1635 223.087L53.633 222.421C54.1142 221.746 54.572 221.096 55.0211 220.451L55.2544 220.111L56.2662 218.631C56.3362 218.527 56.4091 218.427 56.4733 218.327C56.8466 217.786 57.2169 217.247 57.5843 216.71C61.7456 210.612 65.6503 204.691 68.8522 197.682C69.7037 195.816 70.6018 193.928 71.4767 192.11C72.579 189.785 73.7192 187.384 74.7602 185.043C74.8389 184.861 74.9148 184.685 74.9789 184.508C75.4416 183.361 75.711 182.14 75.775 180.897C75.8217 179.985 75.775 179.052 75.7429 178.043C75.708 177.226 75.6759 176.384 75.6788 175.432C75.6788 170.472 80.8403 156.426 85.3836 144.027L86.9466 139.757C88.95 134.246 90.7755 129.054 90.9884 127.465C89.0404 126.696 86.1389 125.337 82.7853 123.665C82.2167 123.386 81.6393 123.094 81.0357 122.793C78.2683 121.392 75.2676 119.817 72.2874 118.206C69.727 116.823 67.1725 115.413 64.7871 114.057C60.7512 111.765 57.1848 109.635 54.8374 108.057C54.5457 107.869 54.2804 107.683 54.0325 107.51C53.3435 107.034 52.796 106.366 52.452 105.583C50.8977 102.081 53.0352 96.1783 55.8667 90.5825C56.7416 88.8712 57.6601 87.1842 58.5612 85.6067C58.6808 85.403 58.7945 85.2024 58.9082 84.9988C59.2465 84.4152 60.4013 82.3452 62.1422 79.2236C72.7393 60.1563 105.009 1.71443 105.758 -0.00292969L106.945 0.562431C106.024 2.69013 74.1799 60.1928 63.4953 79.4759C61.9993 82.172 60.9174 84.1173 60.3896 85.0656C60.1738 85.4547 60.0543 85.6736 60.0339 85.707C59.4273 86.7526 58.8645 87.7577 58.3454 88.7223C57.9138 89.5125 57.5143 90.2785 57.1411 91.0141C56.7075 91.8672 56.311 92.6859 55.9513 93.4701C53.91 97.9139 53.009 101.248 53.251 103.519C53.3851 104.814 53.8925 105.759 54.7645 106.373C55.2339 106.701 55.7734 107.066 56.3741 107.455C58.9461 109.121 62.6292 111.297 66.7001 113.583C68.6685 114.692 70.7301 115.823 72.7977 116.942C75.5301 118.419 78.2712 119.863 80.8403 121.173C81.8755 121.696 82.8816 122.206 83.841 122.693C87.1974 124.355 90.0465 125.668 91.8749 126.361L92.2365 126.498L92.286 126.884Z" fill="#601A72"/>
<path d="M85.9707 96.2442C80.4034 95.1588 73.3528 93.7575 69.6968 94.3919C68.3269 91.5458 66.2259 83.8012 68.1372 77.0068L60.7187 81.505C59.9875 85.7428 61.0172 92.32 62.1881 96.9412C62.8822 99.7077 63.3589 101.389 66.138 101.796C72.3208 102.701 78.6332 99.6064 84.4782 98.7309C85.0845 97.426 85.1793 97.4574 85.9707 96.2442Z" fill="#D0D0D0"/>
<path d="M69.2669 77.1491C69.3178 77.2384 69.364 77.33 69.4126 77.4192L69.681 77.2577C69.887 77.3348 68.9499 76.9489 69.2669 77.1491Z" fill="#171717" fill-opacity="0.12"/>
<path d="M36.2662 147.668C35.5477 147.588 34.8748 147.263 34.3526 146.742C32.4876 145.054 32.395 141.867 32.3186 139.313C32.3024 138.693 32.2839 138.107 32.2446 137.577L32.2191 137.249C32.0433 134.851 31.8582 132.372 31.0622 130.165C30.8493 129.576 30.6156 128.993 30.3911 128.426C29.9326 127.336 29.5369 126.219 29.2064 125.081C27.8018 119.907 28.2531 115.283 30.5138 111.714C31.8605 109.586 33.9662 108.139 35.8474 107.003C36.7816 106.493 37.7582 106.073 38.7653 105.747C39.3414 105.542 39.8852 105.346 40.2786 105.158L40.5632 105.809C40.1397 106.012 39.5821 106.212 38.9897 106.424C38.0246 106.739 37.0884 107.142 36.1922 107.63C34.3804 108.725 32.3557 110.112 31.0876 112.117C28.3757 116.4 28.9264 121.429 29.8659 124.9C30.1889 126.011 30.5753 127.102 31.0228 128.165C31.2542 128.737 31.4856 129.328 31.7031 129.926C32.5362 132.229 32.7236 134.75 32.9041 137.208L32.9295 137.536C32.9712 138.083 32.9874 138.676 33.0059 139.306C33.0822 141.846 33.1656 144.723 34.8038 146.218C35.5558 146.901 36.3056 147.123 37.0321 146.879C38.2909 146.452 39.1934 144.747 39.4988 143.346C39.8898 141.551 39.9107 139.636 39.9292 137.784V137.239C39.9292 136.87 39.9292 136.491 39.9037 136.086C39.8551 134.685 39.8042 133.235 40.4799 132.039L41.0723 132.403C40.4984 133.419 40.5447 134.762 40.591 136.06C40.6048 136.455 40.6211 136.863 40.6141 137.246V137.794C40.5956 139.682 40.5748 141.636 40.1675 143.505C39.8065 145.152 38.763 147.043 37.2427 147.56C36.9271 147.661 36.5954 147.698 36.2662 147.668Z" fill="#601A72"/>
<path d="M26.6358 143.527C26.2932 143.501 25.9547 143.434 25.6269 143.326C24.7013 143.018 23.5444 142.222 23.1927 140.176C22.7808 137.699 23.2968 134.484 23.9493 132.543C24.2085 131.769 24.4584 130.951 24.699 130.162C25.2752 128.269 25.8722 126.303 26.7307 124.542C27.5861 122.874 28.5414 121.263 29.5907 119.719C30.0836 118.964 30.5926 118.182 31.06 117.41C32.314 115.312 33.9765 113.512 35.9401 112.126L36.5232 113.014C34.6741 114.323 33.1093 116.022 31.9301 118.001C31.4534 118.788 30.9397 119.576 30.4445 120.339C29.4164 121.839 28.4798 123.405 27.64 125.027C26.8186 126.716 26.2332 128.645 25.6686 130.488C25.4372 131.284 25.1757 132.109 24.9096 132.9C24.1645 135.119 23.8706 138.035 24.1969 139.996C24.4005 141.202 24.9836 141.988 25.93 142.306C27.6447 142.878 30.1877 141.824 31.4835 140.495C33.6061 138.252 35.2875 135.598 36.433 132.683C36.6413 132.154 36.8611 131.617 37.0925 131.05C37.9232 129.026 38.8626 126.732 39.1912 124.728L40.207 124.909C39.8576 127.039 38.8927 129.395 38.0412 131.472C37.8098 132.036 37.5784 132.569 37.3887 133.088C36.1986 136.14 34.4401 138.917 32.2147 141.257C30.9096 142.603 28.6211 143.683 26.6358 143.527Z" fill="#494F60"/>
<path d="M37.6212 144.118C37.4832 144.678 37.2359 145.203 36.8947 145.66C36.5535 146.116 36.1258 146.494 35.6382 146.771C35.3888 146.92 35.1261 147.042 34.8538 147.138C34.7566 147.176 34.6594 147.208 34.5576 147.239C34.2749 147.322 33.9873 147.385 33.6968 147.43C33.5256 147.451 33.352 147.471 33.1716 147.485C33.0582 147.485 32.9401 147.499 32.8268 147.502C32.7712 147.502 32.718 147.502 32.6625 147.502C32.555 147.494 32.4487 147.474 32.3455 147.442C32.0192 147.334 31.7361 147.117 31.5402 146.824C31.4505 146.707 31.373 146.58 31.3088 146.445C31.2718 146.366 31.2371 146.281 31.2024 146.204C31.2024 146.168 31.1769 146.13 31.163 146.093C31.1353 146.011 31.1098 145.929 31.0844 145.852C30.8345 144.974 30.7442 143.79 30.772 142.418C30.772 141.996 30.7974 141.554 30.8252 141.101C31.0144 138.532 31.3505 135.977 31.8318 133.45C31.9475 132.825 32.0632 132.206 32.1858 131.605C32.6949 129.032 33.234 126.757 33.5857 125.373C33.6621 125.074 33.7292 124.813 33.7871 124.603C33.8565 124.345 33.9097 124.157 33.9444 124.051C34.0531 123.678 34.1389 123.299 34.2012 122.915C34.277 122.421 34.3994 121.936 34.5668 121.468L35.2009 121.738C35.1592 121.849 35.1199 121.967 35.0852 122.085L35.5827 122.435C35.2911 122.884 35.1361 123.641 35.0805 124.606C35.0392 125.357 35.0392 126.11 35.0805 126.861C35.0944 127.102 35.1083 127.362 35.1291 127.621C35.2703 129.55 35.5734 131.769 35.9182 133.908C36.0108 134.507 36.1103 135.097 36.2098 135.674C36.4666 137.157 36.7258 138.554 36.9433 139.723C37.5333 142.755 37.7092 143.773 37.6212 144.118ZM36.2884 139.827C36.0871 138.747 35.8881 137.656 35.703 136.605C35.6058 136.049 35.5109 135.497 35.4184 134.95C34.8653 131.656 34.4488 128.588 34.3841 126.198V126.113C34.3841 125.734 34.3841 125.37 34.3841 125.03C34.3285 125.23 34.2684 125.457 34.2059 125.71C34.185 125.788 34.1665 125.872 34.1434 125.952C33.7037 127.707 33.079 130.474 32.5375 133.428C32.3917 134.248 32.2483 135.083 32.1187 135.91C31.8734 137.466 31.6744 139.012 31.5564 140.43C31.5148 140.946 31.4824 141.448 31.4639 141.928C31.4106 143.322 31.4639 144.523 31.6767 145.394C31.6982 145.494 31.7252 145.592 31.7577 145.688C31.7965 145.82 31.846 145.948 31.9058 146.072C31.9246 146.116 31.9463 146.16 31.9706 146.202C32.0067 146.268 32.0461 146.333 32.0886 146.395C32.1654 146.519 32.272 146.62 32.3978 146.688C32.5236 146.756 32.6643 146.789 32.8059 146.783C32.998 146.783 33.2109 146.766 33.4376 146.737C33.5927 146.718 33.7547 146.694 33.9166 146.658C34.0128 146.643 34.1079 146.621 34.2012 146.593C34.4596 146.528 34.7121 146.44 34.9556 146.33C35.4482 146.12 35.8864 145.793 36.2346 145.374C36.5828 144.955 36.8312 144.456 36.9595 143.918C36.9988 143.64 36.654 141.788 36.2884 139.827Z" fill="#171C2B"/>
<path d="M33.968 146.337C33.968 146.41 33.9495 146.48 33.9379 146.552C33.9334 146.588 33.9265 146.623 33.9171 146.658C33.8834 146.867 33.8291 147.071 33.7551 147.268C33.5862 147.268 33.4196 147.292 33.2553 147.309C33.3386 147.127 33.4 146.935 33.4381 146.738C33.5076 146.421 33.5456 146.098 33.5515 145.773C33.6753 145.973 33.8146 146.161 33.968 146.337ZM33.968 146.337C33.968 146.41 33.9495 146.48 33.9379 146.552C33.9334 146.588 33.9265 146.623 33.9171 146.658C33.8834 146.867 33.8291 147.071 33.7551 147.268C33.7379 147.322 33.7178 147.376 33.6949 147.427C33.5791 147.736 33.3813 148.003 33.1246 148.198C32.868 148.393 32.5633 148.507 32.2464 148.527C31.9969 148.547 31.7463 148.547 31.4967 148.527C31.1831 148.506 30.8727 148.448 30.5711 148.356C30.3449 148.297 30.1385 148.174 29.9741 148.002C29.5785 147.519 30.1662 146.82 30.5758 146.484C30.7448 146.352 30.9226 146.232 31.108 146.125L31.1797 146.079C31.3791 145.966 31.5708 145.839 31.7536 145.698C31.8336 145.636 31.9065 145.565 31.9711 145.486C32.112 145.259 32.197 145 32.2187 144.731C32.2798 144.217 32.2968 143.698 32.2696 143.18C32.2433 143.069 32.2488 142.953 32.2854 142.845C32.3221 142.738 32.3881 142.644 32.4755 142.575C32.4913 142.56 32.5093 142.549 32.5287 142.541C32.6322 142.483 32.7458 142.448 32.8627 142.437C32.9796 142.426 33.0974 142.44 33.209 142.478C33.2454 142.486 33.281 142.497 33.3155 142.512C33.3988 142.541 33.644 142.63 33.8754 144C33.938 144.387 33.979 144.778 33.9981 145.17C34.0206 145.559 34.0106 145.95 33.968 146.337ZM33.5515 145.761C33.5908 144.442 33.2576 143.043 33.0887 142.792C33.0507 142.778 33.011 142.77 32.9707 142.768C32.9438 142.763 32.9163 142.763 32.8897 142.77C32.8631 142.776 32.8379 142.787 32.8156 142.804C32.7716 142.847 32.7397 142.902 32.7234 142.963C32.7071 143.024 32.707 143.088 32.7231 143.149V143.166C32.7231 143.226 32.7393 143.426 32.7393 143.694C32.7431 144.057 32.7199 144.42 32.6699 144.779C32.6412 145.096 32.5361 145.401 32.3644 145.664C32.2285 145.821 32.0728 145.959 31.9016 146.072C31.7952 146.147 31.6818 146.217 31.5684 146.287C31.5407 146.304 31.5083 146.32 31.4805 146.34L31.3139 146.441C31.1739 146.526 31.0387 146.62 30.909 146.721C30.5434 147.017 30.1269 147.56 30.349 147.833C30.4443 147.929 30.5626 147.996 30.6915 148.028C30.9596 148.116 31.237 148.168 31.5175 148.185C31.6494 148.197 31.779 148.202 31.9016 148.202C32.0243 148.202 32.0821 148.202 32.1608 148.202C32.3648 148.183 32.5613 148.113 32.7328 147.996C32.9044 147.88 33.0457 147.721 33.1442 147.534C33.153 147.521 33.16 147.507 33.1651 147.493C33.199 147.438 33.2277 147.38 33.2507 147.319C33.3339 147.137 33.3954 146.945 33.4335 146.747C33.506 146.424 33.5455 146.093 33.5515 145.761Z" fill="#7B88A8"/>
<path d="M32.5002 144.719C31.924 144.586 31.9657 145.172 31.644 145.416L31.1951 145.806C30.6074 145.891 31.2391 146.289 31.5816 146.289C32.0444 146.289 32.5071 145.874 32.7061 145.587C32.9051 145.3 33.0671 144.851 32.5002 144.719Z" fill="#7B88A8"/>
<path d="M38.6972 152.975C38.438 153.172 37.3666 153.192 36.1356 153.122C34.7174 153.054 33.3046 152.893 31.9057 152.639C30.8853 152.398 30.529 152.574 30.2721 151.535C30.1124 150.893 30.367 149.388 30.5035 148.614C30.559 148.324 30.6007 148.132 30.6007 148.132C31.237 147.152 37.0242 146.834 37.7947 147.912C38.4565 148.819 39.6736 152.227 38.6972 152.975Z" fill="#2D2D2D"/>
<path d="M38.9175 150.161C38.3969 148.764 37.027 146.907 35.1712 147.336L32.4477 149.748C32.2163 150.414 31.4666 150.86 31.1774 151.502C30.983 151.933 31.02 152.467 31.0085 152.949C30.9876 153.914 30.946 154.782 31.9664 155.407C33.5746 156.396 36.6151 156.077 38.103 155.103C39.968 153.89 39.57 151.912 38.9175 150.161Z" fill="#2D2D2D"/>
<path d="M36.55 151.899C36.4491 152.318 36.3104 152.727 36.1358 153.119C34.7176 153.051 33.3048 152.89 31.906 152.637C30.8855 152.395 30.5292 152.572 30.2723 151.532C30.1127 150.89 30.3672 149.385 30.5037 148.611C30.5231 148.734 30.5355 148.858 30.5407 148.983C30.5239 149.376 30.6036 149.768 30.7721 150.121C31.1933 150.883 32.2299 150.82 32.9935 150.878C33.7571 150.936 34.9141 151.013 35.5643 150.589C36.115 150.227 36.2261 149.243 36.2099 148.606C36.2099 148.493 36.2099 148.322 36.1937 148.16C36.3525 148.496 36.4938 148.841 36.6171 149.192C36.8138 149.959 36.7305 151.115 36.55 151.899Z" fill="#3D3D3D"/>
<path d="M39.8861 145.52C39.8722 145.44 39.8398 145.1 39.8259 145.037C39.7264 145.163 39.62 145.561 39.458 145.732C39.6431 146.82 39.6894 148.156 39.1572 149.063C39.0582 149.25 38.9164 149.408 38.7444 149.524C38.5724 149.641 38.3757 149.711 38.1715 149.729C37.9581 149.745 37.7439 149.745 37.5305 149.729C36.9497 149.683 36.5008 149.548 36.3736 149.374C36.1422 149.101 36.5679 148.559 36.9335 148.262C37.1151 148.121 37.3061 147.994 37.5051 147.881C37.8325 147.707 38.1309 147.479 38.389 147.206C38.8518 146.646 38.7592 144.905 38.7477 144.707V144.69C38.7316 144.629 38.7317 144.565 38.748 144.504C38.7643 144.443 38.7962 144.388 38.8402 144.345C38.8789 144.311 38.9282 144.292 38.979 144.292H39.0392C39.0495 144.179 39.0792 144.069 39.1271 143.967C39.0185 143.939 38.9057 143.935 38.7955 143.954C38.6853 143.974 38.58 144.017 38.4862 144.08C38.3991 144.15 38.3334 144.245 38.2968 144.353C38.2603 144.462 38.2545 144.578 38.2802 144.69C38.3103 145.201 38.3126 146.593 37.9841 146.993C37.752 147.234 37.4849 147.435 37.1927 147.589C36.9791 147.712 36.7735 147.85 36.5772 148.002C36.1653 148.334 35.5776 149.027 35.9732 149.514C36.281 149.893 37.0654 149.996 37.5051 150.042C37.7539 150.061 38.0037 150.061 38.2525 150.042C39.178 149.955 39.7496 149.292 39.9463 148.067C40.0558 147.22 40.0355 146.36 39.8861 145.52Z" fill="#7B88A8"/>
<path d="M38.5173 146.248C37.9434 146.115 37.9828 146.701 37.6634 146.945L37.2145 147.333C36.6268 147.42 37.2585 147.816 37.601 147.816C38.0637 147.816 38.5265 147.403 38.7232 147.114C38.9199 146.824 39.0773 146.383 38.5173 146.248Z" fill="#7B88A8"/>
<path d="M72.573 66.8502C72.1935 67.1469 71.7377 67.5256 71.4161 67.7716C71.4161 67.8174 71.4415 67.8656 71.4554 67.9211C71.5351 68.3009 71.5946 68.685 71.6336 69.0716C71.6336 69.0716 69.669 69.5419 69.6991 69.6408C69.7616 69.841 71.3929 69.6408 71.6405 69.7156C71.8117 69.7638 71.4785 70.3089 71.8279 70.8323C71.9406 71.001 72.0302 71.1853 72.094 71.3798C72.8599 73.6518 69.632 73.7917 69.0373 73.8303C67.9081 73.9147 66.8183 73.975 66.5545 74.25C66.2236 74.5925 66.3856 75.632 66.6424 76.6619C66.7882 77.2407 67.0288 77.8148 67.1052 78.4057C67.052 78.4057 58.981 78.1645 58.0808 75.3112C57.9004 74.7299 58.8468 74.0908 59.1129 73.8858C59.3165 73.7266 60.2698 72.921 60.3254 72.6798C60.3248 72.6734 60.3248 72.6669 60.3254 72.6605C60.3421 72.5365 60.3421 72.4107 60.3254 72.2867C60.3254 72.2465 60.3207 72.2031 60.3115 72.1564C60.2389 71.7975 60.1262 71.4486 59.976 71.1169C59.8093 70.6876 56.9378 68.3649 55.5587 65.9868C55.3671 65.6634 55.2036 65.3227 55.0704 64.9689C54.867 64.4703 54.792 63.9249 54.8529 63.3867C54.8874 63.1683 54.9353 62.9524 54.9964 62.7403C55.2589 61.9058 55.5951 61.0983 56.0006 60.3284C56.0168 60.2947 56.0353 60.2609 56.0561 60.2223C56.348 59.6343 56.6937 59.077 57.0882 58.5581C57.3468 58.2227 57.6367 57.9149 57.9536 57.6392C58.3307 57.316 58.7334 57.0097 59.1499 56.7202C59.8298 56.2517 60.5335 55.8217 61.2579 55.4323C62.0932 54.9788 62.9933 54.248 63.9328 54.0382C63.9655 54.0318 63.9974 54.0213 64.0277 54.0068C64.0175 54.0175 64.0102 54.0308 64.0068 54.0454L66.3717 55.4009C66.492 55.7482 67.1584 56.7058 67.8966 57.7284C68.2298 58.1891 68.5745 58.6618 68.8939 59.0984C69.2132 59.5349 69.5371 59.9859 69.7593 60.3043C69.9078 60.493 70.0316 60.7014 70.1272 60.9242C70.1544 61.2487 70.2023 61.571 70.2707 61.8889C70.3979 62.5498 72.2444 65.5767 72.816 66.5777C72.8243 66.5959 72.8335 66.6136 72.8438 66.6308L72.573 66.8502Z" fill="#BCBCBC"/>
<path d="M67.9355 57.7259C67.9147 57.7573 67.8799 57.7838 67.8684 57.8224C67.5398 59.0862 61.7619 61.884 61.9192 63.0273C62.6759 68.5337 62.271 67.7426 61.4287 68.2563C60.9659 67.6871 60.8571 69.496 60.9659 70.0797C61.0537 70.4707 61.0457 70.8785 60.9426 71.2654C60.8395 71.6524 60.6446 72.006 60.3758 72.2938C60.3758 72.2536 60.3712 72.2102 60.362 72.1636C60.2893 71.8046 60.1767 71.4558 60.0264 71.124C59.8598 70.6947 56.9882 68.3721 55.6091 65.9939C55.4101 65.6538 53.0638 62.405 55.7295 59.2816C57.9832 56.6478 61.1834 53.2808 66.1422 51.6817C66.1769 51.6744 69.3562 53.2446 67.9355 57.7259Z" fill="#323232"/>
<path d="M60.4871 66.4718C59.7744 66.4163 58.8094 67.5113 59.0038 68.2662C59.1982 69.0211 60.0243 69.2792 60.6745 69.53C61.3247 69.7809 61.9472 70.1837 62.646 70.0124C63.4813 69.7954 63.4535 69.4939 62.9907 68.7751C62.5673 68.107 61.3802 66.5417 60.4871 66.4718Z" fill="#BCBCBC"/>
<path d="M60.8927 67.0364C61.1542 67.1497 62.0242 67.7479 61.9641 68.0204C61.9502 68.0879 61.8692 68.1386 61.8553 68.2351C61.8455 68.377 61.8761 68.5188 61.9432 68.6427C62.1121 68.9779 62.9336 69.0696 62.9336 69.0696C62.7531 69.0696 62.2579 69.552 61.6031 69.154C61.4942 69.087 61.4055 68.9895 61.3471 68.8725C61.2887 68.7556 61.263 68.6239 61.2729 68.4924C61.2828 68.361 61.3279 68.2351 61.403 68.129C61.4781 68.023 61.5803 67.9411 61.6979 67.8926C61.4021 67.6147 61.0453 67.4168 60.659 67.3161C60.4544 67.2329 60.2272 67.2329 60.0227 67.3161C59.8861 67.3861 59.6385 67.5573 59.6686 67.731C59.3933 66.9447 60.3767 66.8145 60.8927 67.0364Z" fill="#171717" fill-opacity="0.12"/>
<path d="M105.189 70.8085C102.876 71.1509 100.425 72.0313 97.9353 73.1046C93.5804 74.9835 89.1423 77.4629 85.2757 78.7195C81.7099 79.8845 79.116 80.2511 75.4785 80.7672C74.4349 80.9168 70.3878 80.362 69.4414 80.9891L69.416 81.0084C68.3423 81.7778 67.5278 86.1819 67.1391 87.3951C67.0951 87.5302 67.0535 87.6629 67.0095 87.7955C65.7091 91.8355 64.8228 94.2039 63.5779 97.0186C62.8583 98.6491 62.016 100.427 60.9053 102.766C60.2343 104.18 59.517 106.674 59.0056 108.104C56.0345 105.465 49.9465 104.857 46.1841 104.778C41.9357 104.691 41.1281 106.049 37.2014 107.125C37.3147 106.883 51.8833 75.7167 58.0893 73.8402C61.5324 72.7983 62.7449 71.655 66.3153 71.8938C69.8857 72.1326 72.5629 74.6024 76.0038 73.5315C79.3196 72.4992 83.1585 69.7496 86.6479 69.3734C91.838 68.8138 99.1061 69.2769 104.352 68.2422L105.189 70.8085Z" fill="#D0D0D0"/>
<path d="M110.406 66.6285C109.346 66.192 107.86 66.5127 106.782 66.8118C105.588 67.1398 104.651 68.3337 103.496 68.587L103.346 70.6709C104.04 70.3718 104.357 70.9916 105.197 70.8108C105.831 70.6733 107.328 70.2295 107.888 69.8798C108.411 69.5493 108.851 69.0814 109.36 68.7486C109.927 68.3796 109.885 68.3795 110.433 68.6545C110.584 68.7293 109.469 70.2608 110.223 70.1016C110.885 69.9521 111.678 69.3419 111.611 68.8161C111.47 67.9165 110.507 66.9565 110.406 66.6285Z" fill="#D0D0D0"/>
<path d="M97.9355 73.1045C93.5807 74.9834 89.1426 77.4628 85.276 78.7194C81.7102 79.8844 79.1163 80.251 75.4788 80.7671C74.4352 80.9167 70.3881 80.3619 69.4417 80.989L69.4163 81.0083C68.3426 81.7777 67.5281 86.1818 67.1394 87.395C67.0954 87.5301 67.0538 87.6628 67.0098 87.7954C65.7094 91.8354 64.8231 94.2038 63.5782 97.0185C62.884 97.3128 62.1135 98.3161 61.1925 97.9833C61.4101 96.3143 66.6372 82.5953 67.7526 80.3402C68.9813 77.8535 71.8436 77.9645 74.4213 78.1695C76.7075 78.3528 78.7322 78.155 80.9605 77.9283C80.3427 77.4628 79.8429 76.5463 79.4009 75.8709C79.4009 75.8709 83.8946 75.8565 85.4472 74.9231C84.605 75.8758 83.2282 75.8348 82.4252 76.6524C84.7392 79.2283 91.1488 75.4199 93.6201 74.4359C95.0249 73.8812 96.4674 73.4361 97.9355 73.1045Z" fill="#171717" fill-opacity="0.12"/>
<path d="M75.8984 189.508C75.8568 189.585 75.8128 189.657 75.7642 189.73C74.6373 191.502 71.8976 191.99 70.6134 191.505C66.8047 190.058 62.827 187.226 62.4012 186.782C62.5625 186.466 62.7624 186.172 62.9959 185.909C64.0233 184.703 65.8212 183.55 67.0384 183.439L68.8016 184.452C69.2343 185.273 69.9377 186.317 71.5205 188.312C72.5779 189.665 75.3871 189.037 75.8984 189.508Z" fill="#313A44"/>
<path d="M75.7715 189.73C74.6446 191.503 71.9049 191.99 70.6207 191.505C66.8119 190.058 62.8343 187.226 62.4085 186.782C62.5695 186.464 62.7569 186.162 62.9685 185.878L63.0055 185.909C64.3846 186.983 70.8058 193.082 75.7715 189.73Z" fill="#929292"/>
<path d="M68.6655 184.534C68.6655 184.534 68.1819 185.772 67.1175 185.687C65.5949 185.569 65.662 183.579 65.662 183.579C64.1232 175.116 60.4348 165.155 60.9439 162.596C61.2678 160.953 62.3855 158.57 62.4109 157.024C62.4364 155.377 60.3284 153.346 59.3681 152.159C56.7024 148.87 53.3148 145.944 50.2419 142.799C49.4274 141.964 48.6337 141.11 47.8817 140.233C45.7783 137.777 44.0036 135.114 42.9762 131.998L53.3889 124.553C54.5898 125.071 56.4525 128.064 57.5031 129.459C57.7345 129.762 58.4078 130.906 59.3334 132.517C59.8633 133.441 60.4742 134.521 61.1244 135.689C64.4495 141.658 68.8691 149.96 69.2694 151.728C69.7415 153.761 69.2417 172.19 68.6655 184.534Z" fill="#D0D0D0"/>
<path d="M69.4959 129.917L67.4411 130.556C66.4276 131.798 65.9672 134.847 66.5156 136.366C67.3879 136.337 78.7794 133.301 80.2441 130.759C78.4439 130.918 71.0601 130.303 69.4959 129.917Z" fill="#313A44"/>
<path d="M80.252 130.758C78.778 133.3 67.3934 136.332 66.5141 136.365C66.3958 136.027 66.3075 135.679 66.2503 135.324C68.1339 134.967 76.0013 132.859 79.0904 130.784C79.5786 130.784 79.9789 130.784 80.252 130.758Z" fill="#929292"/>
<path d="M81.9283 100.636C81.6969 101.3 77.7817 110.868 74.7042 119.097C72.7049 124.43 71.0597 129.201 70.9833 130.616C70.9371 131.475 70.2035 132.958 69.1438 132.992C68.9296 133 68.7163 132.961 68.5177 132.877C68.3191 132.793 68.1399 132.667 67.9917 132.505C67.8435 132.344 67.7297 132.152 67.6579 131.941C67.5861 131.731 67.5578 131.507 67.5749 131.285C67.8063 128.467 68.5005 117.235 68.5236 115.332C68.5884 107.021 71.9714 104.947 72.0501 104.688C69.5626 105.306 63.9929 112.165 58.3978 116.401C57.4547 117.131 56.4626 117.789 55.4291 118.371L55.3226 118.434C55.2115 118.492 55.0912 118.552 54.9871 118.608C52.7333 119.746 50.0237 120.296 47.8139 121.338L47.7051 106.929C48.7508 105.823 49.9101 104.84 51.1622 103.999H51.1321C51.3493 103.721 51.6042 103.477 51.8887 103.275C52.7194 102.643 53.8787 102.069 54.6261 101.625C54.6701 101.596 54.7157 101.569 54.7626 101.546C55.3319 101.237 56.9007 100.501 58.9833 99.5825C61.5425 98.3765 64.0462 97.3418 66.0176 96.6279C71.3119 94.5175 76.789 92.6169 78.455 92.9208C80.2136 93.244 81.6413 95.9357 82.0555 97.472C82.3476 98.5128 82.3029 99.6248 81.9283 100.636Z" fill="#BCBCBC"/>
<path d="M69.1407 132.992C68.9268 132.999 68.7138 132.96 68.5156 132.875C68.3173 132.791 68.1384 132.665 67.9903 132.503C67.8423 132.342 67.7285 132.15 67.6564 131.94C67.5843 131.73 67.5555 131.507 67.5719 131.284C67.8033 128.467 68.4974 117.237 68.5229 115.332C68.5877 107.02 71.9707 104.961 72.0493 104.688C69.1176 105.412 61.912 114.787 55.4353 118.371L55.5718 118.144C62.7172 112.696 68.3656 102.252 74.7266 102.392C72.1535 105.257 70.9363 110.407 71.5079 114.227C71.8365 116.432 73.1114 117.782 74.7034 119.097C72.7065 124.43 71.0567 129.2 70.9826 130.616C70.9386 131.475 70.2028 132.956 69.1407 132.992Z" fill="#171717" fill-opacity="0.12"/>
<path d="M60.2965 133.971C59.8638 134.682 58.3898 135.98 57.7836 136.583C55.31 139.033 51.9548 141.055 48.7824 142.265C45.4573 138.686 42.2177 135.227 38.6196 131.916C36.7545 130.199 34.7715 127.524 33.876 124.832C33.5069 123.801 33.3447 122.702 33.3993 121.603L52.0728 116.33C52.4963 117.372 59.7967 130.652 60.3081 133.503C60.3541 133.656 60.35 133.82 60.2965 133.971Z" fill="#601A72"/>
<path opacity="0.34" d="M60.2967 133.972C59.864 134.683 58.39 135.981 57.7838 136.584C55.3102 139.034 51.9549 141.055 48.7825 142.266C45.4574 138.687 42.2179 135.228 38.6197 131.917C36.7547 130.199 34.7717 127.525 33.8762 124.833L40.1238 123.504C39.4296 124.09 42.2225 128.552 42.7709 129.396C44.3236 131.789 46.1169 134.136 48.2041 136.039C48.8172 136.601 49.7706 137.705 50.6013 137.819C51.1428 137.891 52.2211 137.406 52.7926 137.273C53.7145 137.052 54.6112 136.728 55.4675 136.309C57.1575 135.537 58.7744 134.602 60.2967 133.516C60.3438 133.664 60.3438 133.824 60.2967 133.972Z" fill="black"/>
<path d="M58.9707 114.537C58.2685 115.445 57.5045 116.3 56.6845 117.093L56.5989 117.175L56.3328 117.417C55.4674 111.628 53.4635 105.273 50.2819 103.121C50.9043 102.325 51.8415 101.527 52.4246 100.926L52.5333 100.82C56.2518 103.826 58.1053 110.188 58.9707 114.537Z" fill="#3B2541"/>
<path d="M53.3675 116.359C52.2637 116.955 51.1738 117.763 50.0886 118.431C49.6605 118.692 46.4696 120.976 46.2452 120.744L37.5124 128.197C39.7314 128.547 42.2444 129.495 44.7226 129.304C47.2008 129.114 49.9336 128.113 51.6644 126.219C53.7215 123.964 53.5572 119.273 53.3675 116.359Z" fill="#3B2541"/>
<path d="M57.8083 141.826C56.9567 141.759 56.3042 140.432 55.5637 138.932C55.4642 138.732 55.3717 138.541 55.3323 138.464C54.1371 136.354 53.3296 134.03 52.9513 131.612C52.6025 129.26 52.0905 126.938 51.4195 124.663C50.8873 122.898 50.2139 121.829 48.8441 120.59L49.8946 119.328C51.3599 120.575 52.4254 122.258 52.949 124.152C53.6438 126.502 54.1735 128.902 54.534 131.332C54.8802 133.546 55.6194 135.672 56.7138 137.603C56.7832 137.726 56.8711 137.907 56.9961 138.158C57.2275 138.611 57.8939 139.989 58.1877 140.23C58.1106 140.182 58.0239 140.153 57.9344 140.146C57.8448 140.139 57.7549 140.153 57.6717 140.189L58.2363 141.754C58.1005 141.811 57.9543 141.836 57.8083 141.826Z" fill="#3B2541"/>
<path d="M63.0273 137.883C60.5561 141.318 55.8148 143.628 52.1356 144.993C51.3188 144.159 50.5159 143.305 49.7731 142.427C54.843 140.739 59.8735 138.04 61.2364 134.709C61.7663 135.633 62.3748 136.713 63.0273 137.883Z" fill="#3B2541"/>
<path d="M51.0559 124.868C51.0559 124.868 51.0559 124.868 51.0559 124.856L49.929 123.843C50.2399 123.535 50.5875 123.269 50.9633 123.052C53.0921 121.629 57.521 118.667 56.7088 113.028L58.1805 112.787C58.5924 115.648 57.8912 118.265 56.0979 120.566C54.654 122.418 52.8584 123.626 51.7662 124.347C51.5212 124.508 51.2841 124.682 51.0559 124.868Z" fill="#3B2541"/>
<path d="M54.7148 120.436C54.3423 120.82 53.5417 121.546 52.5189 122.412C49.7422 124.773 45.2925 128.2 43.3742 128.683C38.1239 130.019 33.3364 126.767 31.4991 121.664C30.872 119.925 31.196 117.335 31.587 115.538C32.7116 110.383 36.6222 108.336 36.8189 107.974C36.8189 107.974 49.5779 101.578 50.4549 102.61C53.0951 105.716 54.3909 118.321 54.7148 120.436Z" fill="#591B76"/>
<path opacity="0.3" d="M54.7148 120.436C54.3423 120.819 53.5417 121.545 52.5189 122.411C52.5999 121.302 49.7676 106.251 48.3052 105.61C46.977 105.031 36.5273 108.263 36.8189 107.973C39.4753 105.371 49.5779 101.577 50.4549 102.609C53.0951 105.716 54.3909 118.321 54.7148 120.436Z" fill="black"/>
<path d="M37.0267 115.624C36.8032 115.741 36.571 115.839 36.3325 115.918C35.9114 116.063 35.1432 116.268 34.7128 116.043C34.6116 115.986 34.5288 115.899 34.4746 115.793C34.4203 115.687 34.3969 115.567 34.4073 115.448C34.4115 115.283 34.4404 115.12 34.4929 114.965C34.5297 114.836 34.577 114.71 34.6341 114.589C34.6595 114.529 34.6896 114.476 34.7151 114.423C34.8245 114.235 34.9443 114.053 35.0737 113.88L35.1339 113.798C35.3473 113.54 35.5206 113.248 35.6476 112.934C35.6904 112.746 35.6904 112.551 35.6476 112.363C35.6476 112.288 35.6198 112.213 35.6013 112.136C35.4697 111.638 35.2954 111.154 35.0807 110.689C35.0167 110.595 34.9797 110.484 34.9739 110.369C34.9682 110.255 34.994 110.14 35.0483 110.04C35.1285 109.913 35.2438 109.813 35.3792 109.755C35.505 109.697 35.6398 109.663 35.7772 109.654H35.805C35.8592 109.65 35.9135 109.663 35.96 109.693C36.1062 109.782 36.2337 109.901 36.3348 110.043C36.5307 110.283 36.7086 110.538 36.867 110.807C37.3161 111.528 37.652 112.318 37.862 113.149C38.1351 114.333 37.8528 115.175 37.0267 115.624ZM35.8397 110.112C35.7996 110.065 35.7546 110.022 35.7054 109.985L35.6291 109.999C35.6139 110.002 35.599 110.007 35.5851 110.014C35.5325 110.026 35.4868 110.06 35.4579 110.108C35.4333 110.165 35.4243 110.228 35.4316 110.291C35.4389 110.353 35.4624 110.413 35.4995 110.462V110.479C35.7261 110.965 35.9074 111.472 36.041 111.994C36.0743 112.129 36.0983 112.267 36.1127 112.406C36.1392 112.581 36.1289 112.759 36.0826 112.93C35.9943 113.18 35.8703 113.415 35.7147 113.627C35.6684 113.692 35.6245 113.757 35.5736 113.822C35.555 113.848 35.5365 113.88 35.5157 113.906C35.374 114.091 35.2434 114.284 35.1247 114.485C34.8933 114.905 34.7105 115.573 35.0159 115.737C35.2103 115.841 35.673 115.785 36.2261 115.597C36.4302 115.534 36.6291 115.453 36.8208 115.356C37.003 115.258 37.159 115.114 37.2749 114.938C37.3908 114.761 37.463 114.558 37.4849 114.345C37.7116 112.869 36.3695 110.694 35.8397 110.112Z" fill="#7B88A8"/>
<path d="M35.87 112.003C35.2892 112.109 35.5414 112.633 35.3355 112.987L35.0624 113.525C34.551 113.839 35.2799 113.954 35.5969 113.817C36.0273 113.634 36.2911 113.072 36.3791 112.722C36.467 112.372 36.4346 111.902 35.87 112.003Z" fill="#7B88A8"/>
<path d="M34.571 114.416C34.571 114.493 34.5548 114.575 34.5433 114.671C34.5317 114.768 34.5201 114.85 34.5062 114.946C34.4854 115.098 34.4553 115.267 34.4206 115.429C34.3235 115.926 34.1745 116.412 33.9763 116.876C33.4765 118.004 32.7569 118.487 31.8383 118.323L31.7318 118.301C31.5508 118.259 31.3723 118.206 31.1973 118.142L31.1186 118.115C31.0029 118.072 30.8664 118.017 30.7229 117.949C30.3435 117.768 29.9223 117.508 29.7765 117.182C29.5197 116.606 30.2625 116.099 30.7415 115.892C30.9391 115.811 31.1416 115.744 31.3477 115.691L31.4426 115.662L31.5698 115.629C31.8469 115.566 32.1125 115.458 32.3566 115.308C32.5494 115.127 32.6964 114.899 32.7846 114.645C32.9764 114.167 33.1252 113.672 33.2289 113.166C33.2327 113.052 33.2678 112.942 33.3302 112.848C33.3926 112.754 33.4795 112.681 33.5806 112.638C33.722 112.596 33.8709 112.59 34.015 112.62C34.159 112.651 34.2941 112.716 34.409 112.812C34.4484 112.841 34.534 112.901 34.5803 113.193C34.6246 113.599 34.6215 114.01 34.571 114.416ZM33.9902 115.238C34.0948 114.692 34.1513 114.138 34.1591 113.581C34.1679 113.4 34.1531 113.218 34.1152 113.041C34.0801 113.018 34.0429 113 34.0041 112.985C33.9537 112.964 33.8972 112.964 33.8468 112.985C33.7937 113.015 33.7494 113.059 33.7188 113.113C33.6882 113.167 33.6724 113.229 33.6732 113.292V113.311C33.5998 113.661 33.5087 114.006 33.4002 114.346C33.3423 114.517 33.2775 114.69 33.2081 114.855C33.1011 115.151 32.9235 115.414 32.6921 115.619C32.5053 115.744 32.3018 115.839 32.0882 115.901C31.9817 115.937 31.8706 115.969 31.7619 116L31.6647 116.027L31.4865 116.075C31.3295 116.119 31.175 116.172 31.0237 116.234C30.5934 116.42 30.0565 116.83 30.2 117.153C30.2717 117.317 30.5332 117.508 30.9104 117.679C31.015 117.73 31.1224 117.775 31.232 117.814C31.4328 117.892 31.6394 117.952 31.8498 117.995C31.876 117.997 31.9023 117.997 31.9285 117.995C32.1184 118.019 32.3111 117.997 32.4914 117.931C32.6717 117.864 32.8347 117.755 32.9675 117.611C33.5043 117.09 33.819 116.14 33.9902 115.238Z" fill="#601A72"/>
<path d="M33.055 114.738C32.5344 114.451 32.4256 115.025 32.0554 115.175L31.5232 115.416C30.9331 115.337 31.4422 115.899 31.7731 115.99C32.2197 116.12 32.7611 115.845 33.0342 115.624C33.3072 115.402 33.5664 115.023 33.055 114.738Z" fill="#601A72"/>
<path d="M40.258 105.942C40.2603 105.978 40.2603 106.013 40.258 106.048C40.2508 106.114 40.236 106.178 40.214 106.239C40.1966 106.28 40.1749 106.319 40.1493 106.355C40.0948 106.429 40.0248 106.489 39.9446 106.531C39.8644 106.573 39.7761 106.595 39.6865 106.596C39.6613 106.602 39.6358 106.607 39.6101 106.61C39.1477 106.704 38.694 106.84 38.2541 107.016C38.008 107.099 37.786 107.246 37.6086 107.443C37.5678 107.503 37.5314 107.567 37.4998 107.633C37.4612 107.711 37.428 107.792 37.4003 107.874C37.3396 108.041 37.2871 108.211 37.2429 108.383C37.2429 108.417 37.2244 108.448 37.2152 108.482C37.1561 108.694 37.0858 108.903 37.0046 109.107C36.8602 109.465 36.629 109.779 36.3336 110.016C36.2624 110.071 36.1802 110.108 36.0932 110.125C36.0062 110.141 35.9167 110.137 35.8315 110.113C35.7985 110.103 35.7667 110.091 35.7366 110.074C35.6962 110.052 35.6575 110.027 35.6209 109.999C35.5315 109.923 35.4535 109.834 35.3895 109.734C35.301 109.617 35.2236 109.492 35.1581 109.36C35.0501 109.132 34.9588 108.896 34.885 108.653C34.8665 108.595 34.8503 108.54 34.8364 108.484C34.7789 108.293 34.7341 108.097 34.7023 107.898C34.7023 107.841 34.7022 107.787 34.6837 107.732C34.6236 106.852 35.1118 106.171 36.1438 105.711C36.7733 105.446 37.4354 105.276 38.1107 105.204C38.275 105.185 38.4231 105.173 38.5411 105.163C39.5083 105.098 39.8461 105.199 39.9803 105.289C40.014 105.312 40.0425 105.342 40.0636 105.378C40.1363 105.492 40.1903 105.617 40.2233 105.749C40.2408 105.812 40.2524 105.877 40.258 105.942ZM37.0046 107.872C37.0046 107.838 37.0254 107.8 37.0393 107.763C37.1087 107.521 37.2124 107.291 37.3471 107.081L37.3887 107.028C37.5871 106.826 37.8235 106.67 38.0829 106.569C38.5244 106.39 38.9806 106.252 39.4458 106.157L39.5777 106.13H39.5962C39.6566 106.132 39.7162 106.116 39.7687 106.085C39.8212 106.054 39.8648 106.009 39.8947 105.954C39.8955 105.939 39.8955 105.924 39.8947 105.909C39.9 105.868 39.8953 105.826 39.8808 105.788C39.8672 105.749 39.851 105.711 39.8322 105.675C39.5988 105.618 39.3589 105.596 39.1195 105.609C38.6926 105.615 38.2665 105.652 37.8446 105.72C36.9375 105.865 35.9541 106.169 35.4057 106.741C35.2001 106.942 35.0635 107.208 35.0169 107.498C34.9973 107.629 34.9973 107.763 35.0169 107.894C35.0367 108.028 35.0646 108.161 35.1002 108.292C35.1218 108.374 35.145 108.454 35.1697 108.533C35.2333 108.732 35.3106 108.926 35.401 109.114C35.4242 109.167 35.4496 109.215 35.4728 109.261C35.542 109.401 35.64 109.523 35.7597 109.618L35.7829 109.633C35.8324 109.658 35.8884 109.665 35.9425 109.654C36.2225 109.606 36.5256 109.172 36.6853 108.8C36.7718 108.582 36.8452 108.358 36.9051 108.13C36.9051 108.099 36.9213 108.062 36.9329 108.031C36.9444 108 36.9329 107.983 36.9537 107.959C36.9745 107.935 36.9953 107.913 37.0046 107.872Z" fill="#FFDC4A"/>
<path d="M38.1975 106.728C38.4567 107.278 37.9036 107.377 37.7509 107.761L37.4941 108.306C37.5565 108.921 37.0313 108.378 36.9526 108.031C36.8415 107.56 37.1192 107.003 37.3413 106.726C37.5635 106.448 37.9383 106.183 38.1975 106.728Z" fill="#FFDC4A"/>
<path d="M88.0231 94.776C86.7134 95.1161 85.4616 95.7842 84.256 96.4113L80.2298 98.582C82.7311 98.3143 85.1052 99.7132 87.5973 99.788C90.3579 99.8772 91.7902 98.9197 93.2109 96.7007C91.3274 95.8735 90.0964 94.2358 88.0231 94.776Z" fill="#D0D0D0"/>
<path d="M204.638 251.105C202.013 259.738 205.332 302.535 204.448 303.866L56.0358 303.982C55.9425 301.854 55.8434 299.726 55.7238 297.599C55.4322 292.538 54.8956 287.665 54.5165 282.732L66.6971 251.953L61.5531 230.652L72.3427 209.886L77.233 194.907H76.9677C76.676 191.73 75.5883 187.782 75.1334 186.28C73.8066 181.876 80.2425 171.675 80.2425 171.675C80.2425 171.675 78.7844 159.167 83.4881 153.179C85.8647 150.14 90.0289 142.988 90.0289 142.988L81.3622 133.987L81.3156 125.018L90.7288 116.276C90.7288 116.276 93.5399 111.413 94.7909 107.674C95.2688 106.404 95.9104 105.207 96.6981 104.118C101.696 101.47 100.795 91.2571 106.356 88.7039C112.638 85.8194 117.079 78.5517 116.379 75.8192C116.379 75.7675 118.193 73.0835 118.178 73.0258C119.767 68.4664 108.876 44.0921 108.876 44.0921C108.876 44.0921 125.468 2.35264 126.609 0.267493L191.457 0.21582C193.428 12.5048 200.829 53.9798 200.829 53.9798C200.829 53.9798 208.863 84.4424 205.997 96.2998C202.025 112.729 202.681 128.607 203.124 145.456C203.708 167.277 204.32 189.071 205.381 210.87C206.102 225.682 209.018 236.613 204.638 251.105Z" fill="#2A2A2A"/>
<path d="M137.944 22.189C134.996 21.5097 131.978 21.2136 128.959 21.3075C128.085 14.8819 131.741 7.32547 135.083 0.267578H126.627C125.486 2.35273 108.894 44.0922 108.894 44.0922C108.894 44.0922 110.643 65.7157 109.057 70.269C109.072 70.3206 106.914 74.5609 106.928 74.6125C107.191 75.6369 110.99 78.5093 111.049 80.3391C111.139 83.3787 110.299 86.9015 106.383 88.704C100.822 91.2572 101.28 96.6464 96.2786 99.2939C95.5088 100.44 85.8885 98.0598 85.4715 99.2939C84.2205 103.039 79.3273 109.069 79.3273 109.069L81.3161 125.018L81.3773 133.988L80.2663 143.468L62.4255 156.301L71.9087 177.511C73.1393 180.37 74.2208 183.297 75.1485 186.277C75.6034 187.779 76.6911 191.727 76.9827 194.904H77.2335L72.3315 209.883L61.5419 230.649L66.6859 251.95L54.5053 282.729C54.8844 287.662 55.4327 292.535 55.7126 297.596C55.8322 299.723 55.9313 301.851 56.0246 303.979L81.1848 303.961C80.8932 299.574 80.1409 295.246 78.4349 291.234C76.2391 286.067 67.9369 278.838 67.9369 274.085C67.9369 268.309 78.0238 258.683 81.9197 256.273C85.6669 253.957 90.2743 253.197 94.8264 255.577C96.4594 249.564 101.017 247.491 99.7138 242.634C99.0402 240.139 95.5437 237.728 94.841 233.883C88.8221 233.722 82.7187 233.154 76.6999 233.008C76.4432 227.254 78.4291 214.737 78.4291 214.737C78.4291 214.737 99.4572 208.488 103.992 198.232C105.908 193.891 108.404 186.074 108.404 186.074C108.404 186.074 111.845 182.317 113.901 180.548C117.692 177.292 121.736 174.542 125.699 171.548C127.819 174.037 130.409 176.715 133.447 178.207C135.028 172.128 138.139 159.991 138.139 159.991C138.139 159.991 145.447 144.514 144.572 138.228C138.448 140.276 136.223 142.337 131.604 138.696C126.297 134.504 124.463 126.875 118.464 122.924C123.891 117.65 129.164 114.133 129.432 107.482C129.554 104.534 128.362 97.8805 128.362 97.8805C128.362 97.8805 134.066 91.8013 136.11 89.6736C143.4 82.1233 153.277 69.8556 153.277 69.8556C153.277 69.8556 154.924 62.1655 155.484 58.2444C155.499 58.2535 138.314 29.2104 137.944 22.189Z" fill="#3F3F3F"/>
<path d="M168.172 130.76C164.643 128.817 160.357 128.665 157.621 125.252C145.015 128.933 130.907 136.161 119.791 143.632L125.693 153.195C133.114 147.42 142.125 142.827 150.637 138.994C155.921 136.617 155.166 135.453 158.435 138.869C161.205 141.769 165.97 154.496 166.308 158.42C166.311 150.487 163.707 137.234 168.172 130.76Z" fill="#3F3F3F"/>
<path d="M161.54 82.4242C153.55 87.8954 143.851 89.7648 135.587 94.8865C135.77 86.0261 133.295 75.7371 132.714 66.5303C131.839 66.6914 132.049 67.3662 131.548 67.8221L120.391 80.8132C126.386 83.7464 134.42 97.5552 138.179 104.689C144.545 101.175 151.424 96.8227 158.3 94.4609C159.968 99.9929 163.99 105.595 167.611 109.932C167.401 100.4 167.579 90.2754 161.54 82.4242Z" fill="#3F3F3F"/>
<path d="M138.604 212.998C133.745 212.764 128.689 213.056 123.807 212.801C123.393 206.454 126.691 201.229 128.35 195.357C120.153 201.375 105.713 199.867 96.1246 203.114C98.8278 196.375 102.269 186.6 102.721 179.466L96.8332 190.408C97.3172 194.424 93.2055 201.907 93.1035 206.719C101.356 207.603 110.892 205.776 119.013 204.801C119.386 209.217 118.689 213.409 117.847 217.609C121.88 217.002 127.336 216.169 131.042 217.64C127.175 223.822 122.451 229.798 118.372 235.941C124.183 227.929 131.821 220.157 138.604 212.998Z" fill="#3F3F3F"/>
<path d="M76.0661 266.097C74.3777 270.848 73.1062 275.966 71.4003 280.726C68.6738 280.033 66.405 278.626 64.2733 276.975C65.0238 279.364 65.6945 281.773 66.2855 284.2C68.9741 285.24 71.4849 286.632 73.9752 288.1C74.6489 283.912 75.5412 278.24 78.0111 275.003C82.4874 280.723 86.5087 287.228 90.8887 293.152C85.3393 284.954 80.5598 275.006 76.0661 266.097Z" fill="#3F3F3F"/>
<path d="M175.632 175.702C175.862 175.702 176.095 175.684 176.326 175.675C175.803 174.301 175.279 172.929 174.754 171.559C172.969 171.404 171.214 171.143 169.668 170.915C170.514 175.116 171.217 179.304 170.849 183.721C162.716 182.757 153.189 180.946 144.937 181.842C145.047 186.654 149.171 194.134 148.69 198.15L154.592 209.071C154.131 201.937 150.676 192.168 147.964 185.432C157.555 188.663 171.992 187.134 180.201 193.137C178.533 187.268 175.215 182.049 175.632 175.702Z" fill="#191919"/>
<path d="M204.638 251.106C202.013 259.738 205.332 302.535 204.448 303.867L139.801 303.918C139.743 303.058 139.676 302.201 139.588 301.347C138.588 291.347 133.036 277.769 135.602 267.79C136.984 262.419 140.658 261.307 145.426 257.498C154.32 250.41 166.53 244.54 173.645 235.613C169.612 232.312 164.987 228.622 159.849 226.747C160.724 222.187 161.952 217.558 162.273 212.746C162.999 201.849 164.877 195.041 168.717 184.737C172.371 174.94 165.588 174.858 156.656 172.98C161.153 170.302 171.321 167.259 173.57 162.605C175.818 157.952 173.17 146.827 173.622 141.596C174.229 134.581 175.865 132.824 172.254 127.918C169.295 123.915 162.41 117.726 157.965 116.246C162.681 116.057 167.341 117.103 172.091 116.854C173.342 111.34 179.819 98.5282 178.113 93.6344C176.454 88.8957 165.614 82.2816 161.059 81.3029C165.142 78.1904 173.386 76.5915 178.684 75.8772C176.2 64.0229 178.022 50.6488 177.273 38.4905C173.637 38.9221 170.499 41.5301 167.72 43.7793C163.276 36.916 160.31 29.4933 154.382 23.3291C158.196 16.3928 163.098 8.4534 165.2 0.228308L191.472 0.207031C193.443 12.496 200.844 53.971 200.844 53.971C200.844 53.971 208.863 84.4428 205.997 96.3001C202.025 112.729 202.681 128.608 203.124 145.456C203.708 167.277 204.32 189.071 205.381 210.871C206.102 225.683 209.018 236.613 204.638 251.106Z" fill="#191919"/>
</g>
<defs>
<clipPath id="clip0_691_63789">
<rect width="207" height="304" fill="white" transform="matrix(-1 0 0 1 207 0)"/>
</clipPath>
</defs>
</svg>
