<svg width="170" height="40" viewBox="0 0 212 48" fill="none" xmlns="http://www.w3.org/2000/svg">
<g clip-path="url(#clip0_1375_62674)">
<path d="M0 0H48V48H0V0Z" fill="url(#paint0_linear_1375_62674)"/>
<path d="M45 3V45H3V3H45ZM48 0H0V48H48V0Z" fill="url(#paint1_linear_1375_62674)"/>
<path d="M33 9V6H9V9V18H10.5H12H15V12H21V36H12V27H18V21H9H6V27V42H9H12H27V39V36V12H33V9Z" fill="white"/>
<path d="M39 21H30V27H36V36H30V42H36H39H42V27V21H39Z" fill="white"/>
</g>
<path d="M71.021 22.3042L63.9161 13.6049V22.3042H60V2.77972H63.9161V11.535L71.021 2.77972H75.7483L67.6923 12.458L75.972 22.3042H71.021Z" fill="white"/>
<path d="M90.5199 18.5839H82.7437L81.457 22.3042H77.3451L84.366 2.75175H88.9255L95.9465 22.3042H91.8066L90.5199 18.5839ZM89.457 15.451L86.6318 7.28322L83.8066 15.451H89.457Z" fill="white"/>
<path d="M105.312 22.5C103.951 22.5 102.72 22.2669 101.62 21.8007C100.538 21.3345 99.6804 20.6632 99.0463 19.7867C98.4123 18.9103 98.086 17.8753 98.0673 16.6818H102.263C102.319 17.4837 102.599 18.1177 103.102 18.5839C103.624 19.0501 104.333 19.2832 105.228 19.2832C106.142 19.2832 106.86 19.0688 107.382 18.6399C107.904 18.1923 108.165 17.6142 108.165 16.9056C108.165 16.3275 107.988 15.852 107.634 15.479C107.279 15.1061 106.832 14.817 106.291 14.6119C105.769 14.3881 105.042 14.1457 104.109 13.8846C102.841 13.5117 101.806 13.148 101.004 12.7937C100.221 12.4207 99.5405 11.8706 98.9624 11.1434C98.403 10.3974 98.1232 9.40909 98.1232 8.17832C98.1232 7.02214 98.4123 6.01515 98.9904 5.15734C99.5685 4.29953 100.38 3.64685 101.424 3.1993C102.468 2.7331 103.662 2.5 105.004 2.5C107.018 2.5 108.65 2.99417 109.899 3.98252C111.168 4.95221 111.867 6.31352 111.997 8.06643H107.69C107.652 7.39511 107.363 6.84499 106.823 6.41608C106.3 5.96853 105.601 5.74476 104.725 5.74476C103.96 5.74476 103.345 5.94056 102.878 6.33217C102.431 6.72378 102.207 7.29254 102.207 8.03846C102.207 8.56061 102.375 8.99883 102.711 9.35315C103.065 9.68881 103.494 9.96853 103.997 10.1923C104.52 10.3974 105.247 10.6399 106.179 10.9196C107.447 11.2925 108.482 11.6655 109.284 12.0385C110.086 12.4114 110.776 12.9709 111.354 13.7168C111.932 14.4627 112.221 15.4417 112.221 16.6538C112.221 17.6981 111.951 18.6678 111.41 19.5629C110.869 20.458 110.077 21.176 109.032 21.7168C107.988 22.2389 106.748 22.5 105.312 22.5Z" fill="white"/>
<path d="M127.588 18.5839H119.812L118.525 22.3042H114.413L121.434 2.75175H125.994L133.015 22.3042H128.875L127.588 18.5839ZM126.525 15.451L123.7 7.28322L120.875 15.451H126.525Z" fill="white"/>
<path d="M142.464 2.77972C144.516 2.77972 146.315 3.18065 147.863 3.98252C149.429 4.78438 150.632 5.93124 151.471 7.42308C152.329 8.89627 152.758 10.6119 152.758 12.5699C152.758 14.528 152.329 16.2436 151.471 17.7168C150.632 19.1713 149.429 20.2995 147.863 21.1014C146.315 21.9033 144.516 22.3042 142.464 22.3042H135.639V2.77972H142.464ZM142.325 18.9755C144.376 18.9755 145.961 18.4161 147.08 17.2972C148.199 16.1783 148.758 14.6026 148.758 12.5699C148.758 10.5373 148.199 8.95221 147.08 7.81469C145.961 6.65851 144.376 6.08042 142.325 6.08042H139.555V18.9755H142.325Z" fill="white"/>
<path d="M167.662 18.5839H159.885L158.599 22.3042H154.487L161.508 2.75175H166.067L173.088 22.3042H168.948L167.662 18.5839ZM166.599 15.451L163.773 7.28322L160.948 15.451H166.599Z" fill="white"/>
<path d="M185.782 22.3042L181.475 14.6958H179.629V22.3042H175.712V2.77972H183.041C184.552 2.77972 185.838 3.05012 186.901 3.59091C187.964 4.11305 188.757 4.831 189.279 5.74476C189.82 6.63986 190.09 7.64685 190.09 8.76573C190.09 10.0524 189.717 11.2179 188.971 12.2622C188.225 13.2879 187.116 13.9965 185.642 14.3881L190.314 22.3042H185.782ZM179.629 11.7587H182.901C183.964 11.7587 184.757 11.507 185.279 11.0035C185.801 10.4814 186.062 9.7634 186.062 8.84965C186.062 7.95455 185.801 7.26457 185.279 6.77972C184.757 6.27622 183.964 6.02448 182.901 6.02448H179.629V11.7587Z" fill="white"/>
<path d="M205.604 18.5839H197.828L196.541 22.3042H192.429L199.45 2.75175H204.01L211.031 22.3042H206.891L205.604 18.5839ZM204.541 15.451L201.716 7.28322L198.891 15.451H204.541Z" fill="white"/>
<path d="M67.7827 31.5553V32.7755H64.6499V43.048H63.1494V32.7755H60V31.5553H67.7827Z" fill="white"/>
<path d="M74.1147 33.8472C74.7962 33.8472 75.4118 33.9956 75.9615 34.2924C76.5111 34.5782 76.9398 35.0124 77.2476 35.5951C77.5664 36.1777 77.7258 36.8867 77.7258 37.7221V43.048H76.2418V37.9365C76.2418 37.0351 76.0164 36.348 75.5657 35.8754C75.115 35.3917 74.4995 35.1499 73.719 35.1499C72.9275 35.1499 72.2954 35.3972 71.8228 35.8919C71.3611 36.3865 71.1302 37.1065 71.1302 38.0519V43.048H69.6297V30.8463H71.1302V35.2983C71.427 34.8366 71.8338 34.4793 72.3504 34.2265C72.878 33.9737 73.4661 33.8472 74.1147 33.8472Z" fill="white"/>
<path d="M88.4212 38.1838C88.4212 38.4696 88.4047 38.7719 88.3718 39.0907H81.1497C81.2046 39.9811 81.5069 40.6791 82.0565 41.1848C82.6172 41.6794 83.2932 41.9268 84.0847 41.9268C84.7332 41.9268 85.2719 41.7784 85.7006 41.4816C86.1403 41.1738 86.4481 40.7671 86.6239 40.2614H88.2399C87.998 41.1298 87.5143 41.8388 86.7888 42.3885C86.0633 42.9271 85.1619 43.1964 84.0847 43.1964C83.2272 43.1964 82.4578 43.004 81.7762 42.6193C81.1057 42.2346 80.578 41.6904 80.1933 40.9869C79.8086 40.2724 79.6162 39.4479 79.6162 38.5136C79.6162 37.5792 79.8031 36.7603 80.1768 36.0567C80.5506 35.3532 81.0727 34.8146 81.7432 34.4408C82.4248 34.0561 83.2053 33.8637 84.0847 33.8637C84.9421 33.8637 85.7006 34.0506 86.3601 34.4243C87.0197 34.7981 87.5253 35.3147 87.8771 35.9743C88.2399 36.6229 88.4212 37.3594 88.4212 38.1838ZM86.8713 37.8705C86.8713 37.2989 86.7449 36.8097 86.492 36.403C86.2392 35.9853 85.8929 35.672 85.4532 35.4631C85.0245 35.2433 84.5464 35.1334 84.0187 35.1334C83.2602 35.1334 82.6117 35.3752 82.073 35.8589C81.5454 36.3425 81.2431 37.0131 81.1661 37.8705H86.8713Z" fill="white"/>
<path d="M98.3759 31.5553C99.629 31.5553 100.712 31.7916 101.624 32.2643C102.548 32.726 103.251 33.391 103.735 34.2595C104.229 35.1279 104.477 36.1502 104.477 37.3264C104.477 38.5026 104.229 39.5249 103.735 40.3933C103.251 41.2507 102.548 41.9103 101.624 42.372C100.712 42.8227 99.629 43.048 98.3759 43.048H94.7978V31.5553H98.3759ZM98.3759 41.8113C99.8599 41.8113 100.992 41.4211 101.773 40.6406C102.553 39.8492 102.943 38.7444 102.943 37.3264C102.943 35.8973 102.548 34.7816 101.756 33.9791C100.976 33.1767 99.8489 32.7755 98.3759 32.7755H96.2983V41.8113H98.3759Z" fill="white"/>
<path d="M114.7 38.1838C114.7 38.4696 114.684 38.7719 114.651 39.0907H107.429C107.484 39.9811 107.786 40.6791 108.336 41.1848C108.896 41.6794 109.572 41.9268 110.364 41.9268C111.012 41.9268 111.551 41.7784 111.98 41.4816C112.419 41.1738 112.727 40.7671 112.903 40.2614H114.519C114.277 41.1298 113.793 41.8388 113.068 42.3885C112.342 42.9271 111.441 43.1964 110.364 43.1964C109.506 43.1964 108.737 43.004 108.055 42.6193C107.385 42.2346 106.857 41.6904 106.472 40.9869C106.088 40.2724 105.895 39.4479 105.895 38.5136C105.895 37.5792 106.082 36.7603 106.456 36.0567C106.83 35.3532 107.352 34.8146 108.022 34.4408C108.704 34.0561 109.484 33.8637 110.364 33.8637C111.221 33.8637 111.98 34.0506 112.639 34.4243C113.299 34.7981 113.804 35.3147 114.156 35.9743C114.519 36.6229 114.7 37.3594 114.7 38.1838ZM113.15 37.8705C113.15 37.2989 113.024 36.8097 112.771 36.403C112.518 35.9853 112.172 35.672 111.732 35.4631C111.304 35.2433 110.825 35.1334 110.298 35.1334C109.539 35.1334 108.891 35.3752 108.352 35.8589C107.824 36.3425 107.522 37.0131 107.445 37.8705H113.15Z" fill="white"/>
<path d="M119.88 43.1964C119.187 43.1964 118.566 43.081 118.017 42.8501C117.467 42.6083 117.033 42.2785 116.714 41.8608C116.395 41.4321 116.219 40.9429 116.186 40.3933H117.736C117.78 40.844 117.989 41.2123 118.363 41.4981C118.748 41.7839 119.248 41.9268 119.863 41.9268C120.435 41.9268 120.886 41.8004 121.215 41.5475C121.545 41.2947 121.71 40.9759 121.71 40.5912C121.71 40.1954 121.534 39.9041 121.182 39.7173C120.831 39.5194 120.286 39.327 119.55 39.1402C118.879 38.9643 118.33 38.7884 117.901 38.6125C117.483 38.4256 117.121 38.1563 116.813 37.8046C116.516 37.4418 116.368 36.9691 116.368 36.3865C116.368 35.9248 116.505 35.5016 116.78 35.1169C117.055 34.7321 117.445 34.4298 117.951 34.21C118.456 33.9791 119.033 33.8637 119.682 33.8637C120.682 33.8637 121.49 34.1166 122.106 34.6222C122.721 35.1279 123.051 35.8204 123.095 36.6998H121.595C121.562 36.2271 121.369 35.8479 121.017 35.5621C120.677 35.2763 120.215 35.1334 119.632 35.1334C119.094 35.1334 118.665 35.2488 118.346 35.4796C118.028 35.7105 117.868 36.0128 117.868 36.3865C117.868 36.6833 117.962 36.9307 118.148 37.1285C118.346 37.3154 118.588 37.4693 118.874 37.5902C119.171 37.7001 119.577 37.8265 120.094 37.9694C120.743 38.1453 121.27 38.3212 121.677 38.4971C122.084 38.662 122.43 38.9148 122.716 39.2556C123.013 39.5963 123.167 40.0415 123.178 40.5912C123.178 41.0858 123.04 41.531 122.765 41.9268C122.49 42.3225 122.1 42.6358 121.595 42.8666C121.1 43.0865 120.528 43.1964 119.88 43.1964Z" fill="white"/>
<path d="M126.071 32.5446C125.785 32.5446 125.543 32.4457 125.345 32.2478C125.147 32.05 125.048 31.8081 125.048 31.5223C125.048 31.2365 125.147 30.9947 125.345 30.7968C125.543 30.5989 125.785 30.5 126.071 30.5C126.345 30.5 126.576 30.5989 126.763 30.7968C126.961 30.9947 127.06 31.2365 127.06 31.5223C127.06 31.8081 126.961 32.05 126.763 32.2478C126.576 32.4457 126.345 32.5446 126.071 32.5446ZM126.796 34.0121V43.048H125.296V34.0121H126.796Z" fill="white"/>
<path d="M133.08 33.8637C133.86 33.8637 134.542 34.0341 135.125 34.3749C135.718 34.7156 136.158 35.1444 136.444 35.661V34.0121H137.961V43.2459C137.961 44.0703 137.785 44.8013 137.433 45.4389C137.081 46.0875 136.576 46.5931 135.916 46.9559C135.268 47.3186 134.509 47.5 133.641 47.5C132.453 47.5 131.464 47.2197 130.673 46.6591C129.881 46.0984 129.414 45.3345 129.271 44.3671H130.755C130.92 44.9167 131.261 45.3565 131.777 45.6862C132.294 46.027 132.915 46.1974 133.641 46.1974C134.465 46.1974 135.136 45.9391 135.652 45.4224C136.18 44.9058 136.444 44.1802 136.444 43.2459V41.3497C136.147 41.8773 135.707 42.317 135.125 42.6688C134.542 43.0205 133.86 43.1964 133.08 43.1964C132.278 43.1964 131.547 42.9985 130.887 42.6028C130.238 42.2071 129.727 41.652 129.354 40.9374C128.98 40.2229 128.793 39.4095 128.793 38.4971C128.793 37.5737 128.98 36.7658 129.354 36.0732C129.727 35.3697 130.238 34.8256 130.887 34.4408C131.547 34.0561 132.278 33.8637 133.08 33.8637ZM136.444 38.5136C136.444 37.832 136.306 37.2384 136.031 36.7328C135.757 36.2271 135.383 35.8424 134.91 35.5786C134.449 35.3038 133.937 35.1663 133.377 35.1663C132.816 35.1663 132.305 35.2983 131.843 35.5621C131.382 35.8259 131.013 36.2106 130.739 36.7163C130.464 37.222 130.326 37.8156 130.326 38.4971C130.326 39.1896 130.464 39.7942 130.739 40.3109C131.013 40.8165 131.382 41.2068 131.843 41.4816C132.305 41.7454 132.816 41.8773 133.377 41.8773C133.937 41.8773 134.449 41.7454 134.91 41.4816C135.383 41.2068 135.757 40.8165 136.031 40.3109C136.306 39.7942 136.444 39.1951 136.444 38.5136Z" fill="white"/>
<path d="M144.899 33.8472C145.998 33.8472 146.889 34.1825 147.57 34.8531C148.252 35.5126 148.592 36.469 148.592 37.7221V43.048H147.108V37.9365C147.108 37.0351 146.883 36.348 146.432 35.8754C145.982 35.3917 145.366 35.1499 144.586 35.1499C143.794 35.1499 143.162 35.3972 142.689 35.8919C142.228 36.3865 141.997 37.1065 141.997 38.0519V43.048H140.496V34.0121H141.997V35.2983C142.294 34.8366 142.695 34.4793 143.201 34.2265C143.717 33.9737 144.283 33.8472 144.899 33.8472Z" fill="white"/>
<path d="M159.083 43.1634C158.325 43.1634 157.643 43.0315 157.039 42.7677C156.445 42.4929 155.978 42.1191 155.637 41.6465C155.296 41.1628 155.121 40.6077 155.11 39.9811H156.709C156.764 40.5197 156.984 40.9759 157.369 41.3497C157.764 41.7124 158.336 41.8938 159.083 41.8938C159.798 41.8938 160.359 41.7179 160.765 41.3661C161.183 41.0034 161.392 40.5417 161.392 39.9811C161.392 39.5414 161.271 39.1841 161.029 38.9093C160.787 38.6345 160.485 38.4256 160.122 38.2827C159.759 38.1398 159.27 37.9859 158.655 37.821C157.896 37.6232 157.286 37.4253 156.824 37.2274C156.374 37.0296 155.984 36.7218 155.654 36.3041C155.335 35.8754 155.176 35.3038 155.176 34.5892C155.176 33.9627 155.335 33.4075 155.654 32.9239C155.973 32.4402 156.418 32.0664 156.989 31.8026C157.572 31.5388 158.237 31.4069 158.984 31.4069C160.062 31.4069 160.941 31.6762 161.623 32.2148C162.315 32.7535 162.705 33.468 162.793 34.3584H161.145C161.09 33.9187 160.859 33.5339 160.452 33.2042C160.045 32.8634 159.507 32.693 158.836 32.693C158.209 32.693 157.698 32.8579 157.303 33.1877C156.907 33.5065 156.709 33.9572 156.709 34.5398C156.709 34.9575 156.824 35.2983 157.055 35.5621C157.297 35.8259 157.588 36.0293 157.929 36.1722C158.281 36.3041 158.77 36.458 159.397 36.6339C160.155 36.8427 160.765 37.0516 161.227 37.2604C161.689 37.4583 162.084 37.7716 162.414 38.2003C162.744 38.618 162.909 39.1896 162.909 39.9151C162.909 40.4758 162.76 41.0034 162.464 41.4981C162.167 41.9927 161.727 42.394 161.145 42.7017C160.562 43.0095 159.875 43.1634 159.083 43.1634Z" fill="white"/>
<path d="M164.556 38.5136C164.556 37.5792 164.743 36.7658 165.117 36.0732C165.491 35.3697 166.007 34.8256 166.667 34.4408C167.337 34.0561 168.101 33.8637 168.959 33.8637C170.069 33.8637 170.981 34.133 171.696 34.6717C172.421 35.2103 172.9 35.9578 173.13 36.9142H171.515C171.361 36.3645 171.058 35.9303 170.608 35.6115C170.168 35.2928 169.618 35.1334 168.959 35.1334C168.101 35.1334 167.409 35.4302 166.881 36.0238C166.354 36.6064 166.09 37.4363 166.09 38.5136C166.09 39.6018 166.354 40.4428 166.881 41.0364C167.409 41.63 168.101 41.9268 168.959 41.9268C169.618 41.9268 170.168 41.7729 170.608 41.4651C171.047 41.1573 171.35 40.7176 171.515 40.146H173.13C172.889 41.0694 172.405 41.8113 171.679 42.372C170.954 42.9216 170.047 43.1964 168.959 43.1964C168.101 43.1964 167.337 43.004 166.667 42.6193C166.007 42.2346 165.491 41.6904 165.117 40.9869C164.743 40.2834 164.556 39.4589 164.556 38.5136Z" fill="white"/>
<path d="M179.618 33.8472C180.299 33.8472 180.915 33.9956 181.464 34.2924C182.014 34.5782 182.443 35.0124 182.75 35.5951C183.069 36.1777 183.229 36.8867 183.229 37.7221V43.048H181.745V37.9365C181.745 37.0351 181.519 36.348 181.069 35.8754C180.618 35.3917 180.002 35.1499 179.222 35.1499C178.43 35.1499 177.798 35.3972 177.326 35.8919C176.864 36.3865 176.633 37.1065 176.633 38.0519V43.048H175.133V30.8463H176.633V35.2983C176.93 34.8366 177.337 34.4793 177.853 34.2265C178.381 33.9737 178.969 33.8472 179.618 33.8472Z" fill="white"/>
<path d="M189.62 43.1964C188.774 43.1964 188.005 43.004 187.312 42.6193C186.631 42.2346 186.092 41.6904 185.696 40.9869C185.311 40.2724 185.119 39.4479 185.119 38.5136C185.119 37.5902 185.317 36.7768 185.713 36.0732C186.119 35.3587 186.669 34.8146 187.362 34.4408C188.054 34.0561 188.829 33.8637 189.686 33.8637C190.544 33.8637 191.319 34.0561 192.011 34.4408C192.704 34.8146 193.248 35.3532 193.644 36.0567C194.05 36.7603 194.254 37.5792 194.254 38.5136C194.254 39.4479 194.045 40.2724 193.627 40.9869C193.221 41.6904 192.665 42.2346 191.962 42.6193C191.258 43.004 190.478 43.1964 189.62 43.1964ZM189.62 41.8773C190.159 41.8773 190.665 41.7509 191.137 41.4981C191.61 41.2452 191.989 40.866 192.275 40.3603C192.572 39.8547 192.72 39.2391 192.72 38.5136C192.72 37.7881 192.577 37.1725 192.292 36.6668C192.006 36.1612 191.632 35.7874 191.17 35.5456C190.709 35.2928 190.209 35.1663 189.67 35.1663C189.12 35.1663 188.615 35.2928 188.153 35.5456C187.702 35.7874 187.34 36.1612 187.065 36.6668C186.79 37.1725 186.653 37.7881 186.653 38.5136C186.653 39.2501 186.784 39.8712 187.048 40.3768C187.323 40.8825 187.686 41.2617 188.136 41.5145C188.587 41.7564 189.082 41.8773 189.62 41.8773Z" fill="white"/>
<path d="M200.168 43.1964C199.321 43.1964 198.552 43.004 197.859 42.6193C197.178 42.2346 196.639 41.6904 196.243 40.9869C195.858 40.2724 195.666 39.4479 195.666 38.5136C195.666 37.5902 195.864 36.7768 196.26 36.0732C196.666 35.3587 197.216 34.8146 197.909 34.4408C198.601 34.0561 199.376 33.8637 200.234 33.8637C201.091 33.8637 201.866 34.0561 202.558 34.4408C203.251 34.8146 203.795 35.3532 204.191 36.0567C204.598 36.7603 204.801 37.5792 204.801 38.5136C204.801 39.4479 204.592 40.2724 204.174 40.9869C203.768 41.6904 203.212 42.2346 202.509 42.6193C201.805 43.004 201.025 43.1964 200.168 43.1964ZM200.168 41.8773C200.706 41.8773 201.212 41.7509 201.685 41.4981C202.157 41.2452 202.536 40.866 202.822 40.3603C203.119 39.8547 203.267 39.2391 203.267 38.5136C203.267 37.7881 203.125 37.1725 202.839 36.6668C202.553 36.1612 202.179 35.7874 201.717 35.5456C201.256 35.2928 200.756 35.1663 200.217 35.1663C199.667 35.1663 199.162 35.2928 198.7 35.5456C198.249 35.7874 197.887 36.1612 197.612 36.6668C197.337 37.1725 197.2 37.7881 197.2 38.5136C197.2 39.2501 197.331 39.8712 197.595 40.3768C197.87 40.8825 198.233 41.2617 198.684 41.5145C199.134 41.7564 199.629 41.8773 200.168 41.8773Z" fill="white"/>
<path d="M208.274 30.8463V43.048H206.774V30.8463H208.274Z" fill="white"/>
<defs>
<linearGradient id="paint0_linear_1375_62674" x1="41.28" y1="-13.939" x2="1.71095" y2="34.8635" gradientUnits="userSpaceOnUse">
<stop stop-color="#9A1F78"/>
<stop offset="1" stop-color="#562E76"/>
</linearGradient>
<linearGradient id="paint1_linear_1375_62674" x1="41.28" y1="-13.939" x2="1.71095" y2="34.8635" gradientUnits="userSpaceOnUse">
<stop stop-color="#9A1F78"/>
<stop offset="1" stop-color="#562E76"/>
</linearGradient>
<clipPath id="clip0_1375_62674">
<rect width="48" height="48" fill="white"/>
</clipPath>
</defs>
</svg>
