<svg width="208" height="49" viewBox="0 0 208 49" fill="none" xmlns="http://www.w3.org/2000/svg">
<rect width="23.0164" height="23" fill="#B01873"/>
<rect x="25.0176" width="23.0164" height="23" fill="white" fill-opacity="0.12"/>
<path d="M12.7881 11.7754C11.2163 11.6868 9.89804 11.7374 8.83328 11.9274C7.76852 12.1048 7.06501 12.3201 6.72277 12.5734C6.50728 12.7254 6.41221 13.0801 6.43757 13.6374C6.47559 15.3981 7.80654 16.2784 10.4304 16.2784C11.2036 16.2784 11.717 16.1264 11.9705 15.8224C12.0339 15.7464 12.1163 15.5628 12.2177 15.2714C12.3698 14.8661 12.5599 13.7008 12.7881 11.7754ZM10.6015 10.3504C11.2987 10.2998 12.0846 10.2808 12.9592 10.2934C13.048 9.4701 13.1177 8.65944 13.1684 7.86144H10.8107L10.6015 10.3504ZM14.5373 7.86144C14.474 8.68477 14.3916 9.52077 14.2902 10.3694C16.1408 10.5214 17.4274 10.9014 18.1499 11.5094C18.8851 12.1174 19.0879 12.9788 18.7584 14.0934C18.5682 14.7268 18.2767 15.3348 17.8837 15.9174C17.4908 16.5001 17.0408 16.9244 16.5338 17.1904C16.0394 17.4691 15.5958 17.6338 15.2028 17.6844C14.5437 17.7604 13.7578 17.6021 12.8451 17.2094C12.7437 17.1714 12.7184 17.0701 12.7691 16.9054C12.8198 16.7281 12.9275 16.5444 13.0923 16.3544C13.2698 16.1518 13.4536 15.9998 13.6437 15.8984C13.8465 15.7844 13.9986 15.7528 14.1 15.8034C14.8859 16.1328 15.5768 16.2658 16.1725 16.2024C16.4134 16.1771 16.6162 16.1201 16.7809 16.0314C16.9584 15.9428 17.1549 15.5374 17.3704 14.8154C17.5859 14.0934 17.4274 13.4791 16.895 12.9724C16.3753 12.4531 15.4437 12.0984 14.1 11.9084C14.0367 12.3644 13.9796 12.8141 13.9289 13.2574C13.6881 14.9801 12.9212 16.2594 11.6283 17.0954C10.9691 17.5134 10.2149 17.7224 9.36566 17.7224C6.48827 17.7224 5.02422 16.7091 4.97352 14.6824C4.96084 14.1758 5.0876 13.6501 5.35379 13.1054C5.63266 12.5481 6.108 12.0224 6.77981 11.5284C7.4643 11.0344 8.28188 10.6988 9.23256 10.5214L9.47974 7.61444C9.59382 7.10777 9.841 6.74677 10.2213 6.53144C10.3734 6.44277 10.5445 6.39844 10.7346 6.39844H15.426C15.6161 6.39844 15.6668 6.5251 15.5781 6.77844C15.4767 7.0951 15.2802 7.35477 14.9887 7.55744C14.7098 7.7601 14.6327 7.86144 14.4933 7.86144H14.4493H14.5373Z" fill="white"/>
<path d="M38.1587 12.0984L35.6679 12.0794C34.9961 12.0794 34.3686 12.1301 33.7856 12.2314C32.8222 12.3961 32.2455 12.5798 32.0553 12.7824C31.9159 12.9851 31.8462 13.2701 31.8462 13.6374C31.8082 15.3981 33.1391 16.2784 35.839 16.2784C36.6503 16.2784 37.17 16.1201 37.3981 15.8034C37.6263 15.4741 37.7911 14.9674 37.8925 14.2834C37.9812 13.5234 38.07 12.7951 38.1587 12.0984ZM38.577 7.86144H36.2383L36.0102 10.6354C36.2383 10.6354 36.4792 10.6354 36.7327 10.6354H38.3298C38.4312 9.6981 38.5136 8.77344 38.577 7.86144ZM39.946 7.86144C39.8699 8.7861 39.7748 9.7171 39.6608 10.6544L42.3987 10.6734C42.5888 10.6734 42.6395 10.7938 42.5508 11.0344C42.4494 11.3511 42.2529 11.6108 41.9614 11.8134C41.6825 12.0161 41.4734 12.1174 41.334 12.1174L39.4896 12.0984C39.4389 12.4911 39.3882 12.8774 39.3375 13.2574C39.1981 14.2581 38.8812 15.1068 38.3868 15.8034C37.4742 17.0828 36.27 17.7224 34.7743 17.7224C31.7955 17.7224 30.3314 16.7091 30.3821 14.6824C30.3948 14.0111 30.5913 13.4094 30.9716 12.8774C31.6814 11.8894 32.5624 11.2561 33.6144 10.9774C33.9694 10.8761 34.3116 10.8001 34.6412 10.7494L34.8883 7.63344C35.0024 7.12677 35.2496 6.75944 35.6299 6.53144C35.782 6.44277 35.9531 6.39844 36.1432 6.39844H40.8346C41.0247 6.39844 41.0754 6.5251 40.9867 6.77844C40.8853 7.0951 40.6888 7.35477 40.3973 7.55744C40.1184 7.7601 39.9093 7.86144 39.7698 7.86144H39.946Z" fill="white"/>
<rect y="25" width="23.0164" height="23" fill="white" fill-opacity="0.14"/>
<rect x="25.0176" y="25" width="23.0164" height="23" fill="#591B76"/>
<path d="M7.12491 41.741C6.98557 41.741 6.92224 41.6713 6.93491 41.532C6.93491 41.5067 6.93491 41.4813 6.93491 41.456L7.90391 31.595C7.91657 31.443 7.99891 31.2657 8.15091 31.063C8.30291 30.8603 8.46124 30.7083 8.62591 30.607C8.79057 30.493 8.92357 30.4233 9.02491 30.398C9.25291 30.3347 9.36057 30.4043 9.34791 30.607L8.39791 40.297C11.5646 40.297 14.7312 40.297 17.8979 40.297C18.0879 40.297 18.1386 40.4173 18.0499 40.658C17.9486 40.9747 17.7522 41.2343 17.4609 41.437C17.1822 41.6397 16.9732 41.741 16.8339 41.741H7.12491Z" fill="white"/>
<path d="M32.8145 40.525C32.7892 40.677 32.7005 40.8543 32.5485 41.057C32.3965 41.2597 32.2382 41.4117 32.0735 41.513C31.9088 41.627 31.7758 41.6903 31.6745 41.703C31.4465 41.7537 31.3452 41.6777 31.3705 41.475C31.8518 37.789 32.1432 35.452 32.2445 34.464C32.3585 33.4633 32.6245 32.6653 33.0425 32.07C33.8278 30.9553 34.8665 30.398 36.1585 30.398C36.9058 30.398 37.3618 30.8603 37.5265 31.785C38.3498 30.797 39.2808 30.341 40.3195 30.417C41.7762 30.5057 42.3272 31.5317 41.9725 33.495L41.0225 40.126C41.0225 40.1387 41.0162 40.1577 41.0035 40.183C40.8008 41.0317 40.4525 41.7727 39.9585 42.406C39.2745 43.28 38.5272 43.8373 37.7165 44.078C36.9058 44.3313 35.9495 44.3757 34.8475 44.211C33.7582 44.059 32.9032 44.0527 32.2825 44.192C32.2825 44.2047 32.2825 44.249 32.2825 44.325C32.2952 44.401 32.2318 44.5403 32.0925 44.743C31.9658 44.9457 31.8202 45.104 31.6555 45.218C31.4908 45.3447 31.3515 45.4333 31.2375 45.484C30.9842 45.5727 30.8512 45.5283 30.8385 45.351C30.7752 44.6037 31.1362 43.9323 31.9215 43.337C32.5168 42.8937 33.1692 42.653 33.8785 42.615C34.4485 42.6023 35.1262 42.653 35.9115 42.767C36.6968 42.8937 37.3112 42.919 37.7545 42.843C38.4512 42.7037 38.8945 42.5073 39.0845 42.254C39.2745 42.0007 39.4392 41.5953 39.5785 41.038L40.5285 34.407C40.8325 32.773 40.3955 31.9243 39.2175 31.861C38.8122 31.8357 38.5208 31.8863 38.3435 32.013C38.2168 32.1523 38.0838 32.45 37.9445 32.906C37.8052 33.3493 37.7165 33.6977 37.6785 33.951C37.6405 34.2043 37.5772 34.3943 37.4885 34.521L36.9565 40.506C36.9438 40.6453 36.8615 40.8163 36.7095 41.019C36.5575 41.2217 36.3992 41.38 36.2345 41.494C36.0698 41.608 35.9368 41.6777 35.8355 41.703C35.6075 41.7663 35.4998 41.6967 35.5125 41.494L36.1205 34.673C36.2978 32.7983 35.9558 31.861 35.0945 31.861C34.6385 31.861 34.2902 31.9243 34.0495 32.051C33.8848 32.3043 33.7582 32.8617 33.6695 33.723C33.5808 34.5717 33.2958 36.839 32.8145 40.525Z" fill="white"/>
<path d="M75.3032 20.088L69.6392 12.648V20.088H65.5352V3.24H69.6392V10.632L75.2552 3.24H80.0792L73.5512 11.496L80.3192 20.088H75.3032Z" fill="#B01873"/>
<path d="M92.7575 17.112H86.4695L85.4615 20.088H81.1655L87.2615 3.24H92.0135L98.1095 20.088H93.7655L92.7575 17.112ZM91.7015 13.944L89.6135 7.776L87.5495 13.944H91.7015Z" fill="#B01873"/>
<path d="M106.061 20.256C104.829 20.256 103.725 20.056 102.749 19.656C101.773 19.256 100.989 18.664 100.397 17.88C99.8208 17.096 99.5168 16.152 99.4848 15.048H103.853C103.917 15.672 104.133 16.152 104.501 16.488C104.869 16.808 105.349 16.968 105.941 16.968C106.549 16.968 107.029 16.832 107.381 16.56C107.733 16.272 107.909 15.88 107.909 15.384C107.909 14.968 107.765 14.624 107.477 14.352C107.205 14.08 106.861 13.856 106.445 13.68C106.045 13.504 105.469 13.304 104.717 13.08C103.629 12.744 102.741 12.408 102.053 12.072C101.365 11.736 100.773 11.24 100.277 10.584C99.7808 9.928 99.5328 9.072 99.5328 8.016C99.5328 6.448 100.101 5.224 101.237 4.344C102.373 3.448 103.853 3 105.677 3C107.533 3 109.029 3.448 110.165 4.344C111.301 5.224 111.909 6.456 111.989 8.04H107.549C107.517 7.496 107.317 7.072 106.949 6.768C106.581 6.448 106.109 6.288 105.533 6.288C105.037 6.288 104.637 6.424 104.333 6.696C104.029 6.952 103.877 7.328 103.877 7.824C103.877 8.368 104.133 8.792 104.645 9.096C105.157 9.4 105.957 9.728 107.045 10.08C108.133 10.448 109.013 10.8 109.685 11.136C110.373 11.472 110.965 11.96 111.461 12.6C111.957 13.24 112.205 14.064 112.205 15.072C112.205 16.032 111.957 16.904 111.461 17.688C110.981 18.472 110.277 19.096 109.349 19.56C108.421 20.024 107.325 20.256 106.061 20.256Z" fill="#B01873"/>
<path d="M125.218 17.112H118.93L117.922 20.088H113.626L119.722 3.24H124.474L130.57 20.088H126.226L125.218 17.112ZM124.162 13.944L122.074 7.776L120.01 13.944H124.162Z" fill="#B01873"/>
<path d="M138.738 3.24C140.514 3.24 142.066 3.592 143.394 4.296C144.722 5 145.746 5.992 146.466 7.272C147.202 8.536 147.57 10 147.57 11.664C147.57 13.312 147.202 14.776 146.466 16.056C145.746 17.336 144.714 18.328 143.37 19.032C142.042 19.736 140.498 20.088 138.738 20.088H132.426V3.24H138.738ZM138.474 16.536C140.026 16.536 141.234 16.112 142.098 15.264C142.962 14.416 143.394 13.216 143.394 11.664C143.394 10.112 142.962 8.904 142.098 8.04C141.234 7.176 140.026 6.744 138.474 6.744H136.53V16.536H138.474Z" fill="#B01873"/>
<path d="M160.351 17.112H154.063L153.055 20.088H148.759L154.855 3.24H159.607L165.703 20.088H161.359L160.351 17.112ZM159.295 13.944L157.207 7.776L155.143 13.944H159.295Z" fill="#B01873"/>
<path d="M176.151 20.088L172.647 13.728H171.663V20.088H167.559V3.24H174.447C175.775 3.24 176.903 3.472 177.831 3.936C178.775 4.4 179.479 5.04 179.943 5.856C180.407 6.656 180.639 7.552 180.639 8.544C180.639 9.664 180.319 10.664 179.679 11.544C179.055 12.424 178.127 13.048 176.895 13.416L180.783 20.088H176.151ZM171.663 10.824H174.207C174.959 10.824 175.519 10.64 175.887 10.272C176.271 9.904 176.463 9.384 176.463 8.712C176.463 8.072 176.271 7.568 175.887 7.2C175.519 6.832 174.959 6.648 174.207 6.648H171.663V10.824Z" fill="#B01873"/>
<path d="M193.703 17.112H187.415L186.407 20.088H182.111L188.207 3.24H192.959L199.055 20.088H194.711L193.703 17.112ZM192.647 13.944L190.559 7.776L188.495 13.944H192.647Z" fill="#B01873"/>
<g opacity="0.5">
<path d="M71.1418 30.9361V32.1201H68.1018V42.0881H66.6458V32.1201H63.5898V30.9361H71.1418Z" fill="white"/>
<path d="M77.2861 33.1601C77.9474 33.1601 78.5448 33.3041 79.0781 33.5921C79.6114 33.8694 80.0274 34.2908 80.3261 34.8561C80.6354 35.4214 80.7901 36.1094 80.7901 36.9201V42.0881H79.3501V37.1281C79.3501 36.2534 79.1314 35.5868 78.6941 35.1281C78.2568 34.6588 77.6594 34.4241 76.9021 34.4241C76.1341 34.4241 75.5208 34.6641 75.0621 35.1441C74.6141 35.6241 74.3901 36.3228 74.3901 37.2401V42.0881H72.9341V30.2481H74.3901V34.5681C74.6781 34.1201 75.0728 33.7734 75.5741 33.5281C76.0861 33.2828 76.6568 33.1601 77.2861 33.1601Z" fill="white"/>
<path d="M91.1685 37.3681C91.1685 37.6454 91.1525 37.9388 91.1205 38.2481H84.1125C84.1658 39.1121 84.4591 39.7894 84.9925 40.2801C85.5365 40.7601 86.1925 41.0001 86.9605 41.0001C87.5898 41.0001 88.1125 40.8561 88.5285 40.5681C88.9551 40.2694 89.2538 39.8748 89.4245 39.3841H90.9925C90.7578 40.2268 90.2885 40.9148 89.5845 41.4481C88.8805 41.9708 88.0058 42.2321 86.9605 42.2321C86.1285 42.2321 85.3818 42.0454 84.7205 41.6721C84.0698 41.2988 83.5578 40.7708 83.1845 40.0881C82.8111 39.3948 82.6245 38.5948 82.6245 37.6881C82.6245 36.7814 82.8058 35.9868 83.1685 35.3041C83.5311 34.6214 84.0378 34.0988 84.6885 33.7361C85.3498 33.3628 86.1071 33.1761 86.9605 33.1761C87.7925 33.1761 88.5285 33.3574 89.1685 33.7201C89.8085 34.0828 90.2991 34.5841 90.6405 35.2241C90.9925 35.8534 91.1685 36.5681 91.1685 37.3681ZM89.6645 37.0641C89.6645 36.5094 89.5418 36.0348 89.2965 35.6401C89.0511 35.2348 88.7151 34.9308 88.2885 34.7281C87.8725 34.5148 87.4085 34.4081 86.8965 34.4081C86.1605 34.4081 85.5311 34.6428 85.0085 35.1121C84.4965 35.5814 84.2031 36.2321 84.1285 37.0641H89.6645Z" fill="white"/>
<path d="M100.828 30.9361C102.044 30.9361 103.095 31.1654 103.98 31.6241C104.876 32.0721 105.559 32.7174 106.028 33.5601C106.508 34.4028 106.748 35.3948 106.748 36.5361C106.748 37.6774 106.508 38.6694 106.028 39.5121C105.559 40.3441 104.876 40.9841 103.98 41.4321C103.095 41.8694 102.044 42.0881 100.828 42.0881H97.356V30.9361H100.828ZM100.828 40.8881C102.268 40.8881 103.367 40.5094 104.124 39.7521C104.881 38.9841 105.26 37.9121 105.26 36.5361C105.26 35.1494 104.876 34.0668 104.108 33.2881C103.351 32.5094 102.257 32.1201 100.828 32.1201H98.812V40.8881H100.828Z" fill="white"/>
<path d="M116.668 37.3681C116.668 37.6454 116.652 37.9388 116.62 38.2481H109.612C109.666 39.1121 109.959 39.7894 110.492 40.2801C111.036 40.7601 111.692 41.0001 112.46 41.0001C113.09 41.0001 113.612 40.8561 114.028 40.5681C114.455 40.2694 114.754 39.8748 114.924 39.3841H116.492C116.258 40.2268 115.788 40.9148 115.084 41.4481C114.38 41.9708 113.506 42.2321 112.46 42.2321C111.628 42.2321 110.882 42.0454 110.22 41.6721C109.57 41.2988 109.058 40.7708 108.684 40.0881C108.311 39.3948 108.124 38.5948 108.124 37.6881C108.124 36.7814 108.306 35.9868 108.668 35.3041C109.031 34.6214 109.538 34.0988 110.188 33.7361C110.85 33.3628 111.607 33.1761 112.46 33.1761C113.292 33.1761 114.028 33.3574 114.668 33.7201C115.308 34.0828 115.799 34.5841 116.14 35.2241C116.492 35.8534 116.668 36.5681 116.668 37.3681ZM115.164 37.0641C115.164 36.5094 115.042 36.0348 114.796 35.6401C114.551 35.2348 114.215 34.9308 113.788 34.7281C113.372 34.5148 112.908 34.4081 112.396 34.4081C111.66 34.4081 111.031 34.6428 110.508 35.1121C109.996 35.5814 109.703 36.2321 109.628 37.0641H115.164Z" fill="white"/>
<path d="M121.694 42.2321C121.022 42.2321 120.42 42.1201 119.886 41.8961C119.353 41.6614 118.932 41.3414 118.622 40.9361C118.313 40.5201 118.142 40.0454 118.11 39.5121H119.614C119.657 39.9494 119.86 40.3068 120.222 40.5841C120.596 40.8614 121.081 41.0001 121.678 41.0001C122.233 41.0001 122.67 40.8774 122.99 40.6321C123.31 40.3868 123.47 40.0774 123.47 39.7041C123.47 39.3201 123.3 39.0374 122.958 38.8561C122.617 38.6641 122.089 38.4774 121.374 38.2961C120.724 38.1254 120.19 37.9548 119.774 37.7841C119.369 37.6028 119.017 37.3414 118.718 37.0001C118.43 36.6481 118.286 36.1894 118.286 35.6241C118.286 35.1761 118.42 34.7654 118.686 34.3921C118.953 34.0188 119.332 33.7254 119.822 33.5121C120.313 33.2881 120.873 33.1761 121.502 33.1761C122.473 33.1761 123.257 33.4214 123.854 33.9121C124.452 34.4028 124.772 35.0748 124.814 35.9281H123.358C123.326 35.4694 123.14 35.1014 122.798 34.8241C122.468 34.5468 122.02 34.4081 121.454 34.4081C120.932 34.4081 120.516 34.5201 120.206 34.7441C119.897 34.9681 119.742 35.2614 119.742 35.6241C119.742 35.9121 119.833 36.1521 120.014 36.3441C120.206 36.5254 120.441 36.6748 120.718 36.7921C121.006 36.8988 121.401 37.0214 121.902 37.1601C122.532 37.3308 123.044 37.5014 123.438 37.6721C123.833 37.8321 124.169 38.0774 124.446 38.4081C124.734 38.7388 124.884 39.1708 124.894 39.7041C124.894 40.1841 124.761 40.6161 124.494 41.0001C124.228 41.3841 123.849 41.6881 123.358 41.9121C122.878 42.1254 122.324 42.2321 121.694 42.2321Z" fill="white"/>
<path d="M127.702 31.8961C127.424 31.8961 127.19 31.8001 126.998 31.6081C126.806 31.4161 126.71 31.1814 126.71 30.9041C126.71 30.6268 126.806 30.3921 126.998 30.2001C127.19 30.0081 127.424 29.9121 127.702 29.9121C127.968 29.9121 128.192 30.0081 128.374 30.2001C128.566 30.3921 128.662 30.6268 128.662 30.9041C128.662 31.1814 128.566 31.4161 128.374 31.6081C128.192 31.8001 127.968 31.8961 127.702 31.8961ZM128.406 33.3201V42.0881H126.95V33.3201H128.406Z" fill="white"/>
<path d="M134.503 33.1761C135.261 33.1761 135.922 33.3414 136.487 33.6721C137.063 34.0028 137.49 34.4188 137.767 34.9201V33.3201H139.239V42.2801C139.239 43.0801 139.069 43.7894 138.727 44.4081C138.386 45.0374 137.895 45.5281 137.255 45.8801C136.626 46.2321 135.89 46.4081 135.047 46.4081C133.895 46.4081 132.935 46.1361 132.167 45.5921C131.399 45.0481 130.946 44.3068 130.807 43.3681H132.247C132.407 43.9014 132.738 44.3281 133.239 44.6481C133.741 44.9788 134.343 45.1441 135.047 45.1441C135.847 45.1441 136.498 44.8934 136.999 44.3921C137.511 43.8908 137.767 43.1868 137.767 42.2801V40.4401C137.479 40.9521 137.053 41.3788 136.487 41.7201C135.922 42.0614 135.261 42.2321 134.503 42.2321C133.725 42.2321 133.015 42.0401 132.375 41.6561C131.746 41.2721 131.25 40.7334 130.887 40.0401C130.525 39.3468 130.343 38.5574 130.343 37.6721C130.343 36.7761 130.525 35.9921 130.887 35.3201C131.25 34.6374 131.746 34.1094 132.375 33.7361C133.015 33.3628 133.725 33.1761 134.503 33.1761ZM137.767 37.6881C137.767 37.0268 137.634 36.4508 137.367 35.9601C137.101 35.4694 136.738 35.0961 136.279 34.8401C135.831 34.5734 135.335 34.4401 134.791 34.4401C134.247 34.4401 133.751 34.5681 133.303 34.8241C132.855 35.0801 132.498 35.4534 132.231 35.9441C131.965 36.4348 131.831 37.0108 131.831 37.6721C131.831 38.3441 131.965 38.9308 132.231 39.4321C132.498 39.9228 132.855 40.3014 133.303 40.5681C133.751 40.8241 134.247 40.9521 134.791 40.9521C135.335 40.9521 135.831 40.8241 136.279 40.5681C136.738 40.3014 137.101 39.9228 137.367 39.4321C137.634 38.9308 137.767 38.3494 137.767 37.6881Z" fill="white"/>
<path d="M145.972 33.1601C147.038 33.1601 147.902 33.4854 148.564 34.1361C149.225 34.7761 149.556 35.7041 149.556 36.9201V42.0881H148.116V37.1281C148.116 36.2534 147.897 35.5868 147.46 35.1281C147.022 34.6588 146.425 34.4241 145.668 34.4241C144.9 34.4241 144.286 34.6641 143.828 35.1441C143.38 35.6241 143.156 36.3228 143.156 37.2401V42.0881H141.7V33.3201H143.156V34.5681C143.444 34.1201 143.833 33.7734 144.324 33.5281C144.825 33.2828 145.374 33.1601 145.972 33.1601Z" fill="white"/>
<path d="M159.736 42.2001C159 42.2001 158.338 42.0721 157.752 41.8161C157.176 41.5494 156.722 41.1868 156.392 40.7281C156.061 40.2588 155.89 39.7201 155.88 39.1121H157.432C157.485 39.6348 157.698 40.0774 158.072 40.4401C158.456 40.7921 159.01 40.9681 159.736 40.9681C160.429 40.9681 160.973 40.7974 161.368 40.4561C161.773 40.1041 161.976 39.6561 161.976 39.1121C161.976 38.6854 161.858 38.3388 161.624 38.0721C161.389 37.8054 161.096 37.6028 160.744 37.4641C160.392 37.3254 159.917 37.1761 159.32 37.0161C158.584 36.8241 157.992 36.6321 157.544 36.4401C157.106 36.2481 156.728 35.9494 156.408 35.5441C156.098 35.1281 155.944 34.5734 155.944 33.8801C155.944 33.2721 156.098 32.7334 156.408 32.2641C156.717 31.7948 157.149 31.4321 157.704 31.1761C158.269 30.9201 158.914 30.7921 159.64 30.7921C160.685 30.7921 161.538 31.0534 162.2 31.5761C162.872 32.0988 163.25 32.7921 163.336 33.6561H161.736C161.682 33.2294 161.458 32.8561 161.064 32.5361C160.669 32.2054 160.146 32.0401 159.496 32.0401C158.888 32.0401 158.392 32.2001 158.008 32.5201C157.624 32.8294 157.432 33.2668 157.432 33.8321C157.432 34.2374 157.544 34.5681 157.768 34.8241C158.002 35.0801 158.285 35.2774 158.616 35.4161C158.957 35.5441 159.432 35.6934 160.04 35.8641C160.776 36.0668 161.368 36.2694 161.816 36.4721C162.264 36.6641 162.648 36.9681 162.968 37.3841C163.288 37.7894 163.448 38.3441 163.448 39.0481C163.448 39.5921 163.304 40.1041 163.016 40.5841C162.728 41.0641 162.301 41.4534 161.736 41.7521C161.17 42.0508 160.504 42.2001 159.736 42.2001Z" fill="white"/>
<path d="M165.046 37.6881C165.046 36.7814 165.228 35.9921 165.59 35.3201C165.953 34.6374 166.454 34.1094 167.094 33.7361C167.745 33.3628 168.486 33.1761 169.318 33.1761C170.396 33.1761 171.281 33.4374 171.974 33.9601C172.678 34.4828 173.142 35.2081 173.366 36.1361H171.798C171.649 35.6028 171.356 35.1814 170.918 34.8721C170.492 34.5628 169.958 34.4081 169.318 34.4081C168.486 34.4081 167.814 34.6961 167.302 35.2721C166.79 35.8374 166.534 36.6428 166.534 37.6881C166.534 38.7441 166.79 39.5601 167.302 40.1361C167.814 40.7121 168.486 41.0001 169.318 41.0001C169.958 41.0001 170.492 40.8508 170.918 40.5521C171.345 40.2534 171.638 39.8268 171.798 39.2721H173.366C173.132 40.1681 172.662 40.8881 171.958 41.4321C171.254 41.9654 170.374 42.2321 169.318 42.2321C168.486 42.2321 167.745 42.0454 167.094 41.6721C166.454 41.2988 165.953 40.7708 165.59 40.0881C165.228 39.4054 165.046 38.6054 165.046 37.6881Z" fill="white"/>
<path d="M179.661 33.1601C180.322 33.1601 180.92 33.3041 181.453 33.5921C181.986 33.8694 182.402 34.2908 182.701 34.8561C183.01 35.4214 183.165 36.1094 183.165 36.9201V42.0881H181.725V37.1281C181.725 36.2534 181.506 35.5868 181.069 35.1281C180.632 34.6588 180.034 34.4241 179.277 34.4241C178.509 34.4241 177.896 34.6641 177.437 35.1441C176.989 35.6241 176.765 36.3228 176.765 37.2401V42.0881H175.309V30.2481H176.765V34.5681C177.053 34.1201 177.448 33.7734 177.949 33.5281C178.461 33.2828 179.032 33.1601 179.661 33.1601Z" fill="white"/>
<path d="M189.367 42.2321C188.546 42.2321 187.799 42.0454 187.127 41.6721C186.466 41.2988 185.943 40.7708 185.559 40.0881C185.186 39.3948 184.999 38.5948 184.999 37.6881C184.999 36.7921 185.191 36.0028 185.575 35.3201C185.97 34.6268 186.503 34.0988 187.175 33.7361C187.847 33.3628 188.599 33.1761 189.431 33.1761C190.263 33.1761 191.015 33.3628 191.687 33.7361C192.359 34.0988 192.887 34.6214 193.271 35.3041C193.666 35.9868 193.863 36.7814 193.863 37.6881C193.863 38.5948 193.661 39.3948 193.255 40.0881C192.861 40.7708 192.322 41.2988 191.639 41.6721C190.957 42.0454 190.199 42.2321 189.367 42.2321ZM189.367 40.9521C189.89 40.9521 190.381 40.8294 190.839 40.5841C191.298 40.3388 191.666 39.9708 191.943 39.4801C192.231 38.9894 192.375 38.3921 192.375 37.6881C192.375 36.9841 192.237 36.3868 191.959 35.8961C191.682 35.4054 191.319 35.0428 190.871 34.8081C190.423 34.5628 189.938 34.4401 189.415 34.4401C188.882 34.4401 188.391 34.5628 187.943 34.8081C187.506 35.0428 187.154 35.4054 186.887 35.8961C186.621 36.3868 186.487 36.9841 186.487 37.6881C186.487 38.4028 186.615 39.0054 186.871 39.4961C187.138 39.9868 187.49 40.3548 187.927 40.6001C188.365 40.8348 188.845 40.9521 189.367 40.9521Z" fill="white"/>
<path d="M199.602 42.2321C198.781 42.2321 198.034 42.0454 197.362 41.6721C196.701 41.2988 196.178 40.7708 195.794 40.0881C195.421 39.3948 195.234 38.5948 195.234 37.6881C195.234 36.7921 195.426 36.0028 195.81 35.3201C196.205 34.6268 196.738 34.0988 197.41 33.7361C198.082 33.3628 198.834 33.1761 199.666 33.1761C200.498 33.1761 201.25 33.3628 201.922 33.7361C202.594 34.0988 203.122 34.6214 203.506 35.3041C203.901 35.9868 204.098 36.7814 204.098 37.6881C204.098 38.5948 203.895 39.3948 203.49 40.0881C203.095 40.7708 202.557 41.2988 201.874 41.6721C201.191 42.0454 200.434 42.2321 199.602 42.2321ZM199.602 40.9521C200.125 40.9521 200.615 40.8294 201.074 40.5841C201.533 40.3388 201.901 39.9708 202.178 39.4801C202.466 38.9894 202.61 38.3921 202.61 37.6881C202.61 36.9841 202.471 36.3868 202.194 35.8961C201.917 35.4054 201.554 35.0428 201.106 34.8081C200.658 34.5628 200.173 34.4401 199.65 34.4401C199.117 34.4401 198.626 34.5628 198.178 34.8081C197.741 35.0428 197.389 35.4054 197.122 35.8961C196.855 36.3868 196.722 36.9841 196.722 37.6881C196.722 38.4028 196.85 39.0054 197.106 39.4961C197.373 39.9868 197.725 40.3548 198.162 40.6001C198.599 40.8348 199.079 40.9521 199.602 40.9521Z" fill="white"/>
<path d="M207.468 30.2481V42.0881H206.012V30.2481H207.468Z" fill="white"/>
</g>
</svg>
