<svg width="281" height="301" viewBox="0 0 281 301" fill="none" xmlns="http://www.w3.org/2000/svg">
<g filter="url(#filter0_d_833_64453)">
<rect x="6" y="28" width="269" height="265" rx="8" fill="white"/>
</g>
<path fill-rule="evenodd" clip-rule="evenodd" d="M42.4746 8C42.4746 3.58172 46.0563 0 50.4746 0H67.5297C71.9479 0 75.5297 3.58172 75.5297 8V28H199.771V8C199.771 3.58172 203.353 0 207.771 0H224.826C229.245 0 232.826 3.58172 232.826 8V28H267C271.418 28 275 31.5817 275 36V100H6V36C6 31.5817 9.58172 28 14 28H42.4746V8Z" fill="url(#paint0_linear_833_64453)"/>
<g filter="url(#filter1_d_833_64453)">
<path d="M6 36C6 31.5817 9.58172 28 14 28H267C271.418 28 275 31.5817 275 36V100H6V36Z" fill="url(#paint1_linear_833_64453)"/>
</g>
 <!-- Add the date text here -->
  <text x="50" y="200" font-size="20" fill="Black">Your Date Here</text>
<defs>
<filter id="filter0_d_833_64453" x="0" y="24" width="281" height="277" filterUnits="userSpaceOnUse" color-interpolation-filters="sRGB">
<feFlood flood-opacity="0" result="BackgroundImageFix"/>
<feColorMatrix in="SourceAlpha" type="matrix" values="0 0 0 0 0 0 0 0 0 0 0 0 0 0 0 0 0 0 127 0" result="hardAlpha"/>
<feOffset dy="2"/>
<feGaussianBlur stdDeviation="3"/>
<feComposite in2="hardAlpha" operator="out"/>
<feColorMatrix type="matrix" values="0 0 0 0 0 0 0 0 0 0 0 0 0 0 0 0 0 0 0.1 0"/>
<feBlend mode="normal" in2="BackgroundImageFix" result="effect1_dropShadow_833_64453"/>
<feBlend mode="normal" in="SourceGraphic" in2="effect1_dropShadow_833_64453" result="shape"/>
</filter>
<filter id="filter1_d_833_64453" x="0" y="24" width="281" height="84" filterUnits="userSpaceOnUse" color-interpolation-filters="sRGB">
<feFlood flood-opacity="0" result="BackgroundImageFix"/>
<feColorMatrix in="SourceAlpha" type="matrix" values="0 0 0 0 0 0 0 0 0 0 0 0 0 0 0 0 0 0 127 0" result="hardAlpha"/>
<feOffset dy="2"/>
<feGaussianBlur stdDeviation="3"/>
<feComposite in2="hardAlpha" operator="out"/>
<feColorMatrix type="matrix" values="0 0 0 0 0 0 0 0 0 0 0 0 0 0 0 0 0 0 0.1 0"/>
<feBlend mode="normal" in2="BackgroundImageFix" result="effect1_dropShadow_833_64453"/>
<feBlend mode="normal" in="SourceGraphic" in2="effect1_dropShadow_833_64453" result="shape"/>
</filter>
<linearGradient id="paint0_linear_833_64453" x1="237.34" y1="-29.0396" x2="190.779" y2="125.437" gradientUnits="userSpaceOnUse">
<stop stop-color="#7B115D"/>
<stop offset="1" stop-color="#591B76"/>
</linearGradient>
<linearGradient id="paint1_linear_833_64453" x1="237.34" y1="7.09147" x2="212.194" y2="122.962" gradientUnits="userSpaceOnUse">
<stop stop-color="#7B115D"/>
<stop offset="1" stop-color="#591B76"/>
</linearGradient>
</defs>
</svg>
