<svg width="281" height="108" viewBox="0 0 281 108" fill="none" xmlns="http://www.w3.org/2000/svg">
<path fill-rule="evenodd" clip-rule="evenodd" d="M42.4746 8C42.4746 3.58172 46.0563 0 50.4746 0H67.5297C71.9479 0 75.5297 3.58172 75.5297 8V28H199.771V8C199.771 3.58172 203.353 0 207.771 0H224.826C229.245 0 232.826 3.58172 232.826 8V28H267C271.418 28 275 31.5817 275 36V100H6V36C6 31.5817 9.58172 28 14 28H42.4746V8Z" fill="url(#paint0_linear_569_251)"/>
<g filter="url(#filter0_d_569_251)">
<path d="M6 36C6 31.5817 9.58172 28 14 28H267C271.418 28 275 31.5817 275 36V100H6V36Z" fill="url(#paint1_linear_569_251)"/>
<g clip-path="url(#clip0_569_251)">
<path d="M71 67C71 69.7614 68.7614 72 66 72C63.2386 72 61 69.7614 61 67C61 64.2386 63.2386 62 66 62C68.7614 62 71 64.2386 71 67Z" fill="#84ED9B"/>
<path d="M83.288 73.112C82.2533 73.112 81.3093 72.872 80.456 72.392C79.6027 71.9013 78.9253 71.224 78.424 70.36C77.9333 69.4853 77.688 68.504 77.688 67.416C77.688 66.328 77.9333 65.352 78.424 64.488C78.9253 63.6133 79.6027 62.936 80.456 62.456C81.3093 61.9653 82.2533 61.72 83.288 61.72C84.3333 61.72 85.2827 61.9653 86.136 62.456C86.9893 62.936 87.6613 63.608 88.152 64.472C88.6427 65.336 88.888 66.3173 88.888 67.416C88.888 68.5147 88.6427 69.496 88.152 70.36C87.6613 71.224 86.9893 71.9013 86.136 72.392C85.2827 72.872 84.3333 73.112 83.288 73.112ZM83.288 71.848C84.0667 71.848 84.7653 71.6667 85.384 71.304C86.0133 70.9413 86.504 70.424 86.856 69.752C87.2187 69.08 87.4 68.3013 87.4 67.416C87.4 66.52 87.2187 65.7413 86.856 65.08C86.504 64.408 86.0187 63.8907 85.4 63.528C84.7813 63.1653 84.0773 62.984 83.288 62.984C82.4987 62.984 81.7947 63.1653 81.176 63.528C80.5573 63.8907 80.0667 64.408 79.704 65.08C79.352 65.7413 79.176 66.52 79.176 67.416C79.176 68.3013 79.352 69.08 79.704 69.752C80.0667 70.424 80.5573 70.9413 81.176 71.304C81.8053 71.6667 82.5093 71.848 83.288 71.848ZM99.5781 73H98.1221L92.2661 64.12V73H90.8101V61.832H92.2661L98.1221 70.696V61.832H99.5781V73ZM103.516 71.816H107.42V73H102.06V61.848H103.516V71.816ZM110.422 61.848V73H108.966V61.848H110.422ZM121.672 73H120.216L114.36 64.12V73H112.904V61.832H114.36L120.216 70.696V61.832H121.672V73ZM125.61 63.032V66.76H129.674V67.96H125.61V71.8H130.154V73H124.154V61.832H130.154V63.032H125.61Z" fill="white"/>
</g>
<line x1="139.5" y1="71.2422" x2="139.5" y2="62.7569" stroke="#D0D0D0"/>
<path d="M163.248 61.848L160.016 73H158.384L155.792 64.024L153.104 73L151.488 73.016L148.368 61.848H149.92L152.352 71.304L155.04 61.848H156.672L159.232 71.272L161.68 61.848H163.248ZM166.297 63.032V66.76H170.361V67.96H166.297V71.8H170.841V73H164.841V61.832H170.841V63.032H166.297ZM174.501 63.032V66.76H178.565V67.96H174.501V71.8H179.045V73H173.045V61.832H179.045V63.032H174.501ZM187.296 73L182.704 67.912V73H181.248V61.848H182.704V67.016L187.312 61.848H189.152L184.096 67.432L189.2 73H187.296ZM192.282 63.032V66.76H196.346V67.96H192.282V71.8H196.826V73H190.826V61.832H196.826V63.032H192.282ZM207.797 73H206.341L200.485 64.12V73H199.029V61.832H200.485L206.341 70.696V61.832H207.797V73ZM213.751 61.848C214.967 61.848 216.018 62.0773 216.903 62.536C217.799 62.984 218.482 63.6293 218.951 64.472C219.431 65.3147 219.671 66.3067 219.671 67.448C219.671 68.5893 219.431 69.5813 218.951 70.424C218.482 71.256 217.799 71.896 216.903 72.344C216.018 72.7813 214.967 73 213.751 73H210.279V61.848H213.751ZM213.751 71.8C215.191 71.8 216.29 71.4213 217.047 70.664C217.804 69.896 218.183 68.824 218.183 67.448C218.183 66.0613 217.799 64.9787 217.031 64.2C216.274 63.4213 215.18 63.032 213.751 63.032H211.735V71.8H213.751Z" fill="white"/>
</g>
<defs>
<filter id="filter0_d_569_251" x="0" y="24" width="281" height="84" filterUnits="userSpaceOnUse" color-interpolation-filters="sRGB">
<feFlood flood-opacity="0" result="BackgroundImageFix"/>
<feColorMatrix in="SourceAlpha" type="matrix" values="0 0 0 0 0 0 0 0 0 0 0 0 0 0 0 0 0 0 127 0" result="hardAlpha"/>
<feOffset dy="2"/>
<feGaussianBlur stdDeviation="3"/>
<feComposite in2="hardAlpha" operator="out"/>
<feColorMatrix type="matrix" values="0 0 0 0 0 0 0 0 0 0 0 0 0 0 0 0 0 0 0.1 0"/>
<feBlend mode="normal" in2="BackgroundImageFix" result="effect1_dropShadow_569_251"/>
<feBlend mode="normal" in="SourceGraphic" in2="effect1_dropShadow_569_251" result="shape"/>
</filter>
<linearGradient id="paint0_linear_569_251" x1="237.34" y1="-29.0396" x2="190.779" y2="125.437" gradientUnits="userSpaceOnUse">
<stop stop-color="#7B115D"/>
<stop offset="1" stop-color="#591B76"/>
</linearGradient>
<linearGradient id="paint1_linear_569_251" x1="237.34" y1="7.09147" x2="212.194" y2="122.962" gradientUnits="userSpaceOnUse">
<stop stop-color="#7B115D"/>
<stop offset="1" stop-color="#591B76"/>
</linearGradient>
<clipPath id="clip0_569_251">
<rect x="61" y="55" width="71" height="24" rx="4" fill="white"/>
</clipPath>
</defs>
</svg>
