<svg width="338" height="272" viewBox="0 0 338 272" fill="none" xmlns="http://www.w3.org/2000/svg">
<g filter="url(#filter0_d_569_418)">
<rect x="6" y="4" width="326" height="260" rx="8" fill="white"/>
<rect x="30" y="28" width="60" height="30" rx="15" fill="#84ED9B"/>
<path d="M44.716 47.084C43.932 47.084 43.212 46.9 42.556 46.532C41.9 46.164 41.38 45.656 40.996 45.008C40.612 44.352 40.42 43.612 40.42 42.788C40.42 41.972 40.612 41.24 40.996 40.592C41.38 39.936 41.9 39.424 42.556 39.056C43.212 38.688 43.932 38.504 44.716 38.504C45.508 38.504 46.228 38.688 46.876 39.056C47.532 39.424 48.048 39.936 48.424 40.592C48.808 41.24 49 41.972 49 42.788C49 43.612 48.808 44.352 48.424 45.008C48.048 45.656 47.532 46.164 46.876 46.532C46.22 46.9 45.5 47.084 44.716 47.084ZM44.716 45.584C45.22 45.584 45.664 45.472 46.048 45.248C46.432 45.016 46.732 44.688 46.948 44.264C47.164 43.84 47.272 43.348 47.272 42.788C47.272 42.228 47.164 41.74 46.948 41.324C46.732 40.9 46.432 40.576 46.048 40.352C45.664 40.128 45.22 40.016 44.716 40.016C44.212 40.016 43.764 40.128 43.372 40.352C42.988 40.576 42.688 40.9 42.472 41.324C42.256 41.74 42.148 42.228 42.148 42.788C42.148 43.348 42.256 43.84 42.472 44.264C42.688 44.688 42.988 45.016 43.372 45.248C43.764 45.472 44.212 45.584 44.716 45.584ZM53.9339 40.256C54.7259 40.256 55.3659 40.508 55.8539 41.012C56.3419 41.508 56.5859 42.204 56.5859 43.1V47H54.9059V43.328C54.9059 42.8 54.7739 42.396 54.5099 42.116C54.2459 41.828 53.8859 41.684 53.4299 41.684C52.9659 41.684 52.5979 41.828 52.3259 42.116C52.0619 42.396 51.9299 42.8 51.9299 43.328V47H50.2499V40.352H51.9299V41.18C52.1539 40.892 52.4379 40.668 52.7819 40.508C53.1339 40.34 53.5179 40.256 53.9339 40.256ZM59.8635 38.12V47H58.1835V38.12H59.8635ZM62.3753 39.56C62.0793 39.56 61.8313 39.468 61.6313 39.284C61.4393 39.092 61.3433 38.856 61.3433 38.576C61.3433 38.296 61.4393 38.064 61.6313 37.88C61.8313 37.688 62.0793 37.592 62.3753 37.592C62.6713 37.592 62.9153 37.688 63.1073 37.88C63.3073 38.064 63.4073 38.296 63.4073 38.576C63.4073 38.856 63.3073 39.092 63.1073 39.284C62.9153 39.468 62.6713 39.56 62.3753 39.56ZM63.2033 40.352V47H61.5233V40.352H63.2033ZM68.5472 40.256C69.3392 40.256 69.9792 40.508 70.4672 41.012C70.9552 41.508 71.1992 42.204 71.1992 43.1V47H69.5192V43.328C69.5192 42.8 69.3872 42.396 69.1232 42.116C68.8592 41.828 68.4992 41.684 68.0432 41.684C67.5792 41.684 67.2112 41.828 66.9392 42.116C66.6752 42.396 66.5432 42.8 66.5432 43.328V47H64.8632V40.352H66.5432V41.18C66.7672 40.892 67.0512 40.668 67.3952 40.508C67.7472 40.34 68.1312 40.256 68.5472 40.256ZM78.9768 43.532C78.9768 43.772 78.9608 43.988 78.9288 44.18H74.0688C74.1088 44.66 74.2768 45.036 74.5728 45.308C74.8688 45.58 75.2328 45.716 75.6648 45.716C76.2888 45.716 76.7328 45.448 76.9968 44.912H78.8088C78.6168 45.552 78.2488 46.08 77.7048 46.496C77.1608 46.904 76.4928 47.108 75.7008 47.108C75.0608 47.108 74.4848 46.968 73.9728 46.688C73.4688 46.4 73.0728 45.996 72.7848 45.476C72.5048 44.956 72.3647 44.356 72.3647 43.676C72.3647 42.988 72.5048 42.384 72.7848 41.864C73.0648 41.344 73.4568 40.944 73.9608 40.664C74.4648 40.384 75.0448 40.244 75.7008 40.244C76.3328 40.244 76.8968 40.38 77.3928 40.652C77.8968 40.924 78.2848 41.312 78.5568 41.816C78.8368 42.312 78.9768 42.884 78.9768 43.532ZM77.2368 43.052C77.2288 42.62 77.0728 42.276 76.7688 42.02C76.4648 41.756 76.0928 41.624 75.6528 41.624C75.2368 41.624 74.8848 41.752 74.5968 42.008C74.3168 42.256 74.1448 42.604 74.0808 43.052H77.2368Z" fill="#333333"/>
<path d="M123.64 36.99L119.932 49.5H117.61L114.982 40.032L112.192 49.5L109.888 49.518L106.342 36.99H108.52L111.112 47.178L113.92 36.99H116.224L118.834 47.124L121.444 36.99H123.64ZM127.384 38.646V42.318H131.704V43.992H127.384V47.826H132.244V49.5H125.332V36.972H132.244V38.646H127.384ZM136.824 38.646V42.318H141.144V43.992H136.824V47.826H141.684V49.5H134.772V36.972H141.684V38.646H136.824ZM151.105 49.5L146.263 43.902V49.5H144.211V36.99H146.263V42.696L151.123 36.99H153.697L148.261 43.254L153.787 49.5H151.105ZM157.654 38.646V42.318H161.974V43.992H157.654V47.826H162.514V49.5H155.602V36.972H162.514V38.646H157.654ZM175.319 49.5H173.267L167.093 40.158V49.5H165.041V36.972H167.093L173.267 46.296V36.972H175.319V49.5ZM182.1 36.99C183.432 36.99 184.596 37.248 185.592 37.764C186.6 38.268 187.374 39 187.914 39.96C188.466 40.908 188.742 42.018 188.742 43.29C188.742 44.562 188.466 45.666 187.914 46.602C187.374 47.538 186.6 48.258 185.592 48.762C184.596 49.254 183.432 49.5 182.1 49.5H178.014V36.99H182.1ZM182.1 47.826C183.564 47.826 184.686 47.43 185.466 46.638C186.246 45.846 186.636 44.73 186.636 43.29C186.636 41.838 186.246 40.704 185.466 39.888C184.686 39.072 183.564 38.664 182.1 38.664H180.066V47.826H182.1Z" fill="#333333"/>
<path d="M41.376 122.252C39.528 122.252 37.872 121.952 36.408 121.352C34.944 120.752 33.768 119.864 32.88 118.688C32.016 117.512 31.56 116.096 31.512 114.44H38.064C38.16 115.376 38.484 116.096 39.036 116.6C39.588 117.08 40.308 117.32 41.196 117.32C42.108 117.32 42.828 117.116 43.356 116.708C43.884 116.276 44.148 115.688 44.148 114.944C44.148 114.32 43.932 113.804 43.5 113.396C43.092 112.988 42.576 112.652 41.952 112.388C41.352 112.124 40.488 111.824 39.36 111.488C37.728 110.984 36.396 110.48 35.364 109.976C34.332 109.472 33.444 108.728 32.7 107.744C31.956 106.76 31.584 105.476 31.584 103.892C31.584 101.54 32.436 99.704 34.14 98.384C35.844 97.04 38.064 96.368 40.8 96.368C43.584 96.368 45.828 97.04 47.532 98.384C49.236 99.704 50.148 101.552 50.268 103.928H43.608C43.56 103.112 43.26 102.476 42.708 102.02C42.156 101.54 41.448 101.3 40.584 101.3C39.84 101.3 39.24 101.504 38.784 101.912C38.328 102.296 38.1 102.86 38.1 103.604C38.1 104.42 38.484 105.056 39.252 105.512C40.02 105.968 41.22 106.46 42.852 106.988C44.484 107.54 45.804 108.068 46.812 108.572C47.844 109.076 48.732 109.808 49.476 110.768C50.22 111.728 50.592 112.964 50.592 114.476C50.592 115.916 50.22 117.224 49.476 118.4C48.756 119.576 47.7 120.512 46.308 121.208C44.916 121.904 43.272 122.252 41.376 122.252ZM60.5364 101.66V106.772H68.7804V111.524H60.5364V117.068H69.8604V122H54.3804V96.728H69.8604V101.66H60.5364ZM93.117 104.864C93.117 106.328 92.781 107.672 92.109 108.896C91.437 110.096 90.405 111.068 89.013 111.812C87.621 112.556 85.893 112.928 83.829 112.928H80.013V122H73.857V96.728H83.829C85.845 96.728 87.549 97.076 88.941 97.772C90.333 98.468 91.377 99.428 92.073 100.652C92.769 101.876 93.117 103.28 93.117 104.864ZM83.361 108.032C84.537 108.032 85.413 107.756 85.989 107.204C86.565 106.652 86.853 105.872 86.853 104.864C86.853 103.856 86.565 103.076 85.989 102.524C85.413 101.972 84.537 101.696 83.361 101.696H80.013V108.032H83.361ZM114.502 96.728V101.66H107.806V122H101.65V101.66H94.9538V96.728H114.502ZM123.747 101.66V106.772H131.991V111.524H123.747V117.068H133.071V122H117.591V96.728H133.071V101.66H123.747ZM165.688 96.728V122H159.532V106.844L153.88 122H148.912L143.224 106.808V122H137.068V96.728H144.34L151.432 114.224L158.452 96.728H165.688ZM185.415 109.04C186.879 109.352 188.055 110.084 188.943 111.236C189.831 112.364 190.275 113.66 190.275 115.124C190.275 117.236 189.531 118.916 188.043 120.164C186.579 121.388 184.527 122 181.887 122H170.115V96.728H181.491C184.059 96.728 186.063 97.316 187.503 98.492C188.967 99.668 189.699 101.264 189.699 103.28C189.699 104.768 189.303 106.004 188.511 106.988C187.743 107.972 186.711 108.656 185.415 109.04ZM176.271 106.952H180.303C181.311 106.952 182.079 106.736 182.607 106.304C183.159 105.848 183.435 105.188 183.435 104.324C183.435 103.46 183.159 102.8 182.607 102.344C182.079 101.888 181.311 101.66 180.303 101.66H176.271V106.952ZM180.807 117.032C181.839 117.032 182.631 116.804 183.183 116.348C183.759 115.868 184.047 115.184 184.047 114.296C184.047 113.408 183.747 112.712 183.147 112.208C182.571 111.704 181.767 111.452 180.735 111.452H176.271V117.032H180.807ZM200.001 101.66V106.772H208.245V111.524H200.001V117.068H209.325V122H193.845V96.728H209.325V101.66H200.001ZM226.21 122L220.954 112.46H219.478V122H213.322V96.728H223.654C225.646 96.728 227.338 97.076 228.73 97.772C230.146 98.468 231.202 99.428 231.898 100.652C232.594 101.852 232.942 103.196 232.942 104.684C232.942 106.364 232.462 107.864 231.502 109.184C230.566 110.504 229.174 111.44 227.326 111.992L233.158 122H226.21ZM219.478 108.104H223.294C224.422 108.104 225.262 107.828 225.814 107.276C226.39 106.724 226.678 105.944 226.678 104.936C226.678 103.976 226.39 103.22 225.814 102.668C225.262 102.116 224.422 101.84 223.294 101.84H219.478V108.104ZM243.175 101.444V95.72H253.147V122H246.739V101.444H243.175ZM257.358 108.5C257.358 104.372 258.15 101.12 259.734 98.744C261.342 96.368 263.922 95.18 267.474 95.18C271.026 95.18 273.594 96.368 275.178 98.744C276.786 101.12 277.59 104.372 277.59 108.5C277.59 112.676 276.786 115.952 275.178 118.328C273.594 120.704 271.026 121.892 267.474 121.892C263.922 121.892 261.342 120.704 259.734 118.328C258.15 115.952 257.358 112.676 257.358 108.5ZM271.542 108.5C271.542 106.076 271.278 104.216 270.75 102.92C270.222 101.6 269.13 100.94 267.474 100.94C265.818 100.94 264.726 101.6 264.198 102.92C263.67 104.216 263.406 106.076 263.406 108.5C263.406 110.132 263.502 111.488 263.694 112.568C263.886 113.624 264.27 114.488 264.846 115.16C265.446 115.808 266.322 116.132 267.474 116.132C268.626 116.132 269.49 115.808 270.066 115.16C270.666 114.488 271.062 113.624 271.254 112.568C271.446 111.488 271.542 110.132 271.542 108.5Z" fill="#591B76"/>
<path d="M30.576 144.4V142.336H34.432V154H32.128V144.4H30.576ZM37.6049 148.016C37.6049 146.171 37.9355 144.725 38.5969 143.68C39.2689 142.635 40.3782 142.112 41.9249 142.112C43.4715 142.112 44.5755 142.635 45.2369 143.68C45.9089 144.725 46.2449 146.171 46.2449 148.016C46.2449 149.872 45.9089 151.328 45.2369 152.384C44.5755 153.44 43.4715 153.968 41.9249 153.968C40.3782 153.968 39.2689 153.44 38.5969 152.384C37.9355 151.328 37.6049 149.872 37.6049 148.016ZM44.0369 148.016C44.0369 147.227 43.9835 146.565 43.8769 146.032C43.7809 145.488 43.5782 145.045 43.2689 144.704C42.9702 144.363 42.5222 144.192 41.9249 144.192C41.3275 144.192 40.8742 144.363 40.5649 144.704C40.2662 145.045 40.0635 145.488 39.9569 146.032C39.8609 146.565 39.8129 147.227 39.8129 148.016C39.8129 148.827 39.8609 149.509 39.9569 150.064C40.0529 150.608 40.2555 151.051 40.5649 151.392C40.8742 151.723 41.3275 151.888 41.9249 151.888C42.5222 151.888 42.9755 151.723 43.2849 151.392C43.5942 151.051 43.7969 150.608 43.8929 150.064C43.9889 149.509 44.0369 148.827 44.0369 148.016ZM53.3611 149.536C53.3611 148.64 53.5371 147.845 53.8891 147.152C54.2518 146.459 54.7371 145.925 55.3451 145.552C55.9638 145.179 56.6518 144.992 57.4091 144.992C58.0705 144.992 58.6465 145.125 59.1371 145.392C59.6385 145.659 60.0385 145.995 60.3371 146.4V145.136H62.5931V154H60.3371V152.704C60.0491 153.12 59.6491 153.467 59.1371 153.744C58.6358 154.011 58.0545 154.144 57.3931 154.144C56.6465 154.144 55.9638 153.952 55.3451 153.568C54.7371 153.184 54.2518 152.645 53.8891 151.952C53.5371 151.248 53.3611 150.443 53.3611 149.536ZM60.3371 149.568C60.3371 149.024 60.2305 148.56 60.0171 148.176C59.8038 147.781 59.5158 147.483 59.1531 147.28C58.7905 147.067 58.4011 146.96 57.9851 146.96C57.5691 146.96 57.1851 147.061 56.8331 147.264C56.4811 147.467 56.1931 147.765 55.9691 148.16C55.7558 148.544 55.6491 149.003 55.6491 149.536C55.6491 150.069 55.7558 150.539 55.9691 150.944C56.1931 151.339 56.4811 151.643 56.8331 151.856C57.1958 152.069 57.5798 152.176 57.9851 152.176C58.4011 152.176 58.7905 152.075 59.1531 151.872C59.5158 151.659 59.8038 151.36 60.0171 150.976C60.2305 150.581 60.3371 150.112 60.3371 149.568ZM76.7489 145.008C77.8369 145.008 78.7115 145.344 79.3729 146.016C80.0449 146.677 80.3809 147.605 80.3809 148.8V154H78.1409V149.104C78.1409 148.411 77.9649 147.883 77.6129 147.52C77.2609 147.147 76.7809 146.96 76.1729 146.96C75.5649 146.96 75.0795 147.147 74.7169 147.52C74.3649 147.883 74.1889 148.411 74.1889 149.104V154H71.9489V149.104C71.9489 148.411 71.7729 147.883 71.4209 147.52C71.0689 147.147 70.5889 146.96 69.9809 146.96C69.3622 146.96 68.8715 147.147 68.5089 147.52C68.1569 147.883 67.9809 148.411 67.9809 149.104V154H65.7409V145.136H67.9809V146.208C68.2689 145.835 68.6369 145.541 69.0849 145.328C69.5435 145.115 70.0449 145.008 70.5889 145.008C71.2822 145.008 71.9009 145.157 72.4449 145.456C72.9889 145.744 73.4102 146.16 73.7089 146.704C73.9969 146.192 74.4129 145.781 74.9569 145.472C75.5115 145.163 76.1089 145.008 76.7489 145.008ZM95.055 147.344V149.232H88.271V147.344H95.055ZM103.748 151.472C104.772 150.619 105.588 149.909 106.196 149.344C106.804 148.768 107.31 148.171 107.716 147.552C108.121 146.933 108.324 146.325 108.324 145.728C108.324 145.184 108.196 144.757 107.94 144.448C107.684 144.139 107.289 143.984 106.756 143.984C106.222 143.984 105.812 144.165 105.524 144.528C105.236 144.88 105.086 145.365 105.076 145.984H102.9C102.942 144.704 103.321 143.733 104.036 143.072C104.761 142.411 105.678 142.08 106.788 142.08C108.004 142.08 108.937 142.405 109.588 143.056C110.238 143.696 110.564 144.544 110.564 145.6C110.564 146.432 110.34 147.227 109.892 147.984C109.444 148.741 108.932 149.403 108.356 149.968C107.78 150.523 107.028 151.195 106.1 151.984H110.82V153.84H102.916V152.176L103.748 151.472ZM120.46 146.416C120.748 146.011 121.142 145.675 121.644 145.408C122.156 145.131 122.737 144.992 123.388 144.992C124.145 144.992 124.828 145.179 125.436 145.552C126.054 145.925 126.54 146.459 126.892 147.152C127.254 147.835 127.436 148.629 127.436 149.536C127.436 150.443 127.254 151.248 126.892 151.952C126.54 152.645 126.054 153.184 125.436 153.568C124.828 153.952 124.145 154.144 123.388 154.144C122.737 154.144 122.161 154.011 121.66 153.744C121.169 153.477 120.769 153.141 120.46 152.736V158.224H118.22V145.136H120.46V146.416ZM125.148 149.536C125.148 149.003 125.036 148.544 124.812 148.16C124.598 147.765 124.31 147.467 123.948 147.264C123.596 147.061 123.212 146.96 122.796 146.96C122.39 146.96 122.006 147.067 121.644 147.28C121.292 147.483 121.004 147.781 120.78 148.176C120.566 148.571 120.46 149.035 120.46 149.568C120.46 150.101 120.566 150.565 120.78 150.96C121.004 151.355 121.292 151.659 121.644 151.872C122.006 152.075 122.39 152.176 122.796 152.176C123.212 152.176 123.596 152.069 123.948 151.856C124.31 151.643 124.598 151.339 124.812 150.944C125.036 150.549 125.148 150.08 125.148 149.536ZM141.031 145.008C142.119 145.008 142.994 145.344 143.655 146.016C144.327 146.677 144.663 147.605 144.663 148.8V154H142.423V149.104C142.423 148.411 142.247 147.883 141.895 147.52C141.543 147.147 141.063 146.96 140.455 146.96C139.847 146.96 139.362 147.147 138.999 147.52C138.647 147.883 138.471 148.411 138.471 149.104V154H136.231V149.104C136.231 148.411 136.055 147.883 135.703 147.52C135.351 147.147 134.871 146.96 134.263 146.96C133.645 146.96 133.154 147.147 132.791 147.52C132.439 147.883 132.263 148.411 132.263 149.104V154H130.023V145.136H132.263V146.208C132.551 145.835 132.919 145.541 133.367 145.328C133.826 145.115 134.327 145.008 134.871 145.008C135.565 145.008 136.183 145.157 136.727 145.456C137.271 145.744 137.693 146.16 137.991 146.704C138.279 146.192 138.695 145.781 139.239 145.472C139.794 145.163 140.391 145.008 141.031 145.008Z" fill="#B01873"/>
<rect x="30.5" y="200.5" width="277" height="39" rx="5.5" fill="url(#paint0_linear_569_418)"/>
<path d="M96.364 226L93.9 221.648H92.844V226H90.604V214.832H94.796C95.66 214.832 96.396 214.987 97.004 215.296C97.612 215.595 98.0653 216.005 98.364 216.528C98.6733 217.04 98.828 217.616 98.828 218.256C98.828 218.992 98.6147 219.659 98.188 220.256C97.7613 220.843 97.1267 221.248 96.284 221.472L98.956 226H96.364ZM92.844 219.968H94.716C95.324 219.968 95.7773 219.824 96.076 219.536C96.3747 219.237 96.524 218.827 96.524 218.304C96.524 217.792 96.3747 217.397 96.076 217.12C95.7773 216.832 95.324 216.688 94.716 216.688H92.844V219.968ZM109.094 221.376C109.094 221.696 109.073 221.984 109.03 222.24H102.55C102.603 222.88 102.827 223.381 103.222 223.744C103.617 224.107 104.102 224.288 104.678 224.288C105.51 224.288 106.102 223.931 106.454 223.216H108.87C108.614 224.069 108.123 224.773 107.398 225.328C106.673 225.872 105.782 226.144 104.726 226.144C103.873 226.144 103.105 225.957 102.422 225.584C101.75 225.2 101.222 224.661 100.838 223.968C100.465 223.275 100.278 222.475 100.278 221.568C100.278 220.651 100.465 219.845 100.838 219.152C101.211 218.459 101.734 217.925 102.406 217.552C103.078 217.179 103.851 216.992 104.726 216.992C105.569 216.992 106.321 217.173 106.982 217.536C107.654 217.899 108.171 218.416 108.534 219.088C108.907 219.749 109.094 220.512 109.094 221.376ZM106.774 220.736C106.763 220.16 106.555 219.701 106.15 219.36C105.745 219.008 105.249 218.832 104.662 218.832C104.107 218.832 103.638 219.003 103.254 219.344C102.881 219.675 102.651 220.139 102.566 220.736H106.774ZM110.153 221.552C110.153 220.667 110.334 219.883 110.697 219.2C111.07 218.507 111.572 217.968 112.201 217.584C112.83 217.2 113.524 217.008 114.281 217.008C114.91 217.008 115.465 217.131 115.945 217.376C116.436 217.611 116.83 217.915 117.129 218.288V217.136H119.385V230.224H117.129V224.784C116.83 225.168 116.43 225.488 115.929 225.744C115.428 226 114.862 226.128 114.233 226.128C113.486 226.128 112.798 225.936 112.169 225.552C111.55 225.157 111.06 224.613 110.697 223.92C110.334 223.227 110.153 222.437 110.153 221.552ZM117.129 221.568C117.129 221.024 117.017 220.555 116.793 220.16C116.569 219.765 116.276 219.467 115.913 219.264C115.561 219.061 115.182 218.96 114.777 218.96C114.382 218.96 114.004 219.061 113.641 219.264C113.289 219.467 113.001 219.765 112.777 220.16C112.553 220.544 112.441 221.008 112.441 221.552C112.441 222.096 112.553 222.571 112.777 222.976C113.001 223.371 113.289 223.669 113.641 223.872C114.004 224.075 114.382 224.176 114.777 224.176C115.182 224.176 115.561 224.075 115.913 223.872C116.276 223.669 116.569 223.371 116.793 222.976C117.017 222.581 117.129 222.112 117.129 221.568ZM129.941 217.136V226H127.685V224.88C127.397 225.264 127.018 225.568 126.549 225.792C126.09 226.005 125.589 226.112 125.045 226.112C124.351 226.112 123.738 225.968 123.205 225.68C122.671 225.381 122.25 224.949 121.941 224.384C121.642 223.808 121.493 223.125 121.493 222.336V217.136H123.733V222.016C123.733 222.72 123.909 223.264 124.261 223.648C124.613 224.021 125.093 224.208 125.701 224.208C126.319 224.208 126.805 224.021 127.157 223.648C127.509 223.264 127.685 222.72 127.685 222.016V217.136H129.941ZM140.391 221.376C140.391 221.696 140.37 221.984 140.327 222.24H133.847C133.9 222.88 134.124 223.381 134.519 223.744C134.914 224.107 135.399 224.288 135.975 224.288C136.807 224.288 137.399 223.931 137.751 223.216H140.167C139.911 224.069 139.42 224.773 138.695 225.328C137.97 225.872 137.079 226.144 136.023 226.144C135.17 226.144 134.402 225.957 133.719 225.584C133.047 225.2 132.519 224.661 132.135 223.968C131.762 223.275 131.575 222.475 131.575 221.568C131.575 220.651 131.762 219.845 132.135 219.152C132.508 218.459 133.031 217.925 133.703 217.552C134.375 217.179 135.148 216.992 136.023 216.992C136.866 216.992 137.618 217.173 138.279 217.536C138.951 217.899 139.468 218.416 139.831 219.088C140.204 219.749 140.391 220.512 140.391 221.376ZM138.071 220.736C138.06 220.16 137.852 219.701 137.447 219.36C137.042 219.008 136.546 218.832 135.959 218.832C135.404 218.832 134.935 219.003 134.551 219.344C134.178 219.675 133.948 220.139 133.863 220.736H138.071ZM145.418 226.144C144.693 226.144 144.042 226.016 143.466 225.76C142.89 225.493 142.431 225.136 142.09 224.688C141.759 224.24 141.578 223.744 141.546 223.2H143.802C143.845 223.541 144.01 223.824 144.298 224.048C144.597 224.272 144.965 224.384 145.402 224.384C145.829 224.384 146.159 224.299 146.394 224.128C146.639 223.957 146.762 223.739 146.762 223.472C146.762 223.184 146.613 222.971 146.314 222.832C146.026 222.683 145.562 222.523 144.922 222.352C144.261 222.192 143.717 222.027 143.29 221.856C142.874 221.685 142.511 221.424 142.202 221.072C141.903 220.72 141.754 220.245 141.754 219.648C141.754 219.157 141.893 218.709 142.17 218.304C142.458 217.899 142.863 217.579 143.386 217.344C143.919 217.109 144.543 216.992 145.258 216.992C146.314 216.992 147.157 217.259 147.786 217.792C148.415 218.315 148.762 219.024 148.826 219.92H146.682C146.65 219.568 146.501 219.291 146.234 219.088C145.978 218.875 145.631 218.768 145.194 218.768C144.789 218.768 144.474 218.843 144.25 218.992C144.037 219.141 143.93 219.349 143.93 219.616C143.93 219.915 144.079 220.144 144.378 220.304C144.677 220.453 145.141 220.608 145.77 220.768C146.41 220.928 146.938 221.093 147.354 221.264C147.77 221.435 148.127 221.701 148.426 222.064C148.735 222.416 148.895 222.885 148.906 223.472C148.906 223.984 148.762 224.443 148.474 224.848C148.197 225.253 147.791 225.573 147.258 225.808C146.735 226.032 146.122 226.144 145.418 226.144ZM153.353 218.976V223.264C153.353 223.563 153.422 223.781 153.561 223.92C153.71 224.048 153.955 224.112 154.297 224.112H155.337V226H153.929C152.041 226 151.097 225.083 151.097 223.248V218.976H150.041V217.136H151.097V214.944H153.353V217.136H155.337V218.976H153.353ZM160.184 221.536C160.184 220.64 160.36 219.845 160.712 219.152C161.075 218.459 161.56 217.925 162.168 217.552C162.787 217.179 163.475 216.992 164.232 216.992C164.894 216.992 165.47 217.125 165.96 217.392C166.462 217.659 166.862 217.995 167.16 218.4V217.136H169.416V226H167.16V224.704C166.872 225.12 166.472 225.467 165.96 225.744C165.459 226.011 164.878 226.144 164.216 226.144C163.47 226.144 162.787 225.952 162.168 225.568C161.56 225.184 161.075 224.645 160.712 223.952C160.36 223.248 160.184 222.443 160.184 221.536ZM167.16 221.568C167.16 221.024 167.054 220.56 166.84 220.176C166.627 219.781 166.339 219.483 165.976 219.28C165.614 219.067 165.224 218.96 164.808 218.96C164.392 218.96 164.008 219.061 163.656 219.264C163.304 219.467 163.016 219.765 162.792 220.16C162.579 220.544 162.472 221.003 162.472 221.536C162.472 222.069 162.579 222.539 162.792 222.944C163.016 223.339 163.304 223.643 163.656 223.856C164.019 224.069 164.403 224.176 164.808 224.176C165.224 224.176 165.614 224.075 165.976 223.872C166.339 223.659 166.627 223.36 166.84 222.976C167.054 222.581 167.16 222.112 167.16 221.568ZM174.84 221.568C174.84 220.651 175.027 219.851 175.401 219.168C175.774 218.475 176.291 217.941 176.953 217.568C177.614 217.184 178.371 216.992 179.225 216.992C180.323 216.992 181.23 217.269 181.945 217.824C182.67 218.368 183.155 219.136 183.401 220.128H180.985C180.857 219.744 180.638 219.445 180.329 219.232C180.03 219.008 179.657 218.896 179.209 218.896C178.569 218.896 178.062 219.131 177.689 219.6C177.315 220.059 177.129 220.715 177.129 221.568C177.129 222.411 177.315 223.067 177.689 223.536C178.062 223.995 178.569 224.224 179.209 224.224C180.115 224.224 180.707 223.819 180.985 223.008H183.401C183.155 223.968 182.67 224.731 181.945 225.296C181.219 225.861 180.313 226.144 179.225 226.144C178.371 226.144 177.614 225.957 176.953 225.584C176.291 225.2 175.774 224.667 175.401 223.984C175.027 223.291 174.84 222.485 174.84 221.568ZM184.465 221.536C184.465 220.64 184.641 219.845 184.993 219.152C185.356 218.459 185.842 217.925 186.45 217.552C187.068 217.179 187.756 216.992 188.514 216.992C189.175 216.992 189.751 217.125 190.242 217.392C190.743 217.659 191.143 217.995 191.442 218.4V217.136H193.698V226H191.442V224.704C191.154 225.12 190.754 225.467 190.242 225.744C189.74 226.011 189.159 226.144 188.498 226.144C187.751 226.144 187.068 225.952 186.45 225.568C185.842 225.184 185.356 224.645 184.993 223.952C184.641 223.248 184.465 222.443 184.465 221.536ZM191.442 221.568C191.442 221.024 191.335 220.56 191.122 220.176C190.908 219.781 190.62 219.483 190.258 219.28C189.895 219.067 189.506 218.96 189.09 218.96C188.674 218.96 188.29 219.061 187.938 219.264C187.586 219.467 187.298 219.765 187.074 220.16C186.86 220.544 186.754 221.003 186.754 221.536C186.754 222.069 186.86 222.539 187.074 222.944C187.298 223.339 187.586 223.643 187.938 223.856C188.3 224.069 188.684 224.176 189.09 224.176C189.506 224.176 189.895 224.075 190.258 223.872C190.62 223.659 190.908 223.36 191.122 222.976C191.335 222.581 191.442 222.112 191.442 221.568ZM198.125 214.16V226H195.885V214.16H198.125ZM202.578 214.16V226H200.338V214.16H202.578ZM210.844 218.432C211.132 218.005 211.527 217.659 212.028 217.392C212.54 217.125 213.121 216.992 213.772 216.992C214.529 216.992 215.212 217.179 215.82 217.552C216.439 217.925 216.924 218.459 217.276 219.152C217.639 219.835 217.82 220.629 217.82 221.536C217.82 222.443 217.639 223.248 217.276 223.952C216.924 224.645 216.439 225.184 215.82 225.568C215.212 225.952 214.529 226.144 213.772 226.144C213.111 226.144 212.529 226.016 212.028 225.76C211.537 225.493 211.143 225.152 210.844 224.736V226H208.604V214.16H210.844V218.432ZM215.532 221.536C215.532 221.003 215.42 220.544 215.196 220.16C214.983 219.765 214.695 219.467 214.332 219.264C213.98 219.061 213.596 218.96 213.18 218.96C212.775 218.96 212.391 219.067 212.028 219.28C211.676 219.483 211.388 219.781 211.164 220.176C210.951 220.571 210.844 221.035 210.844 221.568C210.844 222.101 210.951 222.565 211.164 222.96C211.388 223.355 211.676 223.659 212.028 223.872C212.391 224.075 212.775 224.176 213.18 224.176C213.596 224.176 213.98 224.069 214.332 223.856C214.695 223.643 214.983 223.339 215.196 222.944C215.42 222.549 215.532 222.08 215.532 221.536ZM218.872 221.536C218.872 220.64 219.048 219.845 219.4 219.152C219.762 218.459 220.248 217.925 220.856 217.552C221.474 217.179 222.162 216.992 222.92 216.992C223.581 216.992 224.157 217.125 224.648 217.392C225.149 217.659 225.549 217.995 225.848 218.4V217.136H228.104V226H225.848V224.704C225.56 225.12 225.16 225.467 224.648 225.744C224.146 226.011 223.565 226.144 222.904 226.144C222.157 226.144 221.474 225.952 220.856 225.568C220.248 225.184 219.762 224.645 219.4 223.952C219.048 223.248 218.872 222.443 218.872 221.536ZM225.848 221.568C225.848 221.024 225.741 220.56 225.528 220.176C225.314 219.781 225.026 219.483 224.664 219.28C224.301 219.067 223.912 218.96 223.496 218.96C223.08 218.96 222.696 219.061 222.344 219.264C221.992 219.467 221.704 219.765 221.48 220.16C221.266 220.544 221.16 221.003 221.16 221.536C221.16 222.069 221.266 222.539 221.48 222.944C221.704 223.339 221.992 223.643 222.344 223.856C222.706 224.069 223.09 224.176 223.496 224.176C223.912 224.176 224.301 224.075 224.664 223.872C225.026 223.659 225.314 223.36 225.528 222.976C225.741 222.581 225.848 222.112 225.848 221.568ZM229.715 221.568C229.715 220.651 229.902 219.851 230.276 219.168C230.649 218.475 231.166 217.941 231.828 217.568C232.489 217.184 233.246 216.992 234.1 216.992C235.198 216.992 236.105 217.269 236.82 217.824C237.545 218.368 238.03 219.136 238.276 220.128H235.86C235.732 219.744 235.513 219.445 235.204 219.232C234.905 219.008 234.532 218.896 234.084 218.896C233.444 218.896 232.937 219.131 232.564 219.6C232.19 220.059 232.004 220.715 232.004 221.568C232.004 222.411 232.19 223.067 232.564 223.536C232.937 223.995 233.444 224.224 234.084 224.224C234.99 224.224 235.582 223.819 235.86 223.008H238.276C238.03 223.968 237.545 224.731 236.82 225.296C236.094 225.861 235.188 226.144 234.1 226.144C233.246 226.144 232.489 225.957 231.828 225.584C231.166 225.2 230.649 224.667 230.276 223.984C229.902 223.291 229.715 222.485 229.715 221.568ZM245.165 226L242.157 222.224V226H239.917V214.16H242.157V220.896L245.133 217.136H248.045L244.141 221.584L248.077 226H245.165Z" fill="white"/>
<rect x="30.5" y="200.5" width="277" height="39" rx="5.5" stroke="#0F8C41"/>
</g>
<defs>
<filter id="filter0_d_569_418" x="0" y="0" width="338" height="272" filterUnits="userSpaceOnUse" color-interpolation-filters="sRGB">
<feFlood flood-opacity="0" result="BackgroundImageFix"/>
<feColorMatrix in="SourceAlpha" type="matrix" values="0 0 0 0 0 0 0 0 0 0 0 0 0 0 0 0 0 0 127 0" result="hardAlpha"/>
<feOffset dy="2"/>
<feGaussianBlur stdDeviation="3"/>
<feComposite in2="hardAlpha" operator="out"/>
<feColorMatrix type="matrix" values="0 0 0 0 0 0 0 0 0 0 0 0 0 0 0 0 0 0 0.1 0"/>
<feBlend mode="normal" in2="BackgroundImageFix" result="effect1_dropShadow_569_418"/>
<feBlend mode="normal" in="SourceGraphic" in2="effect1_dropShadow_569_418" result="shape"/>
</filter>
<linearGradient id="paint0_linear_569_418" x1="269.08" y1="188.384" x2="261.322" y2="254.883" gradientUnits="userSpaceOnUse">
<stop stop-color="#7B115D"/>
<stop offset="1" stop-color="#591B76"/>
</linearGradient>
</defs>
</svg>
