<svg width="281" height="301" viewBox="0 0 281 301" fill="none" xmlns="http://www.w3.org/2000/svg">
<g filter="url(#filter0_d_569_397)">
<rect x="6" y="28" width="269" height="265" rx="8" fill="white"/>
<path d="M83.772 164.294C81.616 164.294 79.684 163.944 77.976 163.244C76.268 162.544 74.896 161.508 73.86 160.136C72.852 158.764 72.32 157.112 72.264 155.18H79.908C80.02 156.272 80.398 157.112 81.042 157.7C81.686 158.26 82.526 158.54 83.562 158.54C84.626 158.54 85.466 158.302 86.082 157.826C86.698 157.322 87.006 156.636 87.006 155.768C87.006 155.04 86.754 154.438 86.25 153.962C85.774 153.486 85.172 153.094 84.444 152.786C83.744 152.478 82.736 152.128 81.42 151.736C79.516 151.148 77.962 150.56 76.758 149.972C75.554 149.384 74.518 148.516 73.65 147.368C72.782 146.22 72.348 144.722 72.348 142.874C72.348 140.13 73.342 137.988 75.33 136.448C77.318 134.88 79.908 134.096 83.1 134.096C86.348 134.096 88.966 134.88 90.954 136.448C92.942 137.988 94.006 140.144 94.146 142.916H86.376C86.32 141.964 85.97 141.222 85.326 140.69C84.682 140.13 83.856 139.85 82.848 139.85C81.98 139.85 81.28 140.088 80.748 140.564C80.216 141.012 79.95 141.67 79.95 142.538C79.95 143.49 80.398 144.232 81.294 144.764C82.19 145.296 83.59 145.87 85.494 146.486C87.398 147.13 88.938 147.746 90.114 148.334C91.318 148.922 92.354 149.776 93.222 150.896C94.09 152.016 94.524 153.458 94.524 155.222C94.524 156.902 94.09 158.428 93.222 159.8C92.382 161.172 91.15 162.264 89.526 163.076C87.902 163.888 85.984 164.294 83.772 164.294ZM108.646 140.27V146.234H118.264V151.778H108.646V158.246H119.524V164H101.464V134.516H119.524V140.27H108.646ZM149.177 144.008C149.177 145.716 148.785 147.284 148.001 148.712C147.217 150.112 146.013 151.246 144.389 152.114C142.765 152.982 140.749 153.416 138.341 153.416H133.889V164H126.707V134.516H138.341C140.693 134.516 142.681 134.922 144.305 135.734C145.929 136.546 147.147 137.666 147.959 139.094C148.771 140.522 149.177 142.16 149.177 144.008ZM137.795 147.704C139.167 147.704 140.189 147.382 140.861 146.738C141.533 146.094 141.869 145.184 141.869 144.008C141.869 142.832 141.533 141.922 140.861 141.278C140.189 140.634 139.167 140.312 137.795 140.312H133.889V147.704H137.795ZM165.386 140.018V133.34H177.02V164H169.544V140.018H165.386ZM184.453 148.25C184.453 143.434 185.377 139.64 187.225 136.868C189.101 134.096 192.111 132.71 196.255 132.71C200.399 132.71 203.395 134.096 205.243 136.868C207.119 139.64 208.057 143.434 208.057 148.25C208.057 153.122 207.119 156.944 205.243 159.716C203.395 162.488 200.399 163.874 196.255 163.874C192.111 163.874 189.101 162.488 187.225 159.716C185.377 156.944 184.453 153.122 184.453 148.25ZM201.001 148.25C201.001 145.422 200.693 143.252 200.077 141.74C199.461 140.2 198.187 139.43 196.255 139.43C194.323 139.43 193.049 140.2 192.433 141.74C191.817 143.252 191.509 145.422 191.509 148.25C191.509 150.154 191.621 151.736 191.845 152.996C192.069 154.228 192.517 155.236 193.189 156.02C193.889 156.776 194.911 157.154 196.255 157.154C197.599 157.154 198.607 156.776 199.279 156.02C199.979 155.236 200.441 154.228 200.665 152.996C200.889 151.736 201.001 150.154 201.001 148.25Z" fill="#591B76"/>
<path d="M82.72 189V187.336H86.048V199H84.208V189H82.72ZM89.5138 193.016C89.5138 191.171 89.8231 189.731 90.4418 188.696C91.0711 187.651 92.1484 187.128 93.6738 187.128C95.1991 187.128 96.2711 187.651 96.8898 188.696C97.5191 189.731 97.8338 191.171 97.8338 193.016C97.8338 194.883 97.5191 196.344 96.8898 197.4C96.2711 198.445 95.1991 198.968 93.6738 198.968C92.1484 198.968 91.0711 198.445 90.4418 197.4C89.8231 196.344 89.5138 194.883 89.5138 193.016ZM96.0418 193.016C96.0418 192.152 95.9831 191.421 95.8658 190.824C95.7591 190.227 95.5351 189.741 95.1938 189.368C94.8524 188.984 94.3458 188.792 93.6738 188.792C93.0018 188.792 92.4951 188.984 92.1538 189.368C91.8124 189.741 91.5831 190.227 91.4658 190.824C91.3591 191.421 91.3058 192.152 91.3058 193.016C91.3058 193.912 91.3591 194.664 91.4658 195.272C91.5724 195.88 91.7964 196.371 92.1378 196.744C92.4898 197.117 93.0018 197.304 93.6738 197.304C94.3458 197.304 94.8524 197.117 95.1938 196.744C95.5458 196.371 95.7751 195.88 95.8818 195.272C95.9884 194.664 96.0418 193.912 96.0418 193.016ZM105.472 194.552C105.472 193.667 105.653 192.883 106.016 192.2C106.389 191.517 106.891 190.989 107.52 190.616C108.16 190.232 108.864 190.04 109.632 190.04C110.325 190.04 110.928 190.179 111.44 190.456C111.963 190.723 112.379 191.059 112.688 191.464V190.184H114.528V199H112.688V197.688C112.379 198.104 111.957 198.451 111.424 198.728C110.891 199.005 110.283 199.144 109.6 199.144C108.843 199.144 108.149 198.952 107.52 198.568C106.891 198.173 106.389 197.629 106.016 196.936C105.653 196.232 105.472 195.437 105.472 194.552ZM112.688 194.584C112.688 193.976 112.56 193.448 112.304 193C112.059 192.552 111.733 192.211 111.328 191.976C110.923 191.741 110.485 191.624 110.016 191.624C109.547 191.624 109.109 191.741 108.704 191.976C108.299 192.2 107.968 192.536 107.712 192.984C107.467 193.421 107.344 193.944 107.344 194.552C107.344 195.16 107.467 195.693 107.712 196.152C107.968 196.611 108.299 196.963 108.704 197.208C109.12 197.443 109.557 197.56 110.016 197.56C110.485 197.56 110.923 197.443 111.328 197.208C111.733 196.973 112.059 196.632 112.304 196.184C112.56 195.725 112.688 195.192 112.688 194.584ZM128.556 190.04C129.249 190.04 129.868 190.184 130.412 190.472C130.966 190.76 131.398 191.187 131.708 191.752C132.028 192.317 132.188 193 132.188 193.8V199H130.38V194.072C130.38 193.283 130.182 192.68 129.788 192.264C129.393 191.837 128.854 191.624 128.172 191.624C127.489 191.624 126.945 191.837 126.54 192.264C126.145 192.68 125.948 193.283 125.948 194.072V199H124.14V194.072C124.14 193.283 123.942 192.68 123.548 192.264C123.153 191.837 122.614 191.624 121.932 191.624C121.249 191.624 120.705 191.837 120.3 192.264C119.905 192.68 119.708 193.283 119.708 194.072V199H117.884V190.184H119.708V191.192C120.006 190.829 120.385 190.547 120.844 190.344C121.302 190.141 121.793 190.04 122.316 190.04C123.02 190.04 123.649 190.189 124.204 190.488C124.758 190.787 125.185 191.219 125.484 191.784C125.75 191.251 126.166 190.829 126.732 190.52C127.297 190.2 127.905 190.04 128.556 190.04ZM147.353 192.44V193.976H140.777V192.44H147.353ZM156.789 196.52C157.813 195.635 158.618 194.909 159.205 194.344C159.802 193.768 160.298 193.171 160.693 192.552C161.087 191.933 161.285 191.315 161.285 190.696C161.285 190.056 161.13 189.555 160.821 189.192C160.522 188.829 160.047 188.648 159.397 188.648C158.767 188.648 158.277 188.851 157.925 189.256C157.583 189.651 157.402 190.184 157.381 190.856H155.621C155.653 189.64 156.015 188.712 156.709 188.072C157.413 187.421 158.303 187.096 159.381 187.096C160.543 187.096 161.45 187.416 162.101 188.056C162.762 188.696 163.093 189.549 163.093 190.616C163.093 191.384 162.895 192.125 162.501 192.84C162.117 193.544 161.653 194.179 161.109 194.744C160.575 195.299 159.893 195.944 159.061 196.68L158.341 197.32H163.413V198.84H155.637V197.512L156.789 196.52ZM173.155 191.48C173.465 191.075 173.886 190.733 174.419 190.456C174.953 190.179 175.555 190.04 176.227 190.04C176.995 190.04 177.694 190.232 178.323 190.616C178.963 190.989 179.465 191.517 179.827 192.2C180.19 192.883 180.371 193.667 180.371 194.552C180.371 195.437 180.19 196.232 179.827 196.936C179.465 197.629 178.963 198.173 178.323 198.568C177.694 198.952 176.995 199.144 176.227 199.144C175.555 199.144 174.958 199.011 174.435 198.744C173.913 198.467 173.486 198.125 173.155 197.72V203.192H171.331V190.184H173.155V191.48ZM178.515 194.552C178.515 193.944 178.387 193.421 178.131 192.984C177.886 192.536 177.555 192.2 177.139 191.976C176.734 191.741 176.297 191.624 175.827 191.624C175.369 191.624 174.931 191.741 174.515 191.976C174.11 192.211 173.779 192.552 173.523 193C173.278 193.448 173.155 193.976 173.155 194.584C173.155 195.192 173.278 195.725 173.523 196.184C173.779 196.632 174.11 196.973 174.515 197.208C174.931 197.443 175.369 197.56 175.827 197.56C176.297 197.56 176.734 197.443 177.139 197.208C177.555 196.963 177.886 196.611 178.131 196.152C178.387 195.693 178.515 195.16 178.515 194.552ZM193.807 190.04C194.5 190.04 195.119 190.184 195.663 190.472C196.218 190.76 196.65 191.187 196.959 191.752C197.279 192.317 197.439 193 197.439 193.8V199H195.631V194.072C195.631 193.283 195.434 192.68 195.039 192.264C194.644 191.837 194.106 191.624 193.423 191.624C192.74 191.624 192.196 191.837 191.791 192.264C191.396 192.68 191.199 193.283 191.199 194.072V199H189.391V194.072C189.391 193.283 189.194 192.68 188.799 192.264C188.404 191.837 187.866 191.624 187.183 191.624C186.5 191.624 185.956 191.837 185.551 192.264C185.156 192.68 184.959 193.283 184.959 194.072V199H183.135V190.184H184.959V191.192C185.258 190.829 185.636 190.547 186.095 190.344C186.554 190.141 187.044 190.04 187.567 190.04C188.271 190.04 188.9 190.189 189.455 190.488C190.01 190.787 190.436 191.219 190.735 191.784C191.002 191.251 191.418 190.829 191.983 190.52C192.548 190.2 193.156 190.04 193.807 190.04Z" fill="#591B76"/>
<rect x="30.5" y="229.5" width="220" height="39" rx="5.5" fill="#0F8C41"/>
<path d="M67.864 255L65.4 250.648H64.344V255H62.104V243.832H66.296C67.16 243.832 67.896 243.987 68.504 244.296C69.112 244.595 69.5653 245.005 69.864 245.528C70.1733 246.04 70.328 246.616 70.328 247.256C70.328 247.992 70.1147 248.659 69.688 249.256C69.2613 249.843 68.6267 250.248 67.784 250.472L70.456 255H67.864ZM64.344 248.968H66.216C66.824 248.968 67.2773 248.824 67.576 248.536C67.8747 248.237 68.024 247.827 68.024 247.304C68.024 246.792 67.8747 246.397 67.576 246.12C67.2773 245.832 66.824 245.688 66.216 245.688H64.344V248.968ZM80.594 250.376C80.594 250.696 80.5727 250.984 80.53 251.24H74.05C74.1033 251.88 74.3273 252.381 74.722 252.744C75.1167 253.107 75.602 253.288 76.178 253.288C77.01 253.288 77.602 252.931 77.954 252.216H80.37C80.114 253.069 79.6233 253.773 78.898 254.328C78.1727 254.872 77.282 255.144 76.226 255.144C75.3727 255.144 74.6047 254.957 73.922 254.584C73.25 254.2 72.722 253.661 72.338 252.968C71.9647 252.275 71.778 251.475 71.778 250.568C71.778 249.651 71.9647 248.845 72.338 248.152C72.7113 247.459 73.234 246.925 73.906 246.552C74.578 246.179 75.3513 245.992 76.226 245.992C77.0687 245.992 77.8207 246.173 78.482 246.536C79.154 246.899 79.6713 247.416 80.034 248.088C80.4073 248.749 80.594 249.512 80.594 250.376ZM78.274 249.736C78.2633 249.16 78.0553 248.701 77.65 248.36C77.2447 248.008 76.7487 247.832 76.162 247.832C75.6073 247.832 75.138 248.003 74.754 248.344C74.3807 248.675 74.1513 249.139 74.066 249.736H78.274ZM81.653 250.552C81.653 249.667 81.8343 248.883 82.197 248.2C82.5703 247.507 83.0717 246.968 83.701 246.584C84.3303 246.2 85.0237 246.008 85.781 246.008C86.4103 246.008 86.965 246.131 87.445 246.376C87.9357 246.611 88.3303 246.915 88.629 247.288V246.136H90.885V259.224H88.629V253.784C88.3303 254.168 87.9303 254.488 87.429 254.744C86.9277 255 86.3623 255.128 85.733 255.128C84.9863 255.128 84.2983 254.936 83.669 254.552C83.0503 254.157 82.5597 253.613 82.197 252.92C81.8343 252.227 81.653 251.437 81.653 250.552ZM88.629 250.568C88.629 250.024 88.517 249.555 88.293 249.16C88.069 248.765 87.7757 248.467 87.413 248.264C87.061 248.061 86.6823 247.96 86.277 247.96C85.8823 247.96 85.5037 248.061 85.141 248.264C84.789 248.467 84.501 248.765 84.277 249.16C84.053 249.544 83.941 250.008 83.941 250.552C83.941 251.096 84.053 251.571 84.277 251.976C84.501 252.371 84.789 252.669 85.141 252.872C85.5037 253.075 85.8823 253.176 86.277 253.176C86.6823 253.176 87.061 253.075 87.413 252.872C87.7757 252.669 88.069 252.371 88.293 251.976C88.517 251.581 88.629 251.112 88.629 250.568ZM101.441 246.136V255H99.1848V253.88C98.8968 254.264 98.5181 254.568 98.0488 254.792C97.5901 255.005 97.0888 255.112 96.5448 255.112C95.8514 255.112 95.2381 254.968 94.7048 254.68C94.1714 254.381 93.7501 253.949 93.4408 253.384C93.1421 252.808 92.9928 252.125 92.9928 251.336V246.136H95.2328V251.016C95.2328 251.72 95.4088 252.264 95.7608 252.648C96.1128 253.021 96.5928 253.208 97.2008 253.208C97.8194 253.208 98.3048 253.021 98.6568 252.648C99.0088 252.264 99.1848 251.72 99.1848 251.016V246.136H101.441ZM111.891 250.376C111.891 250.696 111.87 250.984 111.827 251.24H105.347C105.4 251.88 105.624 252.381 106.019 252.744C106.414 253.107 106.899 253.288 107.475 253.288C108.307 253.288 108.899 252.931 109.251 252.216H111.667C111.411 253.069 110.92 253.773 110.195 254.328C109.47 254.872 108.579 255.144 107.523 255.144C106.67 255.144 105.902 254.957 105.219 254.584C104.547 254.2 104.019 253.661 103.635 252.968C103.262 252.275 103.075 251.475 103.075 250.568C103.075 249.651 103.262 248.845 103.635 248.152C104.008 247.459 104.531 246.925 105.203 246.552C105.875 246.179 106.648 245.992 107.523 245.992C108.366 245.992 109.118 246.173 109.779 246.536C110.451 246.899 110.968 247.416 111.331 248.088C111.704 248.749 111.891 249.512 111.891 250.376ZM109.571 249.736C109.56 249.16 109.352 248.701 108.947 248.36C108.542 248.008 108.046 247.832 107.459 247.832C106.904 247.832 106.435 248.003 106.051 248.344C105.678 248.675 105.448 249.139 105.363 249.736H109.571ZM116.918 255.144C116.193 255.144 115.542 255.016 114.966 254.76C114.39 254.493 113.931 254.136 113.59 253.688C113.259 253.24 113.078 252.744 113.046 252.2H115.302C115.345 252.541 115.51 252.824 115.798 253.048C116.097 253.272 116.465 253.384 116.902 253.384C117.329 253.384 117.659 253.299 117.894 253.128C118.139 252.957 118.262 252.739 118.262 252.472C118.262 252.184 118.113 251.971 117.814 251.832C117.526 251.683 117.062 251.523 116.422 251.352C115.761 251.192 115.217 251.027 114.79 250.856C114.374 250.685 114.011 250.424 113.702 250.072C113.403 249.72 113.254 249.245 113.254 248.648C113.254 248.157 113.393 247.709 113.67 247.304C113.958 246.899 114.363 246.579 114.886 246.344C115.419 246.109 116.043 245.992 116.758 245.992C117.814 245.992 118.657 246.259 119.286 246.792C119.915 247.315 120.262 248.024 120.326 248.92H118.182C118.15 248.568 118.001 248.291 117.734 248.088C117.478 247.875 117.131 247.768 116.694 247.768C116.289 247.768 115.974 247.843 115.75 247.992C115.537 248.141 115.43 248.349 115.43 248.616C115.43 248.915 115.579 249.144 115.878 249.304C116.177 249.453 116.641 249.608 117.27 249.768C117.91 249.928 118.438 250.093 118.854 250.264C119.27 250.435 119.627 250.701 119.926 251.064C120.235 251.416 120.395 251.885 120.406 252.472C120.406 252.984 120.262 253.443 119.974 253.848C119.697 254.253 119.291 254.573 118.758 254.808C118.235 255.032 117.622 255.144 116.918 255.144ZM124.853 247.976V252.264C124.853 252.563 124.922 252.781 125.061 252.92C125.21 253.048 125.455 253.112 125.797 253.112H126.837V255H125.429C123.541 255 122.597 254.083 122.597 252.248V247.976H121.541V246.136H122.597V243.944H124.853V246.136H126.837V247.976H124.853ZM131.684 250.536C131.684 249.64 131.86 248.845 132.212 248.152C132.575 247.459 133.06 246.925 133.668 246.552C134.287 246.179 134.975 245.992 135.732 245.992C136.394 245.992 136.97 246.125 137.46 246.392C137.962 246.659 138.362 246.995 138.66 247.4V246.136H140.916V255H138.66V253.704C138.372 254.12 137.972 254.467 137.46 254.744C136.959 255.011 136.378 255.144 135.716 255.144C134.97 255.144 134.287 254.952 133.668 254.568C133.06 254.184 132.575 253.645 132.212 252.952C131.86 252.248 131.684 251.443 131.684 250.536ZM138.66 250.568C138.66 250.024 138.554 249.56 138.34 249.176C138.127 248.781 137.839 248.483 137.476 248.28C137.114 248.067 136.724 247.96 136.308 247.96C135.892 247.96 135.508 248.061 135.156 248.264C134.804 248.467 134.516 248.765 134.292 249.16C134.079 249.544 133.972 250.003 133.972 250.536C133.972 251.069 134.079 251.539 134.292 251.944C134.516 252.339 134.804 252.643 135.156 252.856C135.519 253.069 135.903 253.176 136.308 253.176C136.724 253.176 137.114 253.075 137.476 252.872C137.839 252.659 138.127 252.36 138.34 251.976C138.554 251.581 138.66 251.112 138.66 250.568ZM146.34 250.568C146.34 249.651 146.527 248.851 146.901 248.168C147.274 247.475 147.791 246.941 148.453 246.568C149.114 246.184 149.871 245.992 150.725 245.992C151.823 245.992 152.73 246.269 153.445 246.824C154.17 247.368 154.655 248.136 154.901 249.128H152.485C152.357 248.744 152.138 248.445 151.829 248.232C151.53 248.008 151.157 247.896 150.709 247.896C150.069 247.896 149.562 248.131 149.189 248.6C148.815 249.059 148.629 249.715 148.629 250.568C148.629 251.411 148.815 252.067 149.189 252.536C149.562 252.995 150.069 253.224 150.709 253.224C151.615 253.224 152.207 252.819 152.485 252.008H154.901C154.655 252.968 154.17 253.731 153.445 254.296C152.719 254.861 151.813 255.144 150.725 255.144C149.871 255.144 149.114 254.957 148.453 254.584C147.791 254.2 147.274 253.667 146.901 252.984C146.527 252.291 146.34 251.485 146.34 250.568ZM155.965 250.536C155.965 249.64 156.141 248.845 156.493 248.152C156.856 247.459 157.342 246.925 157.95 246.552C158.568 246.179 159.256 245.992 160.014 245.992C160.675 245.992 161.251 246.125 161.742 246.392C162.243 246.659 162.643 246.995 162.942 247.4V246.136H165.198V255H162.942V253.704C162.654 254.12 162.254 254.467 161.742 254.744C161.24 255.011 160.659 255.144 159.998 255.144C159.251 255.144 158.568 254.952 157.95 254.568C157.342 254.184 156.856 253.645 156.493 252.952C156.141 252.248 155.965 251.443 155.965 250.536ZM162.942 250.568C162.942 250.024 162.835 249.56 162.622 249.176C162.408 248.781 162.12 248.483 161.758 248.28C161.395 248.067 161.006 247.96 160.59 247.96C160.174 247.96 159.79 248.061 159.438 248.264C159.086 248.467 158.798 248.765 158.574 249.16C158.36 249.544 158.254 250.003 158.254 250.536C158.254 251.069 158.36 251.539 158.574 251.944C158.798 252.339 159.086 252.643 159.438 252.856C159.8 253.069 160.184 253.176 160.59 253.176C161.006 253.176 161.395 253.075 161.758 252.872C162.12 252.659 162.408 252.36 162.622 251.976C162.835 251.581 162.942 251.112 162.942 250.568ZM169.625 243.16V255H167.385V243.16H169.625ZM174.078 243.16V255H171.838V243.16H174.078ZM182.344 247.432C182.632 247.005 183.027 246.659 183.528 246.392C184.04 246.125 184.621 245.992 185.272 245.992C186.029 245.992 186.712 246.179 187.32 246.552C187.939 246.925 188.424 247.459 188.776 248.152C189.139 248.835 189.32 249.629 189.32 250.536C189.32 251.443 189.139 252.248 188.776 252.952C188.424 253.645 187.939 254.184 187.32 254.568C186.712 254.952 186.029 255.144 185.272 255.144C184.611 255.144 184.029 255.016 183.528 254.76C183.037 254.493 182.643 254.152 182.344 253.736V255H180.104V243.16H182.344V247.432ZM187.032 250.536C187.032 250.003 186.92 249.544 186.696 249.16C186.483 248.765 186.195 248.467 185.832 248.264C185.48 248.061 185.096 247.96 184.68 247.96C184.275 247.96 183.891 248.067 183.528 248.28C183.176 248.483 182.888 248.781 182.664 249.176C182.451 249.571 182.344 250.035 182.344 250.568C182.344 251.101 182.451 251.565 182.664 251.96C182.888 252.355 183.176 252.659 183.528 252.872C183.891 253.075 184.275 253.176 184.68 253.176C185.096 253.176 185.48 253.069 185.832 252.856C186.195 252.643 186.483 252.339 186.696 251.944C186.92 251.549 187.032 251.08 187.032 250.536ZM190.372 250.536C190.372 249.64 190.548 248.845 190.9 248.152C191.262 247.459 191.748 246.925 192.356 246.552C192.974 246.179 193.662 245.992 194.42 245.992C195.081 245.992 195.657 246.125 196.148 246.392C196.649 246.659 197.049 246.995 197.348 247.4V246.136H199.604V255H197.348V253.704C197.06 254.12 196.66 254.467 196.148 254.744C195.646 255.011 195.065 255.144 194.404 255.144C193.657 255.144 192.974 254.952 192.356 254.568C191.748 254.184 191.262 253.645 190.9 252.952C190.548 252.248 190.372 251.443 190.372 250.536ZM197.348 250.568C197.348 250.024 197.241 249.56 197.028 249.176C196.814 248.781 196.526 248.483 196.164 248.28C195.801 248.067 195.412 247.96 194.996 247.96C194.58 247.96 194.196 248.061 193.844 248.264C193.492 248.467 193.204 248.765 192.98 249.16C192.766 249.544 192.66 250.003 192.66 250.536C192.66 251.069 192.766 251.539 192.98 251.944C193.204 252.339 193.492 252.643 193.844 252.856C194.206 253.069 194.59 253.176 194.996 253.176C195.412 253.176 195.801 253.075 196.164 252.872C196.526 252.659 196.814 252.36 197.028 251.976C197.241 251.581 197.348 251.112 197.348 250.568ZM201.215 250.568C201.215 249.651 201.402 248.851 201.776 248.168C202.149 247.475 202.666 246.941 203.328 246.568C203.989 246.184 204.746 245.992 205.6 245.992C206.698 245.992 207.605 246.269 208.32 246.824C209.045 247.368 209.53 248.136 209.776 249.128H207.36C207.232 248.744 207.013 248.445 206.704 248.232C206.405 248.008 206.032 247.896 205.584 247.896C204.944 247.896 204.437 248.131 204.064 248.6C203.69 249.059 203.504 249.715 203.504 250.568C203.504 251.411 203.69 252.067 204.064 252.536C204.437 252.995 204.944 253.224 205.584 253.224C206.49 253.224 207.082 252.819 207.36 252.008H209.776C209.53 252.968 209.045 253.731 208.32 254.296C207.594 254.861 206.688 255.144 205.6 255.144C204.746 255.144 203.989 254.957 203.328 254.584C202.666 254.2 202.149 253.667 201.776 252.984C201.402 252.291 201.215 251.485 201.215 250.568ZM216.665 255L213.657 251.224V255H211.417V243.16H213.657V249.896L216.633 246.136H219.545L215.641 250.584L219.577 255H216.665Z" fill="white"/>
<rect x="30.5" y="229.5" width="220" height="39" rx="5.5" stroke="#0F8C41"/>
</g>
<path fill-rule="evenodd" clip-rule="evenodd" d="M42.4746 8C42.4746 3.58172 46.0563 0 50.4746 0H67.5297C71.9479 0 75.5297 3.58172 75.5297 8V28H199.771V8C199.771 3.58172 203.353 0 207.771 0H224.826C229.245 0 232.826 3.58172 232.826 8V28H267C271.418 28 275 31.5817 275 36V100H6V36C6 31.5817 9.58172 28 14 28H42.4746V8Z" fill="url(#paint0_linear_569_397)"/>
<g filter="url(#filter1_d_569_397)">
<path d="M6 36C6 31.5817 9.58172 28 14 28H267C271.418 28 275 31.5817 275 36V100H6V36Z" fill="url(#paint1_linear_569_397)"/>
<g clip-path="url(#clip0_569_397)">
<path d="M71 67C71 69.7614 68.7614 72 66 72C63.2386 72 61 69.7614 61 67C61 64.2386 63.2386 62 66 62C68.7614 62 71 64.2386 71 67Z" fill="#84ED9B"/>
<path d="M83.288 73.112C82.2533 73.112 81.3093 72.872 80.456 72.392C79.6027 71.9013 78.9253 71.224 78.424 70.36C77.9333 69.4853 77.688 68.504 77.688 67.416C77.688 66.328 77.9333 65.352 78.424 64.488C78.9253 63.6133 79.6027 62.936 80.456 62.456C81.3093 61.9653 82.2533 61.72 83.288 61.72C84.3333 61.72 85.2827 61.9653 86.136 62.456C86.9893 62.936 87.6613 63.608 88.152 64.472C88.6427 65.336 88.888 66.3173 88.888 67.416C88.888 68.5147 88.6427 69.496 88.152 70.36C87.6613 71.224 86.9893 71.9013 86.136 72.392C85.2827 72.872 84.3333 73.112 83.288 73.112ZM83.288 71.848C84.0667 71.848 84.7653 71.6667 85.384 71.304C86.0133 70.9413 86.504 70.424 86.856 69.752C87.2187 69.08 87.4 68.3013 87.4 67.416C87.4 66.52 87.2187 65.7413 86.856 65.08C86.504 64.408 86.0187 63.8907 85.4 63.528C84.7813 63.1653 84.0773 62.984 83.288 62.984C82.4987 62.984 81.7947 63.1653 81.176 63.528C80.5573 63.8907 80.0667 64.408 79.704 65.08C79.352 65.7413 79.176 66.52 79.176 67.416C79.176 68.3013 79.352 69.08 79.704 69.752C80.0667 70.424 80.5573 70.9413 81.176 71.304C81.8053 71.6667 82.5093 71.848 83.288 71.848ZM99.5781 73H98.1221L92.2661 64.12V73H90.8101V61.832H92.2661L98.1221 70.696V61.832H99.5781V73ZM103.516 71.816H107.42V73H102.06V61.848H103.516V71.816ZM110.422 61.848V73H108.966V61.848H110.422ZM121.672 73H120.216L114.36 64.12V73H112.904V61.832H114.36L120.216 70.696V61.832H121.672V73ZM125.61 63.032V66.76H129.674V67.96H125.61V71.8H130.154V73H124.154V61.832H130.154V63.032H125.61Z" fill="white"/>
</g>
<line x1="139.5" y1="71.2422" x2="139.5" y2="62.7569" stroke="#D0D0D0"/>
<path d="M163.248 61.848L160.016 73H158.384L155.792 64.024L153.104 73L151.488 73.016L148.368 61.848H149.92L152.352 71.304L155.04 61.848H156.672L159.232 71.272L161.68 61.848H163.248ZM166.297 63.032V66.76H170.361V67.96H166.297V71.8H170.841V73H164.841V61.832H170.841V63.032H166.297ZM174.501 63.032V66.76H178.565V67.96H174.501V71.8H179.045V73H173.045V61.832H179.045V63.032H174.501ZM187.296 73L182.704 67.912V73H181.248V61.848H182.704V67.016L187.312 61.848H189.152L184.096 67.432L189.2 73H187.296ZM192.282 63.032V66.76H196.346V67.96H192.282V71.8H196.826V73H190.826V61.832H196.826V63.032H192.282ZM207.797 73H206.341L200.485 64.12V73H199.029V61.832H200.485L206.341 70.696V61.832H207.797V73ZM213.751 61.848C214.967 61.848 216.018 62.0773 216.903 62.536C217.799 62.984 218.482 63.6293 218.951 64.472C219.431 65.3147 219.671 66.3067 219.671 67.448C219.671 68.5893 219.431 69.5813 218.951 70.424C218.482 71.256 217.799 71.896 216.903 72.344C216.018 72.7813 214.967 73 213.751 73H210.279V61.848H213.751ZM213.751 71.8C215.191 71.8 216.29 71.4213 217.047 70.664C217.804 69.896 218.183 68.824 218.183 67.448C218.183 66.0613 217.799 64.9787 217.031 64.2C216.274 63.4213 215.18 63.032 213.751 63.032H211.735V71.8H213.751Z" fill="white"/>
</g>
<defs>
<filter id="filter0_d_569_397" x="0" y="24" width="281" height="277" filterUnits="userSpaceOnUse" color-interpolation-filters="sRGB">
<feFlood flood-opacity="0" result="BackgroundImageFix"/>
<feColorMatrix in="SourceAlpha" type="matrix" values="0 0 0 0 0 0 0 0 0 0 0 0 0 0 0 0 0 0 127 0" result="hardAlpha"/>
<feOffset dy="2"/>
<feGaussianBlur stdDeviation="3"/>
<feComposite in2="hardAlpha" operator="out"/>
<feColorMatrix type="matrix" values="0 0 0 0 0 0 0 0 0 0 0 0 0 0 0 0 0 0 0.1 0"/>
<feBlend mode="normal" in2="BackgroundImageFix" result="effect1_dropShadow_569_397"/>
<feBlend mode="normal" in="SourceGraphic" in2="effect1_dropShadow_569_397" result="shape"/>
</filter>
<filter id="filter1_d_569_397" x="0" y="24" width="281" height="84" filterUnits="userSpaceOnUse" color-interpolation-filters="sRGB">
<feFlood flood-opacity="0" result="BackgroundImageFix"/>
<feColorMatrix in="SourceAlpha" type="matrix" values="0 0 0 0 0 0 0 0 0 0 0 0 0 0 0 0 0 0 127 0" result="hardAlpha"/>
<feOffset dy="2"/>
<feGaussianBlur stdDeviation="3"/>
<feComposite in2="hardAlpha" operator="out"/>
<feColorMatrix type="matrix" values="0 0 0 0 0 0 0 0 0 0 0 0 0 0 0 0 0 0 0.1 0"/>
<feBlend mode="normal" in2="BackgroundImageFix" result="effect1_dropShadow_569_397"/>
<feBlend mode="normal" in="SourceGraphic" in2="effect1_dropShadow_569_397" result="shape"/>
</filter>
<linearGradient id="paint0_linear_569_397" x1="237.34" y1="-29.0396" x2="190.779" y2="125.437" gradientUnits="userSpaceOnUse">
<stop stop-color="#7B115D"/>
<stop offset="1" stop-color="#591B76"/>
</linearGradient>
<linearGradient id="paint1_linear_569_397" x1="237.34" y1="7.09147" x2="212.194" y2="122.962" gradientUnits="userSpaceOnUse">
<stop stop-color="#7B115D"/>
<stop offset="1" stop-color="#591B76"/>
</linearGradient>
<clipPath id="clip0_569_397">
<rect x="61" y="55" width="71" height="24" rx="4" fill="white"/>
</clipPath>
</defs>
</svg>
