<svg width="24" height="24" viewBox="0 0 24 24" fill="none" xmlns="http://www.w3.org/2000/svg">
<path d="M12 20.9475C16.9043 20.9475 20.88 16.9717 20.88 12.0675C20.88 7.1632 16.9043 3.1875 12 3.1875C7.09571 3.1875 3.12 7.1632 3.12 12.0675C3.12 16.9717 7.09571 20.9475 12 20.9475Z" stroke="white" stroke-width="1.5" stroke-linecap="round" stroke-linejoin="round"/>
<path d="M15.3879 8.66904C14.4899 7.76822 13.2711 7.26063 11.9991 7.25781C11.21 7.25764 10.433 7.45206 9.73689 7.82383C9.04079 8.19559 8.44711 8.73321 8.00837 9.38916C7.56963 10.0451 7.29934 10.7992 7.22152 11.5844C7.14369 12.3697 7.26072 13.1621 7.56218 13.8914C7.86363 14.6207 8.34027 15.2645 8.94985 15.7656C9.55944 16.2667 10.2831 16.6099 11.057 16.7647C11.8308 16.9193 12.6308 16.8809 13.3862 16.6527C14.1418 16.4245 14.8292 16.0135 15.3879 15.4562" stroke="white" stroke-width="1.5" stroke-linecap="round" stroke-linejoin="round"/>
</svg>
