<svg width="16" height="16" viewBox="0 0 16 16" fill="none" xmlns="http://www.w3.org/2000/svg">
<path d="M7.99996 13.965C11.2695 13.965 13.92 11.3145 13.92 8.04499C13.92 4.77547 11.2695 2.125 7.99996 2.125C4.73043 2.125 2.07996 4.77547 2.07996 8.04499C2.07996 11.3145 4.73043 13.965 7.99996 13.965Z" stroke="white" stroke-linecap="round" stroke-linejoin="round"/>
<path d="M10.2586 5.77969C9.65992 5.17914 8.84738 4.84074 7.99938 4.83887C7.4733 4.83875 6.95528 4.96836 6.49122 5.21621C6.02716 5.46405 5.63137 5.82246 5.33887 6.25976C5.04638 6.69704 4.86619 7.19976 4.8143 7.72328C4.76242 8.2468 4.84044 8.77506 5.04141 9.26127C5.24238 9.74748 5.56014 10.1767 5.96653 10.5107C6.37292 10.8448 6.85538 11.0736 7.37128 11.1768C7.88719 11.2799 8.4205 11.2542 8.92412 11.1021C9.4278 10.95 9.8861 10.676 10.2586 10.3045" stroke="white" stroke-linecap="round" stroke-linejoin="round"/>
</svg>
