<svg width="40" height="40" viewBox="0 0 40 40" fill="none" xmlns="http://www.w3.org/2000/svg">
<path fill-rule="evenodd" clip-rule="evenodd" d="M33.3333 1.66602C36.0948 1.66602 38.3333 3.9046 38.3333 6.66602V33.3327C38.3333 36.0942 36.0948 38.3327 33.3333 38.3327H6.66663C3.90521 38.3327 1.66663 36.0942 1.66663 33.3327V6.66602C1.66663 3.9046 3.90521 1.66602 6.66663 1.66602H33.3333ZM33.3333 4.99935C34.2538 4.99935 35 5.74555 35 6.66602V33.3327C35 34.2532 34.2538 34.9993 33.3333 34.9993H25V23.3325H28.4603C29.1776 23.3325 29.8145 22.8735 30.0415 22.1928L30.7798 19.9778C31.0496 19.1683 30.4471 18.3325 29.594 18.3325H25V14.9992C25 14.1659 25.8333 13.3325 26.6666 13.3325H30C30.9205 13.3325 31.6666 12.5863 31.6666 11.6659V10.5226C31.6666 9.9842 31.3228 9.50151 30.8021 9.36413C28.6175 8.7876 26.6666 8.7876 26.6666 8.7876C22.5 8.7876 20 11.6659 20 14.1659V18.3325H16.6666C15.7462 18.3325 15 19.0787 15 19.9992V21.6658C15 22.5863 15.7461 23.3325 16.6666 23.3325H20V34.9993H6.66663C5.74616 34.9993 4.99996 34.2532 4.99996 33.3327V6.66602C4.99996 5.74555 5.74616 4.99935 6.66663 4.99935H33.3333Z" fill="#0F0F0F"/>
</svg>
