<svg width="41" height="40" viewBox="0 0 41 40" fill="none" xmlns="http://www.w3.org/2000/svg">
<path fill-rule="evenodd" clip-rule="evenodd" d="M33.9588 1.66602C36.7203 1.66602 38.9588 3.9046 38.9588 6.66602V33.3327C38.9588 36.0942 36.7203 38.3327 33.9588 38.3327H7.29211C4.5307 38.3327 2.29211 36.0942 2.29211 33.3327V6.66602C2.29211 3.9046 4.5307 1.66602 7.29211 1.66602H33.9588ZM33.9588 4.99935C34.8793 4.99935 35.6254 5.74555 35.6254 6.66602V33.3327C35.6254 34.2532 34.8793 34.9993 33.9588 34.9993H25.6254V23.3325H29.0858C29.8031 23.3325 30.4399 22.8735 30.6669 22.1928L31.4053 19.9778C31.6751 19.1683 31.0726 18.3325 30.2194 18.3325H25.6254V14.9992C25.6254 14.1659 26.4588 13.3325 27.2921 13.3325H30.6254C31.5459 13.3325 32.2921 12.5863 32.2921 11.6659V10.5226C32.2921 9.9842 31.9483 9.50151 31.4276 9.36413C29.2429 8.7876 27.2921 8.7876 27.2921 8.7876C23.1254 8.7876 20.6254 11.6659 20.6254 14.1659V18.3325H17.2921C16.3716 18.3325 15.6254 19.0787 15.6254 19.9992V21.6658C15.6254 22.5863 16.3716 23.3325 17.2921 23.3325H20.6254V34.9993H7.29211C6.37165 34.9993 5.62545 34.2532 5.62545 33.3327V6.66602C5.62545 5.74555 6.37165 4.99935 7.29211 4.99935H33.9588Z" fill="#0F0F0F"/>
</svg>
