<svg width="41" height="40" viewBox="0 0 41 40" fill="none" xmlns="http://www.w3.org/2000/svg">
<path fill-rule="evenodd" clip-rule="evenodd" d="M20.6255 30C26.1483 30 30.6255 25.5228 30.6255 20C30.6255 14.4771 26.1483 10 20.6255 10C15.1026 10 10.6255 14.4771 10.6255 20C10.6255 25.5228 15.1026 30 20.6255 30ZM20.6255 26.6667C24.3073 26.6667 27.2922 23.6818 27.2922 20C27.2922 16.3181 24.3073 13.3333 20.6255 13.3333C16.9436 13.3333 13.9588 16.3181 13.9588 20C13.9588 23.6818 16.9436 26.6667 20.6255 26.6667Z" fill="#0F0F0F"/>
<path d="M30.6255 8.33398C29.705 8.33398 28.9589 9.08018 28.9589 10.0007C28.9589 10.9211 29.705 11.6673 30.6255 11.6673C31.546 11.6673 32.2922 10.9211 32.2922 10.0007C32.2922 9.08018 31.546 8.33398 30.6255 8.33398Z" fill="#0F0F0F"/>
<path fill-rule="evenodd" clip-rule="evenodd" d="M3.38205 7.12612C2.29211 9.26523 2.29211 12.0655 2.29211 17.666V22.3327C2.29211 27.9332 2.29211 30.7335 3.38205 32.8725C4.34078 34.7542 5.87058 36.284 7.75221 37.2427C9.89133 38.3327 12.6916 38.3327 18.2921 38.3327H22.9588C28.5593 38.3327 31.3596 38.3327 33.4986 37.2427C35.3803 36.284 36.9101 34.7542 37.8688 32.8725C38.9588 30.7335 38.9588 27.9332 38.9588 22.3327V17.666C38.9588 12.0655 38.9588 9.26523 37.8688 7.12612C36.9101 5.24448 35.3803 3.71468 33.4986 2.75595C31.3596 1.66602 28.5593 1.66602 22.9588 1.66602H18.2921C12.6916 1.66602 9.89133 1.66602 7.75221 2.75595C5.87058 3.71468 4.34078 5.24448 3.38205 7.12612ZM22.9588 4.99935H18.2921C15.4368 4.99935 13.4959 5.00195 11.9956 5.12452C10.5342 5.24392 9.78685 5.46033 9.26551 5.72597C8.0111 6.36513 6.99123 7.385 6.35206 8.63942C6.08643 9.16075 5.87001 9.90808 5.75061 11.3695C5.62805 12.8698 5.62545 14.8107 5.62545 17.666V22.3327C5.62545 25.188 5.62805 27.1288 5.75061 28.6292C5.87001 30.0907 6.08643 30.838 6.35206 31.3593C6.99123 32.6137 8.0111 33.6335 9.26551 34.2727C9.78685 34.5383 10.5342 34.7548 11.9956 34.8742C13.4959 34.9967 15.4368 34.9993 18.2921 34.9993H22.9588C25.8141 34.9993 27.7549 34.9967 29.2553 34.8742C30.7168 34.7548 31.4641 34.5383 31.9854 34.2727C33.2398 33.6335 34.2596 32.6137 34.8988 31.3593C35.1644 30.838 35.3809 30.0907 35.5003 28.6292C35.6228 27.1288 35.6254 25.188 35.6254 22.3327V17.666C35.6254 14.8107 35.6228 12.8698 35.5003 11.3695C35.3809 9.90808 35.1644 9.16075 34.8988 8.63942C34.2596 7.385 33.2398 6.36513 31.9854 5.72597C31.4641 5.46033 30.7168 5.24392 29.2553 5.12452C27.7549 5.00195 25.8141 4.99935 22.9588 4.99935Z" fill="#0F0F0F"/>
</svg>
