<svg width="40" height="40" viewBox="0 0 40 40" fill="none" xmlns="http://www.w3.org/2000/svg">
<path fill-rule="evenodd" clip-rule="evenodd" d="M20 30C25.5228 30 30 25.5228 30 20C30 14.4771 25.5228 10 20 10C14.4771 10 10 14.4771 10 20C10 25.5228 14.4771 30 20 30ZM20 26.6667C23.6818 26.6667 26.6667 23.6818 26.6667 20C26.6667 16.3181 23.6818 13.3333 20 13.3333C16.3181 13.3333 13.3333 16.3181 13.3333 20C13.3333 23.6818 16.3181 26.6667 20 26.6667Z" fill="#0F0F0F"/>
<path d="M30 8.33398C29.0795 8.33398 28.3334 9.08018 28.3334 10.0007C28.3334 10.9211 29.0795 11.6673 30 11.6673C30.9205 11.6673 31.6667 10.9211 31.6667 10.0007C31.6667 9.08018 30.9205 8.33398 30 8.33398Z" fill="#0F0F0F"/>
<path fill-rule="evenodd" clip-rule="evenodd" d="M2.75656 7.12612C1.66663 9.26523 1.66663 12.0655 1.66663 17.666V22.3327C1.66663 27.9332 1.66663 30.7335 2.75656 32.8725C3.71529 34.7542 5.24509 36.284 7.12673 37.2427C9.26584 38.3327 12.0661 38.3327 17.6666 38.3327H22.3333C27.9338 38.3327 30.7341 38.3327 32.8731 37.2427C34.7548 36.284 36.2846 34.7542 37.2433 32.8725C38.3333 30.7335 38.3333 27.9332 38.3333 22.3327V17.666C38.3333 12.0655 38.3333 9.26523 37.2433 7.12612C36.2846 5.24448 34.7548 3.71468 32.8731 2.75595C30.7341 1.66602 27.9338 1.66602 22.3333 1.66602H17.6666C12.0661 1.66602 9.26584 1.66602 7.12673 2.75595C5.24509 3.71468 3.71529 5.24448 2.75656 7.12612ZM22.3333 4.99935H17.6666C14.8114 4.99935 12.8704 5.00195 11.3701 5.12452C9.90869 5.24392 9.16136 5.46033 8.64003 5.72597C7.38561 6.36513 6.36574 7.385 5.72658 8.63942C5.46094 9.16075 5.24453 9.90808 5.12513 11.3695C5.00256 12.8698 4.99996 14.8107 4.99996 17.666V22.3327C4.99996 25.188 5.00256 27.1288 5.12513 28.6292C5.24453 30.0907 5.46094 30.838 5.72658 31.3593C6.36574 32.6137 7.38561 33.6335 8.64003 34.2727C9.16136 34.5383 9.90869 34.7548 11.3701 34.8742C12.8704 34.9967 14.8114 34.9993 17.6666 34.9993H22.3333C25.1886 34.9993 27.1295 34.9967 28.6298 34.8742C30.0913 34.7548 30.8386 34.5383 31.36 34.2727C32.6143 33.6335 33.6341 32.6137 34.2733 31.3593C34.539 30.838 34.7555 30.0907 34.8748 28.6292C34.9973 27.1288 35 25.188 35 22.3327V17.666C35 14.8107 34.9973 12.8698 34.8748 11.3695C34.7555 9.90808 34.539 9.16075 34.2733 8.63942C33.6341 7.385 32.6143 6.36513 31.36 5.72597C30.8386 5.46033 30.0913 5.24392 28.6298 5.12452C27.1295 5.00195 25.1886 4.99935 22.3333 4.99935Z" fill="#0F0F0F"/>
</svg>
