<svg width="41" height="40" viewBox="0 0 41 40" fill="none" xmlns="http://www.w3.org/2000/svg">
<path d="M11.4589 13.334C12.8396 13.334 13.9589 12.2147 13.9589 10.834C13.9589 9.45327 12.8396 8.33398 11.4589 8.33398C10.0781 8.33398 8.95886 9.45327 8.95886 10.834C8.95886 12.2147 10.0781 13.334 11.4589 13.334Z" fill="#0F0F0F"/>
<path d="M8.95886 16.6667C8.95886 15.7462 9.70506 15 10.6255 15H12.2922C13.2127 15 13.9589 15.7462 13.9589 16.6667V30C13.9589 30.9205 13.2127 31.6667 12.2922 31.6667H10.6255C9.70506 31.6667 8.95886 30.9205 8.95886 30V16.6667Z" fill="#0F0F0F"/>
<path d="M18.9588 31.6667H20.6254C21.5459 31.6667 22.2921 30.9205 22.2921 30V22.5C22.2921 20 27.2921 18.3333 27.2921 21.6667V30.0007C27.2921 30.9212 28.0383 31.6667 28.9588 31.6667H30.6254C31.5459 31.6667 32.2921 30.9205 32.2921 30V20C32.2921 16.6667 29.7921 15 26.4588 15C23.1254 15 22.2921 17.5 22.2921 17.5V16.6667C22.2921 15.7462 21.5459 15 20.6254 15H18.9588C18.0383 15 17.2921 15.7462 17.2921 16.6667V30C17.2921 30.9205 18.0383 31.6667 18.9588 31.6667Z" fill="#0F0F0F"/>
<path fill-rule="evenodd" clip-rule="evenodd" d="M33.9588 1.66602C36.7203 1.66602 38.9588 3.9046 38.9588 6.66602V33.3327C38.9588 36.0942 36.7203 38.3327 33.9588 38.3327H7.29211C4.5307 38.3327 2.29211 36.0942 2.29211 33.3327V6.66602C2.29211 3.9046 4.5307 1.66602 7.29211 1.66602H33.9588ZM33.9588 4.99935C34.8793 4.99935 35.6254 5.74555 35.6254 6.66602V33.3327C35.6254 34.2532 34.8793 34.9993 33.9588 34.9993H7.29211C6.37165 34.9993 5.62545 34.2532 5.62545 33.3327V6.66602C5.62545 5.74555 6.37165 4.99935 7.29211 4.99935H33.9588Z" fill="#0F0F0F"/>
</svg>
