<svg width="40" height="40" viewBox="0 0 40 40" fill="none" xmlns="http://www.w3.org/2000/svg">
<path d="M10.8334 13.334C12.2141 13.334 13.3334 12.2147 13.3334 10.834C13.3334 9.45327 12.2141 8.33398 10.8334 8.33398C9.45266 8.33398 8.33337 9.45327 8.33337 10.834C8.33337 12.2147 9.45266 13.334 10.8334 13.334Z" fill="#0F0F0F"/>
<path d="M8.33337 16.6667C8.33337 15.7462 9.07957 15 10 15H11.6667C12.5872 15 13.3334 15.7462 13.3334 16.6667V30C13.3334 30.9205 12.5872 31.6667 11.6667 31.6667H10C9.07957 31.6667 8.33337 30.9205 8.33337 30V16.6667Z" fill="#0F0F0F"/>
<path d="M18.3333 31.6667H20C20.9205 31.6667 21.6666 30.9205 21.6666 30V22.5C21.6666 20 26.6666 18.3333 26.6666 21.6667V30.0007C26.6666 30.9212 27.4128 31.6667 28.3333 31.6667H30C30.9205 31.6667 31.6666 30.9205 31.6666 30V20C31.6666 16.6667 29.1666 15 25.8333 15C22.5 15 21.6666 17.5 21.6666 17.5V16.6667C21.6666 15.7462 20.9205 15 20 15H18.3333C17.4128 15 16.6666 15.7462 16.6666 16.6667V30C16.6666 30.9205 17.4128 31.6667 18.3333 31.6667Z" fill="#0F0F0F"/>
<path fill-rule="evenodd" clip-rule="evenodd" d="M33.3333 1.66602C36.0948 1.66602 38.3333 3.9046 38.3333 6.66602V33.3327C38.3333 36.0942 36.0948 38.3327 33.3333 38.3327H6.66663C3.90521 38.3327 1.66663 36.0942 1.66663 33.3327V6.66602C1.66663 3.9046 3.90521 1.66602 6.66663 1.66602H33.3333ZM33.3333 4.99935C34.2538 4.99935 35 5.74555 35 6.66602V33.3327C35 34.2532 34.2538 34.9993 33.3333 34.9993H6.66663C5.74616 34.9993 4.99996 34.2532 4.99996 33.3327V6.66602C4.99996 5.74555 5.74616 4.99935 6.66663 4.99935H33.3333Z" fill="#0F0F0F"/>
</svg>
